<?xml version="1.0" encoding="UTF-8" ?>
<!DOCTYPE svg PUBLIC "-//W3C//DTD SVG 1.1//EN" "http://www.w3.org/Graphics/SVG/1.1/DTD/svg11.dtd">
<svg width="433pt" height="433pt" viewBox="0 0 433 433" version="1.1" xmlns="http://www.w3.org/2000/svg">
<g id="#818181ff">
<path fill="#818181" opacity="1.00" d=" M 134.73 0.00 L 382.88 0.00 C 382.88 23.37 382.86 46.74 382.89 70.11 C 383.29 72.63 381.11 74.27 379.75 76.06 C 343.69 75.93 307.63 76.01 271.57 76.03 C 264.73 76.10 257.88 75.98 251.04 76.00 C 249.71 71.03 248.16 66.01 245.38 61.64 C 240.33 55.31 233.68 50.61 227.31 45.73 C 218.78 40.11 210.16 34.54 200.91 30.16 C 192.16 26.62 183.53 22.48 174.15 20.94 C 172.68 20.71 171.20 21.14 170.02 22.01 C 163.30 26.23 160.32 34.03 156.81 40.77 C 152.20 49.20 150.33 58.70 147.10 67.67 C 126.70 70.00 106.35 72.72 85.96 75.12 C 75.62 76.75 65.13 75.74 54.72 75.99 C 56.15 55.06 66.82 35.20 82.41 21.35 C 96.69 8.44 115.56 1.01 134.73 0.00 Z" />
<path fill="#818181" opacity="1.00" d=" M 52.34 357.05 C 87.70 356.93 123.06 357.04 158.41 357.00 C 165.93 357.00 173.44 357.00 180.96 357.00 C 182.77 363.46 184.70 370.44 189.93 375.03 C 201.50 386.30 215.50 394.74 229.72 402.21 C 238.64 405.96 247.51 410.10 257.06 411.96 C 258.76 412.33 260.60 412.05 262.01 410.98 C 268.71 406.76 271.68 398.97 275.18 392.24 C 279.80 383.81 281.66 374.30 284.90 365.33 C 305.60 362.86 326.30 360.38 347.00 357.89 C 357.02 356.35 367.19 357.22 377.29 357.01 C 375.83 378.17 364.96 398.22 349.09 412.10 C 334.68 424.88 315.74 432.23 296.54 433.00 L 49.12 433.00 C 49.12 409.97 49.14 386.93 49.11 363.90 C 49.14 362.47 49.35 361.06 49.70 359.68 C 50.57 358.79 51.46 357.92 52.34 357.05 Z" />
</g>
<g id="#5b3c21ff">
<path fill="#5b3c21" opacity="1.00" d=" M 271.57 76.03 C 307.63 76.01 343.69 75.93 379.75 76.06 C 305.85 169.62 232.20 263.36 158.41 357.00 C 123.06 357.04 87.70 356.93 52.34 357.05 C 51.46 357.92 50.57 358.79 49.70 359.68 C 49.97 355.78 53.12 353.25 55.26 350.32 C 127.36 258.88 199.50 167.48 271.57 76.03 Z" />
</g>
</svg>
