<svg width="433pt" height="433pt" viewBox="0 0 433 433" xmlns="http://www.w3.org/2000/svg"><path d="M134.73 0h248.15c0 23.37-.02 46.74.01 70.11.4 2.52-1.78 4.16-3.14 5.95-36.06-.13-72.12-.05-108.18-.03-6.84.07-13.69-.05-20.53-.03-1.33-4.97-2.88-9.99-5.66-14.36-5.05-6.33-11.7-11.03-18.07-15.91-8.53-5.62-17.15-11.19-26.4-15.57-8.75-3.54-17.38-7.68-26.76-9.22-1.47-.23-2.95.2-4.13 1.07-6.72 4.22-9.7 12.02-13.21 18.76-4.61 8.43-6.48 17.93-9.71 26.9-20.4 2.33-40.75 5.05-61.14 7.45-10.34 1.63-20.83.62-31.24.87 1.43-20.93 12.1-40.79 27.69-54.64C96.69 8.44 115.56 1.01 134.73 0zM52.34 357.05c35.36-.12 70.72-.01 106.07-.05h22.55c1.81 6.46 3.74 13.44 8.97 18.03 11.57 11.27 25.57 19.71 39.79 27.18 8.92 3.75 17.79 7.89 27.34 9.75 1.7.37 3.54.09 4.95-.98 6.7-4.22 9.67-12.01 13.17-18.74 4.62-8.43 6.48-17.94 9.72-26.91 20.7-2.47 41.4-4.95 62.1-7.44 10.02-1.54 20.19-.67 30.29-.88-1.46 21.16-12.33 41.21-28.2 55.09-14.41 12.78-33.35 20.13-52.55 20.9H49.12c0-23.03.02-46.07-.01-69.1.03-1.43.24-2.84.59-4.22.87-.89 1.76-1.76 2.64-2.63z" fill="#818181"/><path fill="#5b3c21" d="M271.57 76.03c36.06-.02 72.12-.1 108.18.03-73.9 93.56-147.55 187.3-221.34 280.94-35.35.04-70.71-.07-106.07.05-.88.87-1.77 1.74-2.64 2.63.27-3.9 3.42-6.43 5.56-9.36 72.1-91.44 144.24-182.84 216.31-274.29z"/></svg>