<?xml version="1.0" encoding="UTF-8" ?>
<!DOCTYPE svg PUBLIC "-//W3C//DTD SVG 1.1//EN" "http://www.w3.org/Graphics/SVG/1.1/DTD/svg11.dtd">
<svg style="max-width: 1594px; max-height: 433px;" viewBox="0 0 1594 433" version="1.1" xmlns="http://www.w3.org/2000/svg">
<g id="#6c2820ff">
<path fill="#6c2820" opacity="1.00" d=" M 154.46 0.00 L 256.50 0.00 C 307.46 144.33 358.33 288.70 409.37 433.00 L 311.46 433.00 C 301.76 403.05 292.23 373.05 282.62 343.08 C 229.83 343.04 177.04 343.06 124.25 343.07 C 114.35 373.04 104.58 403.05 94.60 433.00 L 0.00 433.00 L 0.00 433.46 C 51.64 289.03 102.86 144.44 154.46 0.00 M 148.61 268.99 C 185.36 269.00 222.12 269.02 258.88 268.98 C 240.77 212.37 222.62 155.78 204.50 99.17 C 185.82 155.76 167.25 212.39 148.61 268.99 Z" />
<path fill="#6c2820" opacity="1.00" d=" M 464.69 0.00 L 654.48 0.00 C 677.33 0.79 700.50 3.06 722.11 10.98 C 747.85 20.18 770.61 37.14 787.09 58.91 C 798.24 73.61 807.26 89.94 813.81 107.19 C 821.26 126.68 824.90 147.37 827.49 168.00 C 830.55 191.37 830.61 215.06 828.79 238.53 C 825.41 279.14 814.88 319.75 793.87 354.93 C 779.52 379.05 759.42 400.13 734.58 413.52 C 711.04 426.47 684.12 432.11 657.43 433.00 L 464.69 433.00 C 464.68 288.67 464.69 144.33 464.69 0.00 M 552.32 74.08 C 552.30 169.05 552.32 264.02 552.31 358.99 C 579.88 359.01 607.45 359.01 635.01 358.98 C 649.26 359.00 663.69 356.64 676.67 350.60 C 688.87 345.02 699.46 336.22 707.66 325.64 C 718.02 312.29 724.90 296.57 729.62 280.43 C 736.15 257.91 738.40 234.35 738.35 210.96 C 738.22 187.37 736.42 163.58 730.24 140.74 C 726.77 128.26 722.03 115.95 714.77 105.15 C 707.75 95.04 697.51 87.44 686.22 82.71 C 670.70 76.21 653.70 74.22 637.01 74.07 C 608.78 74.07 580.55 74.04 552.32 74.08 Z" />
<path fill="#6c2820" opacity="1.00" d=" M 1266.30 1.01 C 1371.89 0.99 1477.47 0.99 1583.05 1.01 C 1583.07 26.36 1583.07 51.70 1583.05 77.05 C 1506.89 77.08 1430.73 77.05 1354.57 77.07 C 1354.56 107.71 1354.56 138.35 1354.57 168.99 C 1424.48 169.02 1494.39 168.98 1564.31 169.01 C 1564.31 194.02 1564.32 219.04 1564.30 244.05 C 1494.39 244.07 1424.48 244.05 1354.57 244.06 C 1354.56 281.04 1354.56 318.02 1354.57 354.99 C 1411.04 355.01 1467.52 354.99 1524.00 355.00 C 1547.33 355.16 1570.68 354.67 1594.00 355.25 L 1594.00 433.00 L 1266.31 433.00 C 1266.31 289.00 1266.32 145.01 1266.30 1.01 Z" />
</g>
<g id="#818181ff">
<path fill="#818181" opacity="1.00" d=" M 953.82 0.00 L 1201.88 0.00 C 1201.88 23.36 1201.86 46.72 1201.89 70.08 C 1202.32 72.62 1200.12 74.25 1198.76 76.05 C 1162.70 75.96 1126.64 76.00 1090.57 76.03 C 1083.73 76.10 1076.88 75.97 1070.04 76.00 C 1069.05 72.22 1067.89 68.47 1066.20 64.94 C 1064.35 60.47 1060.42 57.38 1057.04 54.10 C 1038.77 39.12 1017.73 26.90 994.68 21.18 C 990.38 19.78 986.85 23.37 984.14 26.17 C 979.36 32.75 976.00 40.23 972.62 47.58 C 970.26 54.22 968.40 61.02 966.10 67.68 C 945.72 69.99 925.39 72.72 905.02 75.11 C 894.66 76.76 884.16 75.74 873.73 75.99 C 875.07 55.82 885.08 36.62 899.74 22.87 C 914.24 9.05 933.86 1.00 953.82 0.00 Z" />
<path fill="#818181" opacity="1.00" d=" M 871.35 357.06 C 906.70 356.92 942.05 357.04 977.40 357.00 C 984.92 357.00 992.44 357.00 999.96 357.00 C 1001.26 361.96 1002.85 366.94 1005.58 371.32 C 1010.65 377.66 1017.31 382.39 1023.71 387.29 C 1032.47 393.03 1041.30 398.79 1050.84 403.18 C 1059.67 406.63 1068.37 411.04 1077.90 412.11 C 1084.64 410.62 1088.04 403.76 1091.20 398.26 C 1094.05 392.37 1097.36 386.62 1099.12 380.27 C 1100.66 375.27 1102.23 370.28 1103.90 365.32 C 1126.60 362.64 1149.29 359.86 1172.00 357.19 C 1180.07 356.75 1188.18 357.11 1196.28 357.01 C 1194.95 376.93 1185.16 395.89 1170.82 409.61 C 1156.07 423.89 1135.91 432.23 1115.43 433.00 L 868.12 433.00 C 868.10 409.98 868.16 386.96 868.09 363.95 C 868.07 362.50 868.37 361.09 868.71 359.70 C 869.57 358.80 870.45 357.92 871.35 357.06 Z" />
</g>
<g id="#5b3c21ff">
<path fill="#5b3c21" opacity="1.00" d=" M 1090.57 76.03 C 1126.64 76.00 1162.70 75.96 1198.76 76.05 C 1124.86 169.61 1051.20 263.36 977.40 357.00 C 942.05 357.04 906.70 356.92 871.35 357.06 C 870.45 357.92 869.57 358.80 868.71 359.70 C 869.05 358.18 869.20 356.52 870.29 355.32 C 943.75 262.24 1017.17 169.14 1090.57 76.03 Z" />
</g>
</svg>
