<svg style="max-width:1594px;max-height:433px" viewBox="0 0 1594 433" xmlns="http://www.w3.org/2000/svg"><path d="M154.46 0H256.5c50.96 144.33 101.83 288.7 152.87 433h-97.91c-9.7-29.95-19.23-59.95-28.84-89.92-52.79-.04-105.58-.02-158.37-.01-9.9 29.97-19.67 59.98-29.65 89.93H0v.46C51.64 289.03 102.86 144.44 154.46 0m-5.85 268.99c36.75.01 73.51.03 110.27-.01-18.11-56.61-36.26-113.2-54.38-169.81-18.68 56.59-37.25 113.22-55.89 169.82zM464.69 0h189.79c22.85.79 46.02 3.06 67.63 10.98 25.74 9.2 48.5 26.16 64.98 47.93 11.15 14.7 20.17 31.03 26.72 48.28 7.45 19.49 11.09 40.18 13.68 60.81 3.06 23.37 3.12 47.06 1.3 70.53-3.38 40.61-13.91 81.22-34.92 116.4-14.35 24.12-34.45 45.2-59.29 58.59-23.54 12.95-50.46 18.59-77.15 19.48H464.69c-.01-144.33 0-288.67 0-433m87.63 74.08c-.02 94.97 0 189.94-.01 284.91 27.57.02 55.14.02 82.7-.01 14.25.02 28.68-2.34 41.66-8.38 12.2-5.58 22.79-14.38 30.99-24.96 10.36-13.35 17.24-29.07 21.96-45.21 6.53-22.52 8.78-46.08 8.73-69.47-.13-23.59-1.93-47.38-8.11-70.22-3.47-12.48-8.21-24.79-15.47-35.59-7.02-10.11-17.26-17.71-28.55-22.44-15.52-6.5-32.52-8.49-49.21-8.64-28.23 0-56.46-.03-84.69.01zM1266.3 1.01c105.59-.02 211.17-.02 316.75 0 .02 25.35.02 50.69 0 76.04-76.16.03-152.32 0-228.48.02-.01 30.64-.01 61.28 0 91.92 69.91.03 139.82-.01 209.74.02 0 25.01.01 50.03-.01 75.04-69.91.02-139.82 0-209.73.01-.01 36.98-.01 73.96 0 110.93 56.47.02 112.95 0 169.43.01 23.33.16 46.68-.33 70 .25V433h-327.69c0-144 .01-287.99-.01-431.99z" fill="#6c2820"/><path d="M953.82 0h248.06c0 23.36-.02 46.72.01 70.08.43 2.54-1.77 4.17-3.13 5.97-36.06-.09-72.12-.05-108.19-.02-6.84.07-13.69-.06-20.53-.03-.99-3.78-2.15-7.53-3.84-11.06-1.85-4.47-5.78-7.56-9.16-10.84-18.27-14.98-39.31-27.2-62.36-32.92-4.3-1.4-7.83 2.19-10.54 4.99-4.78 6.58-8.14 14.06-11.52 21.41-2.36 6.64-4.22 13.44-6.52 20.1-20.38 2.31-40.71 5.04-61.08 7.43-10.36 1.65-20.86.63-31.29.88 1.34-20.17 11.35-39.37 26.01-53.12C914.24 9.05 933.86 1 953.82 0zm-82.47 357.06c35.35-.14 70.7-.02 106.05-.06h22.56c1.3 4.96 2.89 9.94 5.62 14.32 5.07 6.34 11.73 11.07 18.13 15.97 8.76 5.74 17.59 11.5 27.13 15.89 8.83 3.45 17.53 7.86 27.06 8.93 6.74-1.49 10.14-8.35 13.3-13.85 2.85-5.89 6.16-11.64 7.92-17.99 1.54-5 3.11-9.99 4.78-14.95 22.7-2.68 45.39-5.46 68.1-8.13 8.07-.44 16.18-.08 24.28-.18-1.33 19.92-11.12 38.88-25.46 52.6-14.75 14.28-34.91 22.62-55.39 23.39H868.12c-.02-23.02.04-46.04-.03-69.05-.02-1.45.28-2.86.62-4.25.86-.9 1.74-1.78 2.64-2.64z" fill="#818181"/><path fill="#5b3c21" d="M1090.57 76.03c36.07-.03 72.13-.07 108.19.02-73.9 93.56-147.56 187.31-221.36 280.95-35.35.04-70.7-.08-106.05.06-.9.86-1.78 1.74-2.64 2.64.34-1.52.49-3.18 1.58-4.38 73.46-93.08 146.88-186.18 220.28-279.29z"/></svg>