<svg xmlns="http://www.w3.org/2000/svg" viewBox="0 0 256 256">
  <path
    d="M113.4 18.47c12.06-3.23 24.28 1.62 34.53 7.73 9.84 5.72 19.35 12 29.23 17.64 8.37 4.96 17.26 9.09 25.08 14.94 9.89 6.97 17.89 16.12 26.48 24.55 13.49 13.61 23.15 31.43 25.28 50.63 2.52 20.25-3.62 41.09-15.68 57.43-15.66 21.46-39.64 35.82-65.02 42.77-28.34 7.68-59.03 6.84-86.8-2.8-17.24-6.04-33.34-15.61-46.31-28.54-7.42-7.58-15.45-14.66-21.77-23.24-10.31-13.64-16.64-30.43-16.94-47.6-.43-16.51 4.68-32.97 13.8-46.68 9.7-14.8 23.6-26.55 39.1-34.94 11.14-5.99 21.83-12.76 32.61-19.37 8.38-4.97 16.86-10.17 26.41-12.52M96.88 34.86c-12.59 7.38-24.77 15.45-37.62 22.37-12.63 6.71-24.15 15.74-32.97 27.05-10.71 13.61-17.26 30.89-16.41 48.33.61 26.06 16.97 49.63 38.22 63.72 11.45 8.23 24.69 13.76 38.26 17.42 31.42 8.14 65.85 5.28 95.03-9.19 18.17-9.09 34.4-23.05 43.82-41.26 7.96-15.08 10.39-33.07 6.22-49.65l-.24 1.16c.34-1.95-.54-3.85-1.06-5.7-5.84-18.36-18.77-33.9-34.52-44.73-6.37-4.54-13.43-7.94-20.18-11.85-9.71-5.5-19.09-11.54-28.65-17.29-6.15-3.7-12.57-7.08-19.51-9.02-10.97-2.18-21.21 3.4-30.39 8.64" />
  <path
    d="M72.61 107.58c8.25-5.64 20.78-2.47 25.29 6.48 4.89 8.53 1 20.51-7.97 24.54-7.25 3.51-16.61 1.45-21.58-4.93-6.52-7.77-4.48-20.84 4.26-26.09m1.9 3.04c-4.66 1.41-6.08 8.13-2.45 11.34 3.34 3.45 10.07 1.77 11.16-2.99 1.84-5.03-3.79-10.35-8.71-8.35m70.19 6.07c2.63-8.17 11.77-13.43 20.17-11.6 8.36 1.37 14.81 9.48 14.4 17.92-.13 3.89-1.51 7.77-3.98 10.79-5.01 6.3-14.35 8.3-21.56 4.76-7.95-3.68-12.06-13.64-9.03-21.87m8.78-5.95c-4.7 1.61-5.72 8.61-1.78 11.57 3.49 3.05 9.82 1.17 10.81-3.44 1.74-5.11-4.12-10.45-9.03-8.13m-53.26 38.54c13.56-.66 27.24-.09 40.85-.29 2.42-.29 5.06 1.26 5.25 3.86-.83 6.35-4.45 12.09-9.03 16.46-4.24 3.85-9.47 7.27-15.38 7.47-4.87-.12-9.36-2.53-13.11-5.48-5.55-4.3-9.84-10.46-11.24-17.39-.49-1.93.8-4.01 2.66-4.63m1.27 3.77c1.09 3.89 2.99 7.48 5.39 10.72 4.01-4.07 9.2-7.43 15.12-7.33 5.97-.45 11.47 2.36 16.01 5.96 1.75-2.95 3.2-6.08 4.31-9.33-13.61-.13-27.22-.09-40.83-.02m7.86 13.34c3.7 2.9 7.79 6.12 12.73 6.15 5.36-.33 9.71-3.95 13.54-7.38-4.08-3.3-9.16-5.94-14.56-5.21-4.66.35-8.54 3.23-11.71 6.44" />
  <path fill="#fffefc"
    d="M96.88 34.86c9.18-5.24 19.42-10.82 30.39-8.64-6.04 2.38-12.39 3.95-18.22 6.84-9.6 4.7-18.21 11.1-27.19 16.83-7.09 4.57-15.12 7.37-22.44 11.52-7.51 4.15-14.39 9.46-20.26 15.73-14.73 15.39-22.61 35.61-29.28 55.47-.85-17.44 5.7-34.72 16.41-48.33 8.82-11.31 20.34-20.34 32.97-27.05 12.85-6.92 25.03-14.99 37.62-22.37" />
  <path fill="#fbf0df"
    d="M127.27 26.22c6.94 1.94 13.36 5.32 19.51 9.02 9.56 5.75 18.94 11.79 28.65 17.29 6.75 3.91 13.81 7.31 20.18 11.85 15.75 10.83 28.68 26.37 34.52 44.73.52 1.85 1.4 3.75 1.06 5.7-1.97 8.18-3.04 16.59-5.86 24.55-5.25 15.4-14.5 29.49-26.79 40.19-20.09 17.36-46.35 26.11-72.52 28.35-23 1.75-46.64-.29-68.28-8.62-3.16-1.17-6.42-2-9.64-2.95-21.25-14.09-37.61-37.66-38.22-63.72 6.67-19.86 14.55-40.08 29.28-55.47 5.87-6.27 12.75-11.58 20.26-15.73 7.32-4.15 15.35-6.95 22.44-11.52 8.98-5.73 17.59-12.13 27.19-16.83 5.83-2.89 12.18-4.46 18.22-6.84m.06 4.3c1.47 3.72 5.09 5.69 7.76 8.43 7.39 7.39 12.65 17.04 14.37 27.39.44 2.32.65 4.85 2.56 6.5 2.72-8.86 1.96-18.95-3.13-26.83-4.88-7.61-12.81-13.27-21.56-15.49M112.38 33c-.27 10.63-3.07 21.32-9.13 30.15-2.83 4.57-7.17 7.92-10.15 12.37 6.45-.54 11.65-5.02 15.78-9.64 7.9-9.2 8.76-22.55 5.4-33.78-.48.22-1.42.67-1.9.9m6.5-1.15c4.06 8.19 7.87 16.81 8.11 26.12.65 7.12-1.37 14.02-2.55 20.97 1.26-.87 2.76-1.54 3.59-2.9 5.24-7.6 6.94-17.55 4.31-26.43-1.83-6.09-5.24-11.69-9.61-16.28-.91-1.25-2.47-1.29-3.85-1.48m-17.96 9.06c-5.3 9.66-13.69 17.61-23.65 22.32-3.12 1.54-6.75 2.21-9.41 4.57 1.27.74 2.71 1.12 4.19.98 7.32-.25 14.72-2.64 20.35-7.44 7.41-6.19 11.77-15.52 12.92-25.01-1.98.97-3.41 2.64-4.4 4.58m-28.31 66.67c-8.74 5.25-10.78 18.32-4.26 26.09-4.9 1.19-10.44 2.94-13 7.69-2.11 3.84.34 8.48 3.8 10.56 6.84 4.28 15.65 4.79 23.28 2.49 4.1-1.36 8.62-3.9 9.71-8.42.74-2.71-1.05-5.11-2.21-7.39 8.97-4.03 12.86-16.01 7.97-24.54-4.51-8.95-17.04-12.12-25.29-6.48m72.09 9.11c-3.03 8.23 1.08 18.19 9.03 21.87-1.27 2.58-3.18 5.49-1.86 8.45 2.36 5.32 8.47 7.54 13.84 8.41 6.93.89 14.66-.01 20.25-4.54 2.96-2.31 4.27-6.79 2.16-10.09-2.8-4.32-7.99-6.11-12.83-6.99 2.47-3.02 3.85-6.9 3.98-10.79.41-8.44-6.04-16.55-14.4-17.92-8.4-1.83-17.54 3.43-20.17 11.6m-44.48 32.59c-1.86.62-3.15 2.7-2.66 4.63 1.4 6.93 5.69 13.09 11.24 17.39 3.75 2.95 8.24 5.36 13.11 5.48 5.91-.2 11.14-3.62 15.38-7.47 4.58-4.37 8.2-10.11 9.03-16.46-.19-2.6-2.83-4.15-5.25-3.86-13.61.2-27.29-.37-40.85.29" />
  <path fill="#ccbea7"
    d="M127.33 30.52c8.75 2.22 16.68 7.88 21.56 15.49 5.09 7.88 5.85 17.97 3.13 26.83-1.91-1.65-2.12-4.18-2.56-6.5-1.72-10.35-6.98-20-14.37-27.39-2.67-2.74-6.29-4.71-7.76-8.43M112.38 33c.48-.23 1.42-.68 1.9-.9 3.36 11.23 2.5 24.58-5.4 33.78-4.13 4.62-9.33 9.1-15.78 9.64 2.98-4.45 7.32-7.8 10.15-12.37 6.06-8.83 8.86-19.52 9.13-30.15m6.5-1.15c1.38.19 2.94.23 3.85 1.48 4.37 4.59 7.78 10.19 9.61 16.28 2.63 8.88.93 18.83-4.31 26.43-.83 1.36-2.33 2.03-3.59 2.9 1.18-6.95 3.2-13.85 2.55-20.97-.24-9.31-4.05-17.93-8.11-26.12m-17.96 9.06c.99-1.94 2.42-3.61 4.4-4.58-1.15 9.49-5.51 18.82-12.92 25.01-5.63 4.8-13.03 7.19-20.35 7.44-1.48.14-2.92-.24-4.19-.98 2.66-2.36 6.29-3.03 9.41-4.57 9.96-4.71 18.35-12.66 23.65-22.32" />
  <path fill="#fff"
    d="M74.51 110.62c4.92-2 10.55 3.32 8.71 8.35-1.09 4.76-7.82 6.44-11.16 2.99-3.63-3.21-2.21-9.93 2.45-11.34m78.97.12c4.91-2.32 10.77 3.02 9.03 8.13-.99 4.61-7.32 6.49-10.81 3.44-3.94-2.96-2.92-9.96 1.78-11.57" />
  <path fill="#f6dece"
    d="M225.33 139.36c2.82-7.96 3.89-16.37 5.86-24.55l.24-1.16c4.17 16.58 1.74 34.57-6.22 49.65-9.42 18.21-25.65 32.17-43.82 41.26-29.18 14.47-63.61 17.33-95.03 9.19-13.57-3.66-26.81-9.19-38.26-17.42 3.22.95 6.48 1.78 9.64 2.95 21.64 8.33 45.28 10.37 68.28 8.62 26.17-2.24 52.43-10.99 72.52-28.35 12.29-10.7 21.54-24.79 26.79-40.19" />
  <path fill="#febbd0"
    d="M55.35 141.36c2.56-4.75 8.1-6.5 13-7.69 4.97 6.38 14.33 8.44 21.58 4.93 1.16 2.28 2.95 4.68 2.21 7.39-1.09 4.52-5.61 7.06-9.71 8.42-7.63 2.3-16.44 1.79-23.28-2.49-3.46-2.08-5.91-6.72-3.8-10.56m119.94-7.56c4.84.88 10.03 2.67 12.83 6.99 2.11 3.3.8 7.78-2.16 10.09-5.59 4.53-13.32 5.43-20.25 4.54-5.37-.87-11.48-3.09-13.84-8.41-1.32-2.96.59-5.87 1.86-8.45 7.21 3.54 16.55 1.54 21.56-4.76" />
  <path fill="#b71422"
    d="M101.49 153.05c13.61-.07 27.22-.11 40.83.02a50 50 0 0 1-4.31 9.33c-4.54-3.6-10.04-6.41-16.01-5.96-5.92-.1-11.11 3.26-15.12 7.33-2.4-3.24-4.3-6.83-5.39-10.72" />
  <path fill="#ff6164"
    d="M109.35 166.39c3.17-3.21 7.05-6.09 11.71-6.44 5.4-.73 10.48 1.91 14.56 5.21-3.83 3.43-8.18 7.05-13.54 7.38-4.94-.03-9.03-3.25-12.73-6.15" />
</svg>