<svg xmlns="http://www.w3.org/2000/svg" width="1024pt" height="1024pt" viewBox="0 0 1024 1024"><path d="M477.52 106.84c84.6-5.67 170.73 16.06 242.5 61.2 64.14 40.05 116.68 98.4 149.73 166.42 29.76 60.75 43.93 129.01 40.85 196.59-2.52 58.14-17.76 115.68-44.33 167.46-22.06 43.16-51.95 82.3-87.75 114.98-34.5 31.55-74.5 57.07-117.65 75.08-53.23 22.27-111.24 33.02-168.91 31.25-70.18-1.96-139.7-22.61-199.62-59.17-64.1-38.91-117.03-95.96-150.96-162.84-18.09-35.42-30.9-73.53-37.95-112.67-10.09-55.91-8.3-113.95 5.28-169.12 16.14-66.08 49.21-127.94 95.25-178.01 39.19-42.86 87.72-77.12 141.2-99.75 41.94-17.8 86.9-28.45 132.36-31.42m-12.04 36.22c.98 6.83 1.03 13.71 1.12 20.59-.23 10.46.56 20.91 0 31.37 1.92 41.65 3.61 83.32 5.72 124.96.48 5.56-.3 11.28 1.36 16.69-.03.51-.07 1.52-.09 2.03l.76-.39c0 .83-.02 2.5-.02 3.34l-.65-.34v4.39l.66-.37c.15 6.16.28 12.31.34 18.47l.65-.64c-.08 4.02.12 8.03.25 12.05 3.35.26 6.7.51 10.06.77-.23-4.35-.25-8.7-.3-13.05-1.17-8.84-.78-17.8-.98-26.7l-.71.54c.1-8.13-.3-16.25-.3-24.38l-.69.24c-.14-9.22.19-18.48-.97-27.63-.14-7.57-.28-15.13-.38-22.69l-.63.4c.08-9.48-.54-18.95-.3-28.43l-.71.44c-.03-7.84-.46-15.68-.32-23.51l-.68.5c-.15-7.62-.17-15.25-.44-22.86-1.18-8.56-.97-17.22-1.01-25.84.76-6.98-.93-13.91.21-20.86-4 .15-7.98.46-11.95.91m96.06 2.23c-.18 19.81.04 39.63.08 59.44l.74-.43c-.06 12.8.28 25.6.3 38.4l.7-.41c-.14 14.79.35 29.58.29 44.38l.72-.36c-.05 2.78-.05 5.57-.11 8.37 3.41.5 6.85.73 10.29 1.02-.04-10.29-.16-20.58-.2-30.87l-1-2.32 1.08.13c0-5.09-1.15-10.1-.78-15.21l1.91-.43-1.91-.43c-.41-27.87.15-55.74-.43-83.59-.21-1.25-.41-2.49-.58-3.73 1.37-3.77.33-7.86.65-11.77-3.87-.97-7.82-1.57-11.75-2.19m-225.63 36.47c-.68.32-2.02.95-2.69 1.26.18 8.24 1.55 16.41 1.47 24.66l.6-.36c.12 4.11.43 8.2.36 12.31l.65-.21c.22 4.07.41 8.13.35 12.21l.7-.29c.16 3.78.33 7.57.27 11.36l.72-.35c.12 3.78.28 7.57.31 11.37l.7-.41c.08 3.77.21 7.54.31 11.31l.69-.26c.19 3.9-.26 7.9.85 11.7.26 3.8.3 7.62.49 11.43l.63-.07c-.02 3.74.21 7.48.36 11.23l.63-.31c-.06 4.12.3 8.23.42 12.35l.56-.41c-.02 3.8.35 7.58.44 11.37l1.56.26-2.68 1.21 1.68.23c.17 4.11.5 8.22.4 12.34l.63-.36c.17 3.77.4 7.54.36 11.32l.64-.23c.15 3.72.34 7.44.33 11.17l.67-.11c.14 3.74.26 7.49.37 11.24 2.72-1.35 5.42-2.77 8.04-4.3-.2-4.01-.32-8.02-.38-12.04l-.68.24c-.08-4.06-.21-8.12-.34-12.17l-.67.1c.19-8.07-1.37-16.02-1.38-24.08l-.55.06c0-4.55-.39-9.08-.56-13.61-.91-4.41-.81-8.95-.88-13.43l-.64.07c-.29-4.17.15-8.44-.91-12.52-.41-3.7.08-7.5-.93-11.12-.28-3.84-.31-7.69-.47-11.54l-.68.28c.25-8.15-1.37-16.18-1.37-24.32l-.61.4c-.11-5.56.02-11.19-1.02-16.67-.27-3.67-.2-7.35-.41-11.02-1.36-5.9-1.29-12.04-2.1-18.04-.48-1.94-.69-3.92-.94-5.89-1.77.87-3.55 1.74-5.3 2.64m274.42 17.53c-.09.94-.29 2.82-.39 3.77-.77 7.53-.03 15.11-.32 22.67l.72-.48a174 174 0 0 0-.02 6.46l-.68-.4v3.38l.72-.4c-.03 9.38.01 18.76.17 28.14 1.17.45 2.33.94 3.52 1.41 2.13 1.03 4.33 1.93 6.55 2.79.07-21.33.06-42.66-.24-63.99-1.15-.52-2.29-1.04-3.44-1.53-2.2-.63-4.39-1.22-6.59-1.82m-189.92 3.5c-.06 3.91.22 7.8.37 11.71l.5-.04c-.06 5.77.58 11.53.35 17.31l.68-.41c.16 4.77.29 9.55.35 14.33l.69-.4c-.07 6.71.53 13.41.43 20.13l.67-.18c.12 4.14.26 8.28.24 12.43l.67-.38c.12 4.75.2 9.49.37 14.23l.65-.23c-.01 2.82.03 5.65.15 8.49l-1.48.36c3.57 1.19 7.23.24 10.68-.88.06-9-.3-17.99-.41-26.99l-.65.45c.06-7.09-.22-14.18-.36-21.26l-.62.14c0-1.73 0-3.45-.01-5.18l1.96-.41-1.96-.43c-.22-5.75-.23-11.5-.33-17.25l-.71.39c.19-7.51-.42-15-.28-22.51l-.69.53c-.02-2.11-.04-4.2-.1-6.3a67.5 67.5 0 0 0-11.16 2.35m284.19 14.67c-.21 21.03.1 42.07.05 63.1l1.79.45-1.81.42v4.82c2.98 2.07 6.18 3.84 9.73 4.75.1-15-.11-30.01.04-45.01.02-2-.13-4.01-.59-5.96-.63-6.01.02-12.09-.72-18.08-.81-.9-1.81-1.58-2.73-2.31-1.94-.7-3.85-1.45-5.76-2.18m-189.17 13.88c.07 1.81.14 3.62.18 5.43l.66-.29c-.11 10.76.49 21.52.37 32.29l.73-.54c-.1 8.14.38 16.27.26 24.41l.75-.3c-.09 7.77.33 15.54.25 23.32l.69-.31c.01 1.6.07 3.22.12 4.83 3.37-.04 6.74.25 10.08.7-.35-4.36.02-8.74-.26-13.1-.94-4.9-.43-9.9-.68-14.85-.02-10.52-.33-21.03-.24-31.54l-.67.22c-.02-9.77-.12-19.54-.33-29.31-3.87-1.13-7.93-.83-11.91-.96m234.92 2.1c.01 15.37.57 30.74.3 46.12l1.86.41-1.82.48c0 2.75-.05 5.51-.07 8.27l.75-.44c-.01.84-.03 2.53-.03 3.37l-.67-.37c.02 2.17 0 4.34-.03 6.52l.73-.62c-.01 1.14-.01 3.44-.02 4.58l-.71-.45c.01.83.02 2.47.03 3.3l.68-.22c-.03 73.05.45 146.09.31 219.13l.24.25c2.01 1.38 4.28 2.25 6.57 3.04.12-95.18.19-190.37-.07-285.53-2.57-2.73-5.42-5.17-8.05-7.84m-89.1 194.97c2.66 1.01 5.32 2.03 8.1 2.68.22-15.22-.08-30.45-.02-45.67l-1.88-.42 1.88-.44c-.01-3.06.01-6.12.03-9.18l-.69.24c0-.82-.02-2.47-.03-3.3l.7.32c-.02-2.14-.01-4.26.03-6.39l-.71.5q.045-3.255 0-6.51l.67.48c0-1.12.02-3.35.02-4.47l-.72.5c.11-32.14-.11-64.28-.18-96.42l-1.01.19.12-1.04c-2.07-.52-4.16-.98-6.25-1.34-.16 56.75-.03 113.51-.06 170.27M381.19 263.49c.29 12.43 2.19 24.7 2.49 37.11l.65-.22c-.29 7.37 1.26 14.62 1.29 21.98 1.53.31 3.05.64 4.57 1 1.48-.83 4.21-.66 4.4-2.81.43-6.38-.57-12.76-.24-19.15l-.71.27c-.13-4.42-.25-8.84-.26-13.27l-.71.16c-.01-5.07-.25-10.13-.38-15.19l-.59.27c.04-4.43-.32-8.85-.34-13.27-3.35 1.2-6.81 1.98-10.17 3.12m-157.85 7.3c-2.77 2.74-5.17 5.83-7.6 8.87-1.61 1.54-1 3.84-1.16 5.81l.67-.02c.12 3.35.46 6.69.52 10.05l.5-.01c.24 3 .48 6 .47 9.02l.57-.01c.2 3 .39 5.99.42 9l.61-.03c.12 2.52.25 5.04.46 7.56 1.48 8.94 1.92 18.05 3.3 27.01.34 6.02 1.42 11.97 1.78 18 .79 3.53.58 7.22 1.58 10.72 2.79-1.31 5.45-2.9 8.29-4.11.11-7.11-1.47-14.07-1.48-21.17l-.53.06c0-4.06-.48-8.1-.47-12.16l-.53.19c-.04-6.73-1.61-13.33-1.46-20.06l-.63.03c-.14-3.05-.3-6.1-.33-9.15l-.64.18c.11-6.45-1.58-12.74-1.3-19.19l-.72.17c-.06-3.39-.18-6.76-.29-10.14l-.69.17c0-4.2-.27-8.39-.55-12.57-.26.59-.53 1.18-.79 1.78m387.96 29.34c.04 20.16.42 40.32.33 60.49l1-.12c-.07.42-.23 1.26-.3 1.67 2.13.64 4.27 1.26 6.47 1.69.68-.48 2.06-1.42 2.74-1.9-.05-19.24-.2-38.49-.13-57.73-2.61-2.85-6.22-4.39-10.11-4.1m-353.35 8.96-.37-1.7c-.41 3.13-.15 6.31.18 9.44.96 8.04 1.62 16.12 2.48 24.17.58 5.44.49 11.03 2.21 16.28.02 2.28.03 4.6.76 6.8.33 3.3-.03 6.72 1.03 9.92.16 3.17.29 6.34.46 9.51l.63-.11c-.01 3.4.2 6.79.37 10.19l.59-.21c0 10.48 2.41 20.78 2.41 31.25l.59-.19c.19 3.38.39 6.77.39 10.17l.62-.13c.17 3.35.31 6.71.37 10.07l.67-.09c.05 4.24.1 8.52 1.17 12.65 2.26-2.47 4.62-4.84 7.06-7.14.36-1.67.67-3.39.47-5.1-2.11-22.66-4.21-45.32-6.19-67.99-.94-7.11-.87-14.37-2.49-21.38l.03-1.08-.68.12c.02-3.71-.23-7.42-.43-11.12l-.57.15c.06-4.43-.44-8.83-.44-13.26l-.53.33c-.15-3.77-.48-7.53-.46-11.3l-.57.27c-.2-3.73-.42-7.46-.39-11.2l-.63.14c-.09-2.38-.2-4.75-.33-7.12-3.18 2.04-6.5 4.33-8.41 7.66m-68.17 7.12c-1.67 2.85-3.41 5.65-5.08 8.5-1.08 1.93-2.49 3.99-1.85 6.32 1.88 13.29 3.26 26.64 5.27 39.91.35 5.07 1.43 10.06 1.73 15.15.64 2.6.8 5.27.99 7.93 1.12 5.26 1.24 10.69 2.34 15.95.69 7.72 2.03 15.36 2.81 23.08 2.64 20.61 5.51 41.2 7.87 61.86 1.15 7.36 2.09 14.78 2.94 22.19.81 5.63 1.63 11.26 2.1 16.93.93 4.93 1.5 9.94 1.98 14.95 2.83 19.07 4.66 38.31 7.7 57.35 1.39-.78 2.79-1.57 4.21-2.32-.06-6.35-1.4-12.58-1.68-18.91-.69-2.66-.71-5.42-.9-8.14-.91-3.24-.55-6.67-1.43-9.91-.21-2.37-.31-4.74-.53-7.1-.9-3.28-.46-6.75-1.38-10.01-.23-2.68-.36-5.36-.66-8.02-.67-3.28-.74-6.64-1.12-9.96-1.09-8.96-2.21-17.92-2.92-26.91-.82-2.97-.53-6.11-1.32-9.08-.34-2.99-.19-6.05-1.04-8.97-.36-6-1.01-12-1.98-17.92-.22-3.03-.34-6.07-.98-9.04-.35-3.33-.34-6.71-1.09-9.98-.35-3.02-.19-6.1-1-9.05-.15-5.56-1.57-10.98-1.45-16.55l-.61.05c-.1-3-.27-5.99-.43-8.99l-.56.04c-.07-2.88-.1-5.78-.83-8.57-.23-3.01-.33-6.03-.94-8.99-.32-3.03-.52-6.06-.79-9.08-.65-2.96-.76-5.99-.96-8.99-.77-2.91-.77-5.92-.98-8.89-1.01-3.27-.44-6.77-1.44-10.03-.5-8.41-1.94-16.71-2.57-25.11-.62-3.3-.82-6.66-1.05-10.01-.71-3.14-.88-6.37-.91-9.58-.36-.02-1.1-.07-1.46-.1m-28.57 54.63c-.69 6.62-5.96 12.21-4.93 19.08.93 8.73 2.71 17.36 3.55 26.1 1.64 9.3 2.8 18.69 4.2 28.03.38 2.31.61 4.64.96 6.95 2.27 15.99 4.88 31.95 6.82 47.98.35 1.45.66 2.92.93 4.4 1.66-1.07 3.34-2.1 5.02-3.12-.18-2.11-.37-4.22-.83-6.28-.3-2.66-.51-5.32-1.04-7.94-.29-2.7-.54-5.39-.86-8.08-.92-5.28-1.26-10.65-2.24-15.91-2.12-18.04-4.47-36.07-6.95-54.06-.42-5.01-1.14-9.99-1.92-14.95-.31-2.69-.55-5.38-.87-8.07-.54-2.6-.71-5.25-1-7.88-.48-2.05-.76-4.15-.84-6.25m360.18 1.42c.16 3.37.15 6.74.12 10.12 3.03.94 6.09 1.83 9.13 2.78-.03-4.11.08-8.22-.2-12.32-3.02-.2-6.04-.37-9.05-.58m184.08 8.23c.04 31.77.29 63.53.16 95.29l.7-.61c-.04 1.84-.04 3.68-.01 5.54l-.69-.38c0 1.06.02 3.17.02 4.23l.62-.13c1.34 1.31 2.69 2.62 4.03 3.95 1.68.01 3.36.01 5.06.02.16-14.13-.13-28.27-.02-42.4.04-1.9-.43-3.76-.8-5.6l.82.19c-.03-2.75-.05-5.5-.03-8.24l-.7.34.08-3.29.81.15c-.15-3.08-.68-6.13-1.08-9.18l.98.29c-.71-1.87-.65-3.72.18-5.56l-.99.77c.05-11.03.15-22.05-.14-33.07-2.63-1.92-5.81-2.44-9-2.31m-308.1 28.04c-13.63 4.64-27.08 9.82-40.26 15.63-10.8 5.7-21.69 11.27-31.89 18.03-11.31 6.62-21.17 15.38-30.74 24.26-7.98 8.15-16.03 16.54-21.32 26.77-10.59 17.62-14.88 39.58-9.03 59.54 3.73 12.31 13.53 21.42 23.87 28.43 13.66 8.07 28.5 13.86 43.36 19.32 9.72 2.39 19.68 3.71 29.64 4.54 20.62 1.8 41.6 1.49 61.93-2.62 20.33-3.6 40.26-9.16 59.7-16.07 8.56-2.42 16.39-6.71 24.57-10.13 7.19-1.54 15.27 3.02 17.13 10.27 2.03 5.4-2.19 10.74-6.94 12.87-6.72 2.88-13.05 6.61-19.95 9.09-7.58 2.46-14.94 5.57-22.64 7.68 4.08 12.65 5.73 25.93 7.59 39.05 3.46 26.48 4.67 53.17 5.46 79.84.13 24.29.5 48.62-.82 72.89-.06 7.37-.23 14.74-.96 22.09-.04 11-.69 21.99-1.53 32.97-.02 6.46.13 12.98-.93 19.4 38.45 2.25 77.32-1.48 114.58-11.27 28.46-6.75 56.23-16.86 81.81-31.11-1.52-19.98-2.23-39.99-3-60-4.29-63.81-8.73-127.73-18.02-191.07-3.11-21.25-7.93-42.31-15.54-62.42-6.39-17.17-15.11-33.4-25.2-48.66-11.46-15.66-24.6-30.14-39.44-42.67-4.28-4.18-9.11-7.78-14.39-10.6-11.15-6.88-23.36-11.73-35.59-16.3-25.18-7.56-51.63-11.74-77.94-9.56-18.23.49-35.97 5.22-53.51 9.81m400.05-6.89c.05 25.44-.13 50.88-.06 76.32l-.7-1.05-.04 2.88.76-.61c-.04 2.45-.06 4.91-.03 7.37l-2.13.45 2.15.47c-.04 2.69-.07 5.4-.06 8.1l-1.99.45 2.01.41c0 1.55.04 3.13.1 4.7 2.98.53 6.01 1.43 9.06.73.04-15.19.13-30.38.17-45.57l.92.39c-.75-2.01-.96-4.13-1.1-6.24l.83.11.08-4.17-.72.21c0-.8-.02-2.39-.03-3.19l.73.21c-.16-12.62.2-25.23.01-37.85-3.07-1.95-6.57-2.93-9.96-4.12m43.98 55.39c-.44 10.51.8 21.18-.97 31.58l.91-.35c-.01 1.1-.04 3.3-.05 4.39l-.76-.21c.06.93.17 2.77.22 3.69l.97 1.57-1.05-.4c-.05 28.83-.37 57.66-.35 86.49l-.62-.48c-.01 1.8-.03 3.6-.05 5.41l1.05-.28-1.04 2.47c-.04 27.56-.32 55.12-.31 82.69 2.72-8.02 7.88-15.25 8.97-23.79.46-19.28.09-38.59.85-57.86.53-44.3.4-88.61.24-132.91-2.66-.73-5.31-1.49-8.01-2.01m-598.12 17c-2.15 1.89-4.42 3.63-6.77 5.26.96 3.84.75 7.85 1.63 11.71.22 3.01.41 6.04.76 9.05.5 2.47.66 4.99.7 7.52 1.15-5.46 4.27-10.2 6.15-15.39-.06-3.92-.4-7.83-.4-11.75l-.7.16c-.07-2.8-.17-5.59-.31-8.37-.26.45-.79 1.36-1.06 1.81m-65.14 64.89c.15 2.7.38 5.41.67 8.11.97 4.64 1.35 9.39 2.23 14.05 1.44 11.33 3.35 22.61 4.77 33.94.6 2.6.7 5.3 1.31 7.91.25 2.34.48 4.69.97 7 .71 6.72 2.16 13.35 2.75 20.09.67 2.6.74 5.3 1.36 7.92.4 4.38 1.11 8.73 1.87 13.06.53 4.69 1.36 9.34 1.92 14.04.46 2.28.64 4.6.96 6.91.63 2.57.02 6.13 3.66 6.42-.68-7.48-1.66-14.94-2.79-22.35-.26-2.37-.37-4.76-.91-7.07-.31-2.64-.44-5.3-1.06-7.88-.22-2.39-.44-4.78-.7-7.16-.82-5.29-1.61-10.6-2.02-15.95-1.08-5.26-1.24-10.68-2.3-15.94-2.18-18.01-4.42-36.03-6.96-53.98-.27-3.34-.64-6.67-1.3-9.96-1.48.28-2.96.55-4.43.84m69.19 39.34c1.51 4.09.82 8.54 1.94 12.71.22 2.33.29 4.69.47 7.03.87 2.91.75 5.98 1.03 8.98.85 3.09.76 6.33.94 9.51l.59-.05c.05 3.42.34 6.83.61 10.24 2.04-.01 4.01-.49 5.87-1.31.06-4.65-.31-9.28-.54-13.91l-.49.14c-.09-3.75-.46-7.48-.48-11.23l-.54.18c-.2-3.38-.4-6.74-.47-10.11l.04-.17c-2.18-4.56-6.27-7.8-8.97-12.01m40.23 33.65c.03.92.08 2.76.11 3.68l.68-.18c-.16 6.49 1.42 12.83 1.4 19.33 2.05-.67 4.15-1.26 5.97-2.44.27-5.57-.35-11.12-.49-16.68-2.51-1.33-5.09-2.52-7.67-3.71m41.94 13.62c.06 2.36.12 4.72.16 7.1l.74-.31c.06 3.44.18 6.87.28 10.32l.68-.32c.03 3.76.19 7.53.35 11.29l.63-.28c.01 2.45.08 4.91.24 7.37 2.42.02 4.84 0 7.26 0 .02-5.81-.55-11.59-.49-17.39l-.7.34c-.02-5.64-.41-11.24-1.32-16.8q-3.93-.63-7.83-1.32m80.94 1.69.24 5.37.63-.15c-.03 4.04.18 8.08.39 12.12l.61-.15c-.14 5.41.5 10.8.42 16.22l.62-.4c.15 3.79.38 7.58.36 11.38l.59-.21c.17 4.07.35 8.15.36 12.23l.7-.28c.13 4.05.24 8.11.31 12.17l.66-.04c.07 4 .21 8 .36 12l.66-.07c0 3.74.15 7.49.33 11.24 1.25.04 2.5.08 3.76.15-.02-7.52-1.45-14.93-1.08-22.46l-.68.3c.03-5.45-.37-10.88-.39-16.31l-.57.36c-.09-5.12-.46-10.23-.36-15.35l-.69.28c.13-9.47-1.38-18.8-1.38-28.26l-.6.31c.09-3.65-.06-7.3-.27-10.94-1.67.15-3.33.32-4.98.49M223.59 646.3c.49 3.9.76 7.85 1.52 11.72.26 2.63.45 5.29 1.04 7.9.4 5.08 1.38 10.09 1.75 15.18.58 2.58.72 5.24 1.01 7.87 2.19 11.86 2.25 23.96 3.86 35.9.69 9.67 2.53 19.26 2.62 28.97 1.02.67 2.01 1.38 3.1 1.97l-1.13-.53c.99 1.1 2.03 2.3 3.07 3.41-2.55-32.02-6.9-63.86-10.23-95.8-.34-3.43-.71-6.87-1.77-10.15-.08-1.67-.14-3.33-.19-4.99-1.55-.51-3.09-1.04-4.65-1.45m572.91 8.65c-.06 29.03-.01 58.07-.19 87.1 2.55-3.81 5.6-7.27 7.93-11.23.18-27.09.31-54.18.42-81.26l1.88-.82c-.69-.07-2.06-.22-2.75-.3-2.62 1.94-4.71 4.52-7.29 6.51m-89.11 38.32c.08 43.44.11 86.88.41 130.32.16-.42.49-1.26.66-1.68 1.41-.71 2.83-1.42 4.12-2.36-.09-4.53.26-9.16-.77-13.59-.22-37.48-.02-74.96-.1-112.44-1.45-.08-2.89-.16-4.32-.25m-328.8 17.14c.01 1.71.03 3.42.06 5.14l.72-.15c.08 3.72.18 7.44.28 11.16l.69-.16c.06 4.07.21 8.15.35 12.23l.67-.35c-.03 3.8.2 7.61.33 11.42l.63-.4c-.03 3.78.24 7.57.4 11.35l.58-.3c-.06 5.43.63 10.83.46 16.27 2.25.05 4.51-.06 6.73-.47-.08-2.07-.22-4.12-.74-6.11-.38-11.59-2.17-23.04-2.45-34.63l-.6.2c.27-8.12-1.24-16.12-1.41-24.2-.6-.06-1.8-.17-2.4-.22-1.43-.3-2.87-.56-4.3-.78m-77.41 39.74c.58 12.02 2.65 23.92 3.09 35.95.51 4.97 1.32 9.91 1.5 14.92.41 8.69 2.46 17.2 2.83 25.9 1.93 1.05 3.83 2.18 5.77 3.22.02-2.69.1-5.39-.42-8.04-.18-11.44-1.9-22.77-2.64-34.17-.93-12.08-2.65-24.1-3.1-36.21-1.13-.88-2.25-1.76-3.37-2.63-1.22.34-2.44.7-3.66 1.06m45.34 63.28c1.29 11.95 2.28 23.93 3.78 35.86 2.01.87 4.01 1.75 6.04 2.6.18-3.72-.11-7.41-.84-11.05-.48-8.78-.22-17.67-2.04-26.32-1.12-.23-2.25-.46-3.36-.69zm108.71 65.64c.09 3.34 2.99-1.51 0 0"/><path d="M321.28 447.28c7.71-2.1 16.09 4.78 15.75 12.69.37 4.02-1.29 8.08-4.36 10.71-7.27 7.26-22.33 1.9-22.66-8.61-1.06-7.02 4.74-13.24 11.27-14.79m67.23 9.37c8.99-3.24 20.39 4.55 19.52 14.38.67 9.92-11.05 18.23-20.2 14.04-7.71-3.06-10.88-12.76-7.83-20.17 1.54-3.77 4.68-6.84 8.51-8.25"/><g fill="#fff"><path d="M465.48 143.06c3.97-.45 7.95-.76 11.95-.91-1.14 6.95.55 13.88-.21 20.86.04 8.62-.17 17.28 1.01 25.84.27 7.61.29 15.24.44 22.86l.68-.5c-.14 7.83.29 15.67.32 23.51l.71-.44c-.24 9.48.38 18.95.3 28.43l.63-.4c.1 7.56.24 15.12.38 22.69 1.16 9.15.83 18.41.97 27.63l.69-.24c0 8.13.4 16.25.3 24.38l.71-.54c.2 8.9-.19 17.86.98 26.7.05 4.35.07 8.7.3 13.05-3.36-.26-6.71-.51-10.06-.77-.13-4.02-.33-8.03-.25-12.05l-.65.64c-.06-6.16-.19-12.31-.34-18.47l-.66.37v-4.39l.65.34c0-.84.02-2.51.02-3.34l-.76.39c.02-.51.06-1.52.09-2.03.53-13.24-.95-26.45-1.25-39.68-1.51-32.49-2.98-64.98-4.41-97.48-.84-11.94-.33-23.93-1.42-35.86-.09-6.88-.14-13.76-1.12-20.59m96.06 2.23c3.93.62 7.88 1.22 11.75 2.19-.32 3.91.72 8-.65 11.77.17 1.24.37 2.48.58 3.73.58 27.85.02 55.72.43 83.59l1.91.43-1.91.43c-.37 5.11.78 10.12.78 15.21l-1.08-.13 1 2.32c.04 10.29.16 20.58.2 30.87-3.44-.29-6.88-.52-10.29-1.02.06-2.8.06-5.59.11-8.37l-.72.36c.06-14.8-.43-29.59-.29-44.38l-.7.41c-.02-12.8-.36-25.6-.3-38.4l-.74.43c-.04-19.81-.26-39.63-.08-59.44m-225.63 36.47c1.75-.9 3.53-1.77 5.3-2.64.25 1.97.46 3.95.94 5.89.81 6 .74 12.14 2.1 18.04.21 3.67.14 7.35.41 11.02 1.04 5.48.91 11.11 1.02 16.67l.61-.4c0 8.14 1.62 16.17 1.37 24.32l.68-.28c.16 3.85.19 7.7.47 11.54 1.01 3.62.52 7.42.93 11.12 1.06 4.08.62 8.35.91 12.52l.64-.07c.07 4.48-.03 9.02.88 13.43.17 4.53.56 9.06.56 13.61l.55-.06c.01 8.06 1.57 16.01 1.38 24.08l.67-.1c.13 4.05.26 8.11.34 12.17l.68-.24c.06 4.02.18 8.03.38 12.04-2.62 1.53-5.32 2.95-8.04 4.3-.11-3.75-.23-7.5-.37-11.24l-.67.11c.01-3.73-.18-7.45-.33-11.17l-.64.23c.04-3.78-.19-7.55-.36-11.32l-.63.36c.1-4.12-.23-8.23-.4-12.34l-1.68-.23 2.68-1.21-1.56-.26c-.09-3.79-.46-7.57-.44-11.37l-.56.41c-.12-4.12-.48-8.23-.42-12.35l-.63.31c-.15-3.75-.38-7.49-.36-11.23l-.63.07c-.19-3.81-.23-7.63-.49-11.43-1.11-3.8-.66-7.8-.85-11.7l-.69.26c-.1-3.77-.23-7.54-.31-11.31l-.7.41c-.03-3.8-.19-7.59-.31-11.37l-.72.35c.06-3.79-.11-7.58-.27-11.36l-.7.29c.06-4.08-.13-8.14-.35-12.21l-.65.21c.07-4.11-.24-8.2-.36-12.31l-.6.36c.08-8.25-1.29-16.42-1.47-24.66.67-.31 2.01-.94 2.69-1.26m274.42 17.53c2.2.6 4.39 1.19 6.59 1.82 1.15.49 2.29 1.01 3.44 1.53.3 21.33.31 42.66.24 63.99-2.22-.86-4.42-1.76-6.55-2.79-1.19-.47-2.35-.96-3.52-1.41-.16-9.38-.2-18.76-.17-28.14l-.72.4v-3.38l.68.4c-.03-2.15-.03-4.31.02-6.46l-.72.48c.29-7.56-.45-15.14.32-22.67.1-.95.3-2.83.39-3.77m-189.92 3.5a67.5 67.5 0 0 1 11.16-2.35c.06 2.1.08 4.19.1 6.3l.69-.53c-.14 7.51.47 15 .28 22.51l.71-.39c.1 5.75.11 11.5.33 17.25l1.96.43-1.96.41c.01 1.73.01 3.45.01 5.18l.62-.14c.14 7.08.42 14.17.36 21.26l.65-.45c.11 9 .47 17.99.41 26.99-3.45 1.12-7.11 2.07-10.68.88l1.48-.36c-.12-2.84-.16-5.67-.15-8.49l-.65.23c-.17-4.74-.25-9.48-.37-14.23l-.67.38c.02-4.15-.12-8.29-.24-12.43l-.67.18c.1-6.72-.5-13.42-.43-20.13l-.69.4c-.06-4.78-.19-9.56-.35-14.33l-.68.41c.23-5.78-.41-11.54-.35-17.31l-.5.04c-.15-3.91-.43-7.8-.37-11.71m284.19 14.67c1.91.73 3.82 1.48 5.76 2.18.92.73 1.92 1.41 2.73 2.31.74 5.99.09 12.07.72 18.08.46 1.95.61 3.96.59 5.96-.15 15 .06 30.01-.04 45.01-3.55-.91-6.75-2.68-9.73-4.75v-4.82l1.81-.42-1.79-.45c.05-21.03-.26-42.07-.05-63.1m-189.17 13.88c3.98.13 8.04-.17 11.91.96.21 9.77.31 19.54.33 29.31l.67-.22c-.09 10.51.22 21.02.24 31.54.25 4.95-.26 9.95.68 14.85.28 4.36-.09 8.74.26 13.1-3.34-.45-6.71-.74-10.08-.7-.05-1.61-.11-3.23-.12-4.83l-.69.31c.08-7.78-.34-15.55-.25-23.32l-.75.3c.12-8.14-.36-16.27-.26-24.41l-.73.54c.12-10.77-.48-21.53-.37-32.29l-.66.29c-.04-1.81-.11-3.62-.18-5.43m234.92 2.1c2.63 2.67 5.48 5.11 8.05 7.84.26 95.16.19 190.35.07 285.53-2.29-.79-4.56-1.66-6.57-3.04l-.24-.25c.14-73.04-.34-146.08-.31-219.13l-.68.22c-.01-.83-.02-2.47-.03-3.3l.71.45c.01-1.14.01-3.44.02-4.58l-.73.62c.03-2.18.05-4.35.03-6.52l.67.37c0-.84.02-2.53.03-3.37l-.75.44c.02-2.76.07-5.52.07-8.27l1.82-.48-1.86-.41c.27-15.38-.29-30.75-.3-46.12m-89.1 194.97c.03-56.76-.1-113.52.06-170.27 2.09.36 4.18.82 6.25 1.34l-.12 1.04 1.01-.19c.07 32.14.29 64.28.18 96.42l.72-.5c0 1.12-.02 3.35-.02 4.47l-.67-.48q.045 3.255 0 6.51l.71-.5c-.04 2.13-.05 4.25-.03 6.39l-.7-.32c.01.83.03 2.48.03 3.3l.69-.24c-.02 3.06-.04 6.12-.03 9.18l-1.88.44 1.88.42c-.06 15.22.24 30.45.02 45.67-2.78-.65-5.44-1.67-8.1-2.68M381.19 263.49c3.36-1.14 6.82-1.92 10.17-3.12.02 4.42.38 8.84.34 13.27l.59-.27c.13 5.06.37 10.12.38 15.19l.71-.16c.01 4.43.13 8.85.26 13.27l.71-.27c-.33 6.39.67 12.77.24 19.15-.19 2.15-2.92 1.98-4.4 2.81-1.52-.36-3.04-.69-4.57-1-.03-7.36-1.58-14.61-1.29-21.98l-.65.22c-.3-12.41-2.2-24.68-2.49-37.11m-157.85 7.3c.26-.6.53-1.19.79-1.78.28 4.18.55 8.37.55 12.57l.69-.17c.11 3.38.23 6.75.29 10.14l.72-.17c-.28 6.45 1.41 12.74 1.3 19.19l.64-.18c.03 3.05.19 6.1.33 9.15l.63-.03c-.15 6.73 1.42 13.33 1.46 20.06l.53-.19c-.01 4.06.47 8.1.47 12.16l.53-.06c.01 7.1 1.59 14.06 1.48 21.17-2.84 1.21-5.5 2.8-8.29 4.11-1-3.5-.79-7.19-1.58-10.72-.36-6.03-1.44-11.98-1.78-18-1.38-8.96-1.82-18.07-3.3-27.01-.21-2.52-.34-5.04-.46-7.56l-.61.03c-.03-3.01-.22-6-.42-9l-.57.01c.01-3.02-.23-6.02-.47-9.02l-.5.01c-.06-3.36-.4-6.7-.52-10.05l-.67.02c.16-1.97-.45-4.27 1.16-5.81 2.43-3.04 4.83-6.13 7.6-8.87m387.96 29.34c3.89-.29 7.5 1.25 10.11 4.1-.07 19.24.08 38.49.13 57.73-.68.48-2.06 1.42-2.74 1.9-2.2-.43-4.34-1.05-6.47-1.69.07-.41.23-1.25.3-1.67l-1 .12c.09-20.17-.29-40.33-.33-60.49m-353.35 8.96c1.91-3.33 5.23-5.62 8.41-7.66.13 2.37.24 4.74.33 7.12l.63-.14c-.03 3.74.19 7.47.39 11.2l.57-.27c-.02 3.77.31 7.53.46 11.3l.53-.33c0 4.43.5 8.83.44 13.26l.57-.15c.2 3.7.45 7.41.43 11.12l.68-.12-.03 1.08c-.19 3.88-.02 7.77.39 11.63 2.67 27.61 4.82 55.27 7.82 82.84-2.44 2.3-4.8 4.67-7.06 7.14-1.07-4.13-1.12-8.41-1.17-12.65l-.67.09c-.06-3.36-.2-6.72-.37-10.07l-.62.13c0-3.4-.2-6.79-.39-10.17l-.59.19c0-10.47-2.41-20.77-2.41-31.25l-.59.21c-.17-3.4-.38-6.79-.37-10.19l-.63.11c-.17-3.17-.3-6.34-.46-9.51-1.06-3.2-.7-6.62-1.03-9.92-.73-2.2-.74-4.52-.76-6.8-.67-16.12-2.83-32.15-4.5-48.19m-68.17 7.12c.36.03 1.1.08 1.46.1.03 3.21.2 6.44.91 9.58.23 3.35.43 6.71 1.05 10.01.63 8.4 2.07 16.7 2.57 25.11 1 3.26.43 6.76 1.44 10.03.21 2.97.21 5.98.98 8.89.2 3 .31 6.03.96 8.99.27 3.02.47 6.05.79 9.08.61 2.96.71 5.98.94 8.99.73 2.79.76 5.69.83 8.57l.56-.04c.16 3 .33 5.99.43 8.99l.61-.05c-.12 5.57 1.3 10.99 1.45 16.55.81 2.95.65 6.03 1 9.05.75 3.27.74 6.65 1.09 9.98.64 2.97.76 6.01.98 9.04.97 5.92 1.62 11.92 1.98 17.92.85 2.92.7 5.98 1.04 8.97.79 2.97.5 6.11 1.32 9.08.71 8.99 1.83 17.95 2.92 26.91.38 3.32.45 6.68 1.12 9.96.3 2.66.43 5.34.66 8.02.92 3.26.48 6.73 1.38 10.01.22 2.36.32 4.73.53 7.1.88 3.24.52 6.67 1.43 9.91.19 2.72.21 5.48.9 8.14.28 6.33 1.62 12.56 1.68 18.91-1.42.75-2.82 1.54-4.21 2.32-3.04-19.04-4.87-38.28-7.7-57.35-.48-5.01-1.05-10.02-1.98-14.95-.47-5.67-1.29-11.3-2.1-16.93-.85-7.41-1.79-14.83-2.94-22.19-2.36-20.66-5.23-41.25-7.87-61.86-.78-7.72-2.12-15.36-2.81-23.08-1.1-5.26-1.22-10.69-2.34-15.95-.19-2.66-.35-5.33-.99-7.93-.3-5.09-1.38-10.08-1.73-15.15-2.01-13.27-3.39-26.62-5.27-39.91-.64-2.33.77-4.39 1.85-6.32 1.67-2.85 3.41-5.65 5.08-8.5m-28.57 54.63c.08 2.1.36 4.2.84 6.25.29 2.63.46 5.28 1 7.88.32 2.69.56 5.38.87 8.07.78 4.96 1.5 9.94 1.92 14.95 2.48 17.99 4.83 36.02 6.95 54.06.98 5.26 1.32 10.63 2.24 15.91.32 2.69.57 5.38.86 8.08.53 2.62.74 5.28 1.04 7.94.46 2.06.65 4.17.83 6.28-1.68 1.02-3.36 2.05-5.02 3.12-.27-1.48-.58-2.95-.93-4.4-1.94-16.03-4.55-31.99-6.82-47.98-.35-2.31-.58-4.64-.96-6.95-1.4-9.34-2.56-18.73-4.2-28.03-.84-8.74-2.62-17.37-3.55-26.1-1.03-6.87 4.24-12.46 4.93-19.08m360.18 1.42c3.01.21 6.03.38 9.05.58.28 4.1.17 8.21.2 12.32-3.04-.95-6.1-1.84-9.13-2.78.03-3.38.04-6.75-.12-10.12m184.08 8.23c3.19-.13 6.37.39 9 2.31.29 11.02.19 22.04.14 33.07l.99-.77c-.83 1.84-.89 3.69-.18 5.56l-.98-.29c.4 3.05.93 6.1 1.08 9.18l-.81-.15-.08 3.29.7-.34c-.02 2.74 0 5.49.03 8.24l-.82-.19c.37 1.84.84 3.7.8 5.6-.11 14.13.18 28.27.02 42.4-1.7-.01-3.38-.01-5.06-.02-1.34-1.33-2.69-2.64-4.03-3.95l-.62.13c0-1.06-.02-3.17-.02-4.23l.69.38c-.03-1.86-.03-3.7.01-5.54l-.7.61c.13-31.76-.12-63.52-.16-95.29m-308.1 28.04c17.54-4.59 35.28-9.32 53.51-9.81 26.31-2.18 52.76 2 77.94 9.56 12.23 4.57 24.44 9.42 35.59 16.3 5.28 2.82 10.11 6.42 14.39 10.6 14.84 12.53 27.98 27.01 39.44 42.67 10.09 15.26 18.81 31.49 25.2 48.66 7.61 20.11 12.43 41.17 15.54 62.42C668.27 652.27 672.71 716.19 677 780c.77 20.01 1.48 40.02 3 60-25.58 14.25-53.35 24.36-81.81 31.11-37.26 9.79-76.13 13.52-114.58 11.27 1.06-6.42.91-12.94.93-19.4.84-10.98 1.49-21.97 1.53-32.97.73-7.35.9-14.72.96-22.09 1.32-24.27.95-48.6.82-72.89-.79-26.67-2-53.36-5.46-79.84-1.86-13.12-3.51-26.4-7.59-39.05 7.7-2.11 15.06-5.22 22.64-7.68 6.9-2.48 13.23-6.21 19.95-9.09 4.75-2.13 8.97-7.47 6.94-12.87-1.86-7.25-9.94-11.81-17.13-10.27-8.18 3.42-16.01 7.71-24.57 10.13-19.44 6.91-39.37 12.47-59.7 16.07-20.33 4.11-41.31 4.42-61.93 2.62-9.96-.83-19.92-2.15-29.64-4.54-14.86-5.46-29.7-11.25-43.36-19.32-10.34-7.01-20.14-16.12-23.87-28.43-5.85-19.96-1.56-41.92 9.03-59.54 5.29-10.23 13.34-18.62 21.32-26.77 9.57-8.88 19.43-17.64 30.74-24.26 10.2-6.76 21.09-12.33 31.89-18.03 13.18-5.81 26.63-10.99 40.26-15.63m-76.09 38.75c-6.53 1.55-12.33 7.77-11.27 14.79.33 10.51 15.39 15.87 22.66 8.61 3.07-2.63 4.73-6.69 4.36-10.71.34-7.91-8.04-14.79-15.75-12.69m67.23 9.37c-3.83 1.41-6.97 4.48-8.51 8.25-3.05 7.41.12 17.11 7.83 20.17 9.15 4.19 20.87-4.12 20.2-14.04.87-9.83-10.53-17.62-19.52-14.38m408.91-55.01c3.39 1.19 6.89 2.17 9.96 4.12.19 12.62-.17 25.23-.01 37.85l-.73-.21c.01.8.03 2.39.03 3.19l.72-.21-.08 4.17-.83-.11c.14 2.11.35 4.23 1.1 6.24l-.92-.39c-.04 15.19-.13 30.38-.17 45.57-3.05.7-6.08-.2-9.06-.73-.06-1.57-.1-3.15-.1-4.7l-2.01-.41 1.99-.45c-.01-2.7.02-5.41.06-8.1l-2.15-.47 2.13-.45c-.03-2.46-.01-4.92.03-7.37l-.76.61.04-2.88.7 1.05c-.07-25.44.11-50.88.06-76.32m43.98 55.39c2.7.52 5.35 1.28 8.01 2.01.16 44.3.29 88.61-.24 132.91-.76 19.27-.39 38.58-.85 57.86-1.09 8.54-6.25 15.77-8.97 23.79-.01-27.57.27-55.13.31-82.69l1.04-2.47-1.05.28c.02-1.81.04-3.61.05-5.41l.62.48c-.02-28.83.3-57.66.35-86.49l1.05.4-.97-1.57c-.05-.92-.16-2.76-.22-3.69l.76.21c.01-1.09.04-3.29.05-4.39l-.91.35c1.77-10.4.53-21.07.97-31.58m-598.12 17c.27-.45.8-1.36 1.06-1.81.14 2.78.24 5.57.31 8.37l.7-.16c0 3.92.34 7.83.4 11.75-1.88 5.19-5 9.93-6.15 15.39-.04-2.53-.2-5.05-.7-7.52-.35-3.01-.54-6.04-.76-9.05-.88-3.86-.67-7.87-1.63-11.71 2.35-1.63 4.62-3.37 6.77-5.26m-65.14 64.89c1.47-.29 2.95-.56 4.43-.84.66 3.29 1.03 6.62 1.3 9.96 2.54 17.95 4.78 35.97 6.96 53.98 1.06 5.26 1.22 10.68 2.3 15.94.41 5.35 1.2 10.66 2.02 15.95.26 2.38.48 4.77.7 7.16.62 2.58.75 5.24 1.06 7.88.54 2.31.65 4.7.91 7.07 1.13 7.41 2.11 14.87 2.79 22.35-3.64-.29-3.03-3.85-3.66-6.42-.32-2.31-.5-4.63-.96-6.91-.56-4.7-1.39-9.35-1.92-14.04-.76-4.33-1.47-8.68-1.87-13.06-.62-2.62-.69-5.32-1.36-7.92-.59-6.74-2.04-13.37-2.75-20.09-.49-2.31-.72-4.66-.97-7-.61-2.61-.71-5.31-1.31-7.91-1.42-11.33-3.33-22.61-4.77-33.94-.88-4.66-1.26-9.41-2.23-14.05-.29-2.7-.52-5.41-.67-8.11m69.19 39.34c2.7 4.21 6.79 7.45 8.97 12.01l-.04.17c.07 3.37.27 6.73.47 10.11l.54-.18c.02 3.75.39 7.48.48 11.23l.49-.14c.23 4.63.6 9.26.54 13.91-1.86.82-3.83 1.3-5.87 1.31-.27-3.41-.56-6.82-.61-10.24l-.59.05c-.18-3.18-.09-6.42-.94-9.51-.28-3-.16-6.07-1.03-8.98-.18-2.34-.25-4.7-.47-7.03-1.12-4.17-.43-8.62-1.94-12.71m40.23 33.65c2.58 1.19 5.16 2.38 7.67 3.71.14 5.56.76 11.11.49 16.68-1.82 1.18-3.92 1.77-5.97 2.44.02-6.5-1.56-12.84-1.4-19.33l-.68.18c-.03-.92-.08-2.76-.11-3.68"/><path d="M329.5 625.53q3.9.69 7.83 1.32c.91 5.56 1.3 11.16 1.32 16.8l.7-.34c-.06 5.8.51 11.58.49 17.39-2.42 0-4.84.02-7.26 0-.16-2.46-.23-4.92-.24-7.37l-.63.28c-.16-3.76-.32-7.53-.35-11.29l-.68.32c-.1-3.45-.22-6.88-.28-10.32l-.74.31c-.04-2.38-.1-4.74-.16-7.1M223.59 646.3c1.56.41 3.1.94 4.65 1.45.05 1.66.11 3.32.19 4.99 2.99 34.56 7.95 68.95 10.97 103.51-.23-.11-.68-.33-.91-.44-1.09-.59-2.08-1.3-3.1-1.97-.09-9.71-1.93-19.3-2.62-28.97-1.61-11.94-1.67-24.04-3.86-35.9-.29-2.63-.43-5.29-1.01-7.87-.37-5.09-1.35-10.1-1.75-15.18-.59-2.61-.78-5.27-1.04-7.9-.76-3.87-1.03-7.82-1.52-11.72m572.91 8.65c2.58-1.99 4.67-4.57 7.29-6.51.69.08 2.06.23 2.75.3l-1.88.82c-.11 27.08-.24 54.17-.42 81.26-2.33 3.96-5.38 7.42-7.93 11.23.18-29.03.13-58.07.19-87.1m-417.91 55.46c1.43.22 2.87.48 4.3.78.6.05 1.8.16 2.4.22.17 8.08 1.68 16.08 1.41 24.2l.6-.2c.28 11.59 2.07 23.04 2.45 34.63.52 1.99.66 4.04.74 6.11-2.22.41-4.48.52-6.73.47.17-5.44-.52-10.84-.46-16.27l-.58.3c-.16-3.78-.43-7.57-.4-11.35l-.63.4c-.13-3.81-.36-7.62-.33-11.42l-.67.35c-.14-4.08-.29-8.16-.35-12.23l-.69.16c-.1-3.72-.2-7.44-.28-11.16l-.72.15c-.03-1.72-.05-3.43-.06-5.14m-76.32 39.79c1.44.12 2.89.26 4.34.42 2.51 23.82 3.94 47.76 7.34 71.48.52 2.65.44 5.35.42 8.04-1.94-1.04-3.84-2.17-5.77-3.22.74-8.74-1.72-17.26-2.21-25.93-.31-6.03-1.35-12-1.22-18.05-.58-10.94-2.46-21.78-2.9-32.74m44.25 63.23 3.58.4c1.11.23 2.24.46 3.36.69 1.82 8.65 1.56 17.54 2.04 26.32.73 3.64 1.02 7.33.84 11.05-2.03-.85-4.03-1.73-6.04-2.6-1.5-11.93-2.49-23.91-3.78-35.86"/></g><path fill="#6e6e6e" d="M466.6 163.65c1.09 11.93.58 23.92 1.42 35.86 1.43 32.5 2.9 64.99 4.41 97.48.3 13.23 1.78 26.44 1.25 39.68-1.66-5.41-.88-11.13-1.36-16.69-2.11-41.64-3.8-83.31-5.72-124.96.56-10.46-.23-20.91 0-31.37"/><path fill="#7e7e7e" d="m257.58 307.39.37 1.7c1.67 16.04 3.83 32.07 4.5 48.19-1.72-5.25-1.63-10.84-2.21-16.28-.86-8.05-1.52-16.13-2.48-24.17-.33-3.13-.59-6.31-.18-9.44"/><path d="M130.2 324.26c1.7.01 1.38 2.75-.2 2.65-1.71-.01-1.39-2.76.2-2.65" opacity=".33"/><path fill="#757575" d="M271.36 355.5c1.62 7.01 1.55 14.27 2.49 21.38 1.98 22.67 4.08 45.33 6.19 67.99.2 1.71-.11 3.43-.47 5.1-3-27.57-5.15-55.23-7.82-82.84-.41-3.86-.58-7.75-.39-11.63"/><path fill="#fefefe" d="M410.44 627.22c1.65-.17 3.31-.34 4.98-.49.21 3.64.36 7.29.27 10.94l.6-.31c0 9.46 1.51 18.79 1.38 28.26l.69-.28c-.1 5.12.27 10.23.36 15.35l.57-.36c.02 5.43.42 10.86.39 16.31l.68-.3c-.37 7.53 1.06 14.94 1.08 22.46-1.26-.07-2.51-.11-3.76-.15-.18-3.75-.33-7.5-.33-11.24l-.66.07c-.15-4-.29-8-.36-12l-.66.04c-.07-4.06-.18-8.12-.31-12.17l-.7.28c-.01-4.08-.19-8.16-.36-12.23l-.59.21c.02-3.8-.21-7.59-.36-11.38l-.62.4c.08-5.42-.56-10.81-.42-16.22l-.61.15c-.21-4.04-.42-8.08-.39-12.12l-.63.15z"/><path fill="#737373" d="M228.43 652.74c1.06 3.28 1.43 6.72 1.77 10.15 3.33 31.94 7.68 63.78 10.23 95.8-1.04-1.11-2.08-2.31-3.07-3.41l1.13.53c.23.11.68.33.91.44-3.02-34.56-7.98-68.95-10.97-103.51"/><path d="M881.62 690.25c.32-3.31.99-6.56 2.09-9.69.6 3.43.52 7.05-2.09 9.69" opacity=".22"/><path fill="#fdfdfd" d="M707.39 693.27c1.43.09 2.87.17 4.32.25.08 37.48-.12 74.96.1 112.44 1.03 4.43.68 9.06.77 13.59-1.29.94-2.71 1.65-4.12 2.36-.17.42-.5 1.26-.66 1.68-.3-43.44-.33-86.88-.41-130.32"/><path fill="#7a7a7a" d="M301.18 750.15c1.22-.36 2.44-.72 3.66-1.06 1.12.87 2.24 1.75 3.37 2.63.45 12.11 2.17 24.13 3.1 36.21.74 11.4 2.46 22.73 2.64 34.17-3.4-23.72-4.83-47.66-7.34-71.48-1.45-.16-2.9-.3-4.34-.42.44 10.96 2.32 21.8 2.9 32.74-.13 6.05.91 12.02 1.22 18.05.49 8.67 2.95 17.19 2.21 25.93-.37-8.7-2.42-17.21-2.83-25.9-.18-5.01-.99-9.95-1.5-14.92-.44-12.03-2.51-23.93-3.09-35.95"/><path fill="#272727" d="M455.23 879.07c2.99-1.51.09 3.34 0 0"/></svg>