<svg xmlns="http://www.w3.org/2000/svg" viewBox="0 0 841 639">
  <path fill="#52883d"
    d="M630.45.66c.92 1.61 1.84 3.22 2.7 4.88.37 3.1 1.08 6.16 2.2 9.09 7.03 21.23 14.69 42.24 21.53 63.54 5.42 14.24 9.64 28.9 14.94 43.18.04.66.1 1.99.14 2.66-7.69-3.83-15.12-8.17-22.68-12.25-2.93-1.52-6.73-5.61-9.9-2.46-7.95 6.67-15.88 13.37-24.17 19.6-5.34-7.53-9.38-15.91-14.79-23.39-.91-1.43-2.81-.45-4.02-.1-2.43.94-4.7 2.27-6.68 3.94-.13.11-.38.35-.51.46-5.74 1.89-10.96 5.01-16.52 7.35C591.68 78.2 611.22 39.51 630.45.66M447.76 175.15c9.84-19.9 19.49-39.9 29.79-59.57.75 1.41 1.51 2.83 2.24 4.27 1.52 8.55 5.07 16.55 7.59 24.82 3.86 9.63 6.51 19.7 10.36 29.33.17 1.34.31 2.68.44 4.03-5.22-2.14-9.68-5.88-15.04-7.63-4.95 2.96-8.79 7.42-13.63 10.54-2.88-3.98-4.43-9.21-8.54-12.13-1.97.35-3.47 1.76-5.05 2.87-.09.03-.28.09-.38.12-2.68.9-5.19 2.24-7.78 3.35M71.15 379.4c7.94-15.97 15.96-31.9 23.89-47.88 1.3 2.21 2.52 4.46 3.68 6.75-.23 1.58-.23 3.2.37 4.71 6.43 18.88 13.08 37.68 19.31 56.63 1.57 4.94 3.31 9.83 5.37 14.6.08 1.25.17 2.51.25 3.77-5.31-2.56-10.37-5.59-15.49-8.5-1.74-.97-3.45-2.11-5.42-2.52-1.91.61-3.4 2.03-4.92 3.28-4.37 3.91-9.07 7.43-13.52 11.25-4.8-5.17-6.95-12.16-11.73-17.36-2.31 1.1-4.58 2.29-6.79 3.59-.54.26-1.62.79-2.17 1.05-3.23 1.72-6.56 3.24-9.9 4.72 5.29-10.82 10.71-21.57 16.13-32.32.23-.44.7-1.33.94-1.77m98.21 149.88c.77-.57 1.84-1.6 2.66-.45 7.03 7.06 11.93 15.84 17.48 24.05 6.01-7.86 10.7-16.62 16.53-24.59 1.27.23 2.55.46 3.83.7.75 1.18 1.51 2.37 2.26 3.57.96 7.42 3.95 14.35 5.78 21.58 3.66 12.33 7.22 24.68 10.87 37.02 1.42 5.52 3.74 10.85 4.03 16.61-3.17-1.61-6.11-3.6-8.97-5.69-7.95-5.33-15.99-10.5-23.95-15.81-2.73 2.95-6.22 5.1-8.78 8.22-2.89 3.21-6.12 6.12-9.31 9.03-4.79 2.77-7.89 7.57-12.21 10.97-2.19-4.83-4.86-9.44-7.58-13.98-3.75-5.28-6.22-11.32-9.74-16.74-8.12 5.65-16.84 10.38-24.74 16.34-1.38-.48-2.76-.98-4.13-1.44 7.69-17.42 14.75-35.11 22.48-52.51.63-1.07 1.29-2.11 1.95-3.15.13.74.38 2.21.51 2.94 7.11-5.42 14.07-11.05 21.03-16.67" />
  <path fill="#4a7738"
    d="M633.15 5.54c18.5 34.14 37.05 68.26 55.3 102.53-5.24-2.95-10.33-6.16-15.51-9.2.11 4.9-.42 9.85.37 14.71-1.68 2.23-1.34 5.15-1.49 7.77-5.3-14.28-9.52-28.94-14.94-43.18-6.84-21.3-14.5-42.31-21.53-63.54-1.12-2.93-1.83-5.99-2.2-9.09M479.79 119.85c9.21 16.89 18.44 33.79 27.38 50.82-2.74-1.66-5.49-3.32-8.25-4.93.02 2.91-.42 6.01 1 8.7l-2.18-.44c-3.85-9.63-6.5-19.7-10.36-29.33-2.52-8.27-6.07-16.27-7.59-24.82M99.09 342.98c-.6-1.51-.6-3.13-.37-4.71 8.21 14.96 16.15 30.07 24.41 45.01.51.89 1.03 1.79 1.55 2.69 3.8 7.03 7.68 14.01 11.36 21.1-3.77-2.08-7.42-4.37-11.12-6.56-.01 3.23.1 6.46-.07 9.69-.36 1.33-.72 2.67-1.08 4.01-2.06-4.77-3.8-9.66-5.37-14.6-6.23-18.95-12.88-37.75-19.31-56.63" />
  <path
    d="M52.87 78.66c20.56-5.38 41.87-7.65 63.11-7.59 23.52-.11 47.18 2.53 69.78 9.21 12.84 3.96 25.66 9.16 36.05 17.9 6.09 5.2 11.26 12.53 11.04 20.86v95.98c.1 11.67-.2 23.35.12 35.01 2.5 1.27 5.39 1.49 8.08 2.21 28.67 6.62 57.36 13.19 86.02 19.86 39.26 8.98 78.5 18.1 117.76 27.12 8.62 1.92 17.17 4.14 25.84 5.81.09-1.36.19-2.72.3-4.06-.09 1.4-.17 2.8-.24 4.21q1.44.39 2.91.78c2.26.54 4.53 1.01 6.81 1.51 1.28.28 2.56.57 3.86.87 6.92 1.55 13.82 3.2 20.73 4.8 12.36 2.76 24.69 5.67 37.03 8.53 1.19.29 2.39.58 3.61.88 2.85.67 5.71 1.3 8.57 1.93 3.92.85 7.82 1.81 11.74 2.68 17.87 4.13 35.75 8.23 53.62 12.37 4.4 1.05 8.8 2.07 13.21 3.11 2.85.68 5.7 1.32 8.57 1.94-.05-2.86-.08-5.72-.31-8.57.28 2.79.36 5.61.43 8.42 5.29 1.14 12.01 2.54 13.53 8.68.85 7.53.12 15.18.35 22.77.02 84.38.04 168.76.01 253.14.42 3.17-1.92 5.44-4 7.43l-.04-2.32c-.18-38.24-.11-76.49-.03-114.73-45.1-10.65-90.31-20.85-135.45-31.35-32.7-7.46-65.34-15.17-98.06-22.52.04 39.9.16 79.81.02 119.7 59.16 13.72 118.36 27.24 177.51 41 .66.61 1.34 1.22 2.05 1.82-42.08-10.14-84.34-19.53-126.5-29.34C393.5 580.73 316 563.16 238.64 545l2.63-.48c58.49 13.5 116.97 27.04 175.49 40.43-.12-90.56.14-181.14-.12-271.7-65.7-15.45-131.59-30.2-197.27-45.71-.09 77.03.03 154.06-.07 231.09l-1.29-1.81c.08-6.68.11-13.37.03-20.05-.02-.34-.04-1.02-.06-1.35.19-38.17.06-76.33.07-114.49-14.67 9.97-31.86 15.4-49.08 19-8.57 1.68-17.22 3.18-25.95 3.66.89-2.84 4.84-1.76 7.13-2.51 4.57-.59 9.13-1.24 13.65-2.14 7.79-1.25 15.45-3.21 22.99-5.52 5.73-1.71 11.29-3.92 16.74-6.34 5.21-2.38 10.2-5.26 14.7-8.81-.11-19.99-.03-39.98-.04-59.96-.63.42-1.89 1.27-2.52 1.69.11-.57.32-1.71.43-2.28.68-.56 1.37-1.11 2.06-1.66.15-13.52-.22-27.04.22-40.56 2.15-1.9 3.93-4.24 6.32-5.86 1.94-.65 4.03-.07 6.03-.02.07-40.59-.05-81.18.06-121.77-3.06 5.68-7.55 10.45-12.82 14.14-3.68 2.68-7.65 4.93-11.71 6.97-3.19 1.58-6.47 2.98-9.79 4.28-4.7 1.85-9.53 3.33-14.38 4.73-3.05.84-6.12 1.62-9.2 2.33-2.94.6-5.86 1.24-8.81 1.79-4.24.77-8.5 1.38-12.76 1.99-17.42 2.13-35.04 2.74-52.56 1.59.63-.42 1.89-1.25 2.52-1.66 28.22 1.29 56.88-.8 84.06-8.84 3.1-.91 6.16-1.94 9.2-3.05 5.35-1.97 10.55-4.35 15.56-7.07 2.11-1.19 4.16-2.48 6.16-3.84 6.51-4.59 12.75-10.69 14.51-18.75 1.56-6.67-1.24-13.59-5.63-18.59-6.45-7.37-15.16-12.31-24.03-16.21-14.21-6.11-29.37-9.81-44.66-12.01-5.47-.79-10.96-1.48-16.47-1.95-16.75-1.25-33.6-1.48-50.31.35-17.3 1.68-34.55 4.9-50.91 10.85-10.49 3.92-20.88 8.92-29.01 16.79-3.89 3.78-6.68 8.6-7.95 13.88l-1.8.56v-2.98l.43.93c2.1-8.01 7.98-14.34 14.59-19.01 11.32-8.01 24.55-12.81 37.85-16.41m166.58 178.57c-.3 3.04-.1 6.11-.11 9.16 143.99 33.17 287.96 66.36 431.93 99.6 0-2.32.05-4.63.02-6.95.24-4.17-3.09-8.25-7.2-8.96-139.36-32.16-278.74-64.27-418.1-96.42-2.68-.88-6.04.7-6.54 3.57m198.31 56.21c.7 6.29-.13 12.6.02 18.91 77.77 18.35 155.76 35.81 233.54 54.11-.09-6.51.01-13.01-.06-19.52-10.9-1.81-21.55-4.89-32.36-7.16-67.05-15.46-134.08-30.98-201.14-46.34m.02 20.51c-.03 4.44.48 8.88.32 13.33 77.78 17.73 155.47 35.94 233.26 53.63-.02-4.43-.06-8.85.03-13.28-59.32-13.8-118.7-27.36-178.03-41.12-18.55-4.08-36.97-8.81-55.58-12.56m.35 13.82c-.05 4.85 0 9.71-.05 14.57 77.82 17.59 155.48 35.99 233.3 53.56-.06-4.77-.06-9.54-.01-14.31-77.75-17.93-155.52-35.78-233.24-53.82m-.03 15.29c.06 4.75-.04 9.5.1 14.25 8.55 1.07 16.82 3.79 25.27 5.46 69.28 15.99 138.57 31.94 207.85 47.94-.07-4.7-.06-9.4-.01-14.09-77.77-17.69-155.41-36.03-233.21-53.56m0 14.73c.03 4.53.02 9.07.01 13.61 77.74 17.82 155.4 36 233.18 53.63.02-4.53-.02-9.05.05-13.58-37.48-8.77-75.02-17.29-112.51-26-40.26-9.14-80.42-18.77-120.73-27.66m.01 14.32c.07 4.67-.15 9.36.18 14.03 11.68 2.11 23.15 5.24 34.75 7.75 66.08 15.32 132.24 30.35 198.28 45.82q-.06-6.99 0-13.98c-77.79-17.63-155.45-35.84-233.21-53.62m-.33 14.46c.07 4.6.05 9.2.02 13.8 37.41 8.59 74.81 17.26 112.22 25.86 40.44 9.21 80.79 18.85 121.28 27.82.03-4.53-.07-9.06.09-13.59-35.37-8.52-70.92-16.37-106.35-24.68-42.44-9.67-84.79-19.71-127.26-29.21m.01 14.65c.07 4.7.06 9.41.01 14.11 8.31 1.39 16.44 3.72 24.68 5.46 69.62 16.03 139.2 32.2 208.84 48.09-.04-4.74-.05-9.47 0-14.2-12.87-2.47-25.58-5.81-38.38-8.67-65.07-14.83-130.03-30.2-195.15-44.79m.32 14.79c.05 4.74 0 9.48.05 14.22 25.68 5.45 51.18 11.75 76.79 17.5 45.38 10.53 90.81 20.84 136.16 31.49 6.76 1.35 13.43 3.11 20.19 4.52-.05-4.69-.06-9.39 0-14.08-77.74-17.82-155.42-35.98-233.19-53.65m.03 14.81c-.31 2.04-.26 4.1-.07 6.16.2 2.77-.79 5.69.54 8.32 4.21.1 8.2 1.63 12.31 2.41 12.03 2.87 24.13 5.44 36.13 8.42 61.44 14.03 122.86 28.21 184.25 42.49-.05-4.68-.06-9.36 0-14.03-58.48-13.48-116.92-27.16-175.45-40.37l-.87-.52c-19.02-3.89-37.86-8.75-56.84-12.88" />
  <path
    d="M225.82 258.13c4.23-2.05 7.93 4.32 4.34 7.21.83-2.53.83-5.1-1.24-7-.78-.05-2.33-.16-3.1-.21m194.03 44.99c1.65.1 3.31.3 4.97.53-1.05 1.51-2.18 2.94-3.31 4.38.78.11 2.34.34 3.12.45a40 40 0 0 1-.13 1.01c-1.41-.38-2.84-.73-4.22-1.18-.27-1.69 1.99-2.47 2.73-3.73-1.07-.48-2.12-.96-3.16-1.46m7.9 7.18c-2.87-1.14-2.66-5.38 0-6.73q-1.86 3.81 1.68 3.39c-.07-.6-.2-1.79-.27-2.39.5.75 1.48 2.25 1.97 3-1.58.07-3.15.1-4.72.1.76 1.69 2.23 2.24 4.39 1.65-.91.4-1.95 1.8-3.05.98m-411.4 5.93c1.06-.85 2.43-1.12 3.65-1.64 2.48.61 5.18 1.78 5.98 4.46 2.03 4.62-3.46 10.02-8.03 7.91-4.41-1.38-5.32-8.12-1.6-10.73m-1.03 3.22c-1.26 2.87.97 5.98 3.63 7.02 3.58.57 7.13-2.96 6.55-6.55-1.06-2.31-3.26-3.68-5.5-4.63-1.74 1.14-4.13 1.89-4.68 4.16m107.81 63.83 1.61-.29c5.78.29 11.9-1.51 17.41.88-5.76.62-11.55.61-17.32 1.14-.03.24-.11.72-.15.96-.52-.9-1.04-1.8-1.55-2.69M600.4 627.49l.67.11c3.1.52 6.16 1.33 9.23 2.07-1.18.11-2.36.23-3.53.36-3.12-.73-6.24-1.45-9.38-2.07 1-.16 2-.31 3.01-.47" />
  <path fill="#c0bfbf"
    d="M89.67 74.05c16.71-1.83 33.56-1.6 50.31-.35-.19.56-.58 1.67-.78 2.22 20.03 19.57 39.56 39.66 59.46 59.37 3.64 3.44 6.7 7.71 11.44 9.76-5.01 2.72-10.21 5.1-15.56 7.07-8.16-4.88-13.23-13.19-20.5-19.15-6.55-7.48-14.4-13.67-20.84-21.24-8.11-7.86-15.85-16.1-23.99-23.93-4.01-4.36-8.67-8.07-12.52-12.57-2.57-3.39-7.35-1.48-10.93-1.51-5.36.14-10.74-.08-16.09.33" />
  <path fill="#d2d2d2"
    d="M105.76 73.72c3.58.03 8.36-1.88 10.93 1.51 3.85 4.5 8.51 8.21 12.52 12.57 8.14 7.83 15.88 16.07 23.99 23.93 6.44 7.57 14.29 13.76 20.84 21.24 7.27 5.96 12.34 14.27 20.5 19.15-3.04 1.11-6.1 2.14-9.2 3.05-7.52-5.19-13.48-12.21-19.79-18.72-3.24-2.41-5.73-5.58-8.4-8.56-5.79-5.54-11.04-11.64-17.06-16.94-3.57-3.1-6.43-6.9-9.85-10.16-8.53-8.05-16.55-16.62-24.89-24.88.1-.55.31-1.64.41-2.19" />
  <path fill="#e3e3e3"
    d="M38.76 84.9c16.36-5.95 33.61-9.17 50.91-10.85 5.35-.41 10.73-.19 16.09-.33-.1.55-.31 1.64-.41 2.19 8.34 8.26 16.36 16.83 24.89 24.88 3.42 3.26 6.28 7.06 9.85 10.16 6.02 5.3 11.27 11.4 17.06 16.94 2.67 2.98 5.16 6.15 8.4 8.56 6.31 6.51 12.27 13.53 19.79 18.72-27.18 8.04-55.84 10.13-84.06 8.84-17.22-1-34.44-3.33-51.06-8.04-12.41-3.62-24.81-8.26-35.27-16.04C7.21 134.42.5 125.58 1.8 115.57c1.27-5.28 4.06-10.1 7.95-13.88 8.13-7.87 18.52-12.87 29.01-16.79M1.85 284.05c6.12 11.18 17.35 18.22 28.67 23.28 17.51 7.72 36.46 11.61 55.4 13.81 20.35 2.2 40.95 2.18 61.31-.03-1.98 9.13-.65 18.55-1.01 27.82-.52 8.7.57 17.41-.16 26.11-.32 2.27.41 4.44 1.79 6.24-2.03.03-4.07.12-6.05.59-5.63 1.11-11.46-.2-17.06 1.12l-1.61.29c-8.26-14.94-16.2-30.05-24.41-45.01-1.16-2.29-2.38-4.54-3.68-6.75-7.93 15.98-15.95 31.91-23.89 47.88-15.38-2.8-30.69-6.81-44.74-13.78-7.64-3.92-15.06-8.82-20.23-15.8-2.91-3.98-4.53-8.89-4.38-13.83.07-17.31-.03-34.63.05-51.94m14.5 32.18c-3.72 2.61-2.81 9.35 1.6 10.73 4.57 2.11 10.06-3.29 8.03-7.91-.8-2.68-3.5-3.85-5.98-4.46-1.22.52-2.59.79-3.65 1.64m1.11 20.29c-4.32 1.82-5.01 8.37-1.06 10.96 3.69 3.1 9.74.12 10.08-4.53.63-4.63-4.81-8.66-9.02-6.43" />
  <path fill="#adadad"
    d="M139.98 73.7c5.51.47 11 1.16 16.47 1.95-1.41.67-2.82 1.34-4.23 2 8.01 8.36 16.67 16.11 24.34 24.81 7 5.96 12.91 13.06 19.66 19.29 6.69 6.48 12.7 13.69 20.04 19.46-2 1.36-4.05 2.65-6.16 3.84-4.74-2.05-7.8-6.32-11.44-9.76-19.9-19.71-39.43-39.8-59.46-59.37.2-.55.59-1.66.78-2.22" />
  <path fill="#9d9d9d"
    d="M156.45 75.65c15.29 2.2 30.45 5.9 44.66 12.01 8.87 3.9 17.58 8.84 24.03 16.21 4.39 5 7.19 11.92 5.63 18.59-1.76 8.06-8 14.16-14.51 18.75-7.34-5.77-13.35-12.98-20.04-19.46-6.75-6.23-12.66-13.33-19.66-19.29-7.67-8.7-16.33-16.45-24.34-24.81 1.41-.66 2.82-1.33 4.23-2" />
  <path fill="#406a32"
    d="M596.4 105.41c1.21-.35 3.11-1.33 4.02.1 5.41 7.48 9.45 15.86 14.79 23.39 8.29-6.23 16.22-12.93 24.17-19.6 3.17-3.15 6.97.94 9.9 2.46.19 2.08.41 4.16.82 6.21-1.99-.67-3.94-1.51-6.01-1.83-4.79 3.1-7.87 8.1-11.85 12.07-4.45 4.43-8.79 8.96-13.39 13.22-5.05-8.13-8.56-17.21-14.62-24.69-.73-.68-1.78-2.32-2.9-1.39-7.84 4.77-14.82 10.92-22.86 15.4 3.43-7.06 7.76-13.67 10.74-20.94l.24-.22.27-.24c1.98-1.67 4.25-3 6.68-3.94m-.73 111.3c11.61-7.23 22.66-15.41 34.39-22.42 6.07 2.26 11.01 6.78 16.52 10.13-.12 1.88.07 3.75.48 5.59-3.59-1.77-7.1-3.69-10.66-5.5-1.62-.76-3.69-1.99-5.18-.31-13.57 11.27-27.1 22.58-40.77 33.73-1.84-4.68-4.3-9.58-4.21-14.62 2.69-2.77 6.23-4.5 9.43-6.6m-91.14-3.08c.57-1.9 2.43-2.87 3.83-4.1.14.33.41.97.54 1.29-.35.29-1.05.88-1.4 1.17.36.72 1.09 2.15 1.45 2.87-2.35 8.26-3.11 16.87-5.3 25.17-6.31-5.22-11.36-11.78-17.74-16.92-2.16-1.46-4.37-2.97-6.87-3.77-1.96.74-3.53 2.19-5.14 3.49-5.57 4.77-11.3 9.37-16.85 14.18-1.34-2.45-2.21-5.11-2.79-7.83 7.38-4.58 14.54-9.51 21.85-14.19 1.31-1.21 2.81.11 4.03.76 6.45 4.34 13.09 8.41 19.34 13.05.14-.35.44-1.05.59-1.4 2.05-4.4 2.8-9.23 4.46-13.77M66.15 407.72c2.21-1.3 4.48-2.49 6.79-3.59 4.78 5.2 6.93 12.19 11.73 17.36 4.45-3.82 9.15-7.34 13.52-11.25 1.52-1.25 3.01-2.67 4.92-3.28 1.97.41 3.68 1.55 5.42 2.52-.14 1.48-.2 2.99.11 4.46-1.59-.23-3.49-1.73-4.87-.25-5.81 5.44-11.13 11.42-16.99 16.83-4.16-5.93-6.26-13.49-11.74-18.37-5.78 2.71-10.13 7.9-16.28 9.96 2.09-4.07 4.16-8.16 6.54-12.06.21-.58.64-1.75.85-2.33m22.43 63.87c2.06-1.39 4.06-2.94 6.42-3.78 4.13 1.67 7.51 4.7 11.27 7.03l-.72 3.54c-2.74-1.59-5.54-3.13-8.54-4.14-3.4 1.66-5.97 4.56-8.94 6.84-7.15 5.75-13.99 11.9-21.36 17.37-1.39-3.29-3.11-6.74-2.79-10.4 7.82-6.06 16.58-10.77 24.66-16.46" />
  <path fill="#a8b698" d="M589.21 109.81c.13-.11.38-.35.51-.46l-.27.24z" />
  <path fill="#3d612e"
    d="M649.28 111.76c7.56 4.08 14.99 8.42 22.68 12.25-.04-.67-.1-2-.14-2.66.15-2.62-.19-5.54 1.49-7.77 1.9 3.33 3.74 6.7 5.47 10.13-.92 7.86 1.23 15.67.98 23.55-4.01-2.22-6.71-6.02-10-9.08-6.28-6.1-12.22-12.53-18.71-18.4-.24-.45-.72-1.35-.95-1.81-.41-2.05-.63-4.13-.82-6.21M108.64 413.94c-.31-1.47-.25-2.98-.11-4.46 5.12 2.91 10.18 5.94 15.49 8.5-.08-1.26-.17-2.52-.25-3.77.36-1.34.72-2.68 1.08-4.01 1.52 2.46 2.93 4.98 4.17 7.59-.15 5.75.68 11.46.77 17.21-7.35-6.33-13.64-13.78-20.9-20.21z" />
  <path
    d="m0 116.13 1.8-.56c-1.3 10.01 5.41 18.85 13.15 24.36 10.46 7.78 22.86 12.42 35.27 16.04 16.62 4.71 33.84 7.04 51.06 8.04-.63.41-1.89 1.24-2.52 1.66-19.08-1.19-38.15-4.21-56.33-10.21-10.6-3.62-21.04-8.22-29.88-15.19-4.27-3.35-7.86-7.53-10.44-12.31.16 49.37.02 98.74.07 148.11-.01 6.17 3.63 11.65 7.83 15.88 6.96 6.87 15.8 11.44 24.75 15.16 20.11 8.05 41.73 11.64 63.25 13.17 16.45.84 32.99.76 49.37-1.13 2.46-.24 4.91-.61 7.37-.92 4.14-.59 8.25-1.33 12.37-2.07 2.92-.6 5.82-1.27 8.72-1.93 3.84-.93 7.62-2.04 11.4-3.2 2.6-.82 5.19-1.71 7.76-2.64 4.74-1.77 9.33-3.89 13.8-6.24 2.5-1.37 4.93-2.85 7.3-4.43-.11.57-.32 1.71-.43 2.28-4.81 3.35-10.13 5.87-15.46 8.25-4.57 1.94-9.27 3.53-13.99 5.04-6.25 1.95-12.63 3.41-19.03 4.75-6.6 1.35-13.29 2.22-19.96 3.07a285 285 0 0 1-61.31.03c-18.94-2.2-37.89-6.09-55.4-13.81-11.32-5.06-22.55-12.1-28.67-23.28-.08 17.31.02 34.63-.05 51.94-.15 4.94 1.47 9.85 4.38 13.83 5.17 6.98 12.59 11.88 20.23 15.8 14.05 6.97 29.36 10.98 44.74 13.78-.24.44-.71 1.33-.94 1.77-17.72-3.23-35.51-8.06-51.05-17.44-8.7-5.28-16.95-12.87-19.16-23.22z"
    opacity=".93" />
  <path fill="#538a3e"
    d="M601.33 115.35c1.12-.93 2.17.71 2.9 1.39 6.06 7.48 9.57 16.56 14.62 24.69 4.6-4.26 8.94-8.79 13.39-13.22 3.98-3.97 7.06-8.97 11.85-12.07 2.07.32 4.02 1.16 6.01 1.83.23.46.71 1.36.95 1.81 5.99 26.86 12.67 53.55 18.74 80.38 1.92 7.09 3.2 14.35 5.34 21.39l-.4 1.29c-9.34-6.2-18.76-12.3-28.15-18.42-5.51-3.35-10.45-7.87-16.52-10.13-11.73 7.01-22.78 15.19-34.39 22.42-3.2 2.1-6.74 3.83-9.43 6.6-.09 5.04 2.37 9.94 4.21 14.62 13.67-11.15 27.2-22.46 40.77-33.73 1.49-1.68 3.56-.45 5.18.31 3.56 1.81 7.07 3.73 10.66 5.5l.12.62c4.77 38.43 9.26 76.91 13.94 115.36.53 4.37.8 8.81 2.18 13.03l-.46.76c-7.73-5.72-14.44-12.8-22.5-18.1-2.39-1.53-4.55-3.38-6.75-5.15-3.85-3.26-7.82-6.38-11.63-9.68-.8-.69-1.64-1.33-2.49-1.93-4.56-2.75-8.43-6.43-12.58-9.71-17.59 9.68-35.07 19.56-52.64 29.27-2.86-.63-5.72-1.26-8.57-1.93 1.47-6.46 3.93-12.61 5.94-18.9 6.79-20.75 14.28-41.25 20.99-62.02 2.57-8.28 5.95-16.28 8.53-24.55 2.48-6.66-1.97-13.08-3.2-19.52-.92-4.62-2.15-9.18-3.96-13.53-2.51 1.06-5.1 2.23-6.62 4.61l-.45-.53c-.34.18-1 .53-1.33.71-8.28 3.68-16.27 8-24.5 11.79 12.4-23.32 24.92-46.58 37.39-69.86 8.04-4.48 15.02-10.63 22.86-15.4M451.08 181.4c4.62-1.49 7.99-5.18 12.29-7.29 2.9 4.25 5.5 8.68 7.98 13.18 5.33-3.05 7.94-8.99 12.82-12.52 1.6-.11 2.81 1 3.93 1.99 3.84 16.91 7.72 33.82 11.97 50.64-.15.35-.45 1.05-.59 1.4-6.25-4.64-12.89-8.71-19.34-13.05-1.22-.65-2.72-1.97-4.03-.76-7.31 4.68-14.47 9.61-21.85 14.19.58 2.72 1.45 5.38 2.79 7.83 5.55-4.81 11.28-9.41 16.85-14.18 1.61-1.3 3.18-2.75 5.14-3.49 2.5.8 4.71 2.31 6.87 3.77 2.34 16.94 3.96 33.98 6.24 50.93.73 4.67.46 9.54 2.31 13.99l-.42.89c-3.81-3.22-7.55-6.52-11.64-9.38-1.16-.88-2.27-1.81-3.37-2.75-1.93-1.69-3.98-3.21-6.07-4.68l-.47-.34c-2.45-1.75-4.75-3.68-6.99-5.67-10.69 5.69-21.17 11.78-31.8 17.58-.68-4.26 1.91-8.05 2.94-12.03 4.73-15.05 10.52-29.75 15.17-44.82 1.28-3.59-.17-7.28-.93-10.8-.55-2.07-1.04-4.18-2.04-6.08-1.33-.49-2.56.58-3.79.9-.34.26-1.01.77-1.34 1.03-3.99 2.07-8.05 4.02-12.08 6.01 6.31-12.25 12.96-24.33 19.45-36.49M58.76 422.11c6.15-2.06 10.5-7.25 16.28-9.96 5.48 4.88 7.58 12.44 11.74 18.37 5.86-5.41 11.18-11.39 16.99-16.83 1.38-1.48 3.28.02 4.87.25l.25.85c2.54 8.86 4.28 17.92 6.49 26.86 3.55 15.25 7.29 30.46 10.82 45.73-6.92-3.72-13.31-8.34-19.93-12.54-3.76-2.33-7.14-5.36-11.27-7.03-2.36.84-4.36 2.39-6.42 3.78-8.08 5.69-16.84 10.4-24.66 16.46-.32 3.66 1.4 7.11 2.79 10.4 7.37-5.47 14.21-11.62 21.36-17.37 2.97-2.28 5.54-5.18 8.94-6.84 3 1.01 5.8 2.55 8.54 4.14.37.33 1.1.99 1.47 1.33 3.02 29.32 7.4 58.52 10.09 87.87l-3.17-.63c-3.46-3.1-7.06-6.15-11.22-8.28l-.13-.32-.25-.21c-1.73-1.45-3.45-2.89-5.19-4.33-2.66-2.21-5.43-4.28-7.98-6.62-.87-.78-1.73-1.56-2.63-2.29-3.08-1.42-5.74-3.53-8.23-5.8-13.59 7.77-27.37 15.19-40.98 22.94-1.43.59-2.89 1.12-4.34 1.68l.09-1.27c7.71-19.64 13.55-39.94 20.66-59.8 2.43-6.34 4.46-12.82 6.65-19.24 1.62-4.64-1.52-9.02-2.3-13.49-.87-3.06-1.03-6.52-3.11-9.06-2.75 1.07-5.29 2.6-7.85 4.07l.22-.03c-5.28 2.24-10.28 5.05-15.49 7.45 8.91-16.78 17.93-33.5 26.9-50.24m108.04 65.47c5.08-4.31 10.18-8.6 15.31-12.85 6.77 3.96 9.84 11.67 15.71 16.63 2.31-4.41 3.89-9.14 5.76-13.74.5-.81.61-2.16 1.71-2.37 6.37 15.49 11.75 31.38 17.61 47.06.34.72.95 1.12 1.83 1.23 1.04 3.84 2.51 7.6 2.93 11.59l.11 1.2c-5.67-3.78-11.6-7.13-17.44-10.65-2-1.23-4.04-2.38-6.1-3.5-5.85 6.86-11.1 14.26-17.24 20.86-1.59-1.1-2.76-2.66-3.93-4.16-4.33-5.66-8.99-11.06-13.4-16.65-7.22 4.04-14.61 7.94-21.06 13.19-2.69-1.32-.76-3.99-.17-6.02 5.38-14.33 10.51-28.74 15.96-43.04.37.19 1.12.57 1.5.76.22.11.68.34.91.46" />
  <path fill="#4c7d3a"
    d="M651.05 119.78c6.49 5.87 12.43 12.3 18.71 18.4 3.29 3.06 5.99 6.86 10 9.08.25-7.88-1.9-15.69-.98-23.55 13.73 25.63 27.55 51.23 41.18 76.93-10.37-4.85-20.47-10.29-30.91-14.96-.88-.38-1.76-.75-2.64-1.09-3.46 12.4-7.23 24.73-11.28 36.96-2.14-7.04-3.42-14.3-5.34-21.39-6.07-26.83-12.75-53.52-18.74-80.38M488.1 176.76c4.92 4.72 9.38 9.94 14.69 14.24-.29-4.35-.49-8.7-.85-13.05 7.04 13.34 14.34 26.54 21.3 39.92-4.73-2.45-9.67-4.48-14.34-7.05-.13-.32-.4-.96-.54-1.29-1.4 1.23-3.26 2.2-3.83 4.1-1.66 4.54-2.41 9.37-4.46 13.77-4.25-16.82-8.13-33.73-11.97-50.64M108.89 414.79c7.26 6.43 13.55 13.88 20.9 20.21-.09-5.75-.92-11.46-.77-17.21 9.15 17.09 18.41 34.12 27.42 51.28.35-.45 1.04-1.34 1.39-1.78-.59 1.35-1.16 2.72-1.74 4.1-5.98-3.02-12.01-5.94-17.99-8.96-.18-1.59-2.83-2.96-3.44-.94-3.39 8.43-5.19 17.41-8.46 25.89-3.53-15.27-7.27-30.48-10.82-45.73-2.21-8.94-3.95-18-6.49-26.86" />
  <path fill="#a1a1a1"
    d="M217.97 141.99c5.27-3.69 9.76-8.46 12.82-14.14-.11 40.59.01 81.18-.06 121.77-2-.05-4.09-.63-6.03.02-2.39 1.62-4.17 3.96-6.32 5.86-.14-2.83-.43-5.65-.46-8.48.07-35.01.01-70.02.05-105.03" />
  <path fill="#fff"
    d="M2.11 127.96c2.58 4.78 6.17 8.96 10.44 12.31 8.84 6.97 19.28 11.57 29.88 15.19 18.18 6 37.25 9.02 56.33 10.21 17.52 1.15 35.14.54 52.56-1.59-2.12 3.93-1.71 8.42-1.61 12.72.33 1.61 1.45 2.95 2.19 4.4l-1.26-.01c-.56 0-1.69-.02-2.26-.03-.1 10.1.11 20.2-.11 30.29-2.37-1.05-4.54-3.27-7.21-3.25-5.49 2.61-10.53 6.11-15.9 8.96-1.8 1.17-4.72 2.05-4.3 4.78-.05 6.69-.09 13.38.02 20.07-.11 2.23 2.45 2.94 3.93 4.01 5.51 2.92 10.67 6.52 16.32 9.17.43-.02 1.28-.07 1.71-.09.18 1.63.35 3.27.51 4.91-1.91.77-4.91 1.31-4.67 4.02-.33 2.97 2.8 3.83 5.05 4.29-1.89 9.18-.03 18.61-1.25 27.86.33 7.07-.07 14.18.74 21.22 1.38.59 2.76 1.19 4.16 1.75-16.38 1.89-32.92 1.97-49.37 1.13-21.52-1.53-43.14-5.12-63.25-13.17-8.95-3.72-17.79-8.29-24.75-15.16-4.2-4.23-7.84-9.71-7.83-15.88-.05-49.37.09-98.74-.07-148.11M21.4 218.5c-1.37.62-1.1 2.29-1.18 3.51.03 8.32.06 16.63.04 24.94.12.95-.36 4.11 1.51 3.16 4.11-2.14 8.35-4.29 12.05-7.08 1.09-5.13-.23-10.55.64-15.73 1.93-1.67 4.32-2.69 6.54-3.91 2.49 1.8 7.5 2.53 6.76 6.59.14 4.35-.37 8.74.22 13.07 3.9 2.7 8.12 4.94 12.29 7.18.31-.14.94-.41 1.25-.55.14-10.09.35-20.23-.05-30.3-6.42-4.6-13.65-8.14-20.5-12.13-6.59 3.62-13.11 7.4-19.57 11.25m60.07-5.34.05.22c-3.16 1.55-6.12 3.49-9.27 5.07-1.07.92-1.84 2.06-1.56 3.55.12 7.12-.23 14.26.26 21.37 6.43 3.9 12.98 7.61 19.51 11.36l-.05.52c.98-.41 1.98-.8 2.97-1.19l.2-.36c3.54-1.75 6.89-3.85 10.36-5.72l-.01-.2c2.56-1.6 5.86-2.56 7.74-4.94-.1-7.9.73-15.91-.35-23.73-6.33-3.44-12.42-7.31-18.76-10.74l-.02-.5c-4.19.48-7.36 3.58-11.07 5.29m31.75 39.04c-5.12 2.83-10.12 5.89-15.23 8.75-1.56.96-3.8 1.94-3.64 4.14.02 7.17-.28 14.38.16 21.53 1.57 2.67 4.92 3.78 7.58 5.16 2.97 1.57 7.56-.14 7.62-3.82.25-7.13-.05-14.27.15-21.4l-3.24-.16c-.05 6.22-.02 12.44-.01 18.67-.12 1.41.33 3.62-1.66 3.82-2.85.21-5.09-2.06-7.49-3.28.08-6.93-.09-13.85.1-20.78 5.92-3.32 11.83-6.7 17.63-10.24 6.07 3.35 12 6.93 18.02 10.35.02 6.95.16 13.91-.08 20.86-5.94 3.12-11.56 6.84-17.5 9.93-1.92-.13-3.37-1.74-4.99-2.64-1.22.55-2.43 1.11-3.64 1.7 2.64 1.6 5.34 3.11 8.03 4.63 5.74-2.43 10.85-6.08 16.33-9.01 2.08-1.3 5.31-2.43 5-5.47-.08-6.96.24-13.95-.17-20.9-3.37-4.16-9.05-5.71-13.38-8.77-3.03-1.3-6.12-5.1-9.59-3.07m1.93 14.64c-3.56 1.27-4.32 7.07-.79 8.78 3.5 1.79 7.81.78 11.26 2.72.74 1.36-.05 3.14-1.61 3.39-3.45 1.08-8.76.94-9.62-3.45-1.05.03-2.1.07-3.14.12.18 6.82 8.59 7.95 13.73 6.31 3.82-.71 6.03-6 3.06-8.84-3.65-2.81-8.82-1.34-12.65-3.74-.08-1.55.58-2.47 1.96-2.75 3.16-.71 7.49-.64 8.39 3.22 1.03 0 2.06-.01 3.09-.01-.13-6.83-8.69-7.94-13.68-5.75M219.3 498.63c.1-77.03-.02-154.06.07-231.09 65.68 15.51 131.57 30.26 197.27 45.71.26 90.56 0 181.14.12 271.7-58.52-13.39-117-26.93-175.49-40.43-3.94-1.09-7.93-2-11.91-2.9-.68-1.72-1.45-3.43-1.59-5.29l-.11-1.2c-.42-3.99-1.89-7.75-2.93-11.59-.26-1.09-.78-3.28-1.03-4.37 1.5.97 2.99 1.96 4.48 2.97-2.4-5.7-4.79-11.4-7.23-17.08-.9-2.04-1.54-4.2-1.65-6.43m7.96-218.42c-.29 20.89-.19 41.8-.03 62.69 38.29 9.23 76.79 17.73 115.16 26.71 21.74 5.22 43.66 9.73 65.33 15.27.41-19.62-.01-39.26.22-58.89-.15-1.41.18-3.01-.6-4.26-2.86-1.21-5.99-1.52-8.98-2.23-39.75-9.34-79.6-18.31-119.36-27.6-17.27-3.82-34.41-8.18-51.74-11.69m6.57 96.75c-2.08 1.37-5.03 2.25-5.7 4.94 8.37-4.88 17.98-10.33 28-7.64 15.11 2.36 22.71 19.08 37.95 21.11 7.79 1.48 14.15-4.05 21.12-6.32 5.88-1.92 11.96.65 16.88 3.82 4.58 2.94 7.62 7.67 12.05 10.78 3.92 2.19 8.25 4.47 12.9 3.91 4.38-.36 8.25-2.62 12.16-4.44 4.31-2.1 9.47-2.28 13.98-.71 8.62 2.75 15.52 8.96 21.67 15.36-.29-1.14-.28-2.5-1.35-3.23-4.04-3.32-7.82-6.99-12.29-9.74-5.92-4-13.43-5.38-20.4-3.94-5.36 1.69-10.05 5.74-15.88 5.68-7.91-.97-14.13-6.61-19.42-12.13-6.13-6.43-16.31-9.4-24.5-5.25-5.9 2.75-12.45 6.75-19.14 4.5-13.28-3.19-20.45-17.15-33.81-20.22-8.16-2.25-16.98-.72-24.22 3.52m3 22.93c-3.08 1.71-6.74 2.9-8.91 5.82 1.26-.19 2.57-.36 3.65-1.11 4.47-2.67 9.17-5.35 14.4-6.05 4.99-.23 10.21-.57 14.91 1.46 9.43 3.47 15.66 11.93 24.26 16.74 5.13 3.06 11.31 3.52 17.08 2.41 4.44-1.39 8.29-4.21 12.8-5.45 6.16-2.61 12.92.7 17.95 4.3 6.53 5.91 13.21 14.42 22.99 13.62 7.29.47 12.95-5.41 20.01-6.14 3.45.17 6.8 1.2 10.05 2.32 7.66 3.14 13.19 9.61 19.82 14.25-7.48-8.47-16.96-16.74-28.74-17.61-7.75-.96-13.5 6.03-21.06 6.14-6.05.61-11.34-3.17-15.55-7.07-4.67-4.78-9.67-9.9-16.45-11.38-7.12-2.44-13.91 1.91-20.16 4.77-6.09 2.97-13.4 1.77-19.04-1.65-9.58-5.46-16.47-15.76-27.91-17.69-6.73-.23-13.91-.91-20.1 2.32m-2.09 25.85c-2.17 1.31-4.94 2.34-5.72 5.01 5.37-3 10.62-6.52 16.84-7.49 5.91-1.75 12.09-.14 17.62 2.11 7.5 3.4 12.82 10 19.67 14.4 3.97 2.96 8.93 4.29 13.79 4.78 7.67.21 13.79-5.44 21.04-6.98 7.04-.88 14.11 2.62 18.59 7.95 5.17 4.94 10.81 10.55 18.39 10.99 5.22.74 9.75-2.33 14.26-4.39 3.95-1.95 8.56-2.04 12.83-1.34 9.51 2.58 16.9 9.48 23.92 16.03-1.23-2.57-3.48-4.37-5.46-6.32-5.06-4.92-11.23-8.86-18.04-10.79-4.78-.36-10.09-1.15-14.36 1.58-5.05 2.29-10.67 5.51-16.33 3.42-8.27-1.84-12.6-9.88-19.32-14.26-6.37-4.91-15.73-5.58-22.66-1.46-5.36 2.83-11.64 5.87-17.73 3.53-12.4-2.89-19.02-15.67-31.03-19.33-8.6-3.31-18.33-1.64-26.3 2.56m-6.43 26.37c.02 21.09-.28 42.19.16 63.28 22.54 4.97 45.02 10.23 67.48 15.56.18-1.31.32-2.61.41-3.91-.03-18.35-.09-36.71.05-55.06-.1-1.48.32-3.33-1.14-4.3-22.31-5.2-44.67-10.29-66.96-15.57m90.19 30.43c-2.65 1.48-5.82 2.54-7.55 5.2 3.96-.97 7.06-3.85 10.89-5.15 5.4-2.01 11.37-3.87 17.09-2.16 10.48 1.51 17.53 10.02 25.65 15.9 6.65 5.3 16.46 7.17 24.23 3.34 5.52-3.01 11.54-5.72 18-5.13-.3-.27-.91-.81-1.21-1.08-6.51-.81-12.46 2.34-18.1 5.11-4.46 2.26-9.81 2.63-14.48.77-9.44-2.62-15.22-11.22-23.44-15.95-9.16-6.08-21.53-6.01-31.08-.85m-.47 24.57c-2.54 1.55-6.12 2.53-6.93 5.79 4.35-2.28 8.16-5.65 13.04-6.82 8.68-3 18.78-1.92 26.26 3.55 8.57 5.76 15.63 15.09 26.52 16.33 6.73 1.5 13.08-2.4 18.88-5.28 3.37-2.16 7.59-.32 11.1-1.98-1.4-.35-2.79-.67-4.19-.97-4.85.48-9.35 2.24-13.58 4.57-4.88 2.61-10.71 2.9-16.03 1.72-12.1-4.34-19.33-16.9-32.07-20-7.71-1.39-16.06-.86-23 3.09m-.19 24.87c-2.21 1.26-4.96 2.31-5.8 4.95 5.63-2.56 10.68-6.77 17.04-7.42 6.72-1.65 13.84.23 19.81 3.49 8.1 4.25 13.66 12.22 22.23 15.72 4.11 2.07 8.85 2.23 13.33 1.62 7.47-2.15 14.19-7.78 22.36-6.74-.28-.27-.85-.81-1.13-1.08-9.09-1.58-15.96 6.34-24.72 6.97-7.62.65-14.14-4.21-19.86-8.59-6.21-5.82-13.34-11.46-21.99-12.83-7.27-1.66-14.8.59-21.27 3.91m97.78-228.79c1.57-1.13 2.65 1.9 1.56 2.9-1.58 1.02-2.52-1.91-1.56-2.9m-5.78.81c3.12-1.45.06 3.28 0 0m26.63 6.24q.93.96 0 0m14.89 4.82c-1.48-1.13-2.51-5.22.57-4.14 1.08 1.47.48 2.9-.57 4.14m-33.25 120.95c77.77 17.67 155.45 35.83 233.19 53.65-.06 4.69-.05 9.39 0 14.08-6.76-1.41-13.43-3.17-20.19-4.52-45.35-10.65-90.78-20.96-136.16-31.49-25.61-5.75-51.11-12.05-76.79-17.5-.05-4.74 0-9.48-.05-14.22m.03 14.81c18.98 4.13 37.82 8.99 56.84 12.88l.87.52c58.53 13.21 116.97 26.89 175.45 40.37-.06 4.67-.05 9.35 0 14.03-61.39-14.28-122.81-28.46-184.25-42.49-12-2.98-24.1-5.55-36.13-8.42-4.11-.78-8.1-2.31-12.31-2.41-1.33-2.63-.34-5.55-.54-8.32-.19-2.06-.24-4.12.07-6.16m-.32 14.71c32.72 7.35 65.36 15.06 98.06 22.52 45.14 10.5 90.35 20.7 135.45 31.35-.08 38.24-.15 76.49.03 114.73-1.43 2.1-3.45 4.24-6.28 3.42-11.64-2.43-23.15-5.41-34.78-7.88-3.07-.74-6.13-1.55-9.23-2.07l-.67-.11c-1.7-.4-3.36-.91-5.05-1.26-59.15-13.76-118.35-27.28-177.51-41 .14-39.89.02-79.8-.02-119.7" />
  <path fill="#acacac"
    d="M206.26 148.96c4.06-2.04 8.03-4.29 11.71-6.97-.04 35.01.02 70.02-.05 105.03.03 2.83.32 5.65.46 8.48-.44 13.52-.07 27.04-.22 40.56-.69.55-1.38 1.1-2.06 1.66-2.37 1.58-4.8 3.06-7.3 4.43-1.26-1.43-2.19-3.13-1.93-5.1.33-22.22-.44-44.46.38-66.67 1.67-1 3.42-1.92 4.89-3.23.86-2.33.56-5 .24-7.43-1.8-1.7-4.07-2.79-6.17-4.05-.26-6.49 0-12.98.22-19.47-.61-11.74.49-23.5-.16-35.25-.1-4 .46-8-.01-11.99" />
  <path fill="#b8b8b8"
    d="M196.47 153.24c3.32-1.3 6.6-2.7 9.79-4.28.47 3.99-.09 7.99.01 11.99.65 11.75-.45 23.51.16 35.25-.22 6.49-.48 12.98-.22 19.47-3.39-1.92-6.74-3.9-10.09-5.87-.36-11.26-.17-22.51-.25-33.77.23-7.6-.49-15.24.6-22.79" />
  <path fill="#c7c6c6"
    d="M182.09 157.97c4.85-1.4 9.68-2.88 14.38-4.73-1.09 7.55-.37 15.19-.6 22.79.08 11.26-.11 22.51.25 33.77-1.37-.79-2.74-1.55-4.11-2.31-2.72 1.53-5.41 3.09-8.11 4.66-2.59-2.77-1.58-6.74-1.74-10.15-.02-14.68.14-29.36-.07-44.03m-14.9 160.07c6.4-1.34 12.78-2.8 19.03-4.75-.9 17.55.53 35.11-.03 52.66-.13 2.51.21 5 .6 7.47-7.54 2.31-15.2 4.27-22.99 5.52 1.2-.38 2.4-.81 3.6-1.22-.9-1.78-1.49-3.71-1.36-5.71.32-15.65.23-31.31.03-46.96.11-2.37.63-4.7 1.12-7.01" />
  <path fill="#d5d5d4"
    d="M172.89 160.3c3.08-.71 6.15-1.49 9.2-2.33.21 14.67.05 29.35.07 44.03.16 3.41-.85 7.38 1.74 10.15-2.15 1.23-4.29 2.47-6.45 3.67-1.14-.18-2.29-.36-3.43-.53-.22-14.45 0-28.9-.11-43.35-.09-3.59.24-7.17.44-10.75-.36-.22-1.09-.67-1.46-.89" />
  <path fill="#e1e1e1"
    d="M164.08 162.09c2.95-.55 5.87-1.19 8.81-1.79.37.22 1.1.67 1.46.89-.2 3.58-.53 7.16-.44 10.75.11 14.45-.11 28.9.11 43.35 1.14.17 2.29.35 3.43.53-2.01 1.17-4.14 2.21-5.89 3.77-.58 7.11-.11 14.29-.24 21.43-.53 2.96 2.73 3.78 4.67 5.07-1.4 1.27-2.33 2.9-2.08 4.85.1 19.01.01 38.03 0 57.04-.15 2.28.48 4.48 1.93 6.25-2.9.66-5.8 1.33-8.72 1.93-1.04-.98-3.04-1.48-3.06-3.16-.51-44.66.61-89.34-.12-134-.12-5.64.2-11.27.14-16.91" />
  <path fill="#ececec"
    d="M151.32 164.08c4.26-.61 8.52-1.22 12.76-1.99.06 5.64-.26 11.27-.14 16.91.73 44.66-.39 89.34.12 134 .02 1.68 2.02 2.18 3.06 3.16-4.12.74-8.23 1.48-12.37 2.07-1.5-7.66-.42-15.48-.71-23.22-.33-10.34.47-20.67-.05-31-.27-5.25.56-10.47.36-15.71 2.6-1.75 5.91-2.76 7.85-5.29.34-13.66.03-27.34.13-41-.11-4.65.31-9.32-.22-13.94-3.53-2.73-7.74-4.43-11.47-6.88l1.26.01c-.74-1.45-1.86-2.79-2.19-4.4-.1-4.3-.51-8.79 1.61-12.72" />
  <path fill="#3f6731"
    d="M455.92 171.68c1.58-1.11 3.08-2.52 5.05-2.87 4.11 2.92 5.66 8.15 8.54 12.13 4.84-3.12 8.68-7.58 13.63-10.54 5.36 1.75 9.82 5.49 15.04 7.63-.13-1.35-.27-2.69-.44-4.03l2.18.44c.71 1.14 1.39 2.31 2.02 3.51.36 4.35.56 8.7.85 13.05-5.31-4.3-9.77-9.52-14.69-14.24-1.12-.99-2.33-2.1-3.93-1.99-4.88 3.53-7.49 9.47-12.82 12.52-2.48-4.5-5.08-8.93-7.98-13.18-4.3 2.11-7.67 5.8-12.29 7.29 1.62-3.24 3.43-6.39 4.84-9.72" />
  <path fill="#8ba775" d="M455.54 171.8c.1-.03.29-.09.38-.12z" />
  <path fill="#333"
    d="M148.38 181.16c.57.01 1.7.03 2.26.03 3.73 2.45 7.94 4.15 11.47 6.88.53 4.62.11 9.29.22 13.94-.1 13.66.21 27.34-.13 41-1.94 2.53-5.25 3.54-7.85 5.29-3.86 2.23-7.75 4.41-11.51 6.8-.43.02-1.28.07-1.71.09-5.65-2.65-10.81-6.25-16.32-9.17-1.48-1.07-4.04-1.78-3.93-4.01-.11-6.69-.07-13.38-.02-20.07-.42-2.73 2.5-3.61 4.3-4.78 5.37-2.85 10.41-6.35 15.9-8.96 2.67-.02 4.84 2.2 7.21 3.25.22-10.09.01-20.19.11-30.29m-13.65 46.65c.01 2.64.02 5.28.08 7.92 2.31 1.27 4.61 2.58 6.95 3.8 2.11-1.37 4.28-2.63 6.51-3.8.06-2.63.07-5.27.08-7.9-2.14-1.27-4.21-2.69-6.48-3.72-2.64.46-4.77 2.49-7.14 3.7M21.4 218.5c6.46-3.85 12.98-7.63 19.57-11.25 6.85 3.99 14.08 7.53 20.5 12.13.4 10.07.19 20.21.05 30.3-.31.14-.94.41-1.25.55-4.17-2.24-8.39-4.48-12.29-7.18-.59-4.33-.08-8.72-.22-13.07.74-4.06-4.27-4.79-6.76-6.59-2.22 1.22-4.61 2.24-6.54 3.91-.87 5.18.45 10.6-.64 15.73-3.7 2.79-7.94 4.94-12.05 7.08-1.87.95-1.39-2.21-1.51-3.16.02-8.31-.01-16.62-.04-24.94.08-1.22-.19-2.89 1.18-3.51m162.5-6.35c2.7-1.57 5.39-3.13 8.11-4.66 1.37.76 2.74 1.52 4.11 2.31 3.35 1.97 6.7 3.95 10.09 5.87 2.1 1.26 4.37 2.35 6.17 4.05.32 2.43.62 5.1-.24 7.43-1.47 1.31-3.22 2.23-4.89 3.23-2.17 1.25-4.3 2.57-6.54 3.7-.5.13-1.48.4-1.97.54-.08-2.4-.12-4.79-.15-7.18-2.22-1.32-4.44-2.63-6.66-3.95-2.22 1.23-4.56 2.31-6.56 3.9-.92 2.4-.51 5.14-.31 7.66 4.35 3.35 9.49 5.52 14.14 8.43 2.03 1.16 4.04 2.36 6.03 3.59-3.54 3.21-8.11 4.85-12.04 7.48-2.68.48-4.79-1.49-7-2.62-3.39-1.97-6.78-3.93-10.2-5.84-1.94-1.29-5.2-2.11-4.67-5.07.13-7.14-.34-14.32.24-21.43 1.75-1.56 3.88-2.6 5.89-3.77 2.16-1.2 4.3-2.44 6.45-3.67m52.4 48.25c3.54-1.57 7.65 3.2 5.15 6.34-3.61 3.06-8.98-3.48-5.15-6.34m-.29 3.54c.41 2.27 3.14 3.39 5.04 2.07 1.63-2.58-1.3-4.22-3.05-5.52-.95.89-2.89 1.83-1.99 3.45m173.16 36.01c3.24-.18 4.38 2.77 3.86 5.56 1.03 1.78 1.28-2.42.94-2.67.91-1.21 2.11-1.74 3.62-1.12.29-.49.87-1.48 1.16-1.97.28 2.71.26 5.44.23 8.17-1.46-.16-3.01-.13-4.22-1.09-1.16-.01-2.32-.11-3.46-.29-1.66-.38-4.16-1.32-3-3.46.8-.09 2.41-.27 3.21-.35-.11-.37-.33-1.11-.45-1.47-.96.27-1.92.54-2.87.81.24-.53.73-1.59.98-2.12m6.45 3.24c-.96.99-.02 3.92 1.56 2.9 1.09-1 .01-4.03-1.56-2.9m-5.78.81c.06 3.28 3.12-1.45 0 0m22.57-1.04c.76 3.32.76 6.74.63 10.13-.42.13-1.25.39-1.67.53.94-3.49.72-7.11 1.04-10.66m2.02 3.96c1.7-1.35 3.49-.37 4.78 1-1.22-.21-2.44-.41-3.65-.62 1.11 1.54 4.24 2.27 3.26 4.62-1.48 1.62-3.2 0-4.41-1.01.33-1.32.3-2.67.02-3.99m2.04 3.32q.93.96 0 0m7.89-1.8c1.79-1.02 3.47 1.09 3.85 2.67-1.12-.59-2.23-1.2-3.32-1.81-.41 1.36-.24 2.77.03 4.15 1.19-.6 2.39-1.21 3.58-1.81.61-.87 1.16-2.48 2.51-2.21 2.38.5 4.14 3.86 2.16 5.76-1.46 1.84-5.23-.44-4.05-2.74-1.07.99-2.62 3.06-4.19 1.75-2.09-1.11-2.77-4.41-.57-5.76m7 6.62c1.05-1.24 1.65-2.67.57-4.14-3.08-1.08-2.05 3.01-.57 4.14m3.62-4.35c2.32.77 5.3.5 7.18 2.17.4 1.72 1.27 4.63-.89 5.47-.15-1.92-.22-3.85-.31-5.78-2.75.3-.41 4.06-2.68 5.11-.14-1.89-.25-3.79-.34-5.68-2.85.23-.87 3.68-2.6 5.1-.29-2.12-.34-4.26-.36-6.39m-14.82 1.24c1.62-.58 2.21-.06 1.76 1.58-1.61.54-2.19.01-1.76-1.58m-422.7 24.57c4.21-2.23 9.65 1.8 9.02 6.43-.34 4.65-6.39 7.63-10.08 4.53-3.95-2.59-3.26-9.14 1.06-10.96m-.09 1.62c-2.78 1.72-3.02 6.03-.43 8.03 2.75 2.48 7.82.58 8.1-3.15.84-4.04-4.34-7.31-7.67-4.88" />
  <path fill="#3e632f"
    d="M567.36 188.64c1.52-2.38 4.11-3.55 6.62-4.61 1.81 4.35 3.04 8.91 3.96 13.53-7.8 5.94-15.06 12.56-22.63 18.79-1.41 1.12-3.02 1.92-4.62 2.7 4.87-9.91 10.88-19.26 15.35-29.36.33-.26.99-.79 1.32-1.05m119.05-4.05c.88.34 1.76.71 2.64 1.09-.33.3-.99.91-1.31 1.21 2.28 3.27 3.87 6.94 5.62 10.51-.6-.01-1.8-.02-2.4-.03-2.52 11.83-4.53 23.77-6.89 35.64-.78 3.87-1.02 7.91-2.76 11.51-7.44-6.82-14.28-14.28-21.55-21.28-4.33-4.07-7.76-9.07-12.58-12.61l-.12-.62c-.41-1.84-.6-3.71-.48-5.59 9.39 6.12 18.81 12.22 28.15 18.42l.4-1.29c4.05-12.23 7.82-24.56 11.28-36.96m-241.36 26.26c1.23-.32 2.46-1.39 3.79-.9 1 1.9 1.49 4.01 2.04 6.08-3.81 3.1-7.34 6.58-11.38 9.38-.52 0-1.56.02-2.08.03 2.14-4.26 4.58-8.36 6.63-12.67zM47.13 464.93c2.56-1.47 5.1-3 7.85-4.07 2.08 2.54 2.24 6 3.11 9.06-4.21 3.49-8.39 7.03-12.55 10.59-2.2 1.85-4.27 3.99-7 5.05 3.52-7.07 7.55-13.86 11.08-20.93-.57.07-1.71.21-2.27.27zm79.07 22.45c3.27-8.48 5.07-17.46 8.46-25.89.2.29.58.89.78 1.19 1.37 2.04 2.49 4.24 3.53 6.47-2.98 4-2.72 9.24-3.85 13.89-1.45 6.6-2.02 13.43-4.12 19.86-2.73-1.45-4.53-4.07-6.74-6.14-5.8-5.63-11.39-11.47-17.24-17.05-.37-.34-1.1-1-1.47-1.33l.72-3.54c6.62 4.2 13.01 8.82 19.93 12.54" />
  <path fill="#adb79f" d="M565.58 188.82c.33-.18.99-.53 1.33-.71l.45.53c-.33.26-.99.79-1.32 1.05z" />
  <path fill="#4f813b"
    d="M690.96 197.37c.6.01 1.8.02 2.4.03 14.65 29.71 29.45 59.34 44.18 89.02 1.03 2.16 2.28 4.22 3.67 6.18 1.45.68 2.88 1.44 4.33 2.16-1.19.18-2.37.37-3.54.56 2.94 6.34 6.29 12.47 9.22 18.81-.51-.11-1.53-.31-2.04-.42-5.67-4.43-12.81-6.22-18.97-9.78-11.46-5.26-22.83-10.8-34.35-15.92-1.38-.24-1.89 1.31-2.52 2.18-4.74 8.47-10.12 16.54-15.06 24.88-5.09 7.93-9.63 16.19-14.98 23.95-1.38-4.22-1.65-8.66-2.18-13.03-4.68-38.45-9.17-76.93-13.94-115.36 4.82 3.54 8.25 8.54 12.58 12.61 7.27 7 14.11 14.46 21.55 21.28 1.74-3.6 1.98-7.64 2.76-11.51 2.36-11.87 4.37-23.81 6.89-35.64m-135.65 18.98c7.57-6.23 14.83-12.85 22.63-18.79 1.23 6.44 5.68 12.86 3.2 19.52-2.58 8.27-5.96 16.27-8.53 24.55-6.71 20.77-14.2 41.27-20.99 62.02-2.01 6.29-4.47 12.44-5.94 18.9-1.22-.3-2.42-.59-3.61-.88.08-6.24-.19-12.49.28-18.72.09-2.11.03-4.23-.13-6.34-.42-4.19-.17-8.4-.01-12.6l-.01-.3c-.06-2.56-.12-5.11-.16-7.67-1.78 1.04-3.56 2.07-5.35 3.06-8.93 5.15-17.84 10.37-26.49 15.98.15-.53.46-1.6.62-2.13l.25-.42c1.59-1.99 2.86-4.2 3.93-6.5 1.42-1.45 2.47-3.22 2.48-5.29l.04-.13c1.07-1.9 2.2-3.77 3.36-5.62 1.41-2.03 2.44-4.29 3.36-6.58-4.87-1.34-9.11-5.31-14.05-5.65-5.44 8.29-10.3 16.96-15.73 25.27-1.85-4.45-1.58-9.32-2.31-13.99-2.28-16.95-3.9-33.99-6.24-50.93 6.38 5.14 11.43 11.7 17.74 16.92 2.19-8.3 2.95-16.91 5.3-25.17 6.64 13.72 13.99 27.13 20.19 41.05q.735 2.31 1.8.21c6.11-12.58 13.18-24.71 19.75-37.07 1.6-.78 3.21-1.58 4.62-2.7m-115.81 9.06c4.04-2.8 7.57-6.28 11.38-9.38.76 3.52 2.21 7.21.93 10.8-4.65 15.07-10.44 29.77-15.17 44.82-1.03 3.98-3.62 7.77-2.94 12.03-.37.2-1.1.6-1.47.81.02-9.39 0-18.78.02-28.17-5.67 3.22-11.11 6.82-16.86 9.9 7.35-13.59 14.7-27.18 22.03-40.78.52-.01 1.56-.03 2.08-.03M163.81 465.36c.17-.15.52-.45.7-.59 1.2 5 .3 10.16.82 15.23.16 2.37.3 4.75.56 7.12-.38-.19-1.13-.57-1.5-.76-5.45 14.3-10.58 28.71-15.96 43.04-.59 2.03-2.52 4.7.17 6.02-.32.21-.98.63-1.31.84-2.23-1.05-4.61-2.64-7.19-2.01-7.54 12.08-14.79 24.36-22.37 36.42-1.25-1.26-2.5-2.51-3.79-3.72l3.17.63c-2.69-29.35-7.07-58.55-10.09-87.87 5.85 5.58 11.44 11.42 17.24 17.05 2.21 2.07 4.01 4.69 6.74 6.14 2.1-6.43 2.67-13.26 4.12-19.86 1.13-4.65.87-9.89 3.85-13.89 5.08 10.45 10.51 20.73 15.46 31.25 3.16-6.03 5.37-12.51 8.2-18.7 2.53-5.05 1.72-10.93 1.18-16.34M45.54 480.51c4.16-3.56 8.34-7.1 12.55-10.59.78 4.47 3.92 8.85 2.3 13.49-2.19 6.42-4.22 12.9-6.65 19.24-7.11 19.86-12.95 40.16-20.66 59.8-.1-7.81-.41-15.61-.29-23.41-.11-4.48.39-9.01-.46-13.45-7.54 4.57-15.08 9.13-22.68 13.6 9.45-17.97 19.22-35.77 28.89-53.63 2.73-1.06 4.8-3.2 7-5.05" />
  <path fill="#76af61"
    d="M81.47 213.16c3.71-1.71 6.88-4.81 11.07-5.29l.02.5c.02.36.05 1.06.07 1.42 1.13 2.76 3.45 5.13 3.74 8.18-.93 10-.28 20.06-.47 30.08-.04 2.11-1.46 3.81-2.32 5.65l-.2.36c-.99.39-1.99.78-2.97 1.19l.05-.52c.53-2.01-.95-3.71-1.77-5.4-2.49-4.18-4.74-8.49-6.93-12.83.55-7.66 1.22-15.54-.24-23.12z" />
  <path fill="#649c58"
    d="M92.63 209.79c-.02-.36-.05-1.06-.07-1.42 6.34 3.43 12.43 7.3 18.76 10.74-2.38 4.36-5.01 8.6-7.22 13.05-1.01 5.12-.2 10.43-.17 15.62l.01.2c-3.47 1.87-6.82 3.97-10.36 5.72.86-1.84 2.28-3.54 2.32-5.65.19-10.02-.46-20.08.47-30.08-.29-3.05-2.61-5.42-3.74-8.18" />
  <path
    d="M232.85 215.02c15.28-2.63 30.74-4.03 46.19-5.07 16.34.28 32.75-.81 49.02 1.18 12.23 1.28 24.63 3.12 36.12 7.67 5.11 2.29 11.61 5.71 11.63 12.13-1.04 5.2-5.71 8.35-9.72 11.25-8.58 6.75-17.22 13.43-25.86 20.11-4.43 3.22-8.37 7.1-13.16 9.81-28.66-6.67-57.35-13.24-86.02-19.86-2.69-.72-5.58-.94-8.08-2.21-.32-11.66-.02-23.34-.12-35.01m284.67 65.59c.44-2.23 1.85-4 3.36-5.62-1.16 1.85-2.29 3.72-3.36 5.62m139.64 132.5c59.24 8.48 118.47 16.93 177.72 25.24 2.06.36 4.09.92 6.12 1.46v3c-3.34 4.65-7.78 8.34-11.76 12.43-36.43 36.53-72.99 72.95-109.4 109.51-8.3 9.7-17.68 18.38-26.6 27.5-12.07 11.88-23.75 24.17-36.08 35.77-.36-23.33-.05-46.68-.16-70.02.1-48.3-.2-96.6.16-144.89"
    opacity=".05" />
  <path fill="#7f956c" d="M443.71 211.88c.33-.26 1-.77 1.34-1.03l-1 1.92z" />
  <path fill="#6dbe4a"
    d="M72.25 218.45c3.15-1.58 6.11-3.52 9.27-5.07 1.46 7.58.79 15.46.24 23.12-1.09-1.93-2.27-3.81-3.33-5.75-2.17-4.05-4.21-8.16-6.18-12.3" />
  <path fill="#579c4a"
    d="M70.69 222c-.28-1.49.49-2.63 1.56-3.55 1.97 4.14 4.01 8.25 6.18 12.3-2.37 4.28-4.55 8.69-7.48 12.62-.49-7.11-.14-14.25-.26-21.37" />
  <path fill="#448a41"
    d="M104.1 232.16c2.21-4.45 4.84-8.69 7.22-13.05 1.08 7.82.25 15.83.35 23.73-1.88 2.38-5.18 3.34-7.74 4.94-.03-5.19-.84-10.5.17-15.62" />
  <path fill="#fbfeff"
    d="M134.73 227.81c2.37-1.21 4.5-3.24 7.14-3.7 2.27 1.03 4.34 2.45 6.48 3.72-.01 2.63-.02 5.27-.08 7.9-2.23 1.17-4.4 2.43-6.51 3.8-2.34-1.22-4.64-2.53-6.95-3.8-.06-2.64-.07-5.28-.08-7.92" />
  <path fill="silver"
    d="M185.37 227.39c2-1.59 4.34-2.67 6.56-3.9 2.22 1.32 4.44 2.63 6.66 3.95.03 2.39.07 4.78.15 7.18.49-.14 1.47-.41 1.97-.54-.44 3.14-.95 6.27-1.51 9.4-4.65-2.91-9.79-5.08-14.14-8.43-.2-2.52-.61-5.26.31-7.66m2.62 1.61c.1 1.55-.02 3.13.37 4.65 1.11.84 2.35 1.51 3.56 2.22 1.3-.73 2.61-1.45 3.92-2.16.02-1.52.09-3.03-.03-4.53-1.04-1.07-2.4-1.77-3.8-2.23-1.43.51-2.71 1.32-4.02 2.05" />
  <path fill="#679f63"
    d="M187.99 229c1.31-.73 2.59-1.54 4.02-2.05 1.4.46 2.76 1.16 3.8 2.23.12 1.5.05 3.01.03 4.53-1.31.71-2.62 1.43-3.92 2.16-1.21-.71-2.45-1.38-3.56-2.22-.39-1.52-.27-3.1-.37-4.65" />
  <path fill="#3f863f"
    d="M78.43 230.75c1.06 1.94 2.24 3.82 3.33 5.75 2.19 4.34 4.44 8.65 6.93 12.83.82 1.69 2.3 3.39 1.77 5.4-6.53-3.75-13.08-7.46-19.51-11.36 2.93-3.93 5.11-8.34 7.48-12.62" />
  <path fill="#b9b9b9"
    d="M200.71 234.08c2.24-1.13 4.37-2.45 6.54-3.7-.82 22.21-.05 44.45-.38 66.67-.26 1.97.67 3.67 1.93 5.1-4.47 2.35-9.06 4.47-13.8 6.24-2.9-3.14-1.72-7.61-1.86-11.45.06-14.13 0-28.26.05-42.39 3.93-2.63 8.5-4.27 12.04-7.48-1.99-1.23-4-2.43-6.03-3.59.56-3.13 1.07-6.26 1.51-9.4" />
  <path fill="#d4d4d4"
    d="M173.91 250.94c-.25-1.95.68-3.58 2.08-4.85 3.42 1.91 6.81 3.87 10.2 5.84-.75.72-1.49 1.44-2.23 2.16.22 18.46-.43 36.95.28 55.4.99.51 1.99 1.02 3 1.54-3.78 1.16-7.56 2.27-11.4 3.2-1.45-1.77-2.08-3.97-1.93-6.25.01-19.01.1-38.03 0-57.04" />
  <path fill="#f6f6f6"
    d="M142.84 255.1c3.76-2.39 7.65-4.57 11.51-6.8.2 5.24-.63 10.46-.36 15.71.52 10.33-.28 20.66.05 31 .29 7.74-.79 15.56.71 23.22-2.46.31-4.91.68-7.37.92-1.4-.56-2.78-1.16-4.16-1.75-.81-7.04-.41-14.15-.74-21.22 1.22-9.25-.64-18.68 1.25-27.86.92-1.66 2.9-3.16 2.19-5.28-.77-1.08-1.69-2.04-2.57-3.03-.16-1.64-.33-3.28-.51-4.91" />
  <path fill="#619c5d"
    d="M113.22 252.2c3.47-2.03 6.56 1.77 9.59 3.07 4.33 3.06 10.01 4.61 13.38 8.77.41 6.95.09 13.94.17 20.9.31 3.04-2.92 4.17-5 5.47-5.48 2.93-10.59 6.58-16.33 9.01-2.69-1.52-5.39-3.03-8.03-4.63 1.21-.59 2.42-1.15 3.64-1.7 1.62.9 3.07 2.51 4.99 2.64 5.94-3.09 11.56-6.81 17.5-9.93.24-6.95.1-13.91.08-20.86-6.02-3.42-11.95-7-18.02-10.35-5.8 3.54-11.71 6.92-17.63 10.24-.19 6.93-.02 13.85-.1 20.78 2.4 1.22 4.64 3.49 7.49 3.28 1.99-.2 1.54-2.41 1.66-3.82-.01-6.23-.04-12.45.01-18.67l3.24.16c-.2 7.13.1 14.27-.15 21.4-.06 3.68-4.65 5.39-7.62 3.82-2.66-1.38-6.01-2.49-7.58-5.16-.44-7.15-.14-14.36-.16-21.53-.16-2.2 2.08-3.18 3.64-4.14 5.11-2.86 10.11-5.92 15.23-8.75" />
  <path fill="#c7c7c7"
    d="M186.19 251.93c2.21 1.13 4.32 3.1 7 2.62-.05 14.13.01 28.26-.05 42.39.14 3.84-1.04 8.31 1.86 11.45-2.57.93-5.16 1.82-7.76 2.64-1.01-.52-2.01-1.03-3-1.54-.71-18.45-.06-36.94-.28-55.4.74-.72 1.48-1.44 2.23-2.16" />
  <path fill="#eeedee"
    d="M219.45 257.23c.5-2.87 3.86-4.45 6.54-3.57 139.36 32.15 278.74 64.26 418.1 96.42 4.11.71 7.44 4.79 7.2 8.96.03 2.32-.02 4.63-.02 6.95a900839 900839 0 0 0-431.93-99.6c.01-3.05-.19-6.12.11-9.16m6.37.9-.57-.03c-2.06 3.52 1.12 7.44 4.91 7.24 3.59-2.89-.11-9.26-4.34-7.21m10.48 2.27c-3.83 2.86 1.54 9.4 5.15 6.34 2.5-3.14-1.61-7.91-5.15-6.34m10.04 2.76c-3.22 2.78 1.73 8.51 5.05 6.27 3.76-2.7-1.72-9.24-5.05-6.27m162.83 36.79c-.25.53-.74 1.59-.98 2.12.95-.27 1.91-.54 2.87-.81.12.36.34 1.1.45 1.47-.8.08-2.41.26-3.21.35-1.16 2.14 1.34 3.08 3 3.46 1.14.18 2.3.28 3.46.29 1.21.96 2.76.93 4.22 1.09.03-2.73.05-5.46-.23-8.17-.29.49-.87 1.48-1.16 1.97-1.51-.62-2.71-.09-3.62 1.12.34.25.09 4.45-.94 2.67.52-2.79-.62-5.74-3.86-5.56m10.68 3.17c1.04.5 2.09.98 3.16 1.46-.74 1.26-3 2.04-2.73 3.73 1.38.45 2.81.8 4.22 1.18a40 40 0 0 0 .13-1.01c-.78-.11-2.34-.34-3.12-.45 1.13-1.44 2.26-2.87 3.31-4.38-1.66-.23-3.32-.43-4.97-.53m12.56-.16c-.32 3.55-.1 7.17-1.04 10.66.42-.14 1.25-.4 1.67-.53.13-3.39.13-6.81-.63-10.13m-4.66 7.34c1.1.82 2.14-.58 3.05-.98-2.16.59-3.63.04-4.39-1.65 1.57 0 3.14-.03 4.72-.1-.49-.75-1.47-2.25-1.97-3 .07.6.2 1.79.27 2.39q-3.54.42-1.68-3.39c-2.66 1.35-2.87 5.59 0 6.73m6.68-3.38c.28 1.32.31 2.67-.02 3.99 1.21 1.01 2.93 2.63 4.41 1.01.98-2.35-2.15-3.08-3.26-4.62 1.21.21 2.43.41 3.65.62-1.29-1.37-3.08-2.35-4.78-1m9.93 1.52c-2.2 1.35-1.52 4.65.57 5.76 1.57 1.31 3.12-.76 4.19-1.75-1.18 2.3 2.59 4.58 4.05 2.74 1.98-1.9.22-5.26-2.16-5.76-1.35-.27-1.9 1.34-2.51 2.21-1.19.6-2.39 1.21-3.58 1.81-.27-1.38-.44-2.79-.03-4.15 1.09.61 2.2 1.22 3.32 1.81-.38-1.58-2.06-3.69-3.85-2.67m10.62 2.27c.02 2.13.07 4.27.36 6.39 1.73-1.42-.25-4.87 2.6-5.1.09 1.89.2 3.79.34 5.68 2.27-1.05-.07-4.81 2.68-5.11.09 1.93.16 3.86.31 5.78 2.16-.84 1.29-3.75.89-5.47-1.88-1.67-4.86-1.4-7.18-2.17m-14.82 1.24c-.43 1.59.15 2.12 1.76 1.58.45-1.64-.14-2.16-1.76-1.58m-212.9-31.74c17.33 3.51 34.47 7.87 51.74 11.69 39.76 9.29 79.61 18.26 119.36 27.6 2.99.71 6.12 1.02 8.98 2.23.78 1.25.45 2.85.6 4.26-.23 19.63.19 39.27-.22 58.89-21.67-5.54-43.59-10.05-65.33-15.27-38.37-8.98-76.87-17.48-115.16-26.71-.16-20.89-.26-41.8.03-62.69m190.5 33.23c67.06 15.36 134.09 30.88 201.14 46.34 10.81 2.27 21.46 5.35 32.36 7.16.07 6.51-.03 13.01.06 19.52-77.78-18.3-155.77-35.76-233.54-54.11-.15-6.31.68-12.62-.02-18.91M228.31 452.11c22.29 5.28 44.65 10.37 66.96 15.57 1.46.97 1.04 2.82 1.14 4.3-.14 18.35-.08 36.71-.05 55.06-.09 1.3-.23 2.6-.41 3.91-22.46-5.33-44.94-10.59-67.48-15.56-.44-21.09-.14-42.19-.16-63.28" />
  <path fill="#8da678" d="M529.14 255.91c.45.05 1.35.16 1.8.21q-1.065 2.1-1.8-.21" />
  <path fill="#77211c"
    d="m225.25 258.1.57.03c.77.05 2.32.16 3.1.21 2.07 1.9 2.07 4.47 1.24 7-3.79.2-6.97-3.72-4.91-7.24" />
  <path fill="#b5ccaf"
    d="M138.68 264.03c-.24-2.71 2.76-3.25 4.67-4.02.88.99 1.8 1.95 2.57 3.03.71 2.12-1.27 3.62-2.19 5.28-2.25-.46-5.38-1.32-5.05-4.29m2.04 1.67c.01-.61.05-1.83.07-2.44-1.48-.56-1.55 2.8-.07 2.44m3.33-2.39c-1.51 3.06 3.25.17 0 0m-1.99 1.98c-1.54 3.01 3.29.15 0 0" />
  <path fill="#e3a525"
    d="M236.01 263.94c-.9-1.62 1.04-2.56 1.99-3.45 1.75 1.3 4.68 2.94 3.05 5.52-1.9 1.32-4.63.2-5.04-2.07" />
  <path fill="#f4f7f3" d="M140.72 265.7c-1.48.36-1.41-3 .07-2.44-.02.61-.06 1.83-.07 2.44" />
  <path fill="#f6f7f6" d="M144.05 263.31c3.25.17-1.51 3.06 0 0" />
  <path fill="#295529" d="M246.34 263.16c3.33-2.97 8.81 3.57 5.05 6.27-3.32 2.24-8.27-3.49-5.05-6.27" />
  <path fill="#474747"
    d="M510.19 262.76c4.94.34 9.18 4.31 14.05 5.65-.92 2.29-1.95 4.55-3.36 6.58-1.51 1.62-2.92 3.39-3.36 5.62l-.04.13c-2.31.75-3.15 3.06-2.48 5.29-1.07 2.3-2.34 4.51-3.93 6.5-.06.07-.17.22-.22.29l-.03.13c-.16.53-.47 1.6-.62 2.13 8.65-5.61 17.56-10.83 26.49-15.98 1.67 1.73 3.55 3.22 5.51 4.61l.01.3c-3.11.28-6.19.74-9.25 1.35.11 1.09.24 2.18.37 3.28 2.84 2.79 5.46 5.87 8.89 7.97.16 2.11.22 4.23.13 6.34-6.14.26-12.28 0-18.41.14-3.71-.13-6.32 2.9-9.35 4.54-3.22 1.77-6.05 4.3-9.55 5.51-6.91-1.6-13.81-3.25-20.73-4.8-.8-9.59-1.77-19.18-1.91-28.8 4.09 2.86 7.83 6.16 11.64 9.38l.42-.89c5.43-8.31 10.29-16.98 15.73-25.27m-37.7 9.01.47.34c.01 1.82-.07 3.64-.14 5.46-.65 3-.87 6.07-.72 9.14-.04.24-.13.73-.17.98-.91 3.94-1.03 8-.86 12.04-.02.31-.07.93-.1 1.24-.11 1.34-.21 2.7-.3 4.06-8.67-1.67-17.22-3.89-25.84-5.81.02-.72.06-2.16.07-2.88-5.49-1.38-11.33-1.47-16.6-3.6 7.65-2.81 15.68-4.48 23.32-7.3 6.75-3.02 13.64-5.69 20.3-8.89zm220.85 18.42c.63-.87 1.14-2.42 2.52-2.18 11.52 5.12 22.89 10.66 34.35 15.92 6.16 3.56 13.3 5.35 18.97 9.78 0 .74.02 2.22.03 2.95 2.34 1.44 4.45 3.21 6.27 5.27-5.19.06-10.25 1.49-15.45 1.27l.12 2.27c-.46.07-1.37.22-1.83.29-5.47.23-10.93-.33-16.38-.08-1.98-.17-3.15 1.63-4.46 2.76-1.81 1.9-3.87 3.6-5.33 5.8-1.9 9.01-3.82 18.03-5.68 27.05 1.72.34 3.46.69 5.2 1.02 11.19 2.12 22.34 4.41 33.52 6.63-11.87-.96-23.36-4.66-35.15-6.15-6.01 2.82-11.24 7.01-16.87 10.5-5.82 3.44-11.36 7.33-17.15 10.83-6.88-2.75-13.74-5.52-20.63-8.24-.23-7.59.5-15.24-.35-22.77-1.52-6.14-8.24-7.54-13.53-8.68-.07-2.81-.15-5.63-.43-8.42-.63-4.75-.91-9.54-.74-14.33 8.06 5.3 14.77 12.38 22.5 18.1l.46-.76c5.35-7.76 9.89-16.02 14.98-23.95 4.94-8.34 10.32-16.41 15.06-24.88m-103.19 27.86c9.74-4.45 19.93-7.95 29.32-13.13.85.6 1.69 1.24 2.49 1.93-.5 10.91-1.57 21.78-2.35 32.68-17.87-4.14-35.75-8.24-53.62-12.37 4.6-.57 8.84-2.57 13.32-3.68 2.98-2.87 7.24-3.6 10.84-5.43"
    opacity=".38" />
  <path fill="#e3e9e0" d="M142.06 265.29c3.29.15-1.54 3.01 0 0" />
  <path fill="#629d5e"
    d="M115.15 266.84c4.99-2.19 13.55-1.08 13.68 5.75-1.03 0-2.06.01-3.09.01-.9-3.86-5.23-3.93-8.39-3.22-1.38.28-2.04 1.2-1.96 2.75 3.83 2.4 9 .93 12.65 3.74 2.97 2.84.76 8.13-3.06 8.84-5.14 1.64-13.55.51-13.73-6.31 1.04-.05 2.09-.09 3.14-.12.86 4.39 6.17 4.53 9.62 3.45 1.56-.25 2.35-2.03 1.61-3.39-3.45-1.94-7.76-.93-11.26-2.72-3.53-1.71-2.77-7.51.79-8.78" />
  <path fill="#80592a"
    d="M472.96 272.11c2.09 1.47 4.14 2.99 6.07 4.68-.19 8.76-.1 17.53.06 26.3-1.16-1.07-2.36-2.07-3.54-3.08-1.94 1.42-3.21 3.62-1.91 5.95q-1.47-.39-2.91-.78c.07-1.41.15-2.81.24-4.21.03-.31.08-.93.1-1.24 1.31-3.9.93-8.02.86-12.04.04-.25.13-.74.17-.98 1.3-2.9.9-6.08.72-9.14.07-1.82.15-3.64.14-5.46m149 34.74c3.81 3.3 7.78 6.42 11.63 9.68-1.43 8.64.2 17.42-.77 26.11-4.41-1.04-8.81-2.06-13.21-3.11.78-10.9 1.85-21.77 2.35-32.68M89.17 547.19c2.55 2.34 5.32 4.41 7.98 6.62-.31 11.43.09 22.87-.07 34.3-1.42.07-2.83.08-4.24.04-1.19-.13-2.39-.24-3.59-.31-.93-1.21-1.88-2.4-2.83-3.58.85-12.36 1.81-24.71 2.75-37.07" />
  <path fill="#735026"
    d="M479.03 276.79c1.1.94 2.21 1.87 3.37 2.75.14 9.62 1.11 19.21 1.91 28.8-1.3-.3-2.58-.59-3.86-.87-.45-1.47-.9-2.93-1.36-4.38-.16-8.77-.25-17.54-.06-26.3m153.79 65.85c.97-8.69-.66-17.47.77-26.11 2.2 1.77 4.36 3.62 6.75 5.15-.17 4.79.11 9.58.74 14.33.23 2.85.26 5.71.31 8.57-2.87-.62-5.72-1.26-8.57-1.94M97.15 553.81c1.74 1.44 3.46 2.88 5.19 4.33l-.02.33c-.68 9.29 1.25 18.5 1.25 27.79-2.16.61-4.31 1.29-6.49 1.85.16-11.43-.24-22.87.07-34.3" />
  <path fill="#513b22" d="M472.1 286.71c-.15-3.07.07-6.14.72-9.14.18 3.06.58 6.24-.72 9.14" opacity=".66" />
  <path fill="#2e4025" d="M515 286.03c-.67-2.23.17-4.54 2.48-5.29-.01 2.07-1.06 3.84-2.48 5.29" opacity=".53" />
  <path fill="#4f3c27" d="M471.07 299.73c-.17-4.04-.05-8.1.86-12.04.07 4.02.45 8.14-.86 12.04" opacity=".61" />
  <path fill="#1d2119" d="M510.85 292.82c.05-.07.16-.22.22-.29l-.25.42z" opacity=".24" />
  <path fill="#ababaa"
    d="M215.67 300c.63-.42 1.89-1.27 2.52-1.69.01 19.98-.07 39.97.04 59.96-4.5 3.55-9.49 6.43-14.7 8.81-1.12-.28-2.24-.54-3.36-.79-.07-19.35-.11-38.69.04-58.04 5.33-2.38 10.65-4.9 15.46-8.25" />
  <path fill="#a77437"
    d="M473.64 305.96c-1.3-2.33-.03-4.53 1.91-5.95 1.18 1.01 2.38 2.01 3.54 3.08.46 1.45.91 2.91 1.36 4.38-2.28-.5-4.55-.97-6.81-1.51" />
  <path fill="#b7b7b7"
    d="M186.22 313.29c4.72-1.51 9.42-3.1 13.99-5.04-.15 19.35-.11 38.69-.04 58.04 1.12.25 2.24.51 3.36.79-5.45 2.42-11.01 4.63-16.74 6.34-.39-2.47-.73-4.96-.6-7.47.56-17.55-.87-35.11.03-52.66" />
  <path fill="#295328"
    d="M15.32 319.45c.55-2.27 2.94-3.02 4.68-4.16 2.24.95 4.44 2.32 5.5 4.63.58 3.59-2.97 7.12-6.55 6.55-2.66-1.04-4.89-4.15-3.63-7.02" />
  <path fill="#d7d7d7"
    d="M147.23 321.11c6.67-.85 13.36-1.72 19.96-3.07-.49 2.31-1.01 4.64-1.12 7.01.2 15.65.29 31.31-.03 46.96-.13 2 .46 3.93 1.36 5.71-1.2.41-2.4.84-3.6 1.22-4.52.9-9.08 1.55-13.65 2.14l-2.3.2c-1.38-1.8-2.11-3.97-1.79-6.24.73-8.7-.36-17.41.16-26.11.36-9.27-.97-18.69 1.01-27.82m86.6 55.85c7.24-4.24 16.06-5.77 24.22-3.52 13.36 3.07 20.53 17.03 33.81 20.22 6.69 2.25 13.24-1.75 19.14-4.5 8.19-4.15 18.37-1.18 24.5 5.25 5.29 5.52 11.51 11.16 19.42 12.13 5.83.06 10.52-3.99 15.88-5.68 6.97-1.44 14.48-.06 20.4 3.94 4.47 2.75 8.25 6.42 12.29 9.74 1.07.73 1.06 2.09 1.35 3.23-6.15-6.4-13.05-12.61-21.67-15.36-4.51-1.57-9.67-1.39-13.98.71-3.91 1.82-7.78 4.08-12.16 4.44-4.65.56-8.98-1.72-12.9-3.91-4.43-3.11-7.47-7.84-12.05-10.78-4.92-3.17-11-5.74-16.88-3.82-6.97 2.27-13.33 7.8-21.12 6.32-15.24-2.03-22.84-18.75-37.95-21.11-10.02-2.69-19.63 2.76-28 7.64.67-2.69 3.62-3.57 5.7-4.94m3 22.93c6.19-3.23 13.37-2.55 20.1-2.32 11.44 1.93 18.33 12.23 27.91 17.69 5.64 3.42 12.95 4.62 19.04 1.65 6.25-2.86 13.04-7.21 20.16-4.77 6.78 1.48 11.78 6.6 16.45 11.38 4.21 3.9 9.5 7.68 15.55 7.07 7.56-.11 13.31-7.1 21.06-6.14 11.78.87 21.26 9.14 28.74 17.61-6.63-4.64-12.16-11.11-19.82-14.25-3.25-1.12-6.6-2.15-10.05-2.32-7.06.73-12.72 6.61-20.01 6.14-9.78.8-16.46-7.71-22.99-13.62-5.03-3.6-11.79-6.91-17.95-4.3-4.51 1.24-8.36 4.06-12.8 5.45-5.77 1.11-11.95.65-17.08-2.41-8.6-4.81-14.83-13.27-24.26-16.74-4.7-2.03-9.92-1.69-14.91-1.46-5.23.7-9.93 3.38-14.4 6.05-1.08.75-2.39.92-3.65 1.11 2.17-2.92 5.83-4.11 8.91-5.82m-2.09 25.85c7.97-4.2 17.7-5.87 26.3-2.56 12.01 3.66 18.63 16.44 31.03 19.33 6.09 2.34 12.37-.7 17.73-3.53 6.93-4.12 16.29-3.45 22.66 1.46 6.72 4.38 11.05 12.42 19.32 14.26 5.66 2.09 11.28-1.13 16.33-3.42 4.27-2.73 9.58-1.94 14.36-1.58 6.81 1.93 12.98 5.87 18.04 10.79 1.98 1.95 4.23 3.75 5.46 6.32-7.02-6.55-14.41-13.45-23.92-16.03-4.27-.7-8.88-.61-12.83 1.34-4.51 2.06-9.04 5.13-14.26 4.39-7.58-.44-13.22-6.05-18.39-10.99-4.48-5.33-11.55-8.83-18.59-7.95-7.25 1.54-13.37 7.19-21.04 6.98-4.86-.49-9.82-1.82-13.79-4.78-6.85-4.4-12.17-11-19.67-14.4-5.53-2.25-11.71-3.86-17.62-2.11-6.22.97-11.47 4.49-16.84 7.49.78-2.67 3.55-3.7 5.72-5.01m83.76 56.8c9.55-5.16 21.92-5.23 31.08.85 8.22 4.73 14 13.33 23.44 15.95 4.67 1.86 10.02 1.49 14.48-.77 5.64-2.77 11.59-5.92 18.1-5.11.3.27.91.81 1.21 1.08-6.46-.59-12.48 2.12-18 5.13-7.77 3.83-17.58 1.96-24.23-3.34-8.12-5.88-15.17-14.39-25.65-15.9-5.72-1.71-11.69.15-17.09 2.16-3.83 1.3-6.93 4.18-10.89 5.15 1.73-2.66 4.9-3.72 7.55-5.2m-.47 24.57c6.94-3.95 15.29-4.48 23-3.09 12.74 3.1 19.97 15.66 32.07 20 5.32 1.18 11.15.89 16.03-1.72 4.23-2.33 8.73-4.09 13.58-4.57 1.4.3 2.79.62 4.19.97-3.51 1.66-7.73-.18-11.1 1.98-5.8 2.88-12.15 6.78-18.88 5.28-10.89-1.24-17.95-10.57-26.52-16.33-7.48-5.47-17.58-6.55-26.26-3.55-4.88 1.17-8.69 4.54-13.04 6.82.81-3.26 4.39-4.24 6.93-5.79m-.19 24.87c6.47-3.32 14-5.57 21.27-3.91 8.65 1.37 15.78 7.01 21.99 12.83 5.72 4.38 12.24 9.24 19.86 8.59 8.76-.63 15.63-8.55 24.72-6.97.28.27.85.81 1.13 1.08-8.17-1.04-14.89 4.59-22.36 6.74-4.48.61-9.22.45-13.33-1.62-8.57-3.5-14.13-11.47-22.23-15.72-5.97-3.26-13.09-5.14-19.81-3.49-6.36.65-11.41 4.86-17.04 7.42.84-2.64 3.59-3.69 5.8-4.95" />
  <path fill="#978346"
    d="M738.32 325.76c.46-.07 1.37-.22 1.83-.29 4.38-.03 8.76.14 13.15.1 3.59 4.35 7.81 8.14 11.37 12.53-2.24.4-4.48.77-6.71 1.14-4.08-4.01-7.51-8.62-11.36-12.82-2.72-.56-5.53-.5-8.28-.66" />
  <path fill="#6f5f32"
    d="M717.48 328.44c1.31-1.13 2.48-2.93 4.46-2.76 5.45-.25 10.91.31 16.38.08 2.75.16 5.56.1 8.28.66 3.85 4.2 7.28 8.81 11.36 12.82 1.8 2.23 2.89 4.91 3.34 7.73-5.8-2.09-10.89-6.54-17.41-5.96-3.75-.21-7.73-1.3-11.27.5-6 2.68-12.36 4.69-18.08 7.89-1.87 4.04-2.13 8.58-2.87 12.91-1.74-.33-3.48-.68-5.2-1.02 1.86-9.02 3.78-18.04 5.68-27.05 1.46-2.2 3.52-3.9 5.33-5.8" />
  <path fill="#f0638f"
    d="M417.78 333.95c18.61 3.75 37.03 8.48 55.58 12.56 59.33 13.76 118.71 27.32 178.03 41.12-.09 4.43-.05 8.85-.03 13.28-77.79-17.69-155.48-35.9-233.26-53.63.16-4.45-.35-8.89-.32-13.33m.35 13.82c77.72 18.04 155.49 35.89 233.24 53.82-.05 4.77-.05 9.54.01 14.31-77.82-17.57-155.48-35.97-233.3-53.56.05-4.86 0-9.72.05-14.57" />
  <path fill="#e3a425"
    d="M17.37 338.14c3.33-2.43 8.51.84 7.67 4.88-.28 3.73-5.35 5.63-8.1 3.15-2.59-2-2.35-6.31.43-8.03" />
  <path fill="#87743d"
    d="M764.67 338.1c4.13 7.62 7.81 15.51 11.46 23.38-9.89 2.98-19.98 5.37-30.08 7.5-.57-3.3-1.01-6.62-1.08-9.97-.09-6.02-1.18-11.98-1.08-18 6.52-.58 11.61 3.87 17.41 5.96-.45-2.82-1.54-5.5-3.34-7.73 2.23-.37 4.47-.74 6.71-1.14" />
  <path fill="#937f43"
    d="M732.62 341.51c3.54-1.8 7.52-.71 11.27-.5-.1 6.02.99 11.98 1.08 18 .07 3.35.51 6.67 1.08 9.97l-.86-.04c-11.18-2.22-22.33-4.51-33.52-6.63.74-4.33 1-8.87 2.87-12.91 5.72-3.2 12.08-5.21 18.08-7.89" />
  <path fill="#fefad2"
    d="M418.1 363.06c77.8 17.53 155.44 35.87 233.21 53.56-.05 4.69-.06 9.39.01 14.09-69.28-16-138.57-31.95-207.85-47.94-8.45-1.67-16.72-4.39-25.27-5.46-.14-4.75-.04-9.5-.1-14.25" />
  <path fill="#b0d6f2"
    d="M418.1 377.79c40.31 8.89 80.47 18.52 120.73 27.66 37.49 8.71 75.03 17.23 112.51 26-.07 4.53-.03 9.05-.05 13.58-77.78-17.63-155.44-35.81-233.18-53.63.01-4.54.02-9.08-.01-13.61" />
  <path fill="#fbced1"
    d="M418.11 392.11c77.76 17.78 155.42 35.99 233.21 53.62q-.06 6.99 0 13.98c-66.04-15.47-132.2-30.5-198.28-45.82-11.6-2.51-23.07-5.64-34.75-7.75-.33-4.67-.11-9.36-.18-14.03" />
  <path fill="#52873d"
    d="M186.84 403.13c7.92 17.89 15.3 36.02 23.04 54 2.71 6.09 4.9 12.42 8.1 18.29.02.33.04 1.01.06 1.35-3.49-2.07-6.9-4.29-10.58-6-.1-.05-.3-.16-.4-.21l.03.14c-1.03-1.33-2.34-2.38-3.79-3.21-2.67 5.01-5.36 10.01-8.25 14.89-4.81-3.27-8.5-7.83-12.92-11.55-1.11-1.11-2.68-.09-3.78.45-4.5 2.66-8.74 5.73-13.02 8.72-.52-5.07.38-10.23-.82-15.23-.18.14-.53.44-.7.59-2.25 2.13-5.32 3.64-6.52 6.66-.3-.16-.9-.48-1.2-.63.58-1.38 1.15-2.75 1.74-4.1 9.55-21.44 19.5-42.7 29.01-64.16" />
  <path fill="#c9e5c3"
    d="M417.78 406.57c42.47 9.5 84.82 19.54 127.26 29.21 35.43 8.31 70.98 16.16 106.35 24.68-.16 4.53-.06 9.06-.09 13.59-40.49-8.97-80.84-18.61-121.28-27.82-37.41-8.6-74.81-17.27-112.22-25.86.03-4.6.05-9.2-.02-13.8m-283.12 54.92c.61-2.02 3.26-.65 3.44.94-.29-.03-.89-.07-1.18-.09-.37.08-1.11.25-1.48.34-.2-.3-.58-.9-.78-1.19" />
  <path fill="#a0b190" d="M63.98 408.77c.55-.26 1.63-.79 2.17-1.05-.21.58-.64 1.75-.85 2.33z" />
  <path fill="#dadde1"
    d="M417.79 421.22c65.12 14.59 130.08 29.96 195.15 44.79 12.8 2.86 25.51 6.2 38.38 8.67-.05 4.73-.04 9.46 0 14.2-69.64-15.89-139.22-32.06-208.84-48.09-8.24-1.74-16.37-4.07-24.68-5.46.05-4.7.06-9.41-.01-14.11" />
  <path fill="#416a32"
    d="M203.3 467.49c1.45.83 2.76 1.88 3.79 3.21 1.31 4.74 3.56 9.15 5.39 13.7 1.85 4.13 3.26 8.48 5.53 12.42l1.29 1.81c.11 2.23.75 4.39 1.65 6.43 2.44 5.68 4.83 11.38 7.23 17.08-1.49-1.01-2.98-2-4.48-2.97.25 1.09.77 3.28 1.03 4.37-.88-.11-1.49-.51-1.83-1.23-5.86-15.68-11.24-31.57-17.61-47.06-1.1.21-1.21 1.56-1.71 2.37-1.87 4.6-3.45 9.33-5.76 13.74-5.87-4.96-8.94-12.67-15.71-16.63-5.13 4.25-10.23 8.54-15.31 12.85-.23-.12-.69-.35-.91-.46-.26-2.37-.4-4.75-.56-7.12 4.28-2.99 8.52-6.06 13.02-8.72 1.1-.54 2.67-1.56 3.78-.45 4.42 3.72 8.11 8.28 12.92 11.55 2.89-4.88 5.58-9.88 8.25-14.89" />
  <path fill="#9cb088" d="M207.06 470.56c.1.05.3.16.4.21l-.37-.07z" />
  <path fill="#416831"
    d="M148.6 535.42c6.45-5.25 13.84-9.15 21.06-13.19 4.41 5.59 9.07 10.99 13.4 16.65 1.17 1.5 2.34 3.06 3.93 4.16 6.14-6.6 11.39-14 17.24-20.86 2.06 1.12 4.1 2.27 6.1 3.5-.11.83-.35 2.48-.47 3.31-1.28-.24-2.56-.47-3.83-.7-5.83 7.97-10.52 16.73-16.53 24.59-5.55-8.21-10.45-16.99-17.48-24.05-.82-1.15-1.89-.12-2.66.45-6.96 5.62-13.92 11.25-21.03 16.67-.13-.73-.38-2.2-.51-2.94-.66 1.04-1.32 2.08-1.95 3.15 1.02-2.78 2.16-5.51 3.01-8.34-.4-.39-1.19-1.17-1.59-1.56.33-.21.99-.63 1.31-.84" />
  <path fill="#414141"
    d="M32.33 525.59c.85 4.44.35 8.97.46 13.45-.12 7.8.19 15.6.29 23.41l-.09 1.27c1.45-.56 2.91-1.09 4.34-1.68 2.62 1.72 5.76.22 8.48-.4 4.22-1.46 8.63-2.38 12.76-4.1 9.09-4.71 18.89-7.89 27.97-12.64.9.73 1.76 1.51 2.63 2.29-.94 12.36-1.9 24.71-2.75 37.07.95 1.18 1.9 2.37 2.83 3.58-15.59 1.44-31.07 4.29-46.69 5.41 1.72-6.66 3.91-13.18 5.54-19.87-8.6-1.29-17.22-2.65-25.66-4.73 3.38-1.36 6.93-2.16 10.46-3a317 317 0 0 1-.57-40.06m85.4 45.08c7.58-12.06 14.83-24.34 22.37-36.42 2.58-.63 4.96.96 7.19 2.01.4.39 1.19 1.17 1.59 1.56-.85 2.83-1.99 5.56-3.01 8.34-7.73 17.4-14.79 35.09-22.48 52.51 1.37.46 2.75.96 4.13 1.44-1.93.32-3.87.54-5.78.89.41-.84.83-1.66 1.25-2.48-10.16-3.13-19.47-9.02-30.15-10.37 1.41.04 2.82.03 4.24-.04 2.18-.56 4.33-1.24 6.49-1.85 0-9.29-1.93-18.5-1.25-27.79l.4.2c4.16 2.13 7.76 5.18 11.22 8.28 1.29 1.21 2.54 2.46 3.79 3.72m116.56 6.03c6.68 2.68 10.78 9.15 17.09 12.48.21.37.65 1.12.86 1.49a70 70 0 0 0-5.54-.76c.42 1.87 1.34 3.55 2.45 5.11-.82 1.4-2.5 2.74-1.77 4.56.95 6.06 6.19 9.93 9.95 14.33-3.28 1.06-6.68 1.63-9.97 2.63-1.97.73-2.29 3.07-2.84 4.82-.94 3.89-2.17 7.7-3.55 11.45-8.8-1.77-17.61-3.47-26.39-5.33-4.37-1.03-8.33 1.76-12.44 2.74-8.37 2.09-16.32 5.56-24.72 7.54-3.77-5.02-8.3-9.46-11.8-14.68-11.02 1.45-22.16 1.03-33.25.95 6.25-4.98 13.14-9.09 19.82-13.44-.49-2.13-1.85-3.84-3.32-5.39 4.21-1.32 8.56-2.17 12.69-3.7.11-.24.33-.74.44-.99 2.72 4.54 5.39 9.15 7.58 13.98 4.32-3.4 7.42-8.2 12.21-10.97.2 7.95-.68 15.86-1.24 23.78 3.6 2.15 7.76 1.6 11.7 1.16 2.01-3.97.16-8.34.23-12.51-.04-7.18-1.04-14.3-1.38-21.46 2.56-3.12 6.05-5.27 8.78-8.22 7.96 5.31 16 10.48 23.95 15.81 2.86 2.09 5.8 4.08 8.97 5.69l1.37 1.05c.21-10.71-.01-21.42.12-32.12"
    opacity=".35" />
  <path fill="#3b5e2c"
    d="M210.33 525.68c5.84 3.52 11.77 6.87 17.44 10.65.14 1.86.91 3.57 1.59 5.29 3.98.9 7.97 1.81 11.91 2.9l-2.63.48c-2.74-.6-5.48-1.22-8.22-1.78 1.25 2.75 2.52 5.5 3.66 8.31.34 3.62 1.19 7.16 1.94 10.71-3.58-2.88-5.99-6.83-8.83-10.38-5.02-6.44-9.68-13.16-15.07-19.3-.75-1.2-1.51-2.39-2.26-3.57.12-.83.36-2.48.47-3.31" />
  <path fill="#4c7a38"
    d="M212.12 532.56c5.39 6.14 10.05 12.86 15.07 19.3 2.84 3.55 5.25 7.5 8.83 10.38-.75-3.55-1.6-7.09-1.94-10.71 5.92 12.48 11.34 25.19 17.3 37.65-6.31-3.33-10.41-9.8-17.09-12.48-.13 10.7.09 21.41-.12 32.12l-1.37-1.05c-.29-5.76-2.61-11.09-4.03-16.61-3.65-12.34-7.21-24.69-10.87-37.02-1.83-7.23-4.82-14.16-5.78-21.58" />
  <path fill="#a1ac98" d="m102.34 558.14.25.21.13.32-.4-.2z" />
  <path fill="#7c562a"
    d="M181.79 603.52c3.19-2.91 6.42-5.82 9.31-9.03.34 7.16 1.34 14.28 1.38 21.46-.07 4.17 1.78 8.54-.23 12.51-3.94.44-8.1.99-11.7-1.16.56-7.92 1.44-15.83 1.24-23.78" />
  <path fill="#031808"
    d="M610.3 629.67c11.63 2.47 23.14 5.45 34.78 7.88 2.83.82 4.85-1.32 6.28-3.42l.04 2.32c-.87.89-1.79 1.73-2.72 2.55h-5.29c-12.03-3.66-24.48-5.71-36.62-8.97 1.17-.13 2.35-.25 3.53-.36"
    opacity=".77" />
</svg>