<svg xmlns="http://www.w3.org/2000/svg" viewBox="0 0 650 650">
  <path fill="#fff"
    d="M211.99 105.99c1.99-2.35 5.22-3.12 8.16-3.22 7.53 2.95 14.53 7.1 21.8 10.63 3.84 1.52 5.68 5.47 8.05 8.56 7.36 10.16 14.17 20.7 21.37 30.97 1.15 1.48.33 3.47-.62 4.82-7.95 11.83-18.41 21.62-28.03 32.04-7.9 7.41-15.74 14.91-24.31 21.57-3.38 3.33-7.89 4.89-12.43 5.82-3.92.3-8.57.46-11.56-2.55-4.25-4.41-7.69-9.58-12.38-13.57-3.81 1.32-7.09 3.72-10.81 5.23-5.82 2.78-12.45 5.24-15.9 11.09-2.01 3.26-4.9 6.65-4.53 10.71 1.89 4.97 6.25 8.46 8.89 12.98 1.2 3.12-.08 6.53-.84 9.6-4.38 11.37-10.13 22.15-14.74 33.43-6.15 16-11.77 32.21-16.62 48.66-1.5 4.97-3.06 10.43-7.5 13.62-5.58-2.15-10.51-5.6-15.54-8.78-12.42-7.35-24.13-15.84-36.39-23.47-1.71-1.25-4.44-2.57-4.2-5.05 2.96-12.29 7.89-24.02 11.12-36.24 5.08-15.34 9.64-30.97 16.87-45.48 2.26-4.68 4.44-9.58 8-13.43 1.2-1.87 3.44-1.05 5.26-1.11 5.02.42 10.09 1.22 15.11.47 3.64-1.37 6.3-4.38 8.63-7.37 5.09-6.63 10.17-13.28 14.85-20.2 7.32-8.51 13.36-18.01 20.42-26.73 14.48-18.93 30.81-36.38 47.87-53m218.17-.62c2.46-1.4 5.32-.02 7.72.84 5.39 4.52 10.11 9.79 15.06 14.79 16.14 16.34 30.89 34.01 44.42 52.57 3.44 4.88 7.07 9.64 10.94 14.2 3.82 5.74 8.05 11.19 12.17 16.72 3.21 4.06 6.22 8.84 11.26 10.8 6.25.86 12.53-.39 18.77-.72 3.89 2.94 5.91 7.52 8.17 11.7 9.34 18.53 15.08 38.56 21.21 58.3 3.07 9.08 6.12 18.17 8.49 27.46-2.56 3.65-6.85 5.41-10.41 7.9-9.96 6.38-19.61 13.28-29.81 19.28-5.26 3.28-10.36 6.93-16.18 9.18-4.94-3.57-6.25-9.81-8-15.27-4.59-15.65-10.03-31.04-15.82-46.28-4.69-11.76-10.81-22.9-15.22-34.77-.73-3.1-2.04-6.66-.33-9.66 2.81-4.15 6.77-7.66 8.6-12.4.34-4.02-2.59-7.36-4.54-10.6-3.44-5.87-10.1-8.33-15.92-11.13-3.71-1.52-7.01-3.88-10.8-5.21-4.49 3.83-7.88 8.7-11.85 13.02-2.93 3.49-7.94 3.44-12.09 3.1-3.51-.96-7.26-1.61-10.14-4-12.25-9.66-23.87-20.15-34.41-31.66-7.95-8.32-16.1-16.7-21.93-26.7 7.82-11.93 15.92-23.69 24.18-35.33 1.61-2.16 3.07-4.68 5.67-5.77 6.93-3.46 13.72-7.19 20.79-10.36m-197.7 126.12c17.16-13.13 32.39-28.57 46.72-44.7 11.83 16.68 25.3 32.11 37.33 48.63 3.23 4.97 7.09 9.6 9.47 15.07 2.6-5.87 6.78-10.84 10.26-16.19 11.94-16 24.8-31.28 36.6-47.37 14.56 16.15 29.8 31.85 47.23 44.93 2.7 1.74 5.88 2.32 8.98 2.95-8.68 10.45-17.2 21.03-25.22 32-3.74 4.01-6.37 8.91-10.25 12.8-8.08 11.47-17.03 22.29-25.74 33.27-.78.89-1.75 1.44-2.92 1.64-1.02 3.15-4.47 4.97-4.85 8.3 7.1 8.97 13.83 18.24 20.69 27.4 3.86 4.2 6.86 9.1 10.5 13.49 11.05 14.89 22.57 29.41 34.44 43.65 7.55 8.31 14.51 17.15 21.6 25.84 7.3 7.45 13.64 15.79 21.19 23.01 8.68 8.73 19.07 15.66 26.8 25.34 2.35 3.17 5.31 5.93 7.13 9.48 1.4 2.81 1.32 6.04.51 9.02-1.48 8.14-5.98 15.35-10.83 21.91-4.74 5.9-11.19 11.3-19.08 11.71-4.8.01-10.44.06-13.8-3.97-6.05-6.77-11.49-14.14-16.05-21.99-3.87-4.91-6.47-10.71-10.49-15.5-4.39-7.37-10.35-13.64-15.53-20.44-20.64-24.39-40.16-49.7-61.32-73.66-.08-.54-.23-1.62-.31-2.16-2.41-.4-3.58-2.75-5.1-4.39-4.68-5.91-9.99-11.27-14.7-17.15-2.91-3.98-6.63-7.25-9.74-11.06-3.15 3.8-6.79 7.15-9.79 11.08-4.49 5.75-9.71 10.88-14.22 16.62-1.7 1.76-2.92 4.4-5.53 4.91l-.24 2.08c-9.29 10.15-17.7 21.05-26.69 31.45-15.25 19.35-31.53 37.88-46.66 57.33-7.31 10.19-13.72 21.01-20.82 31.35-3.88 4.75-7.1 10.26-12.15 13.89-6.59 2.64-14.48 2.17-20.65-1.44-8.63-5.71-14.3-14.8-18.41-24.1-1.67-5.24-3.92-11.42-.71-16.53 5.19-7.35 11.24-14.08 17.92-20.11 8.95-7.27 17.53-15.07 25-23.87 4.13-4.05 7.39-8.89 11.65-12.83 7.24-8.91 14.42-17.91 22.1-26.45 19.87-23.64 38.06-48.61 56.86-73.1 2.5-3.71 5.47-7.06 7.98-10.75.03-.44.07-1.3.09-1.74-1.76-2.07-3.5-4.15-4.69-6.62-1.18-.2-2.14-.74-2.88-1.63-8.42-10.6-17.05-21.05-24.9-32.09-12.43-15.12-23.49-31.39-36.59-46 3.41-.56 6.92-1.28 9.81-3.31" />
</svg>