<svg xmlns="http://www.w3.org/2000/svg" viewBox="0 0 650 421">
  <path fill="#818181"
    d="M231 0h.33c7.69 6.03 17.66 8.42 25.55 14.1 9.33 12.42 17.76 25.49 26.57 38.27-1.59 5.13-5.94 8.78-9 13.07-5.53 7.64-13.24 13.3-19.01 20.72-2.54 2.9-5.9 4.93-8.49 7.79-5.57 5.95-12.11 10.85-18.38 16.01-5.28 4.41-12.63 5.94-19.27 4.31-5.14-4.67-9.09-10.42-14.04-15.27-4.35.17-7.98 2.73-11.77 4.55-3.87 1.98-7.88 3.69-11.63 5.9-2.68 1.66-4.39 4.4-6.22 6.88-1.66 3.42-4.27 6.97-3.13 10.99 2.37 4.49 5.92 8.22 8.94 12.28.07 3.46-.17 6.99-1.6 10.2-4.41 10.77-9.79 21.11-14.18 31.88-3.67 10.11-7.77 20.09-10.72 30.44-.11-.69-.32-2.07-.43-2.76-9.01-8.88-17.97-17.82-26.84-26.84-2.4-1.12-4.85-2.38-7.58-2.25-8.49-.06-16.98-.05-25.46.04 4.34-13.74 8.79-27.44 13.44-41.08.3-.4.91-1.19 1.21-1.59 1.24-5.37 4.24-10.06 6.53-15.01 1.84-3.96 4.32-7.58 7.12-10.91 1.69-.16 3.38-.33 5.07-.52 5.16.82 10.41.62 15.61.51 3.74-2.55 6.88-5.87 9.46-9.57 10.69-14.55 21.66-28.88 32.45-43.36 9.01-11.97 19.1-23.04 29.01-34.24 7.59-7.59 15.16-15.19 22.78-22.75 1.21-.06 2.42-.13 3.64-.19zm191.87 0h.13c.01.4.02 1.19.03 1.59 1.22.07 2.45.15 3.68.22 7.45 7.39 14.83 14.83 22.26 22.24 7.05 7.92 14.19 15.77 20.95 23.97 8.3 10.22 16.05 20.87 24 31.37 8.35 10.27 15.14 21.82 24.46 31.3 5.66 1.89 11.79 1.16 17.61.51 1.68.19 3.37.36 5.06.52 6.22 7.56 10.42 16.67 13.59 25.87.31.42.93 1.26 1.24 1.69 1.16 4.56 3.07 8.87 4.61 13.31 2.95 9.24 5.89 18.48 8.85 27.72-11.47-.1-22.94-.07-34.41-.05-2.74-.12-5.21 1.12-7.61 2.24-6.81 7.23-14.23 13.87-20.84 21.29-3.11-8.05-5.75-16.28-9.05-24.26-5.15-12.6-12.34-24.44-15.64-37.74 1.96-4.69 5.49-8.43 8.73-12.26.55-2.2 1.6-4.51.93-6.81-1.84-4.96-5.16-9.2-8.64-13.11-6.16-2.92-12.22-6.05-18.31-9.11-1.77-.97-3.79-1.23-5.75-1.51-4.96 4.85-8.91 10.6-14.05 15.27-6.64 1.66-13.98.11-19.26-4.29-6.1-5.02-12.47-9.78-17.91-15.54-3.1-3.34-7.21-5.61-9.99-9.26-5.1-6.75-12.05-11.83-17.13-18.61-3.5-4.55-8.07-8.74-9.85-14.28 8.28-12.11 16.46-24.31 24.96-36.28 1.82-2.95 5.11-4.25 8.1-5.66l1.69-1.21c4.24-1.54 8.19-3.74 12.16-5.87 1.92-.86 3.7-2 5.4-3.26" />
  <path fill="#5b3c21"
    d="M232.58 117.51c17.14-13.05 32.26-28.49 46.58-44.53 10.51 14.6 22.02 28.42 33 42.66-9.05.02-18.11.01-27.17-.01-2.84-.03-5.97.27-8.09 2.39-2.86 2.42-3.09 6.5-3.12 9.98.08 19.35-.04 38.69.06 58.04-9-11.91-18.05-23.78-27.29-35.52-7.53-10.14-15.36-20.05-23.58-29.64 3.33-.66 6.79-1.34 9.61-3.37m102.43 4.75c12.1-16.79 25.74-32.42 37.8-49.26 13.57 15.18 27.84 29.8 43.86 42.43 3.36 3.18 7.81 4.78 12.32 5.46-12.98 14.93-24.41 31.1-36.77 46.53-2.87 3.74-5.52 7.65-8.54 11.28-.77.78-1.49 1.93-2.74 1.76-9.32.15-18.64-.04-27.96.05-2.79.11-5.94.4-7.99 2.52-2.34 2.31-2.5 5.85-2.56 8.94.02 8.35.03 16.69 0 25.04.04 3.12.01 6.78 2.51 9.06 2.33 2.4 5.92 2.72 9.09 2.75 7.08.02 14.16-.1 21.24.05 4.9 6.92 10.52 13.32 15.32 20.31.79 1.26-.26 2.42-1.1 3.27-8.89 9.1-18.11 17.89-26.51 27.45-1.97 2.05-3.8 4.51-6.68 5.29-.28-1.04-.55-2.07-.82-3.09-1.71-1.13-3.31-2.43-4.57-4.05-6.82-8.55-14.6-16.36-21.08-25.14-.37-40-.05-80.03-.16-120.04-.23-4.26 3.3-7.24 5.34-10.61m208.05 107.73c2.61-3.07 5.79-5.6 8.93-8.13-3.05 3.37-6.8 6.25-9.14 10.15-.58 5.67.07 11.39-.36 17.08-1.05-4.62-.68-9.38-.64-14.07.15-1.7-.09-3.69 1.21-5.03M226 293.94c14.6-17.8 29.02-35.79 42.38-54.53 1.77 1.52 3.57 3.03 5.41 4.47-.08 10.73.22 21.49-.12 32.21-6.04 7.05-13.32 13.01-19.16 20.26-8.72-.03-17.43-.05-26.15.01zM47.52 276.57c3.45-.6 6.95-.78 10.45-.67 15.49.27 30.99-.27 46.48.25-.05 3.79.33 7.62-.33 11.38-.86 2.31-3.39 3.29-5.36 4.47 1.81-1.77 3.6-3.55 5.41-5.31-.01-3.35-.01-6.71.01-10.06-18.89-.02-37.78.1-56.66-.06M417 297.82c2.36-2.14 4.59-4.41 6.81-6.69 1.82 2.39 3.86 4.6 6.07 6.65-4.3-.08-8.59-.09-12.88.04m-226.53 37.34c2.74 2.73 5.3 5.65 8.25 8.17 3.08 2.72 7.41 2.89 11.31 2.9 11.5-.06 23-.04 34.5-.02-10.8 12.48-21.5 25.17-30.29 39.18-6.83 10.34-13.11 21.17-21.62 30.27-2.91 3.49-7.88 3.22-11.62 5.34h-1.29c-4.01-2.5-9.02-2.92-12.65-6.06-7.36-5.79-12.49-13.95-16.13-22.47-1.85-5.33-4.05-11.87-.36-16.94 5.3-7.54 11.6-14.35 18.51-20.43 7.58-6.14 14.82-12.71 21.39-19.94m216.97 11.04c21.65-.01 43.31-.02 64.96.01 10.9 9.09 22.01 18.4 29.69 30.5 2.79 4.97.56 10.76-1.04 15.73-3.55 8.31-8.51 16.28-15.58 22.05-3.79 3.4-9.02 4.16-13.4 6.51h-1.33c-3.54-2.41-8.58-1.74-11.38-5.33-13.02-14.12-21.23-31.8-33.15-46.77-6.17-7.63-12.16-15.43-18.77-22.7" />
  <path fill="#6c2820"
    d="M282.19 123.85c13.09.04 26.17 0 39.26.02.04 71.32-.05 142.64.05 213.96-12.34-.04-24.67-.03-37 0 .07-7.72.08-15.43-.01-23.14-7.76 7.62-15.46 15.31-23.08 23.08-18.86.1-37.71 0-56.57.05-10.23-10.33-20.4-20.72-30.65-31.03 0-28.28 0-56.57-.01-84.85-.1-1.34.2-2.68 1.32-3.52 9.88-9.88 19.7-19.83 29.57-29.71 19.68-.02 39.36.02 59.05-.02 6.09 5.07 11.93 10.43 18.05 15.47.05-26.77.01-53.54.02-80.31m-57.23 98.26c-3.86 3.86-7.65 7.79-11.51 11.65.12 19.63-.22 39.29.17 58.91 3.37 4.26 7.55 7.83 11.2 11.87 11.04-.02 22.09.07 33.13-.05 7.87-8.54 16.19-16.63 24.28-24.96-.06-13.03-.07-26.05 0-39.08-6.82-6.05-13.66-12.09-20.36-18.28-12.3-.1-24.61.01-36.91-.06M3.9 218.93c10.07-10.02 20.04-20.15 30.06-30.23 25.62.01 51.23.01 76.85 0 10.69 10.71 21.3 21.49 32 32.2.04 38.99-.08 77.98.06 116.97-11.83-.12-23.65-.06-35.48-.03.08-7.06.1-14.12-.02-21.18-7.68 6.75-14.83 14.07-22.21 21.15-19.04-.01-38.08.01-57.12 0-9.09-9.23-18.35-18.28-27.41-27.53.06-11.35 0-22.71.03-34.06 9.21-9.15 18.36-18.34 27.53-27.51 25.34 0 50.69-.01 76.03 0-.04-6.35-.05-12.69 0-19.03-3.11-3.13-6.23-6.24-9.34-9.37-15.22.08-30.45-.24-45.66.17-2.58 3.36-6.06 5.93-8.54 9.35-.29 2.66-.11 5.34-.07 8.02-12.93.29-25.88.26-38.81.02.09-5-.1-10 .05-15-.19-1.64 1.01-2.87 2.05-3.94m43.62 57.64c-2.64 2.81-5.38 5.5-8.11 8.22.01 5.12-.03 10.25.04 15.37 2.51 2.41 4.97 4.87 7.4 7.36 11.86.02 23.72 0 35.59.01 5.36-5.26 10.89-10.34 16.32-15.53 1.97-1.18 4.5-2.16 5.36-4.47.66-3.76.28-7.59.33-11.38-15.49-.52-30.99.02-46.48-.25-3.5-.11-7 .07-10.45.67m303.14-87.86c43.69-.02 87.39.03 131.09-.03-.02 10.2 0 20.39-.01 30.59-24.47 25.04-48.61 50.41-73.03 75.49-3.4 3.71-7.16 7.1-10.16 11.14 27.73.19 55.46.03 83.19.08.04 10.63-.07 21.25.06 31.88-44.73-.11-89.45-.03-134.18-.04.05-10.12.06-20.23 0-30.35 27.87-28.94 55.93-57.71 83.63-86.81-26.87-.23-53.74-.05-80.61-.09.03-10.62 0-21.24.02-31.86m152.52 31.05c10.32-10.33 20.57-20.73 30.89-31.06 27.99.01 55.98.01 83.96.01 10.42 10.41 20.84 20.84 31.26 31.25v56.44c-35.61-.01-71.23.01-106.85-.01.05 6.52-.05 13.05.07 19.58 3.27 3.17 6.36 6.51 9.55 9.75 16.37-.03 32.74-.01 49.11-.01 3.04-3.1 6.08-6.21 9.11-9.32-.02-2.59-.03-5.18-.04-7.76 12.87.03 25.74.05 38.6-.02.22 5.85.29 11.71.12 17.56.06 1.28-.47 2.43-1.42 3.27-9.34 9.47-18.81 18.83-28.09 28.36-28.73.02-57.45.01-86.18 0-9.91-10.22-20-20.29-30.07-30.36-.03-29.23.01-58.46-.02-87.68m48.81 2.1c-3.14 2.53-6.32 5.06-8.93 8.13-1.3 1.34-1.06 3.33-1.21 5.03-.04 4.69-.41 9.45.64 14.07 22.42-.3 44.86 0 67.29-.15q.075-8.73 0-17.46c-3.43-3.47-6.83-6.97-10.22-10.48-14.53-.01-29.06.03-43.58-.03-1.34.16-3.03-.31-3.99.89" />
</svg>