<svg xmlns="http://www.w3.org/2000/svg" viewBox="0 0 650 421">
  <g fill="#fff">
    <path
      d="M224.73 3.68c1.74-2 4.46-2.12 6.86-2.66.63.18 1.89.55 2.52.73 5.66 2.64 11.2 5.51 16.75 8.37.5.27 1.51.81 2.01 1.08 2.18.88 4.18 2.2 5.51 4.18 5.62 7.81 11.2 15.66 16.49 23.71 3.06 4.31 5.89 8.78 9.04 13.02-.96 4.13-4.15 7.17-6.58 10.48-5.19 6.96-11.63 12.84-17.38 19.33-10.03 10.6-20.96 20.37-32.44 29.38-5.1 3.17-11.65 4.82-17.53 3.1-3.68-.91-5.45-4.55-7.86-7.1-2.43-2.53-4.31-5.6-7.11-7.75-2.05-1.28-4.17.69-6.03 1.49-7.4 4.42-16.95 6.37-21.83 14.11-2.12 3.34-5.02 6.86-4.6 11.07 2.06 4.79 5.82 8.58 8.98 12.65 1.48 8.25-3.78 15.64-6.65 23.02-1.67 3.65-3.4 7.29-5.05 10.95-5.77 12.54-10.07 25.68-14.59 38.69-7.61-7.98-15.51-15.69-23.22-23.57-1.34-1.34-2.68-2.69-3.95-4.09-2.15-1.94-4.78-3.42-7.74-3.49-8.64-.15-17.3-.05-25.94-.04 6.75-21.37 12.84-43.23 23.87-62.9 1.4-2.52 3.02-5.01 5.44-6.68 5.48.3 10.92 1.33 16.43 1.01 3.38.16 6.03-2.3 8.31-4.48 8.41-10.01 15.43-21.09 23.71-31.19 7.42-10.18 14.98-20.26 22.96-30.01 4.54-5.43 9.19-10.77 13.92-16.03 8.49-8.87 16.7-18.02 25.7-26.38M422.33.95c4.47.12 7.68 3.11 10.55 6.18l2.07 1.95c14.32 14.82 28.63 29.71 41.14 46.11 5.68 6.99 10.82 14.38 16.23 21.58 5.19 6.19 9.68 12.9 14.52 19.37 4.36 5.26 7.68 11.88 13.97 15.14 6.42 1.42 13-.27 19.47-.52 3.6 2.56 5.4 6.73 7.52 10.45 2.43 5.27 5.35 10.35 7.13 15.9 5.99 14 9.92 28.78 14.67 43.22-11.51-.01-23.02-.05-34.52.01-4.19-.06-7.57 2.55-10.22 5.52-6 6.37-12.56 12.23-18.3 18.84-4.05-10.19-7.16-20.77-11.93-30.67-1.8-4.08-3.65-8.13-5.56-12.16-2.06-4.4-3.97-8.87-5.72-13.4-.99-3.16-2.08-6.73-.58-9.9 2.92-4.1 6.74-7.67 8.68-12.4.35-4.43-2.81-8.1-5.06-11.62-5-7.32-14.25-9.21-21.46-13.54-2.05-1.02-4.76-3.12-6.74-.86-3.66 3.67-6.78 7.85-10.21 11.74-2.44 2.86-6.61 3.35-10.13 3.22-4.37-.67-8.93-1.66-12.4-4.57-11.44-9.13-22.38-18.92-32.38-29.62-8.18-9.1-17.51-17.54-23.25-28.49 8.86-12.38 17.01-25.26 26.1-37.47 1.04-1.41 2.49-2.42 4-3.28 1.07-.48 2.14-1 3.2-1.52 6.35-3.18 12.49-6.86 19.21-9.21" />
    <path
      d="M260.37 93.44c6.24-6.75 12.67-13.33 18.79-20.19 6.63 9.16 13.52 18.15 20.68 26.9 2.43 3.22 4.97 6.36 7.5 9.51 1.49 1.97 3.04 3.89 4.54 5.86-9.79.02-19.58-.11-29.36.06-4.85.03-8.78 4.39-8.7 9.16 0 20.33-.07 40.67.04 61.01-1.2-1.67-2.47-3.29-3.72-4.93-15.3-19.78-30.19-39.88-46.14-59.16-.28-.16-.84-.5-1.12-.66 3.42-.57 6.93-1.33 9.83-3.35 9.78-7.41 18.72-15.82 27.66-24.21m91.77 6.69c7.15-8.75 14.03-17.73 20.67-26.87 9.14 9.82 17.93 20.05 28.14 28.81 5.87 5.87 12.51 10.86 18.89 16.14 2.85 1.33 5.85 2.29 8.97 2.71-3.45 3.89-6.88 7.81-9.92 12.04-5.55 6.28-10.27 13.24-15.43 19.84-3.77 4.16-6.52 9.15-10.54 13.11-3.31 5-6.99 9.78-10.82 14.41-9.72 0-19.43-.01-29.15-.01-2.93-.05-5.77.86-8.24 2.4-1.5 2.46-2.49 5.25-2.45 8.17-.01 9.08.01 18.15-.01 27.23-.08 2.45.71 4.78 1.37 7.11q1.935 1.56 3.96 3.03c9.24 1.6 18.69-.1 27.98 1.05 4.71 7.21 10.59 13.57 15.42 20.71-.28 1.2-1.39 1.92-2.15 2.81-5.04 4.96-9.92 10.07-14.85 15.14-5.54 5.49-10.57 11.49-16.23 16.87-1.91.35-1.78-1.7-2.17-2.96-2.35-1-3.86-3.08-5.39-5.01a327 327 0 0 0-4.1-4.96c-3.74-4.26-7.65-8.37-11.08-12.89-1.72-2.6-5.43-4.43-5.18-7.9.02-39.45 0-78.9.01-118.34-.19-2.96 1.65-5.38 3.38-7.59 5.88-8.66 12.48-16.8 18.92-25.05" />
    <path
      d="M282.19 123.82c13.09.04 26.19.01 39.28.02.03 71.33-.06 142.66.05 214-12.35-.05-24.69-.04-37.04 0 .03-7.52.18-15.05-.08-22.57-8.15 6.96-15.33 15.02-22.99 22.52-18.87.05-37.74 0-56.61.02-4.89-4.98-9.81-9.94-14.73-14.9-5.28-5.36-10.51-10.75-15.87-16.02-.01-29.08-.03-58.17.01-87.25 10.34-10.24 20.53-20.64 30.81-30.95 19.68.06 39.37-.14 59.04.1 6.3 4.76 11.9 10.4 18.1 15.3.06-26.76.01-53.51.03-80.27m-57.26 98.33c-3.83 3.86-7.59 7.78-11.45 11.61.11 19.71-.25 39.45.17 59.14 3.63 3.96 7.54 7.68 11.19 11.62 11.05-.03 22.1.08 33.15-.05 7.8-8.59 16.18-16.63 24.24-24.98-.07-13-.07-26 0-38.99-6.81-6.06-13.66-12.09-20.34-18.29-12.32-.12-24.64-.01-36.96-.06M1.78 221.11c10.7-10.83 21.45-21.6 32.15-32.42 25.62-.01 51.25.01 76.88-.01 8.73 8.77 17.47 17.54 26.16 26.36 2.2 2.8 6.62 4.7 6.05 8.85 0 37.97-.01 75.95 0 113.92-11.89.02-23.78-.05-35.67.04.11-7.06.1-14.12.01-21.18-7.73 6.72-14.69 14.31-22.35 21.07-18.34.18-36.7.01-55.04.08-1.36.25-2.45-.47-3.4-1.31-.8-.9-1.61-1.77-2.42-2.65-7.8-7.9-15.92-15.52-23.44-23.67-.19-11.31-.01-22.63-.09-33.95 9.2-9.18 18.39-18.37 27.57-27.56 25.35.03 50.69-.01 76.04.02-.07-6.33-.07-12.66-.01-18.99-3.1-3.1-6.25-6.16-9.27-9.35-15.26.02-30.53-.28-45.78.15-2.57 3.3-5.72 6.08-8.6 9.11.02 2.81.01 5.63.01 8.45-12.93-.01-25.86 0-38.79-.01-.01-5.65 0-11.3-.01-16.95m37.64 63.65c-.01 5.11-.01 10.23.01 15.35 2.51 2.44 4.98 4.91 7.43 7.42 12.01-.09 24.02.18 36.02-.14.67-.83 1.37-1.63 2.1-2.41 6.5-6.01 12.89-12.15 19.24-18.33-.05-3.34-.06-6.69.01-10.03-18.89.05-37.78.03-56.67.01-2.69 2.73-5.4 5.44-8.14 8.13m311.21-96.08c43.71 0 87.43.05 131.14-.02-.05 10.22.04 20.45-.04 30.68-25.91 26.56-51.59 53.35-77.35 80.04-2.04 2.09-4.15 4.13-5.88 6.49 27.75.15 55.51.03 83.26.06.04 10.65-.09 21.3.07 31.94-44.75-.13-89.49-.04-134.24-.04.09-10.15.03-20.3.03-30.45 7.88-8.07 15.76-16.12 23.49-24.32 9.96-10.35 20.07-20.55 29.91-31.02 10.07-10.42 20.32-20.68 30.11-31.37-26.84-.19-53.68-.05-80.52-.07.05-10.64.02-21.28.02-31.92m152.59 30.93c10.36-10.21 20.52-20.62 30.8-30.92 28.02-.01 56.03 0 84.05 0 10.4 10.42 20.81 20.84 31.24 31.24.01 18.83-.01 37.66.01 56.5-35.62-.03-71.24.01-106.86-.03.05 6.53-.05 13.06.06 19.59 3.3 3.08 6.36 6.41 9.47 9.68 16.34-.01 32.69.12 49.02-.06 3.33-2.81 6.13-6.22 9.26-9.26-.04-2.59-.03-5.17-.05-7.75 12.95.08 25.9.01 38.84.03-.16 6.59.38 13.21-.36 19.77-9.82 9.71-19.54 19.53-29.2 29.4-28.78.01-57.56.03-86.33 0-9.84-10.25-19.92-20.27-29.97-30.31 0-29.29-.05-58.59.02-87.88m39.6 11.91c.02 5.78.01 11.57.01 17.35 22.28-.02 44.55.03 66.83-.02-.09-5.78.3-11.6-.18-17.35-3.13-3.67-6.68-6.96-9.99-10.46h-46.51c-3.39 3.49-6.68 7.08-10.16 10.48" />
    <path
      d="M259.25 252.18c3.05-4.25 6.44-8.24 9.39-12.56 1.63 1.59 3.35 3.09 5.16 4.48.02 10.65 0 21.3.01 31.96-.65.62-1.3 1.24-1.94 1.87-1.29 1.34-2.59 2.68-3.89 4.01-4.6 4.73-9.29 9.38-13.75 14.25-8.5-.04-16.99-.06-25.49.01-.86-.76-1.72-1.51-2.58-2.26 11.36-13.66 22.42-27.56 33.09-41.76m157.94 45.54c2.47-1.91 4.6-4.21 6.73-6.48.62.96 1.27 1.92 1.92 2.88 1.27 1.17 2.53 2.37 3.82 3.54-4.16 0-8.32-.07-12.47.06m-226.73 37.57c3.45 3.27 6.52 6.96 10.29 9.88 2.06.43 4.11 1.06 6.23 1.03 12.45-.02 24.9.01 37.35-.02-7.81 8.62-14.84 17.91-22.15 26.95-1.59 2.38-3.02 4.87-4.88 7.08-.79 1.25-1.53 2.54-2.34 3.79-1.8 2.56-3.32 5.31-5.15 7.85-3.5 5.13-6.5 10.62-10.5 15.4-2.86 3.6-5.43 7.58-9.18 10.33-6.33 3.06-13.85 2.55-19.97-.82-7.65-4.5-13-12.03-16.87-19.85-.3-.52-.88-1.56-1.17-2.08-1.85-4.04-2.97-8.39-3.44-12.8-.11-4.83 3.48-8.52 6.37-11.98 1.2-1.48 2.38-2.97 3.57-4.46 1.39-1.61 2.88-3.14 4.45-4.58 2.29-2.42 4.72-4.7 7.31-6.81 5.16-4.03 9.96-8.52 14.62-13.13 1.83-1.92 3.71-3.79 5.46-5.78m217.18 10.88c21.42.09 42.84-.09 64.26.09 2.18 1.34 3.99 3.28 6.06 4.84 2.74 2.94 6.32 4.95 9 7.97 2.12 2.19 4.45 4.18 6.4 6.54 1.18 1.49 2.37 2.98 3.58 4.45 2.9 3.4 6.26 7.1 6.36 11.83-.76 9.13-5.23 17.45-10.56 24.72-4.95 7.1-12.69 12.75-21.56 13.16-2.63-.44-5.3-.67-7.85-1.47-2.89-1.09-4.73-3.71-6.73-5.91-1.34-1.68-2.61-3.41-3.91-5.1-3.25-3.91-5.88-8.25-8.62-12.5-2.35-3.6-4.76-7.15-7.02-10.8-2.32-3.69-4.96-7.15-7.26-10.84-7.3-9.06-14.34-18.35-22.15-26.98" />
  </g>
</svg>