<svg xmlns="http://www.w3.org/2000/svg" viewBox="0 0 202 155">
  <path fill="#3a2213"
    d="M68.33 0h1.36c36.83 19.99 73.24 40.79 109.57 61.67-2.05.2-4.1.4-6.14.66-25.66-13.99-50.87-28.82-76.43-43.01C85.74 13.58 75.5 6.14 63.94 1.79c1.4-.74 2.94-1.17 4.39-1.79"
    opacity=".96" />
  <path fill="#743918"
    d="M62.45 2.81c.37-.25 1.12-.76 1.49-1.02 11.56 4.35 21.8 11.79 32.75 17.53 25.56 14.19 50.77 29.02 76.43 43.01-1.31.69-2.62 1.38-3.95 2.04-4.76-4.49-11.83-5.45-16.1-10.44-3.42-3.84-8.74-3.82-13.06-5.94-25.82-15.11-52.27-29.22-77.56-45.18" />
  <path fill="#8f4720"
    d="M48.79 21.95c2.02-7.68 6.56-15.2 13.66-19.14 25.29 15.96 51.74 30.07 77.56 45.18 4.32 2.12 9.64 2.1 13.06 5.94 4.27 4.99 11.34 5.95 16.1 10.44l-.35.53c-1.31.63-2.53 1.41-3.71 2.25-5.51-2.44-10.12-7.38-16.15-8.2.05.47.13 1.4.18 1.87 4.53 2.98 9.37 5.43 13.96 8.32-.42.93-.81 1.86-1.19 2.8-2.18 2.21-3.48 5.02-3.91 8.07-.67 1.09-1.31 2.19-1.97 3.29-1.68-.79-3.31-1.7-5.07-2.3-.95-.36-1.89-.75-2.82-1.16-2.73-1.62-5.47-3.2-8.19-4.83.67-.96 1.39-1.9 1.99-2.91-4.85-3.22-10-5.99-15.14-8.71-1.4.52-2.64 1.38-4 2.01-7.31-3.96-13.82-9.34-21.51-12.66-6.25-2.36-11.81-6.15-17.48-9.63-.37-2.3-2.82-3.17-4.89-2.9-.53-.27-1.6-.8-2.13-1.06-.3-2.34-2.79-3.2-4.86-2.95-.53-.24-1.61-.72-2.14-.96l.05-.94c1.52.13 5.41 2 3.85-.97-2-1.44-4.23-2.51-6.58-3.21-.05.45-.13 1.34-.17 1.79-6.12-3.21-11.96-6.91-18.15-9.96m40.19-.03c-.36 1.79 1.07 2.81 2.32 3.75 10.56 5.71 20.83 11.94 31.37 17.69 1.31.8 4.44 1.44 3.1-1.07-12.42-6.48-23.77-15.11-36.79-20.37m13.16 14.2c-.9.67-1.23 1.55-1 2.62 6.04 2.83 11.6 6.57 17.52 9.64 1.3.76 4.47 1.42 3.09-1.06-6.46-3.87-12.99-7.62-19.61-11.2m20.85 18.82c-.73 3.87 4.37 4.71 7.03 6.13.64-3.79-4.17-5.22-7.03-6.13" />
  <path fill="#3c2313"
    d="M33.83 19.54c5.56-3.8 10.1 5.25 14.96 2.41.13.68.41 2.05.54 2.73 6.85 3.46 13.09 8.21 20.46 10.56.53.24 1.61.72 2.14.96.96 1.84 2.94 2.59 4.86 2.95.53.26 1.6.79 2.13 1.06.96 1.83 2.95 2.6 4.89 2.9 5.67 3.48 11.23 7.27 17.48 9.63 7.69 3.32 14.2 8.7 21.51 12.66 5.78 3.1 11.37 6.54 17.15 9.61 2.72 1.63 5.46 3.21 8.19 4.83-1.73.1-5.2.3-6.93.39-14.9-8.58-29.98-16.87-44.87-25.47-9.07-5.09-18.13-10.2-27.21-15.25-11.78-6.63-23.42-13.55-35.3-19.97" />
  <path fill="#743717"
    d="M30.62 20.93c1-.63 2.07-1.09 3.21-1.39 11.88 6.42 23.52 13.34 35.3 19.97-.39.68-1.16 2.03-1.55 2.7-12.45-6.84-24.93-13.72-36.96-21.28" />
  <path fill="#8f4820"
    d="M27.75 22.79c.91-.69 1.89-1.28 2.87-1.86 12.03 7.56 24.51 14.44 36.96 21.28 9.49 5.4 18.89 10.97 28.43 16.28 6.09 3.23 11.71 7.74 18.64 9.01 3.59 1.85 7.05 4.05 9.79 7.06 4.05 2.94 9.08 4.22 12.79 7.71-.35.41-1.06 1.21-1.41 1.61-3.94 3.18-7.38 6.98-9.04 11.86-1.15 1.96-1.83 4.12-2.43 6.3-5.34-3.46-10.97-6.42-16.47-9.6.78-.72 1.53-1.48 2.25-2.27-4.44-2.21-8.74-4.67-12.87-7.42-1.44-1.07-4.87-1.55-4.39 1.16-2.5-1.31-4.83-2.91-7.41-4.09-5.75-3.42-11.64-6.61-17.38-10.06-8.9-5.28-17.95-10.31-26.95-15.4 3.07-4.08-3.28-4.71-5.89-6.06-.39.43-1.19 1.29-1.58 1.72-5.59-3.18-11.09-6.53-16.85-9.4 1.47-6.95 5.45-13.32 10.94-17.83 1 4.84 6.9 5.43 10.32 8.09 1.49.79 6.91 4.27 5.82.29-5.39-2.75-10.38-6.41-16.14-8.38m3.23 9.19c.03.47.08 1.41.1 1.88 4.79 2.96 9.73 5.65 14.58 8.5 1.39.91 4.39 1.35 3.26-1.22-6.03-2.77-11.26-8.35-17.94-9.16m26.01 7.96.2 2.76c10.93 5.51 21.03 12.5 31.82 18.27 2.01 1.28 6.39 3.72 4.82-.69-12.86-5.66-24.03-14.85-36.84-20.34m13.18 15.17c-.25.4-.77 1.19-1.02 1.58 6.59 3.7 12.86 8 19.71 11.21.89-.68 1.22-1.55 1-2.61-6.9-2.72-12.8-7.89-19.69-10.18m20.81 18.86c.04.47.1 1.4.13 1.87 2.32 1.15 6.48 5.22 7.99 1.23-2.63-1.13-5.1-3.32-8.12-3.1M1.53 75.82c2.42-6.63 6.46-13.12 12.42-17.13C26.51 65.45 39 72.42 51.57 79.2c9.49 5.41 18.9 10.98 28.44 16.29 5.87 3.07 11.24 7.46 17.85 8.81 4.01 1.61 8.09 3.6 10.54 7.31 4.44 2.74 9.57 4.17 13.63 7.64-3.68 3.12-7.12 6.52-9.42 10.82-1.74 2.64-2.89 5.63-3.52 8.73-33.1-18.77-66.3-37.42-99.1-56.74C7.25 80 2.8 79.34 1.53 75.82m40.45 2.1c.06.44.17 1.33.23 1.78 12.02 6.6 23.63 14.01 35.84 20.29.62-3.38-4.24-3.26-6.06-5.02-9.82-5.94-19.7-12.12-30.01-17.05" />
  <path fill="#713717"
    d="M48.79 21.95c6.19 3.05 12.03 6.75 18.15 9.96.99.76 1.95 1.57 2.9 2.39l-.05.94c-7.37-2.35-13.61-7.1-20.46-10.56-.13-.68-.41-2.05-.54-2.73" />
  <path fill="#9f562a"
    d="M88.98 21.92c13.02 5.26 24.37 13.89 36.79 20.37 1.34 2.51-1.79 1.87-3.1 1.07-10.54-5.75-20.81-11.98-31.37-17.69-1.25-.94-2.68-1.96-2.32-3.75M35.24 48.3c2.61 1.35 8.96 1.98 5.89 6.06-2.46-1.5-5.05-2.79-7.47-4.34.39-.43 1.19-1.29 1.58-1.72" />
  <path fill="#975024"
    d="M27.75 22.79c5.76 1.97 10.75 5.63 16.14 8.38 1.09 3.98-4.33.5-5.82-.29-3.42-2.66-9.32-3.25-10.32-8.09" />
  <path fill="#9f5629"
    d="M67.11 30.12c2.35.7 4.58 1.77 6.58 3.21 1.56 2.97-2.33 1.1-3.85.97-.95-.82-1.91-1.63-2.9-2.39.04-.45.12-1.34.17-1.79" />
  <path fill="#985124"
    d="M30.98 31.98c6.68.81 11.91 6.39 17.94 9.16 1.13 2.57-1.87 2.13-3.26 1.22-4.85-2.85-9.79-5.54-14.58-8.5-.02-.47-.07-1.41-.1-1.88m71.16 4.14c6.62 3.58 13.15 7.33 19.61 11.2 1.38 2.48-1.79 1.82-3.09 1.06-5.92-3.07-11.48-6.81-17.52-9.64-.23-1.07.1-1.95 1-2.62M70.17 55.11c6.89 2.29 12.79 7.46 19.69 10.18.22 1.06-.11 1.93-1 2.61-6.85-3.21-13.12-7.51-19.71-11.21.25-.39.77-1.18 1.02-1.58" />
  <path fill="#733717"
    d="M71.93 36.2c2.07-.25 4.56.61 4.86 2.95-1.92-.36-3.9-1.11-4.86-2.95m6.99 4.01c2.07-.27 4.52.6 4.89 2.9-1.94-.3-3.93-1.07-4.89-2.9m-62.11.41c5.76 2.87 11.26 6.22 16.85 9.4 2.42 1.55 5.01 2.84 7.47 4.34 9 5.09 18.05 10.12 26.95 15.4-1.7-.14-2.34.54-1.93 2.05 5.21 3.57 11.02 6.18 16.19 9.84 1.33 1.1 2.23-1.19 3.12-1.83 2.58 1.18 4.91 2.78 7.41 4.09 5.08 2.71 9.92 5.83 15.01 8.53 5.5 3.18 11.13 6.14 16.47 9.6-.18 2.99-.33 6-.38 9-31.3-16.74-61.87-34.9-92.95-52.09-4.42-2.2-8.32-5.57-13.13-6.95l-1.13-1.73c.14-3.21.07-6.43.05-9.65m7.18 8.36c.02.47.07 1.41.09 1.89 5.91 3.38 11.65 7.09 17.8 10.03.25-.44.77-1.33 1.02-1.77-2.96-2.56-6.81-3.75-9.96-6.04-2.91-1.4-5.43-4.5-8.95-4.11m74 40.95c.05.69.16 2.08.22 2.78 7.42 4.2 15.01 8.15 22.09 12.93 2.16 1.39 1.85-.86 1.47-2.32-7.88-4.5-15.5-9.78-23.78-13.39m-1.65-35.17c14.89 8.6 29.97 16.89 44.87 25.47-1.31.72-2.63 1.4-3.98 2.04-3.71-3.49-8.74-4.77-12.79-7.71-2.74-3.01-6.2-5.21-9.79-7.06-6.93-1.27-12.55-5.78-18.64-9.01.94-1.11.65-2.45.33-3.73M150.96 81c1.76.6 3.39 1.51 5.07 2.3-.04 3.2-.02 6.4.05 9.62-.48-.25-1.43-.74-1.91-.99.32-4.01-1.22-7.61-3.21-10.93" />
  <path fill="#a0572a"
    d="M56.99 39.94c12.81 5.49 23.98 14.68 36.84 20.34 1.57 4.41-2.81 1.97-4.82.69C78.22 55.2 68.12 48.21 57.19 42.7zm66 15c2.86.91 7.67 2.34 7.03 6.13-2.66-1.42-7.76-2.26-7.03-6.13M90.98 73.97c3.02-.22 5.49 1.97 8.12 3.1-1.51 3.99-5.67-.08-7.99-1.23-.03-.47-.09-1.4-.13-1.87" />
  <path fill="#7c3f1c"
    d="M67.58 42.21c.39-.67 1.16-2.02 1.55-2.7 9.08 5.05 18.14 10.16 27.21 15.25.32 1.28.61 2.62-.33 3.73-9.54-5.31-18.94-10.88-28.43-16.28M51.57 79.2c.81-.85 1.64-1.67 2.49-2.48 8.64 5.22 17.51 10.03 26.31 14.98.28 1.3.57 2.66-.36 3.79-9.54-5.31-18.95-10.88-28.44-16.29" />
  <path fill="#4c240f" d="M16.76 50.27c-1.76-2.92-.22-6.58.05-9.65.02 3.22.09 6.44-.05 9.65" opacity=".67" />
  <path fill="#662d11"
    d="M23.99 48.98c3.52-.39 6.04 2.71 8.95 4.11 3.15 2.29 7 3.48 9.96 6.04-.25.44-.77 1.33-1.02 1.77-6.15-2.94-11.89-6.65-17.8-10.03-.02-.48-.07-1.42-.09-1.89" />
  <path fill="#3b2313"
    d="M17.89 52c4.81 1.38 8.71 4.75 13.13 6.95 31.08 17.19 61.65 35.35 92.95 52.09.45 2.22 5.88 5.62 2.18 6.5-15.39-8.36-30.54-17.2-45.78-25.84-8.8-4.95-17.67-9.76-26.31-14.98-4.91-2.69-9.88-5.28-14.69-8.15-6.82-4.03-14.85-6.35-20.82-11.71 4.09-.64.64-3.04-.66-4.86" />
  <path fill="#723717"
    d="M13.95 58.69c1.35-1 2.97-1.53 4.6-1.83 5.97 5.36 14 7.68 20.82 11.71 4.81 2.87 9.78 5.46 14.69 8.15-.85.81-1.68 1.63-2.49 2.48C39 72.42 26.51 65.45 13.95 58.69" />
  <path fill="#863f1d"
    d="M148.96 58.95c6.03.82 10.64 5.76 16.15 8.2-.67.67-1.34 1.33-2.01 1.99-4.59-2.89-9.43-5.34-13.96-8.32-.05-.47-.13-1.4-.18-1.87" />
  <path fill="#a66228"
    d="M173.12 62.33c2.04-.26 4.09-.46 6.14-.66 5.3 2.08 6.53 8.17 6.61 13.25-.31.97-.59 1.95-.83 2.94-.5 1.67-1.01 3.41-.24 5.08-3.52.43-4.67 4.3-5.9 7.11 3.56-2.87 6.61-6.66 11.2-7.93 2.73-.14 5.56.14 8.32.01 1.62 1.03 2.04 3.01 2.79 4.65-.06 2.78-.1 5.56-.11 8.35-1.6 9.24-8.14 18.18-16.96 21.55-2.42-.2-4.85-.37-7.27-.49-5-5.3-3.94-12.8-1.65-19.09 1.2-1.94 2.4-3.94 2.87-6.2-2.27 1.44-5 3.35-2.87 6.2l-1.05.11c-1.35.13-2.67.37-4.01.55-.44-.24-1.33-.71-1.77-.95-.97-2.86-4.76-.92-6.6-2.68 2.62-.3 5.26-.39 7.89-.53 7.87-2.61 12.15-11.77 12.32-19.6 2.12-6.19-5.54-10.28-10.35-7.37-5.7 2.56-8.75 8.38-11.32 13.72-.6 4.18-.02 8.36.09 12.55-.29 1.64.7 2.98 1.49 4.33-6.69-2.81-4.79-11.33-3.91-17.22 1.87-2.38 2.99-5.21 3.91-8.07 2.6-2.02 5.3-4.1 6.91-7.04l.35-.53c1.33-.66 2.64-1.35 3.95-2.04m15.18 22.95c-8.89 4.16-13.86 14.87-12.13 24.45 1.12 1.18 2.28 2.33 3.58 3.31-.22-2.24 1.47-2.45 1.53-.16 6.97 1.21 12.31-5.02 14.75-10.86 3.29-5.13 3.75-12.08-.19-16.92-2.52-.23-5.03-.17-7.54.18" />
  <path fill="#833e1c"
    d="M122.8 65.4c1.36-.63 2.6-1.49 4-2.01 5.14 2.72 10.29 5.49 15.14 8.71-.6 1.01-1.32 1.95-1.99 2.91-5.78-3.07-11.37-6.51-17.15-9.61" />
  <path fill="#de8a3b"
    d="M165.11 67.15c1.18-.84 2.4-1.62 3.71-2.25-1.61 2.94-4.31 5.02-6.91 7.04.38-.94.77-1.87 1.19-2.8.67-.66 1.34-1.32 2.01-1.99m-23.9 13.08c1.73-.09 5.2-.29 6.93-.39.93.41 1.87.8 2.82 1.16 1.99 3.32 3.53 6.92 3.21 10.93-.25 1.1-.52 2.2-.81 3.29.07-4.64-.32-12.2-5.71-13.91-4.3-1.23-7.93 1.48-11.83 2.57.35-.4 1.06-1.2 1.41-1.61 1.35-.64 2.67-1.32 3.98-2.04" />
  <path fill="#925222"
    d="M171.65 66.63c4.81-2.91 12.47 1.18 10.35 7.37-.17 7.83-4.45 16.99-12.32 19.6-2.63.14-5.27.23-7.89.53-.34-.31-1.02-.93-1.37-1.23-.11-4.19-.69-8.37-.09-12.55 2.57-5.34 5.62-11.16 11.32-13.72m-2.45 6.5c-3.62 3.48-5.81 9.46-2.01 13.76 4.08 2.07 5.17-4.31 8.68-3.24 1.35-2.76 1.47-7.35-1.12-9.36-1.85-.39-3.68-.92-5.55-1.16" />
  <path fill="#682e12"
    d="M66.15 71.81c-.41-1.51.23-2.19 1.93-2.05 5.74 3.45 11.63 6.64 17.38 10.06-.89.64-1.79 2.93-3.12 1.83-5.17-3.66-10.98-6.27-16.19-9.84m15.79 56.11c8.34 3.04 15.76 8.17 23.26 12.86 2.66 2.78-3.57-.24-4.19-.81-6.13-4.25-14.1-6.56-19.07-12.05" />
  <path fill="#dc893a" d="M158 80.01c.43-3.05 1.73-5.86 3.91-8.07-.92 2.86-2.04 5.69-3.91 8.07" />
  <path fill="#743e19"
    d="M169.2 73.13c1.87.24 3.7.77 5.55 1.16 2.59 2.01 2.47 6.6 1.12 9.36-3.51-1.07-4.6 5.31-8.68 3.24-3.8-4.3-1.61-10.28 2.01-13.76m3.07 3.19c-3.44.84-5.88 5.88-3.13 8.61q5.82-2.79 4.83-9.03c-.43.11-1.27.31-1.7.42m-33.01 15.91c5.87-2.16 5.2 4.95 4.18 8.79.63 1.95-1.42 6.16-1.69 1.92-2.46.5-1.27 6.4-3.13 2.37-5.48.78-6.46-6.21-4.49-9.96 2.39 1.03 3.48-1.96 5.13-3.12m-.06 2.93c-1.86 1.84-4.88 5.51-1.99 7.72 3.84.79 7.68-9.59 1.99-7.72" />
  <path fill="#372012"
    d="M185.87 74.92c2.89 1.37 5.6 3.06 8.34 4.7-1.68.3-3.36.64-5.01 1.11-1.32-1.06-2.74-1.98-4.16-2.87.24-.99.52-1.97.83-2.94"
    opacity=".94" />
  <path fill="#713617"
    d="M1.65 88.19c-1.87-3.77-.28-8.41-.12-12.37C2.8 79.34 7.25 80 9.99 82.06c32.8 19.32 66 37.97 99.1 56.74.01 3.16-.03 6.34.09 9.51-26.36-14.27-52.28-29.38-78.41-44.07-9.9-4.99-18.98-11.6-29.12-16.05m80.29 39.73c4.97 5.49 12.94 7.8 19.07 12.05.62.57 6.85 3.59 4.19.81-7.5-4.69-14.92-9.82-23.26-12.86" />
  <path fill="#88491f" d="M172.27 76.32c.43-.11 1.27-.31 1.7-.42q.99 6.24-4.83 9.03c-2.75-2.73-.31-7.77 3.13-8.61" />
  <path fill="#9c5428"
    d="M41.98 77.92c10.31 4.93 20.19 11.11 30.01 17.05 1.82 1.76 6.68 1.64 6.06 5.02C65.84 93.71 54.23 86.3 42.21 79.7c-.06-.45-.17-1.34-.23-1.78" />
  <path fill="#66391d"
    d="M185.04 77.86c1.42.89 2.84 1.81 4.16 2.87-1.43.8-2.85 1.65-4.4 2.21-.77-1.67-.26-3.41.24-5.08" />
  <path fill="#d88639"
    d="M156.03 83.3c.66-1.1 1.3-2.2 1.97-3.29-.88 5.89-2.78 14.41 3.91 17.22 2.12 1.02 4.5.89 6.48-.42.44.24 1.33.71 1.77.95-.98.72-5.27.65-3.25 2.3 3.07 2.92 3.35 7.03 3.06 11.08l-.16 1.01c-.39-3.93-.76-9.08-4.66-11.29-1.36-.73-2.88-1.11-4.3-1.7-1.97-1.78-3.36-4.03-4.77-6.24-.07-3.22-.09-6.42-.05-9.62" />
  <path fill="#d9873a"
    d="M189.2 80.73c1.65-.47 3.33-.81 5.01-1.11 1.46.73 2.93 1.47 4.21 2.51-2.76.13-5.59-.15-8.32-.01-4.59 1.27-7.64 5.06-11.2 7.93 1.23-2.81 2.38-6.68 5.9-7.11 1.55-.56 2.97-1.41 4.4-2.21"
    opacity=".98" />
  <path fill="#aa652a"
    d="M135.82 83.88c3.9-1.09 7.53-3.8 11.83-2.57 5.39 1.71 5.78 9.27 5.71 13.91-.07.4-.22 1.2-.3 1.6-.4 1.76-.78 3.53-1.01 5.33-1.49 1.52-3.62 2.57-4.31 4.72-2.39 2.4-5.87 4.54-5.46 8.36-1.68.58-3.32 1.3-5.1 1.51-3.69-.48-9.71-.33-10.84-5.05-2.58-5.19.08-10.64.44-15.95 1.66-4.88 5.1-8.68 9.04-11.86m6.47.45c-10.99 2.84-17.26 16.66-13.56 26.96 1.32 2.08 6.35 5.38 7.53 1.75 9.09-1.32 14.73-12.4 13.77-21.04 2.13-4.68-3.63-9.12-7.74-7.67" />
  <path fill="#87401d"
    d="M92.87 83.91c-.48-2.71 2.95-2.23 4.39-1.16 4.13 2.75 8.43 5.21 12.87 7.42-.72.79-1.47 1.55-2.25 2.27-5.09-2.7-9.93-5.82-15.01-8.53" />
  <path fill="#915222"
    d="M142.29 84.33c4.11-1.45 9.87 2.99 7.74 7.67.96 8.64-4.68 19.72-13.77 21.04.64-2.82-5.56-3.16-4.26-.13 1.42.08 2.84.12 4.26.13-1.18 3.63-6.21.33-7.53-1.75-3.7-10.3 2.57-24.12 13.56-26.96m-3.03 7.9c-1.65 1.16-2.74 4.15-5.13 3.12-1.97 3.75-.99 10.74 4.49 9.96 1.86 4.03.67-1.87 3.13-2.37.27 4.24 2.32.03 1.69-1.92 1.02-3.84 1.69-10.95-4.18-8.79m49.04-6.95c2.51-.35 5.02-.41 7.54-.18 3.94 4.84 3.48 11.79.19 16.92-2.44 5.84-7.78 12.07-14.75 10.86-.06-2.29-1.75-2.08-1.53.16-1.3-.98-2.46-2.13-3.58-3.31-1.73-9.58 3.24-20.29 12.13-24.45m-3.09 6.96c-4.17 3.31-5.36 9.97-1 13.61 1.75-.06 4.33-1.92 4.04 1.2 1.94-1.57 4.14-3.42 4.53-6.01-1.02-2.54.21-5.28-1.01-7.81-1.98-1.28-4.35-.82-6.56-.99" />
  <path fill="#613c19" d="m201.21 86.78.79.51v7.55l-.9.29c.01-2.79.05-5.57.11-8.35" opacity=".44" />
  <path fill="#392112"
    d="M1.65 88.19c10.14 4.45 19.22 11.06 29.12 16.05 26.13 14.69 52.05 29.8 78.41 44.07.24.96.46 1.93.67 2.9-34.84-18.98-69.1-39.03-103.79-58.31-2.09-.85-3.53-2.7-4.41-4.71"
    opacity=".94" />
  <path fill="#672d11"
    d="M97.99 89.93c8.28 3.61 15.9 8.89 23.78 13.39.38 1.46.69 3.71-1.47 2.32-7.08-4.78-14.67-8.73-22.09-12.93-.06-.7-.17-2.09-.22-2.78" />
  <path fill="#dd893b" d="M175.22 97.1c-2.13-2.85.6-4.76 2.87-6.2-.47 2.26-1.67 4.26-2.87 6.2" />
  <path fill="#6f3617"
    d="M80.37 91.7c15.24 8.64 30.39 17.48 45.78 25.84l-.62.64c-1.18.32-2.34.71-3.5 1.07-4.06-3.47-9.19-4.9-13.63-7.64-2.45-3.71-6.53-5.7-10.54-7.31-6.61-1.35-11.98-5.74-17.85-8.81.93-1.13.64-2.49.36-3.79" />
  <path fill="#412716"
    d="M154.17 91.93c.48.25 1.43.74 1.91.99 1.41 2.21 2.8 4.46 4.77 6.24-1.14-.1-2.28-.19-3.41-.26-1.43-.77-2.88-1.48-4.38-2.08.08-.4.23-1.2.3-1.6.29-1.09.56-2.19.81-3.29" />
  <path fill="#77401a"
    d="M185.21 92.24c2.21.17 4.58-.29 6.56.99 1.22 2.53-.01 5.27 1.01 7.81-.39 2.59-2.59 4.44-4.53 6.01.29-3.12-2.29-1.26-4.04-1.2-4.36-3.64-3.17-10.3 1-13.61m1.99 2.92c-2.2 1.98-3.76 4.83-3.2 7.87 4.71 1.8 9.72-9.69 3.2-7.87" />
  <path fill="#b56c2b"
    d="M161.91 97.23c-.79-1.35-1.78-2.69-1.49-4.33.35.3 1.03.92 1.37 1.23 1.84 1.76 5.63-.18 6.6 2.68-1.98 1.31-4.36 1.44-6.48.42" />
  <path fill="#86471f" d="M139.2 95.16c5.69-1.87 1.85 8.51-1.99 7.72-2.89-2.21.13-5.88 1.99-7.72" />
  <path fill="#86481f" d="M187.2 95.16c6.52-1.82 1.51 9.67-3.2 7.87-.56-3.04 1-5.89 3.2-7.87" />
  <path fill="#d68539"
    d="M124.35 102.04c.6-2.18 1.28-4.34 2.43-6.3-.36 5.31-3.02 10.76-.44 15.95 1.13 4.72 7.15 4.57 10.84 5.05-1.41.26-2.88.41-4.13 1.17-2.31 1.1-5.06.46-7.52.27l.62-.64c3.7-.88-1.73-4.28-2.18-6.5.05-3 .2-6.01.38-9" />
  <path fill="#693b1e"
    d="M153.06 96.82c1.5.6 2.95 1.31 4.38 2.08-1.75 1.16-3.59 2.18-5.39 3.25.23-1.8.61-3.57 1.01-5.33" />
  <path fill="#8a4d26"
    d="M170.16 97.76c1.34-.18 2.66-.42 4.01-.55-.56 1.57-1.07 3.16-1.5 4.77-1.92-.65-3.81-1.38-5.76-1.92-2.02-1.65 2.27-1.58 3.25-2.3" />
  <path fill="#d68539"
    d="m174.17 97.21 1.05-.11c-2.29 6.29-3.35 13.79 1.65 19.09-1.31-.61-2.55-1.36-3.78-2.11-.27-1.14-.57-2.28-.91-3.4-.1-2.92-.32-5.87.49-8.7.43-1.61.94-3.2 1.5-4.77" />
  <path fill="#bb7231"
    d="M157.44 98.9c1.13.07 2.27.16 3.41.26 1.42.59 2.94.97 4.3 1.7-2.15 1.42-7.54-1.44-7.02 2.14-3.97-2.29-6.94 3.22-10.12 5l-.27-1.13c.69-2.15 2.82-3.2 4.31-4.72 1.8-1.07 3.64-2.09 5.39-3.25" />
  <path fill="#67391d"
    d="M166.91 100.06c1.95.54 3.84 1.27 5.76 1.92-.81 2.83-.59 5.78-.49 8.7-.55.12-1.66.34-2.21.46.29-4.05.01-8.16-3.06-11.08" />
  <path fill="#a46127"
    d="M158.13 103c-.52-3.58 4.87-.72 7.02-2.14 3.9 2.21 4.27 7.36 4.66 11.29l-.09.72c-1.66 6.24-4.96 11.92-8.77 17.08-4.4 3.24-11.25 8.46-16.81 4.47 1.01-1.61-1.13-2.58-1.78-3.85-.4-4.19-.43-8.39-.43-12.58 2.22-3.21 3.65-6.9 6.08-9.99 3.18-1.78 6.15-7.29 10.12-5-8.89 3.27-14.47 12.68-14.18 22.01-.18 2.23.83 4.5 2.58 5.9 1.38-2.83 1.58-1.36 1.51 1.04 1.51-2.84 4.29-.99 6.69-1.22 8.09-4.48 13.77-14.62 11.33-23.77-.84-3.62-4.73-4.34-7.93-3.96"
    opacity=".97" />
  <path fill="#925323"
    d="M158.13 103c3.2-.38 7.09.34 7.93 3.96 2.44 9.15-3.24 19.29-11.33 23.77-2.4.23-5.18-1.62-6.69 1.22.07-2.4-.13-3.87-1.51-1.04-1.75-1.4-2.76-3.67-2.58-5.9-.29-9.33 5.29-18.74 14.18-22.01m-2.81 8.25c-1.31 2.2-3.39 1.94-5.22 2.91.2 1.94 1.99 4.91-1.13 2.94.74 3.35.98 7.91 5.65 7.21 1.87 4.05.66-1.91 3.16-2.38-.12 4.24 2.42-.34 3.02-1.9-1.01-1.97-.35-3.99.15-5.98-.91-2.19-1.33-5.93-5.63-2.8" />
  <path fill="#d28137"
    d="M142.28 115.23c-.41-3.82 3.07-5.96 5.46-8.36l.27 1.13c-2.43 3.09-3.86 6.78-6.08 9.99.08-.69.26-2.07.35-2.76" />
  <path fill="#ad662a" d="M132 112.91c-1.3-3.03 4.9-2.69 4.26.13-1.42-.01-2.84-.05-4.26-.13" />
  <path fill="#763f1a"
    d="M155.32 111.25c4.3-3.13 4.72.61 5.63 2.8-.5 1.99-1.16 4.01-.15 5.98-.6 1.56-3.14 6.14-3.02 1.9-2.5.47-1.29 6.43-3.16 2.38-4.67.7-4.91-3.86-5.65-7.21 3.12 1.97 1.33-1 1.13-2.94 1.83-.97 3.91-.71 5.22-2.91m.91 1.94c-2.18 2.08-6.1 5.82-3.09 8.72 2.22-.82 4.76-2.24 5.08-4.83.73-1.5.31-4.92-1.99-3.89" />
  <path fill="#422715"
    d="M169.97 111.14c.55-.12 1.66-.34 2.21-.46.34 1.12.64 2.26.91 3.4-1.14-.38-2.26-.79-3.37-1.21l.09-.72z"
    opacity=".93" />
  <path fill="#87481f"
    d="M156.23 113.19c2.3-1.03 2.72 2.39 1.99 3.89-.32 2.59-2.86 4.01-5.08 4.83-3.01-2.9.91-6.64 3.09-8.72" />
  <path fill="#884d26"
    d="M137.18 116.74c1.78-.21 3.42-.93 5.1-1.51-.09.69-.27 2.07-.35 2.76-.43.99-.82 2.01-1.18 3.04-1.92-1.07-3.6-2.81-5.89-3l-1.81-.12c1.25-.76 2.72-.91 4.13-1.17" />
  <path fill="#be7531" d="M176.87 116.19c2.42.12 4.85.29 7.27.49-2.45 1.01-5.04 1.09-7.27-.49" opacity=".92" />
  <path fill="#ba6f2e"
    d="M122.03 119.25c1.16-.36 2.32-.75 3.5-1.07 2.46.19 5.21.83 7.52-.27l1.81.12.46.63c-.33.26-1 .78-1.33 1.04-3.58 2.03-8.26-1.1-11.39 1.87-3.53 2.41-6.49 5.56-8.78 9.15-.3-.16-.91-.49-1.21-.65 2.3-4.3 5.74-7.7 9.42-10.82" />
  <path fill="#61361c"
    d="M134.86 118.03c2.29.19 3.97 1.93 5.89 3-.26 3.71-.02 7.44.08 11.16-1-.36-2.01-.72-3.01-1.07.5-4.33.92-9.21-2.5-12.46z" />
  <path fill="#d48439"
    d="M140.75 121.03c.36-1.03.75-2.05 1.18-3.04 0 4.19.03 8.39.43 12.58.65 1.27 2.79 2.24 1.78 3.85-1.11-.74-2.22-1.48-3.31-2.23-.1-3.72-.34-7.45-.08-11.16" />
  <path fill="#d68539"
    d="M133.99 119.7c.33-.26 1-.78 1.33-1.04 3.42 3.25 3 8.13 2.5 12.46-.7-3.82-.15-8.88-3.83-11.42" />
  <path fill="#a25f27"
    d="M122.6 121.57c3.13-2.97 7.81.16 11.39-1.87 3.68 2.54 3.13 7.6 3.83 11.42-2.51 9.41-8.25 19.08-17.69 22.63-2.81-.51-5.59-1.05-8.4-1.52-.47-.26-1.41-.77-1.88-1.02-.21-.97-.43-1.94-.67-2.9.3-3.11 1.75-6.61-.09-9.51.63-3.1 1.78-6.09 3.52-8.73.3.16.91.49 1.21.65 2.29-3.59 5.25-6.74 8.78-9.15m2.71 1.77c-8.51 3.12-14.28 13.71-11.05 22.39.88 1.72 3.99 3.67 4.01.37 2.89-1.5 2.17 2.72 4.48 1.61 8.31-4.24 12.81-14.59 9.14-23.49-3.37 2.44-.91-6.05-6.58-.88" />
  <path fill="#874a1f"
    d="M125.31 123.34c5.67-5.17 3.21 3.32 6.58.88 3.67 8.9-.83 19.25-9.14 23.49-2.31 1.11-1.59-3.11-4.48-1.61-.02 3.3-3.13 1.35-4.01-.37-3.23-8.68 2.54-19.27 11.05-22.39m-1.41 4.6c1.78 1.49 5.82 2.17 5.32 5.91 2.46-.6-.66-10.3-5.32-5.91m-6.97 10.03c-.76 3.26 1.6 6.84 5.19 6.06-1.87-1.69-4.62-2.89-4.34-5.89z" />
  <path fill="#9c5925" d="M123.9 127.94c4.66-4.39 7.78 5.31 5.32 5.91.5-3.74-3.54-4.42-5.32-5.91" />
  <path fill="#9d5925" d="m116.93 137.97.85.17c-.28 3 2.47 4.2 4.34 5.89-3.59.78-5.95-2.8-5.19-6.06" />
  <path fill="#d88539" d="M109.09 138.8c1.84 2.9.39 6.4.09 9.51-.12-3.17-.08-6.35-.09-9.51" />
  <path fill="#c17732" d="M111.73 152.23c2.81.47 5.59 1.01 8.4 1.52-2.88.17-6.43 1.07-8.4-1.52" opacity=".94" />
</svg>