<svg xmlns="http://www.w3.org/2000/svg" viewBox="0 0 128 266">
  <path fill="#3f2510"
    d="M35.58 15.55C42.99 5.63 55.56-.41 67.98.53c9.98.71 19.21 5.4 27.16 11.25 3.18 2.47 6.61 4.79 8.97 8.13 3.43 4.75 5.05 10.5 6.06 16.19l-.37.8-.65-.08c-.75-.52-1.49-1.05-2.24-1.57-2.18-11.22-11.61-19-21.26-24-8-4.25-17.88-5.65-26.37-1.97C49.62 12.77 42.6 21 37.7 29.72c-5.56 10.37-5.51 22.52-4.32 33.9.86 7.2 4.33 13.75 5.22 20.9-9.01-10.16-13.23-24.12-12.22-37.59.55-10.94 2.8-22.26 9.2-31.38" />
  <path fill="#4d2c10"
    d="M59.28 9.28C67.77 5.6 77.65 7 85.65 11.25c9.65 5 19.08 12.78 21.26 24-5.61-1.91-11.6-.53-17.29.23-8.15 1.48-17.3 3.5-22.62 10.44-3.96 5.21-2.21 12-2.94 18.01-.01 4.8-.27 9.62.18 14.41-.59 6.86 4.96 11.88 10.36 15 4.65 3.11 7.95-3.37 12.35-4.16 4.46-.76 8.67-2.36 13.01-3.56 1.4.55 2.79 1.14 4.12 1.83 1.94-.77 2.27-2.99 2.92-4.72 1.92 6.47 1.26 13.53-.63 19.93-.84 2.86-2.17 5.56-3.87 8.01-.44.56-1.3 1.67-1.74 2.23a20.8 20.8 0 0 1-12.3 5.99c-8.45.73-15.8-4.37-21.33-10.22-1.3-1.52-2.47-3.16-3.59-4.81-3.06-5.49-3.28-11.87-4.57-17.88-1.01-4.26.03-8.84-1.85-12.92-1.89-4.63-3.38-9.67-6.72-13.5-2.11-2.74-6.76-2.66-8.57.37-2.45 4.25-1.35 9.83 1.69 13.5 4.87 6.35 9.92 13.71 8.96 22.14-5.03-3.1-10.08-6.44-13.88-11.05-.89-7.15-4.36-13.7-5.22-20.9-1.19-11.38-1.24-23.53 4.32-33.9C42.6 21 49.62 12.77 59.28 9.28m28.73 85.7c-2.31-.01-5.82.12-6.33 3.02-1.07 5.06 5.47 9.46 9.77 6.33.75-2.1-.7-4.05-.28-6.16 1.64-1.07 3.5-1.98 5.52-1.86 1.18 1.47.41 3.42.23 5.07 1.89.88 3.26-2.04 4.34-3.29 1.06-2.1 3.35-6.53-.08-7.42-4.35 1.52-8.4 4.42-13.17 4.31" />
  <path fill="#e09976"
    d="M89.62 35.48c5.69-.76 11.68-2.14 17.29-.23.75.52 1.49 1.05 2.24 1.57-6.66-1.23-13.35.19-19.86 1.59-6.61 1.51-12.87 4.56-18.19 8.75-3.98 3.45-3.81 9.15-5.16 13.84-1.72 5.64-1.05 11.56-1.7 17.34-.45-4.79-.19-9.61-.18-14.41.73-6.01-1.02-12.8 2.94-18.01 5.32-6.94 14.47-8.96 22.62-10.44M41.83 59.93c1.81-3.03 6.46-3.11 8.57-.37 3.34 3.83 4.83 8.87 6.72 13.5 1.88 4.08.84 8.66 1.85 12.92 1.29 6.01 1.51 12.39 4.57 17.88-3.1-.3-5.25-2.77-7.5-4.65-1.22-1.18-2.33-2.47-3.56-3.64.96-8.43-4.09-15.79-8.96-22.14-3.04-3.67-4.14-9.25-1.69-13.5" />
  <path fill="#efb88f"
    d="M89.29 38.41c6.51-1.4 13.2-2.82 19.86-1.59l.65.08.37-.8c1.93 15.59-.41 31.29-3.17 46.63-.65 1.73-.98 3.95-2.92 4.72-1.33-.69-2.72-1.28-4.12-1.83-4.34 1.2-8.55 2.8-13.01 3.56-4.4.79-7.7 7.27-12.35 4.16-5.4-3.12-10.95-8.14-10.36-15 .65-5.78-.02-11.7 1.7-17.34 1.35-4.69 1.18-10.39 5.16-13.84 5.32-4.19 11.58-7.24 18.19-8.75m-1.28 56.57c4.77.11 8.82-2.79 13.17-4.31 3.43.89 1.14 5.32.08 7.42-1.08 1.25-2.45 4.17-4.34 3.29.18-1.65.95-3.6-.23-5.07-2.02-.12-3.88.79-5.52 1.86-.42 2.11 1.03 4.06.28 6.16-4.3 3.13-10.84-1.27-9.77-6.33.51-2.9 4.02-3.03 6.33-3.02" />
  <path fill="#d08c6d"
    d="M56.04 99.21c2.25 1.88 4.4 4.35 7.5 4.65 1.12 1.65 2.29 3.29 3.59 4.81-.08 5.16-.7 10.47.86 15.49-6.94-.91-12.74-7.64-12.3-14.67.11-3.43.41-6.85.35-10.28" />
  <path fill="#6e2718"
    d="M106.37 102.66c6.58 2.41 12.14 7.5 15.67 13.53-1.37-.85-2.77-1.65-4.16-2.47 4.43 10.73 2.89 22.49 3.34 33.79-1.51.84-3.03 1.68-4.55 2.51-1.14.64-2.26 1.3-3.37 1.99a255 255 0 0 1-7.52 4.29c-.04-3.11-.07-6.22.12-9.33.2-4.01.07-8.02.09-12.03.05-4.12-.01-8.23-.02-12.34.04-1.9.04-3.81-.45-5.66-.54-2.29-1.03-4.76-3.02-6.27 1.7-2.45 3.03-5.15 3.87-8.01M25.3 127.75c4.64-3.2 9.36-6.39 14.6-8.54 3.51 2.24 6.06 5.67 9.69 7.75.76 1.02 1.51 2.04 2.27 3.06 2.37 10.13 3.45 20.57 3.38 30.98-.6 7.7-.05 15.4.06 23.09-5.44 3.12-10.85 6.3-16.33 9.35.41-2.82.91-5.63.99-8.48.18-7.19-.13-14.37-.04-21.55.17-1.9-.02-3.79-.32-5.67-.27-2.67-.39-5.36-.58-8.04-.17-2.46-.4-4.92-.95-7.32-1.73-6.7-8.32-9.96-12.77-14.63m84.66 41.34c4.23-.91 7.73-3.69 11.14-6.2.57 8.06-.58 16.12.01 24.19.53 6.68-.33 13.35-.11 20.04-27.94 15.92-55.71 32.14-83.57 48.19.02-2.23.03-4.47.04-6.69.02-4.25 0-8.49-.04-12.73.02-4.03.02-8.06.03-12.09.04-4.09.01-8.17-.05-12.25.05-3.98.05-7.96.01-11.94.03-1.51.63-2.89 1.29-4.2.01 2.41-.05 4.88 1.02 7.11-2.45 3.74 3.42 6.65 6.21 4.38 3.82-2.55 10.95-4.57 9.62-10.44.17-.65.5-1.95.67-2.6 2.94-.66 5.79-1.65 8.53-2.88 2.69-1.17 5.36-2.41 8-3.68 2.84-1.34 5.68-2.69 8.5-4.06 2.76-1.3 5.57-2.48 8.22-3.99 3.03-1.83 5.87-3.96 8.54-6.29 3.08-2.91 6.46-5.82 7.91-9.93.25.37.74 1.13.98 1.5-2.48 2.15.4 5.2 3.05 4.56m2.78 20.63c-9.12 7.98-19.54 14.39-30.43 19.64-10.39 4.9-21.57 7.71-32.74 10.15-2.13.47-4.38.64-6.31 1.74-.25 4.88-.2 9.77-.07 14.66 1.19.15 2.35.06 3.5-.27 7.33-1.91 14.76-3.51 21.93-5.99 10.16-3.55 19.82-8.42 28.97-14.05 7.46-4.63 14.44-10.14 20.06-16.9.48-4.2.17-8.45.09-12.66-2.2.26-3.38 2.42-5 3.68" />
  <path fill="#deb08a"
    d="M67.13 108.67c5.53 5.85 12.88 10.95 21.33 10.22-.51 1.73-1.77 2.99-3.22 3.96-1.32.67-2.65 1.33-4.03 1.84-1.95.14-3.89.25-5.84.26-2.47-.16-4.93-.41-7.38-.79-1.56-5.02-.94-10.33-.86-15.49" />
  <path fill="#f26950"
    d="M46.28 115.23c3.08-2 6.29-3.8 9.41-5.74-.44 7.03 5.36 13.76 12.3 14.67 2.45.38 4.91.63 7.38.79-.8 5.75-1.95 11.45-2.63 17.22l-.32-.51c-.03-.68-.1-2.02-.13-2.69-2.3-1.33-4.97-1.64-7.45-2.43-2.87-1.22-5.75-2.42-8.57-3.72-1.51-.87-2.98-1.82-4.41-2.8-.76-1.02-1.51-2.04-2.27-3.06-1.63-3.24-3.26-6.55-3.78-10.19.12-.38.35-1.16.47-1.54m42.18 3.66c4.65-.54 9.01-2.68 12.3-5.99-.06 1.7-.11 3.41-.08 5.12l.77.45c-1.82 1.75-2.74 4.16-3.51 6.51-1.2.55-3.5 1.81-2.22 3.37-1.48.9-2.98 1.75-4.55 2.48.62-2.55-2.7-1.3-.71.34-.36.22-1.09.66-1.46.88.11-3.2.4-8.63-3.76-9.2 1.45-.97 2.71-2.23 3.22-3.96" />
  <path fill="#871719"
    d="M102.5 110.67c1.99 1.51 2.48 3.98 3.02 6.27-1.35.51-2.71 1.02-4.07 1.53l-.77-.45c-.03-1.71.02-3.42.08-5.12.44-.56 1.3-1.67 1.74-2.23m-62.6 8.54c1.97-.79 3.96-1.57 5.91-2.44.52 3.64 2.15 6.95 3.78 10.19-3.63-2.08-6.18-5.51-9.69-7.75M4.12 168.06c3.29-14.91 9.45-30.05 21.18-40.31 4.45 4.67 11.04 7.93 12.77 14.63-3.07 3.2-5.24 7.12-7.04 11.14-2.34 4.86-4.02 10.01-5.57 15.17-2.3 9.29-4.69 18.7-4.61 28.34.02 8.69-1.25 17.36-.67 26.04.2 3.62-.17 7.24-.18 10.85.06 3.81-.14 7.62-.23 11.42 0 4.28-.13 8.56-.21 12.84-.06 2.55-.07 5.09.29 7.63l.23-.15-.3.34h-1.36l-.2-.68c-5.74-3.53-11.71-6.68-17.47-10.18.2-16.32.66-32.64.8-48.96.54-12.71-.33-25.61 2.57-38.12" />
  <g fill="#b33a36">
    <path
      d="M117.88 113.72c1.39.82 2.79 1.62 4.16 2.47 1.52 2.26 2.99 4.59 3.92 7.17-1.04.59-2.09 1.16-3.14 1.73-.28 12.06-.03 24.15-.11 36.22 1.61-.83 3.2-1.68 4.79-2.56v12.65c-1.63.84-3.22 1.74-4.79 2.69-.12 10.69.14 21.38-.03 32.07l-1.68.96c-.22-6.69.64-13.36.11-20.04-.59-8.07.56-16.13-.01-24.19-.13-1.49-.21-2.98-.25-4.47 1.17-3.52.31-7.29.37-10.91-.45-11.3 1.09-23.06-3.34-33.79m-19.86 13.04c2.59-1.49 5.23-2.92 7.95-4.16.01 4.11.07 8.22.02 12.34-2.66 1.59-5.32 3.17-8.01 4.7-2.89 1.61-5.75 3.28-8.56 5.04-2.67 1.61-5.41 3.11-8.16 4.57-.03-4.28-.04-8.55 0-12.83 2.68-1.27 5.26-2.76 7.74-4.37.37-.22 1.1-.66 1.46-.88l.71-.34c1.57-.73 3.07-1.58 4.55-2.48.57-.4 1.72-1.19 2.3-1.59m-46.16 3.26c1.43.98 2.9 1.93 4.41 2.8.02 6.11-.09 12.22-.08 18.33 2.95-1.49 5.77-3.23 8.61-4.92 2.55-1.51 5.13-2.97 7.62-4.57l.32.51c.05 4.13.01 8.25 0 12.38-2.72 1.35-5.36 2.85-7.98 4.4-2.78 1.81-6.02 3.03-8.5 5.25-.23 6.44.17 12.89-.04 19.34l-.92.55c-.11-7.69-.66-15.39-.06-23.09.07-10.41-1.01-20.85-3.38-30.98m-20.83 23.5c1.8-4.02 3.97-7.94 7.04-11.14.55 2.4.78 4.86.95 7.32-2.43 1.26-4.76 2.76-7.38 3.6zM98 151.19c2.61-1.45 5.23-2.87 7.9-4.22-.19 3.11-.16 6.22-.12 9.33-.01 1.15-.07 2.3-.08 3.45-2.62 1.35-5.19 2.78-7.7 4.33 0-4.3-.01-8.6 0-12.89m-16.75 9.9c2.65-1.66 5.39-3.2 8.25-4.49.05 4.27.07 8.54-.01 12.81a47.3 47.3 0 0 0-8.24 4.55c-.01-4.29-.02-8.58 0-12.87m-41.65-3.35c.3 1.88.49 3.77.32 5.67-1.64 3.28-.72 7.06-.91 10.57-2.47 1.43-4.95 2.84-7.42 4.27-2.86 1.99-6.59 3.09-8.83 5.75-.13 11.83-.01 23.66-.06 35.49 3.09-1.51 6.03-3.3 8.89-5.18 1.86-1.09 3.84-1.95 5.82-2.76.06 4.08.09 8.16.05 12.25-1.98 1.08-3.94 2.19-5.88 3.32-2.92 1.72-5.86 3.41-8.79 5.12-.93.55-1.86 1.12-2.79 1.68.01-3.61.38-7.23.18-10.85-.58-8.68.69-17.35.67-26.04-.08-9.64 2.31-19.05 4.61-28.34 2.31-.52 4.19-2.02 6.16-3.23 3.01-2.16 8.33-3.01 7.98-7.72m25.15 12.7c2.74-1.35 5.4-2.84 8-4.45.01 4.28.03 8.56 0 12.83-2.64 1.52-5.31 3-8 4.42-.04-4.27-.05-8.54 0-12.8" />
    <path
      d="m39.21 185.49.75-.53c-.08 2.85-.58 5.66-.99 8.48-.06.49-.19 1.47-.26 1.97-.66 1.31-1.26 2.69-1.29 4.2-1.96.95-3.93 1.87-5.92 2.76-.05-4.25-.07-8.5.01-12.75 2.68-1.15 5.28-2.5 7.7-4.13m-7.71 53.03c1.98-.89 3.95-1.77 5.93-2.63.04 4.24.06 8.48.04 12.73-2 .86-3.99 1.73-5.97 2.62-.04-4.24-.06-8.48 0-12.72m-11.73 6.82c.99-.43 1.98-.86 2.98-1.29 0 4.31.04 8.62-.02 12.94-1.05.39-2.11.79-3.17 1.19.08-4.28.21-8.56.21-12.84" />
  </g>
  <path fill="#f04e27"
    d="M101.45 118.47c1.36-.51 2.72-1.02 4.07-1.53.49 1.85.49 3.76.45 5.66-2.72 1.24-5.36 2.67-7.95 4.16l-.08-1.78c.77-2.35 1.69-4.76 3.51-6.51m-20.24 6.22c1.38-.51 2.71-1.17 4.03-1.84 4.16.57 3.87 6 3.76 9.2-2.48 1.61-5.06 3.1-7.74 4.37 0-3.91.04-7.82-.05-11.73m16.77 14.95c2.69-1.53 5.35-3.11 8.01-4.7-.02 4.01.11 8.02-.09 12.03-2.67 1.35-5.29 2.77-7.9 4.22 0-3.85.01-7.7-.02-11.55m-33.14-3.1c2.48.79 5.15 1.1 7.45 2.43.03.67.1 2.01.13 2.69-2.49 1.6-5.07 3.06-7.62 4.57-.07-3.23-.08-6.46.04-9.69m16.42 12.71c2.75-1.46 5.49-2.96 8.16-4.57.11 3.97.06 7.94.08 11.92-2.86 1.29-5.6 2.83-8.25 4.49.02-3.95.01-7.89.01-11.84m-49.62 4.05c2.62-.84 4.95-2.34 7.38-3.6.19 2.68.31 5.37.58 8.04.35 4.71-4.97 5.56-7.98 7.72-.17-4.05-.18-8.11.02-12.16m33.12 5.65c2.62-1.55 5.26-3.05 7.98-4.4-.01 3.81 0 7.63.01 11.44-2.6 1.61-5.26 3.1-8 4.45.01-3.83-.01-7.66.01-11.49M98 164.08c2.51-1.55 5.08-2.98 7.7-4.33.04 1.09.13 2.19.23 3.28-1.45 4.11-4.83 7.02-7.91 9.93-.02-2.96-.02-5.92-.02-8.88m-16.75 9.88c2.59-1.78 5.35-3.32 8.24-4.55-.02 3.28.01 6.56-.01 9.84-2.65 1.51-5.46 2.69-8.22 3.99 0-3.1 0-6.19-.01-9.28m-49.66 4.29c2.47-1.43 4.95-2.84 7.42-4.27.03 3.84.03 7.68.2 11.51-2.42 1.63-5.02 2.98-7.7 4.13.02-3.79-.06-7.58.08-11.37m33.16 4.99c2.69-1.42 5.36-2.9 8-4.42-.02 2.83-.01 5.65.01 8.48a231 231 0 0 1-8 3.68c-.01-2.58 0-5.16-.01-7.74M31.5 202.37c1.99-.89 3.96-1.81 5.92-2.76.04 3.98.04 7.96-.01 11.94-1.98.81-3.96 1.67-5.82 2.76-.14-3.98-.06-7.96-.09-11.94m.08 24.75c1.94-1.13 3.9-2.24 5.88-3.32-.01 4.03-.01 8.06-.03 12.09-1.98.86-3.95 1.74-5.93 2.63.03-3.8-.04-7.6.08-11.4M20 233.92c.93-.56 1.86-1.13 2.79-1.68-.09 3.93-.04 7.87-.04 11.81-1 .43-1.99.86-2.98 1.29.09-3.8.29-7.61.23-11.42m11.5 17.32c1.98-.89 3.97-1.76 5.97-2.62-.01 2.22-.02 4.46-.04 6.69-1.71 1-3.28 2.27-5.12 3.03-1.34-2.17-.69-4.72-.81-7.1m-11.94 6.94c1.06-.4 2.12-.8 3.17-1.19.01 2.14-.23 4.34.62 6.39-1.09.75-2.17 1.53-3.27 2.28l-.23.15c-.36-2.54-.35-5.08-.29-7.63" />
  <path fill="#cb9593"
    d="M122.82 125.09c1.05-.57 2.1-1.14 3.14-1.73.97 2.77 1.53 5.7 1.55 8.65-.02 8.91-.01 17.83-.01 26.74-1.59.88-3.18 1.73-4.79 2.56.08-12.07-.17-24.16.11-36.22m-47.45-.14c1.95-.01 3.89-.12 5.84-.26.09 3.91.05 7.82.05 11.73-.04 4.28-.03 8.55 0 12.83 0 3.95.01 7.89-.01 11.84-.02 4.29-.01 8.58 0 12.87.01 3.09.01 6.18.01 9.28-2.82 1.37-5.66 2.72-8.5 4.06-.02-2.83-.03-5.65-.01-8.48.03-4.27.01-8.55 0-12.83-.01-3.81-.02-7.63-.01-11.44.01-4.13.05-8.25 0-12.38.68-5.77 1.83-11.47 2.63-17.22m-19.1 7.87c2.82 1.3 5.7 2.5 8.57 3.72-.12 3.23-.11 6.46-.04 9.69-2.84 1.69-5.66 3.43-8.61 4.92-.01-6.11.1-12.22.08-18.33m33.15 11.86c2.81-1.76 5.67-3.43 8.56-5.04.03 3.85.02 7.7.02 11.55-.01 4.29 0 8.59 0 12.89 0 2.96 0 5.92.02 8.88-2.67 2.33-5.51 4.46-8.54 6.29.02-3.28-.01-6.56.01-9.84.08-4.27.06-8.54.01-12.81-.02-3.98.03-7.95-.08-11.92m-58.39 8.84.61-.22c-.2 4.05-.19 8.11-.02 12.16-1.97 1.21-3.85 2.71-6.16 3.23 1.55-5.16 3.23-10.31 5.57-15.17m25.23 10.68c2.48-2.22 5.72-3.44 8.5-5.25-.02 3.83 0 7.66-.01 11.49-.05 4.26-.04 8.53 0 12.8.01 2.58 0 5.16.01 7.74-2.74 1.23-5.59 2.22-8.53 2.88.05-3.44-.08-6.88-.01-10.32.21-6.45-.19-12.9.04-19.34m66.45 9.89c1.57-.95 3.16-1.85 4.79-2.69 0 10.63-.01 21.27.01 31.91-1.6.96-3.21 1.92-4.83 2.85.17-10.69-.09-21.38.03-32.07M22.76 184c2.24-2.66 5.97-3.76 8.83-5.75-.14 3.79-.06 7.58-.08 11.37-.08 4.25-.06 8.5-.01 12.75.03 3.98-.05 7.96.09 11.94-2.86 1.88-5.8 3.67-8.89 5.18.05-11.83-.07-23.66.06-35.49m.03 48.24c2.93-1.71 5.87-3.4 8.79-5.12-.12 3.8-.05 7.6-.08 11.4-.06 4.24-.04 8.48 0 12.72.12 2.38-.53 4.93.81 7.1-3.15 1.39-5.84 3.59-8.96 5.04-.85-2.05-.61-4.25-.62-6.39.06-4.32.02-8.63.02-12.94 0-3.94-.05-7.88.04-11.81" />
  <path fill="#cb918d" d="M95.72 128.35c-1.28-1.56 1.02-2.82 2.22-3.37l.08 1.78c-.58.4-1.73 1.19-2.3 1.59" />
  <path fill="#ce938e" d="M90.46 131.17c-1.99-1.64 1.33-2.89.71-.34z" />
  <path fill="#ffd969"
    d="M116.67 150.02c1.52-.83 3.04-1.67 4.55-2.51-.06 3.62.8 7.39-.37 10.91-1.7 3.25-5.37 4.38-8.25 6.28-1.71 1.24-4.04 1.09-5.69-.17-.24-.37-.73-1.13-.98-1.5-.1-1.09-.19-2.19-.23-3.28.01-1.15.07-2.3.08-3.45 2.53-1.38 5.03-2.82 7.52-4.29-1.62 2.98-3.58 6.37-2.12 9.82 6.24 1.89 11.5-8.4 5.49-11.81M55.3 184.09l.92-.55c-.07 3.44.06 6.88.01 10.32-.17.65-.5 1.95-.67 2.6-2.45 3.46-6.64 4.92-10.14 7.05-1.89 1.21-4.06.1-5.69-.99-1.07-2.23-1.01-4.7-1.02-7.11.07-.5.2-1.48.26-1.97 5.48-3.05 10.89-6.23 16.33-9.35m-10.01 15.65c4.19 2.03 7.56-2.86 8.14-6.49.9-2.12-1.02-4.72-3.37-3.98-4.01 1.38-6.42 6.5-4.77 10.47" />
  <path fill="#fdb93e"
    d="M113.3 152.01c1.11-.69 2.23-1.35 3.37-1.99 6.01 3.41.75 13.7-5.49 11.81-1.46-3.45.5-6.84 2.12-9.82m-68.01 47.73c-1.65-3.97.76-9.09 4.77-10.47 2.35-.74 4.27 1.86 3.37 3.98-.58 3.63-3.95 8.52-8.14 6.49" />
  <path fill="#57170d"
    d="M112.6 164.7c2.88-1.9 6.55-3.03 8.25-6.28.04 1.49.12 2.98.25 4.47-3.41 2.51-6.91 5.29-11.14 6.2-2.65.64-5.53-2.41-3.05-4.56 1.65 1.26 3.98 1.41 5.69.17m-67.18 38.81c3.5-2.13 7.69-3.59 10.14-7.05 1.33 5.87-5.8 7.89-9.62 10.44-2.79 2.27-8.66-.64-6.21-4.38 1.63 1.09 3.8 2.2 5.69.99" />
  <path fill="#ce6e5d"
    d="M39.01 173.98c.19-3.51-.73-7.29.91-10.57-.09 7.18.22 14.36.04 21.55l-.75.53c-.17-3.83-.17-7.67-.2-11.51" />
  <path fill="#803322"
    d="M112.74 189.72c1.62-1.26 2.8-3.42 5-3.68.08 4.21.39 8.46-.09 12.66-5.62 6.76-12.6 12.27-20.06 16.9-9.15 5.63-18.81 10.5-28.97 14.05-7.17 2.48-14.6 4.08-21.93 5.99-1.15.33-2.31.42-3.5.27-.13-4.89-.18-9.78.07-14.66 1.93-1.1 4.18-1.27 6.31-1.74 11.17-2.44 22.35-5.25 32.74-10.15 10.89-5.25 21.31-11.66 30.43-19.64" />
</svg>