<?xml version="1.0" encoding="UTF-8" ?>
<!DOCTYPE svg PUBLIC "-//W3C//DTD SVG 1.1//EN" "http://www.w3.org/Graphics/SVG/1.1/DTD/svg11.dtd">
<svg width="908pt" height="607pt" viewBox="0 0 908 607" version="1.1" xmlns="http://www.w3.org/2000/svg">
<g id="#000000ff">
<path fill="#000000" opacity="1.00" d=" M 215.44 0.00 L 234.57 0.00 C 277.91 0.95 321.47 6.05 363.02 18.83 C 387.30 26.56 411.56 36.60 431.02 53.43 C 442.17 63.18 451.51 76.67 451.50 92.00 C 451.49 232.98 451.51 373.97 451.49 514.95 C 451.54 525.09 447.32 534.77 441.25 542.73 C 430.11 556.93 414.40 566.65 398.38 574.47 C 370.47 587.75 340.23 595.42 309.84 600.45 C 284.97 604.52 259.80 606.44 234.63 607.00 L 216.38 607.00 C 178.13 606.12 139.78 601.99 102.71 592.25 C 82.45 586.87 62.50 579.88 44.06 569.82 C 30.43 562.21 17.19 552.91 8.24 539.89 C 3.84 533.62 1.16 526.30 0.00 518.77 L 0.00 88.99 C 1.07 78.75 5.82 69.21 12.53 61.50 C 23.08 49.26 37.04 40.55 51.37 33.39 C 75.91 21.38 102.43 13.97 129.17 8.76 C 157.59 3.27 186.52 0.77 215.44 0.00 M 185.67 4.83 C 140.31 8.28 94.54 16.54 53.13 36.03 C 36.60 44.41 19.93 54.69 9.73 70.64 C 3.25 80.53 1.45 93.43 5.48 104.60 C 9.83 116.69 19.24 126.14 29.35 133.69 C 43.27 144.08 59.23 151.32 75.44 157.36 C 118.56 172.82 164.48 178.94 210.08 180.47 C 256.08 181.53 302.43 177.74 347.10 166.34 C 350.55 165.40 353.99 164.40 357.43 163.44 C 363.70 161.60 369.90 159.56 376.05 157.38 C 381.21 155.45 386.30 153.33 391.38 151.20 C 395.46 149.32 399.59 147.54 403.53 145.35 C 410.62 141.66 417.35 137.31 423.75 132.53 C 433.06 125.21 441.75 116.28 445.89 104.97 C 450.21 93.38 448.17 79.90 441.22 69.76 C 431.29 54.84 415.70 44.97 400.10 36.84 C 372.09 23.27 341.72 15.18 311.11 10.12 C 307.91 9.66 304.73 8.77 301.48 8.87 L 301.98 8.59 C 289.20 7.12 276.43 5.21 263.55 4.77 C 257.32 4.08 250.94 3.91 244.64 3.79 C 237.31 3.12 229.94 3.50 222.60 3.43 C 214.61 3.14 206.66 3.90 198.68 3.93 C 194.36 4.53 189.99 4.28 185.67 4.83 M 3.96 109.44 C 3.90 205.28 3.94 301.13 3.94 396.97 C 4.60 411.32 14.25 423.28 24.76 432.22 C 39.34 444.39 56.72 452.66 74.39 459.33 C 101.93 469.47 130.81 475.54 159.88 479.18 C 200.71 484.11 242.13 484.53 283.02 480.09 C 285.72 480.04 288.37 479.52 291.06 479.25 C 297.85 478.45 304.60 477.30 311.38 476.41 L 311.32 476.29 C 314.87 475.74 318.40 475.07 321.94 474.42 C 325.61 473.71 329.27 472.92 332.94 472.15 C 337.33 471.18 341.70 470.09 346.07 469.01 C 351.06 467.61 356.17 466.42 361.03 464.65 L 361.27 463.93 L 361.87 464.23 C 368.68 462.80 375.13 459.96 381.65 457.58 C 388.69 454.89 395.53 451.73 402.23 448.30 C 407.70 445.46 412.98 442.27 418.10 438.84 C 424.86 434.15 431.20 428.78 436.52 422.48 C 442.93 414.83 447.84 405.23 447.57 395.04 C 447.48 299.87 447.65 204.70 447.48 109.53 C 441.01 122.66 429.72 132.62 417.68 140.57 C 412.39 143.97 406.94 147.10 401.33 149.93 C 395.06 153.10 388.59 155.83 382.08 158.45 C 375.30 161.09 368.40 163.40 361.46 165.57 C 353.74 168.00 345.86 169.86 338.03 171.92 C 331.84 173.15 325.69 174.65 319.45 175.65 C 313.08 176.83 306.70 178.15 300.22 178.54 L 300.43 178.77 C 294.98 179.58 289.50 180.21 284.03 180.89 C 278.32 181.42 272.62 181.95 266.91 182.46 C 223.67 185.46 180.01 183.97 137.25 176.64 C 113.50 172.51 89.98 166.60 67.54 157.71 C 53.28 151.97 39.38 145.04 27.04 135.81 C 17.62 128.77 9.23 120.05 3.96 109.44 M 3.89 411.83 C 3.51 446.87 3.84 481.93 3.72 516.98 C 4.30 530.66 13.12 542.33 23.03 551.07 C 39.81 565.66 60.49 574.78 81.28 582.08 C 122.39 595.88 165.79 601.65 208.99 603.14 C 231.60 603.56 254.28 603.33 276.77 600.88 C 288.16 600.17 299.45 598.29 310.74 596.71 L 310.72 596.56 C 318.16 595.54 325.50 593.95 332.85 592.39 C 339.17 591.01 345.50 589.55 351.71 587.69 C 360.20 585.49 368.54 582.70 376.79 579.71 C 383.52 577.26 390.12 574.44 396.60 571.40 C 407.27 566.40 417.38 560.21 426.56 552.81 L 426.53 552.55 C 438.62 543.22 448.79 528.84 447.79 512.92 C 447.67 479.33 447.98 445.73 447.63 412.14 C 445.66 414.41 444.55 417.27 442.79 419.69 C 438.10 426.48 432.18 432.43 425.53 437.30 L 425.55 437.60 C 416.86 444.04 407.49 449.52 397.77 454.24 C 390.96 457.54 383.90 460.28 376.90 463.12 C 371.66 464.74 366.49 466.61 361.27 468.28 C 351.96 471.05 342.57 473.49 333.09 475.61 C 324.36 477.58 315.53 479.00 306.73 480.62 C 297.83 481.73 288.95 483.08 280.02 483.98 C 223.33 489.39 165.60 486.81 110.08 473.68 C 83.71 467.10 57.45 458.31 34.45 443.51 C 21.96 435.55 10.77 425.11 3.89 411.83 Z" />
<path fill="#000000" opacity="1.00" d=" M 34.34 472.51 C 41.15 469.27 50.04 474.32 50.79 481.79 C 51.98 488.36 46.61 495.01 39.99 495.42 C 33.50 496.12 27.14 490.57 27.11 484.02 C 26.75 479.13 29.86 474.37 34.34 472.51 M 35.14 473.87 C 31.82 475.30 29.37 478.45 28.67 481.97 C 27.75 487.83 32.86 494.13 38.95 493.69 C 45.87 494.30 51.60 486.02 48.63 479.76 C 46.67 474.44 40.35 471.93 35.14 473.87 Z" />
<path fill="#000000" opacity="1.00" d=" M 34.35 513.50 C 41.57 510.05 50.93 515.97 50.89 523.95 C 51.45 530.52 45.57 536.60 39.03 536.46 C 32.89 536.59 27.20 531.28 27.11 525.11 C 26.71 520.19 29.84 515.37 34.35 513.50 M 35.18 515.17 C 28.53 517.61 26.77 527.27 32.14 531.88 C 37.30 537.12 47.29 534.18 48.75 526.97 C 51.13 519.39 42.38 511.79 35.18 515.17 Z" />
</g>
<g id="#0000000d">
<path fill="#000000" opacity="0.05" d=" M 676.63 0.00 L 728.39 0.00 C 734.69 1.68 741.23 0.52 747.62 1.42 C 786.38 4.36 825.67 9.29 861.96 23.96 C 876.94 30.02 891.58 38.49 901.46 51.59 C 905.01 57.00 907.46 63.41 907.09 69.97 C 906.72 80.85 900.73 90.73 893.28 98.31 C 887.45 103.81 882.26 109.94 876.43 115.44 C 866.09 126.74 855.02 137.34 844.25 148.22 C 765.40 227.06 686.60 305.95 607.76 384.81 C 590.95 401.62 574.03 418.33 557.77 435.68 C 527.75 465.70 497.79 495.78 467.71 525.74 C 459.53 532.24 451.20 539.15 441.25 542.73 C 447.32 534.77 451.54 525.09 451.49 514.95 C 451.51 373.97 451.49 232.98 451.50 92.00 C 451.51 76.67 442.17 63.18 431.02 53.43 C 435.65 51.85 439.95 49.51 444.34 47.39 C 473.65 34.12 504.70 25.19 536.00 18.01 C 575.57 9.25 615.88 3.81 656.33 1.45 C 663.07 0.47 669.98 1.73 676.63 0.00 Z" />
</g>
<g id="#dbdbdbff">
<path fill="#dbdbdb" opacity="1.00" d=" M 185.67 4.83 C 189.99 4.28 194.36 4.53 198.68 3.93 C 221.64 27.44 245.13 50.45 268.30 73.77 C 294.65 100.09 320.95 126.46 347.30 152.78 C 350.81 156.21 354.30 159.65 357.43 163.44 C 353.99 164.40 350.55 165.40 347.10 166.34 C 340.17 160.15 333.96 153.21 327.26 146.78 C 283.23 102.81 239.27 58.78 195.26 14.80 C 191.95 11.59 188.68 8.32 185.67 4.83 Z" />
</g>
<g id="#d2d2d2ff">
<path fill="#d2d2d2" opacity="1.00" d=" M 198.68 3.93 C 206.66 3.90 214.61 3.14 222.60 3.43 C 226.22 8.10 230.60 12.09 234.74 16.29 C 262.58 44.10 290.39 71.95 318.24 99.75 C 337.56 118.91 356.56 138.40 376.05 157.38 C 369.90 159.56 363.70 161.60 357.43 163.44 C 354.30 159.65 350.81 156.21 347.30 152.78 C 320.95 126.46 294.65 100.09 268.30 73.77 C 245.13 50.45 221.64 27.44 198.68 3.93 Z" />
</g>
<g id="#c5c5c5ff">
<path fill="#c5c5c5" opacity="1.00" d=" M 222.60 3.43 C 229.94 3.50 237.31 3.12 244.64 3.79 C 250.07 9.88 255.97 15.52 261.75 21.28 C 290.20 49.82 318.72 78.29 347.24 106.77 C 361.87 121.66 376.94 136.12 391.38 151.20 C 386.30 153.33 381.21 155.45 376.05 157.38 C 356.56 138.40 337.56 118.91 318.24 99.75 C 290.39 71.95 262.58 44.10 234.74 16.29 C 230.60 12.09 226.22 8.10 222.60 3.43 Z" />
<path fill="#c5c5c5" opacity="1.00" d=" M 333.09 475.61 C 342.57 473.49 351.96 471.05 361.27 468.28 C 359.79 469.15 358.38 470.12 356.97 471.09 C 356.78 484.04 356.90 497.00 357.06 509.95 C 356.58 520.95 357.42 531.96 357.03 542.96 C 356.49 556.90 357.41 570.84 356.94 584.78 C 355.21 585.78 353.50 586.82 351.71 587.69 C 345.50 589.55 339.17 591.01 332.85 592.39 C 333.50 584.25 332.58 576.11 333.04 567.97 C 333.19 537.18 332.70 506.39 333.09 475.61 Z" />
</g>
<g id="#b9b9b9ff">
<path fill="#b9b9b9" opacity="1.00" d=" M 244.64 3.79 C 250.94 3.91 257.32 4.08 263.55 4.77 C 305.23 46.97 347.42 88.68 389.26 130.72 C 394.03 135.59 399.07 140.19 403.53 145.35 C 399.59 147.54 395.46 149.32 391.38 151.20 C 376.94 136.12 361.87 121.66 347.24 106.77 C 318.72 78.29 290.20 49.82 261.75 21.28 C 255.97 15.52 250.07 9.88 244.64 3.79 Z" />
</g>
<g id="#e3e3e3ff">
<path fill="#e3e3e3" opacity="1.00" d=" M 53.13 36.03 C 94.54 16.54 140.31 8.28 185.67 4.83 C 188.68 8.32 191.95 11.59 195.26 14.80 C 239.27 58.78 283.23 102.81 327.26 146.78 C 333.96 153.21 340.17 160.15 347.10 166.34 C 302.43 177.74 256.08 181.53 210.08 180.47 C 164.48 178.94 118.56 172.82 75.44 157.36 C 59.23 151.32 43.27 144.08 29.35 133.69 C 19.24 126.14 9.83 116.69 5.48 104.60 C 1.45 93.43 3.25 80.53 9.73 70.64 C 19.93 54.69 36.60 44.41 53.13 36.03 Z" />
<path fill="#e3e3e3" opacity="1.00" d=" M 3.89 411.83 C 10.77 425.11 21.96 435.55 34.45 443.51 C 57.45 458.31 83.71 467.10 110.08 473.68 C 165.60 486.81 223.33 489.39 280.02 483.98 C 281.61 484.10 283.20 484.30 284.79 484.48 C 285.19 498.98 284.79 513.48 284.89 527.99 C 284.75 538.98 285.28 549.97 285.01 560.96 C 284.69 573.74 285.16 586.53 284.74 599.30 C 282.05 599.68 279.39 600.22 276.77 600.88 C 254.28 603.33 231.60 603.56 208.99 603.14 C 165.79 601.65 122.39 595.88 81.28 582.08 C 60.49 574.78 39.81 565.66 23.03 551.07 C 13.12 542.33 4.30 530.66 3.72 516.98 C 3.84 481.93 3.51 446.87 3.89 411.83 M 34.34 472.51 C 29.86 474.37 26.75 479.13 27.11 484.02 C 27.14 490.57 33.50 496.12 39.99 495.42 C 46.61 495.01 51.98 488.36 50.79 481.79 C 50.04 474.32 41.15 469.27 34.34 472.51 M 34.35 513.50 C 29.84 515.37 26.71 520.19 27.11 525.11 C 27.20 531.28 32.89 536.59 39.03 536.46 C 45.57 536.60 51.45 530.52 50.89 523.95 C 50.93 515.97 41.57 510.05 34.35 513.50 Z" />
</g>
<g id="#abababff">
<path fill="#ababab" opacity="1.00" d=" M 263.55 4.77 C 276.43 5.21 289.20 7.12 301.98 8.59 L 301.48 8.87 C 301.15 9.04 300.50 9.38 300.18 9.55 C 336.37 46.09 372.92 82.29 409.20 118.75 C 413.98 123.41 418.39 128.51 423.75 132.53 C 417.35 137.31 410.62 141.66 403.53 145.35 C 399.07 140.19 394.03 135.59 389.26 130.72 C 347.42 88.68 305.23 46.97 263.55 4.77 Z" />
</g>
<g id="#9d9d9dff">
<path fill="#9d9d9d" opacity="1.00" d=" M 300.18 9.55 C 300.50 9.38 301.15 9.04 301.48 8.87 C 304.73 8.77 307.91 9.66 311.11 10.12 C 341.72 15.18 372.09 23.27 400.10 36.84 C 415.70 44.97 431.29 54.84 441.22 69.76 C 448.17 79.90 450.21 93.38 445.89 104.97 C 441.75 116.28 433.06 125.21 423.75 132.53 C 418.39 128.51 413.98 123.41 409.20 118.75 C 372.92 82.29 336.37 46.09 300.18 9.55 Z" />
</g>
<g id="#ffffffff">
<path fill="#ffffff" opacity="1.00" d=" M 3.96 109.44 C 9.23 120.05 17.62 128.77 27.04 135.81 C 39.38 145.04 53.28 151.97 67.54 157.71 C 89.98 166.60 113.50 172.51 137.25 176.64 C 180.01 183.97 223.67 185.46 266.91 182.46 C 268.20 182.75 269.49 183.07 270.78 183.40 C 271.55 211.01 270.48 238.67 271.24 266.28 C 259.87 272.98 248.37 279.47 236.98 286.14 C 235.13 287.03 234.33 289.03 234.52 291.01 C 234.55 304.33 234.47 317.66 234.56 330.97 C 234.26 333.38 236.31 334.87 238.17 335.87 C 249.61 342.37 260.94 349.09 272.39 355.56 C 274.68 357.16 277.13 355.32 279.14 354.22 C 280.18 358.62 280.07 363.16 279.28 367.60 C 274.94 365.35 269.10 368.78 269.50 373.76 C 269.60 378.51 275.05 381.24 279.21 379.34 C 279.57 381.87 279.89 384.41 279.92 386.97 C 279.74 415.64 279.99 444.32 279.80 472.99 C 279.82 475.16 279.97 477.34 280.11 479.51 C 280.84 479.66 282.29 479.94 283.02 480.09 C 242.13 484.53 200.71 484.11 159.88 479.18 C 130.81 475.54 101.93 469.47 74.39 459.33 C 56.72 452.66 39.34 444.39 24.76 432.22 C 14.25 423.28 4.60 411.32 3.94 396.97 C 3.94 301.13 3.90 205.28 3.96 109.44 M 77.50 264.53 C 65.63 271.25 53.84 278.13 42.00 284.92 C 40.05 285.80 39.20 287.95 39.39 289.99 C 39.45 307.96 39.44 325.94 39.52 343.91 C 39.22 345.67 41.41 347.21 42.88 345.95 C 49.75 342.11 56.55 338.15 63.37 334.24 C 64.95 333.46 66.20 331.89 66.08 330.06 C 66.20 321.33 65.98 312.60 66.16 303.88 C 66.29 300.93 69.58 300.00 71.65 298.64 C 74.41 297.36 76.84 294.81 80.01 294.84 C 83.09 295.92 85.72 297.93 88.60 299.43 C 90.37 300.45 92.71 301.62 92.70 304.00 C 92.93 313.01 92.57 322.05 92.86 331.06 C 93.15 333.22 95.36 334.12 96.99 335.14 C 103.69 338.82 110.19 342.90 116.98 346.42 C 118.90 346.53 119.60 344.58 119.34 343.00 C 119.31 325.00 119.41 306.99 119.37 288.99 C 119.61 286.62 117.53 285.18 115.71 284.23 C 104.46 277.82 93.27 271.32 82.04 264.88 C 80.69 264.05 78.94 263.68 77.50 264.53 M 174.54 265.48 C 171.12 267.36 167.79 269.38 164.41 271.33 C 156.09 276.04 147.88 280.96 139.50 285.58 C 138.19 286.67 136.95 288.09 137.20 289.94 C 137.15 302.62 137.25 315.32 137.18 328.01 C 137.13 329.75 137.33 331.49 137.81 333.17 C 147.47 339.29 157.57 344.68 167.41 350.51 C 170.76 352.27 173.80 354.78 177.59 355.58 C 179.22 354.71 180.86 353.83 182.46 352.89 C 187.37 349.98 192.36 347.21 197.29 344.32 C 200.40 342.45 203.58 340.71 206.69 338.87 C 209.27 337.33 211.94 335.94 214.48 334.33 C 215.67 333.64 216.73 332.41 216.65 330.95 C 216.72 317.62 216.72 304.29 216.75 290.96 C 216.86 289.41 216.45 287.93 215.76 286.57 C 203.60 279.36 191.34 272.32 179.06 265.31 L 178.95 264.90 C 177.46 264.85 175.84 264.54 174.54 265.48 M 219.37 350.34 C 208.57 356.59 197.76 362.83 186.95 369.06 C 184.39 370.34 182.64 373.05 182.86 375.97 C 182.85 388.63 182.85 401.29 182.87 413.95 C 182.65 416.87 184.42 419.57 186.99 420.85 C 191.11 423.09 194.97 425.95 199.51 427.32 C 203.51 428.29 208.54 427.67 211.07 424.05 C 212.97 421.45 212.96 418.12 212.94 415.06 C 212.86 402.67 213.03 390.29 212.85 377.91 C 210.84 377.87 208.82 377.87 206.81 377.89 C 206.61 390.96 206.83 404.03 206.71 417.10 C 206.94 420.46 202.94 422.53 200.07 421.16 C 196.16 419.45 192.63 417.00 188.93 414.91 C 188.91 401.59 188.91 388.27 188.93 374.95 C 200.53 368.25 212.06 361.40 223.79 354.93 C 235.24 361.69 246.86 368.17 258.29 374.96 C 258.28 388.30 258.33 401.65 258.27 414.99 C 246.76 421.68 235.21 428.30 223.70 434.99 C 220.42 433.21 217.27 431.23 214.03 429.38 C 211.88 430.43 209.72 431.47 207.55 432.49 C 211.67 435.00 215.82 437.49 220.01 439.90 C 222.30 441.35 225.32 441.15 227.57 439.71 C 238.39 433.48 249.18 427.21 259.99 420.99 C 262.59 419.68 264.55 417.01 264.32 414.00 C 264.33 401.35 264.33 388.69 264.32 376.04 C 264.60 372.97 262.64 370.23 259.98 368.91 C 249.20 362.69 238.44 356.45 227.66 350.24 C 225.17 348.60 221.83 348.69 219.37 350.34 M 222.21 379.19 C 216.44 382.09 215.35 391.51 220.98 395.08 C 227.55 399.01 235.78 397.07 242.60 400.21 C 245.48 401.78 244.01 406.43 241.17 407.21 C 236.53 408.70 231.33 408.57 226.65 407.30 C 223.65 406.52 222.77 403.38 222.13 400.74 C 220.13 400.73 218.12 400.78 216.12 400.90 C 215.75 406.14 219.05 411.27 224.18 412.72 C 231.08 414.74 239.08 415.06 245.60 411.64 C 251.54 408.63 252.91 398.72 246.93 395.11 C 240.44 391.57 232.66 392.53 225.81 390.17 C 222.63 389.17 223.85 384.37 226.66 383.67 C 230.50 382.40 234.77 382.52 238.68 383.50 C 241.56 384.20 242.68 387.15 243.52 389.67 C 245.58 389.75 247.65 389.81 249.66 389.28 C 249.23 384.83 247.08 380.14 242.62 378.51 C 236.14 376.21 228.43 375.98 222.21 379.19 Z" />
</g>
<g id="#a2a2a2ff">
<path fill="#a2a2a2" opacity="1.00" d=" M 417.68 140.57 C 429.72 132.62 441.01 122.66 447.48 109.53 C 447.65 204.70 447.48 299.87 447.57 395.04 C 447.84 405.23 442.93 414.83 436.52 422.48 C 431.20 428.78 424.86 434.15 418.10 438.84 C 418.27 342.58 418.10 246.32 418.19 150.06 C 418.15 146.89 417.92 143.73 417.68 140.57 Z" />
</g>
<g id="#acacacff">
<path fill="#acacac" opacity="1.00" d=" M 401.33 149.93 C 406.94 147.10 412.39 143.97 417.68 140.57 C 417.92 143.73 418.15 146.89 418.19 150.06 C 418.10 246.32 418.27 342.58 418.10 438.84 C 412.98 442.27 407.70 445.46 402.23 448.30 C 401.56 438.19 401.89 428.06 401.84 417.95 C 401.81 386.62 401.92 355.29 401.81 323.96 C 401.84 318.71 402.10 313.43 401.23 308.23 C 404.58 305.98 408.61 304.61 411.45 301.69 C 412.49 298.97 411.87 295.88 412.05 293.02 C 411.81 290.82 412.62 287.98 410.69 286.36 C 407.73 284.15 404.33 282.63 401.22 280.67 C 402.16 276.15 402.13 271.54 401.90 266.96 C 402.20 230.99 401.54 195.01 402.06 159.03 C 402.05 155.98 401.70 152.95 401.33 149.93 Z" />
</g>
<g id="#b6b6b6ff">
<path fill="#b6b6b6" opacity="1.00" d=" M 382.08 158.45 C 388.59 155.83 395.06 153.10 401.33 149.93 C 401.70 152.95 402.05 155.98 402.06 159.03 C 401.54 195.01 402.20 230.99 401.90 266.96 C 402.13 271.54 402.16 276.15 401.22 280.67 C 394.72 276.83 388.15 273.14 381.66 269.31 C 382.01 264.55 382.24 259.78 381.97 255.02 C 381.55 247.33 382.48 239.64 381.94 231.96 C 381.77 207.46 382.33 182.96 382.08 158.45 Z" />
</g>
<g id="#c3c3c3ff">
<path fill="#c3c3c3" opacity="1.00" d=" M 361.46 165.57 C 368.40 163.40 375.30 161.09 382.08 158.45 C 382.33 182.96 381.77 207.46 381.94 231.96 C 382.48 239.64 381.55 247.33 381.97 255.02 C 382.24 259.78 382.01 264.55 381.66 269.31 C 378.50 267.69 375.63 265.02 372.04 264.56 C 368.52 265.54 365.63 267.94 362.41 269.59 C 361.92 265.07 361.73 260.51 361.84 255.97 C 361.85 230.99 361.80 206.01 361.80 181.04 C 361.92 175.88 362.21 170.70 361.46 165.57 Z" />
</g>
<g id="#d1d1d1ff">
<path fill="#d1d1d1" opacity="1.00" d=" M 338.03 171.92 C 345.86 169.86 353.74 168.00 361.46 165.57 C 362.21 170.70 361.92 175.88 361.80 181.04 C 361.80 206.01 361.85 230.99 361.84 255.97 C 361.73 260.51 361.92 265.07 362.41 269.59 C 355.39 273.58 348.46 277.71 341.44 281.70 C 340.34 273.82 340.85 265.86 340.78 257.94 C 340.75 235.64 340.78 213.34 340.75 191.04 C 340.69 184.86 341.41 178.67 340.65 172.51 C 340.00 172.36 338.69 172.06 338.03 171.92 Z" />
</g>
<g id="#e0e0e0ff">
<path fill="#e0e0e0" opacity="1.00" d=" M 319.45 175.65 C 325.69 174.65 331.84 173.15 338.03 171.92 C 338.69 172.06 340.00 172.36 340.65 172.51 C 341.41 178.67 340.69 184.86 340.75 191.04 C 340.78 213.34 340.75 235.64 340.78 257.94 C 340.85 265.86 340.34 273.82 341.44 281.70 C 338.24 284.11 332.20 285.06 332.31 290.02 C 332.25 302.68 332.35 315.36 332.26 328.03 C 332.22 329.91 332.30 331.87 333.22 333.58 C 332.59 379.76 333.25 425.96 332.94 472.15 C 329.27 472.92 325.61 473.71 321.94 474.42 C 322.16 377.62 321.90 280.81 322.02 184.01 C 321.79 181.06 323.20 176.77 319.45 175.65 Z" />
</g>
<g id="#e7e7e7ff">
<path fill="#e7e7e7" opacity="1.00" d=" M 300.22 178.54 C 306.70 178.15 313.08 176.83 319.45 175.65 C 323.20 176.77 321.79 181.06 322.02 184.01 C 321.90 280.81 322.16 377.62 321.94 474.42 C 318.40 475.07 314.87 475.74 311.32 476.29 C 308.97 472.99 310.04 468.75 309.87 464.98 C 309.87 434.31 309.91 403.64 309.88 372.97 C 309.71 360.84 310.31 348.70 309.65 336.58 C 311.74 335.31 314.73 334.02 314.49 331.08 C 314.59 297.37 314.48 263.65 314.55 229.93 C 315.24 224.16 308.31 223.09 304.68 220.46 C 305.51 206.86 305.27 193.18 304.94 179.56 C 303.43 179.30 301.93 179.02 300.43 178.77 L 300.22 178.54 Z" />
</g>
<g id="#f1f1f1ff">
<path fill="#f1f1f1" opacity="1.00" d=" M 284.03 180.89 C 289.50 180.21 294.98 179.58 300.43 178.77 C 301.93 179.02 303.43 179.30 304.94 179.56 C 305.27 193.18 305.51 206.86 304.68 220.46 C 299.35 217.82 294.54 213.92 288.73 212.39 C 289.33 208.28 289.03 204.12 289.02 199.99 C 288.83 193.82 289.40 187.65 288.87 181.50 C 287.26 181.28 285.65 181.05 284.03 180.89 Z" />
</g>
<g id="#fafafaff">
<path fill="#fafafa" opacity="1.00" d=" M 266.91 182.46 C 272.62 181.95 278.32 181.42 284.03 180.89 C 285.65 181.05 287.26 181.28 288.87 181.50 C 289.40 187.65 288.83 193.82 289.02 199.99 C 289.03 204.12 289.33 208.28 288.73 212.39 C 288.28 213.56 287.99 214.77 287.86 216.01 C 287.67 234.20 288.14 252.42 287.64 270.60 C 287.26 270.70 286.51 270.88 286.14 270.98 C 282.54 269.43 279.46 266.88 275.84 265.38 C 274.26 264.55 272.66 265.64 271.24 266.28 C 270.48 238.67 271.55 211.01 270.78 183.40 C 269.49 183.07 268.20 182.75 266.91 182.46 Z" />
</g>
<g id="#333333ff">
<path fill="#333333" opacity="1.00" d=" M 287.86 216.01 C 287.99 214.77 288.28 213.56 288.73 212.39 C 294.54 213.92 299.35 217.82 304.68 220.46 C 308.31 223.09 315.24 224.16 314.55 229.93 C 314.48 263.65 314.59 297.37 314.49 331.08 C 314.73 334.02 311.74 335.31 309.65 336.58 C 303.29 340.20 296.96 343.87 290.62 347.53 C 286.80 349.77 282.94 351.93 279.14 354.22 C 277.13 355.32 274.68 357.16 272.39 355.56 C 260.94 349.09 249.61 342.37 238.17 335.87 C 236.31 334.87 234.26 333.38 234.56 330.97 C 234.47 317.66 234.55 304.33 234.52 291.01 C 234.33 289.03 235.13 287.03 236.98 286.14 C 248.37 279.47 259.87 272.98 271.24 266.28 C 272.66 265.64 274.26 264.55 275.84 265.38 C 279.46 266.88 282.54 269.43 286.14 270.98 C 286.51 270.88 287.26 270.70 287.64 270.60 C 288.14 252.42 287.67 234.20 287.86 216.01 M 261.08 302.99 C 261.10 308.06 261.12 313.13 261.06 318.20 C 265.55 320.77 269.90 323.81 274.65 325.81 C 279.07 323.50 283.27 320.78 287.66 318.41 C 287.85 313.29 287.68 308.18 287.78 303.06 C 283.37 300.31 278.87 297.71 274.30 295.25 C 269.93 297.89 265.42 300.30 261.08 302.99 Z" />
<path fill="#333333" opacity="1.00" d=" M 77.50 264.53 C 78.94 263.68 80.69 264.05 82.04 264.88 C 93.27 271.32 104.46 277.82 115.71 284.23 C 117.53 285.18 119.61 286.62 119.37 288.99 C 119.41 306.99 119.31 325.00 119.34 343.00 C 119.60 344.58 118.90 346.53 116.98 346.42 C 110.19 342.90 103.69 338.82 96.99 335.14 C 95.36 334.12 93.15 333.22 92.86 331.06 C 92.57 322.05 92.93 313.01 92.70 304.00 C 92.71 301.62 90.37 300.45 88.60 299.43 C 85.72 297.93 83.09 295.92 80.01 294.84 C 76.84 294.81 74.41 297.36 71.65 298.64 C 69.58 300.00 66.29 300.93 66.16 303.88 C 65.98 312.60 66.20 321.33 66.08 330.06 C 66.20 331.89 64.95 333.46 63.37 334.24 C 56.55 338.15 49.75 342.11 42.88 345.95 C 41.41 347.21 39.22 345.67 39.52 343.91 C 39.44 325.94 39.45 307.96 39.39 289.99 C 39.20 287.95 40.05 285.80 42.00 284.92 C 53.84 278.13 65.63 271.25 77.50 264.53 Z" />
<path fill="#333333" opacity="1.00" d=" M 362.41 269.59 C 365.63 267.94 368.52 265.54 372.04 264.56 C 375.63 265.02 378.50 267.69 381.66 269.31 C 388.15 273.14 394.72 276.83 401.22 280.67 C 404.33 282.63 407.73 284.15 410.69 286.36 C 412.62 287.98 411.81 290.82 412.05 293.02 C 411.87 295.88 412.49 298.97 411.45 301.69 C 408.61 304.61 404.58 305.98 401.23 308.23 C 396.47 310.97 391.82 313.89 386.90 316.32 C 383.36 312.52 386.59 306.72 384.83 302.27 C 383.15 300.91 381.19 299.96 379.33 298.89 C 376.87 297.50 374.42 296.10 371.95 294.76 C 367.63 297.22 363.16 299.44 359.07 302.27 C 358.24 307.31 358.42 312.69 358.98 317.77 C 365.14 321.82 371.78 325.11 378.09 328.92 C 383.94 332.48 390.09 335.56 395.85 339.26 C 397.16 339.93 396.99 342.09 395.65 342.64 C 390.62 345.72 385.32 348.31 380.24 351.30 C 377.54 352.68 375.04 354.72 372.00 355.25 C 368.10 354.19 364.89 351.51 361.31 349.73 C 356.20 346.86 351.15 343.90 346.05 341.03 C 341.77 338.56 337.40 336.22 333.22 333.58 C 332.30 331.87 332.22 329.91 332.26 328.03 C 332.35 315.36 332.25 302.68 332.31 290.02 C 332.20 285.06 338.24 284.11 341.44 281.70 C 348.46 277.71 355.39 273.58 362.41 269.59 Z" />
</g>
<g id="#76ae63ff">
<path fill="#76ae63" opacity="1.00" d=" M 174.54 265.48 C 175.84 264.54 177.46 264.85 178.95 264.90 L 179.06 265.31 C 179.85 268.88 181.64 272.30 181.32 276.05 C 180.69 288.94 181.86 301.87 180.84 314.74 C 181.46 325.48 181.13 336.25 181.11 347.01 C 180.99 349.07 181.56 351.05 182.46 352.89 C 180.86 353.83 179.22 354.71 177.59 355.58 C 173.50 347.40 168.75 339.57 164.54 331.46 C 165.23 314.32 164.50 297.15 164.93 280.00 C 165.00 277.10 164.74 274.20 164.41 271.33 C 167.79 269.38 171.12 267.36 174.54 265.48 Z" />
</g>
<g id="#68a05cff">
<path fill="#68a05c" opacity="1.00" d=" M 179.06 265.31 C 191.34 272.32 203.60 279.36 215.76 286.57 C 211.90 293.41 207.85 300.16 204.55 307.29 C 204.23 307.21 203.59 307.07 203.28 306.99 C 201.52 304.15 199.66 301.36 197.39 298.89 C 197.07 306.60 197.52 314.33 196.94 322.03 C 197.08 329.46 197.42 336.88 197.29 344.32 C 192.36 347.21 187.37 349.98 182.46 352.89 C 181.56 351.05 180.99 349.07 181.11 347.01 C 181.13 336.25 181.46 325.48 180.84 314.74 C 181.86 301.87 180.69 288.94 181.32 276.05 C 181.64 272.30 179.85 268.88 179.06 265.31 Z" />
</g>
<g id="#70bc50ff">
<path fill="#70bc50" opacity="1.00" d=" M 139.50 285.58 C 147.88 280.96 156.09 276.04 164.41 271.33 C 164.74 274.20 165.00 277.10 164.93 280.00 C 164.50 297.15 165.23 314.32 164.54 331.46 C 160.47 324.15 156.45 316.81 152.47 309.45 C 148.15 301.49 143.80 293.54 139.50 285.58 Z" />
</g>
<g id="#579d4bff">
<path fill="#579d4b" opacity="1.00" d=" M 137.20 289.94 C 136.95 288.09 138.19 286.67 139.50 285.58 C 143.80 293.54 148.15 301.49 152.47 309.45 C 146.82 316.87 143.29 325.63 137.81 333.17 C 137.33 331.49 137.13 329.75 137.18 328.01 C 137.25 315.32 137.15 302.62 137.20 289.94 Z" />
</g>
<g id="#3e873eff">
<path fill="#3e873e" opacity="1.00" d=" M 204.55 307.29 C 207.85 300.16 211.90 293.41 215.76 286.57 C 216.45 287.93 216.86 289.41 216.75 290.96 C 216.72 304.29 216.72 317.62 216.65 330.95 C 216.73 332.41 215.67 333.64 214.48 334.33 C 211.94 335.94 209.27 337.33 206.69 338.87 C 205.19 330.65 205.82 322.21 206.16 313.92 C 209.92 318.93 212.45 324.70 215.76 329.99 C 216.25 324.21 216.09 318.39 215.45 312.63 C 212.06 310.40 208.51 308.29 204.55 307.29 Z" />
</g>
<g id="#c6c6c6ff">
<path fill="#c6c6c6" opacity="1.00" d=" M 359.07 302.27 C 363.16 299.44 367.63 297.22 371.95 294.76 C 374.42 296.10 376.87 297.50 379.33 298.89 C 378.99 300.72 378.66 302.55 378.35 304.39 C 376.29 303.23 374.20 302.15 372.11 301.05 C 369.65 302.47 367.18 303.88 364.70 305.26 C 364.53 308.23 364.46 311.21 364.52 314.19 C 367.02 315.76 369.56 317.27 372.15 318.71 C 374.21 317.61 376.28 316.51 378.24 315.22 C 379.36 319.73 379.66 324.46 378.09 328.92 C 371.78 325.11 365.14 321.82 358.98 317.77 C 358.42 312.69 358.24 307.31 359.07 302.27 Z" />
</g>
<g id="#fbfbfbff">
<path fill="#fbfbfb" opacity="1.00" d=" M 261.08 302.99 C 265.42 300.30 269.93 297.89 274.30 295.25 C 278.87 297.71 283.37 300.31 287.78 303.06 C 287.68 308.18 287.85 313.29 287.66 318.41 C 283.27 320.78 279.07 323.50 274.65 325.81 C 269.90 323.81 265.55 320.77 261.06 318.20 C 261.12 313.13 261.10 308.06 261.08 302.99 Z" />
</g>
<g id="#4f914aff">
<path fill="#4f914a" opacity="1.00" d=" M 197.39 298.89 C 199.66 301.36 201.52 304.15 203.28 306.99 C 203.59 307.07 204.23 307.21 204.55 307.29 C 208.51 308.29 212.06 310.40 215.45 312.63 C 216.09 318.39 216.25 324.21 215.76 329.99 C 212.45 324.70 209.92 318.93 206.16 313.92 C 205.82 322.21 205.19 330.65 206.69 338.87 C 203.58 340.71 200.40 342.45 197.29 344.32 C 197.42 336.88 197.08 329.46 196.94 322.03 C 197.52 314.33 197.07 306.60 197.39 298.89 Z" />
</g>
<g id="#b7b7b7ff">
<path fill="#b7b7b7" opacity="1.00" d=" M 379.33 298.89 C 381.19 299.96 383.15 300.91 384.83 302.27 C 386.59 306.72 383.36 312.52 386.90 316.32 C 391.82 313.89 396.47 310.97 401.23 308.23 C 402.10 313.43 401.84 318.71 401.81 323.96 C 401.92 355.29 401.81 386.62 401.84 417.95 C 401.89 428.06 401.56 438.19 402.23 448.30 C 395.53 451.73 388.69 454.89 381.65 457.58 C 380.21 450.79 381.29 443.87 380.96 437.02 C 380.50 425.03 381.57 413.04 381.02 401.05 C 380.43 389.04 381.35 377.01 380.89 365.00 C 381.02 360.42 381.44 355.78 380.24 351.30 C 385.32 348.31 390.62 345.72 395.65 342.64 C 396.99 342.09 397.16 339.93 395.85 339.26 C 390.09 335.56 383.94 332.48 378.09 328.92 C 379.66 324.46 379.36 319.73 378.24 315.22 C 378.78 314.81 379.33 314.39 379.87 313.97 C 379.42 310.85 381.12 306.69 378.35 304.39 C 378.66 302.55 378.99 300.72 379.33 298.89 Z" />
</g>
<g id="#689f63ff">
<path fill="#689f63" opacity="1.00" d=" M 364.70 305.26 C 367.18 303.88 369.65 302.47 372.11 301.05 C 374.20 302.15 376.29 303.23 378.35 304.39 C 381.12 306.69 379.42 310.85 379.87 313.97 C 379.33 314.39 378.78 314.81 378.24 315.22 C 376.28 316.51 374.21 317.61 372.15 318.71 C 369.56 317.27 367.02 315.76 364.52 314.19 C 364.46 311.21 364.53 308.23 364.70 305.26 Z" />
<path fill="#689f63" opacity="1.00" d=" M 219.37 350.34 C 221.83 348.69 225.17 348.60 227.66 350.24 C 238.44 356.45 249.20 362.69 259.98 368.91 C 262.64 370.23 264.60 372.97 264.32 376.04 C 264.33 388.69 264.33 401.35 264.32 414.00 C 264.55 417.01 262.59 419.68 259.99 420.99 C 249.18 427.21 238.39 433.48 227.57 439.71 C 225.32 441.15 222.30 441.35 220.01 439.90 C 215.82 437.49 211.67 435.00 207.55 432.49 C 209.72 431.47 211.88 430.43 214.03 429.38 C 217.27 431.23 220.42 433.21 223.70 434.99 C 235.21 428.30 246.76 421.68 258.27 414.99 C 258.33 401.65 258.28 388.30 258.29 374.96 C 246.86 368.17 235.24 361.69 223.79 354.93 C 212.06 361.40 200.53 368.25 188.93 374.95 C 188.91 388.27 188.91 401.59 188.93 414.91 C 192.63 417.00 196.16 419.45 200.07 421.16 C 202.94 422.53 206.94 420.46 206.71 417.10 C 206.83 404.03 206.61 390.96 206.81 377.89 C 208.82 377.87 210.84 377.87 212.85 377.91 C 213.03 390.29 212.86 402.67 212.94 415.06 C 212.96 418.12 212.97 421.45 211.07 424.05 C 208.54 427.67 203.51 428.29 199.51 427.32 C 194.97 425.95 191.11 423.09 186.99 420.85 C 184.42 419.57 182.65 416.87 182.87 413.95 C 182.85 401.29 182.85 388.63 182.86 375.97 C 182.64 373.05 184.39 370.34 186.95 369.06 C 197.76 362.83 208.57 356.59 219.37 350.34 Z" />
<path fill="#689f63" opacity="1.00" d=" M 269.50 373.76 C 269.10 368.78 274.94 365.35 279.28 367.60 C 280.80 369.10 282.47 370.82 282.48 373.12 C 282.77 375.69 280.92 377.70 279.21 379.34 C 275.05 381.24 269.60 378.51 269.50 373.76 M 274.19 368.30 C 270.32 369.43 269.26 375.10 272.46 377.56 C 275.52 380.50 281.22 378.15 281.41 373.94 C 281.96 370.13 277.73 366.91 274.19 368.30 Z" />
<path fill="#689f63" opacity="1.00" d=" M 222.21 379.19 C 228.43 375.98 236.14 376.21 242.62 378.51 C 247.08 380.14 249.23 384.83 249.66 389.28 C 247.65 389.81 245.58 389.75 243.52 389.67 C 242.68 387.15 241.56 384.20 238.68 383.50 C 234.77 382.52 230.50 382.40 226.66 383.67 C 223.85 384.37 222.63 389.17 225.81 390.17 C 232.66 392.53 240.44 391.57 246.93 395.11 C 252.91 398.72 251.54 408.63 245.60 411.64 C 239.08 415.06 231.08 414.74 224.18 412.72 C 219.05 411.27 215.75 406.14 216.12 400.90 C 218.12 400.78 220.13 400.73 222.13 400.74 C 222.77 403.38 223.65 406.52 226.65 407.30 C 231.33 408.57 236.53 408.70 241.17 407.21 C 244.01 406.43 245.48 401.78 242.60 400.21 C 235.78 397.07 227.55 399.01 220.98 395.08 C 215.35 391.51 216.44 382.09 222.21 379.19 Z" />
</g>
<g id="#3e863dff">
<path fill="#3e863d" opacity="1.00" d=" M 137.81 333.17 C 143.29 325.63 146.82 316.87 152.47 309.45 C 156.45 316.81 160.47 324.15 164.54 331.46 C 168.75 339.57 173.50 347.40 177.59 355.58 C 173.80 354.78 170.76 352.27 167.41 350.51 C 157.57 344.68 147.47 339.29 137.81 333.17 Z" />
</g>
<g id="#d9d9d9ff">
<path fill="#d9d9d9" opacity="1.00" d=" M 333.22 333.58 C 337.40 336.22 341.77 338.56 346.05 341.03 C 346.07 383.69 346.20 426.35 346.07 469.01 C 341.70 470.09 337.33 471.18 332.94 472.15 C 333.25 425.96 332.59 379.76 333.22 333.58 Z" />
<path fill="#d9d9d9" opacity="1.00" d=" M 280.02 483.98 C 288.95 483.08 297.83 481.73 306.73 480.62 C 307.49 480.83 309.00 481.25 309.75 481.46 C 310.34 493.63 309.80 505.81 309.93 517.99 C 310.16 531.99 310.06 545.99 309.90 559.99 C 309.75 569.31 310.31 578.63 309.95 587.94 C 309.83 590.83 310.19 593.72 310.72 596.56 L 310.74 596.71 C 299.45 598.29 288.16 600.17 276.77 600.88 C 279.39 600.22 282.05 599.68 284.74 599.30 C 285.16 586.53 284.69 573.74 285.01 560.96 C 285.28 549.97 284.75 538.98 284.89 527.99 C 284.79 513.48 285.19 498.98 284.79 484.48 C 283.20 484.30 281.61 484.10 280.02 483.98 Z" />
</g>
<g id="#f0f0f0ff">
<path fill="#f0f0f0" opacity="1.00" d=" M 290.62 347.53 C 296.96 343.87 303.29 340.20 309.65 336.58 C 310.31 348.70 309.71 360.84 309.88 372.97 C 309.91 403.64 309.87 434.31 309.87 464.98 C 310.04 468.75 308.97 472.99 311.32 476.29 L 311.38 476.41 C 304.60 477.30 297.85 478.45 291.06 479.25 C 291.16 451.16 291.03 423.08 291.09 394.99 C 290.86 379.17 291.64 363.32 290.62 347.53 Z" />
</g>
<g id="#cfcfcfff">
<path fill="#cfcfcf" opacity="1.00" d=" M 346.05 341.03 C 351.15 343.90 356.20 346.86 361.31 349.73 C 361.08 387.79 361.05 425.86 361.27 463.93 L 361.03 464.65 C 356.17 466.42 351.06 467.61 346.07 469.01 C 346.20 426.35 346.07 383.69 346.05 341.03 Z" />
</g>
<g id="#f7f7f7ff">
<path fill="#f7f7f7" opacity="1.00" d=" M 279.14 354.22 C 282.94 351.93 286.80 349.77 290.62 347.53 C 291.64 363.32 290.86 379.17 291.09 394.99 C 291.03 423.08 291.16 451.16 291.06 479.25 C 288.37 479.52 285.72 480.04 283.02 480.09 C 282.29 479.94 280.84 479.66 280.11 479.51 C 279.97 477.34 279.82 475.16 279.80 472.99 C 279.99 444.32 279.74 415.64 279.92 386.97 C 279.89 384.41 279.57 381.87 279.21 379.34 C 280.92 377.70 282.77 375.69 282.48 373.12 C 282.47 370.82 280.80 369.10 279.28 367.60 C 280.07 363.16 280.18 358.62 279.14 354.22 Z" />
</g>
<g id="#c4c4c4ff">
<path fill="#c4c4c4" opacity="1.00" d=" M 361.31 349.73 C 364.89 351.51 368.10 354.19 372.00 355.25 C 375.04 354.72 377.54 352.68 380.24 351.30 C 381.44 355.78 381.02 360.42 380.89 365.00 C 381.35 377.01 380.43 389.04 381.02 401.05 C 381.57 413.04 380.50 425.03 380.96 437.02 C 381.29 443.87 380.21 450.79 381.65 457.58 C 375.13 459.96 368.68 462.80 361.87 464.23 L 361.27 463.93 C 361.05 425.86 361.08 387.79 361.31 349.73 Z" />
</g>
<g id="#fcfcfcff">
<path fill="#fcfcfc" opacity="1.00" d=" M 274.19 368.30 C 277.73 366.91 281.96 370.13 281.41 373.94 C 281.22 378.15 275.52 380.50 272.46 377.56 C 269.26 375.10 270.32 369.43 274.19 368.30 M 273.53 369.73 C 273.53 372.18 273.54 374.64 273.55 377.10 L 274.96 377.12 C 275.03 376.31 275.16 374.67 275.22 373.85 C 277.79 373.65 276.14 377.77 278.87 377.27 C 278.63 376.02 278.40 374.76 278.18 373.51 C 278.59 372.30 278.76 371.05 278.16 369.88 C 276.61 369.83 275.07 369.78 273.53 369.73 Z" />
</g>
<g id="#78a973ff">
<path fill="#78a973" opacity="1.00" d=" M 273.53 369.73 C 275.07 369.78 276.61 369.83 278.16 369.88 C 278.76 371.05 278.59 372.30 278.18 373.51 C 278.40 374.76 278.63 376.02 278.87 377.27 C 276.14 377.77 277.79 373.65 275.22 373.85 C 275.16 374.67 275.03 376.31 274.96 377.12 L 273.55 377.10 C 273.54 374.64 273.53 372.18 273.53 369.73 M 275.14 371.15 C 274.61 372.77 275.17 373.32 276.81 372.78 C 277.34 371.16 276.78 370.62 275.14 371.15 Z" />
</g>
<g id="#f2f5f2ff">
<path fill="#f2f5f2" opacity="1.00" d=" M 275.14 371.15 C 276.78 370.62 277.34 371.16 276.81 372.78 C 275.17 373.32 274.61 372.77 275.14 371.15 Z" />
</g>
<g id="#a0a0a0ff">
<path fill="#a0a0a0" opacity="1.00" d=" M 442.79 419.69 C 444.55 417.27 445.66 414.41 447.63 412.14 C 447.98 445.73 447.67 479.33 447.79 512.92 C 448.79 528.84 438.62 543.22 426.53 552.55 C 426.20 549.72 425.90 546.88 425.87 544.03 C 426.04 519.67 425.80 495.31 426.00 470.96 C 425.68 459.84 426.32 448.70 425.55 437.60 L 425.53 437.30 C 432.18 432.43 438.10 426.48 442.79 419.69 Z" />
</g>
<g id="#a7a7a7ff">
<path fill="#a7a7a7" opacity="1.00" d=" M 397.77 454.24 C 407.49 449.52 416.86 444.04 425.55 437.60 C 426.32 448.70 425.68 459.84 426.00 470.96 C 425.80 495.31 426.04 519.67 425.87 544.03 C 425.90 546.88 426.20 549.72 426.53 552.55 L 426.56 552.81 C 417.38 560.21 407.27 566.40 396.60 571.40 C 395.60 555.27 396.39 539.09 396.19 522.94 C 396.10 503.62 396.26 484.31 396.12 464.99 C 396.16 461.38 395.57 457.39 397.77 454.24 Z" />
</g>
<g id="#b1b1b1ff">
<path fill="#b1b1b1" opacity="1.00" d=" M 376.90 463.12 C 383.90 460.28 390.96 457.54 397.77 454.24 C 395.57 457.39 396.16 461.38 396.12 464.99 C 396.26 484.31 396.10 503.62 396.19 522.94 C 396.39 539.09 395.60 555.27 396.60 571.40 C 390.12 574.44 383.52 577.26 376.79 579.71 C 378.58 578.30 380.34 576.53 379.90 574.04 C 379.78 537.19 380.08 500.33 379.75 463.49 C 379.04 463.40 377.61 463.21 376.90 463.12 Z" />
</g>
<g id="#bababaff">
<path fill="#bababa" opacity="1.00" d=" M 361.27 468.28 C 366.49 466.61 371.66 464.74 376.90 463.12 C 377.61 463.21 379.04 463.40 379.75 463.49 C 380.08 500.33 379.78 537.19 379.90 574.04 C 380.34 576.53 378.58 578.30 376.79 579.71 C 368.54 582.70 360.20 585.49 351.71 587.69 C 353.50 586.82 355.21 585.78 356.94 584.78 C 357.41 570.84 356.49 556.90 357.03 542.96 C 357.42 531.96 356.58 520.95 357.06 509.95 C 356.90 497.00 356.78 484.04 356.97 471.09 C 358.38 470.12 359.79 469.15 361.27 468.28 Z" />
</g>
<g id="#215210ff">
<path fill="#215210" opacity="1.00" d=" M 35.14 473.87 C 40.35 471.93 46.67 474.44 48.63 479.76 C 51.60 486.02 45.87 494.30 38.95 493.69 C 32.86 494.13 27.75 487.83 28.67 481.97 C 29.37 478.45 31.82 475.30 35.14 473.87 Z" />
</g>
<g id="#d0d0d0ff">
<path fill="#d0d0d0" opacity="1.00" d=" M 306.73 480.62 C 315.53 479.00 324.36 477.58 333.09 475.61 C 332.70 506.39 333.19 537.18 333.04 567.97 C 332.58 576.11 333.50 584.25 332.85 592.39 C 325.50 593.95 318.16 595.54 310.72 596.56 C 310.19 593.72 309.83 590.83 309.95 587.94 C 310.31 578.63 309.75 569.31 309.90 559.99 C 310.06 545.99 310.16 531.99 309.93 517.99 C 309.80 505.81 310.34 493.63 309.75 481.46 C 309.00 481.25 307.49 480.83 306.73 480.62 Z" />
</g>
<g id="#e5a200ff">
<path fill="#e5a200" opacity="1.00" d=" M 35.18 515.17 C 42.38 511.79 51.13 519.39 48.75 526.97 C 47.29 534.18 37.30 537.12 32.14 531.88 C 26.77 527.27 28.53 517.61 35.18 515.17 Z" />
</g>
</svg>
