<?xml version="1.0" encoding="UTF-8" ?>
<!DOCTYPE svg PUBLIC "-//W3C//DTD SVG 1.1//EN" "http://www.w3.org/Graphics/SVG/1.1/DTD/svg11.dtd">
<svg width="903pt" height="1214pt" viewBox="0 0 903 1214" version="1.1" xmlns="http://www.w3.org/2000/svg">
<g id="#000000ff">
<path fill="#000000" opacity="1.00" d=" M 433.73 0.00 L 465.37 0.00 C 548.39 1.41 631.73 10.69 711.76 33.41 C 749.61 44.31 786.83 58.22 821.07 77.86 C 845.64 92.23 869.29 109.61 885.80 133.16 C 895.59 147.06 902.02 163.49 903.00 180.55 L 903.00 1034.60 C 901.53 1053.66 893.40 1071.70 881.58 1086.57 C 863.11 1109.96 837.99 1127.02 812.06 1141.16 C 777.64 1159.58 740.64 1172.74 703.05 1183.03 C 625.71 1203.93 545.50 1212.65 465.53 1214.00 L 437.59 1214.00 C 356.01 1212.63 274.16 1203.61 195.40 1181.77 C 157.71 1171.18 120.64 1157.65 86.34 1138.64 C 66.58 1127.50 47.56 1114.62 31.69 1098.30 C 20.25 1086.52 10.44 1072.80 4.88 1057.25 C 2.26 1050.06 0.86 1042.49 0.00 1034.91 L 0.00 179.96 C 1.14 163.86 6.94 148.29 15.98 134.97 C 27.34 117.99 42.76 104.14 59.30 92.33 C 79.03 78.42 100.50 67.13 122.64 57.59 C 154.78 43.75 188.34 33.42 222.34 25.26 C 291.54 8.74 362.69 1.54 433.73 0.00 M 418.30 7.67 C 412.87 7.77 407.45 7.94 402.03 8.01 C 399.12 8.11 396.09 7.57 393.31 8.65 C 387.67 9.29 381.83 8.30 376.32 9.64 C 371.68 10.21 366.86 9.39 362.34 10.63 C 358.36 11.28 354.20 10.42 350.33 11.63 C 347.01 12.09 343.55 11.59 340.33 12.63 C 337.34 12.99 334.23 12.69 331.33 13.62 C 328.33 13.99 325.23 13.69 322.33 14.63 C 319.67 14.99 316.91 14.78 314.33 15.62 C 312.09 15.89 309.84 16.01 307.60 16.19 C 305.36 17.03 302.95 17.01 300.60 17.20 C 298.24 17.95 295.73 17.98 293.34 18.60 C 291.42 18.84 289.49 19.01 287.58 19.21 C 285.64 19.87 283.59 20.01 281.57 20.24 C 279.62 20.84 277.59 21.01 275.58 21.25 C 273.62 21.84 271.58 22.02 269.57 22.24 C 267.91 22.70 266.22 22.98 264.54 23.29 C 259.19 24.18 253.89 25.36 248.54 26.26 C 247.22 26.68 245.87 27.00 244.53 27.32 C 242.87 27.71 241.20 27.98 239.53 28.26 C 236.52 28.95 233.50 29.56 230.50 30.24 C 228.82 30.72 227.11 31.10 225.44 31.59 C 220.03 32.39 214.84 34.21 209.47 35.25 C 208.48 35.60 207.49 35.95 206.49 36.27 C 203.83 36.96 201.18 37.71 198.48 38.26 C 196.20 39.09 193.89 39.85 191.49 40.27 C 189.20 41.09 186.88 41.86 184.47 42.26 C 180.15 43.75 175.81 45.13 171.49 46.60 C 168.45 47.52 165.32 48.16 162.46 49.56 C 157.80 51.14 153.15 52.77 148.45 54.24 C 146.83 55.02 145.17 55.74 143.46 56.29 C 141.82 57.02 140.17 57.73 138.46 58.29 C 136.82 59.02 135.16 59.73 133.46 60.29 C 131.81 61.03 130.15 61.74 128.41 62.26 C 126.13 63.36 123.87 64.58 121.41 65.25 C 117.56 67.27 113.53 68.90 109.58 70.68 C 105.13 72.76 100.78 75.05 96.40 77.25 C 93.19 79.20 89.93 81.02 86.57 82.68 C 84.55 83.93 82.53 85.18 80.42 86.26 C 77.85 88.08 75.22 89.83 72.42 91.27 C 71.44 91.96 70.44 92.64 69.42 93.29 C 67.02 94.86 64.75 96.60 62.45 98.32 C 61.44 98.99 60.43 99.66 59.41 100.30 C 58.13 101.38 56.81 102.43 55.39 103.32 C 51.73 106.38 47.95 109.27 44.57 112.65 C 37.85 117.55 32.89 124.29 27.30 130.35 C 26.45 131.80 25.39 133.12 24.30 134.40 C 22.32 137.44 20.36 140.48 18.23 143.41 C 15.59 148.28 13.32 153.32 11.24 158.46 C 10.63 160.48 9.95 162.48 9.24 164.47 C 8.98 166.18 8.72 167.89 8.22 169.55 C 8.00 171.14 7.80 172.75 7.58 174.35 C 6.58 177.47 7.12 180.80 7.00 184.03 C 7.12 187.23 6.58 190.54 7.58 193.65 C 7.80 195.25 8.00 196.86 8.21 198.46 C 9.01 202.22 9.92 205.94 11.24 209.55 C 12.03 211.18 12.76 212.84 13.25 214.59 C 14.85 217.95 16.54 221.27 18.23 224.59 C 20.36 227.52 22.32 230.56 24.30 233.60 C 25.39 234.87 26.45 236.20 27.30 237.65 C 32.76 243.51 37.52 250.11 44.04 254.90 C 49.79 260.28 55.87 265.33 62.43 269.70 C 65.67 272.17 69.02 274.47 72.43 276.70 C 73.44 277.35 74.44 278.03 75.43 278.74 C 77.15 279.63 78.86 280.57 80.44 281.72 C 82.53 282.82 84.54 284.08 86.57 285.31 C 89.93 286.97 93.19 288.80 96.39 290.75 C 100.78 292.95 105.12 295.24 109.58 297.32 C 115.85 300.15 122.16 302.88 128.42 305.74 C 130.15 306.25 131.81 306.96 133.45 307.71 C 135.16 308.26 136.82 308.97 138.46 309.71 C 140.16 310.26 141.81 310.97 143.45 311.71 C 145.16 312.25 146.82 312.98 148.44 313.75 C 149.44 314.06 150.44 314.38 151.43 314.73 C 158.20 316.73 164.58 319.82 171.48 321.40 C 174.79 322.53 178.13 323.57 181.43 324.73 C 182.45 325.05 183.46 325.38 184.47 325.73 C 189.18 326.88 193.86 328.21 198.47 329.73 C 201.17 330.28 203.82 331.04 206.49 331.73 C 207.49 332.05 208.49 332.39 209.49 332.76 C 214.85 333.79 220.03 335.61 225.44 336.41 C 227.12 336.90 228.82 337.28 230.50 337.76 C 233.50 338.44 236.52 339.06 239.53 339.74 C 241.19 340.01 242.87 340.28 244.51 340.71 C 247.50 341.46 250.52 342.07 253.53 342.73 C 255.22 343.02 256.91 343.30 258.57 343.76 C 260.57 343.98 262.59 344.17 264.54 344.71 C 266.22 345.01 267.91 345.30 269.57 345.76 C 271.58 345.98 273.62 346.15 275.57 346.75 C 277.58 346.99 279.62 347.15 281.58 347.75 C 283.59 347.98 285.62 348.16 287.58 348.75 C 289.60 348.98 291.66 349.14 293.60 349.80 C 295.95 349.99 298.36 349.97 300.60 350.81 C 302.95 350.99 305.36 350.96 307.60 351.82 C 309.85 351.99 312.10 352.11 314.34 352.38 C 316.92 353.21 319.67 353.01 322.33 353.37 C 325.23 354.32 328.34 354.00 331.33 354.38 C 334.23 355.31 337.33 355.01 340.33 355.38 C 343.56 356.39 347.01 355.92 350.33 356.37 C 354.20 357.57 358.36 356.72 362.34 357.37 C 366.86 358.62 371.68 357.78 376.32 358.36 C 381.51 359.70 387.01 358.67 392.32 359.36 C 394.12 360.11 396.10 360.01 398.01 360.02 C 404.77 359.89 411.53 360.24 418.30 360.33 C 419.49 360.81 420.73 361.04 422.03 361.01 C 440.68 361.00 459.34 360.96 477.99 361.02 C 480.23 360.97 482.58 361.25 484.70 360.33 C 491.47 360.24 498.24 359.89 505.01 360.02 C 506.91 360.01 508.88 360.10 510.69 359.36 C 515.99 358.67 521.49 359.70 526.68 358.36 C 531.32 357.78 536.13 358.61 540.66 357.37 C 544.63 356.71 548.79 357.58 552.66 356.36 C 555.98 355.91 559.43 356.40 562.67 355.38 C 565.66 355.01 568.76 355.30 571.66 354.38 C 574.65 354.00 577.76 354.32 580.67 353.37 C 583.33 353.02 586.07 353.18 588.67 352.40 C 591.00 352.09 593.40 352.10 595.67 351.37 C 597.90 351.11 600.15 350.99 602.40 350.81 C 604.63 349.96 607.04 349.99 609.40 349.80 C 611.34 349.13 613.39 348.99 615.43 348.75 C 617.37 348.16 619.40 347.98 621.43 347.75 C 623.37 347.16 625.40 346.98 627.43 346.75 C 629.37 346.16 631.41 345.98 633.43 345.76 C 635.08 345.30 636.76 345.01 638.46 344.71 C 640.40 344.17 642.42 343.98 644.43 343.76 C 646.08 343.30 647.77 343.02 649.47 342.73 C 652.47 342.07 655.49 341.45 658.48 340.71 C 660.12 340.29 661.79 340.01 663.47 339.73 C 665.11 339.29 666.79 339.01 668.48 338.73 C 669.79 338.30 671.14 338.01 672.49 337.73 C 674.17 337.27 675.88 336.90 677.57 336.42 C 686.70 334.83 695.51 331.81 704.54 329.73 C 706.81 328.90 709.12 328.14 711.52 327.73 C 713.81 326.91 716.12 326.13 718.54 325.74 C 722.85 324.27 727.18 322.82 731.53 321.44 C 732.54 321.10 733.56 320.75 734.57 320.38 C 735.54 320.18 736.52 320.00 737.51 319.81 C 738.51 319.42 739.53 319.07 740.56 318.74 C 744.06 317.00 747.85 315.96 751.55 314.74 C 752.53 314.39 753.54 314.06 754.55 313.76 C 759.48 311.59 764.52 309.65 769.55 307.72 C 771.18 306.96 772.84 306.25 774.58 305.75 C 776.86 304.64 779.11 303.41 781.59 302.76 C 785.18 300.94 788.82 299.21 792.58 297.76 C 797.55 295.32 802.51 292.87 807.42 290.30 C 810.31 288.45 813.36 286.87 816.43 285.32 C 818.45 284.08 820.46 282.82 822.56 281.72 C 824.13 280.56 825.84 279.63 827.58 278.74 C 829.54 277.34 831.54 276.00 833.59 274.72 C 835.97 273.14 838.24 271.38 840.57 269.70 C 848.77 264.37 855.88 257.61 863.26 251.26 C 867.85 247.12 871.44 242.09 875.70 237.65 C 876.55 236.20 877.60 234.87 878.70 233.60 C 879.99 231.56 881.33 229.56 882.69 227.57 C 883.35 226.55 884.04 225.55 884.78 224.58 C 886.46 221.27 888.15 217.95 889.75 214.59 C 890.23 212.84 890.96 211.18 891.75 209.55 C 892.37 207.53 893.04 205.52 893.76 203.53 C 894.01 201.82 894.27 200.11 894.78 198.45 C 894.99 196.85 895.19 195.25 895.42 193.66 C 896.41 190.54 895.88 187.22 896.00 184.01 C 895.87 180.80 896.42 177.47 895.42 174.35 C 895.19 172.75 894.99 171.15 894.78 169.55 C 894.28 167.90 894.01 166.19 893.77 164.49 C 893.04 162.49 892.37 160.48 891.75 158.45 C 890.96 156.82 890.23 155.16 889.75 153.41 C 888.15 150.05 886.47 146.73 884.78 143.42 C 884.04 142.44 883.35 141.45 882.69 140.43 C 881.33 138.44 879.99 136.43 878.70 134.40 C 877.60 133.12 876.55 131.80 875.70 130.35 C 871.30 125.72 867.53 120.53 862.76 116.25 C 857.64 112.01 852.85 107.42 847.61 103.32 C 846.18 102.43 844.87 101.38 843.60 100.30 C 842.56 99.66 841.54 98.99 840.55 98.32 C 837.34 95.81 833.97 93.54 830.57 91.30 C 829.55 90.65 828.54 89.96 827.57 89.26 C 825.84 88.37 824.13 87.43 822.56 86.28 C 820.46 85.17 818.45 83.92 816.43 82.68 C 813.07 81.02 809.80 79.20 806.60 77.25 C 801.94 74.89 797.30 72.49 792.57 70.28 C 792.07 70.04 791.07 69.55 790.57 69.31 C 787.42 68.33 784.56 66.65 781.59 65.25 C 777.47 63.86 773.61 61.81 769.55 60.29 C 767.83 59.74 766.18 59.02 764.55 58.29 C 762.83 57.73 761.18 57.02 759.54 56.29 C 757.82 55.74 756.16 55.02 754.55 54.24 C 749.84 52.77 745.20 51.14 740.53 49.57 C 738.63 48.64 736.64 47.91 734.56 47.55 C 733.55 47.21 732.54 46.88 731.53 46.57 C 729.20 45.83 726.87 45.09 724.58 44.26 C 720.29 42.69 715.83 41.72 711.52 40.26 C 710.18 39.94 708.84 39.63 707.54 39.25 C 703.90 38.08 700.18 37.25 696.51 36.27 C 695.50 35.95 694.52 35.61 693.54 35.25 C 688.17 34.20 682.97 32.40 677.55 31.59 C 675.87 31.10 674.17 30.72 672.50 30.24 C 669.49 29.56 666.47 28.94 663.47 28.26 C 661.79 27.98 660.12 27.71 658.48 27.29 C 655.49 26.54 652.47 25.94 649.47 25.27 C 647.77 24.98 646.08 24.70 644.43 24.24 C 642.42 24.02 640.41 23.82 638.46 23.29 C 636.77 22.98 635.08 22.70 633.43 22.24 C 631.41 22.02 629.37 21.84 627.43 21.24 C 625.40 21.01 623.37 20.84 621.43 20.25 C 619.40 20.01 617.37 19.84 615.42 19.25 C 613.39 19.01 611.34 18.87 609.40 18.20 C 607.04 18.01 604.64 18.03 602.40 17.20 C 600.04 17.00 597.63 17.04 595.40 16.19 C 593.15 16.01 590.90 15.89 588.66 15.62 C 586.08 14.79 583.33 14.98 580.67 14.63 C 577.76 13.69 574.66 13.99 571.66 13.62 C 568.76 12.69 565.66 12.99 562.67 12.62 C 559.44 11.60 555.99 12.08 552.67 11.63 C 548.79 10.42 544.63 11.29 540.66 10.63 C 536.13 9.39 531.32 10.21 526.69 9.64 C 521.16 8.31 515.33 9.28 509.69 8.65 C 508.20 8.03 506.59 7.97 505.01 7.98 C 498.23 8.09 491.47 7.76 484.70 7.67 C 483.51 7.19 482.28 6.96 481.00 6.99 C 462.67 7.01 444.34 7.03 426.01 6.99 C 423.43 7.06 420.74 6.64 418.30 7.67 M 8.05 219.48 C 7.93 409.65 8.04 599.82 7.99 789.99 C 7.45 809.12 16.20 827.29 27.83 842.02 C 41.64 859.40 59.45 873.13 78.20 884.80 C 110.28 904.50 145.57 918.45 181.46 929.50 C 214.33 939.61 247.96 947.09 281.87 952.73 C 338.42 961.96 395.73 966.40 453.02 966.00 C 495.83 966.29 538.61 963.53 581.10 958.47 C 628.59 952.59 675.80 943.57 721.58 929.49 C 757.69 918.37 793.19 904.31 825.43 884.41 C 844.27 872.60 862.20 858.69 875.93 841.04 C 886.39 827.54 894.27 811.29 895.00 794.01 C 894.97 602.50 895.06 410.99 894.95 219.48 C 887.53 234.09 877.32 247.15 865.27 258.22 C 841.19 280.38 812.17 296.40 782.38 309.53 C 741.54 327.31 698.46 339.48 654.89 348.45 C 606.48 358.30 557.27 364.08 507.94 366.58 C 452.95 369.32 397.74 368.12 342.94 362.68 C 275.32 355.75 207.87 342.91 144.05 319.06 C 110.81 306.42 78.30 290.74 50.12 268.81 C 32.98 255.43 17.85 239.04 8.05 219.48 M 7.64 825.21 C 7.74 895.50 7.65 965.78 7.68 1036.07 C 7.91 1040.48 9.17 1044.77 9.95 1049.11 C 10.67 1051.10 11.31 1053.13 11.97 1055.15 C 12.72 1056.92 13.42 1058.72 13.93 1060.60 L 14.90 1060.71 C 14.77 1061.15 14.51 1062.02 14.39 1062.46 C 14.76 1062.57 15.52 1062.78 15.90 1062.88 L 15.55 1064.01 C 17.00 1066.03 18.18 1068.22 19.37 1070.42 C 22.71 1075.99 26.68 1081.15 30.76 1086.20 C 36.01 1092.06 41.56 1097.68 47.47 1102.88 L 47.57 1103.05 C 49.63 1104.52 51.49 1106.23 53.44 1107.86 L 53.59 1108.04 C 54.99 1109.02 56.34 1110.09 57.69 1111.16 C 60.39 1113.14 63.09 1115.12 65.79 1117.12 C 66.76 1117.75 67.73 1118.42 68.69 1119.10 C 69.99 1119.91 71.27 1120.78 72.58 1121.61 C 75.21 1123.32 77.89 1124.98 80.57 1126.63 C 82.23 1127.63 83.90 1128.62 85.59 1129.61 C 87.66 1130.76 89.73 1131.93 91.77 1133.16 C 101.04 1138.23 110.68 1142.58 120.06 1147.43 L 121.28 1147.00 C 121.32 1147.28 121.41 1147.83 121.45 1148.11 C 123.78 1148.73 126.02 1149.67 128.27 1150.55 C 128.32 1150.70 128.41 1151.00 128.46 1151.15 C 130.04 1151.52 131.60 1152.00 133.16 1152.47 C 133.25 1152.63 133.42 1152.94 133.50 1153.10 C 135.34 1153.60 137.10 1154.30 138.85 1155.08 C 140.29 1155.57 141.74 1156.06 143.20 1156.55 C 143.27 1156.71 143.40 1157.04 143.47 1157.20 C 145.20 1157.54 146.91 1158.00 148.63 1158.44 L 148.27 1159.14 C 149.48 1159.34 150.68 1159.60 151.87 1159.93 C 155.36 1161.29 158.89 1162.58 162.50 1163.58 L 162.32 1164.46 C 163.11 1164.40 164.68 1164.29 165.47 1164.23 L 165.34 1165.13 C 169.95 1165.87 174.29 1167.66 178.73 1169.05 C 179.77 1169.33 180.81 1169.63 181.84 1169.96 C 182.86 1170.28 183.87 1170.62 184.88 1171.00 C 186.15 1171.30 187.43 1171.64 188.70 1172.02 C 189.76 1172.30 190.82 1172.62 191.88 1172.97 C 194.23 1173.58 196.57 1174.25 198.88 1175.00 C 202.55 1175.96 206.23 1176.91 209.87 1178.01 C 211.21 1178.30 212.56 1178.61 213.90 1178.98 C 215.22 1179.28 216.56 1179.60 217.88 1179.96 C 219.22 1180.28 220.57 1180.63 221.90 1181.04 C 224.85 1181.59 227.78 1182.27 230.68 1183.08 C 232.08 1183.32 233.49 1183.64 234.88 1184.01 C 236.45 1184.31 238.04 1184.64 239.59 1185.08 C 244.31 1186.08 249.13 1186.76 253.75 1188.20 C 254.61 1188.25 256.34 1188.35 257.20 1188.40 C 257.52 1188.61 258.17 1189.03 258.49 1189.24 C 263.14 1189.38 267.62 1190.78 272.21 1191.42 C 308.20 1197.85 344.55 1201.89 380.97 1204.32 C 387.02 1204.05 392.96 1205.54 399.00 1205.33 C 404.00 1205.20 408.98 1205.64 413.97 1205.84 C 424.97 1206.72 436.02 1206.17 447.04 1206.32 C 462.40 1206.17 477.77 1206.78 493.10 1205.65 C 499.72 1205.00 506.40 1205.78 512.98 1204.78 C 518.60 1204.08 524.29 1204.61 529.88 1203.67 C 556.47 1202.15 582.88 1198.62 609.29 1195.14 C 622.60 1192.75 635.98 1190.62 649.27 1188.03 C 650.91 1187.57 652.58 1187.30 654.28 1187.06 C 658.86 1185.88 663.50 1184.95 668.14 1184.05 C 672.43 1182.90 676.78 1181.97 681.12 1181.00 C 682.43 1180.61 683.76 1180.28 685.10 1179.98 C 686.43 1179.61 687.75 1179.28 689.10 1178.98 C 690.43 1178.61 691.77 1178.29 693.12 1178.00 C 696.76 1176.90 700.45 1175.97 704.13 1175.00 C 705.18 1174.63 706.23 1174.30 707.30 1174.00 C 708.57 1173.65 709.83 1173.31 711.12 1173.01 C 713.42 1172.25 715.75 1171.54 718.13 1171.06 C 719.11 1170.63 720.12 1170.26 721.16 1169.95 C 722.19 1169.61 723.22 1169.31 724.28 1169.05 C 726.33 1168.32 728.41 1167.67 730.50 1167.04 C 732.82 1166.21 735.18 1165.43 737.65 1165.14 L 737.55 1164.23 C 738.33 1164.28 739.89 1164.40 740.68 1164.46 L 740.50 1163.58 C 744.11 1162.57 747.64 1161.30 751.12 1159.93 C 752.30 1159.60 753.50 1159.34 754.73 1159.14 L 754.39 1158.53 C 755.97 1158.06 757.55 1157.55 759.14 1157.08 C 760.79 1156.34 762.47 1155.66 764.16 1155.00 C 765.91 1154.30 767.68 1153.63 769.49 1153.08 C 769.58 1152.96 769.76 1152.73 769.85 1152.61 C 771.96 1151.83 774.06 1150.98 776.13 1150.11 C 777.89 1149.29 779.68 1148.54 781.57 1148.08 C 781.61 1147.81 781.68 1147.26 781.71 1146.99 L 782.94 1147.43 C 792.32 1142.57 801.99 1138.24 811.26 1133.13 C 813.28 1131.91 815.34 1130.76 817.41 1129.61 C 819.08 1128.62 820.76 1127.64 822.42 1126.63 C 825.11 1124.99 827.78 1123.33 830.42 1121.61 C 831.71 1120.78 832.99 1119.92 834.29 1119.11 C 835.25 1118.43 836.21 1117.75 837.20 1117.12 C 841.30 1114.15 845.33 1111.06 849.42 1108.06 L 849.56 1107.86 C 851.50 1106.23 853.37 1104.52 855.43 1103.05 L 855.53 1102.88 C 861.44 1097.68 866.99 1092.05 872.25 1086.20 C 876.29 1081.12 880.32 1076.02 883.63 1070.42 C 884.81 1068.23 886.00 1066.04 887.44 1064.02 L 887.11 1062.88 C 887.48 1062.78 888.23 1062.57 888.60 1062.47 C 888.48 1062.03 888.24 1061.16 888.11 1060.72 L 889.07 1060.60 C 889.57 1058.73 890.27 1056.94 891.01 1055.17 C 891.33 1054.15 891.66 1053.15 892.02 1052.17 C 892.31 1051.13 892.65 1050.10 893.03 1049.10 C 893.91 1044.11 895.61 1039.19 895.35 1034.06 C 895.32 964.45 895.28 894.83 895.37 825.21 L 893.87 825.34 C 893.64 825.96 893.20 827.20 892.97 827.83 C 890.02 833.40 886.75 838.81 882.91 843.82 C 880.05 847.71 877.02 851.50 873.47 854.79 L 873.51 855.18 C 873.20 855.56 872.59 856.33 872.28 856.72 L 871.95 856.53 C 871.33 857.36 870.70 858.19 870.06 859.02 C 869.35 859.65 868.64 860.29 867.96 860.95 C 867.27 861.60 866.58 862.26 865.90 862.92 C 865.61 863.11 865.01 863.48 864.71 863.67 C 862.12 866.09 859.69 868.72 856.83 870.84 C 855.14 872.16 853.54 873.58 851.84 874.88 C 849.18 876.93 846.55 879.03 843.75 880.89 C 840.13 883.57 836.38 886.06 832.55 888.44 C 829.88 890.07 827.23 891.75 824.59 893.43 C 821.58 895.15 818.57 896.88 815.60 898.67 L 814.98 898.60 C 811.76 900.98 808.05 902.55 804.54 904.44 C 803.19 905.09 801.86 905.75 800.54 906.44 C 797.19 907.98 794.02 910.00 790.41 910.90 L 790.38 911.95 C 789.94 911.81 789.04 911.53 788.60 911.39 C 788.48 911.65 788.26 912.16 788.14 912.41 C 785.37 913.57 782.62 914.78 779.87 915.98 C 778.11 916.76 776.33 917.53 774.44 917.91 C 774.43 918.05 774.41 918.34 774.40 918.48 C 772.16 919.20 769.98 920.09 767.80 920.95 C 766.14 921.63 764.48 922.32 762.84 923.05 C 761.69 923.33 760.54 923.60 759.39 923.85 L 759.35 924.43 C 756.82 925.20 754.31 926.07 751.88 927.12 C 750.70 927.39 749.53 927.63 748.35 927.85 L 748.51 928.67 C 748.04 928.70 747.09 928.75 746.62 928.78 C 739.49 931.53 732.19 933.86 724.86 936.00 C 721.57 937.15 718.23 938.15 714.86 939.02 C 713.82 939.36 712.78 939.70 711.74 940.03 C 710.45 940.37 709.14 940.66 707.85 940.99 C 704.23 942.16 700.56 943.16 696.84 943.99 C 694.43 944.72 692.01 945.38 689.55 945.90 C 683.93 947.31 678.34 948.97 672.60 949.79 C 672.20 949.97 671.39 950.32 670.99 950.50 C 668.52 950.90 666.11 951.52 663.66 951.94 C 662.03 952.39 660.36 952.67 658.71 952.98 C 653.66 954.05 648.64 955.49 643.46 955.76 C 643.11 955.98 642.40 956.42 642.05 956.64 C 641.21 956.67 639.54 956.74 638.71 956.77 C 635.54 957.80 632.21 958.13 628.96 958.74 C 591.21 965.28 553.11 969.34 514.93 971.68 C 509.26 971.47 503.64 972.33 497.99 972.64 C 479.01 972.59 460.04 974.20 441.06 973.49 C 428.70 973.29 416.37 972.60 404.02 972.59 C 395.38 971.46 386.64 972.10 378.02 970.86 C 364.09 970.27 350.25 968.68 336.35 967.49 C 312.27 964.53 288.06 961.75 264.29 956.77 C 263.45 956.74 261.78 956.67 260.95 956.64 C 260.59 956.42 259.88 955.98 259.52 955.76 C 254.35 955.48 249.33 954.06 244.28 952.97 C 242.62 952.66 240.96 952.39 239.34 951.94 C 236.88 951.52 234.48 950.90 232.02 950.50 C 231.64 950.33 230.86 950.00 230.47 949.83 C 229.03 949.61 227.61 949.39 226.20 949.04 C 222.52 948.21 218.87 947.23 215.17 946.49 C 214.78 946.33 213.99 946.01 213.59 945.84 C 211.07 945.42 208.59 944.75 206.15 943.99 C 202.44 943.15 198.76 942.16 195.14 940.99 C 193.84 940.66 192.55 940.37 191.26 940.03 C 190.21 939.70 189.18 939.37 188.14 939.03 C 184.78 938.14 181.44 937.15 178.16 936.00 C 170.81 933.85 163.50 931.53 156.36 928.77 C 155.89 928.75 154.96 928.70 154.49 928.68 L 154.66 927.85 C 153.47 927.63 152.29 927.39 151.12 927.13 C 148.71 926.09 146.24 925.23 143.74 924.44 C 143.69 924.30 143.59 924.03 143.54 923.89 C 140.63 923.30 137.91 922.11 135.21 920.95 C 132.99 920.07 130.77 919.18 128.51 918.44 L 128.61 917.89 C 126.57 917.63 124.72 916.72 123.00 915.65 C 122.63 915.71 121.89 915.85 121.52 915.92 L 121.63 914.92 C 119.28 914.39 117.09 913.38 114.90 912.44 C 114.77 912.30 114.52 912.02 114.40 911.88 C 110.93 910.74 107.74 908.96 104.44 907.43 C 103.95 907.18 102.96 906.68 102.46 906.43 C 101.13 905.75 99.79 905.09 98.46 904.44 C 94.95 902.55 91.26 900.97 88.03 898.61 L 87.41 898.66 C 84.43 896.88 81.42 895.16 78.41 893.43 C 75.77 891.74 73.12 890.07 70.45 888.44 C 66.62 886.06 62.86 883.58 59.25 880.89 C 56.45 879.03 53.82 876.92 51.16 874.88 C 49.45 873.59 47.86 872.16 46.18 870.85 C 43.31 868.72 40.88 866.09 38.29 863.67 C 37.99 863.48 37.39 863.10 37.09 862.92 C 36.40 862.25 35.71 861.60 35.02 860.96 C 33.31 859.34 31.67 857.64 30.16 855.84 C 29.96 855.56 29.55 855.00 29.35 854.72 C 25.94 851.37 22.89 847.69 20.09 843.82 C 16.25 838.81 12.96 833.40 10.05 827.81 C 9.82 827.19 9.36 825.96 9.13 825.34 L 7.64 825.21 Z" />
</g>
<g id="#e3e3e3ff">
<path fill="#e3e3e3" opacity="1.00" d=" M 418.30 7.67 C 420.74 6.64 423.43 7.06 426.01 6.99 C 444.34 7.03 462.67 7.01 481.00 6.99 C 482.28 6.96 483.51 7.19 484.70 7.67 C 491.47 7.76 498.23 8.09 505.01 7.98 C 506.59 7.97 508.20 8.03 509.69 8.65 C 515.33 9.28 521.16 8.31 526.69 9.64 C 531.32 10.21 536.13 9.39 540.66 10.63 C 544.63 11.29 548.79 10.42 552.67 11.63 C 555.99 12.08 559.44 11.60 562.67 12.62 C 565.66 12.99 568.76 12.69 571.66 13.62 C 574.66 13.99 577.76 13.69 580.67 14.63 C 583.33 14.98 586.08 14.79 588.66 15.62 C 590.90 15.89 593.15 16.01 595.40 16.19 C 597.63 17.04 600.04 17.00 602.40 17.20 C 604.64 18.03 607.04 18.01 609.40 18.20 C 611.34 18.87 613.39 19.01 615.42 19.25 C 617.37 19.84 619.40 20.01 621.43 20.25 C 623.37 20.84 625.40 21.01 627.43 21.24 C 629.37 21.84 631.41 22.02 633.43 22.24 C 635.08 22.70 636.77 22.98 638.46 23.29 C 640.41 23.82 642.42 24.02 644.43 24.24 C 646.08 24.70 647.77 24.98 649.47 25.27 C 652.47 25.94 655.49 26.54 658.48 27.29 C 660.12 27.71 661.79 27.98 663.47 28.26 C 666.47 28.94 669.49 29.56 672.50 30.24 C 674.17 30.72 675.87 31.10 677.55 31.59 C 682.97 32.40 688.17 34.20 693.54 35.25 C 694.52 35.61 695.50 35.95 696.51 36.27 C 700.18 37.25 703.90 38.08 707.54 39.25 C 708.84 39.63 710.18 39.94 711.52 40.26 C 715.83 41.72 720.29 42.69 724.58 44.26 C 726.87 45.09 729.20 45.83 731.53 46.57 C 732.54 46.88 733.55 47.21 734.56 47.55 C 736.64 47.91 738.63 48.64 740.53 49.57 C 745.20 51.14 749.84 52.77 754.55 54.24 C 756.16 55.02 757.82 55.74 759.54 56.29 C 761.18 57.02 762.83 57.73 764.55 58.29 C 766.18 59.02 767.83 59.74 769.55 60.29 C 773.61 61.81 777.47 63.86 781.59 65.25 C 784.56 66.65 787.42 68.33 790.57 69.31 C 791.07 69.55 792.07 70.04 792.57 70.28 C 797.30 72.49 801.94 74.89 806.60 77.25 C 809.80 79.20 813.07 81.02 816.43 82.68 C 818.45 83.92 820.46 85.17 822.56 86.28 C 824.13 87.43 825.84 88.37 827.57 89.26 C 828.54 89.96 829.55 90.65 830.57 91.30 C 833.97 93.54 837.34 95.81 840.55 98.32 C 841.54 98.99 842.56 99.66 843.60 100.30 C 844.87 101.38 846.18 102.43 847.61 103.32 C 852.85 107.42 857.64 112.01 862.76 116.25 C 867.53 120.53 871.30 125.72 875.70 130.35 C 876.55 131.80 877.60 133.12 878.70 134.40 C 879.99 136.43 881.33 138.44 882.69 140.43 C 883.35 141.45 884.04 142.44 884.78 143.42 C 886.47 146.73 888.15 150.05 889.75 153.41 C 890.23 155.16 890.96 156.82 891.75 158.45 C 892.37 160.48 893.04 162.49 893.77 164.49 C 894.01 166.19 894.28 167.90 894.78 169.55 C 894.99 171.15 895.19 172.75 895.42 174.35 C 896.42 177.47 895.87 180.80 896.00 184.01 C 895.88 187.22 896.41 190.54 895.42 193.66 C 895.19 195.25 894.99 196.85 894.78 198.45 C 894.27 200.11 894.01 201.82 893.76 203.53 C 893.04 205.52 892.37 207.53 891.75 209.55 C 890.96 211.18 890.23 212.84 889.75 214.59 C 888.15 217.95 886.46 221.27 884.78 224.58 C 884.04 225.55 883.35 226.55 882.69 227.57 C 881.33 229.56 879.99 231.56 878.70 233.60 C 877.60 234.87 876.55 236.20 875.70 237.65 C 871.44 242.09 867.85 247.12 863.26 251.26 C 855.88 257.61 848.77 264.37 840.57 269.70 C 838.24 271.38 835.97 273.14 833.59 274.72 C 831.54 276.00 829.54 277.34 827.58 278.74 C 825.84 279.63 824.13 280.56 822.56 281.72 C 820.46 282.82 818.45 284.08 816.43 285.32 C 813.36 286.87 810.31 288.45 807.42 290.30 C 802.51 292.87 797.55 295.32 792.58 297.76 C 788.82 299.21 785.18 300.94 781.59 302.76 C 779.11 303.41 776.86 304.64 774.58 305.75 C 772.84 306.25 771.18 306.96 769.55 307.72 C 764.52 309.65 759.48 311.59 754.55 313.76 C 753.54 314.06 752.53 314.39 751.55 314.74 C 747.85 315.96 744.06 317.00 740.56 318.74 C 739.53 319.07 738.51 319.42 737.51 319.81 C 736.52 320.00 735.54 320.18 734.57 320.38 C 733.56 320.75 732.54 321.10 731.53 321.44 C 727.18 322.82 722.85 324.27 718.54 325.74 C 716.12 326.13 713.81 326.91 711.52 327.73 C 709.12 328.14 706.81 328.90 704.54 329.73 C 695.51 331.81 686.70 334.83 677.57 336.42 C 675.88 336.90 674.17 337.27 672.49 337.73 C 671.14 338.01 669.79 338.30 668.48 338.73 C 666.79 339.01 665.11 339.29 663.47 339.73 C 661.79 340.01 660.12 340.29 658.48 340.71 C 655.49 341.45 652.47 342.07 649.47 342.73 C 647.77 343.02 646.08 343.30 644.43 343.76 C 642.42 343.98 640.40 344.17 638.46 344.71 C 636.76 345.01 635.08 345.30 633.43 345.76 C 631.41 345.98 629.37 346.16 627.43 346.75 C 625.40 346.98 623.37 347.16 621.43 347.75 C 619.40 347.98 617.37 348.16 615.43 348.75 C 613.39 348.99 611.34 349.13 609.40 349.80 C 607.04 349.99 604.63 349.96 602.40 350.81 C 600.15 350.99 597.90 351.11 595.67 351.37 C 593.40 352.10 591.00 352.09 588.67 352.40 C 586.07 353.18 583.33 353.02 580.67 353.37 C 577.76 354.32 574.65 354.00 571.66 354.38 C 568.76 355.30 565.66 355.01 562.67 355.38 C 559.43 356.40 555.98 355.91 552.66 356.36 C 548.79 357.58 544.63 356.71 540.66 357.37 C 536.13 358.61 531.32 357.78 526.68 358.36 C 521.49 359.70 515.99 358.67 510.69 359.36 C 508.88 360.10 506.91 360.01 505.01 360.02 C 498.24 359.89 491.47 360.24 484.70 360.33 C 482.58 361.25 480.23 360.97 477.99 361.02 C 459.34 360.96 440.68 361.00 422.03 361.01 C 420.73 361.04 419.49 360.81 418.30 360.33 C 411.53 360.24 404.77 359.89 398.01 360.02 C 396.10 360.01 394.12 360.11 392.32 359.36 C 387.01 358.67 381.51 359.70 376.32 358.36 C 371.68 357.78 366.86 358.62 362.34 357.37 C 358.36 356.72 354.20 357.57 350.33 356.37 C 347.01 355.92 343.56 356.39 340.33 355.38 C 337.33 355.01 334.23 355.31 331.33 354.38 C 328.34 354.00 325.23 354.32 322.33 353.37 C 319.67 353.01 316.92 353.21 314.34 352.38 C 312.10 352.11 309.85 351.99 307.60 351.82 C 305.36 350.96 302.95 350.99 300.60 350.81 C 298.36 349.97 295.95 349.99 293.60 349.80 C 291.66 349.14 289.60 348.98 287.58 348.75 C 285.62 348.16 283.59 347.98 281.58 347.75 C 279.62 347.15 277.58 346.99 275.57 346.75 C 273.62 346.15 271.58 345.98 269.57 345.76 C 267.91 345.30 266.22 345.01 264.54 344.71 C 262.59 344.17 260.57 343.98 258.57 343.76 C 256.91 343.30 255.22 343.02 253.53 342.73 C 250.52 342.07 247.50 341.46 244.51 340.71 C 242.87 340.28 241.19 340.01 239.53 339.74 C 236.52 339.06 233.50 338.44 230.50 337.76 C 228.82 337.28 227.12 336.90 225.44 336.41 C 220.03 335.61 214.85 333.79 209.49 332.76 C 208.49 332.39 207.49 332.05 206.49 331.73 C 203.82 331.04 201.17 330.28 198.47 329.73 C 193.86 328.21 189.18 326.88 184.47 325.73 C 183.46 325.38 182.45 325.05 181.43 324.73 C 178.13 323.57 174.79 322.53 171.48 321.40 C 164.58 319.82 158.20 316.73 151.43 314.73 C 150.44 314.38 149.44 314.06 148.44 313.75 C 146.82 312.98 145.16 312.25 143.45 311.71 C 141.81 310.97 140.16 310.26 138.46 309.71 C 136.82 308.97 135.16 308.26 133.45 307.71 C 131.81 306.96 130.15 306.25 128.42 305.74 C 122.16 302.88 115.85 300.15 109.58 297.32 C 105.12 295.24 100.78 292.95 96.39 290.75 C 93.19 288.80 89.93 286.97 86.57 285.31 C 84.54 284.08 82.53 282.82 80.44 281.72 C 78.86 280.57 77.15 279.63 75.43 278.74 C 74.44 278.03 73.44 277.35 72.43 276.70 C 69.02 274.47 65.67 272.17 62.43 269.70 C 55.87 265.33 49.79 260.28 44.04 254.90 C 37.52 250.11 32.76 243.51 27.30 237.65 C 26.45 236.20 25.39 234.87 24.30 233.60 C 22.32 230.56 20.36 227.52 18.23 224.59 C 16.54 221.27 14.85 217.95 13.25 214.59 C 12.76 212.84 12.03 211.18 11.24 209.55 C 9.92 205.94 9.01 202.22 8.21 198.46 C 8.00 196.86 7.80 195.25 7.58 193.65 C 6.58 190.54 7.12 187.23 7.00 184.03 C 7.12 180.80 6.58 177.47 7.58 174.35 C 7.80 172.75 8.00 171.14 8.22 169.55 C 8.72 167.89 8.98 166.18 9.24 164.47 C 9.95 162.48 10.63 160.48 11.24 158.46 C 13.32 153.32 15.59 148.28 18.23 143.41 C 20.36 140.48 22.32 137.44 24.30 134.40 C 25.39 133.12 26.45 131.80 27.30 130.35 C 32.89 124.29 37.85 117.55 44.57 112.65 C 47.95 109.27 51.73 106.38 55.39 103.32 C 56.81 102.43 58.13 101.38 59.41 100.30 C 60.43 99.66 61.44 98.99 62.45 98.32 C 64.75 96.60 67.02 94.86 69.42 93.29 C 70.44 92.64 71.44 91.96 72.42 91.27 C 75.22 89.83 77.85 88.08 80.42 86.26 C 82.53 85.18 84.55 83.93 86.57 82.68 C 89.93 81.02 93.19 79.20 96.40 77.25 C 100.78 75.05 105.13 72.76 109.58 70.68 C 113.53 68.90 117.56 67.27 121.41 65.25 C 123.87 64.58 126.13 63.36 128.41 62.26 C 130.15 61.74 131.81 61.03 133.46 60.29 C 135.16 59.73 136.82 59.02 138.46 58.29 C 140.17 57.73 141.82 57.02 143.46 56.29 C 145.17 55.74 146.83 55.02 148.45 54.24 C 153.15 52.77 157.80 51.14 162.46 49.56 C 165.32 48.16 168.45 47.52 171.49 46.60 C 175.81 45.13 180.15 43.75 184.47 42.26 C 186.88 41.86 189.20 41.09 191.49 40.27 C 193.89 39.85 196.20 39.09 198.48 38.26 C 201.18 37.71 203.83 36.96 206.49 36.27 C 207.49 35.95 208.48 35.60 209.47 35.25 C 214.84 34.21 220.03 32.39 225.44 31.59 C 227.11 31.10 228.82 30.72 230.50 30.24 C 233.50 29.56 236.52 28.95 239.53 28.26 C 241.20 27.98 242.87 27.71 244.53 27.32 C 245.87 27.00 247.22 26.68 248.54 26.26 C 253.89 25.36 259.19 24.18 264.54 23.29 C 266.22 22.98 267.91 22.70 269.57 22.24 C 271.58 22.02 273.62 21.84 275.58 21.25 C 277.59 21.01 279.62 20.84 281.57 20.24 C 283.59 20.01 285.64 19.87 287.58 19.21 C 289.49 19.01 291.42 18.84 293.34 18.60 C 295.73 17.98 298.24 17.95 300.60 17.20 C 302.95 17.01 305.36 17.03 307.60 16.19 C 309.84 16.01 312.09 15.89 314.33 15.62 C 316.91 14.78 319.67 14.99 322.33 14.63 C 325.23 13.69 328.33 13.99 331.33 13.62 C 334.23 12.69 337.34 12.99 340.33 12.63 C 343.55 11.59 347.01 12.09 350.33 11.63 C 354.20 10.42 358.36 11.28 362.34 10.63 C 366.86 9.39 371.68 10.21 376.32 9.64 C 381.83 8.30 387.67 9.29 393.31 8.65 C 396.09 7.57 399.12 8.11 402.03 8.01 C 407.45 7.94 412.87 7.77 418.30 7.67 Z" />
<path fill="#e3e3e3" opacity="1.00" d=" M 7.64 825.21 L 9.13 825.34 C 9.36 825.96 9.82 827.19 10.05 827.81 C 12.96 833.40 16.25 838.81 20.09 843.82 C 22.89 847.69 25.94 851.37 29.35 854.72 C 29.55 855.00 29.96 855.56 30.16 855.84 C 31.67 857.64 33.31 859.34 35.02 860.96 C 35.71 861.60 36.40 862.25 37.09 862.92 C 37.39 863.10 37.99 863.48 38.29 863.67 C 40.88 866.09 43.31 868.72 46.18 870.85 C 47.86 872.16 49.45 873.59 51.16 874.88 C 53.82 876.92 56.45 879.03 59.25 880.89 C 62.86 883.58 66.62 886.06 70.45 888.44 C 73.12 890.07 75.77 891.74 78.41 893.43 C 81.42 895.16 84.43 896.88 87.41 898.66 L 88.03 898.61 C 91.26 900.97 94.95 902.55 98.46 904.44 C 99.79 905.09 101.13 905.75 102.46 906.43 C 102.96 906.68 103.95 907.18 104.44 907.43 C 107.74 908.96 110.93 910.74 114.40 911.88 C 114.52 912.02 114.77 912.30 114.90 912.44 C 117.09 913.38 119.28 914.39 121.63 914.92 L 121.52 915.92 C 121.89 915.85 122.63 915.71 123.00 915.65 C 124.72 916.72 126.57 917.63 128.61 917.89 L 128.51 918.44 C 130.77 919.18 132.99 920.07 135.21 920.95 C 137.91 922.11 140.63 923.30 143.54 923.89 C 143.59 924.03 143.69 924.30 143.74 924.44 C 146.24 925.23 148.71 926.09 151.12 927.13 C 152.29 927.39 153.47 927.63 154.66 927.85 L 154.49 928.68 C 154.96 928.70 155.89 928.75 156.36 928.77 C 163.50 931.53 170.81 933.85 178.16 936.00 C 181.44 937.15 184.78 938.14 188.14 939.03 C 189.18 939.37 190.21 939.70 191.26 940.03 C 192.55 940.37 193.84 940.66 195.14 940.99 C 198.76 942.16 202.44 943.15 206.15 943.99 C 208.59 944.75 211.07 945.42 213.59 945.84 C 213.99 946.01 214.78 946.33 215.17 946.49 C 218.87 947.23 222.52 948.21 226.20 949.04 C 227.61 949.39 229.03 949.61 230.47 949.83 C 230.86 950.00 231.64 950.33 232.02 950.50 C 234.48 950.90 236.88 951.52 239.34 951.94 C 240.96 952.39 242.62 952.66 244.28 952.97 C 249.33 954.06 254.35 955.48 259.52 955.76 C 259.88 955.98 260.59 956.42 260.95 956.64 C 261.78 956.67 263.45 956.74 264.29 956.77 C 288.06 961.75 312.27 964.53 336.35 967.49 C 350.25 968.68 364.09 970.27 378.02 970.86 C 386.64 972.10 395.38 971.46 404.02 972.59 C 416.37 972.60 428.70 973.29 441.06 973.49 C 460.04 974.20 479.01 972.59 497.99 972.64 C 503.64 972.33 509.26 971.47 514.93 971.68 C 553.11 969.34 591.21 965.28 628.96 958.74 C 632.21 958.13 635.54 957.80 638.71 956.77 C 639.54 956.74 641.21 956.67 642.05 956.64 C 642.40 956.42 643.11 955.98 643.46 955.76 C 648.64 955.49 653.66 954.05 658.71 952.98 C 660.36 952.67 662.03 952.39 663.66 951.94 C 666.11 951.52 668.52 950.90 670.99 950.50 C 671.39 950.32 672.20 949.97 672.60 949.79 C 678.34 948.97 683.93 947.31 689.55 945.90 C 692.01 945.38 694.43 944.72 696.84 943.99 C 700.56 943.16 704.23 942.16 707.85 940.99 C 709.14 940.66 710.45 940.37 711.74 940.03 C 712.78 939.70 713.82 939.36 714.86 939.02 C 718.23 938.15 721.57 937.15 724.86 936.00 C 732.19 933.86 739.49 931.53 746.62 928.78 C 747.09 928.75 748.04 928.70 748.51 928.67 L 748.35 927.85 C 749.53 927.63 750.70 927.39 751.88 927.12 C 754.31 926.07 756.82 925.20 759.35 924.43 L 759.39 923.85 C 760.54 923.60 761.69 923.33 762.84 923.05 C 764.48 922.32 766.14 921.63 767.80 920.95 C 769.98 920.09 772.16 919.20 774.40 918.48 C 774.41 918.34 774.43 918.05 774.44 917.91 C 776.33 917.53 778.11 916.76 779.87 915.98 C 782.62 914.78 785.37 913.57 788.14 912.41 C 788.26 912.16 788.48 911.65 788.60 911.39 C 789.04 911.53 789.94 911.81 790.38 911.95 L 790.41 910.90 C 794.02 910.00 797.19 907.98 800.54 906.44 C 801.86 905.75 803.19 905.09 804.54 904.44 C 808.05 902.55 811.76 900.98 814.98 898.60 L 815.60 898.67 C 818.57 896.88 821.58 895.15 824.59 893.43 C 827.23 891.75 829.88 890.07 832.55 888.44 C 836.38 886.06 840.13 883.57 843.75 880.89 C 846.55 879.03 849.18 876.93 851.84 874.88 C 853.54 873.58 855.14 872.16 856.83 870.84 C 859.69 868.72 862.12 866.09 864.71 863.67 C 865.01 863.48 865.61 863.11 865.90 862.92 C 866.58 862.26 867.27 861.60 867.96 860.95 C 868.64 860.29 869.35 859.65 870.06 859.02 C 870.70 858.19 871.33 857.36 871.95 856.53 L 872.28 856.72 C 872.59 856.33 873.20 855.56 873.51 855.18 L 873.47 854.79 C 877.02 851.50 880.05 847.71 882.91 843.82 C 886.75 838.81 890.02 833.40 892.97 827.83 C 893.20 827.20 893.64 825.96 893.87 825.34 L 895.37 825.21 C 895.28 894.83 895.32 964.45 895.35 1034.06 C 895.61 1039.19 893.91 1044.11 893.03 1049.10 C 892.65 1050.10 892.31 1051.13 892.02 1052.17 C 891.66 1053.15 891.33 1054.15 891.01 1055.17 C 890.27 1056.94 889.57 1058.73 889.07 1060.60 L 888.11 1060.72 C 888.24 1061.16 888.48 1062.03 888.60 1062.47 C 888.23 1062.57 887.48 1062.78 887.11 1062.88 L 887.44 1064.02 C 886.00 1066.04 884.81 1068.23 883.63 1070.42 C 880.32 1076.02 876.29 1081.12 872.25 1086.20 C 866.99 1092.05 861.44 1097.68 855.53 1102.88 L 855.43 1103.05 C 853.37 1104.52 851.50 1106.23 849.56 1107.86 L 849.42 1108.06 C 845.33 1111.06 841.30 1114.15 837.20 1117.12 C 836.21 1117.75 835.25 1118.43 834.29 1119.11 C 832.99 1119.92 831.71 1120.78 830.42 1121.61 C 827.78 1123.33 825.11 1124.99 822.42 1126.63 C 820.76 1127.64 819.08 1128.62 817.41 1129.61 C 815.34 1130.76 813.28 1131.91 811.26 1133.13 C 801.99 1138.24 792.32 1142.57 782.94 1147.43 L 781.71 1146.99 C 781.68 1147.26 781.61 1147.81 781.57 1148.08 C 779.68 1148.54 777.89 1149.29 776.13 1150.11 C 774.06 1150.98 771.96 1151.83 769.85 1152.61 C 769.76 1152.73 769.58 1152.96 769.49 1153.08 C 767.68 1153.63 765.91 1154.30 764.16 1155.00 C 762.47 1155.66 760.79 1156.34 759.14 1157.08 C 757.55 1157.55 755.97 1158.06 754.39 1158.53 L 754.73 1159.14 C 753.50 1159.34 752.30 1159.60 751.12 1159.93 C 747.64 1161.30 744.11 1162.57 740.50 1163.58 L 740.68 1164.46 C 739.89 1164.40 738.33 1164.28 737.55 1164.23 L 737.65 1165.14 C 735.18 1165.43 732.82 1166.21 730.50 1167.04 C 728.41 1167.67 726.33 1168.32 724.28 1169.05 C 723.22 1169.31 722.19 1169.61 721.16 1169.95 C 720.12 1170.26 719.11 1170.63 718.13 1171.06 C 715.75 1171.54 713.42 1172.25 711.12 1173.01 C 709.83 1173.31 708.57 1173.65 707.30 1174.00 C 706.23 1174.30 705.18 1174.63 704.13 1175.00 C 700.45 1175.97 696.76 1176.90 693.12 1178.00 C 691.77 1178.29 690.43 1178.61 689.10 1178.98 C 687.75 1179.28 686.43 1179.61 685.10 1179.98 C 683.76 1180.28 682.43 1180.61 681.12 1181.00 C 676.78 1181.97 672.43 1182.90 668.14 1184.05 C 663.50 1184.95 658.86 1185.88 654.28 1187.06 C 652.58 1187.30 650.91 1187.57 649.27 1188.03 C 635.98 1190.62 622.60 1192.75 609.29 1195.14 C 582.88 1198.62 556.47 1202.15 529.88 1203.67 C 524.29 1204.61 518.60 1204.08 512.98 1204.78 C 506.40 1205.78 499.72 1205.00 493.10 1205.65 C 477.77 1206.78 462.40 1206.17 447.04 1206.32 C 436.02 1206.17 424.97 1206.72 413.97 1205.84 C 408.98 1205.64 404.00 1205.20 399.00 1205.33 C 392.96 1205.54 387.02 1204.05 380.97 1204.32 C 344.55 1201.89 308.20 1197.85 272.21 1191.42 C 267.62 1190.78 263.14 1189.38 258.49 1189.24 C 258.17 1189.03 257.52 1188.61 257.20 1188.40 C 256.34 1188.35 254.61 1188.25 253.75 1188.20 C 249.13 1186.76 244.31 1186.08 239.59 1185.08 C 238.04 1184.64 236.45 1184.31 234.88 1184.01 C 233.49 1183.64 232.08 1183.32 230.68 1183.08 C 227.78 1182.27 224.85 1181.59 221.90 1181.04 C 220.57 1180.63 219.22 1180.28 217.88 1179.96 C 216.56 1179.60 215.22 1179.28 213.90 1178.98 C 212.56 1178.61 211.21 1178.30 209.87 1178.01 C 206.23 1176.91 202.55 1175.96 198.88 1175.00 C 196.57 1174.25 194.23 1173.58 191.88 1172.97 C 190.82 1172.62 189.76 1172.30 188.70 1172.02 C 187.43 1171.64 186.15 1171.30 184.88 1171.00 C 183.87 1170.62 182.86 1170.28 181.84 1169.96 C 180.81 1169.63 179.77 1169.33 178.73 1169.05 C 174.29 1167.66 169.95 1165.87 165.34 1165.13 L 165.47 1164.23 C 164.68 1164.29 163.11 1164.40 162.32 1164.46 L 162.50 1163.58 C 158.89 1162.58 155.36 1161.29 151.87 1159.93 C 150.68 1159.60 149.48 1159.34 148.27 1159.14 L 148.63 1158.44 C 146.91 1158.00 145.20 1157.54 143.47 1157.20 C 143.40 1157.04 143.27 1156.71 143.20 1156.55 C 141.74 1156.06 140.29 1155.57 138.85 1155.08 C 137.10 1154.30 135.34 1153.60 133.50 1153.10 C 133.42 1152.94 133.25 1152.63 133.16 1152.47 C 131.60 1152.00 130.04 1151.52 128.46 1151.15 C 128.41 1151.00 128.32 1150.70 128.27 1150.55 C 126.02 1149.67 123.78 1148.73 121.45 1148.11 C 121.41 1147.83 121.32 1147.28 121.28 1147.00 L 120.06 1147.43 C 110.68 1142.58 101.04 1138.23 91.77 1133.16 C 89.73 1131.93 87.66 1130.76 85.59 1129.61 C 83.90 1128.62 82.23 1127.63 80.57 1126.63 C 77.89 1124.98 75.21 1123.32 72.58 1121.61 C 71.27 1120.78 69.99 1119.91 68.69 1119.10 C 67.73 1118.42 66.76 1117.75 65.79 1117.12 C 63.09 1115.12 60.39 1113.14 57.69 1111.16 C 56.34 1110.09 54.99 1109.02 53.59 1108.04 L 53.44 1107.86 C 51.49 1106.23 49.63 1104.52 47.57 1103.05 L 47.47 1102.88 C 41.56 1097.68 36.01 1092.06 30.76 1086.20 C 26.68 1081.15 22.71 1075.99 19.37 1070.42 C 18.18 1068.22 17.00 1066.03 15.55 1064.01 L 15.90 1062.88 C 15.52 1062.78 14.76 1062.57 14.39 1062.46 C 14.51 1062.02 14.77 1061.15 14.90 1060.71 L 13.93 1060.60 C 13.42 1058.72 12.72 1056.92 11.97 1055.15 C 11.31 1053.13 10.67 1051.10 9.95 1049.11 C 9.17 1044.77 7.91 1040.48 7.68 1036.07 C 7.65 965.78 7.74 895.50 7.64 825.21 M 72.48 943.65 C 65.35 945.30 59.13 950.41 56.15 957.09 C 52.78 964.36 53.44 973.32 57.86 980.02 C 61.78 986.17 68.66 990.35 75.95 990.89 C 83.84 991.65 91.96 988.15 96.81 981.88 C 101.87 975.66 103.33 966.81 100.72 959.26 C 97.08 947.84 84.10 940.63 72.48 943.65 M 72.52 1025.64 C 65.37 1027.28 59.13 1032.40 56.15 1039.11 C 52.89 1046.16 53.39 1054.80 57.48 1061.41 C 61.35 1067.89 68.42 1072.34 75.95 1072.89 C 83.85 1073.65 91.97 1070.14 96.82 1063.87 C 101.88 1057.64 103.33 1048.79 100.71 1041.23 C 97.06 1029.85 84.13 1022.65 72.52 1025.64 Z" />
</g>
<g id="#edededff">
<path fill="#ededed" opacity="1.00" d=" M 8.05 219.48 C 17.85 239.04 32.98 255.43 50.12 268.81 C 78.30 290.74 110.81 306.42 144.05 319.06 C 207.87 342.91 275.32 355.75 342.94 362.68 C 397.74 368.12 452.95 369.32 507.94 366.58 C 557.27 364.08 606.48 358.30 654.89 348.45 C 698.46 339.48 741.54 327.31 782.38 309.53 C 812.17 296.40 841.19 280.38 865.27 258.22 C 877.32 247.15 887.53 234.09 894.95 219.48 C 895.06 410.99 894.97 602.50 895.00 794.01 C 894.27 811.29 886.39 827.54 875.93 841.04 C 862.20 858.69 844.27 872.60 825.43 884.41 C 793.19 904.31 757.69 918.37 721.58 929.49 C 675.80 943.57 628.59 952.59 581.10 958.47 C 538.61 963.53 495.83 966.29 453.02 966.00 C 395.73 966.40 338.42 961.96 281.87 952.73 C 247.96 947.09 214.33 939.61 181.46 929.50 C 145.57 918.45 110.28 904.50 78.20 884.80 C 59.45 873.13 41.64 859.40 27.83 842.02 C 16.20 827.29 7.45 809.12 7.99 789.99 C 8.04 599.82 7.93 409.65 8.05 219.48 M 575.74 429.98 C 575.70 464.31 575.72 498.64 575.73 532.96 C 575.56 536.31 576.85 540.72 573.06 542.53 C 566.12 539.02 559.61 534.71 552.73 531.09 C 550.12 529.70 546.93 530.04 544.45 531.53 C 521.00 545.04 497.58 558.62 474.12 572.12 C 471.22 573.65 468.91 576.59 469.10 580.00 C 469.06 607.34 469.10 634.68 469.08 662.02 C 468.82 665.40 470.79 668.60 473.75 670.16 C 497.20 683.75 520.69 697.27 544.15 710.85 C 547.06 712.77 550.86 712.82 553.80 710.92 C 577.28 697.38 600.73 683.80 624.20 670.24 C 627.59 668.51 629.43 664.75 629.11 661.01 C 629.08 593.31 629.11 525.61 629.09 457.91 C 629.25 454.52 627.64 451.05 624.57 449.44 C 611.16 441.83 597.63 434.41 584.21 426.83 C 582.64 426.07 581.00 424.83 579.16 425.26 C 577.01 425.67 575.52 427.83 575.74 429.98 M 156.41 528.45 C 151.47 530.59 147.02 533.73 142.29 536.29 C 122.82 547.47 103.38 558.70 83.91 569.88 C 80.51 571.54 78.49 575.24 78.79 579.01 C 78.85 612.98 78.88 646.96 78.92 680.94 C 78.97 683.88 78.70 686.87 79.24 689.80 C 80.04 692.44 83.51 693.71 85.75 691.95 C 99.61 684.10 113.42 676.12 127.25 668.21 C 130.27 666.65 132.33 663.44 132.19 660.01 C 132.28 642.65 132.10 625.28 132.27 607.92 C 132.31 604.05 135.60 601.47 138.75 599.88 C 144.35 596.84 149.70 593.38 155.36 590.46 C 158.06 589.00 161.28 589.65 163.79 591.19 C 169.52 594.45 175.23 597.76 180.93 601.08 C 183.75 602.64 185.64 605.70 185.51 608.96 C 185.57 625.98 185.50 643.00 185.53 660.02 C 185.27 663.57 187.56 666.74 190.63 668.31 C 204.44 676.20 218.21 684.14 232.03 692.01 C 234.86 694.07 239.07 691.48 238.65 688.05 C 238.69 651.35 238.76 614.64 238.76 577.94 C 238.98 574.31 236.51 571.18 233.39 569.64 C 211.36 556.99 189.34 544.32 167.34 531.61 C 164.05 529.72 160.41 527.10 156.41 528.45 M 741.48 529.73 C 717.49 543.18 693.83 557.24 669.94 570.85 C 666.89 572.37 664.47 575.43 664.61 578.97 C 664.58 606.31 664.60 633.66 664.60 661.00 C 664.23 665.49 667.92 668.67 671.62 670.40 C 694.41 683.31 717.11 696.38 739.91 709.28 C 742.68 710.94 746.16 710.70 748.87 709.03 C 763.02 701.13 777.24 693.36 791.33 685.35 C 794.37 683.81 793.99 679.19 790.96 677.87 C 767.53 664.32 744.04 650.89 720.56 637.42 C 718.93 636.49 717.11 635.16 717.31 633.05 C 717.26 624.38 717.25 615.70 717.32 607.03 C 717.18 604.59 719.56 603.36 721.35 602.30 C 727.92 598.60 734.41 594.75 740.96 591.01 C 742.55 589.98 744.61 589.62 746.30 590.72 C 753.12 594.50 759.81 598.56 766.62 602.38 C 768.18 603.34 770.26 604.33 770.46 606.41 C 770.83 613.59 770.32 620.79 770.64 627.97 C 770.67 630.46 773.57 632.44 775.91 631.62 C 778.13 630.81 780.08 629.43 782.13 628.28 C 794.38 621.13 806.65 614.03 818.90 606.90 C 821.78 605.37 824.24 602.54 823.99 599.09 C 823.99 592.03 824.08 584.97 823.95 577.91 C 823.90 574.83 821.60 572.38 819.05 570.97 C 796.05 557.62 773.05 544.28 750.08 530.90 C 747.55 529.31 744.31 528.43 741.48 529.73 M 323.81 545.50 C 318.80 548.35 313.87 551.37 308.76 554.05 L 308.78 554.40 C 298.59 559.75 288.89 565.97 278.75 571.41 C 276.39 573.26 274.25 575.79 274.42 578.99 C 274.30 587.25 274.43 595.51 274.39 603.78 C 274.37 611.72 274.39 619.66 274.40 627.60 C 274.39 638.41 274.40 649.23 274.38 660.04 C 274.24 662.45 275.22 664.68 276.19 666.83 C 282.05 670.82 288.37 674.06 294.45 677.69 C 313.33 688.52 332.08 699.61 351.06 710.27 C 355.17 711.86 359.04 709.43 362.31 707.17 C 369.63 703.25 376.74 698.89 383.96 694.77 C 387.85 692.48 391.80 690.28 395.69 687.98 C 399.28 685.89 402.82 683.72 406.56 681.90 L 406.54 681.45 C 413.74 677.80 420.55 673.47 427.60 669.56 C 430.70 668.05 433.15 665.33 433.52 661.80 C 433.39 654.96 433.51 648.12 433.46 641.28 C 433.45 620.86 433.48 600.43 433.48 580.00 C 433.63 577.50 432.54 575.23 431.39 573.11 C 425.41 569.15 419.04 565.84 412.89 562.17 C 394.36 551.50 375.91 540.68 357.31 530.13 C 355.86 529.81 354.40 529.50 352.96 529.20 C 342.84 533.86 333.56 540.12 323.81 545.50 M 729.04 610.96 C 729.35 616.83 728.60 622.77 729.38 628.59 C 734.09 631.90 739.36 634.33 744.22 637.43 C 749.37 634.55 754.67 631.86 759.51 628.48 C 759.90 622.75 759.78 616.95 759.59 611.22 C 754.88 607.52 749.36 604.94 744.12 602.09 C 739.15 605.14 733.99 607.87 729.04 610.96 M 434.29 703.26 C 413.80 715.11 393.28 726.91 372.79 738.77 C 368.47 741.23 365.65 746.03 365.73 751.02 C 365.71 777.02 365.69 803.01 365.74 829.00 C 365.68 834.54 369.35 839.46 374.20 841.87 C 381.57 845.80 388.44 850.76 396.28 853.77 C 403.06 856.26 411.14 856.19 417.48 852.50 C 423.40 848.90 425.91 841.70 425.85 835.05 C 425.89 810.03 425.79 785.01 425.90 759.99 C 425.79 758.59 426.17 756.94 424.97 755.93 C 421.15 755.39 417.25 755.55 413.47 756.28 C 413.48 782.18 413.50 808.08 413.46 833.98 C 413.62 837.71 411.23 841.38 407.64 842.54 C 403.56 843.99 399.24 842.29 395.69 840.25 C 389.76 836.78 383.77 833.41 377.89 829.85 C 377.91 803.26 377.60 776.65 378.05 750.09 C 384.37 745.55 391.50 742.20 398.14 738.13 C 413.77 729.09 429.42 720.07 445.05 711.03 C 447.74 708.88 450.51 711.91 452.97 713.04 C 473.22 724.77 493.50 736.47 513.78 748.15 C 515.19 749.00 516.99 750.05 516.59 752.02 C 516.47 777.87 516.83 803.75 516.41 829.59 C 513.04 832.66 508.61 834.31 504.80 836.79 C 487.91 846.56 470.99 856.29 454.10 866.09 C 451.80 867.39 449.59 868.94 447.03 869.72 C 440.49 866.40 434.41 862.22 427.98 858.70 C 423.88 861.18 419.34 862.74 415.08 864.88 C 423.04 870.02 431.34 874.62 439.45 879.53 C 443.95 882.48 450.03 882.52 454.62 879.74 C 476.83 866.91 499.04 854.07 521.24 841.23 C 525.56 838.81 528.63 834.13 528.62 829.12 C 528.68 803.41 528.60 777.69 528.66 751.98 C 528.71 748.82 528.02 745.56 526.14 742.98 C 523.92 739.75 520.29 738.02 517.01 736.10 C 496.48 724.26 475.96 712.39 455.46 700.51 C 452.88 699.00 449.98 697.92 446.95 698.10 C 442.17 698.00 438.26 701.05 434.29 703.26 M 548.30 734.44 C 542.93 736.04 538.81 741.36 539.03 747.02 C 538.89 753.87 545.15 760.03 551.99 759.84 C 559.25 760.05 565.76 753.12 564.92 745.87 C 564.59 737.97 555.81 731.84 548.30 734.44 M 457.23 754.24 C 449.59 755.26 441.44 758.36 437.29 765.27 C 432.49 773.28 433.84 785.68 442.53 790.50 C 454.84 797.36 469.67 794.84 482.71 799.27 C 484.72 800.03 486.92 801.09 487.83 803.18 C 489.13 807.06 487.45 811.88 483.69 813.73 C 477.96 816.67 471.27 816.49 465.00 816.42 C 459.31 816.09 452.81 815.78 448.47 811.59 C 445.58 809.00 446.00 804.63 443.89 801.70 C 440.21 801.32 436.43 801.15 432.80 801.92 C 431.20 810.11 435.84 818.93 443.05 822.98 C 451.46 827.83 461.52 828.40 471.01 828.31 C 480.83 827.90 492.00 825.56 498.04 817.04 C 503.65 808.74 502.93 794.83 493.24 789.86 C 480.38 783.25 465.25 784.94 451.77 780.41 C 447.62 779.37 446.98 774.13 448.92 770.91 C 451.48 766.87 456.71 766.16 461.07 765.74 C 467.60 765.45 474.74 765.17 480.60 768.55 C 484.48 770.80 485.26 775.47 487.08 779.19 C 490.70 779.60 494.40 779.60 498.03 779.17 C 499.54 777.61 498.56 775.33 498.37 773.48 C 497.12 766.42 492.41 760.04 485.73 757.25 C 476.80 753.46 466.75 753.18 457.23 754.24 Z" />
<path fill="#ededed" opacity="1.00" d=" M 527.03 603.01 C 534.37 598.91 541.53 594.49 548.94 590.50 C 557.31 595.32 565.72 600.10 574.03 605.02 C 576.03 605.85 575.42 608.26 575.56 609.97 C 575.37 618.76 575.75 627.57 575.39 636.35 C 572.41 638.89 568.73 640.41 565.44 642.47 C 559.92 645.51 554.63 649.00 548.97 651.76 C 539.95 647.08 531.04 641.95 522.47 636.49 C 521.96 626.44 522.25 616.29 522.32 606.22 C 523.63 604.81 525.40 603.97 527.03 603.01 Z" />
<path fill="#ededed" opacity="1.00" d=" M 548.44 736.57 C 555.94 733.66 564.58 741.06 562.67 748.92 C 561.46 756.78 550.81 760.67 544.96 755.13 C 538.57 750.16 540.64 738.86 548.44 736.57 M 547.11 739.58 C 547.21 744.44 547.20 749.31 547.15 754.19 C 547.85 754.19 549.24 754.19 549.93 754.19 C 549.93 752.18 549.94 750.19 549.96 748.20 C 551.27 748.35 552.60 748.54 553.92 748.72 C 554.15 750.46 554.29 752.25 554.74 753.98 C 555.46 754.10 556.92 754.33 557.64 754.45 C 557.23 751.85 556.82 749.21 555.51 746.90 C 556.85 745.37 558.03 743.21 556.76 741.25 C 554.31 738.61 550.28 739.85 547.11 739.58 Z" />
<path fill="#ededed" opacity="1.00" d=" M 549.90 741.61 C 551.37 742.14 553.98 741.42 554.36 743.50 C 554.98 746.12 551.48 745.71 549.85 746.20 C 549.86 744.66 549.87 743.13 549.90 741.61 Z" />
</g>
<g id="#333333ff">
<path fill="#333333" opacity="1.00" d=" M 575.74 429.98 C 575.52 427.83 577.01 425.67 579.16 425.26 C 581.00 424.83 582.64 426.07 584.21 426.83 C 597.63 434.41 611.16 441.83 624.57 449.44 C 627.64 451.05 629.25 454.52 629.09 457.91 C 629.11 525.61 629.08 593.31 629.11 661.01 C 629.43 664.75 627.59 668.51 624.20 670.24 C 600.73 683.80 577.28 697.38 553.80 710.92 C 550.86 712.82 547.06 712.77 544.15 710.85 C 520.69 697.27 497.20 683.75 473.75 670.16 C 470.79 668.60 468.82 665.40 469.08 662.02 C 469.10 634.68 469.06 607.34 469.10 580.00 C 468.91 576.59 471.22 573.65 474.12 572.12 C 497.58 558.62 521.00 545.04 544.45 531.53 C 546.93 530.04 550.12 529.70 552.73 531.09 C 559.61 534.71 566.12 539.02 573.06 542.53 C 576.85 540.72 575.56 536.31 575.73 532.96 C 575.72 498.64 575.70 464.31 575.74 429.98 M 527.03 603.01 C 525.40 603.97 523.63 604.81 522.32 606.22 C 522.25 616.29 521.96 626.44 522.47 636.49 C 531.04 641.95 539.95 647.08 548.97 651.76 C 554.63 649.00 559.92 645.51 565.44 642.47 C 568.73 640.41 572.41 638.89 575.39 636.35 C 575.75 627.57 575.37 618.76 575.56 609.97 C 575.42 608.26 576.03 605.85 574.03 605.02 C 565.72 600.10 557.31 595.32 548.94 590.50 C 541.53 594.49 534.37 598.91 527.03 603.01 Z" />
<path fill="#333333" opacity="1.00" d=" M 156.41 528.45 C 160.41 527.10 164.05 529.72 167.34 531.61 C 189.34 544.32 211.36 556.99 233.39 569.64 C 236.51 571.18 238.98 574.31 238.76 577.94 C 238.76 614.64 238.69 651.35 238.65 688.05 C 239.07 691.48 234.86 694.07 232.03 692.01 C 218.21 684.14 204.44 676.20 190.63 668.31 C 187.56 666.74 185.27 663.57 185.53 660.02 C 185.50 643.00 185.57 625.98 185.51 608.96 C 185.64 605.70 183.75 602.64 180.93 601.08 C 175.23 597.76 169.52 594.45 163.79 591.19 C 161.28 589.65 158.06 589.00 155.36 590.46 C 149.70 593.38 144.35 596.84 138.75 599.88 C 135.60 601.47 132.31 604.05 132.27 607.92 C 132.10 625.28 132.28 642.65 132.19 660.01 C 132.33 663.44 130.27 666.65 127.25 668.21 C 113.42 676.12 99.61 684.10 85.75 691.95 C 83.51 693.71 80.04 692.44 79.24 689.80 C 78.70 686.87 78.97 683.88 78.92 680.94 C 78.88 646.96 78.85 612.98 78.79 579.01 C 78.49 575.24 80.51 571.54 83.91 569.88 C 103.38 558.70 122.82 547.47 142.29 536.29 C 147.02 533.73 151.47 530.59 156.41 528.45 Z" />
<path fill="#333333" opacity="1.00" d=" M 741.48 529.73 C 744.31 528.43 747.55 529.31 750.08 530.90 C 773.05 544.28 796.05 557.62 819.05 570.97 C 821.60 572.38 823.90 574.83 823.95 577.91 C 824.08 584.97 823.99 592.03 823.99 599.09 C 824.24 602.54 821.78 605.37 818.90 606.90 C 806.65 614.03 794.38 621.13 782.13 628.28 C 780.08 629.43 778.13 630.81 775.91 631.62 C 773.57 632.44 770.67 630.46 770.64 627.97 C 770.32 620.79 770.83 613.59 770.46 606.41 C 770.26 604.33 768.18 603.34 766.62 602.38 C 759.81 598.56 753.12 594.50 746.30 590.72 C 744.61 589.62 742.55 589.98 740.96 591.01 C 734.41 594.75 727.92 598.60 721.35 602.30 C 719.56 603.36 717.18 604.59 717.32 607.03 C 717.25 615.70 717.26 624.38 717.31 633.05 C 717.11 635.16 718.93 636.49 720.56 637.42 C 744.04 650.89 767.53 664.32 790.96 677.87 C 793.99 679.19 794.37 683.81 791.33 685.35 C 777.24 693.36 763.02 701.13 748.87 709.03 C 746.16 710.70 742.68 710.94 739.91 709.28 C 717.11 696.38 694.41 683.31 671.62 670.40 C 667.92 668.67 664.23 665.49 664.60 661.00 C 664.60 633.66 664.58 606.31 664.61 578.97 C 664.47 575.43 666.89 572.37 669.94 570.85 C 693.83 557.24 717.49 543.18 741.48 529.73 Z" />
</g>
<g id="#77b361ff">
<path fill="#77b361" opacity="1.00" d=" M 323.81 545.50 C 333.56 540.12 342.84 533.86 352.96 529.20 C 352.88 580.80 352.90 632.40 353.04 683.99 C 353.26 692.22 351.19 701.29 355.83 708.70 C 358.00 708.22 360.17 707.76 362.31 707.17 C 359.04 709.43 355.17 711.86 351.06 710.27 C 352.39 710.35 353.72 710.41 355.05 710.47 C 343.64 689.36 331.91 668.42 320.52 647.31 C 321.61 648.19 322.74 649.03 323.87 649.89 C 324.45 642.95 324.23 635.98 324.22 629.02 C 324.29 607.01 324.14 584.99 324.32 562.98 C 324.33 557.15 324.22 551.31 323.81 545.50 Z" />
</g>
<g id="#6fa660ff">
<path fill="#6fa660" opacity="1.00" d=" M 352.96 529.20 C 354.40 529.50 355.86 529.81 357.31 530.13 C 358.11 535.87 361.84 540.46 364.58 545.38 C 368.85 552.51 372.72 559.87 377.16 566.90 C 379.07 570.10 381.82 573.34 381.32 577.33 C 379.78 592.62 381.09 608.00 380.37 623.33 C 381.12 636.61 380.32 649.91 380.76 663.21 C 380.39 673.22 380.54 683.23 380.70 693.24 C 381.78 693.74 382.87 694.25 383.96 694.77 C 376.74 698.89 369.63 703.25 362.31 707.17 C 360.17 707.76 358.00 708.22 355.83 708.70 C 351.19 701.29 353.26 692.22 353.04 683.99 C 352.90 632.40 352.88 580.80 352.96 529.20 Z" />
</g>
<g id="#659c59ff">
<path fill="#659c59" opacity="1.00" d=" M 364.58 545.38 C 361.84 540.46 358.11 535.87 357.31 530.13 C 375.91 540.68 394.36 551.50 412.89 562.17 C 419.04 565.84 425.41 569.15 431.39 573.11 C 423.07 587.74 415.20 602.62 406.96 617.30 C 403.27 610.64 399.79 603.82 395.19 597.72 C 394.81 602.12 394.66 606.55 394.73 610.97 C 394.91 629.31 394.56 647.65 394.80 666.00 C 394.78 673.33 394.31 680.72 395.69 687.98 C 391.80 690.28 387.85 692.48 383.96 694.77 C 382.87 694.25 381.78 693.74 380.70 693.24 C 380.54 683.23 380.39 673.22 380.76 663.21 C 380.32 649.91 381.12 636.61 380.37 623.33 C 381.09 608.00 379.78 592.62 381.32 577.33 C 381.82 573.34 379.07 570.10 377.16 566.90 C 372.72 559.87 368.85 552.51 364.58 545.38 Z" />
</g>
<g id="#71bb51ff">
<path fill="#71bb51" opacity="1.00" d=" M 308.76 554.05 C 313.87 551.37 318.80 548.35 323.81 545.50 C 324.22 551.31 324.33 557.15 324.32 562.98 C 324.14 584.99 324.29 607.01 324.22 629.02 C 324.23 635.98 324.45 642.95 323.87 649.89 C 322.74 649.03 321.61 648.19 320.52 647.31 C 316.19 639.78 312.15 632.09 307.97 624.47 C 308.74 620.68 309.35 616.81 308.99 612.94 C 308.38 607.00 308.83 601.03 308.84 595.09 C 309.15 581.52 308.75 567.96 308.78 554.40 L 308.76 554.05 Z" />
</g>
<g id="#6abf47ff">
<path fill="#6abf47" opacity="1.00" d=" M 278.75 571.41 C 288.89 565.97 298.59 559.75 308.78 554.40 C 308.75 567.96 309.15 581.52 308.84 595.09 C 308.83 601.03 308.38 607.00 308.99 612.94 C 309.35 616.81 308.74 620.68 307.97 624.47 C 307.00 622.71 306.01 620.96 304.98 619.24 C 296.21 603.31 287.68 587.25 278.75 571.41 Z" />
</g>
<g id="#55974eff">
<path fill="#55974e" opacity="1.00" d=" M 274.42 578.99 C 274.25 575.79 276.39 573.26 278.75 571.41 C 287.68 587.25 296.21 603.31 304.98 619.24 C 304.67 619.07 304.07 618.71 303.76 618.53 C 293.87 613.81 284.18 608.70 274.39 603.78 C 274.43 595.51 274.30 587.25 274.42 578.99 Z" />
</g>
<g id="#438941ff">
<path fill="#438941" opacity="1.00" d=" M 431.39 573.11 C 432.54 575.23 433.63 577.50 433.48 580.00 C 433.48 600.43 433.45 620.86 433.46 641.28 C 428.01 638.20 422.08 636.09 416.60 633.06 C 418.19 636.49 419.94 639.84 421.92 643.06 C 425.76 649.32 428.82 656.09 433.52 661.80 C 433.15 665.33 430.70 668.05 427.60 669.56 C 420.55 673.47 413.74 677.80 406.54 681.45 C 405.99 673.64 406.49 665.82 406.03 658.02 C 405.57 651.33 406.44 644.66 406.27 637.98 C 406.35 631.09 405.59 624.11 406.96 617.30 C 415.20 602.62 423.07 587.74 431.39 573.11 Z" />
</g>
<g id="#54944dff">
<path fill="#54944d" opacity="1.00" d=" M 395.19 597.72 C 399.79 603.82 403.27 610.64 406.96 617.30 C 405.59 624.11 406.35 631.09 406.27 637.98 C 406.44 644.66 405.57 651.33 406.03 658.02 C 406.49 665.82 405.99 673.64 406.54 681.45 L 406.56 681.90 C 402.82 683.72 399.28 685.89 395.69 687.98 C 394.31 680.72 394.78 673.33 394.80 666.00 C 394.56 647.65 394.91 629.31 394.73 610.97 C 394.66 606.55 394.81 602.12 395.19 597.72 Z" />
</g>
<g id="#689f63ff">
<path fill="#689f63" opacity="1.00" d=" M 729.04 610.96 C 733.99 607.87 739.15 605.14 744.12 602.09 C 749.36 604.94 754.88 607.52 759.59 611.22 C 759.78 616.95 759.90 622.75 759.51 628.48 C 754.67 631.86 749.37 634.55 744.22 637.43 C 739.36 634.33 734.09 631.90 729.38 628.59 C 728.60 622.77 729.35 616.83 729.04 610.96 Z" />
<path fill="#689f63" opacity="1.00" d=" M 434.29 703.26 C 438.26 701.05 442.17 698.00 446.95 698.10 C 449.98 697.92 452.88 699.00 455.46 700.51 C 475.96 712.39 496.48 724.26 517.01 736.10 C 520.29 738.02 523.92 739.75 526.14 742.98 C 528.02 745.56 528.71 748.82 528.66 751.98 C 528.60 777.69 528.68 803.41 528.62 829.12 C 528.63 834.13 525.56 838.81 521.24 841.23 C 499.04 854.07 476.83 866.91 454.62 879.74 C 450.03 882.52 443.95 882.48 439.45 879.53 C 431.34 874.62 423.04 870.02 415.08 864.88 C 419.34 862.74 423.88 861.18 427.98 858.70 C 434.41 862.22 440.49 866.40 447.03 869.72 C 449.59 868.94 451.80 867.39 454.10 866.09 C 470.99 856.29 487.91 846.56 504.80 836.79 C 508.61 834.31 513.04 832.66 516.41 829.59 C 516.83 803.75 516.47 777.87 516.59 752.02 C 516.99 750.05 515.19 749.00 513.78 748.15 C 493.50 736.47 473.22 724.77 452.97 713.04 C 450.51 711.91 447.74 708.88 445.05 711.03 C 429.42 720.07 413.77 729.09 398.14 738.13 C 391.50 742.20 384.37 745.55 378.05 750.09 C 377.60 776.65 377.91 803.26 377.89 829.85 C 383.77 833.41 389.76 836.78 395.69 840.25 C 399.24 842.29 403.56 843.99 407.64 842.54 C 411.23 841.38 413.62 837.71 413.46 833.98 C 413.50 808.08 413.48 782.18 413.47 756.28 C 417.25 755.55 421.15 755.39 424.97 755.93 C 426.17 756.94 425.79 758.59 425.90 759.99 C 425.79 785.01 425.89 810.03 425.85 835.05 C 425.91 841.70 423.40 848.90 417.48 852.50 C 411.14 856.19 403.06 856.26 396.28 853.77 C 388.44 850.76 381.57 845.80 374.20 841.87 C 369.35 839.46 365.68 834.54 365.74 829.00 C 365.69 803.01 365.71 777.02 365.73 751.02 C 365.65 746.03 368.47 741.23 372.79 738.77 C 393.28 726.91 413.80 715.11 434.29 703.26 Z" />
<path fill="#689f63" opacity="1.00" d=" M 548.30 734.44 C 555.81 731.84 564.59 737.97 564.92 745.87 C 565.76 753.12 559.25 760.05 551.99 759.84 C 545.15 760.03 538.89 753.87 539.03 747.02 C 538.81 741.36 542.93 736.04 548.30 734.44 M 548.44 736.57 C 540.64 738.86 538.57 750.16 544.96 755.13 C 550.81 760.67 561.46 756.78 562.67 748.92 C 564.58 741.06 555.94 733.66 548.44 736.57 Z" />
<path fill="#689f63" opacity="1.00" d=" M 547.11 739.58 C 550.28 739.85 554.31 738.61 556.76 741.25 C 558.03 743.21 556.85 745.37 555.51 746.90 C 556.82 749.21 557.23 751.85 557.64 754.45 C 556.92 754.33 555.46 754.10 554.74 753.98 C 554.29 752.25 554.15 750.46 553.92 748.72 C 552.60 748.54 551.27 748.35 549.96 748.20 C 549.94 750.19 549.93 752.18 549.93 754.19 C 549.24 754.19 547.85 754.19 547.15 754.19 C 547.20 749.31 547.21 744.44 547.11 739.58 M 549.90 741.61 C 549.87 743.13 549.86 744.66 549.85 746.20 C 551.48 745.71 554.98 746.12 554.36 743.50 C 553.98 741.42 551.37 742.14 549.90 741.61 Z" />
<path fill="#689f63" opacity="1.00" d=" M 457.23 754.24 C 466.75 753.18 476.80 753.46 485.73 757.25 C 492.41 760.04 497.12 766.42 498.37 773.48 C 498.56 775.33 499.54 777.61 498.03 779.17 C 494.40 779.60 490.70 779.60 487.08 779.19 C 485.26 775.47 484.48 770.80 480.60 768.55 C 474.74 765.17 467.60 765.45 461.07 765.74 C 456.71 766.16 451.48 766.87 448.92 770.91 C 446.98 774.13 447.62 779.37 451.77 780.41 C 465.25 784.94 480.38 783.25 493.24 789.86 C 502.93 794.83 503.65 808.74 498.04 817.04 C 492.00 825.56 480.83 827.90 471.01 828.31 C 461.52 828.40 451.46 827.83 443.05 822.98 C 435.84 818.93 431.20 810.11 432.80 801.92 C 436.43 801.15 440.21 801.32 443.89 801.70 C 446.00 804.63 445.58 809.00 448.47 811.59 C 452.81 815.78 459.31 816.09 465.00 816.42 C 471.27 816.49 477.96 816.67 483.69 813.73 C 487.45 811.88 489.13 807.06 487.83 803.18 C 486.92 801.09 484.72 800.03 482.71 799.27 C 469.67 794.84 454.84 797.36 442.53 790.50 C 433.84 785.68 432.49 773.28 437.29 765.27 C 441.44 758.36 449.59 755.26 457.23 754.24 Z" />
</g>
<g id="#579e4bff">
<path fill="#579e4b" opacity="1.00" d=" M 274.39 603.78 C 284.18 608.70 293.87 613.81 303.76 618.53 C 301.34 623.35 298.63 628.02 295.72 632.58 C 293.94 633.85 291.76 635.99 289.43 634.66 C 284.35 632.45 279.60 629.56 274.40 627.60 C 274.39 619.66 274.37 611.72 274.39 603.78 Z" />
</g>
<g id="#3e863dff">
<path fill="#3e863d" opacity="1.00" d=" M 303.76 618.53 C 304.07 618.71 304.67 619.07 304.98 619.24 C 306.01 620.96 307.00 622.71 307.97 624.47 C 312.15 632.09 316.19 639.78 320.52 647.31 C 331.91 668.42 343.64 689.36 355.05 710.47 C 353.72 710.41 352.39 710.35 351.06 710.27 C 332.08 699.61 313.33 688.52 294.45 677.69 C 288.37 674.06 282.05 670.82 276.19 666.83 C 282.28 655.18 289.37 644.08 295.72 632.58 C 298.63 628.02 301.34 623.35 303.76 618.53 Z" />
</g>
<g id="#59a748ff">
<path fill="#59a748" opacity="1.00" d=" M 274.40 627.60 C 279.60 629.56 284.35 632.45 289.43 634.66 C 291.76 635.99 293.94 633.85 295.72 632.58 C 289.37 644.08 282.28 655.18 276.19 666.83 C 275.22 664.68 274.24 662.45 274.38 660.04 C 274.40 649.23 274.39 638.41 274.40 627.60 Z" />
</g>
<g id="#50914aff">
<path fill="#50914a" opacity="1.00" d=" M 416.60 633.06 C 422.08 636.09 428.01 638.20 433.46 641.28 C 433.51 648.12 433.39 654.96 433.52 661.80 C 428.82 656.09 425.76 649.32 421.92 643.06 C 419.94 639.84 418.19 636.49 416.60 633.06 Z" />
</g>
<g id="#161616ff">
<path fill="#161616" opacity="1.00" d=" M 72.48 943.65 C 84.10 940.63 97.08 947.84 100.72 959.26 C 103.33 966.81 101.87 975.66 96.81 981.88 C 91.96 988.15 83.84 991.65 75.95 990.89 C 68.66 990.35 61.78 986.17 57.86 980.02 C 53.44 973.32 52.78 964.36 56.15 957.09 C 59.13 950.41 65.35 945.30 72.48 943.65 M 74.33 947.35 C 64.76 948.94 57.32 958.31 58.06 968.01 C 58.27 978.71 68.42 987.84 79.09 986.95 C 89.74 986.66 98.81 976.59 97.95 965.97 C 97.72 954.30 85.74 944.86 74.33 947.35 Z" />
<path fill="#161616" opacity="1.00" d=" M 72.52 1025.64 C 84.13 1022.65 97.06 1029.85 100.71 1041.23 C 103.33 1048.79 101.88 1057.64 96.82 1063.87 C 91.97 1070.14 83.85 1073.65 75.95 1072.89 C 68.42 1072.34 61.35 1067.89 57.48 1061.41 C 53.39 1054.80 52.89 1046.16 56.15 1039.11 C 59.13 1032.40 65.37 1027.28 72.52 1025.64 M 73.41 1029.54 C 65.36 1031.34 58.90 1038.60 58.14 1046.83 C 57.23 1054.19 60.90 1061.81 67.14 1065.78 C 73.12 1069.74 81.28 1070.04 87.54 1066.56 C 93.53 1063.34 97.67 1056.91 97.95 1050.09 C 98.33 1044.24 95.91 1038.32 91.60 1034.37 C 86.84 1029.85 79.78 1028.01 73.41 1029.54 Z" />
</g>
<g id="#215210ff">
<path fill="#215210" opacity="1.00" d=" M 74.33 947.35 C 85.74 944.86 97.72 954.30 97.95 965.97 C 98.81 976.59 89.74 986.66 79.09 986.95 C 68.42 987.84 58.27 978.71 58.06 968.01 C 57.32 958.31 64.76 948.94 74.33 947.35 Z" />
</g>
<g id="#e5a200ff">
<path fill="#e5a200" opacity="1.00" d=" M 73.41 1029.54 C 79.78 1028.01 86.84 1029.85 91.60 1034.37 C 95.91 1038.32 98.33 1044.24 97.95 1050.09 C 97.67 1056.91 93.53 1063.34 87.54 1066.56 C 81.28 1070.04 73.12 1069.74 67.14 1065.78 C 60.90 1061.81 57.23 1054.19 58.14 1046.83 C 58.90 1038.60 65.36 1031.34 73.41 1029.54 Z" />
</g>
</svg>
