<svg xmlns="http://www.w3.org/2000/svg" width="880pt" height="1304" viewBox="0 0 880 978"><g fill="#8bc500"><path d="M418.52 28.73c7.65-2.16 15.5-4.58 23.55-3.64 7.74 1.31 15.49 3.25 22.14 7.61 11.35 6.7 22.71 13.41 34.2 19.87 11.35 6.72 22.7 13.46 34.21 19.89 31.52 18.73 63.36 36.92 95.01 55.43 63.5 36.97 126.98 73.97 190.5 110.89 2.61 1.35 5.02 3.04 7.47 4.66 2.3 2.36 4.61 4.72 6.73 7.27 3.39 5.28 6.02 11.05 7.51 17.18 1.14 6.32.8 12.76.82 19.16.03 135.01.01 270.02.01 405.03.06 4.34-.14 8.71-.88 13-3.51 12.34-12 23.08-22.88 29.8-100.4 58.61-200.95 117-301.32 175.66-17.6 9.97-34.93 20.41-52.46 30.51-2.85 1.55-5.65 3.3-8.84 4.07-6.31 1.68-12.71 3.52-19.3 2.87-6.26-.9-12.62-2.22-18.42-4.78-19.01-10.82-37.75-22.12-56.8-32.86-16.96-10.13-34.09-20-51.23-29.83-31.68-18.69-63.52-37.13-95.35-55.59-37.53-21.86-75-43.85-112.66-65.48-5.6-3.43-11.25-6.77-17.01-9.9-11.1-7.02-22.88-12.92-33.8-20.22-4.55-4.57-8.91-9.57-11.19-15.71-1.67-4.71-3.7-9.48-3.56-14.58.02-140.36.01-280.73.01-421.09-.9-13.91 7.34-26.62 17.51-35.39 4.09-3.9 9.38-6.05 14.03-9.14 11.41-6.53 22.8-13.13 34.06-19.92 17.17-9.83 34.26-19.84 51.33-29.83 20.31-11.59 40.41-23.54 60.63-35.28 43.36-25.28 86.81-50.41 130.05-75.88 11.46-6.42 22.78-13.12 34.09-19.82 5.73-3.23 11.43-6.54 17.04-9.98 8.4-4.41 16.26-9.83 24.8-13.98m139.76 317.28c.09 29-.07 58 .09 86.99-.14 1.28.15 2.73-.52 3.9.5-3.97.13-7.98.18-11.96-.09-30.35.19-60.7-.14-91.04-1.49 5.25-.77 10.72-.89 16.09-.09 29.31.17 58.63-.13 87.94-5.97-2.22-11.29-5.77-16.87-8.78-4.05-2.36-9.38-2.01-13.24.58-4.47 2.85-9.49 4.94-13.43 8.57-2.72 1.25-5.28 2.84-7.86 4.35-12.56 7.47-25.37 14.55-37.88 22.1-5.51.57-6.71 6.73-6.62 11.27 0 22.31.16 44.63-.04 66.95-.13 4.76.9 11.41 6.66 12.26 5.29 3.58 11.09 6.34 16.51 9.72 9.78 5.5 19.28 11.54 29.23 16.73 3.86 3.73 8.93 5.76 13.38 8.65 4.49 2.93 10.72 2.68 15.04-.48 10.51-6.2 21.07-12.35 31.67-18.4 1.29-.78 2.35-1.86 3.46-2.86 7.36-3.79 14.48-8.08 21.52-12.44 3.07-1.52 7.13-3.44 7.06-7.46.04-62.58 0-125.17.02-187.75.29-2.74-1.53-5.1-3.86-6.3-9.07-5.15-18.15-10.27-27.25-15.37-4.47-2.3-8.6-5.47-13.67-6.32-3.13 3.66-2.41 8.6-2.42 13.06m-420.03 85.3a69 69 0 0 0-11.45 6.61c-4 .85-7.28 3.37-10.77 5.33-10.96 6.3-21.87 12.69-32.89 18.87-2.71 1.51-5.22 3.84-5.84 7.01-.6 3.92-.24 7.91-.29 11.87-.01 29.02.02 58.04-.02 87.05-.35 2.88 1.42 5.22 3.02 7.4 4.94-.69 8.88-3.88 13.19-6.1 2.4-1.25 4.65-2.76 6.59-4.65 5.05-2.43 9.73-5.52 14.64-8.21 3.71-2.2 7.93-3.98 10.61-7.51 1.58-1.97 1.49-4.6 1.54-6.97-.07-15.56-.06-31.12 0-46.68 4.44-5.17 10.89-7.72 16.48-11.35 2.64-1.68 5.72-3.48 8.98-2.5 4.02 1.47 7.48 4.11 11.21 6.16 4.2 2.64 10.07 4.76 11.03 10.29.39 16.02-.12 32.08.21 48.11-.25 3.25 2.39 5.39 4.94 6.82 12.36 7.26 24.92 14.17 37.23 21.51 1.16.1 2.32.2 3.48.31l.02-.21c2.13-1.48 2.53-4.06 2.47-6.47-.05-28.67-.02-57.34-.02-86.01-.03-5.53.49-11.2-1.24-16.55l-.62 1.64.01-1.78c-5.37-3.81-11.27-6.77-16.9-10.15-4.07-2.29-7.94-4.94-12.2-6.86-3.09-3.16-7.18-4.92-10.92-7.13-7.13-4.17-14.3-8.26-21.42-12.45-3.2-1.78-6.43-4.61-10.38-3.76-4.01 1.16-7.69 3.46-10.69 6.36m199.21-3.7c-10.58 5.91-20.94 12.22-31.47 18.21-10.71 6.33-21.52 12.49-32.25 18.77-4.14.2-4.65 5.23-4.79 8.43-.04 22.68.07 45.36-.05 68.04 0 2.55.28 5.1.68 7.62.63-5.21.45-10.47.43-15.7-.02-20.02.05-40.03-.04-60.04.08-1.39 0-2.85.62-4.13-.41 2.02-.34 4.09-.35 6.14.11 23.67-.07 47.35.08 71.02-.19 4.09 3.73 6.24 6.75 8.05 14.04 8.05 28.03 16.19 42.04 24.3 3.93 3.75 9.03 5.8 13.56 8.69 3.6 2.17 7.74 4.89 12.14 3.36 4.76-1.9 8.92-4.99 13.4-7.43 4.23-2.73 9.15-4.47 12.7-8.15.27-.13.79-.38 1.05-.51 12.03-7.13 24.13-14.14 36.28-21.06 3.23-1.95 6.13-5.12 5.5-9.2-.01-22.01-.03-44.02 0-66.04-.05-3.02.24-6.1-.4-9.08.63 1.96.7 4.04.72 6.09-.15 21.32.02 42.65-.09 63.98-.04 3.17.15 6.34.51 9.5.95-6.11.51-12.3.56-18.44.03-18.34-.04-36.68.05-55.02-.23-3 .38-6.84-2.6-8.71-3.9-2.84-8.21-5.05-12.33-7.54-3.13-4.02-8.11-6.75-13.1-7.59-6.27-3.44-12.21-7.51-18.65-10.61 1.04-1.4-1.39-3.28-2.53-2.01-5.97-2.93-11.67-6.41-17.3-9.94-3.37-1.87-7.55-3.18-11.12-1m378.28 3.25c-1.69.53-3.37 1.06-4.91 1.92-17.58 10.46-35.39 20.54-53.02 30.92-3.23 1.74-5.98 5-4.53 8.89.23 24.89.08 49.78.08 74.67-.2 3.33 2.98 5.34 5.42 6.95 4.54 2.47 8.87 5.36 13.56 7.55 2.87 2.97 6.73 4.61 10.23 6.68 10.76 6.25 21.59 12.39 32.28 18.75 1.55.89 3.26 1.4 4.98 1.91.67.52 1.35 1.05 2.03 1.59 2.78-.06 5.7-.11 8.16-1.6 10.63-5.77 21.15-11.74 31.78-17.49 2.51-1.43 5.24-2.63 7.36-4.64.33-1.51.45-3.05.63-4.57-1.65-1.13-3.3-2.25-5.01-3.27-19.27-10.97-38.36-22.25-57.68-33.13-2.23-1.1-4.06-2.78-5.71-4.59.22-6.79.06-13.58.06-20.37.1-1.89-.12-3.98.93-5.65 7.42-3.33 13.94-8.33 21.25-11.87 1.92-1.21 3.99.17 5.74 1.04 6.22 3.56 12.31 7.36 18.57 10.86.38 6.54-.13 13.1.27 19.65 0 2.65 2.02 5.25 4.8 5.28 3.45-.8 6.47-2.84 8.89-5.37 9.27-5.3 18.18-11.22 27.43-16.57 3.01-1.93 7.24-4.05 7.06-8.23-.04-6.76.02-13.53 0-20.28-.09-4.1-4.17-6.15-7.24-7.94-19.77-11.29-39.43-22.77-59.2-34.05-4.72-3.05-10.36-.18-14.21 2.96m1.17 65.37c-2.21 1.64-6 2.43-6.17 5.69-.3 4.99-.55 10.1.78 14.97 4.99 1.99 9.05 5.94 14.4 7.07 4.12-2.72 8.47-5.07 12.63-7.74-.11-5.52-.1-11.04 0-16.56-4.31-2.29-8.22-5.32-12.69-7.26-3.45-.56-6.05 2.49-8.95 3.83"/><path d="M77.98 475.95c.04-2.41.22-4.81.69-7.17-.46 9.07-.07 18.16-.19 27.24.1 25.08-.19 50.16.14 75.24-1.04-5.7-.52-11.52-.58-17.27-.04-26.02.07-52.03-.06-78.04m262.22 6.48c3.95-.56 6.78 2.7 10.06 4.3 5.15 2.98 10.19 6.15 15.38 9.08.13 9.39.4 18.81-.16 28.18-1.85.87-3.68 1.81-5.46 2.82-3.9 2.64-8.15 4.7-12.06 7.33-1.59.89-3.16 1.84-4.88 2.48-2.64.62-4.84-1.36-7.06-2.43-3.91-2.64-8.15-4.72-12.06-7.34-1.8-1-3.6-1.98-5.48-2.81-.54-9.39-.32-18.82-.13-28.21 1.59-.93 3.17-1.87 4.72-2.86 1.61-.96 3.23-1.9 4.85-2.84 4.05-2.65 8.55-4.6 12.28-7.7m191.98.34c2.17-1.29 4.19.93 6.08 1.8 6.11 4.04 12.85 7.15 18.72 11.54.58 3.27.31 6.63.33 9.94-.18 6.03.52 12.12-.66 18.09-7.21 3.51-13.73 8.25-20.83 11.95-2.99 1.74-5.99-.81-8.53-2.18-5.89-3.9-12.47-6.76-17.89-11.34.49-8.58-.24-17.2.34-25.77 1.17-1.91 3.43-2.76 5.23-3.97 5.8-3.24 11.35-6.92 17.21-10.06"/></g><g fill="#666861"><path d="M558.28 346.01c.01-4.46-.71-9.4 2.42-13.06 5.07.85 9.2 4.02 13.67 6.32 9.1 5.1 18.18 10.22 27.25 15.37 2.33 1.2 4.15 3.56 3.86 6.3-.02 62.58.02 125.17-.02 187.75.07 4.02-3.99 5.94-7.06 7.46-7.04 4.36-14.16 8.65-21.52 12.44-3.56 1.43-7 3.13-10.25 5.17-8.75 5.3-17.7 10.27-26.5 15.48-2.65 1.35-5.7 3.41-8.72 1.9-6.29-2.65-11.58-7.24-18.08-9.46-9.95-5.19-19.45-11.23-29.23-16.73-5.42-3.38-11.22-6.14-16.51-9.72-2.58-2.47-5.51-5.35-5.28-9.23 0-24.01.01-48.02 0-72.03-.3-3.9 2.52-6.89 5.28-9.22 12.51-7.55 25.32-14.63 37.88-22.1 2.58-1.51 5.14-3.1 7.86-4.35 7.3-2.48 12.98-8.62 20.59-10.1 7.54 1.48 13.19 7.39 20.36 9.84 1.3.56 2.91.19 3.57-1.14.67-1.17.38-2.62.52-3.9-.16-28.99 0-57.99-.09-86.99m-26.1 136.76c-5.86 3.14-11.41 6.82-17.21 10.06-1.8 1.21-4.06 2.06-5.23 3.97-.58 8.57.15 17.19-.34 25.77 5.42 4.58 12 7.44 17.89 11.34 2.54 1.37 5.54 3.92 8.53 2.18 7.1-3.7 13.62-8.44 20.83-11.95 1.18-5.97.48-12.06.66-18.09-.02-3.31.25-6.67-.33-9.94-5.87-4.39-12.61-7.5-18.72-11.54-1.89-.87-3.91-3.09-6.08-1.8m-393.93-51.46c3.98-1.55 7.6-4.04 11.78-5.04 3.04.15 5.72 1.84 8.31 3.3 7.92 4.81 16.08 9.22 23.98 14.08 2.96 1.83 6.11 3.33 9.34 4.64 4.26 1.92 8.13 4.57 12.2 6.86 5.63 3.38 11.53 6.34 16.9 10.15l-.01 1.78c.65 25.61.15 51.24.31 76.87-.2 10.17.68 20.41-.9 30.52l-.02.21c-1.16-.11-2.32-.21-3.48-.31-12.31-7.34-24.87-14.25-37.23-21.51-2.55-1.43-5.19-3.57-4.94-6.82-.33-16.03.18-32.09-.21-48.11-.96-5.53-6.83-7.65-11.03-10.29-3.73-2.05-7.19-4.69-11.21-6.16-3.26-.98-6.34.82-8.98 2.5-5.59 3.63-12.04 6.18-16.48 11.35-.06 15.56-.07 31.12 0 46.68-.05 2.37.04 5-1.54 6.97-2.68 3.53-6.9 5.31-10.61 7.51-4.91 2.69-9.59 5.78-14.64 8.21-5.14 1.93-9.63 5.15-14.47 7.67-2.2 1.19-5.93 2.2-6.7-1.11-.33-25.08-.04-50.16-.14-75.24.12-9.08-.27-18.17.19-27.24.92-3.49 4.43-5.18 7.27-6.89 10.92-5.96 21.53-12.49 32.43-18.48 2.95-1.62 5.75-3.47 8.43-5.49 3.59-2.56 7.43-4.78 11.45-6.61m577.49-.45c3.85-3.14 9.49-6.01 14.21-2.96 19.77 11.28 39.43 22.76 59.2 34.05 3.07 1.79 7.15 3.84 7.24 7.94.02 6.75-.04 13.52 0 20.28.18 4.18-4.05 6.3-7.06 8.23-9.25 5.35-18.16 11.27-27.43 16.57a81 81 0 0 1-11.01 4.52c-.33-1.07-.63-2.13-.89-3.19-.15-7.09 1.15-14.33-.79-21.27-5.16-3.74-10.95-6.5-16.3-9.93-2.49-1.37-4.95-3.32-7.89-3.37-3.75.93-6.84 3.4-10.15 5.27-4.25 2.64-9.15 4.49-12.49 8.38-1.05 1.67-.83 3.76-.93 5.65 0 6.79.16 13.58-.06 20.37 1.65 1.81 3.48 3.49 5.71 4.59 19.32 10.88 38.41 22.16 57.68 33.13 1.71 1.02 3.36 2.14 5.01 3.27-.18 1.52-.3 3.06-.63 4.57-2.12 2.01-4.85 3.21-7.36 4.64-10.63 5.75-21.15 11.72-31.78 17.49-2.46 1.49-5.38 1.54-8.16 1.6-.68-.54-1.36-1.07-2.03-1.59-4.34-3.51-9.35-6-14.15-8.79-8.46-4.86-16.93-9.71-25.31-14.69-2.56-1.52-5.29-2.73-8.03-3.86-4.69-2.19-9.02-5.08-13.56-7.55-2.44-1.61-5.62-3.62-5.42-6.95 0-24.89.15-49.78-.08-74.67.75-3.8 3.15-7.02 6.65-8.72 16.48-9.5 32.87-19.14 49.4-28.57 2.25-1.31 4.36-2.84 6.41-4.44"/><path d="M716.91 496.23c2.9-1.34 5.5-4.39 8.95-3.83 4.47 1.94 8.38 4.97 12.69 7.26-.1 5.52-.11 11.04 0 16.56-4.16 2.67-8.51 5.02-12.63 7.74-5.35-1.13-9.41-5.08-14.4-7.07-1.33-4.87-1.08-9.98-.78-14.97.17-3.26 3.96-4.05 6.17-5.69"/></g><path fill="#627d1f" d="M557.89 333.9c.33 30.34.05 60.69.14 91.04-.05 3.98.32 7.99-.18 11.96-.66 1.33-2.27 1.7-3.57 1.14-7.17-2.45-12.82-8.36-20.36-9.84-7.61 1.48-13.29 7.62-20.59 10.1 3.94-3.63 8.96-5.72 13.43-8.57 3.86-2.59 9.19-2.94 13.24-.58 5.58 3.01 10.9 6.56 16.87 8.78.3-29.31.04-58.63.13-87.94.12-5.37-.6-10.84.89-16.09" opacity=".8"/><path fill="#688327" d="M138.25 431.31c3-2.9 6.68-5.2 10.69-6.36 3.95-.85 7.18 1.98 10.38 3.76 7.12 4.19 14.29 8.28 21.42 12.45 3.74 2.21 7.83 3.97 10.92 7.13-3.23-1.31-6.38-2.81-9.34-4.64-7.9-4.86-16.06-9.27-23.98-14.08-2.59-1.46-5.27-3.15-8.31-3.3-4.18 1-7.8 3.49-11.78 5.04" opacity=".86"/><path fill="#fff" d="M337.46 427.61c3.57-2.18 7.75-.87 11.12 1 5.63 3.53 11.33 7.01 17.3 9.94.34 1.14 1.48 1.66 2.53 2.01 6.44 3.1 12.38 7.17 18.65 10.61 4.27 2.69 8.62 5.27 13.1 7.59 4.12 2.49 8.43 4.7 12.33 7.54.21.65.64 1.95.85 2.6.64 2.98.35 6.06.4 9.08-.03 22.02-.01 44.03 0 66.04.63 4.08-2.27 7.25-5.5 9.2-12.15 6.92-24.25 13.93-36.28 21.06-.26.13-.78.38-1.05.51-8.18 3.99-15.77 9.07-23.72 13.5-3.37 1.99-7.65 1.76-10.95-.26-5.68-3.29-11.2-6.87-17.13-9.71-14.01-8.11-28-16.25-42.04-24.3-3.02-1.81-6.94-3.96-6.75-8.05-.15-23.67.03-47.35-.08-71.02.01-2.05-.06-4.12.35-6.14.76-1.6 1.99-2.91 3.15-4.22 10.73-6.28 21.54-12.44 32.25-18.77 10.53-5.99 20.89-12.3 31.47-18.21m2.74 54.82c-3.73 3.1-8.23 5.05-12.28 7.7-1.62.94-3.24 1.88-4.85 2.84-1.55.99-3.13 1.93-4.72 2.86-.19 9.39-.41 18.82.13 28.21 1.88.83 3.68 1.81 5.48 2.81 3.91 2.62 8.15 4.7 12.06 7.34 2.22 1.07 4.42 3.05 7.06 2.43 1.72-.64 3.29-1.59 4.88-2.48 3.91-2.63 8.16-4.69 12.06-7.33 1.78-1.01 3.61-1.95 5.46-2.82.56-9.37.29-18.79.16-28.18-5.19-2.93-10.23-6.1-15.38-9.08-3.28-1.6-6.11-4.86-10.06-4.3"/><path fill="#678325" d="M710.83 432.78c1.54-.86 3.22-1.39 4.91-1.92-2.05 1.6-4.16 3.13-6.41 4.44-16.53 9.43-32.92 19.07-49.4 28.57-3.5 1.7-5.9 4.92-6.65 8.72-1.45-3.89 1.3-7.15 4.53-8.89 17.63-10.38 35.44-20.46 53.02-30.92" opacity=".85"/><path fill="#68881c" d="M116.03 443.25c3.49-1.96 6.77-4.48 10.77-5.33-2.68 2.02-5.48 3.87-8.43 5.49-10.9 5.99-21.51 12.52-32.43 18.48-2.84 1.71-6.35 3.4-7.27 6.89-.47 2.36-.65 4.76-.69 7.17.13 26.01.02 52.02.06 78.04.06 5.75-.46 11.57.58 17.27.77 3.31 4.5 2.3 6.7 1.11 4.84-2.52 9.33-5.74 14.47-7.67-1.94 1.89-4.19 3.4-6.59 4.65-4.31 2.22-8.25 5.41-13.19 6.1-1.6-2.18-3.37-4.52-3.02-7.4.04-29.01.01-58.03.02-87.05.05-3.96-.31-7.95.29-11.87.62-3.17 3.13-5.5 5.84-7.01 11.02-6.18 21.93-12.57 32.89-18.87" opacity=".83"/><path fill="#88ab37" d="M365.88 438.55c1.14-1.27 3.57.61 2.53 2.01-1.05-.35-2.19-.87-2.53-2.01" opacity=".81"/><path fill="#90b538" d="M387.06 451.17c4.99.84 9.97 3.57 13.1 7.59-4.48-2.32-8.83-4.9-13.1-7.59" opacity=".86"/><path fill="#83aa27" d="M268.95 473.02c.14-3.2.65-8.23 4.79-8.43-1.16 1.31-2.39 2.62-3.15 4.22-.62 1.28-.54 2.74-.62 4.13.09 20.01.02 40.02.04 60.04.02 5.23.2 10.49-.43 15.7-.4-2.52-.68-5.07-.68-7.62.12-22.68.01-45.36.05-68.04" opacity=".82"/><path fill="#698d15" d="M460.97 476.02c-.09-4.54 1.11-10.7 6.62-11.27-2.76 2.33-5.58 5.32-5.28 9.22.01 24.01 0 48.02 0 72.03-.23 3.88 2.7 6.76 5.28 9.23-5.76-.85-6.79-7.5-6.66-12.26.2-22.32.04-44.64.04-66.95" opacity=".82"/><path fill="#708442" d="m220.75 467.08.62-1.64c1.73 5.35 1.21 11.02 1.24 16.55 0 28.67-.03 57.34.02 86.01.06 2.41-.34 4.99-2.47 6.47 1.58-10.11.7-20.35.9-30.52-.16-25.63.34-51.26-.31-76.87"/><path fill="#86b11f" d="M412.49 466.3c2.98 1.87 2.37 5.71 2.6 8.71-.09 18.34-.02 36.68-.05 55.02-.05 6.14.39 12.33-.56 18.44-.36-3.16-.55-6.33-.51-9.5.11-21.33-.06-42.66.09-63.98-.02-2.05-.09-4.13-.72-6.09-.21-.65-.64-1.95-.85-2.6" opacity=".86"/><path fill="#68871e" d="M714.87 487c3.31-1.87 6.4-4.34 10.15-5.27 2.94.05 5.4 2 7.89 3.37 5.35 3.43 11.14 6.19 16.3 9.93.02 7.07-1.05 14.33.79 21.27.26 1.06.56 2.12.89 3.19 3.77-1.24 7.46-2.74 11.01-4.52-2.42 2.53-5.44 4.57-8.89 5.37-2.78-.03-4.8-2.63-4.8-5.28-.4-6.55.11-13.11-.27-19.65-6.26-3.5-12.35-7.3-18.57-10.86-1.75-.87-3.82-2.25-5.74-1.04-7.31 3.54-13.83 8.54-21.25 11.87 3.34-3.89 8.24-5.74 12.49-8.38" opacity=".84"/><path fill="#758f38" d="M749.21 495.03c1.94 6.94.64 14.18.79 21.27-1.84-6.94-.77-14.2-.79-21.27"/><path fill="#678423" d="M672.34 561.76c2.74 1.13 5.47 2.34 8.03 3.86 8.38 4.98 16.85 9.83 25.31 14.69 4.8 2.79 9.81 5.28 14.15 8.79-1.72-.51-3.43-1.02-4.98-1.91-10.69-6.36-21.52-12.5-32.28-18.75-3.5-2.07-7.36-3.71-10.23-6.68" opacity=".85"/><path fill="#688229" d="M566.63 573.76c3.25-2.04 6.69-3.74 10.25-5.17-1.11 1-2.17 2.08-3.46 2.86-10.6 6.05-21.16 12.2-31.67 18.4-4.32 3.16-10.55 3.41-15.04.48-4.45-2.89-9.52-4.92-13.38-8.65 6.5 2.22 11.79 6.81 18.08 9.46 3.02 1.51 6.07-.55 8.72-1.9 8.8-5.21 17.75-10.18 26.5-15.48" opacity=".87"/><path fill="#acc86a" d="M347.19 588.29c7.95-4.43 15.54-9.51 23.72-13.5-3.55 3.68-8.47 5.42-12.7 8.15-4.48 2.44-8.64 5.53-13.4 7.43-4.4 1.53-8.54-1.19-12.14-3.36-4.53-2.89-9.63-4.94-13.56-8.69 5.93 2.84 11.45 6.42 17.13 9.71 3.3 2.02 7.58 2.25 10.95.26" opacity=".9"/></svg>