<svg xmlns="http://www.w3.org/2000/svg" width="340pt" height="340pt" viewBox="0 0 340 340">
  <g fill="#00a9d9">
    <path
      d="M92.94 20.94c3.63-4.69 9.09-7.9 14.97-8.74 8.44-1.35 16.96 1 24.7 4.28 13.94 6.08 26.12 15.51 37.28 25.71 12.09-11.11 25.4-21.42 40.87-27.35 8.82-3.3 19.18-4.99 27.95-.67 8.64 4.31 13.21 13.69 15.16 22.74 3.68 17.39 1.32 35.39-2.39 52.56 14.83 4.67 29.5 10.67 42.02 20.04 6.86 5.28 13.3 11.87 15.95 20.31 1.98 6.13 1.05 12.95-2 18.58-3.96 7.39-10.37 13.12-17.19 17.83-11.71 7.99-24.98 13.37-38.43 17.62 3.28 14.82 5.34 30.13 3.68 45.3-1.03 8.62-3.37 17.53-9.15 24.25-4.07 4.82-10.19 7.68-16.45 8.06-8.81.58-17.44-2.23-25.32-5.93-12.73-6.13-23.99-14.89-34.36-24.4-12.23 11.21-25.69 21.67-41.38 27.53-8.85 3.19-19.25 4.87-27.95.35-8.53-4.45-12.93-13.85-14.85-22.87-3.56-17.29-1.22-35.16 2.47-52.23-14.68-4.62-29.19-10.54-41.63-19.74-6.81-5.18-13.21-11.59-16.09-19.82-2.13-5.96-1.56-12.71 1.25-18.34 3.68-7.55 10.03-13.39 16.78-18.19 11.97-8.34 25.61-13.91 39.46-18.29-3.33-15.15-5.49-30.82-3.56-46.32 1.04-7.88 3.23-15.92 8.21-22.27m13.83 4.88c-5.71 3.12-7.59 10.03-8.8 15.96-2.51 14.74-.45 29.83 2.77 44.3 11.95-2.92 24.1-4.95 36.33-6.27 7.26-10.01 15.12-19.59 23.64-28.55-10.69-9.7-22.34-18.84-35.91-24.11-5.68-2.03-12.21-3.75-18.03-1.33m106.75 1.67c-12.97 5.44-24.16 14.28-34.46 23.7 8.57 8.99 16.46 18.6 23.8 28.62 12.21 1.33 24.35 3.35 36.29 6.22 3.23-15.24 5.48-31.18 2.2-46.6-1.33-5.31-3.41-11.41-8.72-13.94-6.27-2.42-13.13-.32-19.11 2m-59.34 51.04c10.48-.52 20.98-.48 31.46 0-4.97-6.32-10.23-12.43-15.82-18.22-5.51 5.81-10.76 11.87-15.64 18.22m-10.02 13.64a307.3 307.3 0 0 0-25.65 44.69c7.3 15.54 15.95 30.45 25.78 44.54 17.17 1.36 34.46 1.48 51.62-.11 9.72-14.16 18.28-29.1 25.58-44.63-7.28-15.56-15.96-30.45-25.77-44.55-17.15-1.4-34.41-1.45-51.56.06m-40.24 6.35c2.23 7.67 4.88 15.22 7.84 22.65 4.8-9.27 9.98-18.34 15.6-27.14-7.87 1.17-15.69 2.68-23.44 4.49m108.61-4.49c5.64 8.74 10.89 17.73 15.65 26.98 2.87-7.39 5.47-14.88 7.69-22.49-7.71-1.85-15.5-3.33-23.34-4.49M50.65 122.72c-4.04 3.77-8.33 8.44-8.35 14.31.47 5.97 4.96 10.58 9.2 14.35 11.61 9.7 25.87 15.51 40.14 20.08 3.43-11.83 7.76-23.38 12.69-34.67-5-11.32-9.36-22.93-12.86-34.8-14.54 4.7-29.17 10.58-40.82 20.73m197.66-20.79c-3.44 11.84-7.79 23.39-12.69 34.69 5.02 11.3 9.34 22.92 12.87 34.77 14.43-4.67 28.93-10.5 40.55-20.5 4.22-3.88 8.79-8.76 8.64-14.89-.67-5.93-5.16-10.47-9.44-14.22-11.58-9.58-25.75-15.33-39.93-19.85m-35.73 77.42c7.88-1.16 15.71-2.69 23.45-4.55-2.25-7.67-4.88-15.22-7.84-22.65-4.79 9.3-9.97 18.39-15.61 27.2m-108.5-4.5c7.7 1.87 15.5 3.33 23.34 4.5-5.61-8.76-10.92-17.72-15.66-26.98-2.86 7.39-5.47 14.87-7.68 22.48m-3.23 12.51c-3.21 15.11-5.44 30.92-2.28 46.23 1.3 5.39 3.34 11.56 8.64 14.23 5.82 2.45 12.33.59 18-1.43 13.51-5.33 25.09-14.49 35.73-24.2-8.55-8.99-16.46-18.57-23.77-28.59-12.22-1.37-24.36-3.37-36.32-6.24m102.03 6.18c-7.2 10.04-15.1 19.56-23.59 28.53 11.43 10.31 23.92 20.17 38.71 25.06 5.52 1.57 12.34 3 17.24-.87 4.42-3.98 5.96-10.07 6.98-15.71 2.19-14.44.2-29.16-2.95-43.31-11.97 2.94-24.15 4.93-36.39 6.3m-48.58 1.32c4.98 6.31 10.23 12.42 15.82 18.2 5.52-5.79 10.75-11.87 15.64-18.2-10.48.51-20.98.45-31.46 0" />
    <path
      d="M162.38 111.61c11.46-3.67 24.9 1.81 30.51 12.44 4.88 8.67 4.17 20.1-1.78 28.07-5.73 8.06-16.27 12.23-25.97 10.32-11.64-1.96-21-12.65-21.35-24.45-.81-11.7 7.32-23.18 18.59-26.38M14.74 284c7.16.03 14.32-.06 21.48.03 3.08.26 6.49.62 8.9 2.79 4.77 4.25 5.31 12.5.89 17.19-2.33 2.43-5.66 3.32-8.83 4.04 7.64 3.82 10.61 12.5 15.54 18.95-2.45 0-4.91 0-7.36-.02-3.12-4.67-5.95-9.55-9.41-13.98-1.69-2.14-3.7-4.37-6.5-4.92-3.01-.2-6.04-.06-9.06-.07.01 6.33.01 12.66.01 18.99-1.89-.01-3.78-.01-5.66 0-.01-14.33-.01-28.67 0-43m5.65 5.01q.015 6.99 0 13.98c5.59-.2 11.24.46 16.78-.37 3.91-.44 6.9-4.54 5.76-8.38-.65-3.51-4.41-5.22-7.67-5.22-4.96-.08-9.91.01-14.87-.01m153.21-5 5.7-.03c7.61 11.27 15.15 22.59 22.7 33.9V284h5.4v43.02c-2-.02-4-.04-5.99-.13-7.32-11.31-14.93-22.44-22.39-33.66-.05 11.26-.01 22.51-.02 33.77-1.8 0-3.6-.01-5.4 0zM259 284h5.26c0 1.66 0 3.33.01 5-1.76-.01-3.52 0-5.27 0zm-113.1 4.28c1.81-1.06 3.61-2.14 5.4-3.22-.05 3.64-.04 7.29-.04 10.93 1.74 0 3.47.01 5.21.02-.01 1.65-.01 3.32 0 4.98-1.74 0-3.47.01-5.21.02.08 6.63-.13 13.28.08 19.91.17 2.59 3.34 2.03 5.15 2.13-.03 1.63 1.41 3.89-.53 4.88-2.82.22-6.1.41-8.34-1.67-1.79-1.52-1.51-4.15-1.72-6.25-.09-6.34 0-12.67-.03-19.01H142v-5c1.29 0 2.58-.01 3.87-.01-.01-2.57-.01-5.14.03-7.71m100 0c1.81-1.06 3.61-2.14 5.4-3.22-.05 3.64-.04 7.29-.04 10.93 1.74 0 3.47.01 5.21.02-.01 1.65-.01 3.32 0 4.98-1.74 0-3.48.01-5.21.02.08 6.64-.13 13.29.09 19.93.18 2.57 3.33 2 5.14 2.11-.04 1.63 1.42 3.91-.54 4.89-3.46.45-8.7.14-9.66-4.04-.88-7.59-.22-15.27-.42-22.9H242v-5c1.29 0 2.57-.01 3.87 0-.01-2.58-.01-5.15.03-7.72M58.4 298.36c5.91-5.32 16.58-4.35 20.76 2.65 2.44 3.5 2.72 7.85 2.77 11.97-7.83.05-15.66-.02-23.49.05.38 4.02 2.38 8.35 6.58 9.52 4.63 1.81 9.88-.94 11.38-5.59 1.79.39 3.6.77 5.39 1.2-1.18 2.81-2.51 5.78-5.19 7.48-4.88 3.17-11.5 3.14-16.55.37-4.76-2.86-6.92-8.65-6.68-14.01-.22-4.95 1.16-10.29 5.03-13.64m.13 9.61c5.97.05 11.94.04 17.91.01-.44-2.87-1.64-5.9-4.55-7.06-5.41-2.95-12.89.77-13.36 7.05M93.4 295.7c5.56-1.34 13.45-1.47 16.68 4.18 2.75 8.79-.82 18.45 2.5 27.15-1.86-.03-3.71-.05-5.57-.07-.26-1.3-.51-2.6-.75-3.89-4.68 4.77-12.58 6.76-18.48 3.09-4.81-3.27-4.82-11.14-.13-14.51 5.41-3.8 12.53-2.23 18.42-4.8-.37-1.95-.07-4.64-2.23-5.64-2.85-1.58-6.4-1.59-9.47-.68-2.51.74-3.49 3.3-4.32 5.53-1.68-.41-3.36-.79-5.04-1.17.81-4.36 3.88-8.32 8.39-9.19m-.76 19.03c-3.05.8-4.05 5.16-1.35 6.99 3.87 2.49 9.49 1.37 12.68-1.77 2.15-2.05 1.79-5.2 2.04-7.89-4.35 1.41-8.99 1.43-13.37 2.67m28.8-17.43c4.98-3.1 12.04-3.32 16.69.53 2.2 1.73 3.16 4.44 3.96 7.03-1.71.41-3.42.79-5.13 1.19-.65-1.58-1.2-3.33-2.6-4.43-4.01-3.48-11.07-1.24-12.71 3.71-1.34 4.15-1.31 8.81.19 12.91 1.92 4.77 8.63 6.38 12.56 3.12 1.8-1.23 2.29-3.45 2.85-5.4 1.83.39 3.66.8 5.47 1.28-1.07 3.12-2.35 6.41-5.21 8.32-5.61 4.01-14.37 3.13-18.73-2.34-3.19-3.92-3.64-9.26-3.3-14.11.33-4.48 2.03-9.27 5.96-11.81m91.57 7.58c.81-4.63 4.29-8.63 9.06-9.35 5.38-1.11 12.94-1.11 16.01 4.36 2.74 8.78-.82 18.44 2.5 27.14-1.86-.03-3.71-.05-5.56-.07-.27-1.3-.52-2.6-.76-3.89-4.67 4.76-12.56 6.75-18.46 3.1-4.84-3.26-4.85-11.16-.13-14.53 5.4-3.79 12.51-2.22 18.4-4.79-.3-1.61-.18-3.39-1.12-4.8-2.82-2.49-7.08-2.5-10.52-1.54-2.55.73-3.55 3.31-4.38 5.55-1.68-.41-3.36-.79-5.04-1.18m7.62 9.86c-3.03.81-4.04 5.13-1.36 6.96 3.85 2.51 9.46 1.4 12.67-1.72 2.18-2.05 1.83-5.22 2.07-7.92-4.36 1.41-9 1.43-13.38 2.68m80.74-16.35c5.89-5.34 16.56-4.4 20.77 2.58 2.45 3.51 2.75 7.88 2.79 12.02-7.83.04-15.66-.03-23.49.03.38 4.02 2.37 8.34 6.55 9.53 4.64 1.82 9.91-.93 11.41-5.59 1.79.39 3.59.77 5.39 1.2-1.18 2.8-2.51 5.77-5.19 7.47-5.05 3.29-12.03 3.18-17.11.02-4.39-2.97-6.32-8.47-6.12-13.61-.23-4.95 1.14-10.29 5-13.65m.16 9.58c5.97.05 11.94.04 17.91.01-.18-4.84-4.69-8.6-9.46-8-4.4.06-7.95 3.72-8.45 7.99M259 296h5.26c0 10.33.01 20.67 0 31-1.75-.01-3.51 0-5.26 0zm7.77 0c1.84 0 3.67-.01 5.52 0 2.97 8.2 6.06 16.36 8.72 24.68 2.75-8.28 5.79-16.46 8.72-24.68h5.58c-3.91 10.31-7.69 20.68-11.55 31.01-1.76-.02-3.53-.03-5.29-.05-3.85-10.34-7.89-20.61-11.7-30.96" />
  </g>
</svg>