<svg xmlns="http://www.w3.org/2000/svg" viewBox="0 0 326 212">
  <path fill="#de8a3b"
    d="M34.32 3.87c.5-1 1.05-1.96 1.66-2.89 8.33 4.08 16.12 9.21 24.14 13.86 2.2 1.49 4.37 3.05 6.66 4.42 52.01 30.6 103.96 61.31 155.97 91.92 6.88 4.03 13.84 7.91 20.44 12.4-1.94-.6-3.92-1.1-5.74-2.01C173.8 84.84 110.03 48.3 46.35 11.62c-4.21-2.26-8.39-4.63-12.03-7.75m33.45 8c3.69-2.51 7.34 1.18 10.58 2.76 54.87 31.49 109.81 62.85 164.71 94.29 21.48 12.36 43.1 24.47 64.46 37.02-.06.59-.19 1.78-.26 2.37-.35.18-1.05.55-1.4.73-4.69-1.63-8.88-4.33-13.14-6.8-70.54-40.82-141.1-81.58-211.64-122.37-4.5-2.56-9.04-5.07-13.31-8M25.93 29.68q.42-1.575.87-3.15c6.34 3.07 12.34 6.79 18.48 10.25 72.56 41.45 145.09 82.92 217.65 124.36 1.71 1.03 3.37 2.14 5.02 3.26.31.21.93.64 1.24.85 1.32-.98 2.64-2.04 4.2-2.62 1.56.16 3.03.72 4.51 1.24-1.07.74-1.93 1.73-2.7 2.76 1.53 1.26 3.2 2.37 4.64 3.76-.08 1.93-.5 3.82-.88 5.71-1.66-.9-3.41-1.68-4.87-2.88-.66-1.56-.47-3.32-.61-4.98-.26-.29-.78-.88-1.04-1.17-.4.62-1.19 1.88-1.59 2.5-4.26-.46-8.03-2.54-11.58-4.8-75.96-44-152.07-87.74-227.98-131.82-1.79-1.09-3.57-2.19-5.36-3.27M12.77 44.4c1.04-.68 2.08-1.35 3.13-2.01 4.95 2.06 9.55 4.81 14.16 7.54 67.56 39.12 135.18 78.15 202.74 117.28 7.58 4.41 15.33 8.53 22.65 13.37-.48.38-1.44 1.13-1.93 1.5-4.43-1.9-8.62-4.33-12.72-6.87C169.2 133.81 97.58 92.43 26 51c-2.61-1.45-5.32-2.69-8.01-3.96-1.73-.9-3.48-1.75-5.22-2.64m-3.2.41c4.13 1.81 8.13 3.93 11.96 6.32 3.51 3.05 7.33 5.74 11.38 8.03 21.57 12.4 43.07 24.93 64.64 37.33 35.62 21.03 71.25 42.03 106.9 63.01 7.24 4.33 14.66 8.37 21.68 13.07-1.91-.62-3.86-1.14-5.66-2.02C155.54 133.12 90.53 95.83 25.58 58.43c-5.75-3.37-11.82-6.26-17.05-10.45zM.89 70.05c79.91 45.85 159.99 91.38 239.92 137.18.13 1.27.25 2.55.38 3.83-.31.24-.94.71-1.25.94h-.68c-6.14-4.06-12.61-7.57-18.96-11.27-39.11-22.58-78.22-45.15-117.33-67.73C68.63 113.28 34.46 93.24 0 73.72v-1.36c.22-.58.67-1.74.89-2.31" />
  <path fill="#c57630"
    d="M32.58 9.07c.57-1.74 1.12-3.48 1.74-5.2 3.64 3.12 7.82 5.49 12.03 7.75 63.68 36.68 127.45 73.22 191.1 109.95 1.82.91 3.8 1.41 5.74 2.01 5.46 2.34 10.42 5.64 15.53 8.65 6.2 3.7 12.54 7.19 18.65 11.06-.76 1.76-1.55 3.5-2.39 5.22-7.63-3.15-14.47-7.83-21.67-11.81C184.49 97.18 115.66 57.66 46.82 18.17c-4.92-2.75-10.03-5.29-14.24-9.1m30.74 6.37c1.45-1.22 2.92-2.44 4.45-3.57 4.27 2.93 8.81 5.44 13.31 8 70.54 40.79 141.1 81.55 211.64 122.37 4.26 2.47 8.45 5.17 13.14 6.8-1.88 1.04-3.71 2.16-5.56 3.23-7.39-4.18-14.5-8.9-22.28-12.36-71.39-41.79-143.2-82.88-214.7-124.47m-35.07 6.31c6.2 1.92 11.49 5.75 17.11 8.85 56.83 32.5 113.67 64.98 170.46 97.54 18.06 10.18 35.87 20.84 54.1 30.7-.65 1.86-1.31 3.71-1.97 5.56-1.65-1.12-3.31-2.23-5.02-3.26C190.37 119.7 117.84 78.23 45.28 36.78c-6.14-3.46-12.14-7.18-18.48-10.25.46-1.6.93-3.19 1.45-4.78M15.9 42.39c1.62-1.01 3.26-1.98 4.9-2.95 1.75.85 3.5 1.69 5.22 2.6 76.25 44.03 152.42 88.22 228.7 132.18 1.64.93 2.64 2.54 3.62 4.08-.96.77-1.92 1.53-2.89 2.28-7.32-4.84-15.07-8.96-22.65-13.37C165.24 128.08 97.62 89.05 30.06 49.93c-4.61-2.73-9.21-5.48-14.16-7.54M6.66 53.7c.63-1.91 1.26-3.81 1.87-5.72 5.23 4.19 11.3 7.08 17.05 10.45 64.95 37.4 129.96 74.69 194.89 112.12 1.8.88 3.75 1.4 5.66 2.02 5.9 2.63 11.18 6.38 16.85 9.44 2.7 1.58 5.68 2.91 7.75 5.35.09 2.03-1.03 3.83-1.87 5.59-80.65-46.57-161.6-92.61-242.2-139.25m-3.8 11.15c75.61 43.57 151.5 86.63 227.16 130.11 4.9 2.7 9.77 5.5 14.36 8.72-.66 2.17-1.3 4.35-2.05 6.49-.28.22-.86.67-1.14.89-.13-1.28-.25-2.56-.38-3.83C160.88 161.43 80.8 115.9.89 70.05c.68-1.73 1.35-3.45 1.97-5.2m303.03 85.85c1.49.79 2.97 1.61 4.46 2.41-.46 2.36-1.57 4.47-3.2 6.22-1.09-.84-2.17-1.66-3.25-2.49.67-2.05 1.33-4.1 1.99-6.14m-28.06 10c2.33-1.75 4.75-3.39 7.03-5.22 2.1 1.17 4.2 2.36 6.3 3.55-1.94 1.59-3.74 3.57-6.2 4.33-2.58-.18-4.82-1.64-7.13-2.66" />
  <path fill="#a15c26"
    d="M28.25 21.75c1.41-4.24 2.95-8.43 4.33-12.68 4.21 3.81 9.32 6.35 14.24 9.1 68.84 39.49 137.67 79.01 206.49 118.53 7.2 3.98 14.04 8.66 21.67 11.81-1.53 2.92-2.78 5.98-3.49 9.2 1.54.34 3.08.67 4.63 1.01-2.07.09-4.14.18-6.2.12-18.23-9.86-36.04-20.52-54.1-30.7C159.03 95.58 102.19 63.1 45.36 30.6c-5.62-3.1-10.91-6.93-17.11-8.85m3.04 11.2c75.91 44.08 152.02 87.82 227.98 131.82 3.55 2.26 7.32 4.34 11.58 4.8.16.85.33 1.7.51 2.54-5.27-1.39-9.19 3.4-13.02 6.19-.98-1.54-1.98-3.15-3.62-4.08-76.28-43.96-152.45-88.15-228.7-132.18-1.72-.91-3.47-1.75-5.22-2.6 3.55-2.07 7.06-4.22 10.49-6.49M2.86 64.85c1.28-3.71 2.52-7.44 3.8-11.15 80.6 46.64 161.55 92.68 242.2 139.25-1.15 2.24-2.56 4.44-2.98 6.96-.44 2.41 2.5 3.05 3.97 4.29-1.83-.17-3.65-.37-5.47-.52-4.59-3.22-9.46-6.02-14.36-8.72C154.36 151.48 78.47 108.42 2.86 64.85m275.16 75.06c7.78 3.46 14.89 8.18 22.28 12.36.29 2.61.48 5.23.77 7.85-.94-1.98-.59-5.31-3.01-6.11-2.6 1.23-4.75 3.16-6.9 5.02-2.1-1.19-4.2-2.38-6.3-3.55 1.21-1.25 2.31-2.6 3.44-3.93 1.22 0 2.43.02 3.66.04-4.71-3.82-9.66-7.36-13.94-11.68" />
  <path fill="#87481f"
    d="m60.12 14.84 3.2.6c71.5 41.59 143.31 82.68 214.7 124.47 4.28 4.32 9.23 7.86 13.94 11.68-1.23-.02-2.44-.04-3.66-.04-1.13 1.33-2.23 2.68-3.44 3.93-2.28 1.83-4.7 3.47-7.03 5.22 2.31 1.02 4.55 2.48 7.13 2.66 2.46-.76 4.26-2.74 6.2-4.33 2.15-1.86 4.3-3.79 6.9-5.02 2.42.8 2.07 4.13 3.01 6.11-.29-2.62-.48-5.24-.77-7.85 1.85-1.07 3.68-2.19 5.56-3.23.35-.18 1.05-.55 1.4-.73 6.3 3.94 12.12 8.59 17.76 13.42-7.69 4.89-15.59 9.44-23.29 14.32.53-3.11 1.18-6.53-.93-9.22-1.36 2.7-2.61 5.46-3.84 8.23-5.81-2.91-11.13-6.77-17.23-9.11 2.97 2.48 6.17 4.66 9.42 6.76 2.15 1.98 4.27 3.99 6.49 5.89-7.69 5.04-15.67 9.6-23.49 14.43.58-2.22 1.3-4.43 1.41-6.73-1.1-1.46-2.73-2.37-4.18-3.41-1.46 3.38-2.76 6.84-3.89 10.35-1.13-.43-2.25-.85-3.37-1.27 1.3 1.28 2.62 2.54 3.92 3.82-7.83 4.9-15.76 9.66-23.71 14.38.75-2.14 1.39-4.32 2.05-6.49 1.82.15 3.64.35 5.47.52-1.47-1.24-4.41-1.88-3.97-4.29.42-2.52 1.83-4.72 2.98-6.96.84-1.76 1.96-3.56 1.87-5.59-2.07-2.44-5.05-3.77-7.75-5.35-5.67-3.06-10.95-6.81-16.85-9.44-7.02-4.7-14.44-8.74-21.68-13.07a88027 88027 0 0 1-106.9-63.01c-21.57-12.4-43.07-24.93-64.64-37.33a69.5 69.5 0 0 1-11.38-8.03c-1.21-1.33-2.33-2.75-3.54-4.09 2.69 1.27 5.4 2.51 8.01 3.96 71.58 41.43 143.2 82.81 214.8 124.21 4.1 2.54 8.29 4.97 12.72 6.87.49-.37 1.45-1.12 1.93-1.5.97-.75 1.93-1.51 2.89-2.28 3.83-2.79 7.75-7.58 13.02-6.19-.18-.84-.35-1.69-.51-2.54.4-.62 1.19-1.88 1.59-2.5.26.29.78.88 1.04 1.17.14 1.66-.05 3.42.61 4.98 1.46 1.2 3.21 1.98 4.87 2.88.38-1.89.8-3.78.88-5.71-1.44-1.39-3.11-2.5-4.64-3.76.77-1.03 1.63-2.02 2.7-2.76-1.48-.52-2.95-1.08-4.51-1.24-1.56.58-2.88 1.64-4.2 2.62-.31-.21-.93-.64-1.24-.85.66-1.85 1.32-3.7 1.97-5.56 2.06.06 4.13-.03 6.2-.12-1.55-.34-3.09-.67-4.63-1.01.71-3.22 1.96-6.28 3.49-9.2.84-1.72 1.63-3.46 2.39-5.22-6.11-3.87-12.45-7.36-18.65-11.06-5.11-3.01-10.07-6.31-15.53-8.65-6.6-4.49-13.56-8.37-20.44-12.4-52.01-30.61-103.96-61.32-155.97-91.92-2.29-1.37-4.46-2.93-6.66-4.42M305.89 150.7c-.66 2.04-1.32 4.09-1.99 6.14 1.08.83 2.16 1.65 3.25 2.49 1.63-1.75 2.74-3.86 3.2-6.22-1.49-.8-2.97-1.62-4.46-2.41" />
  <path fill="#da873a"
    d="M279.73 165.95c6.1 2.34 11.42 6.2 17.23 9.11 1.23-2.77 2.48-5.53 3.84-8.23 2.11 2.69 1.46 6.11.93 9.22-1.28.51-2.65 1.66-4.09 1.1-2.98-1.17-5.7-2.9-8.49-4.44-3.25-2.1-6.45-4.28-9.42-6.76" />
  <path fill="#c97932"
    d="M269.38 182.89c1.45 1.04 3.08 1.95 4.18 3.41-.11 2.3-.83 4.51-1.41 6.73l-2.97 1.68q-1.845-.75-3.69-1.47c1.13-3.51 2.43-6.97 3.89-10.35" />
</svg>