<svg xmlns="http://www.w3.org/2000/svg" viewBox="0 0 361 385">
  <path fill="#52883d"
    d="M157.7 117.17C176.86 78.3 196.19 39.52 215.5.73c1.57 2.87 3.12 5.76 4.65 8.65-1.04 2.23-.06 4.58.66 6.74 7.03 20.66 14.26 41.25 21.06 61.99 5.35 14.26 9.66 28.88 14.89 43.18.05.69.14 2.09.19 2.78-7.7-3.87-15.17-8.2-22.7-12.41-2.35-1.38-4.62-3.02-7.29-3.72-2.95 1.11-5.06 3.6-7.5 5.49-6.39 5.22-12.67 10.58-19.28 15.53-4.73-7.08-8.88-14.52-13.46-21.7-.76-.97-1.38-2.26-2.66-2.64-3.46.82-6.69 2.54-9.4 4.83-.1.07-.28.22-.38.29-5.8 1.83-11.06 4.94-16.58 7.43m-95.23-1.56c1.15 2.1 2.28 4.21 3.35 6.36.22 2.61.55 5.22 1.46 7.68 2.53 7.16 4.81 14.39 7.48 21.5 2.79 7.52 4.84 15.3 7.98 22.7.19 1.4.35 2.8.5 4.21-4.85-2.08-9.18-5.18-14-7.3-1.25-.8-2.34.55-3.35 1.12-3.82 2.97-7.34 6.32-11.36 9.04-2.65-4.27-4.96-8.8-8.38-12.53-1.61.98-3.2 1.98-4.87 2.86-2.84 1.28-5.7 2.55-8.53 3.89 9.93-19.84 19.7-39.74 29.72-59.53" />
  <path fill="#4a7738"
    d="M220.81 16.12c-.72-2.16-1.7-4.51-.66-6.74a30200 30200 0 0 1 53.29 98.69c-5.19-3.1-10.35-6.24-15.56-9.31.03 4.89-.28 9.8.25 14.68-.85 2.53-1.34 5.17-1.37 7.85-5.23-14.3-9.54-28.92-14.89-43.18-6.8-20.74-14.03-41.33-21.06-61.99M67.28 129.65c-.91-2.46-1.24-5.07-1.46-7.68 8.93 16.12 17.57 32.41 26.33 48.62q-4.2-2.535-8.37-5.13c.08 3.03-.24 6.2 1.02 9.06-.51-.17-1.54-.51-2.06-.67-3.14-7.4-5.19-15.18-7.98-22.7-2.67-7.11-4.95-14.34-7.48-21.5" />
  <path fill="#406a32"
    d="M174.66 109.45c2.71-2.29 5.94-4.01 9.4-4.83 1.28.38 1.9 1.67 2.66 2.64 4.58 7.18 8.73 14.62 13.46 21.7 6.61-4.95 12.89-10.31 19.28-15.53 2.44-1.89 4.55-4.38 7.5-5.49 2.67.7 4.94 2.34 7.29 3.72.2 2.11.42 4.22.82 6.3-2.02-.66-4.02-1.35-6.02-2.05-5.14 4.26-9.05 9.71-13.82 14.33-3.78 3.73-7.43 7.57-11.39 11.1-5.61-8.82-9.17-19.02-16.57-26.61-7.49 4.54-14.13 10.34-21.78 14.63.38-1.53.76-3.05 1.21-4.56 2.49-5.04 5.62-9.77 7.58-15.06l.14-.19zm36.74 86.93c1.67-.93 3.57-2.87 5.53-1.45 5.17 2.74 9.78 6.39 14.7 9.54.02 1.86.05 3.73.08 5.59-4.41-2.66-9.06-4.9-13.7-7.11-14.51 11.35-28.2 23.73-42.8 34.97-1.82-4.79-3.52-9.66-4.37-14.73 13.5-8.96 27.16-17.69 40.56-26.81M85.1 227.49c2.57-5.57 2.64-12.29 6.6-17.16.78 1.62 1.55 3.24 2.33 4.85-2.55 8.1-3.24 16.63-5.36 24.84-6.34-5.19-11.4-11.73-17.74-16.9-2.15-1.53-4.39-3.05-6.94-3.8-2.78 1.25-4.93 3.5-7.27 5.4-4.84 4.03-9.73 8-14.43 12.19-1.59-2.31-2.5-4.97-3.08-7.7 7.85-4.77 15.35-10.06 23.08-14.99 7.69 4.51 15.03 9.58 22.44 14.52.09-.32.28-.94.37-1.25" />
  <path fill="#a8b698" d="M174.28 109.74c.1-.07.28-.22.38-.29l-.24.1z" />
  <path fill="#3d612e"
    d="M234.25 111.66c7.53 4.21 15 8.54 22.7 12.41-.05-.69-.14-2.09-.19-2.78.03-2.68.52-5.32 1.37-7.85 2.01 3.49 3.92 7.04 5.75 10.63-1.04 7.79 1.08 15.53.84 23.33-4.71-3.25-8.29-7.76-12.39-11.68-5.45-5.3-10.63-10.87-16.28-15.95-.24-.46-.73-1.36-.98-1.81-.4-2.08-.62-4.19-.82-6.3" />
  <path fill="#538a3e"
    d="M165.49 129.36c7.65-4.29 14.29-10.09 21.78-14.63 7.4 7.59 10.96 17.79 16.57 26.61 3.96-3.53 7.61-7.37 11.39-11.1 4.77-4.62 8.68-10.07 13.82-14.33 2 .7 4 1.39 6.02 2.05.25.45.74 1.35.98 1.81 4.77 21.47 10.09 42.81 14.97 64.26 3.06 12.5 5.73 25.1 9.11 37.52-.09.3-.27.92-.36 1.23-9.44-6.02-18.71-12.28-28.14-18.31-4.92-3.15-9.53-6.8-14.7-9.54-1.96-1.42-3.86.52-5.53 1.45-13.4 9.12-27.06 17.85-40.56 26.81.85 5.07 2.55 9.94 4.37 14.73 14.6-11.24 28.29-23.62 42.8-34.97 4.64 2.21 9.29 4.45 13.7 7.11l.65.5c4.49 40.5 9.78 80.91 14.43 121.39.24 2.62.95 5.17 1.87 7.64-.23.34-.71 1.02-.94 1.36-7.23-6.38-14.5-12.69-22.11-18.62-2.34-1.97-4.66-3.96-7.05-5.87-3.93-3.25-7.83-6.54-11.98-9.49-.75-.56-1.48-1.12-2.21-1.69-4.17-3.41-8.35-6.79-12.54-10.17-20.72 11.54-41.43 23.09-62.14 34.65-.5-.61-1-1.22-1.5-1.82 5.65-15.21 10.46-30.72 15.69-46.08 7.78-21.17 14.23-42.8 22.05-63.95 2.9-6.93-1.65-13.69-2.97-20.41-.96-4.6-2.25-9.14-4.01-13.5-2.48.99-4.78 2.4-6.36 4.6-.72-.12-1.44-.24-2.17-.33l.06.41c-8.19 3.84-16.22 7.99-24.38 11.88 13.6-25.22 27.11-50.48 40.6-75.76-.45 1.51-.83 3.03-1.21 4.56M36.05 181.61c4.34-1.99 8.12-4.93 12.03-7.63 3.19 4.17 5.69 8.79 8.33 13.31 5.16-3.2 7.9-8.91 12.67-12.52 1.64-.17 2.85 1.14 4.04 2.04 3.86 16.93 7.69 33.86 11.98 50.68-.09.31-.28.93-.37 1.25-7.41-4.94-14.75-10.01-22.44-14.52-7.73 4.93-15.23 10.22-23.08 14.99.58 2.73 1.49 5.39 3.08 7.7 4.7-4.19 9.59-8.16 14.43-12.19 2.34-1.9 4.49-4.15 7.27-5.4 2.55.75 4.79 2.27 6.94 3.8 1.35 10.61 2.61 21.23 3.9 31.85.87 11.31 3.51 22.46 3.43 33.83-2.99-2.89-6.21-5.53-9.53-8.03-1.58-1.32-3.11-2.7-4.7-4.01-1.99-1.67-4.07-3.23-6.17-4.77-2.56-1.87-5.01-3.9-7.39-5.98-10.72 5.77-21.28 11.83-31.95 17.7.19-1.8.38-3.6.84-5.34 5.43-16.73 11.41-33.28 17.05-49.94 1.97-5.09.08-10.45-.86-15.53-.74-1.16-1.51-2.29-2.28-3.42-1.05.46-2.11.92-3.17 1.38-.34.25-1.03.75-1.37.99-4.01 1.99-8.04 3.93-12.03 5.96 6.37-12.11 12.89-24.14 19.35-36.2" />
  <path fill="#4c7d3a"
    d="M236.05 119.77c5.65 5.08 10.83 10.65 16.28 15.95 4.1 3.92 7.68 8.43 12.39 11.68.24-7.8-1.88-15.54-.84-23.33 13.72 25.48 27.34 51.02 41.04 76.51-9.72-5-19.85-9.26-29.27-14.81-1.54-1.24-4.55-1.32-4.79 1.14-3.57 11.54-6.85 23.19-10.73 34.64-3.38-12.42-6.05-25.02-9.11-37.52-4.88-21.45-10.2-42.79-14.97-64.26M73.12 176.81c4.9 4.7 9.36 9.84 14.61 14.16-.25-4.13-.34-8.27-.56-12.39 7.01 13.09 14.03 26.18 21.06 39.26-5.31-2.67-10.64-5.31-15.99-7.9l-.54.39c-3.96 4.87-4.03 11.59-6.6 17.16-4.29-16.82-8.12-33.75-11.98-50.68" />
  <path fill="#3f6731"
    d="M41.28 171.25c1.67-.88 3.26-1.88 4.87-2.86 3.42 3.73 5.73 8.26 8.38 12.53 4.02-2.72 7.54-6.07 11.36-9.04 1.01-.57 2.1-1.92 3.35-1.12 4.82 2.12 9.15 5.22 14 7.3-.15-1.41-.31-2.81-.5-4.21.52.16 1.55.5 2.06.67a47 47 0 0 1 2.37 4.06c.22 4.12.31 8.26.56 12.39-5.25-4.32-9.71-9.46-14.61-14.16-1.19-.9-2.4-2.21-4.04-2.04-4.77 3.61-7.51 9.32-12.67 12.52-2.64-4.52-5.14-9.14-8.33-13.31-3.91 2.7-7.69 5.64-12.03 7.63 1.75-3.45 3.65-6.83 5.23-10.36" />
  <path fill="#3e632f"
    d="M152.59 188.6c1.58-2.2 3.88-3.61 6.36-4.6 1.76 4.36 3.05 8.9 4.01 13.5-5.78 4.34-11.09 9.27-16.72 13.8-3.54 2.82-6.65 6.26-10.75 8.32 5.06-9.89 10.52-19.58 15.76-29.38-.19-.39-.58-1.17-.77-1.56l-.06-.41c.73.09 1.45.21 2.17.33m118.27-1.69c.24-2.46 3.25-2.38 4.79-1.14l-.59.12c-.91.23-1.81.49-2.7.77 2.54 3.24 4.12 7.06 5.92 10.73-.59 0-1.76-.01-2.35-.01-2.21 10.81-4.17 21.67-6.28 32.5-.99 4.92-1.44 9.98-3.26 14.69-7.17-6.45-13.61-13.66-20.59-20.32-4.63-4.42-8.56-9.54-13.44-13.69l-.65-.5c-.03-1.86-.06-3.73-.08-5.59 9.43 6.03 18.7 12.29 28.14 18.31.09-.31.27-.93.36-1.23 3.88-11.45 7.16-23.1 10.73-34.64M30.1 210.86c1.06-.46 2.12-.92 3.17-1.38.77 1.13 1.54 2.26 2.28 3.42-.46 1.64-.32 3.66-1.77 4.84-3.76 3.45-7.69 6.8-12.14 9.36 2.41-4.82 5.19-9.45 7.44-14.35.25-.47.77-1.42 1.02-1.89" />
  <path fill="#4f813b"
    d="M275.93 197.38c.59 0 1.76.01 2.35.01 14.98 30.37 30.07 60.69 45.16 91.01 1.21 2.85 3.45 5.02 6.1 6.54-.66.09-1.98.27-2.64.37 2.97 6.33 6.31 12.49 9.26 18.84-.49-.14-1.49-.41-1.98-.54l-.62-.32c-13.22-6.44-26.6-12.5-39.85-18.86-4.52-2-9.05-3.98-13.31-6.49-10.41 17.32-20.86 34.62-31.74 51.65-.92-2.47-1.63-5.02-1.87-7.64-4.65-40.48-9.94-80.89-14.43-121.39 4.88 4.15 8.81 9.27 13.44 13.69 6.98 6.66 13.42 13.87 20.59 20.32 1.82-4.71 2.27-9.77 3.26-14.69 2.11-10.83 4.07-21.69 6.28-32.5M146.24 211.3c5.63-4.53 10.94-9.46 16.72-13.8 1.32 6.72 5.87 13.48 2.97 20.41-7.82 21.15-14.27 42.78-22.05 63.95-5.23 15.36-10.04 30.87-15.69 46.08.5.6 1 1.21 1.5 1.82-.85.47-1.71.96-2.56 1.44-.02-9.36.1-18.73-.06-28.09-.05-1.97-.09-3.93-.09-5.89.01-3.84.03-7.67.02-11.51v-9.68c-1.7 1.01-3.4 2.03-5.08 3.06-9.12 5.55-18.17 11.22-27.52 16.38 4.59-9.06 9.58-17.92 14.39-26.86-4.49-1.81-8.7-4.19-13.13-6.12-5.62 9.03-10.95 18.24-16.82 27.1l-.58-.79c.08-11.37-2.56-22.52-3.43-33.83-1.29-10.62-2.55-21.24-3.9-31.85 6.34 5.17 11.4 11.71 17.74 16.9 2.12-8.21 2.81-16.74 5.36-24.84 6.97 14.05 14.08 28.02 20.97 42.11 6.99-12.47 13.54-25.18 20.49-37.67 4.1-2.06 7.21-5.5 10.75-8.32m-110.69 1.6c.94 5.08 2.83 10.44.86 15.53-5.64 16.66-11.62 33.21-17.05 49.94-.46 1.74-.65 3.54-.84 5.34-.3.17-.92.51-1.22.69.03-9.41-.01-18.81.02-28.21-5.66 3.29-11.24 6.72-16.86 10.07 7.07-13.05 14.09-26.12 21.18-39.16 4.45-2.56 8.38-5.91 12.14-9.36 1.45-1.18 1.31-3.2 1.77-4.84" />
  <path fill="#7f956c" d="M28.73 211.85c.34-.24 1.03-.74 1.37-.99-.25.47-.77 1.42-1.02 1.89z" />
  <path fill="#bdbdbd"
    d="M78.84 289.59c5.87-8.86 11.2-18.07 16.82-27.1 4.43 1.93 8.64 4.31 13.13 6.12-4.81 8.94-9.8 17.8-14.39 26.86 9.35-5.16 18.4-10.83 27.52-16.38 1.69 1.41 3.39 2.82 5.08 4.24v2.38c-2.99.39-5.97.86-8.91 1.53 2.92 3.36 5.9 6.67 8.89 9.98 0 1.96.04 3.92.09 5.89-6.14.05-12.27-.09-18.41.09-1.04.4-2.09.78-3.15 1.16-4 2.7-7.97 5.45-12.08 7.98-2.13 1.18-4.17 2.53-6.25 3.81-1.22-.48-2.44-.93-3.68-1.34-1.02-.54-2.04-1.08-3.05-1.62l-1.87-.2c-1.01-.56-2.02-1.13-3.03-1.68-1.06-.31-2.11-.62-3.17-.94-.53-.11-1.61-.34-2.15-.45-.1-.18-.31-.55-.42-.73-.91-9.65-1.52-19.33-2.19-29l1.11.58c3.32 2.5 6.54 5.14 9.53 8.03zm-25.35-9.75c1.3-.75 2.6-1.49 3.88-2.27-.55 10.28-2.05 20.53-1.97 30.82-1.16-.13-2.32-.22-3.49-.26-2.86 1.38-6.11.89-9.18 1.13-2.51 1.16-5.32.8-8 1.01-2.57 1.21-5.46.81-8.2.88.3-.69.92-2.07 1.22-2.76.1-.44.29-1.31.38-1.75.56-1.75 1.04-3.53 1.62-5.28l.27-3.93c-.65-.3-1.97-.89-2.62-1.19-2.05-.09-4.13-.19-6.1-.85-2.05-.28-4.11-.55-6.15-.93-1.58.11-3.22.23-4.71-.43 2.3-.62 4.64-1.03 7-1.36.98-.39 1.98-.76 2.97-1.13 1.33-.34 2.67-.63 4.01-.91 1-.35 2-.69 3-1.01.99-.36 1.99-.72 2.99-1.06 1.32-.35 2.66-.65 4-.94 1.03-.33 2.06-.65 3.09-.94 2.39-1.18 4.78-2.36 7.11-3.65.46-.06 1.37-.16 1.83-.21 1.72-.94 3.44-1.86 5.15-2.8.47-.05 1.42-.14 1.9-.18m226.91 8.1c4.26 2.51 8.79 4.49 13.31 6.49 13.25 6.36 26.63 12.42 39.85 18.86l.62.32c-.04.75-.11 2.25-.15 3 2.08 1.97 4.39 3.66 6.67 5.38-2.99.11-5.98.1-8.97.27-2.73 1.29-5.81.8-8.72.87v2.39c5.03.08 10.07.13 15.1.17-2.13.1-4.27.18-6.4.2-8.93-.1-17.85-.87-26.78-.66-3.08 3.21-7.91 5.5-8.66 10.29-1.75 8.78-3.65 17.53-5.38 26.32l3.64.48c-2.98 2.08-5.98 4.14-9.1 6.01-3.82 2.09-7.25 4.8-11 7.01-4.11 2.24-7.78 5.19-11.84 7.51-.72.35-1.42.71-2.13 1.07-1.67-.92-3.35-1.83-5.01-2.74-.47-.05-1.4-.14-1.86-.19-1.02-.56-2.03-1.12-3.05-1.66-1.06-.34-2.12-.68-3.17-1.03l-1.84-.32c-1.02-.61-2.03-1.22-3.04-1.82-.49-.04-1.46-.1-1.95-.14-1.01-.63-2.03-1.25-3.04-1.87-.49-.03-1.47-.1-1.95-.13-1.02-.63-2.04-1.25-3.06-1.87-.48-.03-1.46-.1-1.95-.13-1.01-.63-2.02-1.24-3.04-1.86-.47-.05-1.42-.14-1.9-.19-1.03-.6-2.08-1.17-3.13-1.72l-.73-.22-.77-.56c2.54-.77 5.09-1.53 7.64-2.28-1.04-14.28-2.41-28.55-3-42.86 7.61 5.93 14.88 12.24 22.11 18.62.23-.34.71-1.02.94-1.36 10.88-17.03 21.33-34.33 31.74-51.65m-76.03 17.34c.73.57 1.46 1.13 2.21 1.69-1.31 18.69-2.73 37.37-4.2 56.05.87 1.08 1.73 2.17 2.62 3.24-2.63 1.04-5.5.85-8.28 1.02-2.52 1.09-5.32.8-7.99 1-2.53 1.1-5.33.8-8.01 1-2.51 1.12-5.32.79-7.99 1-2.52 1.11-5.32.79-8 1-2.52 1.13-5.32.79-8 1-2.21.97-4.66.84-7.01 1.03-2.58 1.07-5.4.8-8.12.86.31-1.26.63-2.52.97-3.76.34-1 .69-2 1.05-2.98.32-1.01.66-2.01 1.01-3.01.29-1.35.58-2.69.92-4.02.35-1 .7-1.99 1.07-2.97.31-1.37.62-2.74.99-4.09.16-.41.49-1.24.66-1.65.46-1.72.66-3.48.86-5.23-.69-.3-2.05-.91-2.73-1.21-2.05-.1-4.11-.22-6.08-.82-1.68-.31-3.36-.61-5.01-1.06-2.02-.22-4.04-.41-6-.93-1.68-.32-3.36-.63-5.01-1.07-2.03-.24-4.12-.3-6.03-1.1-1.61-.11-3.23-.17-4.84-.22l2-2.16c.49-.03 1.45-.07 1.93-.1 1.01-.44 2.02-.87 3.04-1.27 1.33-.33 2.68-.6 4.03-.87.99-.38 1.98-.75 2.97-1.1 1.33-.35 2.67-.64 4.01-.92 1-.35 2.01-.68 3.02-1 .99-.37 1.98-.73 2.98-1.08 1.33-.34 2.67-.63 4.02-.91.98-.38 1.97-.74 2.97-1.09 1.33-.35 2.67-.64 4.02-.92.99-.35 2-.69 3-1 1-.37 1.99-.73 2.99-1.08 1.33-.34 2.68-.63 4.02-.91.99-.37 1.98-.74 2.98-1.08q1.755-.465 3.51-.87c.04-.44.1-1.33.14-1.77l2.38-.08c1.71-.95 3.44-1.88 5.15-2.82.46-.05 1.39-.15 1.86-.21 1.71-.93 3.43-1.85 5.14-2.79.46-.05 1.4-.15 1.86-.21 1.71-.93 3.44-1.85 5.14-2.8.48-.04 1.44-.13 1.91-.17 1.02-.62 2.03-1.24 3.05-1.87.47-.03 1.41-.11 1.87-.15l2.18-1.15c.99-.56 1.99-1.12 2.98-1.67l1.96-.12c1.29-.85 2.57-1.71 3.83-2.6" />
  <path fill="#80592a"
    d="M57.86 271.99c2.1 1.54 4.18 3.1 6.17 4.77-.34 8.78-.05 17.57-.06 26.35-1.25-1.13-2.57-2.19-3.88-3.24-2.09 2.78-2.95 6.16-3.31 9.57l-1.38-1.05c-.08-10.29 1.42-20.54 1.97-30.82.18-1.86.33-3.72.49-5.58m148.72 34.98c4.15 2.95 8.05 6.24 11.98 9.49-1.15 11.15-.38 22.41.35 33.56.15 5.39-.09 10.78.29 16.16.44.33 1.33.97 1.77 1.29l.77.56c-5.6-.3-11.29-.24-16.74-1.77-.89-1.07-1.75-2.16-2.62-3.24 1.47-18.68 2.89-37.36 4.2-56.05m1.37 58.92c2.71 1.8 6.19.89 9.25 1.05-1.39-1.99-3.22-3.58-5.18-4.98-1.42 1.22-3.33 2.11-4.07 3.93" />
  <path fill="#eaebe6" d="M121.92 279.09c1.68-1.03 3.38-2.05 5.08-3.06v7.3c-1.69-1.42-3.39-2.83-5.08-4.24" />
  <path fill="#735026"
    d="M64.03 276.76c1.59 1.31 3.12 2.69 4.7 4.01l-1.11-.58c.67 9.67 1.28 19.35 2.19 29-.64.15-1.92.44-2.57.58-1.17-2.18-2.23-4.42-3.27-6.66.01-8.78-.28-17.57.06-26.35m154.88 73.26c-.73-11.15-1.5-22.41-.35-33.56 2.39 1.91 4.71 3.9 7.05 5.87.59 14.31 1.96 28.58 3 42.86-2.55.75-5.1 1.51-7.64 2.28-.44-.32-1.33-.96-1.77-1.29-.38-5.38-.14-10.77-.29-16.16" />
  <path fill="#f7f7f6"
    d="M118.09 287.24c2.94-.67 5.92-1.14 8.91-1.53.01 3.84-.01 7.67-.02 11.51-2.99-3.31-5.97-6.62-8.89-9.98" />
  <path fill="#a77437"
    d="M60.09 299.87c1.31 1.05 2.63 2.11 3.88 3.24 1.04 2.24 2.1 4.48 3.27 6.66-3.42 1.02-7.08.68-10.46-.33.36-3.41 1.22-6.79 3.31-9.57m147.86 66.02c.74-1.82 2.65-2.71 4.07-3.93 1.96 1.4 3.79 2.99 5.18 4.98-3.06-.16-6.54.75-9.25-1.05" />
  <path fill="#716033"
    d="M296.27 335.52c.75-4.79 5.58-7.08 8.66-10.29 8.93-.21 17.85.56 26.78.66 3.24 4.9 7.3 9.15 11.36 13.37 1.77 2.23 2.72 4.94 3.27 7.71-5.81-2.12-10.99-6.27-17.48-6.01-3.74-.26-7.72-1.13-11.26.58-6.1 2.59-12.26 5.05-18.32 7.75-1.17 4.37-2.06 8.81-2.71 13.29-.51-.07-1.53-.19-2.04-.26l-3.64-.48c1.73-8.79 3.63-17.54 5.38-26.32" />
  <path fill="#978346"
    d="M331.71 325.89c2.13-.02 4.27-.1 6.4-.2 3.77 4.17 7.9 8.02 11.41 12.42-2.15.38-4.3.76-6.45 1.15-4.06-4.22-8.12-8.47-11.36-13.37" />
  <path fill="#87743d"
    d="M349.52 338.11c4.22 7.43 7.58 15.31 11.48 22.91v.4c-8.23 2.69-16.76 4.25-25.1 6.51-2.94.83-6.04 1.04-9.04.52 1.27-.23 2.56-.46 3.84-.71-.67-8.92-1.46-17.84-1.84-26.78 6.49-.26 11.67 3.89 17.48 6.01-.55-2.77-1.5-5.48-3.27-7.71 2.15-.39 4.3-.77 6.45-1.15" />
  <path fill="#937f43"
    d="M317.6 341.54c3.54-1.71 7.52-.84 11.26-.58.38 8.94 1.17 17.86 1.84 26.78-1.28.25-2.57.48-3.84.71-10.11-1.92-20.15-4.21-30.29-5.87.65-4.48 1.54-8.92 2.71-13.29 6.06-2.7 12.22-5.16 18.32-7.75" />
</svg>