<?xml version="1.0" encoding="UTF-8" ?>
<!DOCTYPE svg PUBLIC "-//W3C//DTD SVG 1.1//EN" "http://www.w3.org/Graphics/SVG/1.1/DTD/svg11.dtd">
<svg width="650pt" height="650pt" viewBox="0 0 650 650" version="1.1" xmlns="http://www.w3.org/2000/svg">
<g id="#6c2820ff">
<path fill="#6c2820" opacity="1.00" d=" M 95.93 0.00 L 554.37 0.00 C 574.82 1.07 594.96 8.24 611.13 20.87 C 634.72 38.90 649.39 67.83 650.00 97.52 L 650.00 554.45 C 648.91 574.63 641.93 594.52 629.57 610.56 C 611.90 634.06 583.47 648.79 554.12 650.00 L 96.77 650.00 C 76.86 649.26 57.16 642.64 41.10 630.80 C 16.48 613.09 0.95 583.71 0.00 553.40 L 0.00 96.66 C 0.85 72.51 10.64 48.79 27.36 31.30 C 44.99 12.44 70.16 1.12 95.93 0.00 M 211.98 105.99 C 203.37 114.39 194.93 122.99 186.86 131.92 C 173.15 146.67 160.99 162.76 149.13 179.00 C 141.23 188.54 134.66 199.10 126.65 208.57 C 124.83 210.53 122.74 212.42 120.16 213.30 C 115.09 214.05 109.97 213.21 104.90 212.80 C 103.16 212.81 100.99 212.15 99.85 213.93 C 95.36 218.87 92.99 225.27 90.01 231.15 C 83.76 244.87 79.39 259.34 74.74 273.66 C 71.40 285.87 66.63 297.65 63.58 309.95 C 66.44 314.06 71.34 315.91 75.30 318.75 C 88.56 327.58 101.85 336.37 115.59 344.43 C 117.29 345.25 119.54 346.68 121.34 345.38 C 125.74 340.96 126.72 334.57 128.70 328.92 C 131.87 318.00 135.54 307.24 139.47 296.58 C 144.49 281.04 152.39 266.68 158.52 251.59 C 159.54 248.29 160.81 244.59 159.73 241.16 C 157.12 236.57 152.66 233.09 150.80 228.05 C 150.41 224.01 153.33 220.65 155.31 217.39 C 158.78 211.54 165.43 209.06 171.26 206.27 C 174.98 204.73 178.28 202.34 182.12 201.07 C 186.92 205.26 190.43 210.66 194.95 215.13 C 199.31 218.43 205.27 217.46 210.19 216.11 C 214.53 215.05 217.76 211.84 221.13 209.12 C 228.77 203.17 235.64 196.32 242.75 189.76 C 252.21 179.53 262.43 169.89 270.36 158.36 C 271.49 156.79 272.72 154.50 271.24 152.74 C 262.89 140.77 254.93 128.52 246.26 116.78 C 244.40 114.05 241.08 113.12 238.35 111.56 C 232.35 108.63 226.55 105.23 220.31 102.82 C 217.32 102.77 214.03 103.64 211.98 105.99 M 429.44 105.67 C 422.70 108.80 416.15 112.31 409.52 115.66 C 406.35 117.00 404.75 120.20 402.78 122.80 C 394.84 134.02 387.02 145.35 379.52 156.86 C 387.21 169.91 398.60 180.14 408.70 191.25 C 417.82 199.88 426.95 208.56 437.07 216.03 C 440.02 217.95 443.54 218.63 446.96 219.22 C 450.82 219.63 455.41 219.26 458.10 216.08 C 462.05 211.75 465.47 206.93 469.90 203.06 C 473.91 204.49 477.42 206.96 481.36 208.57 C 486.99 211.25 493.34 213.75 496.66 219.41 C 498.63 222.66 501.51 226.00 501.19 230.03 C 499.34 234.81 495.33 238.29 492.55 242.51 C 490.94 245.49 492.19 248.98 492.92 252.04 C 496.04 260.61 500.23 268.73 503.92 277.06 C 508.97 287.77 512.61 299.05 516.64 310.16 C 520.45 320.59 523.07 331.42 526.91 341.83 C 528.37 344.36 530.12 349.16 533.88 347.57 C 538.76 345.50 543.08 342.33 547.57 339.57 C 559.83 332.32 571.36 323.94 583.46 316.43 C 585.32 315.05 588.35 313.81 587.91 310.97 C 587.27 306.36 585.33 302.04 584.20 297.54 C 576.11 274.26 570.44 250.02 559.42 227.85 C 556.99 223.12 554.79 217.93 550.50 214.56 C 544.27 214.87 538.02 216.17 531.80 215.29 C 527.89 213.89 525.15 210.54 522.68 207.36 C 517.76 200.93 512.84 194.48 508.30 187.78 C 500.85 179.06 494.66 169.37 487.45 160.47 C 473.22 141.90 457.17 124.81 440.49 108.46 C 437.87 105.50 433.11 103.66 429.44 105.67 M 232.04 231.76 C 229.31 233.57 226.04 234.18 222.88 234.82 C 235.02 248.90 245.79 264.09 257.45 278.54 C 264.95 288.62 272.56 298.66 280.57 308.37 C 282.55 310.56 283.87 313.86 287.03 314.55 C 287.89 317.68 291.93 319.50 291.67 322.77 C 285.94 330.58 280.12 338.36 274.22 346.06 C 257.83 367.34 242.01 389.07 224.43 409.40 C 217.65 416.98 211.43 425.05 204.88 432.83 C 197.62 440.58 191.01 448.93 183.36 456.32 C 174.72 465.01 164.34 471.90 156.68 481.57 C 154.42 484.56 151.69 487.23 149.82 490.50 C 147.07 495.49 149.17 501.28 150.74 506.30 C 154.95 515.91 160.82 525.43 169.97 531.02 C 176.36 534.30 184.90 535.04 191.14 531.16 C 200.12 522.51 206.29 511.50 213.19 501.22 C 220.57 488.96 229.76 477.97 238.82 466.92 C 258.11 444.10 276.37 420.43 296.18 398.04 C 296.25 397.52 296.38 396.47 296.45 395.95 C 299.87 394.93 301.39 391.22 303.80 388.85 C 311.27 380.42 318.32 371.64 325.98 363.38 C 329.15 367.13 332.76 370.50 335.76 374.40 C 340.22 380.17 345.46 385.28 349.97 391.02 C 351.67 392.80 352.88 395.44 355.52 395.95 C 355.59 396.48 355.75 397.54 355.83 398.07 C 367.95 411.71 379.34 425.98 391.02 439.99 C 403.34 455.68 416.64 470.57 428.79 486.40 C 439.46 500.75 447.45 517.10 459.75 530.22 C 463.38 534.01 469.10 533.70 473.92 533.60 C 484.18 532.40 491.40 523.84 496.51 515.58 C 500.26 509.35 503.42 502.45 503.51 495.05 C 503.16 490.29 499.55 486.87 496.74 483.37 C 487.55 471.23 474.38 463.09 464.19 451.90 C 455.21 441.84 446.02 431.97 437.68 421.36 C 427.31 409.03 416.73 396.88 406.85 384.14 C 391.37 363.96 375.91 343.76 360.66 323.40 C 359.76 322.41 360.14 320.89 361.10 320.10 C 362.67 318.44 363.89 316.50 364.97 314.50 C 365.45 314.33 366.40 313.99 366.87 313.82 C 380.29 298.14 392.18 281.19 405.11 265.12 C 412.71 254.72 420.82 244.73 429.05 234.82 C 423.13 234.28 418.17 230.99 413.95 227.04 C 398.95 215.07 385.70 201.13 372.84 186.94 C 363.73 199.08 354.44 211.09 344.87 222.88 C 338.26 231.80 331.13 240.47 325.98 250.35 C 324.76 247.61 323.08 245.11 321.44 242.60 C 308.41 223.25 292.79 205.83 279.15 186.92 C 264.60 203.02 249.42 218.69 232.04 231.76 Z" />
</g>
<g id="#ffffffff">
<path fill="#ffffff" opacity="1.00" d=" M 211.98 105.99 C 214.03 103.64 217.32 102.77 220.31 102.82 C 226.55 105.23 232.35 108.63 238.35 111.56 C 241.08 113.12 244.40 114.05 246.26 116.78 C 254.93 128.52 262.89 140.77 271.24 152.74 C 272.72 154.50 271.49 156.79 270.36 158.36 C 262.43 169.89 252.21 179.53 242.75 189.76 C 235.64 196.32 228.77 203.17 221.13 209.12 C 217.76 211.84 214.53 215.05 210.19 216.11 C 205.27 217.46 199.31 218.43 194.95 215.13 C 190.43 210.66 186.92 205.26 182.12 201.07 C 178.28 202.34 174.98 204.73 171.26 206.27 C 165.43 209.06 158.78 211.54 155.31 217.39 C 153.33 220.65 150.41 224.01 150.80 228.05 C 152.66 233.09 157.12 236.57 159.73 241.16 C 160.81 244.59 159.54 248.29 158.52 251.59 C 152.39 266.68 144.49 281.04 139.47 296.58 C 135.54 307.24 131.87 318.00 128.70 328.92 C 126.72 334.57 125.74 340.96 121.34 345.38 C 119.54 346.68 117.29 345.25 115.59 344.43 C 101.85 336.37 88.56 327.58 75.30 318.75 C 71.34 315.91 66.44 314.06 63.58 309.95 C 66.63 297.65 71.40 285.87 74.74 273.66 C 79.39 259.34 83.76 244.87 90.01 231.15 C 92.99 225.27 95.36 218.87 99.85 213.93 C 100.99 212.15 103.16 212.81 104.90 212.80 C 109.97 213.21 115.09 214.05 120.16 213.30 C 122.74 212.42 124.83 210.53 126.65 208.57 C 134.66 199.10 141.23 188.54 149.13 179.00 C 160.99 162.76 173.15 146.67 186.86 131.92 C 194.93 122.99 203.37 114.39 211.98 105.99 Z" />
<path fill="#ffffff" opacity="1.00" d=" M 429.44 105.67 C 433.11 103.66 437.87 105.50 440.49 108.46 C 457.17 124.81 473.22 141.90 487.45 160.47 C 494.66 169.37 500.85 179.06 508.30 187.78 C 512.84 194.48 517.76 200.93 522.68 207.36 C 525.15 210.54 527.89 213.89 531.80 215.29 C 538.02 216.17 544.27 214.87 550.50 214.56 C 554.79 217.93 556.99 223.12 559.42 227.85 C 570.44 250.02 576.11 274.26 584.20 297.54 C 585.33 302.04 587.27 306.36 587.91 310.97 C 588.35 313.81 585.32 315.05 583.46 316.43 C 571.36 323.94 559.83 332.32 547.57 339.57 C 543.08 342.33 538.76 345.50 533.88 347.57 C 530.12 349.16 528.37 344.36 526.91 341.83 C 523.07 331.42 520.45 320.59 516.64 310.16 C 512.61 299.05 508.97 287.77 503.92 277.06 C 500.23 268.73 496.04 260.61 492.92 252.04 C 492.19 248.98 490.94 245.49 492.55 242.51 C 495.33 238.29 499.34 234.81 501.19 230.03 C 501.51 226.00 498.63 222.66 496.66 219.41 C 493.34 213.75 486.99 211.25 481.36 208.57 C 477.42 206.96 473.91 204.49 469.90 203.06 C 465.47 206.93 462.05 211.75 458.10 216.08 C 455.41 219.26 450.82 219.63 446.96 219.22 C 443.54 218.63 440.02 217.95 437.07 216.03 C 426.95 208.56 417.82 199.88 408.70 191.25 C 398.60 180.14 387.21 169.91 379.52 156.86 C 387.02 145.35 394.84 134.02 402.78 122.80 C 404.75 120.20 406.35 117.00 409.52 115.66 C 416.15 112.31 422.70 108.80 429.44 105.67 Z" />
<path fill="#ffffff" opacity="1.00" d=" M 232.04 231.76 C 249.42 218.69 264.60 203.02 279.15 186.92 C 292.79 205.83 308.41 223.25 321.44 242.60 C 323.08 245.11 324.76 247.61 325.98 250.35 C 331.13 240.47 338.26 231.80 344.87 222.88 C 354.44 211.09 363.73 199.08 372.84 186.94 C 385.70 201.13 398.95 215.07 413.95 227.04 C 418.17 230.99 423.13 234.28 429.05 234.82 C 420.82 244.73 412.71 254.72 405.11 265.12 C 392.18 281.19 380.29 298.14 366.87 313.82 C 366.40 313.99 365.45 314.33 364.97 314.50 C 363.89 316.50 362.67 318.44 361.10 320.10 C 360.14 320.89 359.76 322.41 360.66 323.40 C 375.91 343.76 391.37 363.96 406.85 384.14 C 416.73 396.88 427.31 409.03 437.68 421.36 C 446.02 431.97 455.21 441.84 464.19 451.90 C 474.38 463.09 487.55 471.23 496.74 483.37 C 499.55 486.87 503.16 490.29 503.51 495.05 C 503.42 502.45 500.26 509.35 496.51 515.58 C 491.40 523.84 484.18 532.40 473.92 533.60 C 469.10 533.70 463.38 534.01 459.75 530.22 C 447.45 517.10 439.46 500.75 428.79 486.40 C 416.64 470.57 403.34 455.68 391.02 439.99 C 379.34 425.98 367.95 411.71 355.83 398.07 C 355.75 397.54 355.59 396.48 355.52 395.95 C 352.88 395.44 351.67 392.80 349.97 391.02 C 345.46 385.28 340.22 380.17 335.76 374.40 C 332.76 370.50 329.15 367.13 325.98 363.38 C 318.32 371.64 311.27 380.42 303.80 388.85 C 301.39 391.22 299.87 394.93 296.45 395.95 C 296.38 396.47 296.25 397.52 296.18 398.04 C 276.37 420.43 258.11 444.10 238.82 466.92 C 229.76 477.97 220.57 488.96 213.19 501.22 C 206.29 511.50 200.12 522.51 191.14 531.16 C 184.90 535.04 176.36 534.30 169.97 531.02 C 160.82 525.43 154.95 515.91 150.74 506.30 C 149.17 501.28 147.07 495.49 149.82 490.50 C 151.69 487.23 154.42 484.56 156.68 481.57 C 164.34 471.90 174.72 465.01 183.36 456.32 C 191.01 448.93 197.62 440.58 204.88 432.83 C 211.43 425.05 217.65 416.98 224.43 409.40 C 242.01 389.07 257.83 367.34 274.22 346.06 C 280.12 338.36 285.94 330.58 291.67 322.77 C 291.93 319.50 287.89 317.68 287.03 314.55 C 283.87 313.86 282.55 310.56 280.57 308.37 C 272.56 298.66 264.95 288.62 257.45 278.54 C 245.79 264.09 235.02 248.90 222.88 234.82 C 226.04 234.18 229.31 233.57 232.04 231.76 Z" />
</g>
</svg>
