<?xml version="1.0" encoding="UTF-8" ?>
<!DOCTYPE svg PUBLIC "-//W3C//DTD SVG 1.1//EN" "http://www.w3.org/Graphics/SVG/1.1/DTD/svg11.dtd">
<svg width="650pt" height="421pt" viewBox="0 0 650 421" version="1.1" xmlns="http://www.w3.org/2000/svg">
<g id="#ffffffff">
<path fill="#ffffff" opacity="1.00" d=" M 224.73 3.68 C 226.47 1.68 229.19 1.56 231.59 1.02 C 232.22 1.20 233.48 1.57 234.11 1.75 C 239.77 4.39 245.31 7.26 250.86 10.12 C 251.36 10.39 252.37 10.93 252.87 11.20 C 255.05 12.08 257.05 13.40 258.38 15.38 C 264.00 23.19 269.58 31.04 274.87 39.09 C 277.93 43.40 280.76 47.87 283.91 52.11 C 282.95 56.24 279.76 59.28 277.33 62.59 C 272.14 69.55 265.70 75.43 259.95 81.92 C 249.92 92.52 238.99 102.29 227.51 111.30 C 222.41 114.47 215.86 116.12 209.98 114.40 C 206.30 113.49 204.53 109.85 202.12 107.30 C 199.69 104.77 197.81 101.70 195.01 99.55 C 192.96 98.27 190.84 100.24 188.98 101.04 C 181.58 105.46 172.03 107.41 167.15 115.15 C 165.03 118.49 162.13 122.01 162.55 126.22 C 164.61 131.01 168.37 134.80 171.53 138.87 C 173.01 147.12 167.75 154.51 164.88 161.89 C 163.21 165.54 161.48 169.18 159.83 172.84 C 154.06 185.38 149.76 198.52 145.24 211.53 C 137.63 203.55 129.73 195.84 122.02 187.96 C 120.68 186.62 119.34 185.27 118.07 183.87 C 115.92 181.93 113.29 180.45 110.33 180.38 C 101.69 180.23 93.03 180.33 84.39 180.34 C 91.14 158.97 97.23 137.11 108.26 117.44 C 109.66 114.92 111.28 112.43 113.70 110.76 C 119.18 111.06 124.62 112.09 130.13 111.77 C 133.51 111.93 136.16 109.47 138.44 107.29 C 146.85 97.28 153.87 86.20 162.15 76.10 C 169.57 65.92 177.13 55.84 185.11 46.09 C 189.65 40.66 194.30 35.32 199.03 30.06 C 207.52 21.19 215.73 12.04 224.73 3.68 Z" />
<path fill="#ffffff" opacity="1.00" d=" M 422.33 0.95 C 426.80 1.07 430.01 4.06 432.88 7.13 C 433.57 7.78 434.26 8.43 434.95 9.08 C 449.27 23.90 463.58 38.79 476.09 55.19 C 481.77 62.18 486.91 69.57 492.32 76.77 C 497.51 82.96 502.00 89.67 506.84 96.14 C 511.20 101.40 514.52 108.02 520.81 111.28 C 527.23 112.70 533.81 111.01 540.28 110.76 C 543.88 113.32 545.68 117.49 547.80 121.21 C 550.23 126.48 553.15 131.56 554.93 137.11 C 560.92 151.11 564.85 165.89 569.60 180.33 C 558.09 180.32 546.58 180.28 535.08 180.34 C 530.89 180.28 527.51 182.89 524.86 185.86 C 518.86 192.23 512.30 198.09 506.56 204.70 C 502.51 194.51 499.40 183.93 494.63 174.03 C 492.83 169.95 490.98 165.90 489.07 161.87 C 487.01 157.47 485.10 153.00 483.35 148.47 C 482.36 145.31 481.27 141.74 482.77 138.57 C 485.69 134.47 489.51 130.90 491.45 126.17 C 491.80 121.74 488.64 118.07 486.39 114.55 C 481.39 107.23 472.14 105.34 464.93 101.01 C 462.88 99.99 460.17 97.89 458.19 100.15 C 454.53 103.82 451.41 108.00 447.98 111.89 C 445.54 114.75 441.37 115.24 437.85 115.11 C 433.48 114.44 428.92 113.45 425.45 110.54 C 414.01 101.41 403.07 91.62 393.07 80.92 C 384.89 71.82 375.56 63.38 369.82 52.43 C 378.68 40.05 386.83 27.17 395.92 14.96 C 396.96 13.55 398.41 12.54 399.92 11.68 C 400.99 11.20 402.06 10.68 403.12 10.16 C 409.47 6.98 415.61 3.30 422.33 0.95 Z" />
<path fill="#ffffff" opacity="1.00" d=" M 260.37 93.44 C 266.61 86.69 273.04 80.11 279.16 73.25 C 285.79 82.41 292.68 91.40 299.84 100.15 C 302.27 103.37 304.81 106.51 307.34 109.66 C 308.83 111.63 310.38 113.55 311.88 115.52 C 302.09 115.54 292.30 115.41 282.52 115.58 C 277.67 115.61 273.74 119.97 273.82 124.74 C 273.82 145.07 273.75 165.41 273.86 185.75 C 272.66 184.08 271.39 182.46 270.14 180.82 C 254.84 161.04 239.95 140.94 224.00 121.66 C 223.72 121.50 223.16 121.16 222.88 121.00 C 226.30 120.43 229.81 119.67 232.71 117.65 C 242.49 110.24 251.43 101.83 260.37 93.44 Z" />
<path fill="#ffffff" opacity="1.00" d=" M 352.14 100.13 C 359.29 91.38 366.17 82.40 372.81 73.26 C 381.95 83.08 390.74 93.31 400.95 102.07 C 406.82 107.94 413.46 112.93 419.84 118.21 C 422.69 119.54 425.69 120.50 428.81 120.92 C 425.36 124.81 421.93 128.73 418.89 132.96 C 413.34 139.24 408.62 146.20 403.46 152.80 C 399.69 156.96 396.94 161.95 392.92 165.91 C 389.61 170.91 385.93 175.69 382.10 180.32 C 372.38 180.32 362.67 180.31 352.95 180.31 C 350.02 180.26 347.18 181.17 344.71 182.71 C 343.21 185.17 342.22 187.96 342.26 190.88 C 342.25 199.96 342.27 209.03 342.25 218.11 C 342.17 220.56 342.96 222.89 343.62 225.22 C 344.91 226.26 346.23 227.27 347.58 228.25 C 356.82 229.85 366.27 228.15 375.56 229.30 C 380.27 236.51 386.15 242.87 390.98 250.01 C 390.70 251.21 389.59 251.93 388.83 252.82 C 383.79 257.78 378.91 262.89 373.98 267.96 C 368.44 273.45 363.41 279.45 357.75 284.83 C 355.84 285.18 355.97 283.13 355.58 281.87 C 353.23 280.87 351.72 278.79 350.19 276.86 C 348.84 275.19 347.47 273.54 346.09 271.90 C 342.35 267.64 338.44 263.53 335.01 259.01 C 333.29 256.41 329.58 254.58 329.83 251.11 C 329.85 211.66 329.83 172.21 329.84 132.77 C 329.65 129.81 331.49 127.39 333.22 125.18 C 339.10 116.52 345.70 108.38 352.14 100.13 Z" />
<path fill="#ffffff" opacity="1.00" d=" M 282.19 123.82 C 295.28 123.86 308.38 123.83 321.47 123.84 C 321.50 195.17 321.41 266.50 321.52 337.84 C 309.17 337.79 296.83 337.80 284.48 337.84 C 284.51 330.32 284.66 322.79 284.40 315.27 C 276.25 322.23 269.07 330.29 261.41 337.79 C 242.54 337.84 223.67 337.79 204.80 337.81 C 199.91 332.83 194.99 327.87 190.07 322.91 C 184.79 317.55 179.56 312.16 174.20 306.89 C 174.19 277.81 174.17 248.72 174.21 219.64 C 184.55 209.40 194.74 199.00 205.02 188.69 C 224.70 188.75 244.39 188.55 264.06 188.79 C 270.36 193.55 275.96 199.19 282.16 204.09 C 282.22 177.33 282.17 150.58 282.19 123.82 M 224.93 222.15 C 221.10 226.01 217.34 229.93 213.48 233.76 C 213.59 253.47 213.23 273.21 213.65 292.90 C 217.28 296.86 221.19 300.58 224.84 304.52 C 235.89 304.49 246.94 304.60 257.99 304.47 C 265.79 295.88 274.17 287.84 282.23 279.49 C 282.16 266.49 282.16 253.49 282.23 240.50 C 275.42 234.44 268.57 228.41 261.89 222.21 C 249.57 222.09 237.25 222.20 224.93 222.15 Z" />
<path fill="#ffffff" opacity="1.00" d=" M 1.78 221.11 C 12.48 210.28 23.23 199.51 33.93 188.69 C 59.55 188.68 85.18 188.70 110.81 188.68 C 119.54 197.45 128.28 206.22 136.97 215.04 C 139.17 217.84 143.59 219.74 143.02 223.89 C 143.02 261.86 143.01 299.84 143.02 337.81 C 131.13 337.83 119.24 337.76 107.35 337.85 C 107.46 330.79 107.45 323.73 107.36 316.67 C 99.63 323.39 92.67 330.98 85.01 337.74 C 66.67 337.92 48.31 337.75 29.97 337.82 C 28.61 338.07 27.52 337.35 26.57 336.51 C 25.77 335.61 24.96 334.74 24.15 333.86 C 16.35 325.96 8.23 318.34 0.71 310.19 C 0.52 298.88 0.70 287.56 0.62 276.24 C 9.82 267.06 19.01 257.87 28.19 248.68 C 53.54 248.71 78.88 248.67 104.23 248.70 C 104.16 242.37 104.16 236.04 104.22 229.71 C 101.12 226.61 97.97 223.55 94.95 220.36 C 79.69 220.38 64.42 220.08 49.17 220.51 C 46.60 223.81 43.45 226.59 40.57 229.62 C 40.59 232.43 40.58 235.25 40.58 238.07 C 27.65 238.06 14.72 238.07 1.79 238.06 C 1.78 232.41 1.79 226.76 1.78 221.11 M 39.42 284.76 C 39.41 289.87 39.41 294.99 39.43 300.11 C 41.94 302.55 44.41 305.02 46.86 307.53 C 58.87 307.44 70.88 307.71 82.88 307.39 C 83.55 306.56 84.25 305.76 84.98 304.98 C 91.48 298.97 97.87 292.83 104.22 286.65 C 104.17 283.31 104.16 279.96 104.23 276.62 C 85.34 276.67 66.45 276.65 47.56 276.63 C 44.87 279.36 42.16 282.07 39.42 284.76 Z" />
<path fill="#ffffff" opacity="1.00" d=" M 350.63 188.68 C 394.34 188.68 438.06 188.73 481.77 188.66 C 481.72 198.88 481.81 209.11 481.73 219.34 C 455.82 245.90 430.14 272.69 404.38 299.38 C 402.34 301.47 400.23 303.51 398.50 305.87 C 426.25 306.02 454.01 305.90 481.76 305.93 C 481.80 316.58 481.67 327.23 481.83 337.87 C 437.08 337.74 392.34 337.83 347.59 337.83 C 347.68 327.68 347.62 317.53 347.62 307.38 C 355.50 299.31 363.38 291.26 371.11 283.06 C 381.07 272.71 391.18 262.51 401.02 252.04 C 411.09 241.62 421.34 231.36 431.13 220.67 C 404.29 220.48 377.45 220.62 350.61 220.60 C 350.66 209.96 350.63 199.32 350.63 188.68 Z" />
<path fill="#ffffff" opacity="1.00" d=" M 503.22 219.61 C 513.58 209.40 523.74 198.99 534.02 188.69 C 562.04 188.68 590.05 188.69 618.07 188.69 C 628.47 199.11 638.88 209.53 649.31 219.93 C 649.32 238.76 649.30 257.59 649.32 276.43 C 613.70 276.40 578.08 276.44 542.46 276.40 C 542.51 282.93 542.41 289.46 542.52 295.99 C 545.82 299.07 548.88 302.40 551.99 305.67 C 568.33 305.66 584.68 305.79 601.01 305.61 C 604.34 302.80 607.14 299.39 610.27 296.35 C 610.23 293.76 610.24 291.18 610.22 288.60 C 623.17 288.68 636.12 288.61 649.06 288.63 C 648.90 295.22 649.44 301.84 648.70 308.40 C 638.88 318.11 629.16 327.93 619.50 337.80 C 590.72 337.81 561.94 337.83 533.17 337.80 C 523.33 327.55 513.25 317.53 503.20 307.49 C 503.20 278.20 503.15 248.90 503.22 219.61 M 542.82 231.52 C 542.84 237.30 542.83 243.09 542.83 248.87 C 565.11 248.85 587.38 248.90 609.66 248.85 C 609.57 243.07 609.96 237.25 609.48 231.50 C 606.35 227.83 602.80 224.54 599.49 221.04 C 583.98 221.04 568.48 221.04 552.98 221.04 C 549.59 224.53 546.30 228.12 542.82 231.52 Z" />
<path fill="#ffffff" opacity="1.00" d=" M 259.25 252.18 C 262.30 247.93 265.69 243.94 268.64 239.62 C 270.27 241.21 271.99 242.71 273.80 244.10 C 273.82 254.75 273.80 265.40 273.81 276.06 C 273.16 276.68 272.51 277.30 271.87 277.93 C 270.58 279.27 269.28 280.61 267.98 281.94 C 263.38 286.67 258.69 291.32 254.23 296.19 C 245.73 296.15 237.24 296.13 228.74 296.20 C 227.88 295.44 227.02 294.69 226.16 293.94 C 237.52 280.28 248.58 266.38 259.25 252.18 Z" />
<path fill="#ffffff" opacity="1.00" d=" M 417.19 297.72 C 419.66 295.81 421.79 293.51 423.92 291.24 C 424.54 292.20 425.19 293.16 425.84 294.12 C 427.11 295.29 428.37 296.49 429.66 297.66 C 425.50 297.66 421.34 297.59 417.19 297.72 Z" />
<path fill="#ffffff" opacity="1.00" d=" M 190.46 335.29 C 193.91 338.56 196.98 342.25 200.75 345.17 C 202.81 345.60 204.86 346.23 206.98 346.20 C 219.43 346.18 231.88 346.21 244.33 346.18 C 236.52 354.80 229.49 364.09 222.18 373.13 C 220.59 375.51 219.16 378.00 217.30 380.21 C 216.51 381.46 215.77 382.75 214.96 384.00 C 213.16 386.56 211.64 389.31 209.81 391.85 C 206.31 396.98 203.31 402.47 199.31 407.25 C 196.45 410.85 193.88 414.83 190.13 417.58 C 183.80 420.64 176.28 420.13 170.16 416.76 C 162.51 412.26 157.16 404.73 153.29 396.91 C 152.99 396.39 152.41 395.35 152.12 394.83 C 150.27 390.79 149.15 386.44 148.68 382.03 C 148.57 377.20 152.16 373.51 155.05 370.05 C 156.25 368.57 157.43 367.08 158.62 365.59 C 160.01 363.98 161.50 362.45 163.07 361.01 C 165.36 358.59 167.79 356.31 170.38 354.20 C 175.54 350.17 180.34 345.68 185.00 341.07 C 186.83 339.15 188.71 337.28 190.46 335.29 Z" />
<path fill="#ffffff" opacity="1.00" d=" M 407.64 346.17 C 429.06 346.26 450.48 346.08 471.90 346.26 C 474.08 347.60 475.89 349.54 477.96 351.10 C 480.70 354.04 484.28 356.05 486.96 359.07 C 489.08 361.26 491.41 363.25 493.36 365.61 C 494.54 367.10 495.73 368.59 496.94 370.06 C 499.84 373.46 503.20 377.16 503.30 381.89 C 502.54 391.02 498.07 399.34 492.74 406.61 C 487.79 413.71 480.05 419.36 471.18 419.77 C 468.55 419.33 465.88 419.10 463.33 418.30 C 460.44 417.21 458.60 414.59 456.60 412.39 C 455.26 410.71 453.99 408.98 452.69 407.29 C 449.44 403.38 446.81 399.04 444.07 394.79 C 441.72 391.19 439.31 387.64 437.05 383.99 C 434.73 380.30 432.09 376.84 429.79 373.15 C 422.49 364.09 415.45 354.80 407.64 346.17 Z" />
</g>
</svg>
