<?xml version="1.0" encoding="UTF-8" ?>
<!DOCTYPE svg PUBLIC "-//W3C//DTD SVG 1.1//EN" "http://www.w3.org/Graphics/SVG/1.1/DTD/svg11.dtd">
<svg width="650pt" height="421pt" viewBox="0 0 650 421" version="1.1" xmlns="http://www.w3.org/2000/svg">
<g id="#818181ff">
<path fill="#818181" opacity="1.00" d=" M 231.00 0.00 L 231.33 0.00 C 239.02 6.03 248.99 8.42 256.88 14.10 C 266.21 26.52 274.64 39.59 283.45 52.37 C 281.86 57.50 277.51 61.15 274.45 65.44 C 268.92 73.08 261.21 78.74 255.44 86.16 C 252.90 89.06 249.54 91.09 246.95 93.95 C 241.38 99.90 234.84 104.80 228.57 109.96 C 223.29 114.37 215.94 115.90 209.30 114.27 C 204.16 109.60 200.21 103.85 195.26 99.00 C 190.91 99.17 187.28 101.73 183.49 103.55 C 179.62 105.53 175.61 107.24 171.86 109.45 C 169.18 111.11 167.47 113.85 165.64 116.33 C 163.98 119.75 161.37 123.30 162.51 127.32 C 164.88 131.81 168.43 135.54 171.45 139.60 C 171.52 143.06 171.28 146.59 169.85 149.80 C 165.44 160.57 160.06 170.91 155.67 181.68 C 152.00 191.79 147.90 201.77 144.95 212.12 C 144.84 211.43 144.63 210.05 144.52 209.36 C 135.51 200.48 126.55 191.54 117.68 182.52 C 115.28 181.40 112.83 180.14 110.10 180.27 C 101.61 180.21 93.12 180.22 84.64 180.31 C 88.98 166.57 93.43 152.87 98.08 139.23 C 98.38 138.83 98.99 138.04 99.29 137.64 C 100.53 132.27 103.53 127.58 105.82 122.63 C 107.66 118.67 110.14 115.05 112.94 111.72 C 114.63 111.56 116.32 111.39 118.01 111.20 C 123.17 112.02 128.42 111.82 133.62 111.71 C 137.36 109.16 140.50 105.84 143.08 102.14 C 153.77 87.59 164.74 73.26 175.53 58.78 C 184.54 46.81 194.63 35.74 204.54 24.54 C 212.13 16.95 219.70 9.35 227.32 1.79 C 228.53 1.73 229.74 1.66 230.96 1.60 C 230.97 1.20 230.99 0.40 231.00 0.00 Z" />
<path fill="#818181" opacity="1.00" d=" M 422.87 0.00 L 423.00 0.00 C 423.01 0.40 423.02 1.19 423.03 1.59 C 424.25 1.66 425.48 1.74 426.71 1.81 C 434.16 9.20 441.54 16.64 448.97 24.05 C 456.02 31.97 463.16 39.82 469.92 48.02 C 478.22 58.24 485.97 68.89 493.92 79.39 C 502.27 89.66 509.06 101.21 518.38 110.69 C 524.04 112.58 530.17 111.85 535.99 111.20 C 537.67 111.39 539.36 111.56 541.05 111.72 C 547.27 119.28 551.47 128.39 554.64 137.59 C 554.95 138.01 555.57 138.85 555.88 139.28 C 557.04 143.84 558.95 148.15 560.49 152.59 C 563.44 161.83 566.38 171.07 569.34 180.31 C 557.87 180.21 546.40 180.24 534.93 180.26 C 532.19 180.14 529.72 181.38 527.32 182.50 C 520.51 189.73 513.09 196.37 506.48 203.79 C 503.37 195.74 500.73 187.51 497.43 179.53 C 492.28 166.93 485.09 155.09 481.79 141.79 C 483.75 137.10 487.28 133.36 490.52 129.53 C 491.07 127.33 492.12 125.02 491.45 122.72 C 489.61 117.76 486.29 113.52 482.81 109.61 C 476.65 106.69 470.59 103.56 464.50 100.50 C 462.73 99.53 460.71 99.27 458.75 98.99 C 453.79 103.84 449.84 109.59 444.70 114.26 C 438.06 115.92 430.72 114.37 425.44 109.97 C 419.34 104.95 412.97 100.19 407.53 94.43 C 404.43 91.09 400.32 88.82 397.54 85.17 C 392.44 78.42 385.49 73.34 380.41 66.56 C 376.91 62.01 372.34 57.82 370.56 52.28 C 378.84 40.17 387.02 27.97 395.52 16.00 C 397.34 13.05 400.63 11.75 403.62 10.34 C 404.04 10.04 404.89 9.43 405.31 9.13 C 409.55 7.59 413.50 5.39 417.47 3.26 C 419.39 2.40 421.17 1.26 422.87 0.00 Z" />
</g>
<g id="#5b3c21ff">
<path fill="#5b3c21" opacity="1.00" d=" M 232.58 117.51 C 249.72 104.46 264.84 89.02 279.16 72.98 C 289.67 87.58 301.18 101.40 312.16 115.64 C 303.11 115.66 294.05 115.65 284.99 115.63 C 282.15 115.60 279.02 115.90 276.90 118.02 C 274.04 120.44 273.81 124.52 273.78 128.00 C 273.86 147.35 273.74 166.69 273.84 186.04 C 264.84 174.13 255.79 162.26 246.55 150.52 C 239.02 140.38 231.19 130.47 222.97 120.88 C 226.30 120.22 229.76 119.54 232.58 117.51 Z" />
<path fill="#5b3c21" opacity="1.00" d=" M 335.01 122.26 C 347.11 105.47 360.75 89.84 372.81 73.00 C 386.38 88.18 400.65 102.80 416.67 115.43 C 420.03 118.61 424.48 120.21 428.99 120.89 C 416.01 135.82 404.58 151.99 392.22 167.42 C 389.35 171.16 386.70 175.07 383.68 178.70 C 382.91 179.48 382.19 180.63 380.94 180.46 C 371.62 180.61 362.30 180.42 352.98 180.51 C 350.19 180.62 347.04 180.91 344.99 183.03 C 342.65 185.34 342.49 188.88 342.43 191.97 C 342.45 200.32 342.46 208.66 342.43 217.01 C 342.47 220.13 342.44 223.79 344.94 226.07 C 347.27 228.47 350.86 228.79 354.03 228.82 C 361.11 228.84 368.19 228.72 375.27 228.87 C 380.17 235.79 385.79 242.19 390.59 249.18 C 391.38 250.44 390.33 251.60 389.49 252.45 C 380.60 261.55 371.38 270.34 362.98 279.90 C 361.01 281.95 359.18 284.41 356.30 285.19 C 356.02 284.15 355.75 283.12 355.48 282.10 C 353.77 280.97 352.17 279.67 350.91 278.05 C 344.09 269.50 336.31 261.69 329.83 252.91 C 329.46 212.91 329.78 172.88 329.67 132.87 C 329.44 128.61 332.97 125.63 335.01 122.26 Z" />
<path fill="#5b3c21" opacity="1.00" d=" M 543.06 229.99 C 545.67 226.92 548.85 224.39 551.99 221.86 C 548.94 225.23 545.19 228.11 542.85 232.01 C 542.27 237.68 542.92 243.40 542.49 249.09 C 541.44 244.47 541.81 239.71 541.85 235.02 C 542.00 233.32 541.76 231.33 543.06 229.99 Z" />
<path fill="#5b3c21" opacity="1.00" d=" M 226.00 293.94 C 240.60 276.14 255.02 258.15 268.38 239.41 C 270.15 240.93 271.95 242.44 273.79 243.88 C 273.71 254.61 274.01 265.37 273.67 276.09 C 267.63 283.14 260.35 289.10 254.51 296.35 C 245.79 296.32 237.08 296.30 228.36 296.36 C 227.57 295.55 226.78 294.74 226.00 293.94 Z" />
<path fill="#5b3c21" opacity="1.00" d=" M 47.52 276.57 C 50.97 275.97 54.47 275.79 57.97 275.90 C 73.46 276.17 88.96 275.63 104.45 276.15 C 104.40 279.94 104.78 283.77 104.12 287.53 C 103.26 289.84 100.73 290.82 98.76 292.00 C 100.57 290.23 102.36 288.45 104.17 286.69 C 104.16 283.34 104.16 279.98 104.18 276.63 C 85.29 276.61 66.40 276.73 47.52 276.57 Z" />
<path fill="#5b3c21" opacity="1.00" d=" M 417.00 297.82 C 419.36 295.68 421.59 293.41 423.81 291.13 C 425.63 293.52 427.67 295.73 429.88 297.78 C 425.58 297.70 421.29 297.69 417.00 297.82 Z" />
<path fill="#5b3c21" opacity="1.00" d=" M 190.47 335.16 C 193.21 337.89 195.77 340.81 198.72 343.33 C 201.80 346.05 206.13 346.22 210.03 346.23 C 221.53 346.17 233.03 346.19 244.53 346.21 C 233.73 358.69 223.03 371.38 214.24 385.39 C 207.41 395.73 201.13 406.56 192.62 415.66 C 189.71 419.15 184.74 418.88 181.00 421.00 L 179.71 421.00 C 175.70 418.50 170.69 418.08 167.06 414.94 C 159.70 409.15 154.57 400.99 150.93 392.47 C 149.08 387.14 146.88 380.60 150.57 375.53 C 155.87 367.99 162.17 361.18 169.08 355.10 C 176.66 348.96 183.90 342.39 190.47 335.16 Z" />
<path fill="#5b3c21" opacity="1.00" d=" M 407.44 346.20 C 429.09 346.19 450.75 346.18 472.40 346.21 C 483.30 355.30 494.41 364.61 502.09 376.71 C 504.88 381.68 502.65 387.47 501.05 392.44 C 497.50 400.75 492.54 408.72 485.47 414.49 C 481.68 417.89 476.45 418.65 472.07 421.00 L 470.74 421.00 C 467.20 418.59 462.16 419.26 459.36 415.67 C 446.34 401.55 438.13 383.87 426.21 368.90 C 420.04 361.27 414.05 353.47 407.44 346.20 Z" />
</g>
<g id="#6c2820ff">
<path fill="#6c2820" opacity="1.00" d=" M 282.19 123.85 C 295.28 123.89 308.36 123.85 321.45 123.87 C 321.49 195.19 321.40 266.51 321.50 337.83 C 309.16 337.79 296.83 337.80 284.50 337.83 C 284.57 330.11 284.58 322.40 284.49 314.69 C 276.73 322.31 269.03 330.00 261.41 337.77 C 242.55 337.87 223.70 337.77 204.84 337.82 C 194.61 327.49 184.44 317.10 174.19 306.79 C 174.19 278.51 174.19 250.22 174.18 221.94 C 174.08 220.60 174.38 219.26 175.50 218.42 C 185.38 208.54 195.20 198.59 205.07 188.71 C 224.75 188.69 244.43 188.73 264.12 188.69 C 270.21 193.76 276.05 199.12 282.17 204.16 C 282.22 177.39 282.18 150.62 282.19 123.85 M 224.96 222.11 C 221.10 225.97 217.31 229.90 213.45 233.76 C 213.57 253.39 213.23 273.05 213.62 292.67 C 216.99 296.93 221.17 300.50 224.82 304.54 C 235.86 304.52 246.91 304.61 257.95 304.49 C 265.82 295.95 274.14 287.86 282.23 279.53 C 282.17 266.50 282.16 253.48 282.23 240.45 C 275.41 234.40 268.57 228.36 261.87 222.17 C 249.57 222.07 237.26 222.18 224.96 222.11 Z" />
<path fill="#6c2820" opacity="1.00" d=" M 3.90 218.93 C 13.97 208.91 23.94 198.78 33.96 188.70 C 59.58 188.71 85.19 188.71 110.81 188.70 C 121.50 199.41 132.11 210.19 142.81 220.90 C 142.85 259.89 142.73 298.88 142.87 337.87 C 131.04 337.75 119.22 337.81 107.39 337.84 C 107.47 330.78 107.49 323.72 107.37 316.66 C 99.69 323.41 92.54 330.73 85.16 337.81 C 66.12 337.80 47.08 337.82 28.04 337.81 C 18.95 328.58 9.69 319.53 0.63 310.28 C 0.69 298.93 0.63 287.57 0.66 276.22 C 9.87 267.07 19.02 257.88 28.19 248.71 C 53.53 248.71 78.88 248.70 104.22 248.71 C 104.18 242.36 104.17 236.02 104.22 229.68 C 101.11 226.55 97.99 223.44 94.88 220.31 C 79.66 220.39 64.43 220.07 49.22 220.48 C 46.64 223.84 43.16 226.41 40.68 229.83 C 40.39 232.49 40.57 235.17 40.61 237.85 C 27.68 238.14 14.73 238.11 1.80 237.87 C 1.89 232.87 1.70 227.87 1.85 222.87 C 1.66 221.23 2.86 220.00 3.90 218.93 M 47.52 276.57 C 44.88 279.38 42.14 282.07 39.41 284.79 C 39.42 289.91 39.38 295.04 39.45 300.16 C 41.96 302.57 44.42 305.03 46.85 307.52 C 58.71 307.54 70.57 307.52 82.44 307.53 C 87.80 302.27 93.33 297.19 98.76 292.00 C 100.73 290.82 103.26 289.84 104.12 287.53 C 104.78 283.77 104.40 279.94 104.45 276.15 C 88.96 275.63 73.46 276.17 57.97 275.90 C 54.47 275.79 50.97 275.97 47.52 276.57 Z" />
<path fill="#6c2820" opacity="1.00" d=" M 350.66 188.71 C 394.35 188.69 438.05 188.74 481.75 188.68 C 481.73 198.88 481.75 209.07 481.74 219.27 C 457.27 244.31 433.13 269.68 408.71 294.76 C 405.31 298.47 401.55 301.86 398.55 305.90 C 426.28 306.09 454.01 305.93 481.74 305.98 C 481.78 316.61 481.67 327.23 481.80 337.86 C 437.07 337.75 392.35 337.83 347.62 337.82 C 347.67 327.70 347.68 317.59 347.62 307.47 C 375.49 278.53 403.55 249.76 431.25 220.66 C 404.38 220.43 377.51 220.61 350.64 220.57 C 350.67 209.95 350.64 199.33 350.66 188.71 Z" />
<path fill="#6c2820" opacity="1.00" d=" M 503.18 219.76 C 513.50 209.43 523.75 199.03 534.07 188.70 C 562.06 188.71 590.05 188.71 618.03 188.71 C 628.45 199.12 638.87 209.55 649.29 219.96 C 649.29 238.77 649.29 257.59 649.29 276.40 C 613.68 276.39 578.06 276.41 542.44 276.39 C 542.49 282.91 542.39 289.44 542.51 295.97 C 545.78 299.14 548.87 302.48 552.06 305.72 C 568.43 305.69 584.80 305.71 601.17 305.71 C 604.21 302.61 607.25 299.50 610.28 296.39 C 610.26 293.80 610.25 291.21 610.24 288.63 C 623.11 288.66 635.98 288.68 648.84 288.61 C 649.06 294.46 649.13 300.32 648.96 306.17 C 649.02 307.45 648.49 308.60 647.54 309.44 C 638.20 318.91 628.73 328.27 619.45 337.80 C 590.72 337.82 562.00 337.81 533.27 337.80 C 523.36 327.58 513.27 317.51 503.20 307.44 C 503.17 278.21 503.21 248.98 503.18 219.76 M 551.99 221.86 C 548.85 224.39 545.67 226.92 543.06 229.99 C 541.76 231.33 542.00 233.32 541.85 235.02 C 541.81 239.71 541.44 244.47 542.49 249.09 C 564.91 248.79 587.35 249.09 609.78 248.94 C 609.83 243.12 609.83 237.30 609.78 231.48 C 606.35 228.01 602.95 224.51 599.56 221.00 C 585.03 220.99 570.50 221.03 555.98 220.97 C 554.64 221.13 552.95 220.66 551.99 221.86 Z" />
</g>
</svg>
