<svg xmlns="http://www.w3.org/2000/svg" viewBox="0 0 1144 52">
  <g fill="#fff">
    <path
      d="M0 0h1144v7.02c-373.34-.06-746.68 0-1120.02-.03-3.67.09-7.53-.48-11.04.88-3.64 1.41-5.89 5.27-5.89 9.1-.09 5.35-.22 10.71.06 16.05.26 4.01 3.26 7.64 7.18 8.58 2.86.6 5.81.39 8.71.41 302.99-.02 605.99.01 908.98-.01 70.68.08 141.35-.15 212.02.13V52H0z" />
    <path
      d="M152.47 14.39c.6-.06 1.81-.17 2.41-.23 1.28.02 2.57.07 3.86.13.14 5.22-.12 10.45.21 15.67 1.63 1.09 5.12.12 4.44 3.03-2.34.01-5.02.53-6.76-1.49-1.24-4.84-.33-9.91-.62-14.85-1.15-.07-2.29-.14-3.43-.2-.03-.52-.08-1.55-.11-2.06m-11.32.6c1.1.08 2.21.14 3.33.19 1.77 5.95 3.59 11.88 5.41 17.81-.76.02-2.27.05-3.03.06-.51-1.4-.84-2.87-1.25-4.3-1.87-.08-3.75-.1-5.62-.09-.45 1.46-.93 2.91-1.43 4.36l-2.86-.08c1.63-6.04 3.58-11.98 5.45-17.95m-.46 11.09c1.38 0 2.77.01 4.15.02-.64-2.5-1.31-5.01-2.29-7.4-.61 2.46-1.34 4.89-1.86 7.38m57.37-10.27 2.72.04c.01.88.04 2.64.05 3.52 1.58.03 3.16.06 4.74.11.04.53.11 1.59.15 2.12-1.63.14-3.27.2-4.9.2.02 2.72-.18 5.46.16 8.18 1.18 1.44 3.23.89 4.85 1.19.72 2.54-2.43 1.71-3.92 1.84-1.61.18-2.97-.9-3.69-2.23-.38-2.97-.12-5.97-.2-8.95-1.2-.06-2.39-.14-3.57-.22.01-.53.04-1.59.06-2.12 1.16-.04 2.32-.09 3.49-.15.02-.88.04-2.65.06-3.53m-29.24 4.06c1.96-1.14 4.27-.76 6.28.02 1.86 1.73 2.64 4.14 2.73 6.62-3.19.14-6.38.15-9.57.16.23.76.67 2.29.9 3.06 2.08 2.42 5.42.85 7.9.06l-.16 2.83c-1.15.28-2.31.55-3.46.79-2.13 0-4.47-.21-6.12-1.7-2.85-3.38-2.58-9.54 1.5-11.84m-.14 4.27c1.99.12 3.98.14 5.97.11-.27-.71-.54-1.41-.8-2.12-1.87-.96-4.9-.43-5.17 2.01" />
  </g>
  <g fill="#fcebeb">
    <path
      d="M12.94 7.87c3.51-1.36 7.37-.79 11.04-.88 373.34.03 746.68-.03 1120.02.03v35.11c-70.67-.28-141.34-.05-212.02-.13-302.99.02-605.99-.01-908.98.01-2.9-.02-5.85.19-8.71-.41-3.92-.94-6.92-4.57-7.18-8.58-.28-5.34-.15-10.7-.06-16.05 0-3.83 2.25-7.69 5.89-9.1m110.47 5.49c-3.53 3.21-2.07 8.38-2.36 12.57.21 3.91-.99 8.72 2.33 11.68 3.51 3.76 9.12 2.01 13.64 2.39 6.3-.11 12.6.07 18.91-.02 5.61-.01 11.22.05 16.84.01 5.82-.02 11.65.04 17.47 0 5.66-.03 11.32.05 16.98 0 5.13-.03 10.26.04 15.4 0 4.53-.02 9.06.04 13.6-.01 7.01-.01 14.01.04 21.02.02 2.61-.06 5.22.1 7.82-.08 4.23-.45 7.45-4.7 6.95-8.89-.49-5.3 1.07-11-1.04-16.01-2.77-5.05-9-3.98-13.79-4.02-7.3-.04-14.61.08-21.91-.01-4.1.01-8.2.04-12.3.01-4.95-.02-9.9.03-14.85.01-5.02-.03-10.04 0-15.06 0-6.65-.04-13.31.03-19.96-.01-5.62-.01-11.24.01-16.86.02-6.5-.08-13 .05-19.51.02-4.42.27-9.88-1.33-13.32 2.32m-35.93.29c-.14 1.38-.29 2.76-.31 4.15l-.63.7c-.17 4.76-1 9.64.03 14.35 3.14 2.5 7.45 3.02 11.37 2.6 2.69-.31 6.47-1.87 5.26-5.3.04-5.46-.75-10.88-.9-16.35-4.87-.66-9.94-.86-14.82-.15m-56.19.77c-8.04 2.4-10.1 14.79-2.9 19.33 4.45 4.28 12.82 2.71 15.84-2.55 3.01-3.9 2.24-9.89-.92-13.48-2.9-3.3-7.83-4.63-12.02-3.3m539.64 2.33c-2.05 4.15-6.27 7.62-6.46 12.4 2.27-.01 4.53.01 6.81.02 0 1.28.02 2.56.04 3.85.58-.02 1.76-.04 2.35-.05-.02-.87-.05-2.61-.07-3.48.94-.53 2.93-.41 2.39-1.99-.58-.14-1.75-.41-2.33-.55-.04-3.41 0-6.82-.03-10.23zm87.33-.72c-.04 5.66-.02 11.31-.01 16.96.54 0 1.61.01 2.15.01.09-2.83-.22-5.7.25-8.51.37-2.38 4.06-2.84 4.64-.36.36 2.93.1 5.88.16 8.82.54.02 1.62.05 2.17.07-.23-3.66.65-7.56-.72-11.05-1.5-2.44-4.76-1.41-6.64-.05.17-1.98.18-3.96.12-5.94-.53.02-1.59.04-2.12.05m56.73.73c-.02 3.49-.06 6.98.17 10.46l2.03.06c.26-3.52.21-7.04.18-10.56-.8.01-1.59.03-2.38.04m88.99-.76c-.01 5.67-.02 11.33 0 17h2.19c.21-3.06-.53-6.31.54-9.23.74-1.82 2.7-1.32 4.07-.63.71 3.24.32 6.57.42 9.86h2.17c-.06-3.32.23-6.67-.25-9.97-.71-3.33-5.16-3.06-7.08-.97.14-2.02.16-4.04.12-6.06zm17.66.09c0 .68-.01 2.02-.02 2.69.54.02 1.61.06 2.14.07l.08-2.74c-.55 0-1.65-.01-2.2-.02m105.98.03c0 .67.01 2 .02 2.67.53.01 1.6.04 2.13.06.02-.69.04-2.07.05-2.76-.55.01-1.65.03-2.2.03m8.87-.09c-.02 5.67.01 11.33-.02 16.99 1.87-.61 3.66-.27 5.52.21 4.81-.27 5.25-6.67 3.84-10.16-1.21-2.87-5.06-3.32-7.27-1.32.07-1.92.09-3.83.06-5.75-.53.01-1.6.03-2.13.03m13.65 1.64c.81.03 2.44.1 3.25.13.19 4.26-.33 8.57.31 12.79.48 2.63 6.48 3.88 6.32.74-1.26-.21-2.51-.4-3.75-.59-1.43-4.72-.46-9.78-.65-14.64-1.76.22-6.04-1.36-5.48 1.57m39.38-1.64c-.04 5.63.02 11.26-.04 16.89.55.03 1.63.08 2.18.1.49-3.54-1.49-8.64 2.31-10.81.61.34 1.82 1.02 2.42 1.36.65 3.09.17 6.29.33 9.43h2.19c-.18-3.49.47-7.12-.53-10.52-1.08-2.86-4.91-2.21-6.79-.57.05-1.97.09-3.94.05-5.91-.53.01-1.59.02-2.12.03m99.59 0c-.03 1.9-.05 3.81 0 5.71-1.93-1.78-5.27-1.65-6.75.6-1.47 2.6-1.46 5.96-.24 8.65 1.08 2.22 4.51 3.16 6.3 1.26.83.63 1.79.89 2.86.79.01-5.69.03-11.37-.01-17.05zm9.89.72c.11 3.55-.39 7.18.44 10.67.44-.06 1.31-.18 1.74-.23.28-3.49.21-6.98.19-10.47zm-811.7.54c-.07.65-.22 1.95-.3 2.59 2.18-.83 4.5-1.97 6.74-.63 2.56 6.05-6.81 8.35-6.79 13.74 3.35.01 6.7.02 10.05.01v-2.06c-2.38-.01-4.76-.01-7.13.01 2.05-2.31 4.39-4.4 6.08-7.01 1.25-1.9 1.24-4.71-.56-6.26-2.32-1.86-5.5-1.18-8.09-.39m15.12.25c-3.08 3.25-2.68 8.53-1.5 12.54 1.02 3.9 7.15 4.27 8.66.56 1.42-3.51 1.4-7.69.11-11.24-.96-2.91-5.04-3.72-7.27-1.86m11.19 2.37c2.5-1.75 7.41-2.15 7.37 2.01-1.74 3.56-4.93 6-7.38 9.01-.02.52-.08 1.55-.1 2.06 3.3.02 6.61 0 9.92.02-.02-.51-.07-1.54-.1-2.05-2.31-.07-4.61-.01-6.91-.05 2.31-2.9 5.74-5.2 6.8-8.89.9-3.11-2.18-5.91-5.19-5.54-2.02.16-5.56.26-4.41 3.43m16 1.63c-1.28 2.46-3.87 4.6-3.39 7.62 2.25-.01 4.51 0 6.77-.01 0 1.29 0 2.57.01 3.86.6-.01 1.81-.01 2.41-.01-.02-1.23-.03-2.45-.03-3.67.45-.08 1.36-.24 1.81-.33l.84-1.27c-.67-.25-2.01-.74-2.68-.99.09-3.34.05-6.69.05-10.03-3.42-1.08-4.18 2.77-5.79 4.83m25.8-3.99c-2.09 1.78-2.19 4.83-2.34 7.36.12 2.82.39 6.34 3.12 7.92 2.28.94 5.34.27 6.37-2.14 1.44-3.51 1.42-7.68.16-11.24-.95-2.93-5.06-3.8-7.31-1.9m10.87 4.47c-.62 4.75 5.2 7.18 8.67 4.18-.35.87-1.07 2.61-1.42 3.48-1.39 2.1-4.26 1.49-6.26.85l.4 2.38c2.98.84 7.04.3 8.24-3 1.34-3.63 1.31-7.98-.42-11.47-2.84-4-10.02-1.5-9.21 3.58m29.11-4.91c-3.59 3-3.07 8.56-2.09 12.66.78 3.64 6.04 4.73 8.23 1.77 2.14-3.47 2.01-8.06.78-11.83-.78-2.92-4.4-3.87-6.92-2.6m10.85 2.06c-.87 2.69-.67 6.15 1.88 7.86 2.03.91 4.39.48 6.01-1.04.28 4.01-3.79 6.58-7.29 4.49-.76 3.59 3.76 2.93 5.93 2.29 4.28-2.5 3.9-8.45 2.96-12.63-.81-4.4-7.77-4.99-9.49-.97m11.9-2.42-.02 1.98c1.67.03 3.35.04 5.03.06.08 4.74-.01 9.48.05 14.22.59-.01 1.77-.03 2.36-.03 0-4.72-.02-9.44.02-14.16 1.68-.03 3.37-.07 5.06-.11-.02-.49-.08-1.48-.11-1.98-4.13.01-8.26-.01-12.39.02m15.15 1.78-.32 2.49c1.4-.56 2.78-1.17 4.16-1.81.03 3.9.02 7.81.01 11.72-.84 0-2.51.01-3.34.02 0 .51.01 1.53.01 2.05 3.04 0 6.08.02 9.12-.03.78-2.58-1.77-1.98-3.43-2.11.02-4.7.01-9.41 0-14.12-2.28-.29-4.23.91-6.21 1.79m15.1-1.42c-2.98 2.24-2.86 6.43-2.67 9.79.04 2.91 1.77 6.58 5.2 6.35 2.9.17 4.58-2.6 5-5.12.36-3.26.49-6.83-1.26-9.76-1.39-1.99-4.2-2.21-6.27-1.26m29.81-.39c-2.06 4.16-6.29 7.64-6.5 12.42 2.28 0 4.56.02 6.84.03.01 1.28.01 2.55.02 3.83h2.39c-.01-1.27 0-2.55 0-3.82.53-.01 1.58-.04 2.1-.06 0-.47.01-1.43.01-1.9-.52-.03-1.58-.07-2.1-.09-.02-3.46-.01-6.92-.02-10.38-.68-.01-2.06-.02-2.74-.03m7.63 2.62c2.53-1.13 7.41-1.52 7.15 2.5-1.3 1.32-3.21 1.36-4.91 1.63.01.43.04 1.3.05 1.73 1.27.19 2.72-.04 3.87.68 1.81.98 1.7 4.07-.19 4.9-2.15 1.01-4.46-.06-6.56-.6-.79 3.91 4.3 3.02 6.72 2.87 4.18-.43 5.31-7.36.96-8.46 3.37-1.68 2.94-7.31-.97-7.89-2.22-.2-7.15-.96-6.12 2.64m26.47-2.04c-.08.65-.23 1.93-.3 2.58 2.16-.81 4.43-1.93 6.68-.69 2.74 6.05-6.77 8.39-6.73 13.8 3.35.01 6.7.02 10.05.01v-2.06c-2.38-.01-4.76-.01-7.13.01 2.03-2.3 4.36-4.38 6.05-6.96 1.28-1.92 1.29-4.79-.57-6.34-2.33-1.83-5.48-1.14-8.05-.35m15.11.25c-2.1 1.79-2.19 4.85-2.34 7.38.12 2.81.39 6.32 3.12 7.9 2.29.95 5.36.26 6.39-2.18 1.41-3.51 1.4-7.67.13-11.22-.96-2.93-5.06-3.77-7.3-1.88m26.95-.42c-2.98 2.28-2.83 6.5-2.64 9.87.08 2.91 1.83 6.51 5.25 6.25 2.88.13 4.53-2.62 4.95-5.13.37-3.27.49-6.86-1.29-9.79-1.42-1.96-4.21-2.17-6.27-1.2m39.89-.1c-3.75 3-3.19 8.76-2.14 12.92.89 3.59 6.22 4.49 8.29 1.45 1.95-3.44 1.83-7.79.76-11.49-.76-2.96-4.29-4.09-6.91-2.88m13.1.1c-3.54 3.04-3.04 8.58-2.04 12.67.85 3.92 6.79 4.71 8.61 1.16 1.69-3.68 1.69-8.21.09-11.92-1.06-2.53-4.39-3.02-6.66-1.91m39.81-.14c-3.75 2.72-3.19 8.21-2.46 12.23.52 4.41 7.18 5.53 9.2 1.67 1.55-3.45 1.53-7.57.38-11.14-.78-3.01-4.52-3.93-7.12-2.76m90.74 6.81c1.58 2.01 4.46 1.68 6.53 2.86 1.08 1.08 1.29 3.48-.39 4.03-2.26 1.21-4.58-.08-6.78-.71l.16 2.42c3.14 1.05 7.62 1.72 9.75-1.5.54-1.56.59-3.27 0-4.82-1.29-2.17-4-2.28-6.12-3.08-2.02-.38-2.15-3.89.08-4.12 1.91-1 3.9.14 5.72.79.85-3.6-3.45-3.28-5.81-3.04-3.31.28-5.03 4.55-3.14 7.17m55.4-6.49c-.02.86-.04 2.56-.06 3.41-1.09.01-2.17.03-3.24.05v1.65c1.08.04 2.16.07 3.26.1.3 3.14-.71 6.63.87 9.53 1.73 1.18 3.87.95 5.87.96V31.3c-1.44-.27-3.25.15-4.33-1.05-.49-2.55-.16-5.18-.21-7.76 1.5-.02 3.02-.03 4.54-.06v-1.66c-1.53-.02-3.04-.03-4.55-.04-.01-.85-.02-2.55-.02-3.39zm79.48.04c-.01.84-.02 2.53-.03 3.38-.79 0-2.36.01-3.14.02-.02.42-.04 1.28-.05 1.71.8 0 2.4.02 3.2.03.07 2.83-.2 5.69.26 8.5 1.08 2.35 4.08 2.02 6.23 2.04.11-.39.32-1.17.43-1.56-1.44-.26-2.92-.37-4.28-.88-.88-2.56-.23-5.46-.34-8.15l4.37.03-.01-1.72h-4.4l-.04-3.4zM64.71 18.49c.19 5.16.06 10.33.08 15.5 3.76-2.51 7.41-5.17 11.21-7.61-3.69-2.73-7.57-5.19-11.29-7.89m397.27 2.28.03 4.08c1.17-.01 2.35-.01 3.54-.01-.01-1.37-.01-2.73-.01-4.1-1.19.01-2.38.03-3.56.03m39.79-.01-.03 4.05 3.57.03c-.02-1.36-.02-2.72-.02-4.08zm79.5-.01c-.01 1.36-.01 2.73-.01 4.09 1.18 0 2.36 0 3.55.01-.01-1.37-.01-2.73 0-4.1zm182.1-.04c-.1 4.08-.02 8.17-.05 12.26l1.97.04c.09-3.2-.17-6.43.2-9.62.33-.3.99-.91 1.32-1.21 2.19 3.03.6 7.28 1.11 10.82h2.03c.56-3.5-1.33-8.13 1.38-10.81 2.52 2.87.61 7.32 1.23 10.84l1.98-.08c-.17-3.62.37-7.33-.45-10.89-.36-2.08-3.59-2.02-4.58-.48-.37-.29-1.13-.85-1.51-1.14-1.54.31-3.09.47-4.63.27m55.02 1.71c.81.04 2.43.11 3.24.14 0 2.88.01 5.75-.01 8.63-1.32.02-2.63.05-3.93.07l.03 1.73c3.35-.1 6.75.27 10.09-.2-.02-.38-.04-1.14-.05-1.52-1.32-.02-2.62-.04-3.92-.07-.05-3.47-.01-6.94-.03-10.41-1.78.51-5.68-1.39-5.42 1.63m14.66-.81-2.28-1.24c-.56 4.18-.14 8.43-.25 12.64.54-.01 1.61-.02 2.15-.03.47-3.53-1.49-8.62 2.31-10.76.6.34 1.81 1.01 2.41 1.34.65 3.09.16 6.3.33 9.44h2.19c-.18-3.5.49-7.15-.54-10.55-1.01-2.64-4.46-2.24-6.32-.84m91.57-.83-.17 1.65c.79.03 2.38.1 3.18.13.01 2.88.01 5.75-.02 8.63-1.31.02-2.61.05-3.9.07v1.73c3.35-.09 6.73.25 10.08-.18-.01-.38-.01-1.15-.01-1.53-1.32-.03-2.63-.05-3.93-.08-.06-3.47-.01-6.94-.05-10.41-1.74-.01-3.46-.01-5.18-.01m104.54.08c.07 5.57-.04 11.14.06 16.71.54-.01 1.61-.04 2.15-.06.01-1.81-.05-3.62-.13-5.43 3.22 2.9 8.15.11 7.93-3.97.9-3.7-1.94-9.3-6.33-7.17-1.4 1.6-2.31-1.07-3.68-.08m-344.41-.02c0 4.05-.03 8.11.01 12.16h2.19c.51-3.52-1.47-8.4 2.08-10.75.64.28 1.91.84 2.54 1.11.73 3.15.19 6.44.37 9.64h2.2c-.07-3.29.2-6.61-.22-9.89-.6-2.98-4.78-3.45-6.54-1.26-.28-.31-.82-.93-1.1-1.24zm14.65.67c-2.94 2.82-2.88 9.13.84 11.33 2.11.68 4.77.63 6.3-1.21 1.59-2.35 1.61-5.49.76-8.12-.99-3.17-5.52-3.91-7.9-2m52.98.02c-2.93 2.82-2.84 9.1.85 11.31 2.11.69 4.76.62 6.31-1.2 1.6-2.35 1.6-5.5.76-8.13-.99-3.17-5.54-3.92-7.92-1.98M781 33.05c2.24.27 6.66.73 6.24-2.72-2.07.36-4.15 1.57-6.25.7-1.47-.77-1.83-2.47-2.02-3.96 2.92-.13 5.85.02 8.78-.19.1-3.18-1.97-6.86-5.61-6.38-6.66-.03-7.38 11.25-1.14 12.55m62.77-10.1c-1.28 2.93-1.2 6.84 1.21 9.17 1.81 1.51 4.35.92 6.1-.39-.41 1.25-.25 2.91-1.47 3.73-1.74.94-3.76-.05-5.48-.42-1.03 2.98 2.35 2.41 3.93 2.62 2.29.13 4.41-1.4 4.8-3.7.44-4.33.08-8.71.21-13.07-.64.19-1.93.55-2.57.74-1.92-2.03-5.72-1.21-6.73 1.32M887 33.05c2.23.26 6.63.75 6.24-2.71-2.09.33-4.17 1.6-6.27.67-1.45-.77-1.8-2.46-2.02-3.93 2.93-.13 5.86-.01 8.8-.18.1-3.22-2.01-6.94-5.69-6.39-6.6.05-7.26 11.25-1.06 12.54m11.56-12.3c-.03 4.08-.03 8.17 0 12.25.54 0 1.62-.01 2.16-.01.13-2.88-.42-5.91.6-8.66 1.11-2.25 4.13-2.13 5.99-.91 1.02-3.44-3.02-3.2-5.12-2.41-.48.53-.96 1.04-1.42 1.52l-.12-1.81zm13.22.12c0 4.04-.01 8.08.02 12.13h2.2c.13-2.8-.38-5.72.45-8.44.99-2.43 4.08-2.45 6.01-1.17.04-.52.11-1.56.15-2.08-1.98-1.37-5.43-1.11-6.33 1.38-.26-.53-.77-1.59-1.02-2.12zM964 22.04c-3.51 3.54-1.69 11.58 4.05 11.2 1.8-.16 5.69.07 4.61-3.01-3.09 1.9-8.56 1.5-8.12-3.22 2.88-.02 5.77-.01 8.66-.02 0-2.39-.74-5.14-3.14-6.16-2.03-.59-4.6-.47-6.06 1.21m38.9 1.45c2.35-1.17 6.87-2.28 7.16 1.63-3.01-.06-7.73-.12-8.06 3.89-.48 4.22 5.57 5.78 7.76 2.57l.38 1.38c.52.01 1.56.05 2.08.07.01-3.38.07-6.76-.19-10.14-1.15-1.13-2.32-2.45-4.1-2.33-2.1-.05-6.02-.3-5.03 2.93m13.07-2.51c-.12 5.51-.01 11.03-.04 16.55.55 0 1.67-.01 2.22-.01-.01-1.84-.03-3.69-.15-5.53 1.88 1.64 5.09 1.77 6.71-.34 1.77-2.78 1.66-6.52.16-9.39-1.44-2-4.63-2.41-6.42-.66l-1.32-1.12zm27.28 1.23c-1.83 2.26-1.96 5.69-.7 8.24 1.36 2.73 4.85 3.21 7.55 2.55 1.5.24 2.8-1.66 1.63-2.8-2.95 2.24-8.05 1.17-7.77-3.13 2.94-.16 5.89.1 8.83-.26-.38-1.65-.29-3.65-1.72-4.82-1.95-2.27-5.86-1.83-7.82.22m12.5-1.38c0 4.06-.03 8.11.01 12.17h2.19c.1-2.95-.29-5.96.32-8.87.67-2.03 2.99-1.98 4.43-.75.38 3.19.18 6.41.24 9.62h2.19c-.05-3.29.2-6.6-.2-9.87-.61-3-4.76-3.47-6.55-1.29l-1.09-1.21zM1073 33.14c2.05.1 6.6.48 5.66-2.92-1.82.43-3.66 1.58-5.55.94-1.93-.31-2.6-2.47-2.49-4.17 2.85.02 5.71.01 8.58 0 .38-3.44-2.31-7.32-6.09-6.41-6.44.51-6.55 11.9-.11 12.56m-733.34-8.13c0 .49-.01 1.49-.01 1.99 3.81.09 7.62.01 11.44.02 0-.51 0-1.53.01-2.04-3.82.02-7.63-.07-11.44.03m39.32-.03v2.05c3.37-.01 6.75.04 10.13 0 1.3.11 1.86-.49 1.68-1.81-3.91-.53-7.88-.13-11.81-.24m158.99 0c.01.51.01 1.54.01 2.05 3.95-.15 7.94.35 11.86-.29-.06-.34-.16-1.03-.22-1.37-3.66-.95-7.8-.14-11.65-.39m-75.98 3.88c-.01 1.38 0 2.76 0 4.15q1.77-.03 3.57-.03c-.01-1.37-.01-2.74 0-4.1-1.2-.02-2.39 0-3.57-.02m39.78 0q-.015 2.07 0 4.14h3.52c.06-1.39-.06-2.78-.05-4.17-1.16.02-2.32.03-3.47.03m79.5-.01c-.01 1.38-.02 2.76-.01 4.14 1.18 0 2.37 0 3.56.01-.01-1.38-.01-2.75 0-4.13-1.19 0-2.38-.01-3.55-.02m133.43 4.16c.76-.01 2.26-.02 3.02-.03 0-.74-.01-2.22-.01-2.96-.74-.01-2.24-.02-2.99-.03-.01 1-.01 2.01-.02 3.02m384.01 0c.75-.01 2.25-.02 3.01-.03-.01-.74-.01-2.22-.01-2.95l-3-.04c-.01 1-.01 2.01 0 3.02" />
    <path
      d="M304.1 18.98c1.02-1.03 2.5-.23 3.29.68-1.55 2.53-3.02 5.12-4.81 7.49-.02-2.7-.53-6.03 1.52-8.17m52.59.41c.91-1.4 2.83-.93 3.7.27-1.54 2.54-3.03 5.11-4.81 7.5-.07-2.59-.39-5.51 1.11-7.77m92.62-.13c.96-1.22 2.43-.7 3.51.03-.99 2.83-3.07 5.11-4.46 7.75-.57-2.54-.64-5.59.95-7.78m79.7-.21c1.05-1.11 2.6-.36 3.38.68-1.6 2.48-3.01 5.07-4.82 7.41-.03-2.69-.48-5.91 1.44-8.09m26.29.21c.96-1.21 2.43-.71 3.49.02-.99 2.92-3.11 5.32-4.69 7.95-.01-2.65-.51-5.71 1.2-7.97m39.88-.15c1.02-1.15 2.5-.45 3.45.35-1.41 2.59-2.84 5.26-4.79 7.47-.01-2.59-.46-5.68 1.34-7.82m13.14.12c1.01-1.19 2.41-.66 3.5.07-1.08 2.88-3.08 5.32-4.74 7.89.02-2.65-.49-5.71 1.24-7.96m39.79-.28c1.23-1 3.21-.43 3.72 1.05 1.08 3.11 1.06 6.69.01 9.81-.97 2.33-4.51 1.53-4.73-.84-.57-3.25-1.07-7.2 1-10.02m-618.33.72c2.33.15 3.49 2.73 5.22 4.03 1.76-1.24 2.91-4.08 5.29-3.94-.04 2.35-2.71 3.51-4 5.24 1.18 1.8 4.5 3.02 3.77 5.47-2.18-.66-3.41-2.76-5.06-4.18-1.74 1.26-2.89 4.03-5.27 3.97-.04-2.37 2.71-3.52 3.98-5.26-1.25-1.76-4.14-2.92-3.93-5.33m298.7 7.22c1.53-2.45 2.96-4.97 4.49-7.42.04 2.56.03 5.11.02 7.66-1.51.05-3.03.1-4.51-.24m145.46.27c1.39-2.62 2.91-5.18 4.59-7.64.03 2.49-.01 4.97.07 7.46-1.54.25-3.11.22-4.66.18m-25.24 2.82c1.46-2.71 3.2-5.25 4.91-7.81.12 2.76.5 5.83-1.06 8.28-1.09 1.48-2.89.59-3.85-.47m105.99-.05c1.51-2.66 3.21-5.21 4.91-7.76.14 2.78.51 5.88-1.09 8.34-1.14 1.42-2.87.5-3.82-.58m53.01.03c1.48-2.69 3.2-5.23 4.9-7.78.13 2.76.52 5.86-1.08 8.31-1.11 1.43-2.87.53-3.82-.53m239.81-7.51c4.16-.31 4.36 6.69 1.53 8.61-4.58.78-5.08-7.16-1.53-8.61m37.58 2.16c1.17-2.37 4.7-3.21 6.05-.52.18 1.85-2.16.85-3.14 1.13-1-.09-2.16.18-2.91-.61m135.34-2.16c4.36-.23 4.54 8.13.58 8.99-3.84-.77-3.93-7.61-.58-8.99m13.04.04c4.11-.6 4.27 5.84 2.37 8.24-4.78 2.82-6.15-6.64-2.37-8.24m-332.42.3c5.45-2.66 6.38 9.15 1 8.5-3.19-1.24-2.9-6.23-1-8.5m53.01-.01c5.45-2.64 6.37 9.2.97 8.51-3.18-1.27-2.89-6.25-.97-8.51m185.48.52c1.45-1.96 4.49-.57 4.48 1.72.49 2.31.28 6.65-3.06 6.29-3.01-1.21-2.65-5.59-1.42-8.01" />
  </g>
  <path fill="#fc8080"
    d="M123.41 13.36c3.44-3.65 8.9-2.05 13.32-2.32.56 2.17 2.28 3.47 4.42 3.95-1.87 5.97-3.82 11.91-5.45 17.95l2.86.08c-.85 1.85-1.07 3.89-.49 5.86-.26.28-.79.84-1.05 1.12-4.52-.38-10.13 1.37-13.64-2.39-3.32-2.96-2.12-7.77-2.33-11.68.29-4.19-1.17-9.36 2.36-12.57" />
  <path fill="#fc7374"
    d="M136.73 11.04c6.51.03 13.01-.1 19.51-.02-.46 1.05-.91 2.09-1.36 3.14-.6.06-1.81.17-2.41.23.03.51.08 1.54.11 2.06 1.14.06 2.28.13 3.43.2.29 4.94-.62 10.01.62 14.85-1.25 2.67-1 5.64-.7 8.48-6.31.09-12.61-.09-18.91.02.26-.28.79-.84 1.05-1.12-.58-1.97-.36-4.01.49-5.86.5-1.45.98-2.9 1.43-4.36 1.87-.01 3.75.01 5.62.09.41 1.43.74 2.9 1.25 4.3.76-.01 2.27-.04 3.03-.06-1.82-5.93-3.64-11.86-5.41-17.81-1.12-.05-2.23-.11-3.33-.19-2.14-.48-3.86-1.78-4.42-3.95" />
  <path fill="#fc6a6b"
    d="M156.24 11.02c5.62-.01 11.24-.03 16.86-.02l1.03 1.23c-.39 1.25-.81 2.5-1.23 3.75.63 1.36 1.27 2.73 2.2 3.91-2.01-.78-4.32-1.16-6.28-.02-4.08 2.3-4.35 8.46-1.5 11.84 1.65 1.49 3.99 1.7 6.12 1.7-.6 2.15-.78 4.36-.67 6.58-5.62.04-11.23-.02-16.84-.01-.3-2.84-.55-5.81.7-8.48 1.74 2.02 4.42 1.5 6.76 1.49.68-2.91-2.81-1.94-4.44-3.03-.33-5.22-.07-10.45-.21-15.67-1.29-.06-2.58-.11-3.86-.13.45-1.05.9-2.09 1.36-3.14" />
  <path fill="#fc5f60"
    d="M173.1 11c6.65.04 13.31-.03 19.96.01-.47 2.26-1.29 4.48-1.44 6.8.49 1.39 1.18 2.7 1.73 4.07q-1.485 1.635-2.91 3.3c.6.49 1.21.98 1.82 1.47-3 3.9-1.24 8.88-2.02 13.34-5.82.04-11.65-.02-17.47 0-.11-2.22.07-4.43.67-6.58 1.15-.24 2.31-.51 3.46-.79l.16-2.83c-2.48.79-5.82 2.36-7.9-.06-.23-.77-.67-2.3-.9-3.06 3.19-.01 6.38-.02 9.57-.16-.09-2.48-.87-4.89-2.73-6.62-.93-1.18-1.57-2.55-2.2-3.91.42-1.25.84-2.5 1.23-3.75zm9.73 8.89c-.19 4.37-.03 8.74-.06 13.11h2.69c.13-3.21-.4-6.55.7-9.64 1.38-2.3 4.42-1.42 6.47-.75 1.1-4.68-4.89-3.83-7.18-1.98-.45-.58-.9-1.15-1.36-1.73-.31.25-.95.74-1.26.99" />
  <path fill="#fc5455"
    d="M193.06 11.01c5.02 0 10.04-.03 15.06 0 .84 4.47 1.18 9.15.05 13.61-1.58 4.99-.48 10.25-.95 15.37-5.66.05-11.32-.03-16.98 0 .78-4.46-.98-9.44 2.02-13.34-.61-.49-1.22-.98-1.82-1.47q1.425-1.665 2.91-3.3c-.55-1.37-1.24-2.68-1.73-4.07.15-2.32.97-4.54 1.44-6.8m5 4.8c-.02.88-.04 2.65-.06 3.53-1.17.06-2.33.11-3.49.15-.02.53-.05 1.59-.06 2.12 1.18.08 2.37.16 3.57.22.08 2.98-.18 5.98.2 8.95.72 1.33 2.08 2.41 3.69 2.23 1.49-.13 4.64.7 3.92-1.84-1.62-.3-3.67.25-4.85-1.19-.34-2.72-.14-5.46-.16-8.18 1.63 0 3.27-.06 4.9-.2-.04-.53-.11-1.59-.15-2.12-1.58-.05-3.16-.08-4.74-.11-.01-.88-.04-2.64-.05-3.52z" />
  <path fill="#fc494a"
    d="M208.12 11.01c4.95.02 9.9-.03 14.85-.01.29.28.85.84 1.14 1.12-.89 5.04-2.48 10.79.15 15.55-.09 1.7-1.08 3.19-1.71 4.74.51 1.33 1.01 2.65 1.51 3.99-1.14.89-1.52 2.18-1.44 3.59-5.14.04-10.27-.03-15.4 0 .47-5.12-.63-10.38.95-15.37 1.13-4.46.79-9.14-.05-13.61" />
  <path fill="#fc3f41"
    d="M222.97 11c4.1.03 8.2 0 12.3-.01 2.48 3.36.96 7.84 1.04 11.69-.98 5.77 1.09 11.56-.09 17.3-4.54.05-9.07-.01-13.6.01-.08-1.41.3-2.7 1.44-3.59-.5-1.34-1-2.66-1.51-3.99.63-1.55 1.62-3.04 1.71-4.74-2.63-4.76-1.04-10.51-.15-15.55-.29-.28-.85-.84-1.14-1.12" />
  <path fill="#fc3436"
    d="M235.27 10.99c7.3.09 14.61-.03 21.91.01.44.71.89 1.41 1.32 2.13-1.54 3.39-.37 7.07-.99 10.61-.35 5.4 1.36 10.99-.27 16.26-7.01.02-14.01-.03-21.02-.02 1.18-5.74-.89-11.53.09-17.3-.08-3.85 1.44-8.33-1.04-11.69" />
  <path fill="#fc2829"
    d="M257.18 11c4.79.04 11.02-1.03 13.79 4.02 2.11 5.01.55 10.71 1.04 16.01.5 4.19-2.72 8.44-6.95 8.89-2.6.18-5.21.02-7.82.08 1.63-5.27-.08-10.86.27-16.26.62-3.54-.55-7.22.99-10.61-.43-.72-.88-1.42-1.32-2.13" />
  <path fill="#e73220"
    d="M87.48 13.65c4.88-.71 9.95-.51 14.82.15.15 5.47.94 10.89.9 16.35-4.93 2.31-10.55 1.71-15.79 1.06-.03-3.36-.31-6.72.15-10.06 1.04 2.11 1.4 4.44 1.82 6.73 2.08-.52 4.22-.86 6.3-.12-.05-.93-.13-2.8-.17-3.73l1.13-.4c.5 2.25 3.55 1.75 3.62-.44.12-.35.38-1.06.51-1.42 1.13-2.3-2.58-2.4-3.28-.68-1.19-.78-1.58-1.98-1.18-3.58 1.31.74 2.73 1.22 4.24 1.3 0-.61.01-1.82.02-2.42-2.96-2.51-5.59 1.42-8.62 1.63-.55-1.18-1.11-2.4-2.26-3.11-.05 1.75-.03 3.5-.09 5.24-.6.19-1.8.56-2.4.75 0-.77-.02-2.32-.03-3.1.02-1.39.17-2.77.31-4.15" />
  <path fill="#dc362e"
    d="M31.29 14.42c4.19-1.33 9.12 0 12.02 3.3 3.16 3.59 3.93 9.58.92 13.48-3.02 5.26-11.39 6.83-15.84 2.55-7.2-4.54-5.14-16.93 2.9-19.33m-1.51 5.25c-.21 2.41 2.68 3.57 3.93 5.33-1.27 1.74-4.02 2.89-3.98 5.26 2.38.06 3.53-2.71 5.27-3.97 1.65 1.42 2.88 3.52 5.06 4.18.73-2.45-2.59-3.67-3.77-5.47 1.29-1.73 3.96-2.89 4-5.24-2.38-.14-3.53 2.7-5.29 3.94-1.73-1.3-2.89-3.88-5.22-4.03" />
  <path fill="#f5a6a6"
    d="M89.69 14.91c1.15.71 1.71 1.93 2.26 3.11 3.03-.21 5.66-4.14 8.62-1.63-.01.6-.02 1.81-.02 2.42-1.51-.08-2.93-.56-4.24-1.3-.4 1.6-.01 2.8 1.18 3.58.98.69 2.08.91 3.28.68-.13.36-.39 1.07-.51 1.42-1.25-.13-2.46.02-3.62.44l-1.13.4c.04.93.12 2.8.17 3.73-2.08-.74-4.22-.4-6.3.12-.42-2.29-.78-4.62-1.82-6.73-.46 3.34-.18 6.7-.15 10.06l-.84 1.64c-1.03-4.71-.2-9.59-.03-14.35l.63-.7c.01.78.03 2.33.03 3.1.6-.19 1.8-.56 2.4-.75.06-1.74.04-3.49.09-5.24m-.75 6.76c1.35 1.33 2.59 3.1 4.68 3.11q1.08-1.38 2.19-2.73c-.56-.89-1.12-1.79-1.67-2.69-1.95.14-3.51 1.48-5.2 2.31" />
  <path fill="#410e0a"
    d="m570.93 16.75 2.7-.03c.03 3.41-.01 6.82.03 10.23.58.14 1.75.41 2.33.55.54 1.58-1.45 1.46-2.39 1.99.02.87.05 2.61.07 3.48-.59.01-1.77.03-2.35.05-.02-1.29-.04-2.57-.04-3.85-2.28-.01-4.54-.03-6.81-.02.19-4.78 4.41-8.25 6.46-12.4m-4.24 10.37c1.49.03 2.98.05 4.49.07.21-2.46.13-4.93.05-7.39-1.86 2.21-3.06 4.86-4.54 7.32m148.3-10.36c.79-.01 1.58-.03 2.38-.04.03 3.52.08 7.04-.18 10.56l-2.03-.06c-.23-3.48-.19-6.97-.17-10.46m374.12-.73 2.16-.04c.04 5.68.02 11.36.01 17.05-1.07.1-2.03-.16-2.86-.79-1.79 1.9-5.22.96-6.3-1.26-1.22-2.69-1.23-6.05.24-8.65 1.48-2.25 4.82-2.38 6.75-.6-.05-1.9-.03-3.81 0-5.71m-4.72 7.27c-1.24 2.41-1.62 6.96 1.51 8.03 3.37.16 3.39-4.15 2.97-6.49-.21-2.13-3.07-3.48-4.48-1.54m14.61-6.55 2.37-.03c.02 3.49.09 6.98-.19 10.47-.43.05-1.3.17-1.74.23-.83-3.49-.33-7.12-.44-10.67m-811.7.54c2.59-.79 5.77-1.47 8.09.39 1.8 1.55 1.81 4.36.56 6.26-1.69 2.61-4.03 4.7-6.08 7.01 2.37-.02 4.75-.02 7.13-.01V33c-3.35.01-6.7 0-10.05-.01-.02-5.39 9.35-7.69 6.79-13.74-2.24-1.34-4.56-.2-6.74.63.08-.64.23-1.94.3-2.59m130.84-.54c4.13-.03 8.26-.01 12.39-.02.03.5.09 1.49.11 1.98-1.69.04-3.38.08-5.06.11-.04 4.72-.02 9.44-.02 14.16-.59 0-1.77.02-2.36.03-.06-4.74.03-9.48-.05-14.22-1.68-.02-3.36-.03-5.03-.06zm94.16.55c2.57-.79 5.72-1.48 8.05.35 1.86 1.55 1.85 4.42.57 6.34-1.69 2.58-4.02 4.66-6.05 6.96 2.37-.02 4.75-.02 7.13-.01V33c-3.35.01-6.7 0-10.05-.01-.04-5.41 9.47-7.75 6.73-13.8-2.25-1.24-4.52-.12-6.68.69.07-.65.22-1.93.3-2.58m81.95-.27c2.62-1.21 6.15-.08 6.91 2.88 1.07 3.7 1.19 8.05-.76 11.49-2.07 3.04-7.4 2.14-8.29-1.45-1.05-4.16-1.61-9.92 2.14-12.92m.93 2.08c-1.8 2.14-1.35 5.23-1.34 7.82 1.95-2.21 3.38-4.88 4.79-7.47-.95-.8-2.43-1.5-3.45-.35m1.31 7.43c-.86 1.42-3.23 3.77-.42 4.65 4.04.07 3.32-5.49 3.43-8.23-1.66.42-2.03 2.4-3.01 3.58m50.67-9.55c2.6-1.17 6.34-.25 7.12 2.76 1.15 3.57 1.17 7.69-.38 11.14-2.02 3.86-8.68 2.74-9.2-1.67-.73-4.02-1.29-9.51 2.46-12.23m.95 1.96c-2.07 2.82-1.57 6.77-1 10.02.22 2.37 3.76 3.17 4.73.84 1.05-3.12 1.07-6.7-.01-9.81-.51-1.48-2.49-2.05-3.72-1.05m-186.13 1.82c1.18 0 2.37-.02 3.56-.03 0 1.37 0 2.73.01 4.1-1.19 0-2.37 0-3.54.01zm301.39-.06c1.54.2 3.09.04 4.63-.27.38.29 1.14.85 1.51 1.14.99-1.54 4.22-1.6 4.58.48.82 3.56.28 7.27.45 10.89l-1.98.08c-.62-3.52 1.29-7.97-1.23-10.84-2.71 2.68-.82 7.31-1.38 10.81h-2.03c-.51-3.54 1.08-7.79-1.11-10.82-.33.3-.99.91-1.32 1.21-.37 3.19-.11 6.42-.2 9.62l-1.97-.04c.03-4.09-.05-8.18.05-12.26m-63.97.8c2.38-1.91 6.91-1.17 7.9 2 .85 2.63.83 5.77-.76 8.12-1.53 1.84-4.19 1.89-6.3 1.21-3.72-2.2-3.78-8.51-.84-11.33m1.65 1.28c-1.9 2.27-2.19 7.26 1 8.5 5.38.65 4.45-11.16-1-8.5M964 22.04c1.46-1.68 4.03-1.8 6.06-1.21 2.4 1.02 3.14 3.77 3.14 6.16-2.89.01-5.78 0-8.66.02-.44 4.72 5.03 5.12 8.12 3.22 1.08 3.08-2.81 2.85-4.61 3.01-5.74.38-7.56-7.66-4.05-11.2m.64 3.03c2.07.18 4.16.13 6.26.04-.53-3.6-5.58-3.47-6.26-.04m-624.98-.06c3.81-.1 7.62-.01 11.44-.03-.01.51-.01 1.53-.01 2.04-3.82-.01-7.63.07-11.44-.02 0-.5.01-1.5.01-1.99m241.61 3.84c1.17.01 2.36.02 3.55.02-.01 1.38-.01 2.75 0 4.13-1.19-.01-2.38-.01-3.56-.01-.01-1.38 0-2.76.01-4.14" />
  <path fill="#410d0a"
    d="M658.26 16.03c.53-.01 1.59-.03 2.12-.05.06 1.98.05 3.96-.12 5.94 1.88-1.36 5.14-2.39 6.64.05 1.37 3.49.49 7.39.72 11.05-.55-.02-1.63-.05-2.17-.07-.06-2.94.2-5.89-.16-8.82-.58-2.48-4.27-2.02-4.64.36-.47 2.81-.16 5.68-.25 8.51-.54 0-1.61-.01-2.15-.01-.01-5.65-.03-11.3.01-16.96m278.23 0c.53 0 1.6-.02 2.13-.03.03 1.92.01 3.83-.06 5.75 2.21-2 6.06-1.55 7.27 1.32 1.41 3.49.97 9.89-3.84 10.16-1.86-.48-3.65-.82-5.52-.21.03-5.66 0-11.32.02-16.99m3.05 7.27c-1.23 2.42-1.59 6.8 1.42 8.01 3.34.36 3.55-3.98 3.06-6.29.01-2.29-3.03-3.68-4.48-1.72m10.6-5.63c-.56-2.93 3.72-1.35 5.48-1.57.19 4.86-.78 9.92.65 14.64 1.24.19 2.49.38 3.75.59.16 3.14-5.84 1.89-6.32-.74-.64-4.22-.12-8.53-.31-12.79-.81-.03-2.44-.1-3.25-.13m39.38-1.64c.53-.01 1.59-.02 2.12-.03.04 1.97 0 3.94-.05 5.91 1.88-1.64 5.71-2.29 6.79.57 1 3.4.35 7.03.53 10.52h-2.19c-.16-3.14.32-6.34-.33-9.43-.6-.34-1.81-1.02-2.42-1.36-3.8 2.17-1.82 7.27-2.31 10.81-.55-.02-1.63-.07-2.18-.1.06-5.63 0-11.26.04-16.89m-623.24 5.99c-.81-5.08 6.37-7.58 9.21-3.58 1.73 3.49 1.76 7.84.42 11.47-1.2 3.3-5.26 3.84-8.24 3l-.4-2.38c2 .64 4.87 1.25 6.26-.85.35-.87 1.07-2.61 1.42-3.48-3.47 3-9.29.57-8.67-4.18m3.06-2.72c-1.22 2.05-1.07 5.55 1.56 6.4 3 .29 3.72-3.42 2.81-5.59-.34-2-3.23-2.3-4.37-.81m132.43 1.46h3.52c0 1.36 0 2.72.02 4.08l-3.57-.03zm527.39.1c1.37-.99 2.28 1.68 3.68.08 4.39-2.13 7.23 3.47 6.33 7.17.22 4.08-4.71 6.87-7.93 3.97.08 1.81.14 3.62.13 5.43-.54.02-1.61.05-2.15.06-.1-5.57.01-11.14-.06-16.71m4.31 1.63c-3.78 1.6-2.41 11.06 2.37 8.24 1.9-2.4 1.74-8.84-2.37-8.24M1073 33.14c-6.44-.66-6.33-12.05.11-12.56 3.78-.91 6.47 2.97 6.09 6.41-2.87.01-5.73.02-8.58 0-.11 1.7.56 3.86 2.49 4.17 1.89.64 3.73-.51 5.55-.94.94 3.4-3.61 3.02-5.66 2.92m-2.35-8.05c2.02.12 4.06.12 6.11.07-.21-3.72-5.56-3.5-6.11-.07m-568.88 3.77c1.15 0 2.31-.01 3.47-.03-.01 1.39.11 2.78.05 4.17h-3.52q-.015-2.07 0-4.14" />
  <path fill="#410e0b"
    d="M803.98 16h2.18c.04 2.02.02 4.04-.12 6.06 1.92-2.09 6.37-2.36 7.08.97.48 3.3.19 6.65.25 9.97h-2.17c-.1-3.29.29-6.62-.42-9.86-1.37-.69-3.33-1.19-4.07.63-1.07 2.92-.33 6.17-.54 9.23h-2.19c-.02-5.67-.01-11.33 0-17m17.66.09c.55.01 1.65.02 2.2.02l-.08 2.74c-.53-.01-1.6-.05-2.14-.07.01-.67.02-2.01.02-2.69m105.98.03c.55 0 1.65-.02 2.2-.03-.01.69-.03 2.07-.05 2.76-.53-.02-1.6-.05-2.13-.06-.01-.67-.02-2-.02-2.67m-625.2 1.42c2.23-1.86 6.31-1.05 7.27 1.86 1.29 3.55 1.31 7.73-.11 11.24-1.51 3.71-7.64 3.34-8.66-.56-1.18-4.01-1.58-9.29 1.5-12.54m1.68 1.44c-2.05 2.14-1.54 5.47-1.52 8.17 1.79-2.37 3.26-4.96 4.81-7.49-.79-.91-2.27-1.71-3.29-.68m3.88 3.37c-1.66 2.44-3.2 4.94-4.77 7.44.82 1.45 3.23 2.17 4.06.29 1.16-2.35 1.1-5.17.71-7.73m5.63-2.44c-1.15-3.17 2.39-3.27 4.41-3.43 3.01-.37 6.09 2.43 5.19 5.54-1.06 3.69-4.49 5.99-6.8 8.89 2.3.04 4.6-.02 6.91.05.03.51.08 1.54.1 2.05-3.31-.02-6.62 0-9.92-.02.02-.51.08-1.54.1-2.06 2.45-3.01 5.64-5.45 7.38-9.01.04-4.16-4.87-3.76-7.37-2.01m41.8-2.36c2.25-1.9 6.36-1.03 7.31 1.9 1.26 3.56 1.28 7.73-.16 11.24-1.03 2.41-4.09 3.08-6.37 2.14-2.73-1.58-3-5.1-3.12-7.92.15-2.53.25-5.58 2.34-7.36m1.28 1.84c-1.5 2.26-1.18 5.18-1.11 7.77 1.78-2.39 3.27-4.96 4.81-7.5-.87-1.2-2.79-1.67-3.7-.27m4.31 2.95c-1.67 2.43-3.21 4.95-4.79 7.43.78 1.44 3.16 2.2 4.01.38 1.23-2.36 1.13-5.23.78-7.81m34.39-5.23c2.52-1.27 6.14-.32 6.92 2.6 1.23 3.77 1.36 8.36-.78 11.83-2.19 2.96-7.45 1.87-8.23-1.77-.98-4.1-1.5-9.66 2.09-12.66m.92 2.14c-1.73 2.26-1.2 5.32-1.23 7.96 1.66-2.57 3.62-5.02 4.76-7.89-1.05-.76-2.56-1.28-3.53-.07m-.61 10.66c.94 1.15 2.73 2.01 3.86.55 1.54-2.47 1.18-5.52 1.04-8.29-1.7 2.54-3.38 5.09-4.9 7.74m10.54-10.74c1.72-4.02 8.68-3.43 9.49.97.94 4.18 1.32 10.13-2.96 12.63-2.17.64-6.69 1.3-5.93-2.29 3.5 2.09 7.57-.48 7.29-4.49-1.62 1.52-3.98 1.95-6.01 1.04-2.55-1.71-2.75-5.17-1.88-7.86m4.16-.73c-3.36.71-3.06 7.3.64 7.19 3.75-.37 3.35-7.82-.64-7.19m22.89.09c1.98-.88 3.93-2.08 6.21-1.79.01 4.71.02 9.42 0 14.12 1.66.13 4.21-.47 3.43 2.11-3.04.05-6.08.03-9.12.03 0-.52-.01-1.54-.01-2.05.83-.01 2.5-.02 3.34-.02.01-3.91.02-7.82-.01-11.72-1.38.64-2.76 1.25-4.16 1.81zm15.1-1.42c2.07-.95 4.88-.73 6.27 1.26 1.75 2.93 1.62 6.5 1.26 9.76-.42 2.52-2.1 5.29-5 5.12-3.43.23-5.16-3.44-5.2-6.35-.19-3.36-.31-7.55 2.67-9.79m.92 2.15c-1.59 2.19-1.52 5.24-.95 7.78 1.39-2.64 3.47-4.92 4.46-7.75-1.08-.73-2.55-1.25-3.51-.03m-.61 10.72c.96 1.06 2.76 1.95 3.85.47 1.56-2.45 1.18-5.52 1.06-8.28-1.71 2.56-3.45 5.1-4.91 7.81m29.5-13.26c.68.01 2.06.02 2.74.03.01 3.46 0 6.92.02 10.38.52.02 1.58.06 2.1.09 0 .47-.01 1.43-.01 1.9-.52.02-1.57.05-2.1.06 0 1.27-.01 2.55 0 3.82h-2.39c-.01-1.28-.01-2.55-.02-3.83-2.28-.01-4.56-.03-6.84-.03.21-4.78 4.44-8.26 6.5-12.42m-4.26 10.44c1.55.04 3.12.07 4.66-.18-.08-2.49-.04-4.97-.07-7.46-1.68 2.46-3.2 5.02-4.59 7.64m11.89-7.82c-1.03-3.6 3.9-2.84 6.12-2.64 3.91.58 4.34 6.21.97 7.89 4.35 1.1 3.22 8.03-.96 8.46-2.42.15-7.51 1.04-6.72-2.87 2.1.54 4.41 1.61 6.56.6 1.89-.83 2-3.92.19-4.9-1.15-.72-2.6-.49-3.87-.68-.01-.43-.04-1.3-.05-1.73 1.7-.27 3.61-.31 4.91-1.63.26-4.02-4.62-3.63-7.15-2.5m41.58-1.79c2.24-1.89 6.34-1.05 7.3 1.88 1.27 3.55 1.28 7.71-.13 11.22-1.03 2.44-4.1 3.13-6.39 2.18-2.73-1.58-3-5.09-3.12-7.9.15-2.53.24-5.59 2.34-7.38m1.6 1.5c-1.92 2.18-1.47 5.4-1.44 8.09 1.81-2.34 3.22-4.93 4.82-7.41-.78-1.04-2.33-1.79-3.38-.68m3.99 3.29c-1.68 2.44-3.23 4.96-4.8 7.47.82 1.41 3.17 2.12 4.04.33 1.2-2.37 1.11-5.22.76-7.8m21.36-5.21c2.06-.97 4.85-.76 6.27 1.2 1.78 2.93 1.66 6.52 1.29 9.79-.42 2.51-2.07 5.26-4.95 5.13-3.42.26-5.17-3.34-5.25-6.25-.19-3.37-.34-7.59 2.64-9.87m.94 2.13c-1.71 2.26-1.21 5.32-1.2 7.97 1.58-2.63 3.7-5.03 4.69-7.95-1.06-.73-2.53-1.23-3.49-.02m-.61 10.67c.95 1.08 2.68 2 3.82.58 1.6-2.46 1.23-5.56 1.09-8.34-1.7 2.55-3.4 5.1-4.91 7.76m52.66-12.8c2.27-1.11 5.6-.62 6.66 1.91 1.6 3.71 1.6 8.24-.09 11.92-1.82 3.55-7.76 2.76-8.61-1.16-1-4.09-1.5-9.63 2.04-12.67m.97 2.1c-1.73 2.25-1.22 5.31-1.24 7.96 1.66-2.57 3.66-5.01 4.74-7.89-1.09-.73-2.49-1.26-3.5-.07m-.62 10.73c.95 1.06 2.71 1.96 3.82.53 1.6-2.45 1.21-5.55 1.08-8.31-1.7 2.55-3.42 5.09-4.9 7.78m130.2-6.16c-1.89-2.62-.17-6.89 3.14-7.17 2.36-.24 6.66-.56 5.81 3.04-1.82-.65-3.81-1.79-5.72-.79-2.23.23-2.1 3.74-.08 4.12 2.12.8 4.83.91 6.12 3.08.59 1.55.54 3.26 0 4.82-2.13 3.22-6.61 2.55-9.75 1.5l-.16-2.42c2.2.63 4.52 1.92 6.78.71 1.68-.55 1.47-2.95.39-4.03-2.07-1.18-4.95-.85-6.53-2.86m55.4-6.49 2.13.03c0 .84.01 2.54.02 3.39 1.51.01 3.02.02 4.55.04v1.66c-1.52.03-3.04.04-4.54.06.05 2.58-.28 5.21.21 7.76 1.08 1.2 2.89.78 4.33 1.05v1.71c-2-.01-4.14.22-5.87-.96-1.58-2.9-.57-6.39-.87-9.53-1.1-.03-2.18-.06-3.26-.1v-1.65c1.07-.02 2.15-.04 3.24-.05.02-.85.04-2.55.06-3.41m79.48.04h2.2l.04 3.4h4.4l.01 1.72-4.37-.03c.11 2.69-.54 5.59.34 8.15 1.36.51 2.84.62 4.28.88-.11.39-.32 1.17-.43 1.56-2.15-.02-5.15.31-6.23-2.04-.46-2.81-.19-5.67-.26-8.5-.8-.01-2.4-.03-3.2-.03.01-.43.03-1.29.05-1.71.78-.01 2.35-.02 3.14-.02.01-.85.02-2.54.03-3.38m-291.51 3.4h3.54c-.01 1.37-.01 2.73 0 4.1-1.19-.01-2.37-.01-3.55-.01 0-1.36 0-2.73.01-4.09m237.12 1.67c-.26-3.02 3.64-1.12 5.42-1.63.02 3.47-.02 6.94.03 10.41 1.3.03 2.6.05 3.92.07.01.38.03 1.14.05 1.52-3.34.47-6.74.1-10.09.2l-.03-1.73c1.3-.02 2.61-.05 3.93-.07.02-2.88.01-5.75.01-8.63-.81-.03-2.43-.1-3.24-.14m14.66-.81c1.86-1.4 5.31-1.8 6.32.84 1.03 3.4.36 7.05.54 10.55h-2.19c-.17-3.14.32-6.35-.33-9.44-.6-.33-1.81-1-2.41-1.34-3.8 2.14-1.84 7.23-2.31 10.76-.54.01-1.61.02-2.15.03.11-4.21-.31-8.46.25-12.64zm91.57-.83c1.72 0 3.44 0 5.18.01.04 3.47-.01 6.94.05 10.41 1.3.03 2.61.05 3.93.08 0 .38 0 1.15.01 1.53-3.35.43-6.73.09-10.08.18v-1.73c1.29-.02 2.59-.05 3.9-.07.03-2.88.03-5.75.02-8.63-.8-.03-2.39-.1-3.18-.13zm-239.87.06 1.53-.23c.28.31.82.93 1.1 1.24 1.76-2.19 5.94-1.72 6.54 1.26.42 3.28.15 6.6.22 9.89h-2.2c-.18-3.2.36-6.49-.37-9.64-.63-.27-1.9-.83-2.54-1.11-3.55 2.35-1.57 7.23-2.08 10.75h-2.19c-.04-4.05-.01-8.11-.01-12.16M781 33.05c-6.24-1.3-5.52-12.58 1.14-12.55 3.64-.48 5.71 3.2 5.61 6.38-2.93.21-5.86.06-8.78.19.19 1.49.55 3.19 2.02 3.96 2.1.87 4.18-.34 6.25-.7.42 3.45-4 2.99-6.24 2.72m-1.99-7.99c1.92.1 3.84.23 5.77.11.98-1.15-.44-1.97-1.23-2.63-2.04-.81-3.72.85-4.54 2.52m64.76-2.11c1.01-2.53 4.81-3.35 6.73-1.32.64-.19 1.93-.55 2.57-.74-.13 4.36.23 8.74-.21 13.07-.39 2.3-2.51 3.83-4.8 3.7-1.58-.21-4.96.36-3.93-2.62 1.72.37 3.74 1.36 5.48.42 1.22-.82 1.06-2.48 1.47-3.73-1.75 1.31-4.29 1.9-6.1.39-2.41-2.33-2.49-6.24-1.21-9.17m3.74-.5c-3.55 1.45-3.05 9.39 1.53 8.61 2.83-1.92 2.63-8.92-1.53-8.61M887 33.05c-6.2-1.29-5.54-12.49 1.06-12.54 3.68-.55 5.79 3.17 5.69 6.39-2.94.17-5.87.05-8.8.18.22 1.47.57 3.16 2.02 3.93 2.1.93 4.18-.34 6.27-.67.39 3.46-4.01 2.97-6.24 2.71m-1.91-8.44c.75.79 1.91.52 2.91.61.98-.28 3.32.72 3.14-1.13-1.35-2.69-4.88-1.85-6.05.52m13.47-3.86 2.09-.03.12 1.81c.46-.48.94-.99 1.42-1.52 2.1-.79 6.14-1.03 5.12 2.41-1.86-1.22-4.88-1.34-5.99.91-1.02 2.75-.47 5.78-.6 8.66-.54 0-1.62.01-2.16.01-.03-4.08-.03-8.17 0-12.25m13.22.12 1.48-.3c.25.53.76 1.59 1.02 2.12.9-2.49 4.35-2.75 6.33-1.38-.04.52-.11 1.56-.15 2.08-1.93-1.28-5.02-1.26-6.01 1.17-.83 2.72-.32 5.64-.45 8.44h-2.2c-.03-4.05-.02-8.09-.02-12.13m91.12 2.62c-.99-3.23 2.93-2.98 5.03-2.93 1.78-.12 2.95 1.2 4.1 2.33.26 3.38.2 6.76.19 10.14-.52-.02-1.56-.06-2.08-.07l-.38-1.38c-2.19 3.21-8.24 1.65-7.76-2.57.33-4.01 5.05-3.95 8.06-3.89-.29-3.91-4.81-2.8-7.16-1.63m1.52 4.91c-.71 2.04 1.86 3.69 3.55 2.65 1.61-.65 1.96-2.59 2.1-4.12-1.95.19-4.44-.49-5.65 1.47m11.55-7.42 1.16-.5 1.32 1.12c1.79-1.75 4.98-1.34 6.42.66 1.5 2.87 1.61 6.61-.16 9.39-1.62 2.11-4.83 1.98-6.71.34.12 1.84.14 3.69.15 5.53-.55 0-1.67.01-2.22.01.03-5.52-.08-11.04.04-16.55m4.46 1.47c-3.35 1.38-3.26 8.22.58 8.99 3.96-.86 3.78-9.22-.58-8.99m22.82-.24c1.96-2.05 5.87-2.49 7.82-.22 1.43 1.17 1.34 3.17 1.72 4.82-2.94.36-5.89.1-8.83.26-.28 4.3 4.82 5.37 7.77 3.13 1.17 1.14-.13 3.04-1.63 2.8-2.7.66-6.19.18-7.55-2.55-1.26-2.55-1.13-5.98.7-8.24m.83 2.43c1.65 1.06 3.82.41 5.69.53.98-1.15-.41-1.94-1.19-2.61-1.88-.8-3.51.65-4.5 2.08m11.67-3.81 1.54-.2 1.09 1.21c1.79-2.18 5.94-1.71 6.55 1.29.4 3.27.15 6.58.2 9.87h-2.19c-.06-3.21.14-6.43-.24-9.62-1.44-1.23-3.76-1.28-4.43.75-.61 2.91-.22 5.92-.32 8.87h-2.19c-.04-4.06-.01-8.11-.01-12.17m-593.76 8.03c1.18.02 2.37 0 3.57.02-.01 1.36-.01 2.73 0 4.1q-1.8 0-3.57.03c0-1.39-.01-2.77 0-4.15m252.71 4.15c.01-1.01.01-2.02.02-3.02.75.01 2.25.02 2.99.03 0 .74.01 2.22.01 2.96-.76.01-2.26.02-3.02.03m384.01 0c-.01-1.01-.01-2.02 0-3.02l3 .04c0 .73 0 2.21.01 2.95-.76.01-2.26.02-3.01.03" />
  <path fill="#461310"
    d="M329.61 21.54c1.61-2.06 2.37-5.91 5.79-4.83 0 3.34.04 6.69-.05 10.03.67.25 2.01.74 2.68.99l-.84 1.27c-.45.09-1.36.25-1.81.33 0 1.22.01 2.44.03 3.67-.6 0-1.81 0-2.41.01-.01-1.29-.01-2.57-.01-3.86-2.26.01-4.52 0-6.77.01-.48-3.02 2.11-5.16 3.39-7.62m-1.13 5.35c1.48.34 3 .29 4.51.24.01-2.55.02-5.1-.02-7.66-1.53 2.45-2.96 4.97-4.49 7.42" />
  <path fill="#fdebeb"
    d="M396.31 19.25c.97-1.21 2.48-.69 3.53.07-1.14 2.87-3.1 5.32-4.76 7.89.03-2.64-.5-5.7 1.23-7.96m14.09-.81c3.99-.63 4.39 6.82.64 7.19-3.7.11-4-6.48-.64-7.19m-41.06.86c1.14-1.49 4.03-1.19 4.37.81.91 2.17.19 5.88-2.81 5.59-2.63-.85-2.78-4.35-1.56-6.4m197.35 7.82c1.48-2.46 2.68-5.11 4.54-7.32.08 2.46.16 4.93-.05 7.39-1.51-.02-3-.04-4.49-.07M395.7 29.91c1.52-2.65 3.2-5.2 4.9-7.74.14 2.77.5 5.82-1.04 8.29-1.13 1.46-2.92.6-3.86-.55m383.31-4.85c.82-1.67 2.5-3.33 4.54-2.52.79.66 2.21 1.48 1.23 2.63-1.93.12-3.85-.01-5.77-.11m185.63.01c.68-3.43 5.73-3.56 6.26.04-2.1.09-4.19.14-6.26-.04m79.44-.43c.99-1.43 2.62-2.88 4.5-2.08.78.67 2.17 1.46 1.19 2.61-1.87-.12-4.04.53-5.69-.53m26.57.45c.55-3.43 5.9-3.65 6.11.07-2.05.05-4.09.05-6.11-.07m-762.67-2.74c.39 2.56.45 5.38-.71 7.73-.83 1.88-3.24 1.16-4.06-.29 1.57-2.5 3.11-5 4.77-7.44m53.02-.01c.35 2.58.45 5.45-.78 7.81-.85 1.82-3.23 1.06-4.01-.38 1.58-2.48 3.12-5 4.79-7.43m172 0c.35 2.58.44 5.43-.76 7.8-.87 1.79-3.22 1.08-4.04-.33 1.57-2.51 3.12-5.03 4.8-7.47m63.49 4.2c.98-1.18 1.35-3.16 3.01-3.58-.11 2.74.61 8.3-3.43 8.23-2.81-.88-.44-3.23.42-4.65m487.9-3.24c1.41-1.94 4.27-.59 4.48 1.54.42 2.34.4 6.65-2.97 6.49-3.13-1.07-2.75-5.62-1.51-8.03m-79.97 5.1c1.21-1.96 3.7-1.28 5.65-1.47-.14 1.53-.49 3.47-2.1 4.12-1.69 1.04-4.26-.61-3.55-2.65" />
  <path fill="#474747"
    d="M64.71 18.49c3.72 2.7 7.6 5.16 11.29 7.89-3.8 2.44-7.45 5.1-11.21 7.61-.02-5.17.11-10.34-.08-15.5" />
  <path fill="#fd8788"
    d="M140.69 26.08c.52-2.49 1.25-4.92 1.86-7.38.98 2.39 1.65 4.9 2.29 7.4-1.38-.01-2.77-.02-4.15-.02" />
  <path fill="#fff8f8"
    d="M182.83 19.89c.31-.25.95-.74 1.26-.99.46.58.91 1.15 1.36 1.73 2.29-1.85 8.28-2.7 7.18 1.98-2.05-.67-5.09-1.55-6.47.75-1.1 3.09-.57 6.43-.7 9.64h-2.69c.03-4.37-.13-8.74.06-13.11" />
  <path fill="#ffe3e7"
    d="M88.94 21.67c1.69-.83 3.25-2.17 5.2-2.31.55.9 1.11 1.8 1.67 2.69q-1.11 1.35-2.19 2.73c-2.09-.01-3.33-1.78-4.68-3.11" />
  <path fill="#b3382a" d="M97.49 21.09c.7-1.72 4.41-1.62 3.28.68-1.2.23-2.3.01-3.28-.68" />
  <path fill="#400d0a"
    d="M752.38 21.53c2.38-1.94 6.93-1.19 7.92 1.98.84 2.63.84 5.78-.76 8.13-1.55 1.82-4.2 1.89-6.31 1.2-3.69-2.21-3.78-8.49-.85-11.31m1.68 1.25c-1.92 2.26-2.21 7.24.97 8.51 5.4.69 4.48-11.15-.97-8.51" />
  <path fill="#fc6566" d="M168.68 24.14c.27-2.44 3.3-2.97 5.17-2.01.26.71.53 1.41.8 2.12-1.99.03-3.98.01-5.97-.11" />
  <path fill="#9c3326" d="M96.64 23.63c1.16-.42 2.37-.57 3.62-.44-.07 2.19-3.12 2.69-3.62.44" />
  <path fill="#471512"
    d="M378.98 24.98c3.93.11 7.9-.29 11.81.24.18 1.32-.38 1.92-1.68 1.81-3.38.04-6.76-.01-10.13 0z" />
  <path fill="#481512"
    d="M537.97 24.98c3.85.25 7.99-.56 11.65.39.06.34.16 1.03.22 1.37-3.92.64-7.91.14-11.86.29 0-.51 0-1.54-.01-2.05" />
  <path fill="#976461"
    d="M87.41 31.21c5.24.65 10.86 1.25 15.79-1.06 1.21 3.43-2.57 4.99-5.26 5.3-3.92.42-8.23-.1-11.37-2.6z" />
</svg>