<?xml version="1.0" encoding="UTF-8" ?>
<!DOCTYPE svg PUBLIC "-//W3C//DTD SVG 1.1//EN" "http://www.w3.org/Graphics/SVG/1.1/DTD/svg11.dtd">
<svg width="1691pt" height="917pt" viewBox="0 0 1691 917" version="1.1" xmlns="http://www.w3.org/2000/svg">
<g id="#00000012">
<path fill="#000000" opacity="0.07" d=" M 858.43 0.00 L 863.43 0.00 C 868.53 1.40 873.75 2.27 879.00 2.93 C 1145.33 44.95 1411.68 86.89 1678.02 128.89 C 1683.70 129.39 1689.00 132.70 1691.00 138.21 L 1691.00 142.56 C 1688.46 149.53 1683.04 154.77 1678.25 160.22 C 1459.07 405.05 1239.91 649.90 1020.76 894.75 C 1015.54 900.08 1010.34 906.42 1002.60 907.86 C 1006.75 904.98 1009.23 900.08 1008.99 895.01 C 1009.02 684.66 1008.98 474.32 1009.01 263.97 C 1009.26 255.70 1004.38 247.82 997.42 243.56 C 993.30 240.97 988.38 240.35 983.75 239.22 C 883.29 216.06 782.82 192.91 682.37 169.72 C 691.93 158.54 703.36 149.11 712.86 137.87 C 723.81 126.17 735.84 115.49 746.25 103.28 C 754.78 94.79 763.27 86.25 771.72 77.68 C 784.20 63.23 798.80 50.77 811.26 36.31 C 817.55 29.92 823.97 23.65 830.21 17.20 C 833.00 14.27 836.08 11.55 839.70 9.69 C 845.99 6.54 851.62 2.05 858.43 0.00 Z" />
</g>
<g id="#000000ff">
<path fill="#000000" opacity="1.00" d=" M 8.39 25.17 C 11.45 19.20 18.62 16.40 25.01 18.19 C 244.13 68.67 463.24 119.24 682.37 169.72 C 782.82 192.91 883.29 216.06 983.75 239.22 C 988.38 240.35 993.30 240.97 997.42 243.56 C 1004.38 247.82 1009.26 255.70 1009.01 263.97 C 1008.98 474.32 1009.02 684.66 1008.99 895.01 C 1009.23 900.08 1006.75 904.98 1002.60 907.86 C 1002.24 908.05 1001.52 908.41 1001.16 908.60 C 1002.30 902.80 1002.02 896.88 1002.00 891.02 C 1002.00 687.69 1002.00 484.35 1002.00 281.02 C 1001.94 276.13 1002.34 271.19 1001.59 266.34 C 999.82 257.20 992.16 249.65 983.10 247.70 C 664.35 174.19 345.59 100.72 26.84 27.22 C 20.83 25.68 14.64 24.07 8.39 25.17 Z" />
<path fill="#000000" opacity="1.00" d=" M 66.35 49.46 C 73.45 45.84 82.20 55.36 78.34 62.21 C 75.59 66.53 69.04 65.19 66.20 61.66 C 62.95 58.52 61.95 52.05 66.35 49.46 M 68.05 49.97 C 66.62 50.51 65.32 51.51 64.72 52.95 C 63.06 58.17 67.92 64.29 73.39 63.75 C 77.12 63.91 79.35 59.18 77.93 56.06 C 76.55 52.23 72.27 48.60 68.05 49.97 Z" />
<path fill="#000000" opacity="1.00" d=" M 439.23 138.39 C 440.65 134.07 446.64 135.43 448.58 138.54 C 449.26 141.60 448.79 144.80 448.93 147.92 C 449.37 148.52 450.23 149.72 450.66 150.32 C 449.01 150.35 447.76 149.68 446.90 148.31 C 443.31 150.34 437.72 147.31 439.13 142.93 C 440.72 140.05 444.66 141.96 447.26 141.60 C 447.99 137.80 442.13 135.29 440.94 139.53 C 440.36 139.15 439.79 138.77 439.23 138.39 M 441.30 143.29 C 439.66 146.17 443.69 148.50 446.01 146.93 C 447.33 146.15 446.82 144.40 447.13 143.14 C 445.19 143.11 443.20 142.81 441.30 143.29 Z" />
<path fill="#000000" opacity="1.00" d=" M 461.05 135.16 C 461.51 135.36 462.45 135.75 462.92 135.94 C 463.11 141.72 463.00 147.52 462.94 153.30 C 462.44 152.85 461.43 151.96 460.93 151.51 C 453.68 155.20 448.98 142.53 455.03 138.93 C 457.30 138.09 459.40 139.59 461.00 141.04 C 460.98 139.08 461.00 137.12 461.05 135.16 M 455.33 141.25 C 453.26 144.34 454.37 150.93 458.97 150.68 C 461.60 149.68 461.31 146.10 460.88 143.85 C 460.51 141.49 457.29 139.14 455.33 141.25 Z" />
<path fill="#000000" opacity="1.00" d=" M 466.58 141.37 C 469.96 141.99 473.33 142.74 476.62 143.79 C 474.47 147.15 471.46 149.81 468.87 152.81 C 471.31 153.40 473.83 153.77 476.20 154.65 L 476.50 156.16 C 472.91 155.41 469.33 154.62 465.81 153.61 C 467.82 150.13 470.97 147.55 473.53 144.51 C 471.31 143.48 467.16 144.38 466.58 141.37 Z" />
<path fill="#000000" opacity="1.00" d=" M 494.05 143.30 C 495.53 142.38 496.97 144.92 495.69 145.93 C 494.20 146.95 492.81 144.29 494.05 143.30 Z" />
<path fill="#000000" opacity="1.00" d=" M 482.11 145.18 C 486.39 144.06 490.07 148.12 490.21 152.17 C 489.33 153.46 489.07 154.97 490.14 156.22 C 488.87 157.11 487.78 158.65 486.06 158.55 C 479.52 158.89 476.31 148.28 482.11 145.18 M 480.88 149.49 C 483.20 150.59 485.73 151.08 488.25 151.56 C 487.89 149.03 486.06 145.78 483.01 146.83 C 482.48 147.50 481.41 148.82 480.88 149.49 M 484.48 156.75 C 487.12 157.86 487.76 154.41 488.72 152.75 C 486.13 153.11 483.62 152.09 481.11 151.68 C 481.60 153.67 482.06 156.28 484.48 156.75 Z" />
<path fill="#000000" opacity="1.00" d=" M 493.83 162.81 C 494.02 157.88 493.74 152.95 493.96 148.02 C 494.38 148.06 495.24 148.14 495.67 148.18 C 495.89 153.19 495.80 158.22 495.73 163.24 C 496.14 165.61 490.95 165.99 491.99 163.37 L 493.83 162.81 Z" />
<path fill="#000000" opacity="1.00" d=" M 502.70 156.22 C 500.17 155.44 498.49 151.74 501.03 149.98 C 504.29 148.35 508.48 150.86 509.08 154.37 C 508.66 154.25 507.81 154.03 507.39 153.91 C 506.47 151.91 504.06 150.37 501.91 151.45 C 500.82 153.85 503.87 154.71 505.39 155.61 C 507.58 156.46 510.04 158.30 509.21 161.02 C 508.34 163.83 504.75 163.47 502.67 162.38 C 500.54 161.57 499.94 159.27 499.18 157.37 C 499.63 157.40 500.54 157.47 500.99 157.50 C 501.51 160.22 504.36 162.55 507.10 161.09 C 508.57 158.12 504.43 157.46 502.70 156.22 Z" />
<path fill="#000000" opacity="1.00" d=" M 521.93 154.85 C 525.68 152.93 529.95 156.44 530.11 160.35 C 527.15 160.08 527.45 155.24 524.00 155.95 C 520.56 157.67 521.11 163.81 524.09 165.83 C 526.38 167.28 527.66 164.65 528.77 163.11 C 531.22 164.85 528.42 168.25 525.94 167.85 C 519.94 167.61 517.43 158.43 521.93 154.85 Z" />
<path fill="#000000" opacity="1.00" d=" M 535.35 157.45 C 539.37 156.38 543.41 160.12 543.50 164.10 C 543.93 167.01 542.60 171.28 538.95 170.87 C 532.52 170.86 529.57 160.33 535.35 157.45 M 536.11 159.15 C 532.49 161.85 534.58 170.59 539.91 168.98 C 543.15 166.01 541.40 157.64 536.11 159.15 Z" />
<path fill="#000000" opacity="1.00" d=" M 547.24 159.59 C 548.11 160.05 548.87 160.65 549.53 161.38 C 551.87 159.97 554.24 161.12 555.99 162.82 C 558.43 161.84 561.77 162.25 562.85 164.99 C 563.79 168.69 563.19 172.59 563.29 176.38 C 562.81 176.19 561.84 175.82 561.36 175.64 C 561.02 172.13 561.63 168.56 561.00 165.08 C 560.03 163.63 557.15 163.11 556.52 165.14 C 555.99 168.26 556.31 171.44 556.26 174.59 C 555.57 174.43 554.90 174.27 554.23 174.11 C 554.18 170.77 554.42 167.42 554.10 164.09 C 553.75 161.71 549.60 161.53 549.35 164.05 C 548.86 167.05 549.18 170.12 549.09 173.15 C 548.64 172.95 547.74 172.57 547.29 172.37 C 547.02 168.12 547.20 163.85 547.24 159.59 Z" />
<path fill="#000000" opacity="1.00" d=" M 513.19 163.11 C 514.16 161.75 516.62 163.33 515.79 164.79 C 514.81 166.21 512.33 164.59 513.19 163.11 Z" />
</g>
<g id="#002500ff">
<path fill="#002500" opacity="1.00" d=" M 8.39 25.17 C 14.64 24.07 20.83 25.68 26.84 27.22 C 345.59 100.72 664.35 174.19 983.10 247.70 C 992.16 249.65 999.82 257.20 1001.59 266.34 C 1002.34 271.19 1001.94 276.13 1002.00 281.02 C 1002.00 484.35 1002.00 687.69 1002.00 891.02 C 1002.02 896.88 1002.30 902.80 1001.16 908.60 C 998.33 913.61 993.02 917.38 987.04 916.65 C 978.01 915.24 969.19 912.71 960.27 910.76 C 793.71 872.35 627.15 833.94 460.59 795.56 C 460.79 794.95 461.21 793.72 461.41 793.11 C 633.26 832.64 805.08 872.32 976.91 911.92 C 982.05 912.98 987.64 915.26 992.73 912.81 C 997.26 910.84 999.60 905.77 999.34 901.01 C 999.29 814.15 999.41 727.28 999.28 640.43 C 998.62 640.25 997.29 639.90 996.63 639.73 C 997.20 639.55 998.34 639.20 998.90 639.02 L 999.38 638.90 C 999.28 628.06 999.34 617.23 999.35 606.40 C 998.66 606.24 997.30 605.92 996.62 605.76 C 997.19 605.57 998.32 605.20 998.89 605.01 L 999.38 604.87 C 999.23 593.97 999.43 583.07 999.29 572.16 L 998.13 571.84 C 998.43 571.57 999.03 571.03 999.33 570.75 C 999.29 559.89 999.41 549.02 999.28 538.16 L 998.22 537.86 C 998.50 537.58 999.06 537.03 999.33 536.75 C 999.28 525.97 999.43 515.18 999.27 504.40 C 998.59 504.22 997.23 503.87 996.55 503.69 C 997.12 503.52 998.27 503.19 998.84 503.03 L 999.38 502.90 C 999.27 492.28 999.37 481.66 999.33 471.05 C 998.04 470.73 996.76 470.42 995.49 470.13 C 996.03 469.97 997.11 469.64 997.65 469.48 C 998.07 469.53 998.92 469.63 999.35 469.69 C 999.32 459.05 999.33 448.41 999.34 437.77 C 999.33 437.31 999.33 436.85 999.34 436.40 C 999.33 425.52 999.32 414.65 999.34 403.78 C 999.33 403.31 999.33 402.86 999.34 402.40 C 999.28 391.32 999.42 380.24 999.28 369.15 L 998.23 368.85 C 998.50 368.58 999.06 368.02 999.33 367.75 C 999.34 357.42 999.30 347.09 999.36 336.77 C 999.35 335.88 999.34 334.99 999.35 334.11 C 999.31 319.33 999.34 304.54 999.33 289.76 C 820.01 248.40 640.67 207.07 461.35 165.71 C 460.45 165.51 459.56 165.31 458.67 165.11 C 306.67 130.08 154.67 95.02 2.67 59.97 C 2.66 263.64 2.68 467.31 2.66 670.97 C 2.31 680.43 9.72 689.29 18.95 691.06 C 165.54 724.83 312.13 758.67 458.73 792.43 C 458.81 793.12 458.98 794.50 459.07 795.19 C 312.08 761.32 165.10 727.42 18.13 693.53 C 8.86 691.41 1.83 683.23 0.00 674.06 L 0.00 36.88 C 0.63 31.73 4.21 27.88 8.39 25.17 M 2.70 39.06 C 2.59 45.14 2.71 51.23 2.67 57.31 C 334.89 133.91 667.11 210.50 999.33 287.10 C 999.29 281.09 999.40 275.07 999.30 269.06 C 999.15 262.83 995.50 257.05 990.50 253.51 C 986.14 250.32 980.59 249.93 975.53 248.60 C 658.40 175.48 341.26 102.37 24.13 29.24 C 19.82 28.37 15.36 26.58 10.95 27.95 C 6.06 29.21 2.69 34.09 2.70 39.06 Z" />
</g>
<g id="#edededff">
<path fill="#ededed" opacity="1.00" d=" M 2.70 39.06 C 2.69 34.09 6.06 29.21 10.95 27.95 C 15.36 26.58 19.82 28.37 24.13 29.24 C 341.26 102.37 658.40 175.48 975.53 248.60 C 980.59 249.93 986.14 250.32 990.50 253.51 C 995.50 257.05 999.15 262.83 999.30 269.06 C 999.40 275.07 999.29 281.09 999.33 287.10 C 667.11 210.50 334.89 133.91 2.67 57.31 C 2.71 51.23 2.59 45.14 2.70 39.06 M 18.29 38.36 C 16.32 39.48 15.25 41.78 15.33 44.00 C 15.47 49.06 19.88 53.75 24.98 53.95 C 27.55 54.11 30.12 52.45 30.94 49.99 C 33.23 43.10 25.06 34.96 18.29 38.36 M 43.31 43.42 C 38.55 45.05 38.40 51.51 41.19 54.97 C 43.76 59.12 50.64 61.51 54.08 57.13 C 58.41 50.62 50.56 41.11 43.31 43.42 M 66.35 49.46 C 61.95 52.05 62.95 58.52 66.20 61.66 C 69.04 65.19 75.59 66.53 78.34 62.21 C 82.20 55.36 73.45 45.84 66.35 49.46 M 439.23 138.39 C 439.79 138.77 440.36 139.15 440.94 139.53 C 442.13 135.29 447.99 137.80 447.26 141.60 C 444.66 141.96 440.72 140.05 439.13 142.93 C 437.72 147.31 443.31 150.34 446.90 148.31 C 447.76 149.68 449.01 150.35 450.66 150.32 C 450.23 149.72 449.37 148.52 448.93 147.92 C 448.79 144.80 449.26 141.60 448.58 138.54 C 446.64 135.43 440.65 134.07 439.23 138.39 M 461.05 135.16 C 461.00 137.12 460.98 139.08 461.00 141.04 C 459.40 139.59 457.30 138.09 455.03 138.93 C 448.98 142.53 453.68 155.20 460.93 151.51 C 461.43 151.96 462.44 152.85 462.94 153.30 C 463.00 147.52 463.11 141.72 462.92 135.94 C 462.45 135.75 461.51 135.36 461.05 135.16 M 466.58 141.37 C 467.16 144.38 471.31 143.48 473.53 144.51 C 470.97 147.55 467.82 150.13 465.81 153.61 C 469.33 154.62 472.91 155.41 476.50 156.16 L 476.20 154.65 C 473.83 153.77 471.31 153.40 468.87 152.81 C 471.46 149.81 474.47 147.15 476.62 143.79 C 473.33 142.74 469.96 141.99 466.58 141.37 M 494.05 143.30 C 492.81 144.29 494.20 146.95 495.69 145.93 C 496.97 144.92 495.53 142.38 494.05 143.30 M 482.11 145.18 C 476.31 148.28 479.52 158.89 486.06 158.55 C 487.78 158.65 488.87 157.11 490.14 156.22 C 489.07 154.97 489.33 153.46 490.21 152.17 C 490.07 148.12 486.39 144.06 482.11 145.18 M 493.83 162.81 L 491.99 163.37 C 490.95 165.99 496.14 165.61 495.73 163.24 C 495.80 158.22 495.89 153.19 495.67 148.18 C 495.24 148.14 494.38 148.06 493.96 148.02 C 493.74 152.95 494.02 157.88 493.83 162.81 M 502.70 156.22 C 504.43 157.46 508.57 158.12 507.10 161.09 C 504.36 162.55 501.51 160.22 500.99 157.50 C 500.54 157.47 499.63 157.40 499.18 157.37 C 499.94 159.27 500.54 161.57 502.67 162.38 C 504.75 163.47 508.34 163.83 509.21 161.02 C 510.04 158.30 507.58 156.46 505.39 155.61 C 503.87 154.71 500.82 153.85 501.91 151.45 C 504.06 150.37 506.47 151.91 507.39 153.91 C 507.81 154.03 508.66 154.25 509.08 154.37 C 508.48 150.86 504.29 148.35 501.03 149.98 C 498.49 151.74 500.17 155.44 502.70 156.22 M 521.93 154.85 C 517.43 158.43 519.94 167.61 525.94 167.85 C 528.42 168.25 531.22 164.85 528.77 163.11 C 527.66 164.65 526.38 167.28 524.09 165.83 C 521.11 163.81 520.56 157.67 524.00 155.95 C 527.45 155.24 527.15 160.08 530.11 160.35 C 529.95 156.44 525.68 152.93 521.93 154.85 M 535.35 157.45 C 529.57 160.33 532.52 170.86 538.95 170.87 C 542.60 171.28 543.93 167.01 543.50 164.10 C 543.41 160.12 539.37 156.38 535.35 157.45 M 547.24 159.59 C 547.20 163.85 547.02 168.12 547.29 172.37 C 547.74 172.57 548.64 172.95 549.09 173.15 C 549.18 170.12 548.86 167.05 549.35 164.05 C 549.60 161.53 553.75 161.71 554.10 164.09 C 554.42 167.42 554.18 170.77 554.23 174.11 C 554.90 174.27 555.57 174.43 556.26 174.59 C 556.31 171.44 555.99 168.26 556.52 165.14 C 557.15 163.11 560.03 163.63 561.00 165.08 C 561.63 168.56 561.02 172.13 561.36 175.64 C 561.84 175.82 562.81 176.19 563.29 176.38 C 563.19 172.59 563.79 168.69 562.85 164.99 C 561.77 162.25 558.43 161.84 555.99 162.82 C 554.24 161.12 551.87 159.97 549.53 161.38 C 548.87 160.65 548.11 160.05 547.24 159.59 M 513.19 163.11 C 512.33 164.59 514.81 166.21 515.79 164.79 C 516.62 163.33 514.16 161.75 513.19 163.11 Z" />
<path fill="#ededed" opacity="1.00" d=" M 21.34 89.05 C 78.52 101.88 135.55 115.37 192.68 128.41 C 269.32 146.06 345.96 163.75 422.60 181.41 C 427.61 182.74 432.77 183.51 437.70 185.13 C 437.80 233.35 437.75 281.57 437.73 329.79 C 420.97 326.37 404.36 322.19 387.67 318.41 C 279.32 293.50 170.99 268.48 62.66 243.48 C 48.89 240.13 34.97 237.41 21.28 233.75 C 21.26 185.52 21.15 137.28 21.34 89.05 Z" />
<path fill="#ededed" opacity="1.00" d=" M 455.33 141.25 C 457.29 139.14 460.51 141.49 460.88 143.85 C 461.31 146.10 461.60 149.68 458.97 150.68 C 454.37 150.93 453.26 144.34 455.33 141.25 Z" />
<path fill="#ededed" opacity="1.00" d=" M 441.30 143.29 C 443.20 142.81 445.19 143.11 447.13 143.14 C 446.82 144.40 447.33 146.15 446.01 146.93 C 443.69 148.50 439.66 146.17 441.30 143.29 Z" />
<path fill="#ededed" opacity="1.00" d=" M 480.88 149.49 C 481.41 148.82 482.48 147.50 483.01 146.83 C 486.06 145.78 487.89 149.03 488.25 151.56 C 485.73 151.08 483.20 150.59 480.88 149.49 Z" />
<path fill="#ededed" opacity="1.00" d=" M 484.48 156.75 C 482.06 156.28 481.60 153.67 481.11 151.68 C 483.62 152.09 486.13 153.11 488.72 152.75 C 487.76 154.41 487.12 157.86 484.48 156.75 Z" />
<path fill="#ededed" opacity="1.00" d=" M 536.11 159.15 C 541.40 157.64 543.15 166.01 539.91 168.98 C 534.58 170.59 532.49 161.85 536.11 159.15 Z" />
<path fill="#ededed" opacity="1.00" d=" M 461.32 210.03 C 461.36 195.26 461.31 180.49 461.35 165.71 C 640.67 207.07 820.01 248.40 999.33 289.76 C 999.34 304.54 999.31 319.33 999.35 334.11 C 820.02 292.72 640.66 251.43 461.32 210.03 Z" />
<path fill="#ededed" opacity="1.00" d=" M 37.26 311.33 C 49.10 304.90 62.47 301.13 75.99 301.28 C 87.66 301.65 99.22 304.87 109.43 310.52 C 125.33 319.44 137.42 333.58 152.83 343.21 C 163.90 349.82 177.37 353.38 190.14 350.30 C 201.84 347.72 211.41 339.73 223.00 336.80 C 234.78 333.34 247.56 336.24 258.06 342.11 C 272.43 350.21 281.73 364.63 295.72 373.24 C 306.15 379.86 319.87 381.35 331.26 376.30 C 340.63 372.12 349.72 366.57 360.11 365.37 C 373.14 363.78 386.01 368.42 397.23 374.68 C 410.03 382.12 421.22 392.03 431.29 402.81 C 432.87 403.91 432.47 407.12 430.06 406.16 C 425.81 402.74 422.34 398.46 418.26 394.85 C 407.12 385.01 394.87 375.67 380.38 371.47 C 373.50 369.44 366.14 368.32 359.04 369.82 C 345.97 372.24 335.36 381.81 322.02 383.25 C 309.94 384.71 297.69 380.14 288.32 372.64 C 276.75 363.62 267.83 351.22 254.58 344.40 C 245.71 340.16 235.37 338.10 225.70 340.63 C 214.12 343.39 204.55 351.24 192.99 354.04 C 180.60 357.65 167.19 354.79 155.92 349.05 C 136.68 339.46 123.54 321.05 104.00 311.95 C 88.55 304.50 70.20 303.62 53.96 309.00 C 44.01 312.11 34.89 317.39 26.33 323.26 C 24.49 324.80 23.08 322.47 22.39 321.02 C 26.70 316.90 32.00 314.03 37.26 311.33 Z" />
<path fill="#ededed" opacity="1.00" d=" M 62.02 358.85 C 79.73 355.60 98.63 359.37 113.61 369.40 C 126.95 377.77 137.62 389.66 150.79 398.25 C 162.46 405.63 176.98 410.24 190.70 406.51 C 203.03 403.51 213.21 395.02 225.67 392.49 C 236.58 390.37 248.13 392.72 257.66 398.31 C 267.48 403.75 275.34 411.94 283.22 419.79 C 292.08 428.36 303.27 435.61 316.01 435.76 C 331.40 436.33 343.19 424.23 357.94 422.01 C 366.44 420.38 375.21 421.92 383.33 424.60 C 401.78 431.44 417.26 444.27 430.70 458.34 C 432.17 459.53 432.24 461.38 432.03 463.14 C 427.99 461.85 425.71 457.97 422.67 455.28 C 411.13 444.41 398.39 434.15 383.30 428.71 C 374.31 425.58 364.35 424.40 355.11 427.12 C 344.65 430.04 335.78 437.10 325.03 439.16 C 313.40 441.57 301.28 437.91 291.60 431.39 C 282.51 425.34 275.78 416.56 267.33 409.75 C 257.38 400.53 243.74 394.38 229.99 396.13 C 216.47 397.89 205.73 407.39 192.63 410.56 C 176.59 414.67 159.51 409.10 146.41 399.65 C 132.57 390.33 121.54 377.10 106.44 369.60 C 91.35 361.42 73.02 359.64 56.59 364.55 C 45.70 367.48 35.87 373.20 26.55 379.39 C 24.45 380.97 23.15 378.80 22.49 377.00 C 34.06 368.11 47.61 361.50 62.02 358.85 Z" />
<path fill="#ededed" opacity="1.00" d=" M 24.85 432.88 C 38.52 422.64 54.89 415.47 72.07 414.39 C 88.85 413.43 105.78 418.89 119.21 428.92 C 130.32 436.69 139.74 446.60 151.02 454.13 C 161.29 460.83 173.48 465.42 185.92 464.22 C 200.56 463.04 212.02 452.39 226.13 449.32 C 237.78 446.49 250.15 449.70 260.31 455.66 C 269.43 460.86 276.28 468.98 284.11 475.82 C 293.21 485.22 305.48 492.84 319.01 492.30 C 332.91 492.24 343.75 481.94 356.93 479.12 C 368.42 476.32 380.48 479.15 391.06 483.90 C 403.18 489.31 413.78 497.55 423.44 506.55 C 427.40 510.27 432.35 513.62 434.09 519.03 C 430.31 520.02 428.22 516.28 425.83 514.13 C 414.90 502.72 402.28 492.63 387.64 486.43 C 376.70 482.10 364.09 480.25 352.91 484.86 C 341.51 489.52 330.55 497.24 317.68 496.45 C 304.64 496.17 292.78 489.28 283.63 480.38 C 275.24 473.11 268.02 464.36 258.34 458.70 C 249.26 453.63 238.41 450.96 228.11 453.30 C 215.53 456.08 205.20 464.70 192.62 467.48 C 178.64 470.83 163.93 466.49 151.98 459.09 C 136.89 449.83 125.21 435.92 109.74 427.23 C 98.39 420.64 85.03 417.73 71.97 418.70 C 57.21 419.69 43.20 425.75 31.07 434.00 C 29.50 435.00 27.97 436.16 26.16 436.69 C 24.46 436.37 23.24 434.03 24.85 432.88 Z" />
<path fill="#ededed" opacity="1.00" d=" M 24.16 486.29 C 76.35 498.26 128.51 510.38 180.70 522.38 C 180.81 570.58 180.77 618.80 180.72 667.00 C 177.98 666.76 175.29 666.22 172.63 665.54 C 123.15 653.91 73.52 642.87 24.08 631.07 C 23.88 602.37 24.06 573.67 24.00 544.96 C 24.10 525.41 23.79 505.84 24.16 486.29 Z" />
<path fill="#ededed" opacity="1.00" d=" M 231.95 554.97 C 249.37 546.14 270.35 543.82 288.94 550.30 C 304.99 555.44 317.46 567.31 330.17 577.83 C 340.94 586.96 353.49 595.16 367.91 596.46 C 380.64 598.21 392.42 591.92 403.37 586.34 C 412.71 581.47 423.51 579.35 433.94 581.26 C 434.04 582.49 434.08 583.72 434.06 584.96 C 428.70 584.88 423.24 584.32 417.98 585.63 C 405.35 588.66 394.90 597.41 382.07 599.89 C 366.48 603.18 350.35 597.35 337.73 588.30 C 323.82 578.60 312.45 565.31 296.98 557.90 C 282.17 550.09 264.33 548.72 248.33 553.41 C 236.87 556.48 226.49 562.50 216.78 569.18 C 215.80 568.28 214.89 567.31 214.03 566.32 C 219.19 561.40 225.66 558.19 231.95 554.97 Z" />
<path fill="#ededed" opacity="1.00" d=" M 216.95 620.03 C 230.80 610.45 246.98 603.44 264.01 602.91 C 280.30 602.23 296.49 607.87 309.58 617.43 C 322.52 626.75 333.51 638.76 347.63 646.40 C 359.07 652.68 373.15 655.22 385.66 650.70 C 396.69 647.18 406.20 639.81 417.69 637.60 C 422.95 636.47 428.36 636.81 433.67 637.46 C 433.95 638.86 434.17 640.28 434.02 641.73 C 426.32 640.26 418.30 641.03 411.09 644.15 C 400.82 648.55 391.16 654.91 379.92 656.64 C 365.79 658.72 351.45 653.97 339.82 646.07 C 325.67 636.84 314.50 623.61 299.61 615.45 C 284.25 606.97 265.51 604.54 248.64 609.61 C 237.73 612.57 227.80 618.18 218.48 624.44 C 216.89 626.04 213.97 624.61 214.31 622.40 C 215.07 621.48 216.00 620.73 216.95 620.03 Z" />
<path fill="#ededed" opacity="1.00" d=" M 259.02 660.06 C 277.77 657.68 297.13 663.39 312.01 674.95 C 325.20 684.41 336.28 696.86 351.01 704.09 C 360.98 708.81 372.53 711.30 383.41 708.46 C 395.90 705.34 406.23 696.52 419.03 694.28 C 423.98 693.32 429.07 693.26 434.04 694.16 C 434.12 695.39 434.14 696.63 434.12 697.88 C 429.07 697.78 423.91 697.38 418.96 698.65 C 406.88 701.66 396.78 709.75 384.65 712.60 C 372.30 715.68 359.15 712.65 348.05 706.87 C 332.34 698.58 320.68 684.71 305.86 675.14 C 295.06 667.80 282.05 663.65 268.97 663.74 C 253.46 663.49 238.35 669.13 225.44 677.44 C 222.80 679.16 220.22 681.04 217.22 682.12 C 216.64 681.08 216.08 680.05 215.54 679.01 C 228.00 669.03 243.15 662.12 259.02 660.06 Z" />
</g>
<g id="#161616ff">
<path fill="#161616" opacity="1.00" d=" M 18.29 38.36 C 25.06 34.96 33.23 43.10 30.94 49.99 C 30.12 52.45 27.55 54.11 24.98 53.95 C 19.88 53.75 15.47 49.06 15.33 44.00 C 15.25 41.78 16.32 39.48 18.29 38.36 M 20.15 39.15 C 16.07 40.33 15.84 45.83 18.16 48.75 C 20.28 52.20 25.98 54.30 28.89 50.68 C 32.59 45.34 26.18 37.40 20.15 39.15 Z" />
<path fill="#161616" opacity="1.00" d=" M 43.31 43.42 C 50.56 41.11 58.41 50.62 54.08 57.13 C 50.64 61.51 43.76 59.12 41.19 54.97 C 38.40 51.51 38.55 45.05 43.31 43.42 M 43.18 45.10 C 39.55 47.18 40.26 52.51 42.86 55.17 C 45.21 58.15 50.56 59.53 53.06 56.01 C 56.65 50.30 49.22 42.05 43.18 45.10 Z" />
<path fill="#161616" opacity="1.00" d=" M 458.67 165.11 C 459.56 165.31 460.45 165.51 461.35 165.71 C 461.31 180.49 461.36 195.26 461.32 210.03 C 640.66 251.43 820.02 292.72 999.35 334.11 C 999.34 334.99 999.35 335.88 999.36 336.77 C 820.01 295.43 640.68 254.05 461.34 212.74 C 461.33 223.07 461.34 233.39 461.33 243.72 C 640.67 285.06 819.99 326.43 999.33 367.75 C 999.06 368.02 998.50 368.58 998.23 368.85 C 819.27 327.56 640.29 286.32 461.33 245.06 C 461.35 256.17 461.31 267.28 461.35 278.40 C 640.68 319.71 820.00 361.12 999.34 402.40 C 999.33 402.86 999.33 403.31 999.34 403.78 C 820.03 362.41 640.70 321.11 461.38 279.72 C 461.28 290.61 461.35 301.50 461.35 312.39 C 640.68 353.70 820.00 395.10 999.34 436.40 C 999.33 436.85 999.33 437.31 999.34 437.77 C 820.00 396.43 640.67 355.05 461.33 313.74 C 461.34 324.40 461.34 335.06 461.33 345.72 C 626.91 383.89 792.49 422.07 958.07 460.24 C 971.26 463.34 984.50 466.20 997.65 469.48 C 997.11 469.64 996.03 469.97 995.49 470.13 C 817.40 429.26 639.39 388.06 461.33 347.05 C 461.34 357.71 461.34 368.37 461.33 379.03 C 640.49 420.41 819.69 461.60 998.84 503.03 C 998.27 503.19 997.12 503.52 996.55 503.69 C 937.90 490.39 879.33 476.70 820.72 463.25 C 700.92 435.63 581.14 408.00 461.34 380.39 C 461.32 391.17 461.35 401.94 461.33 412.72 C 640.66 454.06 819.99 495.42 999.33 536.75 C 999.06 537.03 998.50 537.58 998.22 537.86 C 819.27 496.55 640.29 455.33 461.33 414.05 C 461.33 424.94 461.34 435.83 461.32 446.72 C 640.66 488.06 819.99 529.42 999.33 570.75 C 999.03 571.03 998.43 571.57 998.13 571.84 C 819.20 530.56 640.26 489.33 461.33 448.07 C 461.34 459.05 461.33 470.04 461.33 481.03 C 640.51 522.39 819.72 563.61 998.89 605.01 C 998.32 605.20 997.19 605.57 996.62 605.76 C 818.17 564.75 639.77 523.50 461.34 482.41 C 461.32 493.28 461.34 504.15 461.33 515.03 C 640.52 556.39 819.73 597.61 998.90 639.02 C 998.34 639.20 997.20 639.55 996.63 639.73 C 818.16 598.79 639.78 557.48 461.34 516.40 C 461.37 608.64 461.24 700.87 461.41 793.11 C 461.21 793.72 460.79 794.95 460.59 795.56 C 460.21 795.47 459.45 795.28 459.07 795.19 C 458.98 794.50 458.81 793.12 458.73 792.43 C 458.58 583.32 458.70 374.21 458.67 165.11 Z" />
</g>
<g id="#75221bff">
<path fill="#75221b" opacity="1.00" d=" M 20.15 39.15 C 26.18 37.40 32.59 45.34 28.89 50.68 C 25.98 54.30 20.28 52.20 18.16 48.75 C 15.84 45.83 16.07 40.33 20.15 39.15 Z" />
</g>
<g id="#e5a200ff">
<path fill="#e5a200" opacity="1.00" d=" M 43.18 45.10 C 49.22 42.05 56.65 50.30 53.06 56.01 C 50.56 59.53 45.21 58.15 42.86 55.17 C 40.26 52.51 39.55 47.18 43.18 45.10 Z" />
</g>
<g id="#215210ff">
<path fill="#215210" opacity="1.00" d=" M 68.05 49.97 C 72.27 48.60 76.55 52.23 77.93 56.06 C 79.35 59.18 77.12 63.91 73.39 63.75 C 67.92 64.29 63.06 58.17 64.72 52.95 C 65.32 51.51 66.62 50.51 68.05 49.97 Z" />
</g>
<g id="#ffffffff">
<path fill="#ffffff" opacity="1.00" d=" M 2.67 59.97 C 154.67 95.02 306.67 130.08 458.67 165.11 C 458.70 374.21 458.58 583.32 458.73 792.43 C 312.13 758.67 165.54 724.83 18.95 691.06 C 9.72 689.29 2.31 680.43 2.66 670.97 C 2.68 467.31 2.66 263.64 2.67 59.97 M 21.34 89.05 C 21.15 137.28 21.26 185.52 21.28 233.75 C 34.97 237.41 48.89 240.13 62.66 243.48 C 170.99 268.48 279.32 293.50 387.67 318.41 C 404.36 322.19 420.97 326.37 437.73 329.79 C 437.75 281.57 437.80 233.35 437.70 185.13 C 432.77 183.51 427.61 182.74 422.60 181.41 C 345.96 163.75 269.32 146.06 192.68 128.41 C 135.55 115.37 78.52 101.88 21.34 89.05 M 37.26 311.33 C 32.00 314.03 26.70 316.90 22.39 321.02 C 23.08 322.47 24.49 324.80 26.33 323.26 C 34.89 317.39 44.01 312.11 53.96 309.00 C 70.20 303.62 88.55 304.50 104.00 311.95 C 123.54 321.05 136.68 339.46 155.92 349.05 C 167.19 354.79 180.60 357.65 192.99 354.04 C 204.55 351.24 214.12 343.39 225.70 340.63 C 235.37 338.10 245.71 340.16 254.58 344.40 C 267.83 351.22 276.75 363.62 288.32 372.64 C 297.69 380.14 309.94 384.71 322.02 383.25 C 335.36 381.81 345.97 372.24 359.04 369.82 C 366.14 368.32 373.50 369.44 380.38 371.47 C 394.87 375.67 407.12 385.01 418.26 394.85 C 422.34 398.46 425.81 402.74 430.06 406.16 C 432.47 407.12 432.87 403.91 431.29 402.81 C 421.22 392.03 410.03 382.12 397.23 374.68 C 386.01 368.42 373.14 363.78 360.11 365.37 C 349.72 366.57 340.63 372.12 331.26 376.30 C 319.87 381.35 306.15 379.86 295.72 373.24 C 281.73 364.63 272.43 350.21 258.06 342.11 C 247.56 336.24 234.78 333.34 223.00 336.80 C 211.41 339.73 201.84 347.72 190.14 350.30 C 177.37 353.38 163.90 349.82 152.83 343.21 C 137.42 333.58 125.33 319.44 109.43 310.52 C 99.22 304.87 87.66 301.65 75.99 301.28 C 62.47 301.13 49.10 304.90 37.26 311.33 M 62.02 358.85 C 47.61 361.50 34.06 368.11 22.49 377.00 C 23.15 378.80 24.45 380.97 26.55 379.39 C 35.87 373.20 45.70 367.48 56.59 364.55 C 73.02 359.64 91.35 361.42 106.44 369.60 C 121.54 377.10 132.57 390.33 146.41 399.65 C 159.51 409.10 176.59 414.67 192.63 410.56 C 205.73 407.39 216.47 397.89 229.99 396.13 C 243.74 394.38 257.38 400.53 267.33 409.75 C 275.78 416.56 282.51 425.34 291.60 431.39 C 301.28 437.91 313.40 441.57 325.03 439.16 C 335.78 437.10 344.65 430.04 355.11 427.12 C 364.35 424.40 374.31 425.58 383.30 428.71 C 398.39 434.15 411.13 444.41 422.67 455.28 C 425.71 457.97 427.99 461.85 432.03 463.14 C 432.24 461.38 432.17 459.53 430.70 458.34 C 417.26 444.27 401.78 431.44 383.33 424.60 C 375.21 421.92 366.44 420.38 357.94 422.01 C 343.19 424.23 331.40 436.33 316.01 435.76 C 303.27 435.61 292.08 428.36 283.22 419.79 C 275.34 411.94 267.48 403.75 257.66 398.31 C 248.13 392.72 236.58 390.37 225.67 392.49 C 213.21 395.02 203.03 403.51 190.70 406.51 C 176.98 410.24 162.46 405.63 150.79 398.25 C 137.62 389.66 126.95 377.77 113.61 369.40 C 98.63 359.37 79.73 355.60 62.02 358.85 M 24.85 432.88 C 23.24 434.03 24.46 436.37 26.16 436.69 C 27.97 436.16 29.50 435.00 31.07 434.00 C 43.20 425.75 57.21 419.69 71.97 418.70 C 85.03 417.73 98.39 420.64 109.74 427.23 C 125.21 435.92 136.89 449.83 151.98 459.09 C 163.93 466.49 178.64 470.83 192.62 467.48 C 205.20 464.70 215.53 456.08 228.11 453.30 C 238.41 450.96 249.26 453.63 258.34 458.70 C 268.02 464.36 275.24 473.11 283.63 480.38 C 292.78 489.28 304.64 496.17 317.68 496.45 C 330.55 497.24 341.51 489.52 352.91 484.86 C 364.09 480.25 376.70 482.10 387.64 486.43 C 402.28 492.63 414.90 502.72 425.83 514.13 C 428.22 516.28 430.31 520.02 434.09 519.03 C 432.35 513.62 427.40 510.27 423.44 506.55 C 413.78 497.55 403.18 489.31 391.06 483.90 C 380.48 479.15 368.42 476.32 356.93 479.12 C 343.75 481.94 332.91 492.24 319.01 492.30 C 305.48 492.84 293.21 485.22 284.11 475.82 C 276.28 468.98 269.43 460.86 260.31 455.66 C 250.15 449.70 237.78 446.49 226.13 449.32 C 212.02 452.39 200.56 463.04 185.92 464.22 C 173.48 465.42 161.29 460.83 151.02 454.13 C 139.74 446.60 130.32 436.69 119.21 428.92 C 105.78 418.89 88.85 413.43 72.07 414.39 C 54.89 415.47 38.52 422.64 24.85 432.88 M 24.16 486.29 C 23.79 505.84 24.10 525.41 24.00 544.96 C 24.06 573.67 23.88 602.37 24.08 631.07 C 73.52 642.87 123.15 653.91 172.63 665.54 C 175.29 666.22 177.98 666.76 180.72 667.00 C 180.77 618.80 180.81 570.58 180.70 522.38 C 128.51 510.38 76.35 498.26 24.16 486.29 M 231.95 554.97 C 225.66 558.19 219.19 561.40 214.03 566.32 C 214.89 567.31 215.80 568.28 216.78 569.18 C 226.49 562.50 236.87 556.48 248.33 553.41 C 264.33 548.72 282.17 550.09 296.98 557.90 C 312.45 565.31 323.82 578.60 337.73 588.30 C 350.35 597.35 366.48 603.18 382.07 599.89 C 394.90 597.41 405.35 588.66 417.98 585.63 C 423.24 584.32 428.70 584.88 434.06 584.96 C 434.08 583.72 434.04 582.49 433.94 581.26 C 423.51 579.35 412.71 581.47 403.37 586.34 C 392.42 591.92 380.64 598.21 367.91 596.46 C 353.49 595.16 340.94 586.96 330.17 577.83 C 317.46 567.31 304.99 555.44 288.94 550.30 C 270.35 543.82 249.37 546.14 231.95 554.97 M 216.95 620.03 C 216.00 620.73 215.07 621.48 214.31 622.40 C 213.97 624.61 216.89 626.04 218.48 624.44 C 227.80 618.18 237.73 612.57 248.64 609.61 C 265.51 604.54 284.25 606.97 299.61 615.45 C 314.50 623.61 325.67 636.84 339.82 646.07 C 351.45 653.97 365.79 658.72 379.92 656.64 C 391.16 654.91 400.82 648.55 411.09 644.15 C 418.30 641.03 426.32 640.26 434.02 641.73 C 434.17 640.28 433.95 638.86 433.67 637.46 C 428.36 636.81 422.95 636.47 417.69 637.60 C 406.20 639.81 396.69 647.18 385.66 650.70 C 373.15 655.22 359.07 652.68 347.63 646.40 C 333.51 638.76 322.52 626.75 309.58 617.43 C 296.49 607.87 280.30 602.23 264.01 602.91 C 246.98 603.44 230.80 610.45 216.95 620.03 M 259.02 660.06 C 243.15 662.12 228.00 669.03 215.54 679.01 C 216.08 680.05 216.64 681.08 217.22 682.12 C 220.22 681.04 222.80 679.16 225.44 677.44 C 238.35 669.13 253.46 663.49 268.97 663.74 C 282.05 663.65 295.06 667.80 305.86 675.14 C 320.68 684.71 332.34 698.58 348.05 706.87 C 359.15 712.65 372.30 715.68 384.65 712.60 C 396.78 709.75 406.88 701.66 418.96 698.65 C 423.91 697.38 429.07 697.78 434.12 697.88 C 434.14 696.63 434.12 695.39 434.04 694.16 C 429.07 693.26 423.98 693.32 419.03 694.28 C 406.23 696.52 395.90 705.34 383.41 708.46 C 372.53 711.30 360.98 708.81 351.01 704.09 C 336.28 696.86 325.20 684.41 312.01 674.95 C 297.13 663.39 277.77 657.68 259.02 660.06 Z" />
<path fill="#ffffff" opacity="1.00" d=" M 461.33 448.07 C 640.26 489.33 819.20 530.56 998.13 571.84 L 999.29 572.16 C 999.43 583.07 999.23 593.97 999.38 604.87 L 998.89 605.01 C 819.72 563.61 640.51 522.39 461.33 481.03 C 461.33 470.04 461.34 459.05 461.33 448.07 Z" />
<path fill="#ffffff" opacity="1.00" d=" M 461.33 515.03 C 461.34 504.15 461.32 493.28 461.34 482.41 C 639.77 523.50 818.17 564.75 996.62 605.76 C 997.30 605.92 998.66 606.24 999.35 606.40 C 999.34 617.23 999.28 628.06 999.38 638.90 L 998.90 639.02 C 819.73 597.61 640.52 556.39 461.33 515.03 Z" />
<path fill="#ffffff" opacity="1.00" d=" M 461.41 793.11 C 461.24 700.87 461.37 608.64 461.34 516.40 C 639.78 557.48 818.16 598.79 996.63 639.73 C 997.29 639.90 998.62 640.25 999.28 640.43 C 999.41 727.28 999.29 814.15 999.34 901.01 C 999.60 905.77 997.26 910.84 992.73 912.81 C 987.64 915.26 982.05 912.98 976.91 911.92 C 805.08 872.32 633.26 832.64 461.41 793.11 Z" />
</g>
<g id="#ff6491ff">
<path fill="#ff6491" opacity="1.00" d=" M 461.34 212.74 C 640.68 254.05 820.01 295.43 999.36 336.77 C 999.30 347.09 999.34 357.42 999.33 367.75 C 819.99 326.43 640.67 285.06 461.33 243.72 C 461.34 233.39 461.33 223.07 461.34 212.74 Z" />
<path fill="#ff6491" opacity="1.00" d=" M 461.33 245.06 C 640.29 286.32 819.27 327.56 998.23 368.85 L 999.28 369.15 C 999.42 380.24 999.28 391.32 999.34 402.40 C 820.00 361.12 640.68 319.71 461.35 278.40 C 461.31 267.28 461.35 256.17 461.33 245.06 Z" />
</g>
<g id="#fffccfff">
<path fill="#fffccf" opacity="1.00" d=" M 461.35 312.39 C 461.35 301.50 461.28 290.61 461.38 279.72 C 640.70 321.11 820.03 362.41 999.34 403.78 C 999.32 414.65 999.33 425.52 999.34 436.40 C 820.00 395.10 640.68 353.70 461.35 312.39 Z" />
</g>
<g id="#a9d8ffff">
<path fill="#a9d8ff" opacity="1.00" d=" M 461.33 313.74 C 640.67 355.05 820.00 396.43 999.34 437.77 C 999.33 448.41 999.32 459.05 999.35 469.69 C 998.92 469.63 998.07 469.53 997.65 469.48 C 984.50 466.20 971.26 463.34 958.07 460.24 C 792.49 422.07 626.91 383.89 461.33 345.72 C 461.34 335.06 461.34 324.40 461.33 313.74 Z" />
</g>
<g id="#ffd1d1ff">
<path fill="#ffd1d1" opacity="1.00" d=" M 461.33 347.05 C 639.39 388.06 817.40 429.26 995.49 470.13 C 996.76 470.42 998.04 470.73 999.33 471.05 C 999.37 481.66 999.27 492.28 999.38 502.90 L 998.84 503.03 C 819.69 461.60 640.49 420.41 461.33 379.03 C 461.34 368.37 461.34 357.71 461.33 347.05 Z" />
</g>
<g id="#c7f0c7ff">
<path fill="#c7f0c7" opacity="1.00" d=" M 461.33 412.72 C 461.35 401.94 461.32 391.17 461.34 380.39 C 581.14 408.00 700.92 435.63 820.72 463.25 C 879.33 476.70 937.90 490.39 996.55 503.69 C 997.23 503.87 998.59 504.22 999.27 504.40 C 999.43 515.18 999.28 525.97 999.33 536.75 C 819.99 495.42 640.66 454.06 461.33 412.72 Z" />
</g>
<g id="#d9dde1ff">
<path fill="#d9dde1" opacity="1.00" d=" M 461.33 414.05 C 640.29 455.33 819.27 496.55 998.22 537.86 L 999.28 538.16 C 999.41 549.02 999.29 559.89 999.33 570.75 C 819.99 529.42 640.66 488.06 461.32 446.72 C 461.34 435.83 461.33 424.94 461.33 414.05 Z" />
</g>
</svg>
