<svg xmlns="http://www.w3.org/2000/svg" viewBox="0 0 650 650">
  <path fill="#6c2820"
    d="M95.93 0h458.44c20.45 1.07 40.59 8.24 56.76 20.87C634.72 38.9 649.39 67.83 650 97.52v456.93c-1.09 20.18-8.07 40.07-20.43 56.11-17.67 23.5-46.1 38.23-75.45 39.44H96.77c-19.91-.74-39.61-7.36-55.67-19.2C16.48 613.09.95 583.71 0 553.4V96.66C.85 72.51 10.64 48.79 27.36 31.3 44.99 12.44 70.16 1.12 95.93 0m116.05 105.99c-8.61 8.4-17.05 17-25.12 25.93-13.71 14.75-25.87 30.84-37.73 47.08-7.9 9.54-14.47 20.1-22.48 29.57-1.82 1.96-3.91 3.85-6.49 4.73-5.07.75-10.19-.09-15.26-.5-1.74.01-3.91-.65-5.05 1.13-4.49 4.94-6.86 11.34-9.84 17.22-6.25 13.72-10.62 28.19-15.27 42.51-3.34 12.21-8.11 23.99-11.16 36.29 2.86 4.11 7.76 5.96 11.72 8.8 13.26 8.83 26.55 17.62 40.29 25.68 1.7.82 3.95 2.25 5.75.95 4.4-4.42 5.38-10.81 7.36-16.46 3.17-10.92 6.84-21.68 10.77-32.34 5.02-15.54 12.92-29.9 19.05-44.99 1.02-3.3 2.29-7 1.21-10.43-2.61-4.59-7.07-8.07-8.93-13.11-.39-4.04 2.53-7.4 4.51-10.66 3.47-5.85 10.12-8.33 15.95-11.12 3.72-1.54 7.02-3.93 10.86-5.2 4.8 4.19 8.31 9.59 12.83 14.06 4.36 3.3 10.32 2.33 15.24.98 4.34-1.06 7.57-4.27 10.94-6.99 7.64-5.95 14.51-12.8 21.62-19.36 9.46-10.23 19.68-19.87 27.61-31.4 1.13-1.57 2.36-3.86.88-5.62-8.35-11.97-16.31-24.22-24.98-35.96-1.86-2.73-5.18-3.66-7.91-5.22-6-2.93-11.8-6.33-18.04-8.74-2.99-.05-6.28.82-8.33 3.17m217.46-.32c-6.74 3.13-13.29 6.64-19.92 9.99-3.17 1.34-4.77 4.54-6.74 7.14-7.94 11.22-15.76 22.55-23.26 34.06 7.69 13.05 19.08 23.28 29.18 34.39 9.12 8.63 18.25 17.31 28.37 24.78 2.95 1.92 6.47 2.6 9.89 3.19 3.86.41 8.45.04 11.14-3.14 3.95-4.33 7.37-9.15 11.8-13.02 4.01 1.43 7.52 3.9 11.46 5.51 5.63 2.68 11.98 5.18 15.3 10.84 1.97 3.25 4.85 6.59 4.53 10.62-1.85 4.78-5.86 8.26-8.64 12.48-1.61 2.98-.36 6.47.37 9.53 3.12 8.57 7.31 16.69 11 25.02 5.05 10.71 8.69 21.99 12.72 33.1 3.81 10.43 6.43 21.26 10.27 31.67 1.46 2.53 3.21 7.33 6.97 5.74 4.88-2.07 9.2-5.24 13.69-8 12.26-7.25 23.79-15.63 35.89-23.14 1.86-1.38 4.89-2.62 4.45-5.46-.64-4.61-2.58-8.93-3.71-13.43-8.09-23.28-13.76-47.52-24.78-69.69-2.43-4.73-4.63-9.92-8.92-13.29-6.23.31-12.48 1.61-18.7.73-3.91-1.4-6.65-4.75-9.12-7.93-4.92-6.43-9.84-12.88-14.38-19.58-7.45-8.72-13.64-18.41-20.85-27.31-14.23-18.57-30.28-35.66-46.96-52.01-2.62-2.96-7.38-4.8-11.05-2.79m-197.4 126.09c-2.73 1.81-6 2.42-9.16 3.06 12.14 14.08 22.91 29.27 34.57 43.72 7.5 10.08 15.11 20.12 23.12 29.83 1.98 2.19 3.3 5.49 6.46 6.18.86 3.13 4.9 4.95 4.64 8.22a1398 1398 0 0 1-17.45 23.29c-16.39 21.28-32.21 43.01-49.79 63.34-6.78 7.58-13 15.65-19.55 23.43-7.26 7.75-13.87 16.1-21.52 23.49-8.64 8.69-19.02 15.58-26.68 25.25-2.26 2.99-4.99 5.66-6.86 8.93-2.75 4.99-.65 10.78.92 15.8 4.21 9.61 10.08 19.13 19.23 24.72 6.39 3.28 14.93 4.02 21.17.14 8.98-8.65 15.15-19.66 22.05-29.94 7.38-12.26 16.57-23.25 25.63-34.3 19.29-22.82 37.55-46.49 57.36-68.88.07-.52.2-1.57.27-2.09 3.42-1.02 4.94-4.73 7.35-7.1 7.47-8.43 14.52-17.21 22.18-25.47 3.17 3.75 6.78 7.12 9.78 11.02 4.46 5.77 9.7 10.88 14.21 16.62 1.7 1.78 2.91 4.42 5.55 4.93.07.53.23 1.59.31 2.12 12.12 13.64 23.51 27.91 35.19 41.92 12.32 15.69 25.62 30.58 37.77 46.41 10.67 14.35 18.66 30.7 30.96 43.82 3.63 3.79 9.35 3.48 14.17 3.38 10.26-1.2 17.48-9.76 22.59-18.02 3.75-6.23 6.91-13.13 7-20.53-.35-4.76-3.96-8.18-6.77-11.68-9.19-12.14-22.36-20.28-32.55-31.47-8.98-10.06-18.17-19.93-26.51-30.54-10.37-12.33-20.95-24.48-30.83-37.22-15.48-20.18-30.94-40.38-46.19-60.74-.9-.99-.52-2.51.44-3.3 1.57-1.66 2.79-3.6 3.87-5.6.48-.17 1.43-.51 1.9-.68 13.42-15.68 25.31-32.63 38.24-48.7 7.6-10.4 15.71-20.39 23.94-30.3-5.92-.54-10.88-3.83-15.1-7.78-15-11.97-28.25-25.91-41.11-40.1-9.11 12.14-18.4 24.15-27.97 35.94-6.61 8.92-13.74 17.59-18.89 27.47-1.22-2.74-2.9-5.24-4.54-7.75-13.03-19.35-28.65-36.77-42.29-55.68-14.55 16.1-29.73 31.77-47.11 44.84" />
  <path fill="#fff"
    d="M211.98 105.99c2.05-2.35 5.34-3.22 8.33-3.17 6.24 2.41 12.04 5.81 18.04 8.74 2.73 1.56 6.05 2.49 7.91 5.22 8.67 11.74 16.63 23.99 24.98 35.96 1.48 1.76.25 4.05-.88 5.62-7.93 11.53-18.15 21.17-27.61 31.4-7.11 6.56-13.98 13.41-21.62 19.36-3.37 2.72-6.6 5.93-10.94 6.99-4.92 1.35-10.88 2.32-15.24-.98-4.52-4.47-8.03-9.87-12.83-14.06-3.84 1.27-7.14 3.66-10.86 5.2-5.83 2.79-12.48 5.27-15.95 11.12-1.98 3.26-4.9 6.62-4.51 10.66 1.86 5.04 6.32 8.52 8.93 13.11 1.08 3.43-.19 7.13-1.21 10.43-6.13 15.09-14.03 29.45-19.05 44.99-3.93 10.66-7.6 21.42-10.77 32.34-1.98 5.65-2.96 12.04-7.36 16.46-1.8 1.3-4.05-.13-5.75-.95-13.74-8.06-27.03-16.85-40.29-25.68-3.96-2.84-8.86-4.69-11.72-8.8 3.05-12.3 7.82-24.08 11.16-36.29 4.65-14.32 9.02-28.79 15.27-42.51 2.98-5.88 5.35-12.28 9.84-17.22 1.14-1.78 3.31-1.12 5.05-1.13 5.07.41 10.19 1.25 15.26.5 2.58-.88 4.67-2.77 6.49-4.73 8.01-9.47 14.58-20.03 22.48-29.57 11.86-16.24 24.02-32.33 37.73-47.08 8.07-8.93 16.51-17.53 25.12-25.93m217.46-.32c3.67-2.01 8.43-.17 11.05 2.79 16.68 16.35 32.73 33.44 46.96 52.01 7.21 8.9 13.4 18.59 20.85 27.31 4.54 6.7 9.46 13.15 14.38 19.58 2.47 3.18 5.21 6.53 9.12 7.93 6.22.88 12.47-.42 18.7-.73 4.29 3.37 6.49 8.56 8.92 13.29 11.02 22.17 16.69 46.41 24.78 69.69 1.13 4.5 3.07 8.82 3.71 13.43.44 2.84-2.59 4.08-4.45 5.46-12.1 7.51-23.63 15.89-35.89 23.14-4.49 2.76-8.81 5.93-13.69 8-3.76 1.59-5.51-3.21-6.97-5.74-3.84-10.41-6.46-21.24-10.27-31.67-4.03-11.11-7.67-22.39-12.72-33.1-3.69-8.33-7.88-16.45-11-25.02-.73-3.06-1.98-6.55-.37-9.53 2.78-4.22 6.79-7.7 8.64-12.48.32-4.03-2.56-7.37-4.53-10.62-3.32-5.66-9.67-8.16-15.3-10.84-3.94-1.61-7.45-4.08-11.46-5.51-4.43 3.87-7.85 8.69-11.8 13.02-2.69 3.18-7.28 3.55-11.14 3.14-3.42-.59-6.94-1.27-9.89-3.19-10.12-7.47-19.25-16.15-28.37-24.78-10.1-11.11-21.49-21.34-29.18-34.39 7.5-11.51 15.32-22.84 23.26-34.06 1.97-2.6 3.57-5.8 6.74-7.14 6.63-3.35 13.18-6.86 19.92-9.99m-197.4 126.09c17.38-13.07 32.56-28.74 47.11-44.84 13.64 18.91 29.26 36.33 42.29 55.68 1.64 2.51 3.32 5.01 4.54 7.75 5.15-9.88 12.28-18.55 18.89-27.47 9.57-11.79 18.86-23.8 27.97-35.94 12.86 14.19 26.11 28.13 41.11 40.1 4.22 3.95 9.18 7.24 15.1 7.78-8.23 9.91-16.34 19.9-23.94 30.3-12.93 16.07-24.82 33.02-38.24 48.7-.47.17-1.42.51-1.9.68-1.08 2-2.3 3.94-3.87 5.6-.96.79-1.34 2.31-.44 3.3 15.25 20.36 30.71 40.56 46.19 60.74 9.88 12.74 20.46 24.89 30.83 37.22 8.34 10.61 17.53 20.48 26.51 30.54 10.19 11.19 23.36 19.33 32.55 31.47 2.81 3.5 6.42 6.92 6.77 11.68-.09 7.4-3.25 14.3-7 20.53-5.11 8.26-12.33 16.82-22.59 18.02-4.82.1-10.54.41-14.17-3.38-12.3-13.12-20.29-29.47-30.96-43.82-12.15-15.83-25.45-30.72-37.77-46.41-11.68-14.01-23.07-28.28-35.19-41.92-.08-.53-.24-1.59-.31-2.12-2.64-.51-3.85-3.15-5.55-4.93-4.51-5.74-9.75-10.85-14.21-16.62-3-3.9-6.61-7.27-9.78-11.02-7.66 8.26-14.71 17.04-22.18 25.47-2.41 2.37-3.93 6.08-7.35 7.1-.07.52-.2 1.57-.27 2.09-19.81 22.39-38.07 46.06-57.36 68.88-9.06 11.05-18.25 22.04-25.63 34.3-6.9 10.28-13.07 21.29-22.05 29.94-6.24 3.88-14.78 3.14-21.17-.14-9.15-5.59-15.02-15.11-19.23-24.72-1.57-5.02-3.67-10.81-.92-15.8 1.87-3.27 4.6-5.94 6.86-8.93 7.66-9.67 18.04-16.56 26.68-25.25 7.65-7.39 14.26-15.74 21.52-23.49 6.55-7.78 12.77-15.85 19.55-23.43 17.58-20.33 33.4-42.06 49.79-63.34 5.9-7.7 11.72-15.48 17.45-23.29.26-3.27-3.78-5.09-4.64-8.22-3.16-.69-4.48-3.99-6.46-6.18-8.01-9.71-15.62-19.75-23.12-29.83-11.66-14.45-22.43-29.64-34.57-43.72 3.16-.64 6.43-1.25 9.16-3.06" />
</svg>