<svg xmlns="http://www.w3.org/2000/svg" viewBox="0 0 1079 65"><g fill="#fff"><path d="M0 0h1079v65H0zm23.39 15.61c-3.87.82-6.9 4.42-6.99 8.38-.17 6.01-.19 12.03.03 18.04.16 4.88 4.62 8.9 9.49 8.63 66.72.2 133.45.51 200.18.38 4.93.15 9.67-3.93 9.86-8.93.24-6.05.27-12.13.01-18.17-.18-5.51-5.66-9.47-10.95-9.03-62.68.01-125.36.14-188.04.4-4.53.1-9.1-.4-13.59.3m248.57 6.17c0 7.08 0 14.16.01 21.23.7 0 2.1-.01 2.8-.02.08-3.66-.31-7.37.41-10.97.54-2.37 4.55-3.11 5.39-.63.82 3.8.26 7.75.4 11.62.71 0 2.11-.01 2.82-.02-.25-4.58.77-9.45-.94-13.81-1.81-2.99-5.69-1.7-8.12-.35.03-2.32.05-4.65.07-6.98-.95-.02-1.9-.04-2.84-.07M586.6 23.9c1.46.07 2.93.11 4.4.15.21 5.26-.49 10.61.38 15.82.84 3.48 4.93 3.21 7.72 3.24 0-.58.01-1.73.01-2.31-1.61-.27-3.43-.01-4.79-1.07-1.04-5.94-.21-12.03-.49-18.04-2.42.55-6.95-1.55-7.23 2.21m32.96-.01c1.47.07 2.95.12 4.44.16.22 5.27-.5 10.63.39 15.84.84 3.46 4.92 3.18 7.71 3.22 0-.58.01-1.73.01-2.31-1.61-.27-3.42-.01-4.77-1.06-1.08-5.93-.21-12.04-.52-18.05-2.49.49-6.8-1.49-7.26 2.2m174.48-2.08c0 2.28 0 4.55.04 6.83-2.5-1.48-6.04-2.02-8.04.55-2.39 3.43-2.38 8.43-.23 11.97 1.67 2.68 5.15 2.35 7.71 1.34 1.13.26 2.27.51 3.42.74.09-7.14.02-14.28.04-21.41-.99-.01-1.97-.01-2.94-.02m-500.09.05c0 .83-.01 2.51-.02 3.35.91.05 1.81.11 2.72.16l.15-3.48c-.71-.01-2.14-.03-2.85-.03m49.7 3.41h2.98c.15-2.08-.39-3.77-2.83-3.83-.07 1.27-.11 2.55-.15 3.83m99.3-3.41c0 .86-.01 2.58-.01 3.44.94-.03 1.89-.05 2.83-.07l-.04-3.35c-.7-.01-2.09-.02-2.78-.02m34.18.21c-2.46.71-2.39 3.56-2.96 5.59-1.19-.01-2.38-.02-3.56-.02-.08.51-.26 1.55-.34 2.07 1.4.15 2.82.29 4.24.43-.06 4.28-.04 8.57-.03 12.86h2.77V30.02c1.77-.07 3.54-.13 5.32-.21l-.28-2.12c-1.84-.04-3.67-.1-5.49-.19.44-1.04.77-2.15 1.43-3.09 1.51-.22 3.03-.39 4.55-.52-.1-3.18-3.56-2.02-5.65-1.82m43.69-.36c.01.57.02 1.72.03 2.29 1.3 0 2.62.01 3.94.01.13 5.28-.36 10.59.29 15.84.89 3.53 4.99 3.21 7.83 3.25.01-.57.03-1.7.03-2.27-1.77-.43-5.07.24-5.17-2.37-.5-5.56-.06-11.16-.2-16.74-2.26-.01-4.51-.01-6.75-.01m171.3.23q-1.065 1.05-2.1 2.1c-.13 1.21-.26 2.41-.37 3.62h-3.97c.03.75.07 1.51.12 2.26 1.3.02 2.62.03 3.94.06q-.015 6.51 0 13.02h2.77c0-4.31.01-8.62-.03-12.92 1.76-.1 3.52-.19 5.3-.28-.04-.53-.12-1.58-.15-2.11-1.85-.04-3.72-.1-5.55-.19.31-.76.92-2.28 1.22-3.04 1.57-.25 3.16-.44 4.76-.58-.18-3.31-3.78-1.73-5.94-1.94m180.57.73c-.03 4.42-.06 8.85.24 13.26.63 0 1.89-.02 2.52-.02.36-4.42.31-8.85.27-13.28-1.02.01-2.03.02-3.03.04m-619.16 2.56c2.08 0 4.15-.01 6.23-.01.03 5.93 0 11.86.03 17.79.76-.01 2.29-.01 3.05-.02.02-5.91-.02-11.82.03-17.73 2.39-.44 6.85 1.43 6.54-2.58-5.32-.07-10.64-.03-15.96-.03.03.86.05 1.72.08 2.58m518.95-2.61c-2.11 6.8-4.22 13.61-6.23 20.45.82-.03 2.47-.1 3.29-.13.44-1.72.9-3.44 1.38-5.15 2.23.01 4.48.02 6.73.06.46 1.72.94 3.43 1.42 5.15h3.23c-2.02-6.8-4.14-13.56-6.2-20.34zm64.06.11c.03 3.41 3.36 2.37 5.63 2.58-.21 4.75.6 9.66-.59 14.31-2.2 2.61-5.71.26-8.04-.88l.04 3.64c3.43 1.12 7.16 1.32 10.48-.31 2.1-6.26.84-12.97 1.17-19.43-2.91-.01-5.8-.01-8.69.09m16.87.59c-3.65 1.89-3.73 8.39.41 9.75 2.64 1.23 7.16 1.03 7.19 4.96-1.61 4.43-6.99 2.5-10.04.92 0 .84-.01 2.53-.01 3.37 3.14.82 6.59 1.62 9.74.36 3.73-1.48 4.27-7.18 1.41-9.73-2.33-1.69-5.4-1.76-7.84-3.22-.58-1.26-.88-3.1.5-3.98 2.39-1.79 5.5-.27 7.98.56-.02-1.05-.02-2.09-.01-3.14-3.04-.67-6.47-1.58-9.33.15m-546.19 4.82c-2.29 1.27-2.54 4.68-1.04 6.65 2.31 1.93 6.46 1.07 7.72 4.25-2.1 3.07-5.96 1.49-8.78.57.04 1.01.09 2.02.14 3.04 2.98.47 6.34 1.37 9.14-.23 2.99-1.58 2.85-7.13-.72-7.84-1.88-.84-6.72-.89-5.23-4.05 2.28-1.56 4.99-.28 7.4.23-.05-.7-.13-2.1-.18-2.8-2.77-.5-5.82-1.22-8.45.18m48.1 5.59c1.48 3.42 7.01 1.64 8.25 5.24-1.94 3.25-5.97 1.5-8.73.63.08.79.26 2.38.35 3.17 2.8.33 5.8 1.09 8.5-.1 2.92-1.12 3.45-5.61 1.09-7.52-2.49-1.53-7.31-.79-6.96-4.87 2.7-.75 5.43-.17 8.12.36.02-3.71-4.22-3.48-6.85-3.2-3.01.12-5.12 3.58-3.77 6.29m351.88-3.89c.1-.53.31-1.61.41-2.15-.72-.01-2.17-.04-2.89-.05-.01 5.15-.02 10.31 0 15.47.71-.06 2.12-.17 2.82-.22.16-3.75-.76-7.87 1.07-11.32 1.74-2.42 4.85-1.38 7.22-.75-.06-.74-.17-2.21-.23-2.95-3.04-1.04-6.26-.54-8.4 1.97m27.09-2.17c-.01 5.11-.01 10.21 0 15.32.66.01 1.97.02 2.62.02 0-4.44-.14-8.91.4-13.34.58.2 1.75.59 2.34.79.69 4.15.2 8.4.35 12.59.66-.03 1.99-.07 2.66-.1.07-4.3-.43-8.68.52-12.92.49-.04 1.47-.11 1.97-.15 1.3 4.23.46 8.76.69 13.12h2.54c-.03-3.99.19-8-.19-11.98-.11-1.41-.57-3.21-2.18-3.55-3.9.3-7.81.14-11.72.2m67.89-.05-.12 2.29c2.67.07 5.35.08 8.03.09-2.79 4.34-7.73 7.63-8.57 12.98 3.94.05 7.89 0 11.84.02 0-.58-.01-1.75-.02-2.33-2.78 0-5.55.01-8.32.02 2.9-4.32 7.53-7.72 8.75-12.98-3.86-.13-7.73-.08-11.59-.09m-512.62.16c.08 2.64 2.52 2.24 4.44 2.39-.08 3.53-.06 7.06-.06 10.59l-4.94.03V43c4.34-.04 8.69.1 13.03-.1-.19-2.94-3.25-1.96-5.28-2.24-.01-4.32 0-8.64-.01-12.95-2.4-.01-4.79 0-7.18.07m50.28-.07c.01.57.02 1.71.03 2.29 1.27 0 2.55.01 3.84.02-.02 3.58-.02 7.16-.02 10.74-1.64 0-3.27.01-4.89.02 0 .56.01 1.67.01 2.22 4.31-.03 8.63.07 12.94-.06-.12-3.01-3.24-2-5.28-2.28.01-4.31 0-8.63 0-12.95zm48.23.35c-.03.76-.1 2.27-.14 3.03 3.15-1.23 8.12-2.68 9.27 1.83-2.69.37-5.59.03-8.09 1.25-3.11 1.73-3 7 .16 8.62 2.37 1.09 5.14.46 7.14-1.1.69 1.16 1.97 1.36 3.18 1.63-.17-4.41.68-9.02-.62-13.3-2.36-3.64-7.31-2.73-10.9-1.96m16.48-.76c-.17 5.23-.06 10.46-.08 15.7h2.76c.19-3.72-.54-7.6.59-11.2.64-2.03 3.07-2.36 4.75-1.41 1.67 3.92.65 8.36.85 12.5.71.06 2.12.16 2.82.21-.22-4.48.66-9.19-.7-13.52-1.45-3.22-5.44-2.29-7.94-1.04-1.01-.43-2.03-.84-3.05-1.24m34.01.48c.07 2.64 2.52 2.24 4.44 2.39-.08 3.53-.06 7.06-.07 10.6-1.65 0-3.29.01-4.93.02V43c4.09-.05 8.18.11 12.26-.04.2-.52.59-1.57.79-2.09-1.78-.07-3.54-.12-5.3-.16-.01-4.33 0-8.67-.01-13-2.4-.01-4.79 0-7.18.07m15.4-.39c0 5.21-.01 10.42.01 15.62.7 0 2.1-.01 2.8-.02.08-3.63-.31-7.31.39-10.9.46-2.41 4.54-3.21 5.4-.73.84 3.81.27 7.78.41 11.65.71-.01 2.11-.01 2.82-.02-.16-4.39.54-8.92-.65-13.21-1.25-3.32-5.37-2.64-7.85-1.25a22 22 0 0 0-3.33-1.14m35.47.85c-3.4 2.27-3.27 7.11-2.51 10.67 1.04 5.18 9.14 6.05 11.55 1.56 1.45-2.82 1.36-6.27.48-9.26-1.16-3.88-6.33-4.85-9.52-2.97m47.01 3.3c-1.24 3.55-.94 8.36 2.47 10.63 2.9 1.91 6.58.98 9.74.33.07-1.01.15-2.01.23-3.01-2.59.71-5.59 2.34-8.13.69-1.69-.94-1.65-3.07-2.08-4.71 3.67-.04 7.34.01 11.02-.07-.45-2.08-.52-4.41-1.98-6.09-3.13-3.48-9.71-2.2-11.27 2.23m15.66-4.14c1.59 5.24 3.64 10.33 5.33 15.54l3.58.12c1.85-5.21 3.78-10.39 5.47-15.65-.71.11-2.14.34-2.86.45-1.85 3.8-2.87 7.93-4.3 11.89-1.56-3.91-2.55-8.03-4.33-11.85-.73-.12-2.17-.38-2.89-.5m19.83 14.59c2.28 1.71 5.43 1.49 8.08.93 2.08.13 1.94-2.02 2.37-3.46-2.57.6-5.32 2.19-7.95.99-2-.79-2.09-3.2-2.66-4.96 3.73-.06 7.47-.01 11.21-.11-.19-3.86-2.34-8.48-6.9-8.07-7.4-.21-9.46 10.72-4.15 14.68m66.48-13.73c-2.33 1.35-2.85 4.31-2.93 6.77-.11 2.97.71 6.56 3.73 7.85 2.66.79 6.18.71 7.9-1.84 1.88-2.87 1.75-6.67.83-9.86-1.18-3.87-6.35-4.82-9.53-2.92m14.99 1.11c-2.35 3.66-2.39 9.33.81 12.51 2.33 2.11 5.56.95 7.9-.47-.5 1.42-.9 2.88-1.55 4.25-2.21 1.85-5.11.12-7.54-.11-.23 3.83 4.25 3.59 6.87 3.12 2.71-.4 4.38-3.1 4.38-5.7.29-5.17.08-10.36.07-15.54-.99.31-1.98.63-2.95.96-2.59-1.25-6.11-1.66-7.99.98m67.92-1.23c-3.72 2.51-3.67 8-2.25 11.8 1.28 3.41 5.59 3.98 8.65 2.89 4.1-2.11 4.08-7.65 3.03-11.51-1.13-3.89-6.17-4.93-9.43-3.18m98.69 13.75c2.25 1.75 5.39 1.64 8.06 1.07 2.01-.04 2.31-1.83 2.51-3.46-2.62.57-5.49 2.24-8.11.84-1.83-.84-1.85-3.16-2.49-4.8 3.77-.13 7.54-.07 11.31-.14-.2-3.94-2.56-8.65-7.21-8.07-7.19.02-9 10.53-4.07 14.56m52.27-2.62c-.03 1.24-.05 2.48-.05 3.72 1.28.01 2.57.02 3.88.02-.02-1.25-.02-2.51-.01-3.77z"/><path d="M771.74 35.22c.79-3.1 1.66-6.18 2.57-9.26.82 3.11 1.68 6.2 2.55 9.3-1.72 0-3.43-.02-5.12-.04m-233.16-2.1c1.12-1.47 2.22-3.56 4.4-3.3 2.04-.18 2.87 1.93 3.96 3.24-2.79.14-5.58.14-8.36.06m33.19-.06c1.25-1.47 2.51-3.69 4.81-3.22 1.9 0 2.56 2.03 3.58 3.27-2.8.09-5.6.08-8.39-.05m248.24-.27c1.28-1.23 2.47-3.21 4.53-2.98 2.05-.18 2.88 1.98 3.95 3.3-2.83.12-5.68.11-8.48-.32m-328.68-2.62c4.87-1.97 6.29 4.75 4.88 8.1-.44 2.66-4.22 3.61-5.74 1.35-1.54-2.87-1.66-7.09.86-9.45m148.99.01c7.23-2.87 7.21 13.1.11 10.32-2.82-2.45-2.76-7.75-.11-10.32m16.01.28c4.51-2.75 6.29 4.31 4.84 7.5-.24 2.68-3.97 3.68-5.4 1.38-1.43-2.62-1.64-6.61.56-8.88m66.93-.39c4.71-1.64 5.92 4.6 4.8 7.89-.24 2.77-4.19 4.08-5.8 1.68-1.69-2.87-1.72-7.31 1-9.57m65.94.01c4.3-1.54 5.43 4 4.73 7.06.1 2.87-3.79 5.34-5.68 2.51-1.57-2.9-1.67-7.24.95-9.57m-398.75 6.34c1.99-1.21 4.41-.91 6.64-1.03-.48 2.49-1.68 6.17-4.95 5.43-2.27-.12-3.1-2.76-1.69-4.4"/></g><g fill="#c5e1fe"><path d="M23.39 15.61c4.49-.7 9.06-.2 13.59-.3 62.68-.26 125.36-.39 188.04-.4 5.29-.44 10.77 3.52 10.95 9.03.26 6.04.23 12.12-.01 18.17-.19 5-4.93 9.08-9.86 8.93-66.73.13-133.46-.18-200.18-.38-4.87.27-9.33-3.75-9.49-8.63-.22-6.01-.2-12.03-.03-18.04.09-3.96 3.12-7.56 6.99-8.38m56.15 4.98c-2.07 1.08-1.84 3.88-2.39 5.83l-4.01-.15c.02.6.04 1.8.06 2.4 1.41-.05 2.82-.1 4.23-.16-.03 4.78.02 9.55-.06 14.32.73-.01 2.2-.05 2.94-.06-.04-4.75-.05-9.5.01-14.25 1.83.04 3.65.09 5.48.14.01-.58.04-1.75.06-2.34-1.91.02-3.81.04-5.71.04.16-1.27.33-2.53.5-3.79 1.7-.09 3.4-.17 5.11-.24l.16-2.23c-2.12.14-4.31-.07-6.38.49m-42.94.65c.16 2.89 2.86 2.25 4.89 2.39-.04 5.58-.03 11.17-.01 16.76-1.44-.07-2.87-.14-4.3-.2l-.08 2.64c3.93-.07 7.87-.07 11.8 0-.02-.66-.07-1.98-.09-2.65l-4.26.21c.03-5.65.02-11.3.01-16.96l4.11.21c.08-.61.24-1.83.33-2.45-4.14.05-8.27.01-12.4.05m21.57 6.24c-.96-.73-3.86-2.36-3.37.26-.15 5.01.02 10.02-.06 15.02.73.02 2.2.07 2.93.09.03-3.9-.42-7.87.32-11.73.58-2.55 3.37-2.59 5.46-2.78 1.8 4.61 1.05 9.62 1.1 14.44.99.01 1.97.02 2.96.04-.54-5.58 1.55-12.15-2.62-16.74-2.31.07-4.65.26-6.72 1.4m32.79 2.6c-1.08 3.54-1.16 7.83 1.04 10.97 2.04 2.77 5.9 1.44 8.82 1.77 3.77-3.26 4.42-8.87 2.51-13.3-2.15-4.9-10.65-4.56-12.37.56"/><path d="M93.8 30.8c.8-2.42 3.43-2.2 5.49-2.45 2.1 3.15 3.04 7.52.96 10.91-.82 1.73-3.08 1.7-4.65 1.2-3.07-2.11-2.54-6.5-1.8-9.66"/></g><path fill="#2a2e32" d="M79.54 20.59c2.07-.56 4.26-.35 6.38-.49l-.16 2.23c-1.71.07-3.41.15-5.11.24-.17 1.26-.34 2.52-.5 3.79 1.9 0 3.8-.02 5.71-.04-.02.59-.05 1.76-.06 2.34-1.83-.05-3.65-.1-5.48-.14-.06 4.75-.05 9.5-.01 14.25-.74.01-2.21.05-2.94.06.08-4.77.03-9.54.06-14.32-1.41.06-2.82.11-4.23.16-.02-.6-.04-1.8-.06-2.4l4.01.15c.55-1.95.32-4.75 2.39-5.83m-42.94.65c4.13-.04 8.26 0 12.4-.05-.09.62-.25 1.84-.33 2.45l-4.11-.21c.01 5.66.02 11.31-.01 16.96l4.26-.21c.02.67.07 1.99.09 2.65-3.93-.07-7.87-.07-11.8 0l.08-2.64c1.43.06 2.86.13 4.3.2-.02-5.59-.03-11.18.01-16.76-2.03-.14-4.73.5-4.89-2.39m235.36.54c.94.03 1.89.05 2.84.07-.02 2.33-.04 4.66-.07 6.98 2.43-1.35 6.31-2.64 8.12.35 1.71 4.36.69 9.23.94 13.81-.71.01-2.11.02-2.82.02-.14-3.87.42-7.82-.4-11.62-.84-2.48-4.85-1.74-5.39.63-.72 3.6-.33 7.31-.41 10.97-.7.01-2.1.02-2.8.02-.01-7.07-.01-14.15-.01-21.23M586.6 23.9c.28-3.76 4.81-1.66 7.23-2.21.28 6.01-.55 12.1.49 18.04 1.36 1.06 3.18.8 4.79 1.07 0 .58-.01 1.73-.01 2.31-2.79-.03-6.88.24-7.72-3.24-.87-5.21-.17-10.56-.38-15.82-1.47-.04-2.94-.08-4.4-.15m32.96-.01c.46-3.69 4.77-1.71 7.26-2.2.31 6.01-.56 12.12.52 18.05 1.35 1.05 3.16.79 4.77 1.06 0 .58-.01 1.73-.01 2.31-2.79-.04-6.87.24-7.71-3.22-.89-5.21-.17-10.57-.39-15.84-1.49-.04-2.97-.09-4.44-.16m174.48-2.08c.97.01 1.95.01 2.94.02-.02 7.13.05 14.27-.04 21.41-1.15-.23-2.29-.48-3.42-.74-2.56 1.01-6.04 1.34-7.71-1.34-2.15-3.54-2.16-8.54.23-11.97 2-2.57 5.54-2.03 8.04-.55-.04-2.28-.04-4.55-.04-6.83m-4.84 8.27c-2.62 2.33-2.52 6.67-.95 9.57 1.89 2.83 5.78.36 5.68-2.51.7-3.06-.43-8.6-4.73-7.06m-495.25-8.22c.71 0 2.14.02 2.85.03l-.15 3.48c-.91-.05-1.81-.11-2.72-.16.01-.84.02-2.52.02-3.35m49.7 3.41c.04-1.28.08-2.56.15-3.83 2.44.06 2.98 1.75 2.83 3.83zm99.3-3.41c.69 0 2.08.01 2.78.02l.04 3.35c-.94.02-1.89.04-2.83.07 0-.86.01-2.58.01-3.44m34.18.21c2.09-.2 5.55-1.36 5.65 1.82-1.52.13-3.04.3-4.55.52-.66.94-.99 2.05-1.43 3.09 1.82.09 3.65.15 5.49.19l.28 2.12c-1.78.08-3.55.14-5.32.21V43h-2.77c-.01-4.29-.03-8.58.03-12.86-1.42-.14-2.84-.28-4.24-.43.08-.52.26-1.56.34-2.07 1.18 0 2.37.01 3.56.02.57-2.03.5-4.88 2.96-5.59m43.69-.36c2.24 0 4.49 0 6.75.01.14 5.58-.3 11.18.2 16.74.1 2.61 3.4 1.94 5.17 2.37 0 .57-.02 1.7-.03 2.27-2.84-.04-6.94.28-7.83-3.25-.65-5.25-.16-10.56-.29-15.84-1.32 0-2.64-.01-3.94-.01-.01-.57-.02-1.72-.03-2.29m171.3.23c2.16.21 5.76-1.37 5.94 1.94-1.6.14-3.19.33-4.76.58-.3.76-.91 2.28-1.22 3.04 1.83.09 3.7.15 5.55.19.03.53.11 1.58.15 2.11-1.78.09-3.54.18-5.3.28.04 4.3.03 8.61.03 12.92h-2.77q-.015-6.51 0-13.02c-1.32-.03-2.64-.04-3.94-.06-.05-.75-.09-1.51-.12-2.26h3.97c.11-1.21.24-2.41.37-3.62q1.035-1.05 2.1-2.1m180.57.73c1-.02 2.01-.03 3.03-.04.04 4.43.09 8.86-.27 13.28-.63 0-1.89.02-2.52.02-.3-4.41-.27-8.84-.24-13.26m-619.16 2.56c-.03-.86-.05-1.72-.08-2.58 5.32 0 10.64-.04 15.96.03.31 4.01-4.15 2.14-6.54 2.58-.05 5.91-.01 11.82-.03 17.73-.76.01-2.29.01-3.05.02-.03-5.93 0-11.86-.03-17.79-2.08 0-4.15.01-6.23.01m518.95-2.61 3.62.04c2.06 6.78 4.18 13.54 6.2 20.34h-3.23c-.48-1.72-.96-3.43-1.42-5.15-2.25-.04-4.5-.05-6.73-.06-.48 1.71-.94 3.43-1.38 5.15-.82.03-2.47.1-3.29.13 2.01-6.84 4.12-13.65 6.23-20.45m-.74 12.6c1.69.02 3.4.04 5.12.04-.87-3.1-1.73-6.19-2.55-9.3-.91 3.08-1.78 6.16-2.57 9.26m64.8-12.49c2.89-.1 5.78-.1 8.69-.09-.33 6.46.93 13.17-1.17 19.43-3.32 1.63-7.05 1.43-10.48.31l-.04-3.64c2.33 1.14 5.84 3.49 8.04.88 1.19-4.65.38-9.56.59-14.31-2.27-.21-5.6.83-5.63-2.58m16.87.59c2.86-1.73 6.29-.82 9.33-.15-.01 1.05-.01 2.09.01 3.14-2.48-.83-5.59-2.35-7.98-.56-1.38.88-1.08 2.72-.5 3.98 2.44 1.46 5.51 1.53 7.84 3.22 2.86 2.55 2.32 8.25-1.41 9.73-3.15 1.26-6.6.46-9.74-.36 0-.84.01-2.53.01-3.37 3.05 1.58 8.43 3.51 10.04-.92-.03-3.93-4.55-3.73-7.19-4.96-4.14-1.36-4.06-7.86-.41-9.75M58.17 27.48c2.07-1.14 4.41-1.33 6.72-1.4 4.17 4.59 2.08 11.16 2.62 16.74-.99-.02-1.97-.03-2.96-.04-.05-4.82.7-9.83-1.1-14.44-2.09.19-4.88.23-5.46 2.78-.74 3.86-.29 7.83-.32 11.73-.73-.02-2.2-.07-2.93-.09.08-5-.09-10.01.06-15.02-.49-2.62 2.41-.99 3.37-.26m32.79 2.6c1.72-5.12 10.22-5.46 12.37-.56 1.91 4.43 1.26 10.04-2.51 13.3-2.92-.33-6.78 1-8.82-1.77-2.2-3.14-2.12-7.43-1.04-10.97m2.84.72c-.74 3.16-1.27 7.55 1.8 9.66 1.57.5 3.83.53 4.65-1.2 2.08-3.39 1.14-7.76-.96-10.91-2.06.25-4.69.03-5.49 2.45m213.42-2.66c2.63-1.4 5.68-.68 8.45-.18.05.7.13 2.1.18 2.8-2.41-.51-5.12-1.79-7.4-.23-1.49 3.16 3.35 3.21 5.23 4.05 3.57.71 3.71 6.26.72 7.84-2.8 1.6-6.16.7-9.14.23-.05-1.02-.1-2.03-.14-3.04 2.82.92 6.68 2.5 8.78-.57-1.26-3.18-5.41-2.32-7.72-4.25-1.5-1.97-1.25-5.38 1.04-6.65m48.1 5.59c-1.35-2.71.76-6.17 3.77-6.29 2.63-.28 6.87-.51 6.85 3.2-2.69-.53-5.42-1.11-8.12-.36-.35 4.08 4.47 3.34 6.96 4.87 2.36 1.91 1.83 6.4-1.09 7.52-2.7 1.19-5.7.43-8.5.1-.09-.79-.27-2.38-.35-3.17 2.76.87 6.79 2.62 8.73-.63-1.24-3.6-6.77-1.82-8.25-5.24m351.88-3.89c2.14-2.51 5.36-3.01 8.4-1.97.06.74.17 2.21.23 2.95-2.37-.63-5.48-1.67-7.22.75-1.83 3.45-.91 7.57-1.07 11.32-.7.05-2.11.16-2.82.22-.02-5.16-.01-10.32 0-15.47.72.01 2.17.04 2.89.05-.1.54-.31 1.62-.41 2.15m27.09-2.17c3.91-.06 7.82.1 11.72-.2 1.61.34 2.07 2.14 2.18 3.55.38 3.98.16 7.99.19 11.98h-2.54c-.23-4.36.61-8.89-.69-13.12-.5.04-1.48.11-1.97.15-.95 4.24-.45 8.62-.52 12.92-.67.03-2 .07-2.66.1-.15-4.19.34-8.44-.35-12.59-.59-.2-1.76-.59-2.34-.79-.54 4.43-.4 8.9-.4 13.34-.65 0-1.96-.01-2.62-.02-.01-5.11-.01-10.21 0-15.32m67.89-.05c3.86.01 7.73-.04 11.59.09-1.22 5.26-5.85 8.66-8.75 12.98 2.77-.01 5.54-.02 8.32-.02.01.58.02 1.75.02 2.33-3.95-.02-7.9.03-11.84-.02.84-5.35 5.78-8.64 8.57-12.98-2.68-.01-5.36-.02-8.03-.09zm-512.62.16c2.39-.07 4.78-.08 7.18-.07.01 4.31 0 8.63.01 12.95 2.03.28 5.09-.7 5.28 2.24-4.34.2-8.69.06-13.03.1v-2.21l4.94-.03c0-3.53-.02-7.06.06-10.59-1.92-.15-4.36.25-4.44-2.39m50.28-.07h6.63c0 4.32.01 8.64 0 12.95 2.04.28 5.16-.73 5.28 2.28-4.31.13-8.63.03-12.94.06 0-.55-.01-1.66-.01-2.22 1.62-.01 3.25-.02 4.89-.02 0-3.58 0-7.16.02-10.74-1.29-.01-2.57-.02-3.84-.02-.01-.58-.02-1.72-.03-2.29m48.23.35c3.59-.77 8.54-1.68 10.9 1.96 1.3 4.28.45 8.89.62 13.3-1.21-.27-2.49-.47-3.18-1.63-2 1.56-4.77 2.19-7.14 1.1-3.16-1.62-3.27-6.89-.16-8.62 2.5-1.22 5.4-.88 8.09-1.25-1.15-4.51-6.12-3.06-9.27-1.83.04-.76.11-2.27.14-3.03m2.38 8.36c-1.41 1.64-.58 4.28 1.69 4.4 3.27.74 4.47-2.94 4.95-5.43-2.23.12-4.65-.18-6.64 1.03m14.1-9.12c1.02.4 2.04.81 3.05 1.24 2.5-1.25 6.49-2.18 7.94 1.04 1.36 4.33.48 9.04.7 13.52-.7-.05-2.11-.15-2.82-.21-.2-4.14.82-8.58-.85-12.5-1.68-.95-4.11-.62-4.75 1.41-1.13 3.6-.4 7.48-.59 11.2h-2.76c.02-5.24-.09-10.47.08-15.7m34.01.48c2.39-.07 4.78-.08 7.18-.07.01 4.33 0 8.67.01 13 1.76.04 3.52.09 5.3.16-.2.52-.59 1.57-.79 2.09-4.08.15-8.17-.01-12.26.04v-2.21c1.64-.01 3.28-.02 4.93-.02.01-3.54-.01-7.07.07-10.6-1.92-.15-4.37.25-4.44-2.39m15.4-.39q1.71.435 3.33 1.14c2.48-1.39 6.6-2.07 7.85 1.25 1.19 4.29.49 8.82.65 13.21-.71.01-2.11.01-2.82.02-.14-3.87.43-7.84-.41-11.65-.86-2.48-4.94-1.68-5.4.73-.7 3.59-.31 7.27-.39 10.9-.7.01-2.1.02-2.8.02-.02-5.2-.01-10.41-.01-15.62m35.47.85c3.19-1.88 8.36-.91 9.52 2.97.88 2.99.97 6.44-.48 9.26-2.41 4.49-10.51 3.62-11.55-1.56-.76-3.56-.89-8.4 2.51-10.67m1.9 1.93c-2.52 2.36-2.4 6.58-.86 9.45 1.52 2.26 5.3 1.31 5.74-1.35 1.41-3.35-.01-10.07-4.88-8.1m45.11 1.37c1.56-4.43 8.14-5.71 11.27-2.23 1.46 1.68 1.53 4.01 1.98 6.09-3.68.08-7.35.03-11.02.07.43 1.64.39 3.77 2.08 4.71 2.54 1.65 5.54.02 8.13-.69-.08 1-.16 2-.23 3.01-3.16.65-6.84 1.58-9.74-.33-3.41-2.27-3.71-7.08-2.47-10.63m2.14 1.58c2.78.08 5.57.08 8.36-.06-1.09-1.31-1.92-3.42-3.96-3.24-2.18-.26-3.28 1.83-4.4 3.3m13.52-5.72c.72.12 2.16.38 2.89.5 1.78 3.82 2.77 7.94 4.33 11.85 1.43-3.96 2.45-8.09 4.3-11.89.72-.11 2.15-.34 2.86-.45-1.69 5.26-3.62 10.44-5.47 15.65l-3.58-.12c-1.69-5.21-3.74-10.3-5.33-15.54m19.83 14.59c-5.31-3.96-3.25-14.89 4.15-14.68 4.56-.41 6.71 4.21 6.9 8.07-3.74.1-7.48.05-11.21.11.57 1.76.66 4.17 2.66 4.96 2.63 1.2 5.38-.39 7.95-.99-.43 1.44-.29 3.59-2.37 3.46-2.65.56-5.8.78-8.08-.93m-.16-8.93c2.79.13 5.59.14 8.39.05-1.02-1.24-1.68-3.27-3.58-3.27-2.3-.47-3.56 1.75-4.81 3.22m66.64-4.8c3.18-1.9 8.35-.95 9.53 2.92.92 3.19 1.05 6.99-.83 9.86-1.72 2.55-5.24 2.63-7.9 1.84-3.02-1.29-3.84-4.88-3.73-7.85.08-2.46.6-5.42 2.93-6.77m1.91 1.92c-2.65 2.57-2.71 7.87.11 10.32 7.1 2.78 7.12-13.19-.11-10.32m13.08-.81c1.88-2.64 5.4-2.23 7.99-.98.97-.33 1.96-.65 2.95-.96.01 5.18.22 10.37-.07 15.54 0 2.6-1.67 5.3-4.38 5.7-2.62.47-7.1.71-6.87-3.12 2.43.23 5.33 1.96 7.54.11.65-1.37 1.05-2.83 1.55-4.25-2.34 1.42-5.57 2.58-7.9.47-3.2-3.18-3.16-8.85-.81-12.51m2.93 1.09c-2.2 2.27-1.99 6.26-.56 8.88 1.43 2.3 5.16 1.3 5.4-1.38 1.45-3.19-.33-10.25-4.84-7.5m64.99-2.32c3.26-1.75 8.3-.71 9.43 3.18 1.05 3.86 1.07 9.4-3.03 11.51-3.06 1.09-7.37.52-8.65-2.89-1.42-3.8-1.47-9.29 2.25-11.8m1.94 1.93c-2.72 2.26-2.69 6.7-1 9.57 1.61 2.4 5.56 1.09 5.8-1.68 1.12-3.29-.09-9.53-4.8-7.89m96.75 11.82c-4.93-4.03-3.12-14.54 4.07-14.56 4.65-.58 7.01 4.13 7.21 8.07-3.77.07-7.54.01-11.31.14.64 1.64.66 3.96 2.49 4.8 2.62 1.4 5.49-.27 8.11-.84-.2 1.63-.5 3.42-2.51 3.46-2.67.57-5.81.68-8.06-1.07m0-9.1c2.8.43 5.65.44 8.48.32-1.07-1.32-1.9-3.48-3.95-3.3-2.06-.23-3.25 1.75-4.53 2.98m52.27 6.48 3.82-.03c-.01 1.26-.01 2.52.01 3.77-1.31 0-2.6-.01-3.88-.02 0-1.24.02-2.48.05-3.72"/></svg>