<svg xmlns="http://www.w3.org/2000/svg" viewBox="0 0 170 454">
  <path fill="#004f7b"
    d="M72.49 0h4.75c10.02.6 21.69 2.7 27.56 11.81-4.61-1.56-8.67-4.65-13.62-5.16-7.96-1.08-16.96-2.21-24.05 2.47-5.61 3.4-8.51 9.54-11.34 15.18-2.85-.4-5.66-.95-8.49-1.47 1.3-6.49 4.43-12.73 9.56-17.03 4.27-3.82 10-5.45 15.63-5.8" />
  <path fill="#005b88"
    d="M67.13 9.12c7.09-4.68 16.09-3.55 24.05-2.47 4.95.51 9.01 3.6 13.62 5.16 1.59 2.48 2.38 5.34 3.26 8.13-16.74 5.64-34.83 7.32-52.27 4.36 2.83-5.64 5.73-11.78 11.34-15.18" />
  <path fill="#163e69"
    d="M108.06 19.94c3.29.67 2.94 4.38 3.25 6.97-10.7 2.23-21.32 5.29-32.34 5.39-11.55 1.27-23.21.28-34.57-2.03-.21.76-.65 2.27-.87 3.02-.08-2.96-.6-5.97-.11-8.92.38-1.86 2.45-1.52 3.88-1.54 2.83.52 5.64 1.07 8.49 1.47 17.44 2.96 35.53 1.28 52.27-4.36" />
  <path fill="#123256"
    d="M78.97 32.3c11.02-.1 21.64-3.16 32.34-5.39.47 2.28-1.54 3.43-3.16 4.44.08.71.25 2.12.34 2.83-1.55-.82-3.1-2.5-5-1.71-8.25 2.13-16.69 3.61-25.21 3.95-8.41.05-16.87.26-25.21-.99-2.25-.29-4.5-.53-6.72-.97-.71-.29-2.12-.88-2.82-1.17.22-.75.66-2.26.87-3.02 11.36 2.31 23.02 3.3 34.57 2.03" />
  <path fill="#e09976"
    d="M103.49 32.47c1.9-.79 3.45.89 5 1.71-.28.57-.83 1.71-1.11 2.28-7.03 1.72-14.32 1.52-21.43.5-2.66-.56-5.03 1.38-6.41 3.46-2.44 4.11-3.73 8.86-4.02 13.61-.3 3.74-.06 7.76-2.23 11.03-.77-5.67.33-11.34.71-16.99.1-4.26.99-8.66 4.28-11.65 8.52-.34 16.96-1.82 25.21-3.95m-46.71 17.5c.02-2.32 1.74-4.82 4.26-4.72 2.21.15 3.62 2.25 4.44 4.1 1.66 4.02 3.28 8.23 3.17 12.66.03 4.56.41 9.1 1.06 13.61-1.96-.86-3.91-1.75-5.8-2.75.03-3.88-.46-7.85-2.44-11.26-1.82-3.75-5.39-7.12-4.69-11.64" />
  <path fill="#3f2510"
    d="M46.35 34.46c2.22.44 4.47.68 6.72.97-.83 10.79 1.58 21.37 3.66 31.87-8.18-8.7-11-21.2-10.38-32.84" />
  <path fill="#efb88f"
    d="M108.49 34.18c1.23 12.34-2.35 24.46-4.39 36.53l-.48-4.06c-.59 1.06-1.18 2.12-1.75 3.18-4.14-2.31-8.66-.23-12.95.44-2.91.36-5.09 3.02-8.01 3-3.31-1.81-6.3-4.6-7.62-8.21 2.17-3.27 1.93-7.29 2.23-11.03.29-4.75 1.58-9.5 4.02-13.61 1.38-2.08 3.75-4.02 6.41-3.46 7.11 1.02 14.4 1.22 21.43-.5.28-.57.83-1.71 1.11-2.28M92.97 74.09c2.42-.41 4.87-2.52 7.32-1.28-.64 2.99-2.31 5.58-4.77 7.39.04-.99.13-2.98.18-3.97-1.32-1.35-3.23.38-4.76.59.03 1.5 1.19 4.49-1.04 4.82-3.05.84-5.09-1.98-5.87-4.52 1.25-4.04 5.94-1.81 8.94-3.03" />
  <path fill="#4d2c10"
    d="M53.07 35.43c8.34 1.25 16.8 1.04 25.21.99-3.29 2.99-4.18 7.39-4.28 11.65-.38 5.65-1.48 11.32-.71 16.99 1.32 3.61 4.31 6.4 7.62 8.21 2.92.02 5.1-2.64 8.01-3 4.29-.67 8.81-2.75 12.95-.44.57-1.06 1.16-2.12 1.75-3.18l.48 4.06.03.4.06.77c-.36 3.02-.99 6.01-1.97 8.88-1.81 4.53-5.19 8.39-9.69 10.38-4.04.98-8.17.31-11.98-1.22-3.05-2.19-5.75-4.85-8.09-7.78-1.19-2.04-2.14-4.23-2.75-6.52-.65-4.51-1.03-9.05-1.06-13.61.11-4.43-1.51-8.64-3.17-12.66-.82-1.85-2.23-3.95-4.44-4.1-2.52-.1-4.24 2.4-4.26 4.72-.7 4.52 2.87 7.89 4.69 11.64 1.98 3.41 2.47 7.38 2.44 11.26-1.7-.92-3.28-2.04-4.78-3.25-.83-.74-1.63-1.52-2.4-2.32-2.08-10.5-4.49-21.08-3.66-31.87m39.9 38.66c-3 1.22-7.69-1.01-8.94 3.03.78 2.54 2.82 5.36 5.87 4.52 2.23-.33 1.07-3.32 1.04-4.82 1.53-.21 3.44-1.94 4.76-.59-.05.99-.14 2.98-.18 3.97 2.46-1.81 4.13-4.4 4.77-7.39-2.45-1.24-4.9.87-7.32 1.28" />
  <path fill="#d08c6d"
    d="M59.13 69.62c1.5 1.21 3.08 2.33 4.78 3.25 1.89 1 3.84 1.89 5.8 2.75.61 2.29 1.56 4.48 2.75 6.52.11 1.62-.52 3.45.28 4.94 2.26 1.7 5.16 2.07 7.81 2.84 3.81 1.53 7.94 2.2 11.98 1.22 1.54 2.76 3.15 5.49 4.49 8.36-1.5 2.25-3.41 4.25-5.93 5.35-2.03.15-4.05.22-6.07.29.26-2.36.26-4.73.24-7.1-4.31-1-8.62-2.24-12.42-4.58-.32-2.04-.62-4.09-.96-6.13-4.71-2.91-9.25-6.09-13.18-10.01.34-2.56.34-5.13.43-7.7m66.79 102.85c.45-3.57.93-7.14 1.4-10.71.25 5.47 3.57 10 6.22 14.56 2.7 4.67 6.21 8.86 8.52 13.75 2.13 4.71 1.44 9.97.84 14.92-.51-6.23-1.19-12.78-4.92-18.04-3.78-5.02-7.86-9.81-12.06-14.48M4.42 208.9c4.72 1.5 9.75 1.87 14.66 1.35-2.82.3-5.65.4-8.48.54-.77 11.93 2.39 23.55 4.05 35.26.8 6.36.8 13.26-3 18.74.03-5.22.94-10.5-.23-15.66-2.65-13.35-6.64-26.54-7-40.23" />
  <path fill="#c23827"
    d="M104.13 71.11c7.74.06 14.18 6.36 15.93 13.63 1.13 4.74 1.18 9.66 1.38 14.51-5.56-9.23-9.77-19.44-17.25-27.37z" />
  <path fill="#6e2718"
    d="M104.19 71.88c7.48 7.93 11.69 18.14 17.25 27.37 1.49 7.27 4.03 14.32 5.18 21.69-2.63.94-5.26 1.89-7.86 2.9-1.13-6.94-2.8-13.81-5.69-20.24l-.4-1.02c-1.29-3.07-2.69-6.1-4.19-9.07-1.27-2.41-2.8-4.67-4.27-6.96-.72-1.91-1.38-3.84-1.99-5.79.98-2.87 1.61-5.86 1.97-8.88M33.4 96.86c1.23-5.16 6.35-8.81 11.55-9.04 2.21.95 4.46 1.83 6.73 2.64 3.78 4.34 7.48 8.79 10.01 14l1.5 3.03c3.19 8.01 6.16 16.14 8.5 24.44.71 2.44 1.42 4.88 2.32 7.26-3.38.52-6.7 1.37-10.07 1.91-.5.06-1.49.18-1.99.25-1.28-8.44-3.44-16.72-6.32-24.75-.66-1.97-1.61-3.83-2.58-5.65-1.34-2.43-2.44-4.97-3.74-7.41-.98-1.76-2.16-3.41-3.47-4.94-3.62-2.72-8.2-3.31-12.44-1.74m72.86 38.84c3.86-2.05 7.62-4.29 11.59-6.14.94 1.2 1.99 2.3 3.12 3.33 2.45-.81 4.94-1.62 7.18-2.96-.02 1.75.13 3.5.26 5.24.47 7.7-.31 15.38-.71 23.06-.1 1.18-.26 2.35-.38 3.53-.47 3.57-.95 7.14-1.4 10.71-1.77 9.92-1.54 20.33-5.37 29.77-.11 5.71-.25 11.44.17 17.14-2.38 5.55-3.19 11.74-6.51 16.88-5.64 8.73-12.63 16.98-21.94 21.94-1.59 1.09-3.81 1.66-4.8 3.43-3.01 8.54-5.51 17.25-8.69 25.74-4.94 12.6-9.62 25.6-17.96 36.44-5.4 7.29-10.94 15.02-12.32 24.23-1.7 10.41-1.26 21.01-2.16 31.5-.68 7.8-.56 15.69-1.72 23.43-.21.36-.64 1.09-.85 1.46-5.38 4.93-13.03 6.87-20.07 4.81l-.73-.29c-.83-6.99-2.47-13.88-2.87-20.92-.85-13.53-.7-27.39 3.42-40.42 1.85-6.17 5.21-11.72 7.33-17.77 3.01-8.65 7-16.98 8.99-25.96 1.97-8.92 2.84-18.06 5.2-26.9 1.34-5.1 3.73-9.86 4.98-14.99 2.84-11.01 1.05-22.67 4.35-33.6 1.58-5.94 5.89-10.72 7.29-16.73 1.88-7.11.68-14.49.36-21.71-.39-9.85-1.11-19.69-1.53-29.54-.53-4.04-.09-8.99-3.75-11.72.33-.15.98-.45 1.31-.6 1.43-.7 2.81-1.5 4.19-2.3.25.91.53 1.81.84 2.71.62 1.58.87 4.03 3.05 4.16 3.07.23 6.23-.33 9.08-1.5 1.45-.51 1.23-2.27 1.49-3.47-.01-.93-.05-1.86-.12-2.78 1.09-.23 2.18-.45 3.27-.68 2.46-.51 4.91-1.04 7.36-1.6 2.3-.59 4.59-1.19 6.86-1.9 2.31-.76 4.59-1.64 6.85-2.57 1.8-.77 3.59-1.58 5.34-2.46m6.42 14.88c-11.47 4.61-23.24 8.62-35.44 10.76.19 2.57.53 5.13.93 7.67 8.03.1 15.61-3.32 23.19-5.61 7.82-3.19 16.35-5.56 22.89-11.14.63-2.4-.31-4.91-.55-7.32-3.7 1.82-7.17 4.12-11.02 5.64" />
  <path fill="#f26950"
    d="M48.94 83.02c2.67-2.11 5.2-4.8 8.68-5.45 3.03 6.95 8.53 12.43 15.22 15.89 3.8 2.34 8.11 3.58 12.42 4.58.02 2.37.02 4.74-.24 7.1-.25 1.17-.51 2.34-.76 3.51-2.61-.87-5.21-1.75-7.81-2.65-2.6-.91-5.19-1.84-7.7-2.98-2.3-1.08-4.57-2.21-6.87-3.27-.09 1.57-.15 3.14-.19 4.71-2.53-5.21-6.23-9.66-10.01-14-1.07-1.94-2.11-3.9-3.06-5.9.08-.38.24-1.15.32-1.54m53.28-2.26c.61 1.95 1.27 3.88 1.99 5.79-.05 1.92-.18 3.85-.51 5.75-1.45 3.78-2.98 7.55-5.01 11.06-.55-1.29-1.1-2.58-1.67-3.86-1.34-2.87-2.95-5.6-4.49-8.36 4.5-1.99 7.88-5.85 9.69-10.38" />
  <path fill="#c77752"
    d="m57.62 77.57 1.08-.25c3.93 3.92 8.47 7.1 13.18 10.01.34 2.04.64 4.09.96 6.13-6.69-3.46-12.19-8.94-15.22-15.89" />
  <path fill="#f0bb94"
    d="M72.74 87.08c-.8-1.49-.17-3.32-.28-4.94 2.34 2.93 5.04 5.59 8.09 7.78-2.65-.77-5.55-1.14-7.81-2.84m54.96 71.15c2.9-1.23 4.44-4.02 5.39-6.86 2.52 6.26 4.95 12.57 7.93 18.63 4.46 8.12 8.14 16.75 13.99 24.02 4.32 4.07 10.08 6 14.99 9.17v1.41c-2.76.97-5.54 0-8.25-.62.46 4.8 4.12 8.43 5.25 13-1.37 1.62-2.18 3.63-3.5 5.28-2.73 1.06-5.75.89-8.63.83-2.18-3.08-4.74-5.9-6.68-9.15-1.73-3-4.68-5.38-5.29-8.95.6-4.95 1.29-10.21-.84-14.92-2.31-4.89-5.82-9.08-8.52-13.75-2.65-4.56-5.97-9.09-6.22-14.56.12-1.18.28-2.35.38-3.53M19.08 210.25c2.44-.3 4.84-.84 7.21-1.43-.42 8.62-1.51 17.18-2.51 25.75-.47 5.06-1.37 10.23-.22 15.27.95 4.59 4.71 7.74 6.99 11.66 2.08 3.52 5.28 6.17 7.69 9.45-.25.41-.74 1.23-.98 1.64l-1.2-.23c-2.36-1.01-4.18-2.89-6.17-4.44-.73 5 1.35 9.9 1.23 14.92-.77.06-2.32.19-3.09.26-.26.55-.79 1.65-1.06 2.2-3.59-.03-6.85-1.65-9.89-3.41-1.65-5.75-3.85-11.33-5.43-17.1 3.8-5.48 3.8-12.38 3-18.74-1.66-11.71-4.82-23.33-4.05-35.26 2.83-.14 5.66-.24 8.48-.54" />
  <path fill="#a52323"
    d="M44.95 87.82c1.25-1.05 2.5-2.11 3.67-3.26.95 2 1.99 3.96 3.06 5.9-2.27-.81-4.52-1.69-6.73-2.64" opacity=".96" />
  <path fill="#c92327"
    d="M104.21 86.55c1.47 2.29 3 4.55 4.27 6.96-.95.65-1.9 1.28-2.85 1.92-.64-1.04-1.29-2.09-1.93-3.13.33-1.9.46-3.83.51-5.75" />
  <path fill="#ab2023"
    d="M98.69 103.36c2.03-3.51 3.56-7.28 5.01-11.06.64 1.04 1.29 2.09 1.93 3.13-.57 2.93-.52 5.92-.14 8.87.28 2.43.51 4.86.89 7.28.39.17 1.17.5 1.56.67-2.61.71-5.22 1.43-7.83 2.15.44 2.94 1.07 5.92 2.83 8.39l3.72-1.05q.615 3.735 1.29 7.44c2.29-.37 4.55-.9 6.77-1.56-.35-2.67-.74-5.34-.99-8.03-.15-2.94-.35-5.88-.65-8.8-.13-2.4-.02-4.8-.01-7.19 2.89 6.43 4.56 13.3 5.69 20.24-.36.14-1.06.42-1.42.56.16 1.72.31 3.44.51 5.16-3.97 1.85-7.73 4.09-11.59 6.14-1.41-4.23-2.78-8.48-4.2-12.71-.6.16-1.81.49-2.41.65-2.29.63-4.56 1.34-6.82 2.07-.23-2.95-.46-5.9-.73-8.84 2.63-.63 5.22-1.44 7.74-2.44-.67-2.56-1.33-5.12-1.99-7.67-2.16.5-4.33 1.02-6.49 1.54-.07-.87-.21-2.59-.27-3.45 2.52-1.1 4.43-3.1 5.93-5.35.57 1.28 1.12 2.57 1.67 3.86" />
  <path fill="#971b1e"
    d="M108.48 93.51c1.5 2.97 2.9 6 4.19 9.07-2.4.56-4.79 1.14-7.18 1.72-.38-2.95-.43-5.94.14-8.87.95-.64 1.9-1.27 2.85-1.92M33.4 96.86c4.24-1.57 8.82-.98 12.44 1.74-.92 1.05-1.85 2.1-2.78 3.14.97.76 1.94 1.52 2.91 2.27-.41 3.61-.94 7.28-2.68 10.53-.94-.43-1.87-.87-2.81-1.3-.34-2.43-.72-4.86-1.22-7.26-2.9 2.25-3.68 5.91-2.75 9.33 1.05-.14 3.14-.43 4.19-.58.41 2.65.74 5.31.94 7.99-.87.53-1.74 1.07-2.6 1.62-.85-3.03-1.83-6.02-2.89-8.98-.78.23-2.35.68-3.13.9-.24 2.08-.43 4.17-.57 6.26-1.27-1.15-2.6-2.24-3.92-3.32 1.38-3.62 3.2-7.07 5.33-10.3 2.96-2.19 6.06-4.18 8.87-6.55-3.15-2.46-7.31-1.99-11.06-2.21.8-.97 1.42-2.06 1.73-3.28m74.54 15.39c1.72-.45 3.43-.96 5.14-1.46.3 2.92.5 5.86.65 8.8-2.35.73-4.7 1.47-7.07 2.15l-3.72 1.05c-1.76-2.47-2.39-5.45-2.83-8.39 2.61-.72 5.22-1.44 7.83-2.15" />
  <path fill="#b72825"
    d="M43.06 101.74c.93-1.04 1.86-2.09 2.78-3.14 1.31 1.53 2.49 3.18 3.47 4.94-.76.11-2.27.31-3.02.42l-.32.05c-.97-.75-1.94-1.51-2.91-2.27" />
  <path fill="#411211"
    d="M31.67 100.14c3.75.22 7.91-.25 11.06 2.21-2.81 2.37-5.91 4.36-8.87 6.55a31 31 0 0 1-3.37-7.29l.78-.98c.1-.13.3-.37.4-.49" />
  <path fill="#f04e27"
    d="M61.88 99.75c2.3 1.06 4.57 2.19 6.87 3.27.06.75.19 2.25.26 3l-5.82 1.47-1.5-3.03c.04-1.57.1-3.14.19-4.71m-15.59 4.21c.75-.11 2.26-.31 3.02-.42 1.3 2.44 2.4 4.98 3.74 7.41-1.69.32-3.38.67-5.07.99-.64-2.64-1.2-5.31-1.69-7.98m45.07 4.34c2.16-.52 4.33-1.04 6.49-1.54.66 2.55 1.32 5.11 1.99 7.67-2.52 1-5.11 1.81-7.74 2.44-.26-2.86-.51-5.71-.74-8.57m-14.21 4.55c2.26-.7 4.53-1.39 6.8-2.08.15 2.74.46 5.46.71 8.19-2.28.66-4.55 1.32-6.81 2.02-.24-2.71-.46-5.42-.7-8.13m-27.68 8.21c2.03-.75 4.09-1.46 6.13-2.17 0 2.87.37 5.73.64 8.59-1.82.39-3.64.78-5.47 1.13-.43-2.52-.87-5.03-1.3-7.55m43.36 4.65c2.26-.73 4.53-1.44 6.82-2.07.23 2.78.47 5.57.71 8.35-2.27.63-4.55 1.26-6.83 1.9-.23-2.73-.47-5.46-.7-8.18m-14.17 4.18 6.77-1.95c.24 2.71.45 5.42.65 8.13l-6.78 2.07c-.24-2.75-.44-5.5-.64-8.25m-28.51 8.36c2.29-.68 4.56-1.36 6.84-2.05.23 2.74.44 5.49.7 8.24-1.55.51-3.09 1.02-4.64 1.55a149 149 0 0 1-3.44-4.89c.14-.71.41-2.14.54-2.85" />
  <path fill="#8d191b"
    d="M16.77 124.56c1.56-9.19 4.47-20.74 14.5-23.93l-.78.98c-2.24 3.1-4.62 6.41-4.89 10.37-.5 5.86-.61 11.81.31 17.63l.92.18c4.5.82 9.1 1.13 13.66.6.1.4.29 1.19.38 1.58-2.18.42-4.31 1.03-6.42 1.71-.12 3.08-.01 6.17.26 9.24 2.78-.89 5.59-1.7 8.43-2.4.22 2.66.4 5.33.48 8-2.56.78-5.1 1.63-7.63 2.51-.1.75-.28 2.25-.38 3-.21-.33-.65-1-.87-1.34-2-3.05-4.06-6.09-5.43-9.48a121 121 0 0 1-3.14-9.31c-.4 6.98-1.05 13.97-2.73 20.78-.04.13-.1.41-.13.55-3.72-.07-7.44-.36-11.11-.96 2.4-9.76 3.63-19.73 4.57-29.71m-6.67 38.61c3.54.4 7.08.77 10.63 1.13-2.89 7.67-5.06 15.61-6.47 23.69q-5.025.105-10.05-.06c1.52-8.35 3.96-16.5 5.89-24.76" />
  <path fill="#570f0e"
    d="M25.6 111.98c.27-3.96 2.65-7.27 4.89-10.37.8 2.56 1.93 5.01 3.37 7.29-2.13 3.23-3.95 6.68-5.33 10.3-.94 3.46-1.33 7.03-1.7 10.59l-.92-.18c-.92-5.82-.81-11.77-.31-17.63" />
  <path fill="#d27059"
    d="M68.75 103.02c2.51 1.14 5.1 2.07 7.7 2.98.26 2.28.49 4.56.7 6.85.24 2.71.46 5.42.7 8.13-2.74.85-5.51 1.58-8.31 2.21-.05-5.72.14-11.47-.53-17.17-.07-.75-.2-2.25-.26-3m16.27 2.12c2.02-.07 4.04-.14 6.07-.29.06.86.2 2.58.27 3.45.23 2.86.48 5.71.74 8.57.27 2.94.5 5.89.73 8.84.23 2.72.47 5.45.7 8.18.19 2.28.36 4.55.54 6.84-2.27.71-4.56 1.31-6.86 1.9-.58-2.15-.97-4.35-1.13-6.56-.2-2.71-.41-5.42-.65-8.13-.25-2.99-.49-5.99-.77-8.98-.25-2.73-.56-5.45-.71-8.19.08-.53.23-1.59.31-2.12.25-1.17.51-2.34.76-3.51M55.6 118.89c.01-.57.02-1.72.03-2.29 2.88 8.03 5.04 16.31 6.32 24.75.5-.07 1.49-.19 1.99-.25-2.38.58-2.44 2.72-1.7 4.69-1.38.8-2.76 1.6-4.19 2.3l-.36-3.65c-.26-2.75-.47-5.5-.7-8.24-.24-2.91-.48-5.82-.75-8.72-.27-2.86-.64-5.72-.64-8.59m44.05 4.75c.6-.16 1.81-.49 2.41-.65 1.42 4.23 2.79 8.48 4.2 12.71-1.75.88-3.54 1.69-5.34 2.46-.19-2.06-.37-4.12-.56-6.17-.24-2.78-.48-5.57-.71-8.35m-27.96 8.29c2.32-.69 4.64-1.38 6.97-2.04a572 572 0 0 0 1.19 14.34c-1.09.23-2.18.45-3.27.68-.19-1.95-.5-3.88-.8-5.82-.44.03-1.33.07-1.77.1-.9-2.38-1.61-4.82-2.32-7.26m-45.52 1.97c.92 3.15 1.97 6.25 3.14 9.31-.34 4.09-1.44 8.06-2.41 12.04-1.16-.17-2.31-.36-3.46-.57 1.68-6.81 2.33-13.8 2.73-20.78m7.91 21.31c.17-.63.49-1.89.66-2.52.22.34.66 1.01.87 1.34 1.16 1.79 2.35 3.55 3.58 5.29.54.76 1.09 1.51 1.64 2.27-2.88 6.66-6.18 13.12-9.42 19.61-1.74 3.65-4.4 7-4.56 11.21-.25 2-.64 4.33-2.91 4.98.47-2.14 1-4.26 1.49-6.4.83-3.38 1.64-6.77 2.44-10.16.7-2.91 1.39-5.82 2.1-8.72.65-2.7 1.31-5.4 1.96-8.1.7-2.94 1.39-5.88 2.15-8.8m-13.35 9.09.22-.65c1.3.06 2.59.12 3.89.17-.68 2.71-1.35 5.43-2 8.15l-2.13 8.81c-.64 2.62-1.26 5.25-1.87 7.88-1.56-.06-3.12-.09-4.68-.11l.1-.56c1.41-8.08 3.58-16.02 6.47-23.69" />
  <path fill="#d02027"
    d="M105.49 104.3c2.39-.58 4.78-1.16 7.18-1.72l.4 1.02c-.01 2.39-.12 4.79.01 7.19-1.71.5-3.42 1.01-5.14 1.46-.39-.17-1.17-.5-1.56-.67-.38-2.42-.61-4.85-.89-7.28m1.17 17.44c2.37-.68 4.72-1.42 7.07-2.15.25 2.69.64 5.36.99 8.03-2.22.66-4.48 1.19-6.77 1.56q-.675-3.705-1.29-7.44" />
  <path fill="#ad3224"
    d="m45.97 104.01.32-.05c.49 2.67 1.05 5.34 1.69 7.98 1.69-.32 3.38-.67 5.07-.99.97 1.82 1.92 3.68 2.58 5.65-.01.57-.02 1.72-.03 2.29-2.04.71-4.1 1.42-6.13 2.17.43 2.52.87 5.03 1.3 7.55-3.23.83-6.19 2.42-9.41 3.27l-.49.09c-.09-.39-.28-1.18-.38-1.58-.48-2.02-.97-4.03-1.45-6.05.86-.55 1.73-1.09 2.6-1.62-.2-2.68-.53-5.34-.94-7.99-.05-.37-.16-1.11-.22-1.49.94.43 1.87.87 2.81 1.3 1.74-3.25 2.27-6.92 2.68-10.53" />
  <g fill="#b92625">
    <path
      d="m63.19 107.49 5.82-1.47c.67 5.7.48 11.45.53 17.17 2.8-.63 5.57-1.36 8.31-2.21 2.26-.7 4.53-1.36 6.81-2.02.28 2.99.52 5.99.77 8.98l-6.77 1.95c-2.33.66-4.65 1.35-6.97 2.04-2.34-8.3-5.31-16.43-8.5-24.44" />
    <path
      d="M76.45 106c2.6.9 5.2 1.78 7.81 2.65-.08.53-.23 1.59-.31 2.12-2.27.69-4.54 1.38-6.8 2.08-.21-2.29-.44-4.57-.7-6.85m-25.68 22.61c1.83-.35 3.65-.74 5.47-1.13.27 2.9.51 5.81.75 8.72-2.28.69-4.55 1.37-6.84 2.05.49-3.19.55-6.42.62-9.64m42.76 5.28c2.28-.64 4.56-1.27 6.83-1.9.19 2.05.37 4.11.56 6.17-2.26.93-4.54 1.81-6.85 2.57-.18-2.29-.35-4.56-.54-6.84m-14.23 4.25 6.78-2.07c.16 2.21.55 4.41 1.13 6.56-2.45.56-4.9 1.09-7.36 1.6-.19-2.03-.38-4.06-.55-6.09m-55.99 17.09c.03-.14.09-.42.13-.55 1.15.21 2.3.4 3.46.57 2.39.09 4.79.01 7.18-.04-.76 2.92-1.45 5.86-2.15 8.8-2.37-.05-4.73-.1-7.09-.19-1.3-.05-2.59-.11-3.89-.17.92-2.77 1.67-5.59 2.36-8.42m-.47 16.74c2.37.04 4.75.09 7.13.14-.71 2.9-1.4 5.81-2.1 8.72-2.39-.01-4.78-.03-7.16-.05zm-8.68 16.58c1.56.02 3.12.05 4.68.11 1.98.09 3.96.24 5.93.5.16.46.5 1.38.66 1.83-.49 2.14-1.02 4.26-1.49 6.4-3.67.49-7.39.25-11.03-.29.36-2.86.75-5.71 1.25-8.55" />
  </g>
  <path fill="#bd2025"
    d="M36.51 115.31c-.93-3.42-.15-7.08 2.75-9.33.5 2.4.88 4.83 1.22 7.26.06.38.17 1.12.22 1.49-1.05.15-3.14.44-4.19.58" />
  <path fill="#650e0c"
    d="M33.02 116.26c.78-.22 2.35-.67 3.13-.9 1.06 2.96 2.04 5.95 2.89 8.98-1.68.31-3.36.63-5.04.94-.53-.92-1.04-1.84-1.55-2.76.14-2.09.33-4.18.57-6.26m1.43 17.42c2.11-.68 4.24-1.29 6.42-1.71l.49-.09c2.39 3.29 5.07 6.36 7.9 9.29-1.31 5.66-4.89 10.51-5.82 16.29-.75.68-1.5 1.36-2.26 2.04-.49-.05-1.49-.14-1.99-.18-1.23-1.74-2.42-3.5-3.58-5.29.1-.75.28-2.25.38-3 2.53-.88 5.07-1.73 7.63-2.51-.08-2.67-.26-5.34-.48-8-2.84.7-5.65 1.51-8.43 2.4-.27-3.07-.38-6.16-.26-9.24" />
  <path fill="#7d1416"
    d="M26.83 129.79c.37-3.56.76-7.13 1.7-10.59 1.32 1.08 2.65 2.17 3.92 3.32.51.92 1.02 1.84 1.55 2.76 1.68-.31 3.36-.63 5.04-.94.48 2.02.97 4.03 1.45 6.05-4.56.53-9.16.22-13.66-.6M10.1 163.17c.72-2.97 1.43-5.93 2.1-8.9 3.67.6 7.39.89 11.11.96-.69 2.83-1.44 5.65-2.36 8.42l-.22.65c-3.55-.36-7.09-.73-10.63-1.13m43.66.15c1.44-.39 2.87-.83 4.3-1.26-.09 3.52.26 7.35-1.48 10.57-1.21 2.12-3.8 2.31-5.96 2.55-1.76-3.1-3.96-5.91-6.1-8.75 2.98-1.31 6.09-2.29 9.24-3.11M4.21 187.93q5.025.165 10.05.06l-.1.56c-.5 2.84-.89 5.69-1.25 8.55-2.94-.38-5.78-1.24-8.56-2.22-.24-1.28-.47-2.56-.67-3.85.14-1.04.34-2.07.53-3.1" />
  <path fill="#ffd969"
    d="m126.62 120.94 1.32-.48c.39 3.14.72 6.32.21 9.47-2.24 1.34-4.73 2.15-7.18 2.96a27 27 0 0 1-3.12-3.33c-.2-1.72-.35-3.44-.51-5.16.36-.14 1.06-.42 1.42-.56 2.6-1.01 5.23-1.96 7.86-2.9m-5.06 4.78c-1.01 2.17 1.62 5.37 3.79 3.6 2.14-1.78 1.05-4.56-.59-6.22-1.3.57-2.99.95-3.2 2.62m-47.55 13.47c.44-.03 1.33-.07 1.77-.1.3 1.94.61 3.87.8 5.82.07.92.11 1.85.12 2.78-4.1 1.82-9.66 4.04-13.62.81-.31-.9-.59-1.8-.84-2.71-.74-1.97-.68-4.11 1.7-4.69 3.37-.54 6.69-1.39 10.07-1.91m-4.57 2.2c-1.83.63-3.19 2.64-2.5 4.58.72 2.39 4.26 2.39 5.52.48 1.77-2.09-.31-5.57-3.02-5.06" />
  <path fill="#fdb93e"
    d="M121.56 125.72c.21-1.67 1.9-2.05 3.2-2.62 1.64 1.66 2.73 4.44.59 6.22-2.17 1.77-4.8-1.43-3.79-3.6m-52.12 15.67c2.71-.51 4.79 2.97 3.02 5.06-1.26 1.91-4.8 1.91-5.52-.48-.69-1.94.67-3.95 2.5-4.58" />
  <path fill="#8d191c"
    d="M41.36 131.88c3.22-.85 6.18-2.44 9.41-3.27-.07 3.22-.13 6.45-.62 9.64-.13.71-.4 2.14-.54 2.85 1.12 1.65 2.25 3.28 3.44 4.89.8 1.09 1.61 2.17 2.42 3.26.32-.14.95-.42 1.27-.56.01 1.72.04 3.44.23 5.16-1.64.58-3.28 1.13-4.92 1.71.16 2.57-1.12 6.26 1.71 7.76-3.15.82-6.26 1.8-9.24 3.11.39-3.04.29-6.17-1.08-8.97.93-5.78 4.51-10.63 5.82-16.29-2.83-2.93-5.51-6-7.9-9.29" />
  <path fill="#d13c27"
    d="M128.41 135.17c2.15 5.21 7.16 10.19 4.68 16.2-.95 2.84-2.49 5.63-5.39 6.86.4-7.68 1.18-15.36.71-23.06m-99.1 8.04c1.37 3.39 3.43 6.43 5.43 9.48-.17.63-.49 1.89-.66 2.52-2.39.05-4.79.13-7.18.04.97-3.98 2.07-7.95 2.41-12.04m-4.47 20.61c2.36.09 4.72.14 7.09.19-.65 2.7-1.31 5.4-1.96 8.1-2.38-.05-4.76-.1-7.13-.14.65-2.72 1.32-5.44 2-8.15m-4.13 16.96c2.38.02 4.77.04 7.16.05-.8 3.39-1.61 6.78-2.44 10.16-.16-.45-.5-1.37-.66-1.83-1.97-.26-3.95-.41-5.93-.5.61-2.63 1.23-5.26 1.87-7.88M.56 195.96c-.75-2.39 1.5-3.75 3.12-4.93.2 1.29.43 2.57.67 3.85 2.78.98 5.62 1.84 8.56 2.22 3.64.54 7.36.78 11.03.29 2.27-.65 2.66-2.98 2.91-4.98 1.36 1.12 3.89 1.6 3.96 3.73-.96 2.9-2.88 5.66-1.99 8.86.84 2.03-.85 3.23-2.53 3.82-2.37.59-4.77 1.13-7.21 1.43-4.91.52-9.94.15-14.66-1.35-4.02-3.06-3-8.55-3.86-12.94" />
  <path fill="#b82925"
    d="M53.05 145.99c1.55-.53 3.09-1.04 4.64-1.55l.36 3.65c-.33.15-.98.45-1.31.6-.32.14-.95.42-1.27.56-.81-1.09-1.62-2.17-2.42-3.26" />
  <path fill="#803322"
    d="M112.68 150.58c3.85-1.52 7.32-3.82 11.02-5.64.24 2.41 1.18 4.92.55 7.32-6.54 5.58-15.07 7.95-22.89 11.14-7.58 2.29-15.16 5.71-23.19 5.61-.4-2.54-.74-5.1-.93-7.67 12.2-2.14 23.97-6.15 35.44-10.76" />
  <path fill="#57170d"
    d="M76.7 147.69c-.26 1.2-.04 2.96-1.49 3.47-2.85 1.17-6.01 1.73-9.08 1.5-2.18-.13-2.43-2.58-3.05-4.16 3.96 3.23 9.52 1.01 13.62-.81" />
  <path fill="#541e13"
    d="M56.74 148.69c3.66 2.73 3.22 7.68 3.75 11.72.42 9.85 1.14 19.69 1.53 29.54.32 7.22 1.52 14.6-.36 21.71-1.4 6.01-5.71 10.79-7.29 16.73-3.3 10.93-1.51 22.59-4.35 33.6-1.25 5.13-3.64 9.89-4.98 14.99-2.36 8.84-3.23 17.98-5.2 26.9-1.99 8.98-5.98 17.31-8.99 25.96-2.12 6.05-5.48 11.6-7.33 17.77-4.12 13.03-4.27 26.89-3.42 40.42.4 7.04 2.04 13.93 2.87 20.92-2.71-1.2-5.33-2.58-8.01-3.85-.13-1.38-.29-2.75-.4-4.12-.78-17.68-1.71-35.51.86-53.09 1.47-11.26 9.72-20.11 12.04-31.11.78-4.19.3-8.52 1.19-12.69 2.25-10.55 5.51-20.85 8.88-31.09l-1.47-.64 1.2.23c.24-.41.73-1.23.98-1.64 1-3.59 3.31-7.22 2.19-11.05-2.4-10.84-2.21-22.67 2.66-32.83 1.62-3.99 4.41-7.58 4.88-11.97 1.4-9.29 2.46-18.69 1.82-28.09.07-3.93-.67-8.07.83-11.83 2.16-.24 4.75-.43 5.96-2.55 1.74-3.22 1.39-7.05 1.48-10.57-.17-2.76-.64-5.49-1.09-8.21-.19-1.72-.22-3.44-.23-5.16m30.73 112.94c1.84 5.68.48 11.59.49 17.4-.1 8.04-1.83 15.94-2.06 23.97 2.8.74 5.65 1.36 8.51 1.86-3.3 2.23-7.28 3.55-10.08 6.45-2.36 3.81-.66 8.5-.62 12.69.19 7.55 1.16 15.03 2.86 22.39 1.44 6.46 2.51 13.08 5.24 19.16-4.31.01-8.6-.83-12.55-2.58-1.45-16.59-4.61-33.12-3.96-49.84.18-4.24 2.68-7.89 3.42-12 .91-4.55.31-9.18.06-13.76 3.18-8.49 5.68-17.2 8.69-25.74" />
  <path fill="#ab1f23"
    d="M52.05 155.56c1.64-.58 3.28-1.13 4.92-1.71.45 2.72.92 5.45 1.09 8.21-1.43.43-2.86.87-4.3 1.26-2.83-1.5-1.55-5.19-1.71-7.76m-10.87 3.94c.76-.68 1.51-1.36 2.26-2.04 1.37 2.8 1.47 5.93 1.08 8.97-1.24-1.61-2.47-3.22-3.69-4.84-.55-.76-1.1-1.51-1.64-2.27.5.04 1.5.13 1.99.18" />
  <path fill="#622216"
    d="M114.21 236.26c3.32-5.14 4.13-11.33 6.51-16.88 2.57 24.71.67 50.6-10.09 73.31-2.55 5.02-3.56 10.65-3.51 16.25.23 16.71 1.72 33.41 1.34 50.13-2.33.91-4.56 2.03-6.7 3.32-3.06 1.72-6.44 2.84-9.95 3.16-2.73-6.08-3.8-12.7-5.24-19.16-1.7-7.36-2.67-14.84-2.86-22.39-.04-4.19-1.74-8.88.62-12.69 2.8-2.9 6.78-4.22 10.08-6.45-2.86-.5-5.71-1.12-8.51-1.86.23-8.03 1.96-15.93 2.06-23.97-.01-5.81 1.35-11.72-.49-17.4.99-1.77 3.21-2.34 4.8-3.43 9.31-4.96 16.3-13.21 21.94-21.94" />
  <path fill="#2a2a2a"
    d="M101.76 362.39c2.14-1.29 4.37-2.41 6.7-3.32.83 3.35 2.42 6.43 3.73 9.6 1.44.4 2.89.79 4.32 1.21 6.07 2.74 12.34 5.73 16.64 11-1.69 1.87-3.23 4.54-6.13 4.42-7.65.28-15.63-1.21-22.37-4.93-3.34-3.53-5.76-7.93-7.96-12.25 1.83-1.75 4.32-3.15 5.07-5.73M23.7 409.24c7.04 2.06 14.69.12 20.07-4.81.01 1.33.03 2.67.02 4.01-2.16 6.26 1.4 12.37 3.77 18 2.23 5.21 4.69 11.21 2.76 16.87-3.88 2.4-10.28 4.28-13.62.05-9.09-8.83-12.92-21.71-13-34.12" />
  <path fill="#1a1a1a"
    d="M79.26 362.97c3.95 1.75 8.24 2.59 12.55 2.58 3.51-.32 6.89-1.44 9.95-3.16-.75 2.58-3.24 3.98-5.07 5.73 2.2 4.32 4.62 8.72 7.96 12.25 6.74 3.72 14.72 5.21 22.37 4.93 2.9.12 4.44-2.55 6.13-4.42.93 2.11 2.19 4.6 1.03 6.9-1.33 2.66-3.93 4.49-6.6 5.66-11.13 2.17-23.52-.54-31.62-8.83-6.69 1.46-12.41-2.87-18.46-4.91-.22-3.25-.64-6.49-.79-9.74.73-2.38 1.72-4.66 2.55-6.99m-64.3 42.13c2.68 1.27 5.3 2.65 8.01 3.85l.73.29c.08 12.41 3.91 25.29 13 34.12 3.34 4.23 9.74 2.35 13.62-.05 1.93-5.66-.53-11.66-2.76-16.87-2.37-5.63-5.93-11.74-3.77-18 1.54 8.81 7.29 16.11 9.65 24.66 1.22 4.83.94 9.91.15 14.79-.5 2.46-3.03 3.54-5.03 4.55l-.11.06-.44-.05c-.17-.02-.51-.04-.69-.06-2.42.82-4.95 1.18-7.5 1.28-11.12-5.06-18.64-16.78-19.09-28.94-5.24-5.04-5.43-12.85-5.77-19.63" />
  <path fill="#ced9de"
    d="M46.34 379.54c9.72-4.31 19.9-7.65 30.37-9.58.15 3.25.57 6.49.79 9.74 6.05 2.04 11.77 6.37 18.46 4.91 8.1 8.29 20.49 11 31.62 8.83 2.67-1.17 5.27-3 6.6-5.66 1.16-2.3-.1-4.79-1.03-6.9-4.3-5.27-10.57-8.26-16.64-11 7.78 1.92 15.64 5.42 20.65 11.92 4.7 5.93 5.13 14.25 2.73 21.21-3.6 10.29-11.4 18.49-19.82 25.12-20.09 15.31-44.97 24.08-70.12 25.64-.38-.32-1.13-.95-1.5-1.27l.11-.06c2-1.01 4.53-2.09 5.03-4.55.79-4.88 1.07-9.96-.15-14.79-2.36-8.55-8.11-15.85-9.65-24.66.01-1.34-.01-2.68-.02-4.01.21-.37.64-1.1.85-1.46 1.16-7.74 1.04-15.63 1.72-23.43m-31.78 21.44c.11 1.37.27 2.74.4 4.12.34 6.78.53 14.59 5.77 19.63.45 12.16 7.97 23.88 19.09 28.94-10.27-.43-20.98-2.72-29.35-9C4.67 440.4.96 433.27 1.5 426c.69-9.72 6.41-18.25 13.06-25.02m32.76 51.41c.18.02.52.04.69.06-.22.39-.67 1.16-.9 1.55h-8.49l1.2-.33c2.55-.1 5.08-.46 7.5-1.28" />
</svg>