<svg xmlns="http://www.w3.org/2000/svg" viewBox="0 0 444 378">
  <path fill="#898989"
    d="M257.82 0h.94c5.79 3.31 11.53 6.7 17.35 9.96 1.96 1.11 3.9 2.24 5.84 3.37 1.62.93 3.24 1.85 4.86 2.78 1.82 1.05 3.65 2.1 5.48 3.14 1.51.87 3.01 1.74 4.51 2.63 1.81 1.07 3.64 2.14 5.48 3.18 1.09.62 2.2 1.24 3.3 1.86 2.04 1.17 4.09 2.35 6.14 3.52 1.56.89 3.11 1.78 4.66 2.69 1.65.96 3.3 1.93 4.95 2.89 1.77 1.05 3.55 2.09 5.35 3.11 2.08 1.17 4.17 2.34 6.24 3.54 2.13 1.23 4.28 2.44 6.41 3.67 1.78 1.03 3.56 2.06 5.35 3.08 1.58.89 3.16 1.79 4.73 2.7 1.73 1.03 3.47 2.07 5.22 3.07l3.6 2.04c2.4 1.41 4.87 2.71 7.28 4.1 1.19.77 2.33 1.61 3.46 2.46-1.7.73-3.39 1.5-5.07 2.29-2.64-2.04-5.26-4.13-8.19-5.75-33.8-19.28-67.4-38.92-101.22-58.13 1.08-.77 2.19-1.5 3.33-2.2m-76.53 44.34c1.22-.73 2.46-1.45 3.71-2.15 5.8 3.33 11.58 6.69 17.39 9.98l3.51 2.01c1.22.7 2.45 1.4 3.67 2.11 1.1.64 2.2 1.29 3.3 1.92 1.18.68 2.37 1.35 3.57 2.02 1.67.95 3.35 1.9 5.01 2.89 2.26 1.34 4.51 2.68 6.81 3.96 1.23.69 2.48 1.37 3.71 2.08 1.28.73 2.56 1.48 3.84 2.23 1.54.9 3.08 1.79 4.63 2.68 2.28 1.33 4.57 2.65 6.85 3.98 1.82 1.08 3.64 2.17 5.51 3.17 1.32.74 2.64 1.49 3.97 2.25 1.89 1.09 3.78 2.19 5.69 3.27.99.56 1.98 1.13 2.98 1.69 1.12.65 2.23 1.29 3.35 1.95 1.87 1.09 3.74 2.16 5.61 3.24q3.09 1.815 6.21 3.6c1.29.73 2.58 1.46 3.87 2.2 1.18.68 2.35 1.35 3.53 2.03 1.27.71 2.54 1.43 3.8 2.17 1.18.71 2.33 1.46 3.49 2.21-1.44.81-2.87 1.62-4.3 2.43-4.68-3.12-9.49-6.04-14.42-8.75-23.94-13.77-47.78-27.68-71.78-41.33-6.56-3.81-13.02-7.82-19.82-11.2-1.36-.68-2.53-1.67-3.69-2.64m-72.67 42.51c1.34-.85 2.72-1.64 4.1-2.43 5.5 3.29 11.07 6.46 16.65 9.62.66.38 1.97 1.14 2.62 1.51 1.41.82 2.82 1.63 4.24 2.44 1.28.73 2.55 1.46 3.83 2.19.47.26 1.41.79 1.88 1.06 1.79 1.02 3.57 2.04 5.35 3.08 2.44 1.45 4.87 2.92 7.35 4.32 1.36.78 2.73 1.57 4.1 2.35l2.37 1.37c2.1 1.19 4.21 2.37 6.3 3.59 2.24 1.31 4.47 2.64 6.73 3.92 1.43.82 2.87 1.62 4.32 2.42.35.19 1.04.58 1.39.78l2 1.12c1.78 1.04 3.56 2.09 5.35 3.11 1.73.99 3.44 2.01 5.15 3.03.46.27 1.39.8 1.85 1.07 1.77 1 3.54 1.99 5.29 3.01 2.01 1.17 4.01 2.36 6.03 3.51 1.96 1.13 3.94 2.25 5.92 3.36 1.04.58 2.08 1.17 3.12 1.76 1.3.72 2.6 1.45 3.88 2.2 1.44.87 2.84 1.79 4.19 2.79l-3.69 2.58c-9.68-6.38-19.98-11.71-29.93-17.63-21.36-12.26-42.68-24.6-64.03-36.89-5.34-3.04-10.49-6.59-16.43-8.4z" />
  <path fill="#707171"
    d="m254.29 2.36.2-.16c33.82 19.21 67.42 38.85 101.22 58.13 2.93 1.62 5.55 3.71 8.19 5.75.23 21.31.01 42.62.11 63.94 0 3.18.37 6.45-.62 9.54-.96-.62-1.92-1.25-2.87-1.87-.01-2.09-.05-4.18-.05-6.27 0-.25.01-.73.01-.98.01-2.11.02-4.22.01-6.33l-.04-2.13c0-2.56.04-5.12-.01-7.68.28-8.16.14-16.33.06-24.49.08-6.69.3-13.36-.03-20.05-.59-.32-1.77-.96-2.36-1.29-3.33-1.89-6.57-3.93-9.95-5.73-1.7-.93-3.39-1.88-5.06-2.86-1.89-1.1-3.77-2.21-5.66-3.31-3.02-1.72-6.02-3.48-9.05-5.18-1.44-.81-2.86-1.63-4.27-2.47-2.5-1.48-5-2.95-7.54-4.36-1.76-.98-3.5-1.99-5.23-3.01-1.66-.98-3.32-1.96-5-2.89-3.68-2.13-7.32-4.31-11.03-6.4-.52-.29-1.56-.89-2.08-1.18-2.59-1.52-5.23-2.96-7.85-4.43-3.24-1.86-6.42-3.85-9.7-5.65-.57-.33-1.7-.97-2.26-1.3-1.87-1.06-3.76-2.09-5.63-3.15-.11-.07-.35-.21-.46-.28l-.5-.3c-1.45-.93-2.87-1.9-4.36-2.77-1.38-.77-2.78-1.49-4.18-2.21-.11 3.04-.12 6.08-.02 9.12-.47.28-1.41.83-1.88 1.11l-2.13 1.2c.01-6.69-.09-13.37.02-20.06M181.1 44.47l.19-.13c1.16.97 2.33 1.96 3.69 2.64 6.8 3.38 13.26 7.39 19.82 11.2 24 13.65 47.84 27.56 71.78 41.33 4.93 2.71 9.74 5.63 14.42 8.75.02 24.82-.1 49.63.09 74.44-1.57-1.05-3.8-1.63-4.24-3.74.03-1.99.1-3.97.14-5.95l.02-1.01c.01-1.76-.03-3.53-.03-5.29-.01-1.65-.01-3.31 0-4.96l-.06-4.67c-.01-1.12 0-2.23.01-3.34l.04-1.76c0-1.73-.03-3.45-.05-5.18-.01-1.9.01-3.8.03-5.71l.06-6.99c0-1.66.01-3.32 0-4.97l-.08-3.47c-.01-.71-.04-2.13-.05-2.84 0-.47.02-1.42.02-1.9l.03-4.86c.01-1.39.02-2.79.02-4.18l-1.11-.41c-4.05-1.86-7.65-4.52-11.54-6.67-3.66-2.1-7.18-4.44-11.01-6.21-2.83-1.61-5.55-3.39-8.39-4.98-.45-.24-1.36-.71-1.81-.95-3.38-1.75-6.54-3.88-9.84-5.76-1.75-1.04-3.51-2.07-5.32-2.99-5.4-2.86-10.44-6.34-15.82-9.25-3.67-2.04-7.24-4.28-10.95-6.26-6.22-3.45-12.46-6.85-18.47-10.65-1.11-.66-2.21-1.32-3.3-1.99-1.4-.85-2.79-1.69-4.2-2.53-.15 2.95-.21 5.91-.19 8.87-1.19.71-2.38 1.42-3.57 2.12l-.42.24c.06-6.67-.16-13.33.09-19.99m-72.55 43.22c5.94 1.81 11.09 5.36 16.43 8.4 21.35 12.29 42.67 24.63 64.03 36.89 9.95 5.92 20.25 11.25 29.93 17.63-.15 24.74-.24 49.48.03 74.22-.74-.28-2.23-.83-2.97-1.11-2.19-2.78-.98-6.57-1.28-9.81 0-2.03-.03-4.05-.04-6.08-.02-1.74-.02-3.49-.01-5.23.01-1.49.03-2.98.05-4.47.14-7.46.05-14.92.02-22.38-.02-1.6-.05-3.19-.05-4.78-.01-1.54.01-3.07.05-4.6.11-3.17.07-6.34 0-9.5-.02-.65-.05-1.94-.07-2.59-4.57-2.77-9.43-5.01-13.97-7.83-2.12-1.25-4.29-2.42-6.42-3.66-1.65-.94-3.28-1.93-4.93-2.88-2.58-1.56-5.15-3.14-7.8-4.57-1.44-.79-2.87-1.58-4.29-2.39-2.57-1.46-5.16-2.88-7.69-4.38-2.68-1.65-5.43-3.16-8.15-4.73-1.69-.97-3.36-1.97-5.07-2.9-2.68-1.5-5.31-3.06-7.95-4.61-2.67-1.56-5.4-3.01-8.06-4.58-1-.58-1.98-1.16-2.97-1.73-1.15-.68-2.28-1.38-3.41-2.08-.98-1.18-2.26-2.07-3.8-2.29-.36-.17-1.08-.52-1.45-.69-.55-.31-1.66-.92-2.22-1.22-1.86-1.1-3.76-2.15-5.68-3.14-.12-.07-.37-.2-.5-.27l-.55-.31c-.73-1.15-1.87-1.95-3.22-2.13-1.32-.68-2.6-1.41-3.89-2.13-.53 2.55-.39 5.15.17 7.67-1.14.68-2.29 1.34-3.45 1.99l-.75.41c-.19-6.04-.17-12.09-.07-18.14M11.4 170.97l2.7 1.14c.07.91.23 2.73.3 3.64-1.82.02-2.3-1.76-2.93-3.03-.02-.44-.05-1.31-.07-1.75" />
  <path fill="#f6ad64"
    d="M276.11 9.96c1.6-.93 3.13-2.04 4.9-2.64 2.46-.89 4.76.88 6.83 1.95-1.74 1.65-3.75 2.98-5.89 4.06-1.94-1.13-3.88-2.26-5.84-3.37m16.75 2.35c2.3-1.26 4.42-3.26 7.17-3.35 2.09.29 3.89 1.51 5.71 2.51-4.13 3.19-9 5.13-13.45 7.78-1.83-1.04-3.66-2.09-5.48-3.14 2.03-1.24 4.04-2.51 6.05-3.8m-38.59 10.11 2.13-1.2c1.61 1.16 3.24 2.31 4.95 3.33-18.77 9.31-36.78 20.11-55.45 29.63l-3.51-2.01c17.29-9.93 34.59-19.84 51.88-29.75m57.92.6c1.27-.75 2.53-1.53 3.91-2.09 2.72-.9 5.19 1.04 7.44 2.25-3.65 2.87-7.87 4.85-11.82 7.26-2.05-1.17-4.1-2.35-6.14-3.52 2.2-1.29 4.41-2.58 6.61-3.9m-99.32 35.19c17.98-10.13 35.67-20.77 53.76-30.69 1.57.88 3.14 1.75 4.69 2.67-18.12 10.33-36.63 19.95-54.88 30.04-1.2-.67-2.39-1.34-3.57-2.02m116.24-20.64c1.88-1.18 3.73-2.53 5.92-3.09 3.5.15 6.37 2.58 9.13 4.5-3.84.93-7.56 2.25-11.24 3.69-2.07-1.2-4.16-2.37-6.24-3.54.61-.39 1.83-1.17 2.43-1.56m17.36 4.28c2.14-1.27 4.22-2.77 6.63-3.5 2.5-.31 4.64 1.34 6.73 2.45-4.89 3.15-10 5.93-15.15 8.62-1.79-1.02-3.57-2.05-5.35-3.08 2.38-1.5 4.75-3 7.14-4.49m-114.5 27.31c17.69-10.42 35.65-20.38 53.38-30.72 1.69.88 3.41 1.74 5.07 2.7-8.28 5.42-17.27 9.68-25.94 14.44-9.43 5.5-19.35 10.13-28.67 15.81-1.28-.75-2.56-1.5-3.84-2.23m21.6 11.65c17.51-10.13 35.09-20.14 52.64-30.2 1.8.83 3.59 1.69 5.34 2.61-6.43 4.63-13.76 7.78-20.55 11.82-11.51 5.95-22.76 12.4-34.23 18.43-1.33-.76-2.65-1.51-3.97-2.25.19-.1.57-.31.77-.41m112.69-28.33c1.74-.92 3.59-2.41 5.69-1.82 2.35.73 4.43 2.12 6.49 3.44-4.06 2.85-8.69 4.69-12.93 7.23-2.41-1.39-4.88-2.69-7.28-4.1 2.67-1.59 5.37-3.14 8.03-4.75m-173.57 5.27c6.01 3.8 12.25 7.2 18.47 10.65-.62.09-1.84.25-2.46.33-.88-.44-1.76-.87-2.64-1.3-1.88-.92-3.56-2.18-5.27-3.37-1.51-.88-3.09-1.64-4.65-2.41-1.79-.89-3.5-1.93-5.19-2.99zm72.75 30.68c17.76-10.33 35.58-20.59 53.47-30.7 1.55.82 3.1 1.65 4.63 2.5-7.29 5.09-15.53 8.62-23.17 13.15-10.62 5.49-20.94 11.54-31.58 17-1.12-.66-2.23-1.3-3.35-1.95m67.25-16.69c1.92-1.13 3.91-2.14 5.94-3.06 1.35.84 2.67 1.71 4.02 2.55-3.52 3.67-8.69 4.86-12.83 7.64-13.92 7.56-27.79 15.21-41.81 22.58-1.18-.68-2.35-1.35-3.53-2.03 16.03-9.29 32.17-18.4 48.21-27.68m-91.33 16.04c.47-.22 1.41-.66 1.89-.88 3.3 1.88 6.46 4.01 9.84 5.76-.54-.06-1.62-.19-2.15-.26-.36-.03-1.07-.11-1.42-.14-2.79-1.36-5.47-2.93-8.16-4.48m12.98 7.72.56-1.89c2.84 1.59 5.56 3.37 8.39 4.98-3.21-.29-6.13-1.65-8.95-3.09m19.96 9.3c3.89 2.15 7.49 4.81 11.54 6.67l-1.95-.12-.72 1.48c-.01-.35-.05-1.04-.06-1.39-1.29-.79-2.6-1.52-3.94-2.2-1.9-.94-3.82-1.81-5.74-2.7.22-.43.65-1.3.87-1.74" />
  <path fill="#dd904a"
    d="M287.84 9.27c1.47.99 2.82 2.13 4.24 3.19l.78-.15c-2.01 1.29-4.02 2.56-6.05 3.8-1.62-.93-3.24-1.85-4.86-2.78 2.14-1.08 4.15-2.41 5.89-4.06" />
  <path fill="#5e5e5e"
    d="M258.3 10.99c1.4.72 2.8 1.44 4.18 2.21-.01 1.49-.03 2.97-.05 4.46-1.4.8-2.77 1.63-4.15 2.45-.1-3.04-.09-6.08.02-9.12m-73.11 42.24c1.41.84 2.8 1.68 4.2 2.53-.07 1.29-.13 2.58-.19 3.87-1.41.81-2.8 1.64-4.2 2.47-.02-2.96.04-5.92.19-8.87M363.9 66.08c1.68-.79 3.37-1.56 5.07-2.29-.11 1.77-.2 3.53-.23 5.3-.05 2.97.01 5.94.04 8.91.01.87.02 2.59.02 3.46 0 1.89-.02 3.78-.02 5.67-.02 2.34-.04 4.68-.03 7.02 0 2.02.02 4.04.04 6.06v3.89c0 1.92.01 3.84.01 5.77 0 .92-.01 2.75-.02 3.67-.02 1.83-.03 3.65-.01 5.48.01 1.94.03 3.87.04 5.81-.08 3.75-.12 7.51.14 11.26-.31 3.1-3.65 3.73-6.17 3.92l.61-.45c.99-3.09.62-6.36.62-9.54-.1-21.32.12-42.63-.11-63.94m-251.08 37.35c-.56-2.52-.7-5.12-.17-7.67 1.29.72 2.57 1.45 3.89 2.13 0 .85.02 2.55.02 3.4-1.27.68-2.51 1.41-3.74 2.14M291 108.26c1.43-.81 2.86-1.62 4.3-2.43-.04 1.73-.06 3.47-.06 5.2 0 1.66.02 3.31.05 4.97l.04 2.98c-.01.51-.02 1.53-.03 2.04 0 .65-.02 1.96-.03 2.61-.02 2.11-.02 4.22-.02 6.32-.01 2.04-.01 4.09 0 6.13 0 2.02 0 4.04.01 6.06 0 1.64.01 3.29.01 4.94l-.01 1.34c-.01 1.46.01 2.93.02 4.4-.01.71-.01 2.13-.02 2.84 0 1.83.01 3.65.01 5.49-.01 2.31-.04 4.63-.05 6.95-.09 3.98.27 7.98-.13 11.95-1.08 1.21-2.66 1.8-4 2.65-.19-24.81-.07-49.62-.09-74.44m-68.37 39.77c.11.24.33.73.44.97.03 2.71-.04 5.42.02 8.14 0 .58.01 1.74.02 2.32v2.92c-.03 1.16-.05 2.31-.07 3.47-.02 1.78-.02 3.56-.01 5.34 0 1.98-.02 3.96-.02 5.94 0 2.07.01 4.13.03 6.2.01 1.58.02 3.16.02 4.74 0 .49 0 1.49-.01 1.98l.03 3.97c0 1.27-.02 2.54-.03 3.81-.03 1.69-.04 3.39-.05 5.08-.02 2.28-.05 4.56-.05 6.84 0 3.18.15 6.37.1 9.55-.07 1.15-.15 2.31-.25 3.46-1.28.68-2.56 1.37-3.83 2.07-.27-24.74-.18-49.48-.03-74.22zm120.02 31.2c.84-.93 1.69-1.85 2.56-2.76l1.15.81c.31 1.84-.08 3.62-1.21 5.13l-1.4.36c-.33-1.19-.69-2.38-1.1-3.54m-218.19 42.69c8.79-4.29 16.71-10.19 25.61-14.28.59 1.72 1.21 3.48 1.15 5.34 0 12.13-.08 24.27.03 36.41l.01.5-1.21.3c.35-13.58.24-27.18.07-40.76-1.95.38-3.81 1.09-5.48 2.18-5.84 3.57-11.8 6.95-17.7 10.44-2.12 1.09-2.07 3.84-2.82 5.83l-.19.73c-3.5 10.73-6.62 21.58-10.08 32.32-1.31 3.99-.72 8.25-.79 12.37-.34.19-1.02.58-1.36.77.41-4-.04-8.06.68-12.02 3.92-13.4 8.59-26.61 12.08-40.13m175.25-.77c1.28-.8 2.79-1.03 4.25-1.26.49.24 1.46.7 1.95.93-.6 1.03-1.18 2.08-1.78 3.11-1.67-.6-3.98-.68-4.42-2.78" />
  <path fill="#da8e47"
    d="M292.29 19.25c4.45-2.65 9.32-4.59 13.45-7.78 1.33.94 2.59 1.98 3.78 3.1-4.25 2.41-8.48 4.88-12.72 7.31-1.5-.89-3-1.76-4.51-2.63" />
  <path fill="#b66728"
    d="M296.8 21.88c4.24-2.43 8.47-4.9 12.72-7.31.95 1.58 1.75 3.26 2.28 5.03-3.29 1.6-6.48 3.41-9.52 5.46-1.84-1.04-3.67-2.11-5.48-3.18" />
  <path fill="#a65d26"
    d="M262.43 17.66c1.39-.76 2.82-1.48 4.41-1.69l.5.3c.11.07.35.21.46.28 1.87 1.06 3.76 2.09 5.63 3.15-4.24.48-8.33 2.13-11.27 5.29-.2-.11-.61-.33-.81-.44-1.71-1.02-3.34-2.17-4.95-3.33.47-.28 1.41-.83 1.88-1.11 1.38-.82 2.75-1.65 4.15-2.45m43.78 32.95c3.52-1.9 7.04-3.82 10.37-6.05 2.54 1.41 5.04 2.88 7.54 4.36-4.09.64-7.75 2.65-10.89 5.27-.56-.33-1.12-.66-1.68-.97-1.75-.92-3.54-1.78-5.34-2.61m22.18.78c3.03 1.7 6.03 3.46 9.05 5.18-4.24.29-7.97 2.41-10.96 5.33-.98-.56-1.96-1.12-2.94-1.67-1.53-.85-3.08-1.68-4.63-2.5l.31-.16c3.25-1.73 6.93-3.08 9.17-6.18" />
  <path fill="#d19258" d="M267.34 16.27c.11.07.35.21.46.28-.11-.07-.35-.21-.46-.28" />
  <path fill="#914c21"
    d="M262.16 24.99c2.94-3.16 7.03-4.81 11.27-5.29.56.33 1.69.97 2.26 1.3-1.67 3.44-5.61 4.47-8.65 6.31-.94-.38-1.86-.78-2.78-1.19-.52-.29-1.58-.85-2.1-1.13" />
  <path fill="#79421b"
    d="M302.28 25.06c3.04-2.05 6.23-3.86 9.52-5.46.1.85.29 2.57.39 3.42-2.2 1.32-4.41 2.61-6.61 3.9-1.1-.62-2.21-1.24-3.3-1.86m19.05 10.96c2.64-1.78 5.45-3.31 8.38-4.56.43 2.07.12 4.15-.6 6.11-.6.39-1.82 1.17-2.43 1.56-1.8-1.02-3.58-2.06-5.35-3.11m-68.38 16.86c9.79-5.39 19.34-11.24 29.33-16.24.91.56 1.83 1.1 2.76 1.63l.31.17c-17.73 10.34-35.69 20.3-53.38 30.72-1.23-.71-2.48-1.39-3.71-2.08 8.01-5.11 16.52-9.36 24.69-14.2m42.58-9.11c3.17-2.43 6.57-5.21 10.82-5.11 1.68.93 3.34 1.91 5 2.89a93 93 0 0 0-9.68 5.26c.84 1.06 1.68 2.13 2.52 3.2-2.62 1.83-5.38 3.44-8.19 4.95-13.68 7.73-27.24 15.69-40.96 23.34-.92.49-1.87 1.25-1.47 2.51-.2.1-.58.31-.77.41-1.87-1-3.69-2.09-5.51-3.17 17.62-10.56 35.88-20.03 53.46-30.66-1.74-1.21-3.48-2.42-5.22-3.62m70.27 4.45c.2 1.41.32 2.84.46 4.26-2.66 1.61-5.36 3.16-8.03 4.75l-3.6-2.04c3.72-2.33 7.76-4.16 11.17-6.97m2.94 20.87c4.78-2.53 9.28-5.61 14.36-7.56.11 1.92.49 4.11-.82 5.73-1.24 1.33-2.91 2.13-4.41 3.09.72.47 1.45.94 2.18 1.42-3.83 1.95-7.49 4.2-11.27 6.23-.03-2.97-.09-5.94-.04-8.91m-34.39-2.76c1.36.75 2.73 1.47 4.08 2.23l.2.12c-2.03.92-4.02 1.93-5.94 3.06-16.04 9.28-32.18 18.39-48.21 27.68-1.29-.74-2.58-1.47-3.87-2.2 17.82-10.46 36.19-20.01 53.74-30.89m34.43 20.8c5.7-2.89 11.14-6.26 16.65-9.5.74 2.5 1.17 5.16.39 7.71-6.2 1.81-11.38 5.9-17.07 8.81-.01-2.34.01-4.68.03-7.02M206.1 78.99c1.31.75 2.61 1.51 3.93 2.24l.3.16c-17.18 9.91-34.41 19.71-51.59 29.6-1.37-.78-2.74-1.57-4.1-2.35 2.78-2.04 5.87-3.6 8.94-5.18 10.41-5.9 20.96-11.57 31.32-17.58 3.73-2.28 7.89-3.96 11.2-6.89m89.14 32.04c18.16-10.44 36.49-20.59 54.66-31.01-.13 1.69-.04 3.47-.71 5.06-18.02 10.19-36.13 20.29-53.9 30.92-.03-1.66-.05-3.31-.05-4.97m63.07-16.79c.72-1.48 1.5-2.93 2.19-4.43.08 8.16.22 16.33-.06 24.49l-.35-.76c-1.02-2.16-2.47-4.33-2.03-6.85.19-2.24.28-4.5.13-6.75q-.15-2.85.12-5.7m-168.6 16.41c12.17-6.59 24.05-13.7 36.26-20.18l.42.21c.78.4 2.34 1.2 3.13 1.6-4.48 3.89-10.07 6.12-15.07 9.24-11.92 7.05-24.19 13.52-35.99 20.77-1.45-.8-2.89-1.6-4.32-2.42 4.88-3.56 10.44-6.03 15.57-9.22m179.08-10.44c3.86-2.06 7.6-4.33 11.48-6.36 1.18 3.63-.89 8.18-5.09 8.21-2.2.42-4.34 1.13-6.39 2.04zm-28.25 3.24c3.27-2.2 8.07-3.24 9.26-7.49v1.17c.03 2.38.05 4.76.04 7.14v.72c-18.3 10.18-36.44 20.65-54.59 31.09-.01-2.04-.01-4.09 0-6.13 14.8-9.31 30.3-17.48 45.29-26.5m-88.55.47c2.86-1.53 5.57-3.64 8.82-4.24 2.2.68 4.16 1.94 6.23 2.92-3.24 1.44-6.46 2.98-9.25 5.21 1.63 1.33 3.3 2.63 5.09 3.77l.24.15c-17.33 9.67-34.52 19.58-51.68 29.55-1.98-1.11-3.96-2.23-5.92-3.36 3.94-3.03 8.41-5.23 12.84-7.44 13-7.19 26.08-14.21 39.15-21.26a49.4 49.4 0 0 1-5.52-5.3M322 127.09c9.33-5.09 18.25-10.96 27.89-15.45-.07 1.35-.15 2.71-.24 4.06-18 10.68-36.47 20.58-54.38 31.38 0-1.65-.01-3.3-.01-4.94 9.01-4.86 17.78-10.13 26.74-15.05m46.77-8.07c4.76-2.43 9.17-5.55 14.2-7.44.22 1.78.27 3.58.18 5.38-4.89 2.43-9.4 5.54-14.34 7.87-.01-1.94-.03-3.87-.04-5.81m-16.87 3.94c1.49-1.21 3.2-2.18 5.04-2.74 1.64.76 1.06 2.95 1.56 4.4.5-.13 1.49-.38 1.99-.51.01 2.11 0 4.22-.01 6.33-3.12.12-2.42-3.31-3.01-5.37-2.49.96-4.9 2.1-7.23 3.38-.37 2.81-.6 5.63-.66 8.46-18.07 10.47-36.28 20.72-54.36 31.19.01-2.32.04-4.64.05-6.95 7.7-3.78 14.94-8.39 22.42-12.58 10.31-6.02 20.79-11.75 31.02-17.91.83-2.61.77-5.93 3.19-7.7M232.97 144c13.87-7.91 28.22-14.95 41.99-23.04l.23 1.2c-.39 2.27.1 5.44-2.45 6.57-16.58 9.41-33.18 18.8-49.65 28.41-.06-2.72.01-5.43-.02-8.14 3.38-1.5 6.7-3.15 9.9-5m13.11 14c9.61-5.63 19.49-10.83 28.8-16.96.02 2.41-.26 4.8-.55 7.19-17.31 9.25-34.08 19.52-51.32 28.9 0-1.98.02-3.96.02-5.94 7.84-4.11 15.35-8.82 23.05-13.19m37.21-8.73c.97-1.12 2.4-1.68 3.63-2.47.02 1.73.05 3.45.05 5.18-1.35.64-2.7 1.28-4.05 1.91.08-1.54-.01-3.11.37-4.62m-8.75 4.59c.13 1.57.18 3.15.24 4.73-17.25 9.8-34.48 19.66-51.72 29.48 0-1.58-.01-3.16-.02-4.74 17.27-9.63 34.53-19.31 51.5-29.47m-63.52 4.27c1.23-.42 2.48-.84 3.72-1.26.07 3.16.11 6.33 0 9.5-1.08.71-2.24 1.29-3.4 1.84.09-2.04 1.5-3.56 2.62-5.12-.95.15-1.9.31-2.85.47q-.06-2.715-.09-5.43m65.62 8.49c1.77-1.47 3.96-2.26 6.06-3.12.27 1.42.54 2.84.82 4.27 1.15-.35 2.3-.71 3.46-1.06 0 1.76.04 3.53.03 5.29-1.25.35-2.5.69-3.74 1.04-.2-1.53-.39-3.07-.58-4.6-2.81.99-5.61 2.35-7.51 4.71-.57 2.19-.5 4.47-.6 6.7-17.15 10.06-34.58 19.66-51.63 29.9 0-2.28.03-4.56.05-6.84 16.35-9.78 33.03-19.03 49.56-28.5 2.65-1.71 1.77-5.79 4.08-7.79M211 178.04c1.24-.76 2.49-1.53 3.74-2.29.03 7.46.12 14.92-.02 22.38-1.43 1.07-2.8 2.24-3.92 3.64-3.66 3.76-9.03 3.93-13.67 5.66-.63-.28-1.88-.85-2.51-1.13 2.43-1.4 4.91-2.73 7.42-4 .65.67 1.3 1.35 1.96 2.03 2.25-1.42 4.99-2.46 6.42-4.84 1.16-1.81 2.28-3.65 3.51-5.4-.92.16-1.84.32-2.76.49-.16-1.27-.33-2.55-.49-3.81l.64-.44c1.03-.73 2.06-1.47 2.93-2.38.23-1.65.07-3.3.03-4.95-1.04.2-2.07.4-3.1.6-.04-1.86-.07-3.71-.18-5.56" />
  <path fill="#ad5e27"
    d="M275.69 21c3.28 1.8 6.46 3.79 9.7 5.65-3.64 1.11-7.16 2.69-10.11 5.14 1.73 1.34 3.5 2.65 5.36 3.83.41.25 1.23.76 1.64 1.02-9.99 5-19.54 10.85-29.33 16.24-8.17 4.84-16.68 9.09-24.69 14.2-2.3-1.28-4.55-2.62-6.81-3.96 13.69-8.03 27.86-15.2 41.75-22.87 4.01-2.56 8.69-3.99 12.32-7.15-1.38-1.01-2.76-2.01-4.2-2.91-1.55-.92-3.12-1.79-4.69-2.67l.41-.21c3.04-1.84 6.98-2.87 8.65-6.31" />
  <path fill="#d98c45"
    d="M323.54 23.18c1.42 1 2.73 2.15 3.96 3.38-3.77 2.08-7.47 4.27-11.12 6.57-1.55-.91-3.1-1.8-4.66-2.69 3.95-2.41 8.17-4.39 11.82-7.26" />
  <path fill="#e2964e"
    d="M205.9 54.18c18.67-9.52 36.68-20.32 55.45-29.63.2.11.61.33.81.44.52.28 1.58.84 2.1 1.13-13.57 7.92-27.61 15.02-41.33 22.71-4.45 2.49-9.21 4.44-13.36 7.46-1.22-.71-2.45-1.41-3.67-2.11" />
  <path fill="#c97b36"
    d="M264.26 26.12c.92.41 1.84.81 2.78 1.19l-.41.21c-18.09 9.92-35.78 20.56-53.76 30.69-1.1-.63-2.2-1.28-3.3-1.92 4.15-3.02 8.91-4.97 13.36-7.46 13.72-7.69 27.76-14.79 41.33-22.71" />
  <path fill="#82401c"
    d="M275.28 31.79c2.95-2.45 6.47-4.03 10.11-5.14 2.62 1.47 5.26 2.91 7.85 4.43-4.86-1.85-9.25 1.37-12.6 4.54-1.86-1.18-3.63-2.49-5.36-3.83" />
  <path fill="#b36528"
    d="M316.38 33.13c3.65-2.3 7.35-4.49 11.12-6.57.94 1.53 1.64 3.2 2.21 4.9a50.3 50.3 0 0 0-8.38 4.56c-1.65-.96-3.3-1.93-4.95-2.89" />
  <path fill="#da8e46"
    d="M271.32 30.19c1.44.9 2.82 1.9 4.2 2.91-3.63 3.16-8.31 4.59-12.32 7.15-13.89 7.67-28.06 14.84-41.75 22.87-1.66-.99-3.34-1.94-5.01-2.89 18.25-10.09 36.76-19.71 54.88-30.04m-50.96 45.86c.44-.35 1.32-1.04 1.75-1.39 5.38 2.91 10.42 6.39 15.82 9.25-2.62-.6-5.21-1.36-7.59-2.64-1.77-.9-3.54-1.79-5.31-2.69-1.57-.81-3.12-1.67-4.67-2.53m137.58 39.79c.73-.75 1.45-1.52 2.15-2.3l.35.76c.05 2.56.01 5.12.01 7.68-.1-.62-.31-1.85-.42-2.46-.49 0-1.48-.01-1.97-.01-.05-1.23-.09-2.45-.12-3.67" />
  <path fill="#512610"
    d="M280.64 35.62c3.35-3.17 7.74-6.39 12.6-4.54.52.29 1.56.89 2.08 1.18-3.16 2.43-6.62 4.43-10.28 6.01-.93-.53-1.85-1.07-2.76-1.63-.41-.26-1.23-.77-1.64-1.02m51.75 29.61c3.49-1.93 6.82-4.27 10.71-5.35 1.67.98 3.36 1.93 5.06 2.86-3.24 1.94-6.5 3.85-9.73 5.82-1.35-.76-2.72-1.48-4.08-2.23-.49-.28-1.47-.83-1.96-1.1" />
  <path fill="#a25926"
    d="M295.32 32.26c3.71 2.09 7.35 4.27 11.03 6.4-4.25-.1-7.65 2.68-10.82 5.11l-.57.42c-1.5-1.04-2.99-2.1-4.54-3.05-1.66-.96-3.38-1.82-5.07-2.7l-.31-.17c3.66-1.58 7.12-3.58 10.28-6.01" />
  <path fill="#cd7f3a"
    d="M344.16 38.98c.78.94 1.55 1.9 2.31 2.87-2.39 1.49-4.76 2.99-7.14 4.49-2.13-1.23-4.28-2.44-6.41-3.67 3.68-1.44 7.4-2.76 11.24-3.69" />
  <path fill="#d98d46"
    d="M290.42 41.14c1.55.95 3.04 2.01 4.54 3.05-17.94 10.36-36.45 19.73-54.52 29.88-1.55-.89-3.09-1.78-4.63-2.68 9.32-5.68 19.24-10.31 28.67-15.81 8.67-4.76 17.66-9.02 25.94-14.44" />
  <path fill="#da8d46"
    d="M359.83 40.8c1.35.93 2.6 2 3.78 3.14-4.43 3.24-9.55 5.31-14.2 8.18-1.57-.91-3.15-1.81-4.73-2.7 5.15-2.69 10.26-5.47 15.15-8.62m-36.29 19.43c.98.55 1.96 1.11 2.94 1.67.55.31 1.64.94 2.19 1.25-11.75 7.33-24.38 13.17-36.34 20.14-6.05 3.31-12.51 5.99-17.93 10.33-1.87-1.08-3.74-2.15-5.61-3.24 10.64-5.46 20.96-11.51 31.58-17 7.64-4.53 15.88-8.06 23.17-13.15" />
  <path fill="#4f2610"
    d="M301.67 46.81c3.12-1.94 6.35-3.7 9.68-5.26 1.73 1.02 3.47 2.03 5.23 3.01-3.33 2.23-6.85 4.15-10.37 6.05-17.55 10.06-35.13 20.07-52.64 30.2-.4-1.26.55-2.02 1.47-2.51 13.72-7.65 27.28-15.61 40.96-23.34 2.81-1.51 5.57-3.12 8.19-4.95-.84-1.07-1.68-2.14-2.52-3.2M206.1 78.99c1.64-3.56 6.19-4.03 9.2-6.05 1.66.76 3.35 1.48 5.02 2.21-3.06 2.6-6.65 4.43-10.29 6.08-1.32-.73-2.62-1.49-3.93-2.24m143.76.23c2.59-1.14 5.19-2.3 7.79-3.45.21 1.3.41 2.6.63 3.89.42-.15 1.26-.46 1.68-.62.01 1.87-1.19 3.4-2.12 4.91-3.09 2.68-6.69 4.53-10.74 5.09-17.26 9.96-34.56 19.89-51.77 29.94l-.04-2.98c17.77-10.63 35.88-20.73 53.9-30.92.67-1.59.58-3.37.71-5.06zM226.39 90.68c2.02-2.93 5.4-4.44 8.68-5.5 2.3-.1 4.2 1.63 6.21 2.56-3.28 2.07-6.68 3.93-10.07 5.8-17.1 9.88-34.32 19.55-51.36 29.53-.35-.2-1.04-.59-1.39-.78 11.8-7.25 24.07-13.72 35.99-20.77 5-3.12 10.59-5.35 15.07-9.24-.79-.4-2.35-1.2-3.13-1.6m123.41 6.45c2.85-1.42 5.71-2.83 8.56-4.25l-.05 1.36q-.27 2.85-.12 5.7c-2.6 1.76-5.39 3.26-8.35 4.33.01-2.38-.01-4.76-.04-7.14m.44 31.32c2.33-1.28 4.74-2.42 7.23-3.38.59 2.06-.11 5.49 3.01 5.37 0 .25-.01.73-.01.98-3.83 1.42-7.37 3.44-10.89 5.49.06-2.83.29-5.65.66-8.46m-75.06 44.7c1.9-2.36 4.7-3.72 7.51-4.71.19 1.53.38 3.07.58 4.6 1.24-.35 2.49-.69 3.74-1.04l-.02 1.01c-4 2.52-8.32 4.49-12.41 6.84.1-2.23.03-4.51.6-6.7" />
  <path fill="#af6127"
    d="m294.96 44.19.57-.42c1.74 1.2 3.48 2.41 5.22 3.62-17.58 10.63-35.84 20.1-53.46 30.66-2.28-1.33-4.57-2.65-6.85-3.98 18.07-10.15 36.58-19.52 54.52-29.88" />
  <path fill="#b46628"
    d="M363.61 43.94c.82 1.38 1.52 2.82 2.19 4.28-3.41 2.81-7.45 4.64-11.17 6.97-1.75-1-3.49-2.04-5.22-3.07 4.65-2.87 9.77-4.94 14.2-8.18" />
  <path fill="#8a461f"
    d="M313.23 54.19c3.14-2.62 6.8-4.63 10.89-5.27 1.41.84 2.83 1.66 4.27 2.47-2.24 3.1-5.92 4.45-9.17 6.18-.97-.44-1.92-.9-2.87-1.38-1.05-.66-2.09-1.32-3.12-2" />
  <path fill="#d78a44"
    d="M311.55 53.22c.56.31 1.12.64 1.68.97 1.03.68 2.07 1.34 3.12 2-5.45 4.21-11.95 6.64-17.82 10.18-7.39 4.01-14.77 8.05-22.2 12-4.59 2.85-9.92 4.55-13.87 8.37-1.91-1.08-3.8-2.18-5.69-3.27 11.47-6.03 22.72-12.48 34.23-18.43 6.79-4.04 14.12-7.19 20.55-11.82" />
  <path fill="#ce813b"
    d="M378.44 54.1c1.1 1.03 2.12 2.14 3.07 3.32-4.11 2.24-7.88 5.33-12.54 6.37-1.13-.85-2.27-1.69-3.46-2.46 4.24-2.54 8.87-4.38 12.93-7.23M213.9 83.18c.52.26 1.04.54 1.55.83 1.43.93 2.8 1.95 4.17 2.97-13.21 7.84-27.05 14.57-40.4 22.19-3.89 2.34-8.23 3.92-11.81 6.78-2.09-1.22-4.2-2.4-6.3-3.59 4.92-1.83 9.43-4.52 13.97-7.09 8.93-4.75 17.84-9.54 26.66-14.48 4.17-2.32 9-3.83 12.16-7.61" />
  <path fill="#b96a29"
    d="M316.35 56.19c.95.48 1.9.94 2.87 1.38l-.31.16c-17.89 10.11-35.71 20.37-53.47 30.7-1-.56-1.99-1.13-2.98-1.69 3.95-3.82 9.28-5.52 13.87-8.37 7.43-3.95 14.81-7.99 22.2-12 5.87-3.54 12.37-5.97 17.82-10.18" />
  <path fill="#86431e"
    d="M326.48 61.9c2.99-2.92 6.72-5.04 10.96-5.33 1.89 1.1 3.77 2.21 5.66 3.31-3.89 1.08-7.22 3.42-10.71 5.35-1.25-.7-2.49-1.39-3.72-2.08-.55-.31-1.64-.94-2.19-1.25m-57.85 52.97c3.3-2.24 6.68-4.46 10.54-5.63 1.34.68 2.65 1.41 3.94 2.2-2.98 2.12-6.12 4-9.13 6.07-.91-.4-1.81-.79-2.69-1.22-.66-.36-2-1.07-2.66-1.42" />
  <path fill="#af6027"
    d="M368.97 63.79c4.66-1.04 8.43-4.13 12.54-6.37.58 1.34 1.13 2.71 1.59 4.11-5.08 1.95-9.58 5.03-14.36 7.56.03-1.77.12-3.53.23-5.3m-40.3-.64c1.23.69 2.47 1.38 3.72 2.08.49.27 1.47.82 1.96 1.1-17.55 10.88-35.92 20.43-53.74 30.89q-3.12-1.785-6.21-3.6c5.42-4.34 11.88-7.02 17.93-10.33 11.96-6.97 24.59-12.81 36.34-20.14m-57.38 53.14c.88.43 1.78.82 2.69 1.22.34 1.15.67 2.3.98 3.45-13.77 8.09-28.12 15.13-41.99 23.04-3.2 1.85-6.52 3.5-9.9 5-.11-.24-.33-.73-.44-.97-1.35-1-2.75-1.92-4.19-2.79 17.42-10.01 35.37-19.05 52.85-28.95" />
  <path fill="#a35b26"
    d="M189.2 59.63c.58-.33 1.16-.65 1.75-.97 1.69 1.06 3.4 2.1 5.19 2.99-3.44 1.6-7.31 2.79-9.72 5.91-.61-.36-1.21-.74-1.81-1.13-1.07-.73-2.13-1.47-3.18-2.21 1.19-.7 2.38-1.41 3.57-2.12 1.4-.83 2.79-1.66 4.2-2.47m11.59 4.43c1.71 1.19 3.39 2.45 5.27 3.37-3.58 1.48-6.97 3.37-10.28 5.37-.28-.16-.85-.48-1.13-.64-.75-.42-2.24-1.26-2.99-1.69l.3-.16c3.14-1.78 6.53-3.36 8.83-6.25" />
  <path fill="#89451f"
    d="M186.42 67.56c2.41-3.12 6.28-4.31 9.72-5.91 1.56.77 3.14 1.53 4.65 2.41-2.3 2.89-5.69 4.47-8.83 6.25-1.11-.48-2.22-.95-3.31-1.47-.56-.32-1.67-.96-2.23-1.28" />
  <path fill="#a45926"
    d="M338.43 68.56c3.23-1.97 6.49-3.88 9.73-5.82 3.38 1.8 6.62 3.84 9.95 5.73-2.82 1.73-5.94 2.98-8.51 5.07-.15 1.89.15 3.79.26 5.68l.04.8c-18.17 10.42-36.5 20.57-54.66 31.01 0-1.73.02-3.47.06-5.2 13.76-7.41 27.49-14.86 41.24-22.29 4.09-2.68 8.83-4.21 12.7-7.23-.91-.94-1.79-1.89-2.74-2.79-1.28-.78-2.57-1.51-3.85-2.29-1.35-.84-2.67-1.71-4.02-2.55z" />
  <path fill="#f3a960"
    d="m181.01 64.46.42-.24c1.05.74 2.11 1.48 3.18 2.21-2.34 2.27-5.39 3.49-8.26 4.94-14.71 8.2-29.65 15.97-44.36 24.18-.65-.37-1.96-1.13-2.62-1.51 17.18-9.92 34.39-19.77 51.64-29.58" />
  <path fill="#d68a43"
    d="M184.61 66.43c.6.39 1.2.77 1.81 1.13.56.32 1.67.96 2.23 1.28-11.37 7.17-23.58 12.93-35.31 19.51-5.55 3.49-11.76 5.82-17.11 9.64-1.42-.81-2.83-1.62-4.24-2.44 14.71-8.21 29.65-15.98 44.36-24.18 2.87-1.45 5.92-2.67 8.26-4.94" />
  <path fill="#8d4920"
    d="M195.78 72.8c3.31-2 6.7-3.89 10.28-5.37.88.43 1.76.86 2.64 1.3l1 1.18c-3.13 1.77-6.47 3.22-9.19 5.62-.2-.12-.59-.34-.78-.45-1.32-.76-2.64-1.52-3.95-2.28" />
  <path fill="#a25a26"
    d="M211.16 68.4c3.71 1.98 7.28 4.22 10.95 6.26-.43.35-1.31 1.04-1.75 1.39 1.55.86 3.1 1.72 4.67 2.53-3.19 1.82-6.39 3.6-9.58 5.43-.51-.29-1.03-.57-1.55-.83-1.2-.59-2.39-1.19-3.57-1.79l-.3-.16c3.64-1.65 7.23-3.48 10.29-6.08-1.67-.73-3.36-1.45-5.02-2.21-1.92-.92-3.84-1.83-5.6-3.03l-1-1.18c.62-.08 1.84-.24 2.46-.33" />
  <path fill="#bb6d2a"
    d="M188.65 68.84c1.09.52 2.2.99 3.31 1.47l-.3.16c-12.56 6.68-24.7 14.11-37.09 21.08-4.87 2.82-9.86 5.45-14.51 8.63-1.28-.73-2.55-1.46-3.83-2.19 5.35-3.82 11.56-6.15 17.11-9.64 11.73-6.58 23.94-12.34 35.31-19.51" />
  <path fill="#773718"
    d="M349.6 73.54c2.57-2.09 5.69-3.34 8.51-5.07.03 1.95.09 3.89.16 5.84.75.18 1.5.37 2.26.56q-.27 2.085-.57 4.17c-.42.16-1.26.47-1.68.62-.22-1.29-.42-2.59-.63-3.89-2.6 1.15-5.2 2.31-7.79 3.45-.11-1.89-.41-3.79-.26-5.68m-183.91 64.24c3.37-2.59 7.14-4.99 11.57-4.83 1.42.81 2.85 1.6 4.29 2.39-1.92 2.66-4.92 4.17-7.8 5.56-3.05 1.66-5.39-2.15-8.06-3.12" />
  <path fill="#ba702e"
    d="M358.11 68.47c.59.33 1.77.97 2.36 1.29.33 6.69.11 13.36.03 20.05-.69 1.5-1.47 2.95-2.19 4.43l.05-1.36c-.06-1.68-.23-3.35-.36-5.02-.1-1.3-.16-2.61-.16-3.91.93-1.51 2.13-3.04 2.12-4.91q.3-2.085.57-4.17c-.76-.19-1.51-.38-2.26-.56-.07-1.95-.13-3.89-.16-5.84" />
  <path fill="#753517"
    d="M209.7 69.91c1.76 1.2 3.68 2.11 5.6 3.03-3.01 2.02-7.56 2.49-9.2 6.05a98 98 0 0 0-5.59-3.46c2.72-2.4 6.06-3.85 9.19-5.62" />
  <path fill="#f4aa61"
    d="M154.57 91.55c12.39-6.97 24.53-14.4 37.09-21.08.75.43 2.24 1.27 2.99 1.69-4.14 3.31-9.21 5.07-13.66 7.88-13.09 6.94-26.07 14.07-39.05 21.2-.47-.27-1.41-.8-1.88-1.06 4.65-3.18 9.64-5.81 14.51-8.63" />
  <path fill="#de914a"
    d="M342.65 71.23c1.28.78 2.57 1.51 3.85 2.29-2.78 2.42-6.23 3.8-9.46 5.5-15.02 8.3-30.17 16.37-45.23 24.6-1.26-.74-2.53-1.46-3.8-2.17 14.02-7.37 27.89-15.02 41.81-22.58 4.14-2.78 9.31-3.97 12.83-7.64" />
  <path fill="#d58841"
    d="M194.65 72.16c.28.16.85.48 1.13.64 1.31.76 2.63 1.52 3.95 2.28-6.66 4.88-14.37 7.99-21.45 12.18-10.27 5.79-20.9 10.94-30.99 17.06-1.78-1.04-3.56-2.06-5.35-3.08 12.98-7.13 25.96-14.26 39.05-21.2 4.45-2.81 9.52-4.57 13.66-7.88" />
  <path fill="#eea45c"
    d="M368.78 78c3.78-2.03 7.44-4.28 11.27-6.23.85.58 1.69 1.18 2.52 1.81-4.52 2.75-9.11 5.37-13.77 7.88 0-.87-.01-2.59-.02-3.46m-145.67 84.38c17.29-9.41 34.03-19.82 51.29-29.3l.2 2.83.03.39a69 69 0 0 0-7.42 3.88c-14.64 8.69-29.59 16.86-44.17 25.67.02-1.16.04-2.31.07-3.47m35.68 11.25c5.42-2.93 10.45-6.61 16.22-8.84-.5 1.43-.35 3.45-2.06 4.09-16.61 9.69-33.41 19.07-49.9 28.95.01-1.27.03-2.54.03-3.81 12.09-6.46 23.78-13.64 35.71-20.39" />
  <path fill="#c27330"
    d="M346.5 73.52c.95.9 1.83 1.85 2.74 2.79-3.87 3.02-8.61 4.55-12.7 7.23-13.75 7.43-27.48 14.88-41.24 22.29-1.16-.75-2.31-1.5-3.49-2.21 15.06-8.23 30.21-16.3 45.23-24.6 3.23-1.7 6.68-3.08 9.46-5.5" />
  <path fill="#a75a26"
    d="M368.8 81.46c4.66-2.51 9.25-5.13 13.77-7.88 1.06 1.26 2 2.63 2.86 4.05-5.51 3.24-10.95 6.61-16.65 9.5 0-1.89.02-3.78.02-5.67" />
  <path fill="#a65926"
    d="M199.73 75.08c.19.11.58.33.78.45 1.9 1.09 3.76 2.24 5.59 3.46-3.31 2.93-7.47 4.61-11.2 6.89-10.36 6.01-20.91 11.68-31.32 17.58-3.07 1.58-6.16 3.14-8.94 5.18-2.48-1.4-4.91-2.87-7.35-4.32 10.09-6.12 20.72-11.27 30.99-17.06 7.08-4.19 14.79-7.3 21.45-12.18" />
  <path fill="#8b471f"
    d="M215.45 84.01c3.19-1.83 6.39-3.61 9.58-5.43 1.77.9 3.54 1.79 5.31 2.69-3.58 1.24-7.08 2.82-10.04 5.24-.17.12-.51.35-.68.47-1.37-1.02-2.74-2.04-4.17-2.97" />
  <path fill="#f1a75e"
    d="M158.74 110.99c17.18-9.89 34.41-19.69 51.59-29.6 1.18.6 2.37 1.2 3.57 1.79-3.16 3.78-7.99 5.29-12.16 7.61-8.82 4.94-17.73 9.73-26.66 14.48-4.54 2.57-9.05 5.26-13.97 7.09zm33.61 19.34c17.04-10.13 34.33-19.85 51.55-29.68 1.19.67 2.39 1.34 3.57 2.04-4.51 3.35-9.77 5.42-14.55 8.31-10.43 5.53-20.73 11.31-31.17 16.82-2.44 1.34-4.8 2.93-7.55 3.58-.46-.27-1.39-.8-1.85-1.07" />
  <path fill="#713215"
    d="M220.3 86.51c2.96-2.42 6.46-4 10.04-5.24 2.38 1.28 4.97 2.04 7.59 2.64 1.81.92 3.57 1.95 5.32 2.99-.48.22-1.42.66-1.89.88l-.08-.04c-2.01-.93-3.91-2.66-6.21-2.56-3.28 1.06-6.66 2.57-8.68 5.5l-.42-.21c-1.99-1.17-3.83-2.57-5.67-3.96m129.5 9.45c-.39-4.83 5.11-5.81 8.2-8.1.13 1.67.3 3.34.36 5.02-2.85 1.42-5.71 2.83-8.56 4.25z" />
  <path fill="#a85a26"
    d="M347.1 89.04c4.05-.56 7.65-2.41 10.74-5.09 0 1.3.06 2.61.16 3.91-3.09 2.29-8.59 3.27-8.2 8.1-1.19 4.25-5.99 5.29-9.26 7.49-14.99 9.02-30.49 17.19-45.29 26.5 0-2.1 0-4.21.02-6.32 1.9-.87 3.8-1.77 5.62-2.82 14.14-8.22 28.31-16.37 42.48-24.53 2.62-1.6 6.38-2.76 6.61-6.37-3.33 1.1-6.36 2.9-9.32 4.73-15.07 8.87-30.38 17.35-45.36 26.38.01-.51.02-1.53.03-2.04 17.21-10.05 34.51-19.98 51.77-29.94m33.52 17.85c.94 1.47 1.7 3.06 2.35 4.69-5.03 1.89-9.44 5.01-14.2 7.44-.02-1.83-.01-3.65.01-5.48 4.09-1.96 7.96-4.32 11.84-6.65M350.32 120c2.62-1.22 5.2-2.57 7.62-4.16.03 1.22.07 2.44.12 3.67.49 0 1.48.01 1.97.01.11.61.32 1.84.42 2.46l.04 2.13c-.5.13-1.49.38-1.99.51-.5-1.45.08-3.64-1.56-4.4-1.84.56-3.55 1.53-5.04 2.74-2.42 1.77-2.36 5.09-3.19 7.7-10.23 6.16-20.71 11.89-31.02 17.91-7.48 4.19-14.72 8.8-22.42 12.58 0-1.84-.01-3.66-.01-5.49 2.55-1.16 5.04-2.45 7.43-3.9 15.54-9.23 31.44-17.86 46.84-27.3l.24-2.51c-2.65 1.09-5.28 2.24-7.84 3.52 1.98-2.89 5.33-4.09 8.39-5.47" />
  <path fill="#563013"
    d="M368.75 94.15c5.69-2.91 10.87-7 17.07-8.81-1.91 2.15-4.55 3.38-6.99 4.78.49 1.24.99 2.47 1.44 3.73-3.88 2.03-7.62 4.3-11.48 6.36-.02-2.02-.04-4.04-.04-6.06m-73.5 41.93c18.15-10.44 36.29-20.91 54.59-31.09.01 2.02.06 4.05.06 6.07l-.01.58c-9.64 4.49-18.56 10.36-27.89 15.45-8.96 4.92-17.73 10.19-26.74 15.05-.01-2.02-.01-4.04-.01-6.06m-72.24 41.05c17.24-9.38 34.01-19.65 51.32-28.9-.13 1.88.04 3.76.21 5.63-16.97 10.16-34.23 19.84-51.5 29.47-.02-2.07-.03-4.13-.03-6.2" />
  <path fill="#a25725"
    d="M219.62 86.98c.17-.12.51-.35.68-.47 1.84 1.39 3.68 2.79 5.67 3.96-12.21 6.48-24.09 13.59-36.26 20.18-5.13 3.19-10.69 5.66-15.57 9.22-2.26-1.28-4.49-2.61-6.73-3.92 3.58-2.86 7.92-4.44 11.81-6.78 13.35-7.62 27.19-14.35 40.4-22.19m64.27 24.37 1.95.12 1.11.41c0 1.39-.01 2.79-.02 4.18-1.25.64-2.5 1.29-3.76 1.93 0-1.72-.01-3.44 0-5.16z" />
  <path fill="#9b5524"
    d="M231.21 93.54c3.39-1.87 6.79-3.73 10.07-5.8l.08.04c2.69 1.55 5.37 3.12 8.16 4.48-3.51 1.46-7.08 3-9.88 5.64l-.31.26c-1.55-1.03-3.09-2.09-4.71-3.01-1.13-.55-2.27-1.09-3.41-1.61m-114.65 7.75c1.08-.38 2.15-.8 3.2-1.27l.55.31c.13.07.38.2.5.27 1.92.99 3.82 2.04 5.68 3.14-4.85-1.4-9.11 1.55-12.85 4.23l-1-.6c-1.07-.68-2.16-1.32-3.27-1.95 1.16-.65 2.31-1.31 3.45-1.99 1.23-.73 2.47-1.46 3.74-2.14" />
  <path fill="#efa55d"
    d="M340.66 94.64c2.96-1.83 5.99-3.63 9.32-4.73-.23 3.61-3.99 4.77-6.61 6.37-14.17 8.16-28.34 16.31-42.48 24.53-1.82 1.05-3.72 1.95-5.62 2.82.01-.65.03-1.96.03-2.61 14.98-9.03 30.29-17.51 45.36-26.38m1.27 30.83c2.56-1.28 5.19-2.43 7.84-3.52l-.24 2.51c-15.4 9.44-31.3 18.07-46.84 27.3a71 71 0 0 1-7.43 3.9c.01-.71.01-2.13.02-2.84 15.25-9.59 31.28-17.93 46.65-27.35" />
  <path fill="#7b3a1a"
    d="M239.64 97.9c2.8-2.64 6.37-4.18 9.88-5.64.35.03 1.06.11 1.42.14.74.95 1.48 1.9 2.23 2.85-2.9 1.94-5.8 4.02-9.15 5.11-1.64-.45-2.96-1.59-4.38-2.46" />
  <path fill="#ac5e27"
    d="M250.94 92.4c.53.07 1.61.2 2.15.26.45.24 1.36.71 1.81.95l-.56 1.89c2.82 1.44 5.74 2.8 8.95 3.09 3.83 1.77 7.35 4.11 11.01 6.21-.22.44-.65 1.31-.87 1.74 1.92.89 3.84 1.76 5.74 2.7-3.86 1.17-7.24 3.39-10.54 5.63l-1.27-.71c-1.42-.81-2.84-1.61-4.24-2.43l-.24-.15c3.51-1.74 6.93-3.67 10.18-5.87-1.91-1.22-3.96-2.18-6.02-3.11-2.07-.98-4.03-2.24-6.23-2.92-3.25.6-5.96 2.71-8.82 4.24 1.7 1.9 3.54 3.68 5.52 5.3-13.07 7.05-26.15 14.07-39.15 21.26-4.43 2.21-8.9 4.41-12.84 7.44-2.02-1.15-4.02-2.34-6.03-3.51 8.27-4.3 16.45-8.75 24.62-13.23 9.23-5.26 18.9-9.75 27.87-15.45-1.48-1.06-2.97-2.09-4.51-3.04-1.18-.7-2.38-1.37-3.57-2.04-17.22 9.83-34.51 19.55-51.55 29.68-1.71-1.02-3.42-2.04-5.15-3.03 11.51-6.65 23.33-12.74 34.98-19.12 5.61-3.52 12-5.79 17.15-10.02l.31-.26c1.42.87 2.74 2.01 4.38 2.46 3.35-1.09 6.25-3.17 9.15-5.11-.75-.95-1.49-1.9-2.23-2.85" />
  <path fill="#f4ab62"
    d="M179.85 123.07c17.04-9.98 34.26-19.65 51.36-29.53 1.14.52 2.28 1.06 3.41 1.61-2.73 2.23-5.8 3.99-8.93 5.58-14.68 7.7-29.02 16.04-43.84 23.46z" />
  <path fill="#d58942"
    d="M234.62 95.15c1.62.92 3.16 1.98 4.71 3.01-5.15 4.23-11.54 6.5-17.15 10.02-11.65 6.38-23.47 12.47-34.98 19.12-1.79-1.02-3.57-2.07-5.35-3.11 14.82-7.42 29.16-15.76 43.84-23.46 3.13-1.59 6.2-3.35 8.93-5.58" />
  <path fill="#d09056" d="M120.31 100.33c.13.07.38.2.5.27-.12-.07-.37-.2-.5-.27" />
  <path fill="#371b0d"
    d="M349.84 104.27c2.96-1.07 5.75-2.57 8.35-4.33.15 2.25.06 4.51-.13 6.75-2.84 1.23-5.53 2.74-8.16 4.37 0-2.02-.05-4.05-.06-6.07zm-146.75 81.35c2.62.2 5.24-.11 7.79-.76.16 1.82.33 3.64.44 5.47l-.64.44c-2.64 1.27-5.26 2.58-7.75 4.14-.13-3.1-.08-6.2.16-9.29" />
  <path fill="#753b19"
    d="M368.79 104.1c2.05-.91 4.19-1.62 6.39-2.04.91.84 1.83 1.68 2.77 2.5q-4.56 2.685-9.15 5.31c0-1.93-.01-3.85-.01-5.77" />
  <path fill="#803d1b"
    d="M113.64 107.97c3.74-2.68 8-5.63 12.85-4.23.56.3 1.67.91 2.22 1.22-1.79 3.46-5.89 4.4-8.89 6.49-2.12-1.06-4.16-2.25-6.18-3.48m10.26 5.73c4.13-2.26 8.5-5.54 13.47-3.68.99.57 1.97 1.15 2.97 1.73-3.81 1.13-7.2 3.19-10.64 5.09l-.66.32c-1.72-1.15-3.42-2.33-5.14-3.46" />
  <path fill="#d2853f"
    d="M232.92 111c4.78-2.89 10.04-4.96 14.55-8.31 1.54.95 3.03 1.98 4.51 3.04-8.97 5.7-18.64 10.19-27.87 15.45-8.17 4.48-16.35 8.93-24.62 13.23-1.75-1.02-3.52-2.01-5.29-3.01 2.75-.65 5.11-2.24 7.55-3.58 10.44-5.51 20.74-11.29 31.17-16.82" />
  <path fill="#502610"
    d="M257.79 107.81c2.79-2.23 6.01-3.77 9.25-5.21 2.06.93 4.11 1.89 6.02 3.11-3.25 2.2-6.67 4.13-10.18 5.87-1.79-1.14-3.46-2.44-5.09-3.77" />
  <path fill="#e89d54"
    d="m108.62 105.83.75-.41c1.11.63 2.2 1.27 3.27 1.95-1.91 1.86-4.17 3.54-6.84 4.05-1.82-.04-3.58-.57-5.36-.83 2.75-1.55 5.43-3.22 8.18-4.76" />
  <path fill="#9a5324"
    d="M128.71 104.96c.37.17 1.09.52 1.45.69-.37 2.23 2.15 2.73 3.8 2.29 1.13.7 2.26 1.4 3.41 2.08-4.97-1.86-9.34 1.42-13.47 3.68-1.32-.83-2.7-1.55-4.08-2.25 3-2.09 7.1-3.03 8.89-6.49" />
  <path fill="#dd934d"
    d="M368.8 109.87q4.59-2.625 9.15-5.31c.9.76 1.79 1.54 2.67 2.33-3.88 2.33-7.75 4.69-11.84 6.65.01-.92.02-2.75.02-3.67" />
  <path fill="#b57b4a" d="M130.16 105.65c1.54.22 2.82 1.11 3.8 2.29-1.65.44-4.17-.06-3.8-2.29" />
  <path fill="#c67733"
    d="m112.64 107.37 1 .6c2.02 1.23 4.06 2.42 6.18 3.48 1.38.7 2.76 1.42 4.08 2.25 1.72 1.13 3.42 2.31 5.14 3.46.21.99.43 1.98.64 2.98-4.88-1.89-9.52-4.44-13.59-7.75q-2.325 1.305-4.65 2.64c.12.97.23 1.95.35 2.92-4.29-1.95-8.61-3.94-12.39-6.81l1.04-.55c1.78.26 3.54.79 5.36.83 2.67-.51 4.93-2.19 6.84-4.05m-16.2 5.48.56-.35-.36 3.26c.02 2.22.44 4.42 1.12 6.52-.8 1.22-1.61 2.43-2.41 3.65-3.96-1.5-7.7-3.5-11.12-6 .32-.18.97-.56 1.29-.74 2.09.54 4.14 1.68 6.35 1.43 1.51-.44 2.69-1.55 3.98-2.4.16-1.8.34-3.59.59-5.37" />
  <path fill="#4d210e"
    d="M349.9 111.06c2.63-1.63 5.32-3.14 8.16-4.37-.44 2.52 1.01 4.69 2.03 6.85-.7.78-1.42 1.55-2.15 2.3-2.42 1.59-5 2.94-7.62 4.16-.38-.44-1.15-1.31-1.54-1.75-13.94 7.92-27.88 15.85-41.76 23.88-3.86 2.2-7.68 4.5-11.76 6.29l.01-1.34c17.91-10.8 36.38-20.7 54.38-31.38.09-1.35.17-2.71.24-4.06z" />
  <path fill="#89481f"
    d="M97 112.5c.79-.47 1.6-.92 2.4-1.36 3.78 2.87 8.1 4.86 12.39 6.81-.12-.97-.23-1.95-.35-2.92q2.325-1.335 4.65-2.64c4.07 3.31 8.71 5.86 13.59 7.75-.21-1-.43-1.99-.64-2.98l.66-.32c2.81 1.76 5.37 3.92 8.3 5.53l.17.08c-.6.47-1.8 1.41-2.41 1.87-.54.43-1.09.85-1.63 1.28 4.31 2.68 8.88 4.92 13.41 7.21.14-1.67.29-3.33.46-4.99.44.21 1.32.63 1.76.85 2.71 1.57 5.25 3.42 7.94 5.03-2.8 1.55-5.48 3.63-8.71 4.13-6.15-1.74-11.07-6.23-17.12-8.32l.02-.48c0-.47.01-1.43.01-1.91-5.81-3.28-11.61-6.65-17.71-9.38.13 2.4.29 4.8.48 7.19-6.31-2.44-11.91-6.32-18.03-9.17z" />
  <path fill="#5e2910"
    d="M129.7 116.84c3.44-1.9 6.83-3.96 10.64-5.09 2.66 1.57 5.39 3.02 8.06 4.58-3.08 2.62-6.6 4.68-10.4 6.04-2.93-1.61-5.49-3.77-8.3-5.53" />
  <path fill="#f0a65d"
    d="M211.44 141.28c17.16-9.97 34.35-19.88 51.68-29.55 1.4.82 2.82 1.62 4.24 2.43-7.5 3.85-14.82 8.02-22.27 11.96-10.1 5.77-20.63 10.79-30.53 16.92-1.04-.59-2.08-1.18-3.12-1.76" />
  <path fill="#6e3114"
    d="M283.11 111.44c.01.35.05 1.04.06 1.39-.01 1.72 0 3.44 0 5.16 1.26-.64 2.51-1.29 3.76-1.93l-.03 4.86c-1.1.61-2.19 1.24-3.33 1.78-.89-1.13-.82-2.68-1.24-3.99-2.5.89-4.89 2.06-7.14 3.45l-.23-1.2c-.31-1.15-.64-2.3-.98-3.45 3.01-2.07 6.15-3.95 9.13-6.07" />
  <path fill="#e69a52"
    d="M85.52 119.19c3.61-2.17 7.29-4.21 10.92-6.34-.25 1.78-.43 3.57-.59 5.37-1.29.85-2.47 1.96-3.98 2.4-2.21.25-4.26-.89-6.35-1.43m68.86 18.21c1.83-.98 3.68-1.91 5.52-2.88 1.47.98 2.96 1.94 4.55 2.72-1.67 1.08-3.32 2.61-5.43 2.63-1.82-.16-3.17-1.55-4.64-2.47" />
  <path fill="#d38640"
    d="m267.36 114.16 1.27.71c.66.35 2 1.06 2.66 1.42-17.48 9.9-35.43 18.94-52.85 28.95-1.28-.75-2.58-1.48-3.88-2.2 9.9-6.13 20.43-11.15 30.53-16.92 7.45-3.94 14.77-8.11 22.27-11.96" />
  <g fill="#5a2c0e">
    <path
      d="M96.64 115.76c6.12 2.85 11.72 6.73 18.03 9.17-.19-2.39-.35-4.79-.48-7.19 6.1 2.73 11.9 6.1 17.71 9.38 0 .48-.01 1.44-.01 1.91-1.57.91-3.17 1.8-4.91 2.31-2.07.26-3.94-.96-5.76-1.76-.6-.39-1.19-.79-1.77-1.21-1-.8-1.99-1.61-2.96-2.43-2.43 1.29-4.74 3.03-7.49 3.52-1.75-.22-3.44-.75-5.1-1.3-2.28-1.7-4.31-3.71-6.14-5.88-.68-2.1-1.1-4.3-1.12-6.52m53.12 12.91c3.06-3.19 7.24-4.9 11.66-4.83 2.72 1.57 5.47 3.08 8.15 4.73-3.04 2.28-6.33 4.17-9.67 5.95-1.84.97-3.69 1.9-5.52 2.88-1.56.93-4.15 2.04-3.04 4.33 5.05 2.89 10.3 5.47 15.4 8.28.34-1.06.68-2.12 1.03-3.17 4.76 2.78 9.91 4.82 14.62 7.7 2.04 1.06 2.61 3.46 4.04 5.1 2.2 1.57 4.73 2.57 7.06 3.94 2.92 1.58 5.7 3.86 9.17 3.98-.67 2.24 0 4.13 2.3 5-2.33.5-4.66.97-6.97 1.56-2.09-.99-4.28-1.79-6.63-1.64-1.31.71-2.91 1.79-2.57 3.54 3.47 2.89 7.84 4.48 11.85 6.49 2.54 1.22 2.52-2.25 2.82-3.89l-.08-1.38c2.36-1.26 4.77-2.43 7.22-3.49.15 1.42.28 2.85.4 4.29.11 1.85.14 3.7.18 5.56 1.03-.2 2.06-.4 3.1-.6.04 1.65.2 3.3-.03 4.95-.87.91-1.9 1.65-2.93 2.38-.11-1.83-.28-3.65-.44-5.47-2.55.65-5.17.96-7.79.76a78 78 0 0 0-.16 9.29l.01 1.04c-1.25 0-2.49.01-3.74.03-.22-.48-.67-1.43-.9-1.91-2.14-3.93-6.2-6.12-10.24-7.62l-.02-.02c.73-2.81.44-5.71.03-8.53-2.14.49-4.27.97-6.4 1.44-2.55-1.84-5.25-3.46-7.95-5.07.58-1.45-1.79-2.97-2.18-.99-.43-.28-1.3-.83-1.73-1.11.59-2.63 1.06-5.28 1.49-7.94 6.04 2.68 11.51 6.51 17.68 8.88 1.35-3.93-2.27-6.76-3.67-10.09-.08-.95-.22-2.84-.3-3.79-2.62 1.14-5.52 2.12-8.16.46a32.3 32.3 0 0 1-5.87-4.39c-.46-.41-1.37-1.23-1.83-1.64-2.06 1.04-3.97 2.42-6.17 3.16-1.71.31-3.33-.62-4.98-.91-.42.23-1.25.68-1.67.9-2.11 1.36-4.21 2.75-6.45 3.9-5.01-2.92-10.03-5.82-15.05-8.72.03-.91.11-2.72.14-3.63 6.11 1.17 10.81 5.63 16.43 7.96 1.69 1.05 2.95-.86 4.29-1.63-2.11-1.93-4.42-3.92-5.29-6.75-.47-2.07-.35-4.21-.4-6.31l.33-1.09c-3.29 2.09-7.35 3.45-10.92 1.1-3.55-1.81-5.9-5.12-7.72-8.56q.12-1.785.18-3.57c6.05 2.09 10.97 6.58 17.12 8.32 3.23-.5 5.91-2.58 8.71-4.13-2.69-1.61-5.23-3.46-7.94-5.03" />
    <path
      d="M117.24 135.98c3.87 1.99 7.58 4.28 11.52 6.12 2.66 1.33 5.75 2.33 7.29 5.1-1.87.97-3.81 1.86-5.92 2.12-4.46-2.58-8.9-5.2-13.38-7.75.16-1.87.33-3.73.49-5.59m85.36 77.32c2.62-1.35 5.29-2.6 8.02-3.72.21 1.39.43 2.78.65 4.17 1.09.07 2.2.15 3.3.19a28.6 28.6 0 0 1-7.03 4.45c-3.15 1.41-5.77 3.77-8.92 5.18-2.53.69-4.77-1.12-6.84-2.28.2-2.48.05-4.96-.16-7.43 3.67 1.67 7.27 3.5 10.98 5.08 0-1.44-.02-2.87-.02-4.3z" />
  </g>
  <path fill="#995324"
    d="M148.4 116.33c2.64 1.55 5.27 3.11 7.95 4.61-4.5-1.23-9.4 1.14-11.71 5.06-2-1.45-4.2-2.59-6.47-3.55l-.17-.08c3.8-1.36 7.32-3.42 10.4-6.04" />
  <g fill="#1f1f1f">
    <path
      d="M368.81 124.83c4.94-2.33 9.45-5.44 14.34-7.87-2.72 3.49-7.15 4.85-10.73 7.23 2.72 1.74 5.51 3.37 8.21 5.15-3.9 2.23-8.03 4.1-11.68 6.75-.26-3.75-.22-7.51-.14-11.26m-94.23 55.02c4.09-2.35 8.41-4.32 12.41-6.84-.04 1.98-.11 3.96-.14 5.95-11.79 6.1-23.21 12.94-34.67 19.62-1.58 2.61-3 5.33-4.63 7.91-3.64.35-6.41 2.97-9.51 4.63-4.98 2.76-9.75 5.93-14.99 8.18.05-3.18-.1-6.37-.1-9.55 17.05-10.24 34.48-19.84 51.63-29.9" />
    <path
      d="m191.2 195.09.21.05c.05.47.14 1.4.19 1.87.23 2.62.35 5.25.34 7.88.02 1.72.08 3.44.15 5.16a99 99 0 0 0-.47 3.81c.21 2.47.36 4.95.16 7.43 2.07 1.16 4.31 2.97 6.84 2.28 3.15-1.41 5.77-3.77 8.92-5.18 2.55-1.14 4.92-2.63 7.03-4.45l.15-.03c.3 3.24-.91 7.03 1.28 9.81-7.85 4.59-15.85 8.91-23.61 13.64-.08 2.16-.15 4.33-.21 6.5 15.39-8.99 30.75-18 46.34-26.62.06.48.16 1.42.22 1.89-15.73 8.9-31.57 17.6-47.17 26.71-.08-2.67-.2-5.35-.19-8.02.44-12.86-.81-25.71-.14-38.56.04-1.4.03-2.79-.04-4.17" />
  </g>
  <path fill="#1a72b3"
    d="M64.72 120.31c3.15-1.63 6.69-3 10.3-2.47 2.52.68 4.66 2.25 6.9 3.53 2.82 1.72 5.67 3.39 8.53 5.05-3.57.52-7.17.76-10.77.71-4.86-2.55-9.53-5.63-14.96-6.82" />
  <path fill="#7e431c"
    d="M307.02 142.13c13.88-8.03 27.82-15.96 41.76-23.88.39.44 1.16 1.31 1.54 1.75-3.06 1.38-6.41 2.58-8.39 5.47-15.37 9.42-31.4 17.76-46.65 27.35-.01-1.47-.03-2.94-.02-4.4 4.08-1.79 7.9-4.09 11.76-6.29" />
  <path fill="#4c220e"
    d="M275.19 122.16c2.25-1.39 4.64-2.56 7.14-3.45.42 1.31.35 2.86 1.24 3.99 1.14-.54 2.23-1.17 3.33-1.78 0 .48-.02 1.43-.02 1.9-1 .62-2 1.21-3 1.82-1.19 3.53-4.66 5.07-7.81 6.44-1.02-.01-2.14-.65-3.1-.11-16.63 9.48-33.14 19.18-49.86 28.49-.01-.58-.02-1.74-.02-2.32 16.47-9.61 33.07-19 49.65-28.41 2.55-1.13 2.06-4.3 2.45-6.57" />
  <path fill="#975023"
    d="M81.92 121.37c.76-.49 1.54-.97 2.31-1.44 3.42 2.5 7.16 4.5 11.12 6 .8-1.22 1.61-2.43 2.41-3.65 1.83 2.17 3.86 4.18 6.14 5.88l-.57 1.82c2.89 1.39 5.75 2.83 8.62 4.26 2.18-2.34 4.87-4.09 7.5-5.87.58.42 1.17.82 1.77 1.21-.23.55-.7 1.63-.93 2.18 3.43 1.73 6.89 3.43 10.33 5.15.09-1.35.29-2.69 1.07-3.83 1.82 3.44 4.17 6.75 7.72 8.56.03.52.08 1.55.11 2.07 2.69 2.08 5.97 3.17 9.01 4.62-.08-2.33.58-4.57 1.47-6.7.05 2.1-.07 4.24.4 6.31.87 2.83 3.18 4.82 5.29 6.75-1.34.77-2.6 2.68-4.29 1.63-5.62-2.33-10.32-6.79-16.43-7.96-.03.91-.11 2.72-.14 3.63-1.57-.9-3.13-1.79-4.7-2.67 2.11-.26 4.05-1.15 5.92-2.12-1.54-2.77-4.63-3.77-7.29-5.1-3.94-1.84-7.65-4.13-11.52-6.12-.16 1.86-.33 3.72-.49 5.59-1.11-.64-2.22-1.26-3.33-1.9-7.63-4.46-15.3-8.86-22.97-13.25-2.86-1.66-5.71-3.33-8.53-5.05" />
  <path fill="#7d3c1b"
    d="M144.64 126c2.31-3.92 7.21-6.29 11.71-5.06 1.71.93 3.38 1.93 5.07 2.9-4.42-.07-8.6 1.64-11.66 4.83-.44-.22-1.32-.64-1.76-.85-1.15-.56-2.26-1.18-3.36-1.82" />
  <path fill="#2b72b9"
    d="M58.21 127.03c.85-3.22 3.89-5.04 6.51-6.72 5.43 1.19 10.1 4.27 14.96 6.82 7.42 4.79 15.02 9.34 22.84 13.46 17.34 9.92 34.54 20.09 51.85 30.05 2.49 1.34 4.95 2.89 7.75 3.47 3.32.57 6.7.02 10.04-.15.39.08 1.17.24 1.56.31 2.7 1.61 5.4 3.23 7.95 5.07q1.335 1.14 2.58 2.4c-3.08-.01-6.17.09-9.24.29 2.25 2.75 4.69 5.35 6.79 8.22 1.4 2.91 2.43 5.99 3.25 9.11.85 16.94-.58 33.94.24 50.89-.12 2.98-1.36 5.71-2.75 8.3q-.93-.75-1.86-1.47c-1.76-1.15-3.71-1.97-5.78-2.27-.29-15.93-.04-31.87-.12-47.8-.17-5.06.58-10.22-.54-15.21a60 60 0 0 0-2.9-4.46c-32.64-19.21-65.6-37.92-98.35-56.96-5.08 2.91-10.17 5.82-15.22 8.79.08-4.04-.41-8.16.44-12.14" />
  <path fill="#d0843f"
    d="M135.76 124.32c.61-.46 1.81-1.4 2.41-1.87 2.27.96 4.47 2.1 6.47 3.55-.25.48-.75 1.43-1.01 1.91a73 73 0 0 1-7.87-3.59" />
  <path fill="#9e5825"
    d="M283.88 124.64c1-.61 2-1.2 3-1.82.01.71.04 2.13.05 2.84-1.34.75-2.68 1.5-4.01 2.25.05.78.14 2.34.19 3.12 1.3-.64 2.6-1.27 3.9-1.9.01 1.65 0 3.31 0 4.97-1.24.38-2.47.76-3.7 1.15-.14-.87-.44-2.59-.58-3.46-2.7 1.41-5.4 2.78-8.13 4.12l-.2-2.83c-17.26 9.48-34 19.89-51.29 29.3v-2.92c16.72-9.31 33.23-19.01 49.86-28.49.96-.54 2.08.1 3.1.11 3.15-1.37 6.62-2.91 7.81-6.44" />
  <path fill="#bc6d2c"
    d="M134.13 125.6c.54-.43 1.09-.85 1.63-1.28a73 73 0 0 0 7.87 3.59c.26-.48.76-1.43 1.01-1.91 1.1.64 2.21 1.26 3.36 1.82-.17 1.66-.32 3.32-.46 4.99-4.53-2.29-9.1-4.53-13.41-7.21" />
  <path fill="#cc7e39"
    d="M109 129.46c2.75-.49 5.06-2.23 7.49-3.52.97.82 1.96 1.63 2.96 2.43-2.63 1.78-5.32 3.53-7.5 5.87-2.87-1.43-5.73-2.87-8.62-4.26l.57-1.82c1.66.55 3.35 1.08 5.1 1.3m65.25 31.45c.65-.31 1.95-.92 2.6-1.22 2.64 1.66 5.54.68 8.16-.46.08.95.22 2.84.3 3.79-.06.81-.17 2.43-.23 3.24-3.82-1.33-7.38-3.28-10.83-5.35" />
  <path fill="#e09650"
    d="M282.92 127.91c1.33-.75 2.67-1.5 4.01-2.25l.08 3.47c-1.3.63-2.6 1.26-3.9 1.9-.05-.78-.14-2.34-.19-3.12" />
  <path fill="#2280bc"
    d="M79.68 127.13c3.6.05 7.2-.19 10.77-.71 7.67 4.39 15.34 8.79 22.97 13.25-3.64.18-7.3.25-10.9.92-7.82-4.12-15.42-8.67-22.84-13.46" />
  <path fill="#975123"
    d="M169.57 128.57c2.53 1.5 5.12 2.92 7.69 4.38-4.43-.16-8.2 2.24-11.57 4.83-.31-.14-.93-.41-1.24-.54-1.59-.78-3.08-1.74-4.55-2.72 3.34-1.78 6.63-3.67 9.67-5.95" />
  <path fill="#cd803b"
    d="M126.98 131.34c1.74-.51 3.34-1.4 4.91-2.31l-.02.48q-.06 1.785-.18 3.57c-.78 1.14-.98 2.48-1.07 3.83-3.44-1.72-6.9-3.42-10.33-5.15.23-.55.7-1.63.93-2.18 1.82.8 3.69 2.02 5.76 1.76" />
  <path fill="#101010"
    d="M368.95 136.09c3.65-2.65 7.78-4.52 11.68-6.75-.08 2.18-.14 4.37-.19 6.57-9.84 5.63-19.67 11.29-29.51 16.93l.97.59c-2.47-1.21-5-2.26-7.47-3.46 6.07-3.37 11.73-7.74 18.35-9.96 2.52-.19 5.86-.82 6.17-3.92m-130.91 75.03c3.1-1.66 5.87-4.28 9.51-4.63-2.19 3.48-3.92 7.51-7.47 9.86l-1.56.89c-15.59 8.62-30.95 17.63-46.34 26.62.06-2.17.13-4.34.21-6.5 7.76-4.73 15.76-9.05 23.61-13.64.74.28 2.23.83 2.97 1.11 1.27-.7 2.55-1.39 3.83-2.07.1-1.15.18-2.31.25-3.46 5.24-2.25 10.01-5.42 14.99-8.18m-219.7 21.36c1.8 2 4.19 3.77 4.86 6.51.18 3.28-1.31 6.32-2.23 9.4.42-5.44-.61-10.87-2.63-15.91M1.1 263.79l.94.35c1.6.7 3.05 1.69 4.53 2.63 3.18 1.99 6.53 3.7 9.71 5.68-.31.49-.93 1.46-1.24 1.94-4.24-1.67-8.09-4.19-11.98-6.53-1.65-.67-1.65-2.6-1.96-4.07m80.1 39.3c1.66.47 3.31 1.01 4.89 1.71l-1.54-.37c.13 2.45-.33 5.04.46 7.42 2.29 2.02 5.13 3.24 7.69 4.85.77.46 1.57.88 2.38 1.28 1.79 1.06 4.39.13 5.82 1.8-3.22 2.08-7.57.84-10.48-1.28-2.93-2.08-6.63-3.14-9.11-5.78-1.13-3.05-.37-6.47-.11-9.63" />
  <path fill="#e35942"
    d="M57.77 139.17c5.05-2.97 10.14-5.88 15.22-8.79 32.75 19.04 65.71 37.75 98.35 56.96-16.82 9.74-33.78 19.26-50.47 29.23-3.6 2.33-8.15 3.17-12.21 1.54-7.17-4.29-14.44-8.42-21.7-12.55-1.73-3.14-5.58-4.22-8.56-5.81-.37-.15-1.11-.45-1.47-.6-8.87-3.67-16.59-9.57-25.16-13.86-.5.59-1 1.18-1.51 1.77-.14-.09-.42-.27-.55-.36.19-1.18.37-2.36.55-3.54-2.78-1.58-5.44-3.42-8.43-4.62-.47-.12-1.4-.38-1.87-.51-4.35-1.75-8.12-4.62-12.28-6.75-3.68-2.25-8.63-3.81-9.51-8.65 3.26-2.76 7.12-4.65 10.78-6.79 9.61-5.56 19.25-11.06 28.82-16.67m15.76 25.87c1.05 3.18-1.4 5.22-3.65 6.96 3.33.52 5.65-2.32 7.14-4.88-1.04-.89-2.21-1.59-3.49-2.08m-6.35 3.91c1.96 1.82 4.61-.73 4.92-2.85-2.09-.45-5.27.02-4.92 2.85m18.04 6.31a3.66 3.66 0 0 0-2.1 2.73c1.29 1.53 3.96.36 4.6-1.22.85-1.77-1.27-2.2-2.5-1.51m5.05-.27c-.68 2.28-2 4.25-3.46 6.1 2.03-.43 3.93-1.52 5.08-3.3.96-1.1.2-3.93-1.62-2.8m8.52 11.08c-.84.76-2.03 1.54-1.66 2.88.29 2.61 3.83 1.96 5.56 1.19 3.6 1.2 8.82-5.66 3.44-6.58-.4.16-1.18.5-1.58.66-2.17-.3-4.08.61-5.76 1.85M9 221.38c1.84 1.45 3.64 2.95 5.39 4.51 1.32 2.19 2.59 4.42 3.95 6.59 2.02 5.04 3.05 10.47 2.63 15.91-.29 3.19-.51 6.39-.62 9.6-.36-.3-1.06-.89-1.41-1.18.07-7.41 1.55-15.14-1.38-22.23-1.58-5.15-5.55-8.91-8.56-13.2m82.46 51.37c1.67-.33 3.33-.72 5-1.05 3.16 1.26 6.24 2.73 9.45 3.88l1.13-.17c-.76.56-1.51 1.15-2.24 1.75-4.29-1.93-8.51-4.3-13.34-4.41" />
  <path fill="#79401b"
    d="M274.6 135.91c2.73-1.34 5.43-2.71 8.13-4.12.14.87.44 2.59.58 3.46 1.23-.39 2.46-.77 3.7-1.15l-.06 6.99c-1.27.64-2.54 1.28-3.81 1.93-.18-2.29-.35-4.58-.52-6.87-2.52 1.5-5.1 2.88-7.76 4.11-.06-.99-.18-2.97-.23-3.96z" />
  <path fill="#252525"
    d="M349.58 136.91c3.52-2.05 7.06-4.07 10.89-5.49 0 2.09.04 4.18.05 6.27.95.62 1.91 1.25 2.87 1.87l-.61.45c-6.62 2.22-12.28 6.59-18.35 9.96 2.47 1.2 5 2.25 7.47 3.46 5.42 3.34 11 6.4 16.37 9.81-4.31.22-8.78-3.73-12.72-.75-24.79 14.27-49.68 28.37-74.48 42.62-2.94 1.71-6.09 3.17-8.63 5.49-6.14-4.9-13.17-8.68-20.26-12.02 11.46-6.68 22.88-13.52 34.67-19.62.44 2.11 2.67 2.69 4.24 3.74 1.34-.85 2.92-1.44 4-2.65.4-3.97.04-7.97.13-11.95 18.08-10.47 36.29-20.72 54.36-31.19M149.79 268.76c6.26-7.03 14.48-13.41 24.25-13.91l.86-.04c2.07.3 4.02 1.12 5.78 2.27-7.49-.78-14.66 2.54-20.36 7.14-10.4 8.62-18.02 20.64-21.08 33.83-1.09 4.37-.76 8.91-1.19 13.37-1.92.98-3.78 2.05-5.6 3.19-5.77 3.31-11.53 6.64-17.28 9.98l-1.46-.47c2.4-3.65 5.15-7.17 8.73-9.73 3.29-2.3 7.47-2.2 11.3-2.51.06-2.65.12-5.31.48-7.94.78-5.04 1.68-10.06 3.43-14.86-8.98 3.95-17.25 9.37-26.3 13.19l.02-1.39c-.02-8.66.25-17.34-.11-26l-1.1-.38c.38-.1 1.15-.32 1.54-.43-.17 8.86-.13 17.72-.05 26.58 7.26-3.16 14.01-7.36 21.1-10.86 2.41-1.47 5.7-2.27 6.78-5.17 2.64-5.74 6-11.17 10.26-15.86" />
  <path fill="#a55926"
    d="M181.55 135.34c2.65 1.43 5.22 3.01 7.8 4.57-4.46-.97-8.27 1.82-11.41 4.59 1.6 1.03 3.22 2.04 4.81 3.09 1.21.82 2.41 1.66 3.65 2.46-.75.97-1.49 1.95-2.23 2.93-5.48-2.21-10.2-5.96-15.76-7.96-.16.46-.48 1.36-.64 1.82-.35 1.05-.69 2.11-1.03 3.17-5.1-2.81-10.35-5.39-15.4-8.28-1.11-2.29 1.48-3.4 3.04-4.33 1.47.92 2.82 2.31 4.64 2.47 2.11-.02 3.76-1.55 5.43-2.63.31.13.93.4 1.24.54 2.67.97 5.01 4.78 8.06 3.12 2.88-1.39 5.88-2.9 7.8-5.56" />
  <path fill="#4c220f"
    d="M274.86 140.26c2.66-1.23 5.24-2.61 7.76-4.11.17 2.29.34 4.58.52 6.87 1.27-.65 2.54-1.29 3.81-1.93-.02 1.91-.04 3.81-.03 5.71-1.23.79-2.66 1.35-3.63 2.47-.38 1.51-.29 3.08-.37 4.62 1.35-.63 2.7-1.27 4.05-1.91l-.04 1.76c-1.08.57-2.17 1.11-3.26 1.65-.53 4.14-4.49 5.74-7.8 7.28-.86-.42-1.73-.83-2.59-1.24-16.75 9.53-33.37 19.28-50.23 28.62.01-.49.01-1.49.01-1.98 17.24-9.82 34.47-19.68 51.72-29.48-.06-1.58-.11-3.16-.24-4.73-.17-1.87-.34-3.75-.21-5.63.29-2.39.57-4.78.55-7.19z" />
  <path fill="#a85b26"
    d="M267.21 140.18c2.39-1.45 4.87-2.73 7.42-3.88.05.99.17 2.97.23 3.96l.02.78c-9.31 6.13-19.19 11.33-28.8 16.96-7.7 4.37-15.21 9.08-23.05 13.19-.01-1.78-.01-3.56.01-5.34 14.58-8.81 29.53-16.98 44.17-25.67" />
  <path fill="#298dc4"
    d="M102.52 140.59c3.6-.67 7.26-.74 10.9-.92 1.11.64 2.22 1.26 3.33 1.9 4.48 2.55 8.92 5.17 13.38 7.75 1.57.88 3.13 1.77 4.7 2.67 5.02 2.9 10.04 5.8 15.05 8.72 6.65 3.8 13.25 7.7 19.93 11.46.43.28 1.3.83 1.73 1.11l.62.68c-3.34.17-6.72.72-10.04.15-2.8-.58-5.26-2.13-7.75-3.47-17.31-9.96-34.51-20.13-51.85-30.05" />
  <path fill="#7d3c1a"
    d="M177.94 144.5c3.14-2.77 6.95-5.56 11.41-4.59 1.65.95 3.28 1.94 4.93 2.88-4.29.32-8.09 2.38-11.53 4.8-1.59-1.05-3.21-2.06-4.81-3.09" />
  <path fill="#ce803a"
    d="M139.41 141.64c3.57 2.35 7.63.99 10.92-1.1l-.33 1.09c-.89 2.13-1.55 4.37-1.47 6.7-3.04-1.45-6.32-2.54-9.01-4.62-.03-.52-.08-1.55-.11-2.07" />
  <path fill="#5b2810"
    d="M182.75 147.59c3.44-2.42 7.24-4.48 11.53-4.8 2.13 1.24 4.3 2.41 6.42 3.66-2.4 2.82-5.94 4.16-9 6.09-1.79-.8-3.61-1.52-5.3-2.49-1.24-.8-2.44-1.64-3.65-2.46" />
  <path fill="#743417"
    d="M168.41 145.02c5.56 2 10.28 5.75 15.76 7.96.74-.98 1.48-1.96 2.23-2.93 1.69.97 3.51 1.69 5.3 2.49l.25.13c-1.21.42-2.41.87-3.6 1.34-1.53.56-3.53 2.8-1.32 3.9 4.83 2.86 10.09 4.93 14.87 7.91.27-2.09.52-4.17.75-6.27-1.43-1.21-2.85-2.43-4.27-3.65 2.44-1.73 4.92-3.59 7.87-4.32 1.65.11 3.16.93 4.71 1.43.01 1.25.03 2.49.04 3.74-2.41 1.28-5.02 2.33-7.04 4.22-1.11 1.97-.89 4.41-1.3 6.59-3.47-.12-6.25-2.4-9.17-3.98-2.33-1.37-4.86-2.37-7.06-3.94-1.43-1.64-2-4.04-4.04-5.1-4.71-2.88-9.86-4.92-14.62-7.7.16-.46.48-1.36.64-1.82" />
  <path fill="#9b5324"
    d="M200.7 146.45c4.54 2.82 9.4 5.06 13.97 7.83.02.65.05 1.94.07 2.59-1.24.42-2.49.84-3.72 1.26l-.02-1.38c-.01-1.25-.03-2.49-.04-3.74-1.55-.5-3.06-1.32-4.71-1.43-2.95.73-5.43 2.59-7.87 4.32 1.42 1.22 2.84 2.44 4.27 3.65-.23 2.1-.48 4.18-.75 6.27-4.78-2.98-10.04-5.05-14.87-7.91-2.21-1.1-.21-3.34 1.32-3.9 3.46 2.18 6.99 4.37 10.98 5.42-1.59-3.06-4.58-4.94-7.38-6.76l-.25-.13c3.06-1.93 6.6-3.27 9-6.09m-11.91 29.57c-.34-1.75 1.26-2.83 2.57-3.54 3.16 3.29 7.48 5.81 12.1 6.14-.3 1.64-.28 5.11-2.82 3.89-4.01-2.01-8.38-3.6-11.85-6.49" />
  <path fill="#cb7e3a"
    d="M188.35 154.01c1.19-.47 2.39-.92 3.6-1.34 2.8 1.82 5.79 3.7 7.38 6.76-3.99-1.05-7.52-3.24-10.98-5.42" />
  <path fill="#cb7f3a"
    d="M162.98 156.82c2.2-.74 4.11-2.12 6.17-3.16.46.41 1.37 1.23 1.83 1.64-1.47 1.68-3.34 2.91-5.32 3.92.03.57.1 1.72.13 2.3-3.28-1.3-6.42-2.92-9.46-4.71.42-.22 1.25-.67 1.67-.9 1.65.29 3.27 1.22 4.98.91" />
  <path fill="#7d421c"
    d="M283.67 155.39c1.09-.54 2.18-1.08 3.26-1.65-.01 1.11-.02 2.22-.01 3.34-1.41.94-2.8 1.91-4.15 2.93-2.4 1.87-4.98 3.52-7.76 4.78-5.77 2.23-10.8 5.91-16.22 8.84-11.93 6.75-23.62 13.93-35.71 20.39l-.03-3.97c16.86-9.34 33.48-19.09 50.23-28.62.86.41 1.73.82 2.59 1.24 3.31-1.54 7.27-3.14 7.8-7.28" />
  <path fill="#9a5223"
    d="M170.98 155.3c1.78 1.68 3.75 3.15 5.87 4.39-.65.3-1.95.91-2.6 1.22 3.45 2.07 7.01 4.02 10.83 5.35.06-.81.17-2.43.23-3.24 1.4 3.33 5.02 6.16 3.67 10.09-6.17-2.37-11.64-6.2-17.68-8.88-.43 2.66-.9 5.31-1.49 7.94-6.68-3.76-13.28-7.66-19.93-11.46 2.24-1.15 4.34-2.54 6.45-3.9 3.04 1.79 6.18 3.41 9.46 4.71-.03-.58-.1-1.73-.13-2.3 1.98-1.01 3.85-2.24 5.32-3.92" />
  <path fill="#4f260f"
    d="M203.96 160.97c2.02-1.89 4.63-2.94 7.04-4.22l.02 1.38q.03 2.715.09 5.43c.95-.16 1.9-.32 2.85-.47-1.12 1.56-2.53 3.08-2.62 5.12l-.07.75c-2.07 1.25-4.14 2.52-6.31 3.6-2.3-.87-2.97-2.76-2.3-5 .41-2.18.19-4.62 1.3-6.59" />
  <path fill="#db904a"
    d="M282.77 160.01c1.35-1.02 2.74-1.99 4.15-2.93l.06 4.67c-1.26.41-2.51.81-3.76 1.22-.11-.74-.33-2.22-.45-2.96" />
  <path fill="#a95b26"
    d="M275.01 164.79c2.78-1.26 5.36-2.91 7.76-4.78.12.74.34 2.22.45 2.96 1.25-.41 2.5-.81 3.76-1.22-.01 1.65-.01 3.31 0 4.96-1.16.35-2.31.71-3.46 1.06-.28-1.43-.55-2.85-.82-4.27-2.1.86-4.29 1.65-6.06 3.12-2.31 2-1.43 6.08-4.08 7.79-16.53 9.47-33.21 18.72-49.56 28.5.01-1.69.02-3.39.05-5.08 16.49-9.88 33.29-19.26 49.9-28.95 1.71-.64 1.56-2.66 2.06-4.09" />
  <path fill="#1d1d1d"
    d="M355.55 162.49c3.94-2.98 8.41.97 12.72.75.49.24 1.46.72 1.94.95.01.73.02 2.18.02 2.9-4.46-1.09-8.77-3.91-13.5-3.07 2.37 1.98 5.21 3.64 6.66 6.49 2.63 5.09 2.52 11.13 1.51 16.63-1.96 10-7.19 19.22-14.19 26.55-5.07 4.94-11.43 9.36-18.74 9.56-4.96-.09-8.95-3.31-13.12-5.54-4.18 12.34-11.96 24.34-23.97 30.21-5.65 2.91-12.67 2.43-17.73-1.48-.29-.17-.87-.53-1.16-.71.12-3.89-2.94-6.04-5.75-8.04-2.62-5.23-.45-11.35-.49-16.93-3.26 4.88-1.3 10.99-1.72 16.45-3.32-1.65-3.97-5.32-4.64-8.61-.19 1.62-.4 3.24-.6 4.87-.95-.13-1.9-.24-2.84-.33l-.5 1.04c-1.23-2.28-1.72-4.85-2.13-7.37 1.48.76 3 1.45 4.53 2.14 3.74-5.99 6.81-12.38 10.59-18.35 2.54-2.32 5.69-3.78 8.63-5.49 24.8-14.25 49.69-28.35 74.48-42.62m-14.84 13.74c-1.01.96-2.06 1.88-3.13 2.77.03 1.25.06 2.5.1 3.75-.85-.13-2.55-.38-3.4-.5.07.75.22 2.26.3 3.01-1.11.4-2.21.84-3.27 1.33.09 1.22.19 2.44.28 3.66-.5.08-1.5.23-2 .31-3.53 4.62-3.52 10.92-3.11 16.48.68 1.98 1.33 4.12 3.05 5.48 2.68 2.87 7.27 2.33 10.62 1.05 2.18-1.14 4.24-2.51 6.16-4.05 3.97-3.59 7.21-7.97 9.35-12.89l.28.18c1.48-4.05 2.77-8.23 2.68-12.58.87-5.17-2.62-10.04-7.48-11.58-3.73-.22-7.52 1.31-10.43 3.58m-25.51 17.84c1.71-2.06 2.39-4.7 2.86-7.29-2.79 1.11-3.27 4.68-2.86 7.29m-20.78 9c-4.85 4.02-9.56 9.15-11.04 15.4-.15.34-.44 1.02-.58 1.36 1.07-.22 2.15-.45 3.23-.68-.56 1.57-1.56 2.88-2.66 4.1.03-.85.1-2.55.13-3.4l-1.23.83c-1.17 4.25-2.04 8.78-.95 13.15.33 4.83 6.71 9.71 11.05 6.46l.61.45c2.85-1.08 5.66-2.4 7.89-4.53 4.13-3.62 7.31-8.15 9.66-13.09 1.73-3.72 2.64-7.76 2.97-11.84.67-4.91-2.26-9.27-6.34-11.69-4.58-.54-8.88 1.19-12.74 3.48" />
  <path fill="#1d0f0c"
    d="M14.04 165.21c1.35-.83 2.71-1.64 4.04-2.51-.99 1.73-2.09 3.44-2.6 5.39.02 1.87 1.64 3 3.05 3.89l-2.44 1.52c-.5-.35-1.49-1.05-1.99-1.39q-.06-3.465-.06-6.9"
    opacity=".75" />
  <path fill="#f04e34"
    d="m18.08 162.7.09-.07c.88 4.84 5.83 6.4 9.51 8.65 4.16 2.13 7.93 5 12.28 6.75.38 1.57.26 3.35 1.14 4.75 2.59 2.03 5.54 3.55 8.46 5.04l.7-.76c.51-.59 1.01-1.18 1.51-1.77 8.57 4.29 16.29 10.19 25.16 13.86.06 1.57.13 3.14.19 4.71 3.1 1.95 6.25 3.84 9.61 5.32l.05-1.04c.05-.65.13-1.94.18-2.58 7.26 4.13 14.53 8.26 21.7 12.55-.04 2.02.03 4.04.15 6.06-20.13-11.7-40.29-23.32-60.46-34.94-1.69-.95-3.38-1.91-5.06-2.88-4.12-2.44-8.29-4.78-12.43-7.19-4.07-2.46-8.24-4.75-12.33-7.18-1.41-.89-3.03-2.02-3.05-3.89.51-1.95 1.61-3.66 2.6-5.39M1.11 246.55c.28-5.51.42-11.03.74-16.53 6.86 5.79 11.94 14.33 11.4 23.55-4.04-2.36-8.1-4.67-12.14-7.02m79.09 45.79c3.82-2.91 7.85-6.04 12.78-6.62 3.27-.41 7.22-.15 9.59 2.4-.8 5.11-2.61 10.01-3.47 15.12-6.32-3.59-12.57-7.31-18.9-10.9" />
  <path fill="#ef7826"
    d="M73.53 165.04c1.28.49 2.45 1.19 3.49 2.08-1.49 2.56-3.81 5.4-7.14 4.88 2.25-1.74 4.7-3.78 3.65-6.96" />
  <path fill="#f49f40" d="M67.18 168.95c-.35-2.83 2.83-3.3 4.92-2.85-.31 2.12-2.96 4.67-4.92 2.85" />
  <path fill="#eca259"
    d="M211.34 168.21c1.16-.55 2.32-1.13 3.4-1.84-.04 1.53-.06 3.06-.05 4.6-1.2.61-2.38 1.23-3.57 1.84.03-1.28.09-2.57.15-3.85z" />
  <path fill="#a05925"
    d="M204.96 172.56c2.17-1.08 4.24-2.35 6.31-3.6-.06 1.28-.12 2.57-.15 3.85 1.19-.61 2.37-1.23 3.57-1.84 0 1.59.03 3.18.05 4.78-1.25.76-2.5 1.53-3.74 2.29-.12-1.44-.25-2.87-.4-4.29a98 98 0 0 0-7.22 3.49c-.12-.55-.35-1.64-.47-2.19-1.65-.27-3.32-.43-4.92-.93 2.31-.59 4.64-1.06 6.97-1.56" />
  <path
    d="M14.1 172.11c.5.34 1.49 1.04 1.99 1.39l2.44-1.52c-1.68 7.82-4.55 15.33-6.62 23.05-.65 2.3-1.39 4.57-2.02 6.88-1.46 4.47.18 9.72 4.47 11.94 25.55 14.71 51.07 29.48 76.61 44.22 3.45 1.87 6.84 4.78 11.03 4.26 3.22-.16 5.87-2.35 7.59-4.93 2.74-7.37 4.38-15.1 6.86-22.57 1.11-3.27 2.11-6.66 1.76-10.15.44-.23 1.33-.69 1.77-.92l1.03.47c-4.2 15.1-8.56 30.17-13.33 45.11-33.96-19.78-68.18-39.15-102.03-59.11 1.7-6.81 4.27-13.39 5.72-20.25.33-5.74.06-11.51.1-17.26.63 1.27 1.11 3.05 2.93 3.03-.07-.91-.23-2.73-.3-3.64m253.93 65.1c.42-5.46-1.54-11.57 1.72-16.45.04 5.58-2.13 11.7.49 16.93 2.81 2 5.87 4.15 5.75 8.04-5.44-3.91-12.71-5.74-16.54-11.55l.5-1.04c.94.09 1.89.2 2.84.33.2-1.63.41-3.25.6-4.87.67 3.29 1.32 6.96 4.64 8.61m-107.71 27.01c5.7-4.6 12.87-7.92 20.36-7.14-.37.56-1.11 1.67-1.48 2.23l-3.02-.24c-2.21.41-4.39 1.02-6.26 2.32 2.09 1.27 4.21 2.49 6.34 3.69.52.3 1.55.89 2.07 1.18-3.27.24-6.53.66-9.77 1.19-2.21-1.29-4.97-3.45-7.34-1.18-12.76 10.27-20.82 26.33-21.33 42.72-.16 1.7-.99 3.22-1.64 4.77 3.18 1.53 5.89 4.18 6.13 7.89-3.93-2.42-8.03-4.56-11.93-7.04 1.82-1.14 3.68-2.21 5.6-3.19.43-4.46.1-9 1.19-13.37 3.06-13.19 10.68-25.21 21.08-33.83" />
  <path fill="#3d4b52"
    d="M18.53 171.98c4.09 2.43 8.26 4.72 12.33 7.18-2.58 2.12-5.25 4.14-8.04 5.98-3.9 1.88-6.12 5.6-6.59 9.84-.56-.27-1.68-.81-2.23-1.08-.53.28-1.57.85-2.09 1.13 2.07-7.72 4.94-15.23 6.62-23.05m29.82 17.25c20.17 11.62 40.33 23.24 60.46 34.94 2.96 1.31 6.3 1.38 9.4.51.35 3.49-.65 6.88-1.76 10.15-9.56-5.83-19.96-10.11-29.84-15.36-11.23-4.8-21.98-10.63-32.97-15.96-4.76-2.43-9.64-4.63-14.22-7.4 3.38-1.72 6.6-3.84 8.93-6.88" />
  <path fill="#ad784c" d="M171.54 173.28c.39-1.98 2.76-.46 2.18.99-.39-.07-1.17-.23-1.56-.31z" />
  <path fill="#c27534"
    d="M191.36 172.48c2.35-.15 4.54.65 6.63 1.64 1.6.5 3.27.66 4.92.93.12.55.35 1.64.47 2.19l.08 1.38c-4.62-.33-8.94-2.85-12.1-6.14" />
  <path fill="#737373"
    d="M340.71 176.23c2.91-2.27 6.7-3.8 10.43-3.58 4.86 1.54 8.35 6.41 7.48 11.58l-4.77-1.5c-.31 2.46-.65 4.93-1.37 7.3-.43-.36-1.29-1.09-1.72-1.46l-2.17-.12.15-.21c.83-1.02 1.65-2.05 2.42-3.13-.18-.52-.54-1.58-.72-2.1.03-.31.1-.92.13-1.23-.2-.19-.59-.58-.79-.77-.49-.47-1.46-1.41-1.95-1.87.12-.15.34-.45.45-.59-.65-.42-1.29-.84-1.92-1.27l-1.15-.81c-.87.91-1.72 1.83-2.56 2.76-.62-1.02-1.28-2.01-1.94-3m-46.29 26.84c3.86-2.29 8.16-4.02 12.74-3.48 4.08 2.42 7.01 6.78 6.34 11.69-1.8-.77-3.59-1.54-5.38-2.33.02 4.07-.62 8.11-2.21 11.87-.49-.23-1.46-.69-1.95-.93-.93-.45-1.85-.9-2.77-1.35 2.31-.19 5.02-.53 5.23-3.37-1.27.11-2.54.22-3.8.34l-.37-.1c1.34-1.14 2.69-2.27 3.97-3.48-.14-.61-.42-1.84-.56-2.46-.38-1.38-.81-2.74-1.22-4.11-.93-.34-1.84-.68-2.75-1.06l-2.27-.96c-.43.41-1.29 1.23-1.71 1.64-.07-.24-.19-.73-.25-.97l-.32 1.13c-.91-.69-1.82-1.38-2.72-2.07m32.06 3.97c4.67 1.95 8.55 5.75 13.67 6.53-3.35 1.28-7.94 1.82-10.62-1.05-1.72-1.36-2.37-3.5-3.05-5.48m-45.16 26.79c3.86 1.83 7.62 3.89 11.05 6.46-4.34 3.25-10.72-1.63-11.05-6.46m-120.48 46.02c3.68-2.21 7.58-4.92 12.1-4.49 5.92-.13 9.16 6.59 8.52 11.77-1.76-.8-3.51-1.62-5.26-2.44-.19 4.04-.75 8.11-2.4 11.84-.49.91-1.01 1.82-1.56 2.72l-.12-3.81c-.01-.26-.02-.77-.03-1.03.65-.71 1.26-1.45 1.86-2.2-.12-.54-.34-1.62-.45-2.15q0-.495.03-.96c.11-1.26.21-2.53.3-3.79a34 34 0 0 0-1.64-3.22l-.93-1.16c-.63-.34-1.27-.66-1.9-.96-1.28-.71-2.45-.03-3.55.6l.01-.69c-.72 1.64-.6 4.21-2.81 4.57l-1.77-2.57zm-7.18 29.49c-3.68-2.56-5.14-9.79.22-11.27 1.14 1.75 2.28 3.5 3.43 5.25.89-.17 1.79-.34 2.68-.5.11.51.32 1.53.42 2.04.17-.52.52-1.57.69-2.09 1.14-.16 2.29-.33 3.44-.52l.25-.42c1.09 1.01 2.18 2.02 3.28 3.05-1.31 1.34-2.78 2.52-4.31 3.61-3.04 1.57-6.96 2.84-10.1.85m.91-6.18c-.91 1.08-1.07 2.23-.47 3.46 2.23.86 3.11-4.9.47-3.46m-5.19 6.62c4.06 1.52 7.74 3.85 11.14 6.52-4.81 1.74-10.89-1.05-11.14-6.52" />
  <path fill="#f5a340"
    d="M85.22 175.26c1.23-.69 3.35-.26 2.5 1.51-.64 1.58-3.31 2.75-4.6 1.22.2-1.2.99-2.23 2.1-2.73" />
  <path fill="#f37e22"
    d="M90.27 174.99c1.82-1.13 2.58 1.7 1.62 2.8-1.15 1.78-3.05 2.87-5.08 3.3 1.46-1.85 2.78-3.82 3.46-6.1" />
  <path fill="#aaaaa9"
    d="M337.58 179c1.07-.89 2.12-1.81 3.13-2.77.66.99 1.32 1.98 1.94 3 .41 1.16.77 2.35 1.1 3.54-.49.12-1.46.35-1.94.46-.1 2.75 1.87 4.02 4.23 4.73-.12-1.06-.25-2.11-.36-3.16 2.23-.11 3.27-2 4.1-3.79.2.19.59.58.79.77-.03.31-.1.92-.13 1.23-1.52 1.18-5.88 4.48-1.7 5.23l-.15.21c-.78 1.09-1.51 2.21-2.22 3.34.98.23 2.94.68 3.92.91-1.51.38-3.03.75-4.53 1.16l-.77.23c-.44-1.38.02-3.68-1.9-3.96-2.85.8-3.74 3.82-4.03 6.43l3.58 1.11c-.47.71-.96 1.4-1.46 2.09-3.15-.21-2.45 2.64-2.22 4.76-.07 0-.22.01-.29.01-.72-1.63-.57-3.94-2.71-4.56-.5 1.84-.52 3.71.1 5.51-1.15-.65-2.31-1.29-3.47-1.89-.32.22-.96.66-1.27.89.59-1.75 1.47-3.37 2.76-4.72-2-2.78-4.58-.59-6.57.82.83 2.48 1.4 5.64 4.11 6.8 3.19 1.44 6.74.2 9.66-1.31 1.68 1.14 3.36 2.29 5.03 3.45a38 38 0 0 1-6.16 4.05c-5.12-.78-9-4.58-13.67-6.53-.41-5.56-.42-11.86 3.11-16.48.5-.08 1.5-.23 2-.31-.09-1.22-.19-2.44-.28-3.66 1.06-.49 2.16-.93 3.27-1.33-.08-.75-.23-2.26-.3-3.01.85.12 2.55.37 3.4.5-.04-1.25-.07-2.5-.1-3.75m-2.33 8.09c-.96 1.74-1.82 3.56-2.21 5.53l3.81.12c.64-1.15 1.29-2.29 1.94-3.44-1.18-.74-2.36-1.48-3.54-2.21m18.6-4.36 4.77 1.5c.09 4.35-1.2 8.53-2.68 12.58l-.28-.18-4.56-2.82c.49-1.25.94-2.51 1.38-3.78.72-2.37 1.06-4.84 1.37-7.3m-56.39 21.28c.06.24.18.73.25.97.06 1.47.05 2.94-.01 4.41-.39.03-1.17.07-1.57.1.42 1.32.84 2.65 1.27 3.98 1.13.38 2.27.77 3.41 1.17-.09-.95-.18-1.88-.24-2.82 2.8-1 3.93-3.66 3.87-6.46.41 1.37.84 2.73 1.22 4.11-2.18 1.2-5.25 3.12-3.41 5.94l.37.1c-.36.76-1.08 2.27-1.43 3.03.92.45 1.84.9 2.77 1.35-1.46.23-2.97.46-4.25 1.26l-.26.23-.48-4.55c-3.53-.15-5.04 3.17-5.19 6.19l2.98 1.69c-.23.32-.69.97-.92 1.29-2.06.68-4.18 1.11-6.32 1.41-.22-.26-.65-.79-.87-1.05.98.21 4.17-.14 2.89-1.73-1.17-1.05-2.97-.23-3.33 1.17-.83-1.11-1.67-2.22-2.49-3.33-1.42 2.72-4.47 5.85-2.08 8.96 2.53 4.75 8.95 3.7 12.63.98 1.42 1.4 2.97 2.65 4.6 3.8-2.23 2.13-5.04 3.45-7.89 4.53l-.61-.45c-3.43-2.57-7.19-4.63-11.05-6.46-1.09-4.37-.22-8.9.95-13.15l1.23-.83c-.03.85-.1 2.55-.13 3.4 1.1-1.22 2.1-2.53 2.66-4.1-1.08.23-2.16.46-3.23.68.14-.34.43-1.02.58-1.36 2.27-.9 4.39-2.19 4.12-5 .52-.35 1.57-1.05 2.09-1.4-.03-.63-.08-1.89-.11-2.52 1.26-.02 2.51-.04 3.77-.07-.05-.88-.15-2.65-.21-3.53 1.02 1.03 2.05 2.06 3.07 3.11.34-1.31.68-2.62 1.03-3.92zm-9.63 15.02c.84.14 2.53.42 3.37.55.76-1.2 1.47-2.42 2.1-3.68-1.16-.68-2.31-1.36-3.47-2.02-.91 1.62-1.66 3.32-2 5.15m20.29-10.08c1.79.79 3.58 1.56 5.38 2.33-.33 4.08-1.24 8.12-2.97 11.84-1.55-.76-3.09-1.53-4.62-2.3 1.59-3.76 2.23-7.8 2.21-11.87m-145.11 75.5c2.21-.36 2.09-2.93 2.81-4.57l-.01.69c0 1.07-.01 3.21-.01 4.27 2.68-.13 2.83-2.91 3.56-4.87.63.3 1.27.62 1.9.96-2.19 1.52-3.11 3.89-2.68 6.49 2.34-.81 3.78-2.84 3.61-5.33.6 1.04 1.15 2.11 1.64 3.22-2.35.98-4.51 2.68-4.45 5.51 1.38-.57 2.77-1.14 4.15-1.72q-.03.465-.03.96c-2.21.62-4.04 1.98-4.41 4.39l3-.04c.01.26.02.77.03 1.03-1.5.33-3.19.32-4.35 1.48.32 1.04.66 2.07 1.02 3.11-.72-.09-2.14-.26-2.86-.35-.28.54-.85 1.61-1.14 2.15l-.25.42c-1.15.19-2.3.36-3.44.52-.17.52-.52 1.57-.69 2.09-.1-.51-.31-1.53-.42-2.04-.89.16-1.79.33-2.68.5-1.15-1.75-2.29-3.5-3.43-5.25-5.36 1.48-3.9 8.71-.22 11.27 3.14 1.99 7.06.72 10.1-.85 1.79 1.07 3.58 2.14 5.38 3.22-2.55 2.01-5.37 4.08-8.62 4.59-3.4-2.67-7.08-5-11.14-6.52-1.49-6.24-.5-13.84 4.22-18.54l.04-2.54 2.56-.44c.78-1.12-.22-3.38 1.39-3.76.76.04 2.29.13 3.05.17l-.36-3.82.96 1.03zm.97.42c.35 1.38.71 2.76 1.07 4.15 1.29.32 2.59.64 3.89.95-.22-2.68-1.8-5.68-4.96-5.1m-6.5 5.42c-1.04 1.37-1.34 3.1-1.76 4.73 2.66.59 4.82-.51 5.6-3.13-1.09-.72-2.38-2.62-3.84-1.6m4.41 7.66c-.04 1.92 2.82 2 3.66.69 1.64-1.56 1.9-3.83 1.57-5.96-2.99-.34-5.52 2.34-5.23 5.27m14.31-13.26c1.75.82 3.5 1.64 5.26 2.44-.36 3.9-1.22 7.77-2.85 11.35-1.61-.66-3.21-1.31-4.81-1.95 1.65-3.73 2.21-7.8 2.4-11.84" />
  <path fill="#cecdcd"
    d="M346.36 177.28c.63.43 1.27.85 1.92 1.27-.11.14-.33.44-.45.59-.9 1.17-1.72 2.42-2.36 3.76l.21 1.9c.11 1.05.24 2.1.36 3.16-2.36-.71-4.33-1.98-4.23-4.73.48-.11 1.45-.34 1.94-.46l1.4-.36c1.13-1.51 1.52-3.29 1.21-5.13m-44.67 27.02c.91.38 1.82.72 2.75 1.06-3.44-.28-4.34 3.81-3.87 6.46.06.94.15 1.87.24 2.82-1.14-.4-2.28-.79-3.41-1.17-.43-1.33-.85-2.66-1.27-3.98.4-.03 1.18-.07 1.57-.1l1.91-.02c1.03-1.53 1.58-3.31 2.08-5.07" />
  <path fill="#8f1a1c"
    d="M39.96 178.03c.47.13 1.4.39 1.87.51-.7 4.85 4.98 5.71 7.88 8.16.13.09.41.27.55.36l-.7.76c-2.92-1.49-5.87-3.01-8.46-5.04-.88-1.4-.76-3.18-1.14-4.75m80.91 38.54c16.69-9.97 33.65-19.49 50.47-29.23 1.03 1.44 2 2.93 2.9 4.46-.35 21.01.07 42.04-.2 63.05-9.77.5-17.99 6.88-24.25 13.91-4.26 4.69-7.62 10.12-10.26 15.86-1.08 2.9-4.37 3.7-6.78 5.17-7.09 3.5-13.84 7.7-21.1 10.86-.08-8.86-.12-17.72.05-26.58.34-.19 1.02-.58 1.36-.77 4.29-2.3 8.4-4.91 12.41-7.67q.87.87 1.71 1.8c-1.27.8-2.53 1.63-3.64 2.65-2.05 2.06-5.51 3.5-5.44 6.86-.09 4.1-.85 8.53 1.11 12.34-.79 1.1-1.44 2.28-1.97 3.54 3.64-2.15 6.31-5.5 9.64-8.04 1.64-.13 3.33-.66 4.27-2.11 1.69.26 3.54.04 4.42-1.65 3.96-4.61 2.19-11.07 2.12-16.58-.6-.19-1.79-.59-2.39-.79-.03-1.24-.07-2.47-.13-3.7 4.89-3.15 9.81-6.26 14.84-9.17-.23 5.26-.84 10.59.29 15.79 2.09-5.26.48-11.16.96-16.68l-.01-.5c16.59-12.5 24.8-34.31 22.06-54.73-8.27 3.28-15.3 9.01-23.24 12.98-8.9 4.09-16.82 9.99-25.61 14.28-.99.34-1.98.69-2.96 1.06-.19-2.14-.4-4.28-.63-6.41m21.7 44.01c-1.77 1.69-1.42 4.35-1.64 6.57 2.65-1.4 5.38-2.71 7.8-4.48.96-1.79.22-3.99.28-5.93-2.23 1.12-4.55 2.17-6.44 3.84m-65.64-61.43c.36.15 1.1.45 1.47.6-.62 5.08 5.29 5.87 8.38 8.39l-.05 1.04c-3.36-1.48-6.51-3.37-9.61-5.32-.06-1.57-.13-3.14-.19-4.71" />
  <path fill="#8f4b21"
    d="M181.67 179.34c2.13-.47 4.26-.95 6.4-1.44.41 2.82.7 5.72-.03 8.53-1.27-1.56-2.49-3.16-3.79-4.69q-1.245-1.26-2.58-2.4" />
  <path fill="#85aaa2"
    d="M30.86 179.16c4.14 2.41 8.31 4.75 12.43 7.19-6.7 3.23-13.3 6.68-19.98 9.96-.23 3.06-.28 6.12-.35 9.18-.21.17-.62.52-.82.69.45-7.01-.11-14.05.68-21.04 2.79-1.84 5.46-3.86 8.04-5.98" />
  <path fill="#fceac8"
    d="M41.83 178.54c2.99 1.2 5.65 3.04 8.43 4.62-.18 1.18-.36 2.36-.55 3.54-2.9-2.45-8.58-3.31-7.88-8.16" />
  <path fill="#595959"
    d="M345.47 182.9c.64-1.34 1.46-2.59 2.36-3.76.49.46 1.46 1.4 1.95 1.87-.83 1.79-1.87 3.68-4.1 3.79zm-2.67 15.03c1.66-.09 4.6.7 3.15 2.9-1.89 1.55-3.55-1.1-3.15-2.9m-40.18 17.58c1.26-.12 2.53-.23 3.8-.34-.21 2.84-2.92 3.18-5.23 3.37.35-.76 1.07-2.27 1.43-3.03m-133.24 75.31c-.06-2.83 2.1-4.53 4.45-5.51-.09 1.26-.19 2.53-.3 3.79-1.38.58-2.77 1.15-4.15 1.72m-.29 3.63c.37-2.41 2.2-3.77 4.41-4.39.11.53.33 1.61.45 2.15-.6.75-1.21 1.49-1.86 2.2z" />
  <path fill="#166caf"
    d="M175.01 182.03c3.07-.2 6.16-.3 9.24-.29 1.3 1.53 2.52 3.13 3.79 4.69l.02.02c.48 1.07.94 2.16 1.39 3.25-2.55.18-5.1.37-7.65.55-2.1-2.87-4.54-5.47-6.79-8.22" />
  <path fill="#f4a040"
    d="M98.79 186.07c1.68-1.24 3.59-2.15 5.76-1.85-.83 1.98-2.24 3.47-4.34 4.07-.35-.55-1.07-1.66-1.42-2.22" />
  <path fill="#d95627"
    d="M104.55 184.22c.4-.16 1.18-.5 1.58-.66-.2 2.61-1.46 4.89-3.44 6.58-1.73.77-5.27 1.42-5.56-1.19-.37-1.34.82-2.12 1.66-2.88.35.56 1.07 1.67 1.42 2.22 2.1-.6 3.51-2.09 4.34-4.07" />
  <path fill="#f07a25" d="M106.13 183.56c5.38.92.16 7.78-3.44 6.58 1.98-1.69 3.24-3.97 3.44-6.58" />
  <path fill="#5c5c5c"
    d="M348.74 188.24c-4.18-.75.18-4.05 1.7-5.23.18.52.54 1.58.72 2.1-.77 1.08-1.59 2.11-2.42 3.13m-9.78 16.28c-.23-2.12-.93-4.97 2.22-4.76.32 1.5.64 2.99.97 4.49-1.06.1-2.13.2-3.19.27M294 226.91c2.3-.49 3.74 2.94 2.21 4.48-2.59.43-2.33-2.81-2.21-4.48" />
  <path fill="#65828b"
    d="M16.23 194.98c.47-4.24 2.69-7.96 6.59-9.84-.79 6.99-.23 14.03-.68 21.04-.8.68-1.6 1.36-2.39 2.05.77.6 1.54 1.21 2.32 1.82-2.73.91-5.29 2.25-7.71 3.8-4.29-2.22-5.93-7.47-4.47-11.94 1.17.5 2.33 1.01 3.49 1.52 1.66-2.53 2.28-5.52 2.85-8.45" />
  <path fill="#8ebeb2"
    d="M23.31 196.31c6.68-3.28 13.28-6.73 19.98-9.96 1.68.97 3.37 1.93 5.06 2.88-2.33 3.04-5.55 5.16-8.93 6.88-5.12 2.73-9.93 6.01-15.1 8.66l-1.36.72c.07-3.06.12-6.12.35-9.18" />
  <path fill="#b46c33"
    d="M188.06 186.45c4.04 1.5 8.1 3.69 10.24 7.62-2.85-.93-5.64-2.04-8.41-3.2l-.44-1.17a118 118 0 0 0-1.39-3.25" />
  <path fill="#040505" d="M315.2 194.07c-.41-2.61.07-6.18 2.86-7.29-.47 2.59-1.15 5.23-2.86 7.29" />
  <path fill="#dddfd9"
    d="M335.25 187.09c1.18.73 2.36 1.47 3.54 2.21-.65 1.15-1.3 2.29-1.94 3.44l-3.81-.12c.39-1.97 1.25-3.79 2.21-5.53m-47.42 31.94c.34-1.83 1.09-3.53 2-5.15 1.16.66 2.31 1.34 3.47 2.02-.63 1.26-1.34 2.48-2.1 3.68-.84-.13-2.53-.41-3.37-.55m-130.35 71.26c1.46-1.02 2.75.88 3.84 1.6-.78 2.62-2.94 3.72-5.6 3.13.42-1.63.72-3.36 1.76-4.73" />
  <path fill="#575757"
    d="m348.59 188.45 2.17.12c.43.37 1.29 1.1 1.72 1.46-.44 1.27-.89 2.53-1.38 3.78-.55 1.28-1.14 2.54-1.79 3.78-1.27-.6-2.52-1.19-3.79-1.78l.24-1.95c1.5-.41 3.02-.78 4.53-1.16-.98-.23-2.94-.68-3.92-.91.71-1.13 1.44-2.25 2.22-3.34M167.77 296.92c1.16-1.16 2.85-1.15 4.35-1.48l.12 3.81a60 60 0 0 1-4.17 5.63c-1.1-1.03-2.19-2.04-3.28-3.05.29-.54.86-1.61 1.14-2.15.72.09 2.14.26 2.86.35-.36-1.04-.7-2.07-1.02-3.11" />
  <path fill="#0c57a2"
    d="M181.8 190.25c2.55-.18 5.1-.37 7.65-.55l.44 1.17c.49 1.39.92 2.8 1.31 4.22.07 1.38.08 2.77.04 4.17-2.07.04-4.13.07-6.19.1-.82-3.12-1.85-6.2-3.25-9.11" />
  <path fill="#e0e0e0"
    d="M339.06 196.56c.29-2.61 1.18-5.63 4.03-6.43 1.92.28 1.46 2.58 1.9 3.96-.8 1.18-1.58 2.38-2.35 3.58zm-45.28 26.46c.15-3.02 1.66-6.34 5.19-6.19l.48 4.55c-.99 1.03-1.87 2.16-2.69 3.33zm-131.89 74.93c-.29-2.93 2.24-5.61 5.23-5.27.33 2.13.07 4.4-1.57 5.96-.84 1.31-3.7 1.23-3.66-.69" />
  <path fill="#985124"
    d="M189.89 190.87c2.77 1.16 5.56 2.27 8.41 3.2.23.48.68 1.43.9 1.91.12.5.36 1.49.49 1.99-2.69-1.15-5.42-2.23-8.28-2.83l-.21-.05a62 62 0 0 0-1.31-4.22" />
  <path fill="#4f260e"
    d="M202.93 194.91c2.49-1.56 5.11-2.87 7.75-4.14.16 1.26.33 2.54.49 3.81.92-.17 1.84-.33 2.76-.49-1.23 1.75-2.35 3.59-3.51 5.4-1.43 2.38-4.17 3.42-6.42 4.84-.66-.68-1.31-1.36-1.96-2.03-2.51 1.27-4.99 2.6-7.42 4-.9-.46-1.79-.93-2.68-1.41.01-2.63-.11-5.26-.34-7.88 2.81 1.46 5.7 2.76 8.48 4.29 2.32-.89 3.08-3 2.86-5.35z" />
  <path fill="#616088"
    d="M174.24 191.8c1.12 4.99.37 10.15.54 15.21.08 15.93-.17 31.87.12 47.8l-.86.04c.27-21.01-.15-42.04.2-63.05" />
  <path fill="#4d6875"
    d="M11.91 195.03c.52-.28 1.56-.85 2.09-1.13.55.27 1.67.81 2.23 1.08-.57 2.93-1.19 5.92-2.85 8.45-1.16-.51-2.32-1.02-3.49-1.52.63-2.31 1.37-4.58 2.02-6.88" />
  <path fill="#737374"
    d="M342.64 197.67c.77-1.2 1.55-2.4 2.35-3.58l.77-.23-.24 1.95c1.27.59 2.52 1.18 3.79 1.78-2.04 3.35-4.83 6.21-8.03 8.48-2.92 1.51-6.47 2.75-9.66 1.31-2.71-1.16-3.28-4.32-4.11-6.8 1.99-1.41 4.57-3.6 6.57-.82-1.29 1.35-2.17 2.97-2.76 4.72.31-.23.95-.67 1.27-.89 1.16.6 2.32 1.24 3.47 1.89-.62-1.8-.6-3.67-.1-5.51 2.14.62 1.99 2.93 2.71 4.56.07 0 .22-.01.29-.01 1.06-.07 2.13-.17 3.19-.27-.33-1.5-.65-2.99-.97-4.49.5-.69.99-1.38 1.46-2.09m.16.26c-.4 1.8 1.26 4.45 3.15 2.9 1.45-2.2-1.49-2.99-3.15-2.9m-43.35 23.45.26-.23c.44 2.1 2.75 2.18 4.42 2.78-1.94 3.39-4.59 6.35-7.86 8.48-3.68 2.72-10.1 3.77-12.63-.98-2.39-3.11.66-6.24 2.08-8.96.82 1.11 1.66 2.22 2.49 3.33l.44.56c.22.26.65.79.87 1.05 2.14-.3 4.26-.73 6.32-1.41.23-.32.69-.97.92-1.29.82-1.17 1.7-2.3 2.69-3.33m-2.14 2.75c.01.62.04 1.86.06 2.48.47.48 1.4 1.44 1.86 1.92a42 42 0 0 0 2.36-2.46c-1.23-1.07-2.58-2-4.28-1.94m-3.31 2.78c-.12 1.67-.38 4.91 2.21 4.48 1.53-1.54.09-4.97-2.21-4.48" />
  <path fill="#e9eae6"
    d="m351.1 193.81 4.56 2.82c-2.14 4.92-5.38 9.3-9.35 12.89-1.67-1.16-3.35-2.31-5.03-3.45 3.2-2.27 5.99-5.13 8.03-8.48.65-1.24 1.24-2.5 1.79-3.78m-45.19 27.01c1.53.77 3.07 1.54 4.62 2.3-2.35 4.94-5.53 9.47-9.66 13.09-1.63-1.15-3.18-2.4-4.6-3.8 3.27-2.13 5.92-5.09 7.86-8.48.6-1.03 1.18-2.08 1.78-3.11m-133.67 78.43c.55-.9 1.07-1.81 1.56-2.72 1.6.64 3.2 1.29 4.81 1.95-2.23 5-5.49 9.48-9.47 13.23-1.8-1.08-3.59-2.15-5.38-3.22 1.53-1.09 3-2.27 4.31-3.61a60 60 0 0 0 4.17-5.63" />
  <path fill="#272727"
    d="M150.07 207.64c7.94-3.97 14.97-9.7 23.24-12.98 2.74 20.42-5.47 42.23-22.06 54.73-.11-12.14-.03-24.28-.03-36.41.06-1.86-.56-3.62-1.15-5.34m14.89-4.6c-2.95 2.09-6.29 3.58-9.1 5.87-1.71 1.5-1.75 3.91-1.78 6.01.01 4.39-.5 8.79-.02 13.17.07 3.98-.4 7.97.13 11.94 1.89-.51 4.01-.96 5.2-2.68 3.66-4.85 6.71-10.35 7.85-16.38l.62-.26c1.33-4.45 1.95-9.06 2.31-13.68.06-1.87.93-4.09-.58-5.64-1.78-.73-3.19.87-4.63 1.65m-20.32 8.57c1.67-1.09 3.53-1.8 5.48-2.18.17 13.58.28 27.18-.07 40.76l-.04.59c-5.03 2.91-9.95 6.02-14.84 9.17q-.075-1.74-.12-3.48l.66-.36c3.69-1.96 7.79-3.59 10.57-6.84 1.95-2.38 2.53-5.51 2.77-8.49.42-6.25-.46-12.5-.17-18.75-.05-2.43.55-5.09-.62-7.35-2.63-1.79-5.47.5-7.79 1.74-5.28 3.55-11.93 5.67-15.02 11.69-.34-.06-1-.17-1.33-.23.75-1.99.7-4.74 2.82-5.83 5.9-3.49 11.86-6.87 17.7-10.44m-20.71 17c.63.62 1.26 1.26 1.89 1.9-.66 1.77-1.32 3.56-1.96 5.34 1.13.49 2.26.97 3.39 1.45-.03 9.09-.44 18.18-.22 27.27-.98-.1-1.96-.21-2.94-.31.34.34 1.03 1.03 1.38 1.37-4.01 2.76-8.12 5.37-12.41 7.67.07-4.12-.52-8.38.79-12.37 3.46-10.74 6.58-21.59 10.08-32.32m-.32 9.46c-1.97 8.43-5.18 16.53-7.05 24.98.46 4.64 5.37 1.54 7.5.02.24-8.34-.58-16.66-.45-25" />
  <path fill="#773f1a"
    d="M191.41 195.14c2.86.6 5.59 1.68 8.28 2.83-.13-.5-.37-1.49-.49-1.99 1.25-.02 2.49-.03 3.74-.03.22 2.35-.54 4.46-2.86 5.35-2.78-1.53-5.67-2.83-8.48-4.29-.05-.47-.14-1.4-.19-1.87" />
  <path fill="#465c67"
    d="M24.32 204.77c5.17-2.65 9.98-5.93 15.1-8.66 4.58 2.77 9.46 4.97 14.22 7.4 10.99 5.33 21.74 11.16 32.97 15.96 9.88 5.25 20.28 9.53 29.84 15.36-2.48 7.47-4.12 15.2-6.86 22.57-.12-3.43.13-6.9-.47-10.29-6.09-4.13-12.77-7.36-19.07-11.18-2.81-1.45-5.37-3.87-8.71-3.81-2.92-.68-5.66-1.95-8.35-3.26-9.94-5.03-19.96-9.94-29.89-14.99-6.35-2.84-12.82-5.47-18.78-9.1" />
  <path fill="#e39b55"
    d="M210.8 201.77c1.12-1.4 2.49-2.57 3.92-3.64-.02 1.49-.04 2.98-.05 4.47-1.14.69-2.29 1.39-3.43 2.09z" />
  <path fill="#233f86"
    d="M185.05 199.36c2.06-.03 4.12-.06 6.19-.1-.67 12.85.58 25.7.14 38.56-1.76.05-3.53.11-5.29.17-.24 4.09-.37 8.19-.8 12.26-.82-16.95.61-33.95-.24-50.89" />
  <path fill="#313131"
    d="M252.18 198.58c7.09 3.34 14.12 7.12 20.26 12.02-3.78 5.97-6.85 12.36-10.59 18.35-1.53-.69-3.05-1.38-4.53-2.14-5.63-3.69-11.99-6.21-17.24-10.46 3.55-2.35 5.28-6.38 7.47-9.86 1.63-2.58 3.05-5.3 4.63-7.91" />
  <path fill="#fae4c1"
    d="M78.4 199.75c2.98 1.59 6.83 2.67 8.56 5.81-.05.64-.13 1.93-.18 2.58-3.09-2.52-9-3.31-8.38-8.39" />
  <path fill="#212f3b"
    d="M164.96 203.04c1.44-.78 2.85-2.38 4.63-1.65 1.51 1.55.64 3.77.58 5.64-.36 4.62-.98 9.23-2.31 13.68l-.62.26c-4.7 1.79-8.82 4.69-13.18 7.12-.48-4.38.03-8.78.02-13.17.03-2.1.07-4.51 1.78-6.01 2.81-2.29 6.15-3.78 9.1-5.87" />
  <path fill="#bf702d"
    d="M197.13 207.43c4.64-1.73 10.01-1.9 13.67-5.66l.44 2.92c1.14-.7 2.29-1.4 3.43-2.09-.01 1.74-.01 3.49.01 5.23-1.07.31-2.12.63-3.18.95l-.44-3.57c-4.09.63-9.25 3.11-8.46 8.09l-.02 1.34c-3.59-1.3-7.06-2.91-10.49-4.59-.07-1.72-.13-3.44-.15-5.16.89.48 1.78.95 2.68 1.41.63.28 1.88.85 2.51 1.13" />
  <path fill="#5b5a5a"
    d="M283.38 218.47c1.48-6.25 6.19-11.38 11.04-15.4.9.69 1.81 1.38 2.72 2.07-.35 1.3-.69 2.61-1.03 3.92-1.02-1.05-2.05-2.08-3.07-3.11.06.88.16 2.65.21 3.53-1.26.03-2.51.05-3.77.07.03.63.08 1.89.11 2.52-.52.35-1.57 1.05-2.09 1.4.27 2.81-1.85 4.1-4.12 5" />
  <path fill="#606060"
    d="m299.42 203.34 2.27.96c-.5 1.76-1.05 3.54-2.08 5.07l-1.91.02c.06-1.47.07-2.94.01-4.41.42-.41 1.28-1.23 1.71-1.64m2.83 12.07c-1.84-2.82 1.23-4.74 3.41-5.94.14.62.42 1.85.56 2.46-1.28 1.21-2.63 2.34-3.97 3.48" />
  <path fill="#4f6d7b"
    d="m22.96 205.49 1.36-.72c5.96 3.63 12.43 6.26 18.78 9.1 9.93 5.05 19.95 9.96 29.89 14.99 2.69 1.31 5.43 2.58 8.35 3.26-2.01 1.52-3.93 3.26-6.34 4.11-2.23-.64-4.18-1.93-6.17-3.07-9.72-5.63-19.45-11.23-29.24-16.74-5.44-3.02-10.84-7.63-17.52-6.37-.78-.61-1.55-1.22-2.32-1.82.79-.69 1.59-1.37 2.39-2.05.2-.17.61-.52.82-.69" />
  <path fill="#733416"
    d="M202.6 213.3c-.79-4.98 4.37-7.46 8.46-8.09l.44 3.57c1.06-.32 2.11-.64 3.18-.95.01 2.03.04 4.05.04 6.08l-.15.03c-1.1-.04-2.21-.12-3.3-.19-.22-1.39-.44-2.78-.65-4.17-2.73 1.12-5.4 2.37-8.02 3.72" />
  <path fill="#5a5b5b" d="M300.57 211.82c-.47-2.65.43-6.74 3.87-6.46.06 2.8-1.07 5.46-3.87 6.46" />
  <path fill="#3d3d3d"
    d="M4.05 217.32c.62-2.34 1.04-4.73 1.6-7.09 33.85 19.96 68.07 39.33 102.03 59.11-.63 2.07-1.18 4.16-1.77 6.24-3.21-1.15-6.29-2.62-9.45-3.88-11.33-5.15-22.79-10.02-34.17-15.05-4.99-2.27-10.3-4.01-14.75-7.29-7.75-5.56-15.48-11.14-23.25-16.66-3.21-2.4-6.37-4.89-9.9-6.81-1.75-1.56-3.55-3.06-5.39-4.51-1.61-1.4-3.23-2.79-4.95-4.06" />
  <path fill="#6f94a2"
    d="M14.36 213.85c2.42-1.55 4.98-2.89 7.71-3.8 6.68-1.26 12.08 3.35 17.52 6.37 9.79 5.51 19.52 11.11 29.24 16.74 1.99 1.14 3.94 2.43 6.17 3.07 2.41-.85 4.33-2.59 6.34-4.11 3.34-.06 5.9 2.36 8.71 3.81 6.3 3.82 12.98 7.05 19.07 11.18.6 3.39.35 6.86.47 10.29-1.72 2.58-4.37 4.77-7.59 4.93-4.19.52-7.58-2.39-11.03-4.26-25.54-14.74-51.06-29.51-76.61-44.22" />
  <path fill="#81421d"
    d="M192.09 210.05c3.43 1.68 6.9 3.29 10.49 4.59 0 1.43.02 2.86.02 4.3-3.71-1.58-7.31-3.41-10.98-5.08a99 99 0 0 1 .47-3.81" />
  <path fill="#202e3a"
    d="M140.47 216.42c2.32-1.24 5.16-3.53 7.79-1.74 1.17 2.26.57 4.92.62 7.35-6.96 2.53-14.26 4.21-20.94 7.45-.82-.48-1.65-.94-2.49-1.37 3.09-6.02 9.74-8.14 15.02-11.69" />
  <path fill="#ced9de"
    d="M331.97 223.25c7.31-.2 13.67-4.62 18.74-9.56 11.58.7 23.55 1.16 34.39 5.74 6.11-1.59 11.86-7.34 18.47-4.74 10.78 6.1 21.43 12.43 32.21 18.54 2.69 1.48 5.22 3.34 8.22 4.17v.26c-44.08 25.27-88.02 50.81-132.04 76.18-6.23 3.73-12.84 6.86-18.56 11.4-2.05 1.99-4.93 1.7-7.48 1.11l2.88.8c-5.86 3.8-12.42 6.56-17.85 10.99-.51.14-1.55.4-2.07.54-3.15 2.88-7.34 4.04-10.88 6.31-10.73 6.14-21.34 12.49-32.17 18.45-.11.43-.35 1.27-.47 1.7-6.56 4.57-14.81 3.53-22.35 4.35-5.17-.19-10.61 1.04-15.55-.98-13.79-5.03-27.66-9.88-41.42-14.99-8.95-4.87-17.51-10.46-26.38-15.48 7.54-3.75 14.62-8.31 22-12.36 1.54-.78 2.79-1.99 3.93-3.27 4.3 3.06 9.93 4.16 14.91 2.1 11.08-4.16 18.77-14.19 23.77-24.54 3.87-.91 7.12-3.26 10.49-5.22 24.22-14.1 48.48-28.12 72.67-42.27 3.35-1.83 6.65-3.76 9.72-6.04 5.06 3.91 12.08 4.39 17.73 1.48 12.01-5.87 19.79-17.87 23.97-30.21 4.17 2.23 8.16 5.45 13.12 5.54M8.32 289.92c-.68-2.79 1.59-5.04 3.86-6.2 24.43 14.27 49.01 28.3 73.47 42.54 2.6 1.47 5.21 3.35 8.33 3.34 4.13.14 8.29.55 12.43.15 4.1 3.05 8.61 5.48 12.96 8.14-6.89 2.23-14.31 3.11-21.47 1.68-6.27-1.01-11.93-4.06-17.36-7.21C57.7 319.59 34.86 306.8 12 294.06c-1.67-.89-3.4-2.11-3.68-4.14" />
  <path fill="#bf2026"
    d="M2.51 217.21c.38.03 1.16.09 1.54.11 1.72 1.27 3.34 2.66 4.95 4.06 3.01 4.29 6.98 8.05 8.56 13.2 2.93 7.09 1.45 14.82 1.38 22.23-1.88-1.11-3.81-2.14-5.69-3.24.54-9.22-4.54-17.76-11.4-23.55.2-4.27.38-8.55.66-12.81m87.1 55.76c.46-.06 1.39-.17 1.85-.22 4.83.11 9.05 2.48 13.34 4.41.73-.6 1.48-1.19 2.24-1.75.78-.23 2.34-.68 3.12-.91l1.1.38c.36 8.66.09 17.34.11 26-.77.52-1.53 1.05-2.29 1.58-3.01.52-6.03.98-9.08 1.22l-.9-.44c.86-5.11 2.67-10.01 3.47-15.12-2.37-2.55-6.32-2.81-9.59-2.4-4.93.58-8.96 3.71-12.78 6.62-1.15-.62-2.32-1.23-3.46-1.85l-.33-.77c.45-2.55 1.24-5.01 1.88-7.51 2.55-4.34 6.81-7.24 11.32-9.24" />
  <path fill="#c42627"
    d="M108.66 218.11c4.06 1.63 8.61.79 12.21-1.54.23 2.13.44 4.27.63 6.41-.38.2-1.14.59-1.52.78-.44.23-1.33.69-1.77.92-3.1.87-6.44.8-9.4-.51-.12-2.02-.19-4.04-.15-6.06" />
  <path fill="#a6b9c1"
    d="m238.52 217.24 1.56-.89c5.25 4.25 11.61 6.77 17.24 10.46.41 2.52.9 5.09 2.13 7.37 3.83 5.81 11.1 7.64 16.54 11.55.29.18.87.54 1.16.71-3.07 2.28-6.37 4.21-9.72 6.04-24.19 14.15-48.45 28.17-72.67 42.27-3.37 1.96-6.62 4.31-10.49 5.22 3.47-8.64 5.92-18.93 1.44-27.67 17.53-9.96 34.92-20.15 52.42-30.16 2.4-1.27 4.43-3.17 5.53-5.69.53-2.86.36-5.8-.27-8.62-.76-3.27-2.44-6.2-4.65-8.7-.06-.47-.16-1.41-.22-1.89M115.17 324.59c5.75-3.34 11.51-6.67 17.28-9.98 3.9 2.48 8 4.62 11.93 7.04.3.19.91.57 1.21.76-1.14 1.28-2.39 2.49-3.93 3.27-7.38 4.05-14.46 8.61-22 12.36l-.29-.15c-4.35-2.66-8.86-5.09-12.96-8.14 2.92-1.71 5.81-3.48 8.76-5.16" />
  <path fill="#b2b2b2"
    d="M191.57 245.84c15.6-9.11 31.44-17.81 47.17-26.71 2.21 2.5 3.89 5.43 4.65 8.7-20.13 11.66-40.58 22.77-60.71 34.42-.17-.58-.5-1.75-.67-2.33.13-.34.4-1.03.53-1.37 4.56-2.67 10.02-6.68 9.03-12.71" />
  <path fill="#253f4e"
    d="M154.06 228.09c4.36-2.43 8.48-5.33 13.18-7.12-1.14 6.03-4.19 11.53-7.85 16.38-1.19 1.72-3.31 2.17-5.2 2.68-.53-3.97-.06-7.96-.13-11.94" />
  <path fill="#2e2e2e"
    d="M121.5 222.98c.98-.37 1.97-.72 2.96-1.06-3.49 13.52-8.16 26.73-12.08 40.13-.72 3.96-.27 8.02-.68 12.02-.39.11-1.16.33-1.54.43-.78.23-2.34.68-3.12.91l-1.13.17c.59-2.08 1.14-4.17 1.77-6.24 4.77-14.94 9.13-30.01 13.33-45.11l-1.03-.47c.38-.19 1.14-.58 1.52-.78M0 248.92c6.91 3.53 13.5 7.65 20.37 11.26.07 2.92.18 5.87.81 8.74.7 3.15 3.38 5.22 5.72 7.18 5.74 4.58 11.02 9.79 17.34 13.6 8.23 5.19 17.61 8.03 26.64 11.43 1.73.78 4.1.85 5.07-1.1.55-3.41.06-6.89.46-10.31l.33.77c.22.49.65 1.47.86 1.96 6.92 4 13.85 8 20.84 11.89 3.38 1.19 8.33 1.39 10.64-1.88.76-.53 1.52-1.06 2.29-1.58l-.02 1.39c9.05-3.82 17.32-9.24 26.3-13.19-1.75 4.8-2.65 9.82-3.43 14.86-7.25 3.74-14.18 8.08-21.24 12.16.04 2.63-1.21 5.81.73 8.02l1.46.47c-2.95 1.68-5.84 3.45-8.76 5.16-4.14.4-8.3-.01-12.43-.15-3.12.01-5.73-1.87-8.33-3.34-24.46-14.24-49.04-28.27-73.47-42.54-2.66-1.62-5.52-2.98-7.84-5.09-2.49-2.34-3.66-5.69-4.34-8.96zm1.31 6.9c-.03 2.78-.24 5.65.73 8.32l-.94-.35c.31 1.47.31 3.4 1.96 4.07 3.89 2.34 7.74 4.86 11.98 6.53.31-.48.93-1.45 1.24-1.94.06-1.34.12-2.68.19-4.02-.11-.86-.34-2.57-.45-3.42-3.17-2.59-6.96-4.29-10.49-6.31l.01-.2c-1.38-.94-2.79-1.84-4.23-2.68m113.77 48.28c-3.71 1.38-2.06 5.91-2.13 8.9 7.07-3.42 13.89-7.46 20.55-11.61.69-2.47.27-5.15.36-7.69-6.59 2.81-12.43 7.11-18.78 10.4m-33.88-1.01c-.26 3.16-1.02 6.58.11 9.63 2.48 2.64 6.18 3.7 9.11 5.78 2.91 2.12 7.26 3.36 10.48 1.28-1.43-1.67-4.03-.74-5.82-1.8 1.76.31 3.55.12 5.32.14.02-2.71.03-5.42 0-8.12q-3.03-.015-6.06 0c-2.67-1.59-5.33-3.21-8.15-4.51l-.1-.69c-1.58-.7-3.23-1.24-4.89-1.71" />
  <path fill="#264050"
    d="M127.94 229.48c6.68-3.24 13.98-4.92 20.94-7.45-.29 6.25.59 12.5.17 18.75-4.41 1.18-8.74 2.63-12.97 4.36-.47 3.64-.46 7.31-.37 10.97l-.66.36c-.16-4.71.15-9.43-.11-14.14-1.89-1.41-3.99-2.5-6.12-3.51-.17-3.11.38-6.4-.88-9.34" />
  <path fill="#c7c6c6" d="M288.21 225.8c.36-1.4 2.16-2.22 3.33-1.17 1.28 1.59-1.91 1.94-2.89 1.73z" />
  <path fill="#5f5e5e"
    d="M297.31 224.13c1.7-.06 3.05.87 4.28 1.94a42 42 0 0 1-2.36 2.46c-.46-.48-1.39-1.44-1.86-1.92-.02-.62-.05-1.86-.06-2.48" />
  <path fill="#676767"
    d="M14.39 225.89c3.53 1.92 6.69 4.41 9.9 6.81 7.77 5.52 15.5 11.1 23.25 16.66 4.45 3.28 9.76 5.02 14.75 7.29 11.38 5.03 22.84 9.9 34.17 15.05-1.67.33-3.33.72-5 1.05-.46.05-1.39.16-1.85.22-2.69-.54-6-1.93-8.29.34-2.1 2.45-2.25 5.9-3.03 8.9-.64 2.5-1.43 4.96-1.88 7.51-.4 3.42.09 6.9-.46 10.31-.97 1.95-3.34 1.88-5.07 1.1-9.03-3.4-18.41-6.24-26.64-11.43-6.32-3.81-11.6-9.02-17.34-13.6-2.34-1.96-5.02-4.03-5.72-7.18-.63-2.87-.74-5.82-.81-8.74-.01-.55-.02-1.65-.02-2.19.11-3.21.33-6.41.62-9.6.92-3.08 2.41-6.12 2.23-9.4-.67-2.74-3.06-4.51-4.86-6.51-1.36-2.17-2.63-4.4-3.95-6.59m10.03 20.24c.12.95.24 1.89.37 2.84 3.42 1.07 6.18 3.42 9.12 5.37 11.27 7.77 23.38 14.22 35.58 20.38 1.41.78 3 1.04 4.57 1.25-.16-2.56-2.81-3.29-4.62-4.44-15.06-8.37-29.86-17.21-45.02-25.4m-.09 7.45c.27.5.8 1.52 1.07 2.02 14.95 10.92 31.11 20.12 47.83 28.02.13-.58.37-1.75.49-2.34-14.91-8.82-30.15-17.12-45.14-25.83-1.33-.8-2.77-1.39-4.25-1.87m.41 7.06-.21 1.56c15.31 11.11 31.76 20.63 48.87 28.68.28-1.24.72-2.9-.93-3.32-15.95-8.91-31.68-18.22-47.73-26.92m-.07 7.19-.14 1.42c15.25 11.17 31.67 20.84 48.88 28.68.09-.62.26-1.86.35-2.48-16.43-9.08-32.55-18.76-49.09-27.62" />
  <path fill="#050505"
    d="M124.12 227.88c.33.06.99.17 1.33.23.84.43 1.67.89 2.49 1.37 1.26 2.94.71 6.23.88 9.34.12 5.87-.49 11.79.56 17.62.33 6.51-.88 13.07.04 19.57.08 1.72-.13 3.44-.26 5.17 1.29-.31 3.09-.09 3.42-1.78.68-2.07-.61-4.14-1.07-6.14.34-.37 1.04-1.11 1.39-1.49 1.65 2.82 2.97 5.91 2.67 9.25-.88 1.69-2.73 1.91-4.42 1.65-1.93-1.51-3.61.29-4.27 2.11-3.33 2.54-6 5.89-9.64 8.04.53-1.26 1.18-2.44 1.97-3.54 2.98-2.53 5.84-5.18 8.43-8.09-.23-.45-.7-1.35-.94-1.8.18-3.99.59-7.97.48-11.96a49 49 0 0 0-1.71-1.8c-.35-.34-1.04-1.03-1.38-1.37.98.1 1.96.21 2.94.31-.22-9.09.19-18.18.22-27.27-.11-2.31.85-5.22-1.43-6.79-.63-.64-1.26-1.28-1.89-1.9z" />
  <path fill="#7f7f7f"
    d="M182.68 262.25c20.13-11.65 40.58-22.76 60.71-34.42.63 2.82.8 5.76.27 8.62-1.04.3-2.09.59-3.07 1.07-18.94 10.55-37.71 21.45-56.75 31.81-.38-2.37-.69-4.74-1.16-7.08" />
  <path fill="#243845"
    d="M123.86 235.85c.64-1.78 1.3-3.57 1.96-5.34 2.28 1.57 1.32 4.48 1.43 6.79-1.13-.48-2.26-.96-3.39-1.45" />
  <path fill="#5c5d5d"
    d="M240.59 237.52c.98-.48 2.03-.77 3.07-1.07-1.1 2.52-3.13 4.42-5.53 5.69-17.5 10.01-34.89 20.2-52.42 30.16-2.06-2.45-4.59-4.46-7.38-6.04-.52-.29-1.55-.88-2.07-1.18-.03-1.75-.06-3.5-.08-5.25 1.13.65 2.13.48 3.02-.52.37-.56 1.11-1.67 1.48-2.23q.93.72 1.86 1.47c-.13.34-.4 1.03-.53 1.37.17.58.5 1.75.67 2.33.47 2.34.78 4.71 1.16 7.08 19.04-10.36 37.81-21.26 56.75-31.81m-72.01 49.9c-.43-2.6.49-4.97 2.68-6.49l.93 1.16c.17 2.49-1.27 4.52-3.61 5.33" />
  <path fill="#2f5d74"
    d="M123.61 238.07c-.13 8.34.69 16.66.45 25-2.13 1.52-7.04 4.62-7.5-.02 1.87-8.45 5.08-16.55 7.05-24.98" />
  <path fill="#262f6d"
    d="M186.09 237.99c1.76-.06 3.53-.12 5.29-.17-.01 2.67.11 5.35.19 8.02.99 6.03-4.47 10.04-9.03 12.71 1.39-2.59 2.63-5.32 2.75-8.3.43-4.07.56-8.17.8-12.26" />
  <path fill="#242424"
    d="M128.82 238.82c2.13 1.01 4.23 2.1 6.12 3.51-.9.81-2.78 1.16-2.67 2.7-.58 7.89.71 15.89-.86 23.71.13.27.38.81.5 1.07.25.49.74 1.47.99 1.96-.35.38-1.05 1.12-1.39 1.49.46 2 1.75 4.07 1.07 6.14-.33 1.69-2.13 1.47-3.42 1.78.13-1.73.34-3.45.26-5.17-.92-6.5.29-13.06-.04-19.57-1.05-5.83-.44-11.75-.56-17.62m-5.28 31.26c1.11-1.02 2.37-1.85 3.64-2.65.11 3.99-.3 7.97-.48 11.96-2.09-2.67-3.63-5.82-3.16-9.31" />
  <path fill="#2e596e"
    d="M136.08 245.14c4.23-1.73 8.56-3.18 12.97-4.36-.24 2.98-.82 6.11-2.77 8.49-2.78 3.25-6.88 4.88-10.57 6.84-.09-3.66-.1-7.33.37-10.97" />
  <path fill="#121212"
    d="M132.27 245.03c-.11-1.54 1.77-1.89 2.67-2.7.26 4.71-.05 9.43.11 14.14q.045 1.74.12 3.48c.06 1.23.1 2.46.13 3.7.04 2.51-.03 5.01-.11 7.52-1.1-.44-2.19-.89-3.28-1.36-.12-.26-.37-.8-.5-1.07 1.57-7.82.28-15.82.86-23.71" />
  <path fill="#0e0e0f"
    d="M24.42 246.13c15.16 8.19 29.96 17.03 45.02 25.4 1.81 1.15 4.46 1.88 4.62 4.44-1.57-.21-3.16-.47-4.57-1.25-12.2-6.16-24.31-12.61-35.58-20.38-2.94-1.95-5.7-4.3-9.12-5.37-.13-.95-.25-1.89-.37-2.84m-.09 7.45c1.48.48 2.92 1.07 4.25 1.87 14.99 8.71 30.23 17.01 45.14 25.83-.12.59-.36 1.76-.49 2.34-16.72-7.9-32.88-17.1-47.83-28.02-.27-.5-.8-1.52-1.07-2.02m118.24 7c1.89-1.67 4.21-2.72 6.44-3.84-.06 1.94.68 4.14-.28 5.93-2.42 1.77-5.15 3.08-7.8 4.48.22-2.22-.13-4.88 1.64-6.57m-117.83.06c16.05 8.7 31.78 18.01 47.73 26.92 1.65.42 1.21 2.08.93 3.32-17.11-8.05-33.56-17.57-48.87-28.68zm-.07 7.19c16.54 8.86 32.66 18.54 49.09 27.62-.09.62-.26 1.86-.35 2.48-17.21-7.84-33.63-17.51-48.88-28.68zm56.65 5.48c2.29-2.27 5.6-.88 8.29-.34-4.51 2-8.77 4.9-11.32 9.24.78-3 .93-6.45 3.03-8.9" />
  <path fill="#231d1b"
    d="M1.11 246.55c4.04 2.35 8.1 4.66 12.14 7.02 1.88 1.1 3.81 2.13 5.69 3.24.35.29 1.05.88 1.41 1.18 0 .54.01 1.64.02 2.19-6.87-3.61-13.46-7.73-20.37-11.26v-.46z" />
  <path fill="#b41f24" d="m150.05 250.19 1.21-.3c-.48 5.52 1.13 11.42-.96 16.68-1.13-5.2-.52-10.53-.29-15.79z" />
  <path fill="#f68c36"
    d="M1.31 255.82c1.44.84 2.85 1.74 4.23 2.68l-.01.2c-.04 1.36-.06 2.72-.05 4.09.31 1.34.69 2.66 1.09 3.98-1.48-.94-2.93-1.93-4.53-2.63-.97-2.67-.76-5.54-.73-8.32M94.34 310q3.03-.015 6.06 0c.03 2.7.02 5.41 0 8.12-1.77-.02-3.56.17-5.32-.14-.81-.4-1.61-.82-2.38-1.28.5-1.1 1-2.21 1.47-3.33.04-.84.13-2.53.17-3.37" />
  <path fill="#adc2d7"
    d="M5.53 258.7c3.53 2.02 7.32 3.72 10.49 6.31.11.85.34 2.56.45 3.42-3.82-1.57-7.34-3.74-10.99-5.64-.01-1.37.01-2.73.05-4.09m80.66 46.79c2.82 1.3 5.48 2.92 8.15 4.51-.04.84-.13 2.53-.17 3.37-3.36-1.7-8.67-3.03-7.98-7.88" />
  <path fill="#131313"
    d="M169.92 261.39c1.87-1.3 4.05-1.91 6.26-2.32v.76c.02 1.75.05 3.5.08 5.25-2.13-1.2-4.25-2.42-6.34-3.69" />
  <path fill="#36689e" d="m176.18 259.07 3.02.24c-.89 1-1.89 1.17-3.02.52z" />
  <path fill="#d1dbe5"
    d="M5.48 262.79c3.65 1.9 7.17 4.07 10.99 5.64-.07 1.34-.13 2.68-.19 4.02-3.18-1.98-6.53-3.69-9.71-5.68-.4-1.32-.78-2.64-1.09-3.98" />
  <path fill="#2d526a"
    d="M135.3 263.65c.6.2 1.79.6 2.39.79.07 5.51 1.84 11.97-2.12 16.58.3-3.34-1.02-6.43-2.67-9.25-.25-.49-.74-1.47-.99-1.96 1.09.47 2.18.92 3.28 1.36.08-2.51.15-5.01.11-7.52" />
  <path fill="#18171d"
    d="M161.22 266.27c2.37-2.27 5.13-.11 7.34 1.18 3.24-.53 6.5-.95 9.77-1.19 2.79 1.58 5.32 3.59 7.38 6.04 4.48 8.74 2.03 19.03-1.44 27.67-5 10.35-12.69 20.38-23.77 24.54-4.98 2.06-10.61.96-14.91-2.1-.3-.19-.91-.57-1.21-.76-.24-3.71-2.95-6.36-6.13-7.89.65-1.55 1.48-3.07 1.64-4.77.51-16.39 8.57-32.45 21.33-42.72m-.38 13.58.4 2.03-.96-1.03.36 3.82c-.76-.04-2.29-.13-3.05-.17-1.61.38-.61 2.64-1.39 3.76l-2.56.44-.04 2.54c-4.72 4.7-5.71 12.3-4.22 18.54.25 5.47 6.33 8.26 11.14 6.52 3.25-.51 6.07-2.58 8.62-4.59 3.98-3.75 7.24-8.23 9.47-13.23 1.63-3.58 2.49-7.45 2.85-11.35.64-5.18-2.6-11.9-8.52-11.77-4.52-.43-8.42 2.28-12.1 4.49" />
  <path fill="#2e566e"
    d="M118.1 276.94c-.07-3.36 3.39-4.8 5.44-6.86-.47 3.49 1.07 6.64 3.16 9.31.24.45.71 1.35.94 1.8-2.59 2.91-5.45 5.56-8.43 8.09-1.96-3.81-1.2-8.24-1.11-12.34" />
  <path fill="#5b5b5b" d="M165.81 280.57c1.1-.63 2.27-1.31 3.55-.6-.73 1.96-.88 4.74-3.56 4.87 0-1.06.01-3.2.01-4.27" />
  <path fill="#405160" d="M126.88 284.78c.66-1.82 2.34-3.62 4.27-2.11-.94 1.45-2.63 1.98-4.27 2.11" />
  <path fill="#c9c8c8"
    d="M163.98 284.87c3.16-.58 4.74 2.42 4.96 5.1-1.3-.31-2.6-.63-3.89-.95-.36-1.39-.72-2.77-1.07-4.15" />
  <path fill="#141414"
    d="M76.74 290.49c1.14.62 2.31 1.23 3.46 1.85 6.33 3.59 12.58 7.31 18.9 10.9l.9.44c3.05-.24 6.07-.7 9.08-1.22-2.31 3.27-7.26 3.07-10.64 1.88-6.99-3.89-13.92-7.89-20.84-11.89-.21-.49-.64-1.47-.86-1.96m38.34 13.61c6.35-3.29 12.19-7.59 18.78-10.4-.09 2.54.33 5.22-.36 7.69-6.66 4.15-13.48 8.19-20.55 11.61.07-2.99-1.58-7.52 2.13-8.9m-2.1 12c7.06-4.08 13.99-8.42 21.24-12.16-.36 2.63-.42 5.29-.48 7.94-3.83.31-8.01.21-11.3 2.51-3.58 2.56-6.33 6.08-8.73 9.73-1.94-2.21-.69-5.39-.73-8.02" />
  <path fill="#585858" d="M154.57 303.16c2.64-1.44 1.76 4.32-.47 3.46-.6-1.23-.44-2.38.47-3.46" />
  <path fill="#d3dde6"
    d="m84.55 304.43 1.54.37.1.69c-.69 4.85 4.62 6.18 7.98 7.88-.47 1.12-.97 2.23-1.47 3.33-2.56-1.61-5.4-2.83-7.69-4.85-.79-2.38-.33-4.97-.46-7.42" />
</svg>