<svg width="540" height="263pt" viewBox="0 0 405 263" xmlns="http://www.w3.org/2000/svg"><path fill="#525554" d="M376.29 4.11c-.02-1.17-.05-2.34-.06-3.51l.56 3.53c2.23 1.43 4.47 2.82 6.72 4.22-1.98.82-5.08 3.13-6.08-.13-1.15.3-2.3.62-3.44.94a44.55 44.55 0 0 1-7.58-4.85c.65-.39 1.96-1.18 2.62-1.57 1.05.63 2.1 1.26 3.16 1.88l4.1-.51z"/><path fill="#32353c" d="M376.23.6c1.24.41 2.9.15 3.95 1.1.4.63 1.19 1.89 1.59 2.53 1.72.51 3.44 1.06 5.17 1.59 1.25 3.25 4.61 4.39 7.6 5.5.86-.59 1.73-1.18 2.61-1.77.74.79 1.5 1.57 2.26 2.35-.46.46-1.38 1.39-1.85 1.86.58.69 1.12 1.41 1.63 2.16.59 1.19 1.16 2.39 1.71 3.6 1.2-.2 2.4-.41 3.61-.62-.03 1.2-.05 2.4-.07 3.61-.73.36-2.2 1.1-2.94 1.47 0 1.39 0 2.78.01 4.17.81.54 1.63 1.07 2.45 1.61.02.86.05 2.59.07 3.46-1.21.74-2.46 1.42-3.69 2.11-.45 1.51-1.29 3.23.78 3.84-1.17 1.06-2.38 2.13-3.13 3.55-.87 1.81-1.67 3.66-2.54 5.47.89 1.27 1.7 2.59 2.5 3.91-.82 1.06-1.63 2.14-2.43 3.22-1.16-.66-2.31-1.32-3.46-1.98-.86 1.02-1.72 2.03-2.58 3.05.4 1.18.83 2.36 1.27 3.53-.87.73-1.75 1.43-2.6 2.15-.64-.4-1.92-1.22-2.56-1.63-1.17.93-2.33 1.85-3.49 2.78-.14 1.11-.27 2.22-.39 3.33-.93.43-1.85.87-2.77 1.3-.54-.3-1.6-.91-2.14-1.22-1.19.68-2.38 1.35-3.57 2.03v2.63c-.9.52-1.8 1.05-2.69 1.59-.81-.43-1.61-.86-2.42-1.28-1.08.56-2.15 1.13-3.22 1.69-.11 1-.21 2-.3 3-.91.5-1.81 1.01-2.7 1.52-.86-.43-1.72-.87-2.58-1.3-1.08.62-2.16 1.23-3.24 1.84-.12 1.07-.23 2.14-.34 3.21-.89.41-1.77.83-2.64 1.25l-2.35-1.39-3.24 1.8c-.02 1-.04 2-.05 3-1.01.54-2 1.08-2.99 1.62l-2.46-1.49c-1.07.6-2.12 1.2-3.17 1.81.36 2.26-.55 4.01-2.78 4.65-.95-.5-1.89-1.01-2.82-1.51-.75.44-2.24 1.31-2.98 1.75-.02 1.03-.04 2.06-.04 3.09-.9.55-1.78 1.09-2.66 1.64a432.9 432.9 0 0 1-3.06-1.56c-1.01.61-2.01 1.23-3 1.84-.02 1.06-.03 2.13-.04 3.2-.92.5-1.83.99-2.75 1.48-1.82-1.76-3.93-1.51-5.76.06v3.42c-.92.5-1.84 1.01-2.74 1.51-1.83-1.47-3.95-1.83-5.75-.1v3.47c-.7.41-2.11 1.24-2.81 1.66-1.03-.59-2.05-1.17-3.06-1.75-.97.55-1.94 1.1-2.9 1.65l.04 3.18c-.91.5-1.82 1.01-2.73 1.52-.96-.52-1.93-1.02-2.88-1.53-.71.37-2.12 1.11-2.83 1.48-.01 1.12-.03 2.23-.03 3.35-1 .58-1.98 1.16-2.96 1.75-.98-.54-1.96-1.09-2.92-1.65-.69.36-2.08 1.07-2.77 1.43-.05 1.19-.1 2.37-.13 3.56-.89.53-1.77 1.08-2.65 1.63l-3.18-1.74c-1.02.66-2.04 1.32-3.05 1.98.04.78.11 2.35.14 3.13-.98.54-1.95 1.08-2.92 1.62-1.03-.55-2.05-1.11-3.07-1.66-1.06.66-2.11 1.34-3.15 2.02l.16 3.08c-.97.55-1.94 1.09-2.9 1.64-1-.57-1.99-1.12-2.99-1.68-1.07.64-2.14 1.26-3.2 1.89.01.8.04 2.42.06 3.22-.91.54-1.82 1.09-2.72 1.63-1.01-.56-2.02-1.11-3.02-1.66-1.1.62-2.2 1.24-3.29 1.86l.04 3.23c-.91.53-1.82 1.06-2.73 1.6-.97-.55-1.95-1.08-2.92-1.63-2.45.69-3.7 2.55-3.2 5.1-1.16.69-2.37 1.3-3.72 1.5.85-1.28 1.66-2.58 2.46-3.89 1.19-2.06 2.07-4.27 2.89-6.51 7.36-4.22 14.76-8.4 22.13-12.61 5.96-3.14 11.76-6.58 17.61-9.91 15.76-9.12 31.7-17.92 47.46-27.03 7.06-3.73 13.94-7.78 20.86-11.74 8.5-4.92 17.07-9.71 25.6-14.56 3.8-2.19 7.75-4.18 11.22-6.89 11.02-8.45 17.68-22.42 16.97-36.31-.49-7.99-10.48-13.03-17.29-8.94-30.3 17.43-60.46 35.09-90.74 52.56a2457.52 2457.52 0 0 0-31.82 18.46c-4.29 2.57-8.66 5.01-12.99 7.53.2-4.25 4.71-6.52 4.7-10.85.86-.49 1.71-1 2.57-1.51.46.58 1.37 1.76 1.83 2.34 1.67-.93 3.33-1.87 4.99-2.82.12-1.3.24-2.59.38-3.87.56-.3 1.69-.9 2.26-1.2.69.73 1.39 1.45 2.1 2.18 1.58-.85 3.18-1.69 4.77-2.53-2.37-2.06-5.11-3.59-7.86-5.07-.03-1.33-.05-2.66-.07-3.98l.21.15c2.43 1.83 5.04 3.42 7.76 4.81 1.14-.38 2.28-.75 3.43-1.13.24.66.71 1.97.95 2.63 1.82-1.1 3.63-2.22 5.43-3.37-2.7-1.62-5.43-3.2-8.2-4.69-.01-.9-.04-2.7-.05-3.6 3.51 1.8 6.89 5.33 11.18 3.92.45.42 1.33 1.28 1.77 1.7 1.36-1.03 4.02-1.27 4.1-3.29-2.29-1.66-4.83-2.92-7.27-4.33l-.06-3.94.25.18c3.2 2.37 6.72 5.13 10.97 4 .43.42 1.28 1.26 1.71 1.68 1.57-.82 3.15-1.65 4.73-2.48-2.49-1.97-5.23-3.59-8.08-4.98-.03-1.27-.05-2.54-.07-3.81l.17.1c2.59 1.75 5.3 3.32 8.1 4.71 1.1-.4 2.2-.79 3.3-1.19.25.63.75 1.89.99 2.52 1.73-1.04 3.45-2.07 5.16-3.13-2.57-1.7-5.2-3.32-7.89-4.85-.04-.86-.11-2.59-.15-3.46 3.49 1.89 7.01 5 11.27 3.76.46.39 1.38 1.18 1.84 1.57 1.51-.79 3.02-1.56 4.53-2.35-2.41-2.07-5.2-3.61-8.02-5.05-.02-1.32-.03-2.65-.03-3.97l.34.25c2.48 1.78 5.08 3.37 7.76 4.82 1.15-.45 2.29-.89 3.44-1.33.17.7.5 2.1.66 2.79a397 397 0 0 0 5.61-3.38c-2.64-1.67-5.33-3.25-8.05-4.78 0-1.34.01-2.68.02-4.02l.35.26c2.8 1.78 5.48 4.95 9.13 4.27 1.5-.45 2.57.35 3.42 1.55 1.55-.95 3.1-1.9 4.64-2.86a153.15 153.15 0 0 0-7.85-4.76c0-1.21-.02-2.42-.01-3.63 3.29 2.33 6.91 4.79 11.17 3.89.23.53.7 1.58.93 2.11 1.82-1.01 3.65-2.01 5.45-3.06a102.02 102.02 0 0 0-7.96-4.92 466.5 466.5 0 0 1-.07-3.74l.19.13c3.4 2.07 6.86 5.41 11.17 4 .31.48.94 1.44 1.25 1.92 1.7-1.06 3.38-2.15 5.05-3.28-2.67-1.5-5.31-3.04-7.89-4.67v-3.9l.27.22c3.09 2.75 6.83 4.99 11.11 4.13.39.38 1.17 1.12 1.56 1.5l4.41-2.43c-2.24-1.94-4.84-3.38-7.42-4.79l-.48-3.66c3.59 1.68 6.97 5.24 11.27 3.92.4.42 1.19 1.24 1.58 1.66 1.62-1.01 3.22-2.05 4.79-3.15-2.62-1.54-5.26-3.05-7.86-4.62l.03-3.73.17.13a44.55 44.55 0 0 0 7.58 4.85c1.14-.32 2.29-.64 3.44-.94 1 3.26 4.1.95 6.08.13-2.25-1.4-4.49-2.79-6.72-4.22L376.23.6z"/><path fill="#505554" d="m380.18 1.7 3.04 1.68c.33-.31.99-.92 1.32-1.23 4.18 2.51 8.41 4.93 12.61 7.4-.88.59-1.75 1.18-2.61 1.77-2.99-1.11-6.35-2.25-7.6-5.5-1.73-.53-3.45-1.08-5.17-1.59-.4-.64-1.19-1.9-1.59-2.53z"/><path d="M220.32 8.31c2.08-1.53 4.23-2.98 6.46-4.29 10.48 6.41 21.26 12.31 31.74 18.72-2.13 1.45-4.3 2.86-6.46 4.26-10.54-6.3-21.25-12.3-31.74-18.69zM122.9 57.04c6-14.6 12.04-29.18 18.02-43.79 17.78 10.55 35.76 20.78 53.69 31.08-5.24 14.94-12.35 29.16-17.5 44.13-17.98-10.62-36.18-20.87-54.21-31.42m22.25-31.91c-3.96 9.53-7.89 19.07-11.78 28.63 13.21 7.56 26.34 15.26 39.58 22.77.58-1.43 1.17-2.86 1.76-4.29 3.32-8.08 6.68-16.14 9.96-24.24-7.64-4.53-15.39-8.85-23.04-13.36-3.31-1.9-6.59-3.83-9.91-5.69a534.98 534.98 0 0 0-6.57-3.82zM84.03 126.91c8.79 4.76 17.48 9.74 26 14.97-28.02 23.09-55.82 46.44-83.98 69.34-8.5-5-17.04-9.96-25.66-14.75 23.66-20.06 47.79-39.61 71.61-59.49 4.01-3.36 8.11-6.6 12.03-10.07z" fill="#606061"/><path fill="#363636" d="m220.16 8.21.16.1c10.49 6.39 21.2 12.39 31.74 18.69-.08 6.72.35 13.49-.84 20.15-10.56-5.31-20.52-11.83-31.41-16.46.38-7.48 1.16-15.01.35-22.48z"/><path d="M362.51 10.03c1.22-.71 2.45-1.42 3.7-2.12 2.6 1.57 5.24 3.08 7.86 4.62-1.57 1.1-3.17 2.14-4.79 3.15-.39-.42-1.18-1.24-1.58-1.66-4.3 1.32-7.68-2.24-11.27-3.92.93-.58 1.87-1.16 2.81-1.73 1.08.55 2.18 1.11 3.27 1.66zm-15.26 5.32c1.75-2.02 3.86-.91 5.63.29 1.15-.73 2.3-1.47 3.45-2.21l.58.33c2.58 1.41 5.18 2.85 7.42 4.79l-4.41 2.43c-.39-.38-1.17-1.12-1.56-1.5-4.28.86-8.02-1.38-11.11-4.13zm-4.16 5.9c1.29-.75 2.59-1.48 3.89-2.22 2.58 1.63 5.22 3.17 7.89 4.67-1.67 1.13-3.35 2.22-5.05 3.28-.31-.48-.94-1.44-1.25-1.92-4.31 1.41-7.77-1.93-11.17-4 .66-.41 1.99-1.22 2.65-1.63 1.01.61 2.03 1.21 3.04 1.82zm-15.4 5.4c.96-.55 1.95-1.08 2.93-1.62.99.49 1.85 1.57 3.01 1.61 1.28-.53 2.44-1.29 3.65-1.97 2.73 1.51 5.37 3.16 7.96 4.92-1.8 1.05-3.63 2.05-5.45 3.06-.23-.53-.7-1.58-.93-2.11-4.26.9-7.88-1.56-11.17-3.89zm-9.33 5.43c.61-.36 1.82-1.08 2.43-1.44l3.09 1.71c1.27-.69 2.54-1.38 3.82-2.07 2.66 1.5 5.28 3.1 7.85 4.76-1.54.96-3.09 1.91-4.64 2.86-.85-1.2-1.92-2-3.42-1.55-3.65.68-6.33-2.49-9.13-4.27zm-9.79 5.64c.63-.39 1.87-1.15 2.49-1.53 1.11.58 2.22 1.16 3.34 1.73 1.19-.7 2.39-1.39 3.59-2.08 2.72 1.53 5.41 3.11 8.05 4.78a397 397 0 0 1-5.61 3.38c-.16-.69-.49-2.09-.66-2.79-1.15.44-2.29.88-3.44 1.33-2.68-1.45-5.28-3.04-7.76-4.82zm-9.93 5.79c.99-.6 2-1.2 3-1.8.99.64 1.99 1.27 2.99 1.91 1.21-.73 2.41-1.46 3.63-2.18 2.82 1.44 5.61 2.98 8.02 5.05-1.51.79-3.02 1.56-4.53 2.35-.46-.39-1.38-1.18-1.84-1.57-4.26 1.24-7.78-1.87-11.27-3.76zm-3.62 5.64c1.25-.73 2.51-1.45 3.77-2.18 2.69 1.53 5.32 3.15 7.89 4.85-1.71 1.06-3.43 2.09-5.16 3.13-.24-.63-.74-1.89-.99-2.52-1.1.4-2.2.79-3.3 1.19-2.8-1.39-5.51-2.96-8.1-4.71.69-.4 2.08-1.21 2.78-1.62 1.03.62 2.07 1.24 3.11 1.86zM279.7 54.4c.61-.38 1.83-1.15 2.44-1.53l3.24 1.83c1.22-.69 2.43-1.39 3.65-2.08 2.85 1.39 5.59 3.01 8.08 4.98-1.58.83-3.16 1.66-4.73 2.48-.43-.42-1.28-1.26-1.71-1.68-4.25 1.13-7.77-1.63-10.97-4zm-.19 3.76c2.44 1.41 4.98 2.67 7.27 4.33-.08 2.02-2.74 2.26-4.1 3.29-.44-.42-1.32-1.28-1.77-1.7-4.29 1.41-7.67-2.12-11.18-3.92.85-.56 1.71-1.14 2.56-1.72 1.17.61 2.35 1.22 3.54 1.82 1.22-.7 2.45-1.39 3.68-2.1zm-19.1 7.35c.64-.38 1.92-1.13 2.56-1.5 1.02.62 2.04 1.23 3.07 1.85 1.24-.7 2.5-1.37 3.74-2.1 2.77 1.49 5.5 3.07 8.2 4.69-1.8 1.15-3.61 2.27-5.43 3.37-.24-.66-.71-1.97-.95-2.63-1.15.38-2.29.75-3.43 1.13-2.72-1.39-5.33-2.98-7.76-4.81zm-7.54 4.01c1.23.62 2.47 1.27 3.7 1.91 1.23-.7 2.47-1.38 3.7-2.09 2.75 1.48 5.49 3.01 7.86 5.07-1.59.84-3.19 1.68-4.77 2.53-.71-.73-1.41-1.45-2.1-2.18-.57.3-1.7.9-2.26 1.2-2.22-1.14-4.41-2.33-6.57-3.56.13-.96.28-1.93.44-2.88zm-1.74 5.74c2.55 1.42 5.06 2.93 7.49 4.57-1.66.95-3.32 1.89-4.99 2.82-.46-.58-1.37-1.76-1.83-2.34-.86.51-1.71 1.02-2.57 1.51.45-2.24 1.15-4.41 1.9-6.56z" fill="#5e5e5e"/><path d="M140.92 13.25c2.97-.26 5.96-.72 8.94-.39 17.99 10.23 35.9 20.61 53.77 31.05-3 .26-6.01.6-9.02.42-17.93-10.3-35.91-20.53-53.69-31.08zM41.48 214.38c11.27-6.79 22.38-13.85 33.54-20.84 7.67 4.26 15.17 8.82 22.75 13.22-1.97 1.85-4.41 3.04-6.74 4.36-16.23 9.38-32.48 18.72-48.68 28.14-1.3.75-2.69 1.33-4.08 1.88-.01-8.23-.13-16.47.07-24.7 1.04-.7 2.07-1.41 3.14-2.06zM.39 196.47c8.62 4.79 17.16 9.75 25.66 14.75-.06 17.07.38 34.13.22 51.2-8.48-4.95-16.99-9.83-25.5-14.72-.53-17.07-.06-34.15-.38-51.23z" fill="#302b2b"/><path d="M380.08 14.12c6.81-4.09 16.8.95 17.29 8.94.71 13.89-5.95 27.86-16.97 36.31-3.47 2.71-7.42 4.7-11.22 6.89-8.53 4.85-17.1 9.64-25.6 14.56-.29-5.43 2.39-10.34 3.72-15.46 3.42-12.13 7.55-24.06 10.75-36.25-9.82 5.43-19.42 11.26-29.24 16.69-4.74 2.11-5.16 7.81-6.88 12.06-9.58 5.51-19.07 11.17-28.7 16.59-.07.53-.21 1.59-.29 2.11-.62 3.47-.75 6.99-.6 10.5 8.1-3.88 15.45-9.13 23.45-13.22-2.34 8.62-6.35 16.67-8.59 25.32 5.43-1.62 9.65-6.57 15.52-6.6-15.76 9.11-31.7 17.91-47.46 27.03 3.31-12.86 7.53-25.45 11.23-38.2 1.26-4.82 4.08-9.57 2.85-14.71 30.28-17.47 60.44-35.13 90.74-52.56m-3.38 19.11c4.37 1.12 7.16-4.72 5.1-8.1-4.27-.52-6.22 4.63-5.1 8.1m2.58 10.97c-2.11 1.32-3.24 3.99-2.81 6.42.05 1.61 2.18 1.75 3.24 1.05 1.8-1.28 2.81-3.5 2.87-5.68.07-1.67-2.01-3.02-3.3-1.79zM244.53 92.67c4.33-2.52 8.7-4.96 12.99-7.53-.18 2.06-.49 4.14-1.25 6.08-3.78 9.98-7.35 20.04-11 30.06-1.91 5.27-3.99 10.48-5.32 15.93 6.29-1.7 11.03-7.39 17.7-7.71-7.37 4.21-14.77 8.39-22.13 12.61.97-2.7 2.1-5.35 3.05-8.07.42-8.43.11-16.88.15-25.32-1.89-2.22-3.8-4.44-5.67-6.67 3.87-3.08 7.62-6.3 11.48-9.38z" fill="#a9a8a8"/><path fill="#434847" opacity=".89" d="M399.19 15.92c1.85.85 3.61 1.87 5.32 2.98-1.21.21-2.41.42-3.61.62-.55-1.21-1.12-2.41-1.71-3.6z"/><path fill="#3b3b3b" d="M252.06 27c2.16-1.4 4.33-2.81 6.46-4.26-.52 15.71-1.81 31.49-5.65 46.78-.16.95-.31 1.92-.44 2.88 2.16 1.23 4.35 2.42 6.57 3.56-.14 1.28-.26 2.57-.38 3.87-2.43-1.64-4.94-3.15-7.49-4.57-.75 2.15-1.45 4.32-1.9 6.56.01 4.33-4.5 6.6-4.7 10.85-3.86 3.08-7.61 6.3-11.48 9.38a284 284 0 0 1-2.3-2.81c7.47-7.97 12.97-17.74 16.35-28.11 2.28-7.81 3.16-15.93 4.12-23.98 1.19-6.66.76-13.43.84-20.15z"/><path fill="#161616" d="M145.15 25.13c2.2 1.26 4.39 2.53 6.57 3.82-2.08 5-4.14 10.01-6.19 15.02-1.26 3.08-2.53 6.15-3.8 9.21 10.96 6.4 22 12.68 32.98 19.06-.59 1.43-1.18 2.86-1.76 4.29-13.24-7.51-26.37-15.21-39.58-22.77 3.89-9.56 7.82-19.1 11.78-28.63z"/><path d="M376.7 33.23c-1.12-3.47.83-8.62 5.1-8.1 2.06 3.38-.73 9.22-5.1 8.1zm2.58 10.97c1.29-1.23 3.37.12 3.3 1.79-.06 2.18-1.07 4.4-2.87 5.68-1.06.7-3.19.56-3.24-1.05-.43-2.43.7-5.1 2.81-6.42zM263.25 97.82c-3.33-2.38.46-9.78 4.65-7.81.64 3.13-.69 8.14-4.65 7.81zm-1.28 16.16c.03-2.91 2.84-7.2 6.06-5.01.21 2.83-.47 6.43-3.49 7.53-1.46.65-2.98-1.08-2.57-2.52z" fill="#686868"/><path d="M328.81 45.8c9.82-5.43 19.42-11.26 29.24-16.69-3.2 12.19-7.33 24.12-10.75 36.25-1.33 5.12-4.01 10.03-3.72 15.46-6.92 3.96-13.8 8.01-20.86 11.74-5.87.03-10.09 4.98-15.52 6.6 2.24-8.65 6.25-16.7 8.59-25.32-8 4.09-15.35 9.34-23.45 13.22-.15-3.51-.02-7.03.6-10.5-.02 2.9.07 5.8.1 8.7 19-11.04 38.05-21.99 56.97-33.15-.01-3.52 0-7.03-.01-10.54-9.37 5.41-18.71 10.86-28.07 16.29 1.72-4.25 2.14-9.95 6.88-12.06zm-71.29 39.34a2457.52 2457.52 0 0 1 31.82-18.46c1.23 5.14-1.59 9.89-2.85 14.71-3.7 12.75-7.92 25.34-11.23 38.2-5.85 3.33-11.65 6.77-17.61 9.91-6.67.32-11.41 6.01-17.7 7.71 1.33-5.45 3.41-10.66 5.32-15.93 3.65-10.02 7.22-20.08 11-30.06.76-1.94 1.07-4.02 1.25-6.08m5.73 12.68c3.96.33 5.29-4.68 4.65-7.81-4.19-1.97-7.98 5.43-4.65 7.81m-1.28 16.16c-.41 1.44 1.11 3.17 2.57 2.52 3.02-1.1 3.7-4.7 3.49-7.53-3.22-2.19-6.03 2.1-6.06 5.01zM100.32 97.87c8.11 3.58 15.49 8.75 23.29 13-2.67 6.27-5.06 12.65-7.9 18.84-7.57-4.41-15.11-8.86-22.78-13.09 2.02-6.41 5.09-12.43 7.39-18.75m1.85 3.65c-1.79 4.66-3.75 9.26-5.66 13.89a92.1 92.1 0 0 0 5.73 3.42c2.03-4.65 4.05-9.3 5.98-13.99-1.93-1.26-3.91-2.46-6.05-3.32m12.22 6.61c-1.89 4.63-3.79 9.26-5.71 13.88 1.73 1.25 3.56 2.36 5.42 3.39 2.64-4.28 4.02-9.18 6.28-13.66-1.81-1.5-3.9-2.58-5.99-3.61z" fill="#989898"/><path fill="#2e2e2e" d="M219.81 30.69c10.89 4.63 20.85 11.15 31.41 16.46-.96 8.05-1.84 16.17-4.12 23.98-6.72-3.88-13.18-8.22-20.1-11.72l-.23-.12c-4.1-2.23-8.13-4.6-12.15-6.98 3.86-6.53 4.43-14.25 5.19-21.62z"/><path d="M145.53 43.97c5.33-3.16 10.74-6.2 16.1-9.33 7.65 4.51 15.4 8.83 23.04 13.36-3.28 8.1-6.64 16.16-9.96 24.24-10.98-6.38-22.02-12.66-32.98-19.06 1.27-3.06 2.54-6.13 3.8-9.21zm57.4 1.64c3.95 2.13 7.81 4.42 11.69 6.7 4.02 2.38 8.05 4.75 12.15 6.98-12.8 7.43-25.61 14.87-38.48 22.2 4.69-12.04 9.81-23.9 14.64-35.88zM90.19 75.87c8.08-4.58 16.09-9.29 24.15-13.9 17.15 11.21 35.34 20.8 52.4 32.16-7.6 4.13-15.06 8.51-22.5 12.93-17.97-10.47-35.96-20.91-54.05-31.19z" fill="#d66061"/><path fill="#1c2225" d="M401.12 39.17c.51.27 1.52.83 2.02 1.1-.26 1.15-.52 2.29-.76 3.44-1.47-.33-2.94-.66-4.39-.99.75-1.42 1.96-2.49 3.13-3.55z"/><path fill="#fbad18" d="M321.93 57.86c9.36-5.43 18.7-10.88 28.07-16.29.01 3.51 0 7.02.01 10.54-18.92 11.16-37.97 22.11-56.97 33.15-.03-2.9-.12-5.8-.1-8.7.08-.52.22-1.58.29-2.11 9.63-5.42 19.12-11.08 28.7-16.59z"/><path fill="#4b4545" d="M194.61 44.33c3.01.18 6.02-.16 9.02-.42-.17.42-.52 1.27-.7 1.7-4.83 11.98-9.95 23.84-14.64 35.88-3.73 2.31-7.36 4.79-11.18 6.97 5.15-14.97 12.26-29.19 17.5-44.13z"/><path fill="#d35151" d="M114.34 61.97c2.85-1.65 5.69-3.33 8.56-4.93 18.03 10.55 36.23 20.8 54.21 31.42-3.37 2.04-6.83 3.95-10.37 5.67-17.06-11.36-35.25-20.95-52.4-32.16z"/><path d="m226.77 59.29.23.12c.07 9.64.36 19.28.57 28.92-17.89 10.05-35.89 19.91-53.76 29.98-2.38 2.83-4.26 6.03-6.32 9.09-13.87 20.55-27.54 41.23-41.46 61.73.06-12.57-.24-25.15.12-37.71 5.99-14.81 12.41-29.44 18.09-44.36 7.44-4.42 14.9-8.8 22.5-12.93 3.54-1.72 7-3.63 10.37-5.67 3.82-2.18 7.45-4.66 11.18-6.97 12.87-7.33 25.68-14.77 38.48-22.2zm-35.74 76.25c15.81-9.07 31.68-18.08 47.69-26.82-.04 8.44.27 16.89-.15 25.32-1.14.28-2.32.52-3.35 1.12-17.75 10.6-35.52 21.18-53.28 31.78-6.1 3.47-11.94 7.41-18.22 10.57 1.09-2.14 2.13-4.31 3.48-6.31 8.07-11.8 15.74-23.87 23.83-35.66m6.76 5.75c-.03 3.56-.03 7.13-.02 10.7 5.84-3.32 11.68-6.66 17.46-10.08v-10.66c-5.82 3.34-11.6 6.74-17.44 10.04zm30.87 9.35c1.3-.71 2.63-1.36 3.97-2.02-.8 1.31-1.61 2.61-2.46 3.89-3.81 5.42-7.59 10.87-11.37 16.31-1.33 2.1-3.84 2.87-5.83 4.17-28.97 16.87-57.93 33.74-86.89 50.61-.12-5.07-.11-10.14-.07-15.21.81-.57 1.63-1.11 2.42-1.7l-.01 1.31c33.42-19.11 66.84-38.22 100.24-57.36z" fill="#aa2325"/><path fill="#242424" d="M227 59.41c6.92 3.5 13.38 7.84 20.1 11.72-3.38 10.37-8.88 20.14-16.35 28.11l-.16.13c-.9-3.71-2.1-7.34-3.02-11.04-.21-9.64-.5-19.28-.57-28.92z"/><path d="M71.96 120.04c6.05-14.73 12.12-29.46 18.23-44.17 18.09 10.28 36.08 20.72 54.05 31.19-5.68 14.92-12.1 29.55-18.09 44.36-5.37-3.19-10.91-6.09-16.12-9.54-8.52-5.23-17.21-10.21-26-14.97-4.14-2.07-8.11-4.48-12.07-6.87m28.36-22.17c-2.3 6.32-5.37 12.34-7.39 18.75 7.67 4.23 15.21 8.68 22.78 13.09 2.84-6.19 5.23-12.57 7.9-18.84-7.8-4.25-15.18-9.42-23.29-13zm75.11 34.49c.87-1.05 1.76-2.77 3.41-2.1 4.21 1.38 7.96 3.89 12.19 5.28-8.09 11.79-15.76 23.86-23.83 35.66-1.35 2-2.39 4.17-3.48 6.31-12 9.43-23.28 19.75-35.29 29.18 2.8-6.33 7.18-11.74 10.68-17.67 12.22-18.81 24.19-37.79 36.32-56.66z" fill="#b64344"/><path fill="#d45555" d="M173.81 118.31c17.87-10.07 35.87-19.93 53.76-29.98.92 3.7 2.12 7.33 3.02 11.04-15.54 8.93-31.28 17.51-46.82 26.43-2.01 1.19-4.13 2.17-6.27 3.09-1.51-3.43-2.72-6.97-3.69-10.58z"/><path fill="#c5484b" d="m230.59 99.37.16-.13a284 284 0 0 0 2.3 2.81c1.87 2.23 3.78 4.45 5.67 6.67-16.01 8.74-31.88 17.75-47.69 26.82-4.23-1.39-7.98-3.9-12.19-5.28-1.65-.67-2.54 1.05-3.41 2.1-12.13 18.87-24.1 37.85-36.32 56.66-3.5 5.93-7.88 11.34-10.68 17.67-.79.59-1.61 1.13-2.42 1.7-.01-6.42-.03-12.84.02-19.26 13.92-20.5 27.59-41.18 41.46-61.73 2.06-3.06 3.94-6.26 6.32-9.09.97 3.61 2.18 7.15 3.69 10.58 2.14-.92 4.26-1.9 6.27-3.09 15.54-8.92 31.28-17.5 46.82-26.43z"/><path d="M102.17 101.52c2.14.86 4.12 2.06 6.05 3.32-1.93 4.69-3.95 9.34-5.98 13.99a92.1 92.1 0 0 1-5.73-3.42c1.91-4.63 3.87-9.23 5.66-13.89zm12.22 6.61c2.09 1.03 4.18 2.11 5.99 3.61-2.26 4.48-3.64 9.38-6.28 13.66-1.86-1.03-3.69-2.14-5.42-3.39 1.92-4.62 3.82-9.25 5.71-13.88zM26.05 211.22c28.16-22.9 55.96-46.25 83.98-69.34-.1 24.09.07 48.19-.09 72.27-27.91 16.06-55.72 32.28-83.67 48.27.16-17.07-.28-34.13-.22-51.2m48.98-25.15v.49c-11.21 9.25-22.47 18.43-33.55 27.82-1.07.65-2.1 1.36-3.14 2.06-.2 8.23-.08 16.47-.07 24.7 1.39-.55 2.78-1.13 4.08-1.88 16.2-9.42 32.45-18.76 48.68-28.14 2.33-1.32 4.77-2.51 6.74-4.36-.3-13.05-.02-26.1-.14-39.15-7.68 5.96-14.97 12.43-22.6 18.46z" fill="#544e4e"/><path d="M71.96 120.04c3.96 2.39 7.93 4.8 12.07 6.87-3.92 3.47-8.02 6.71-12.03 10.07-.02-5.65.04-11.29-.04-16.94zm38.07 21.84c5.21 3.45 10.75 6.35 16.12 9.54-.36 12.56-.06 25.14-.12 37.71-.05 6.42-.03 12.84-.02 19.26-.04 5.07-.05 10.14.07 15.21-5.35-3.2-10.86-6.12-16.14-9.45.16-24.08-.01-48.18.09-72.27z" fill="#851719"/><path fill="#c2c2c2" d="M197.79 141.29c5.84-3.3 11.62-6.7 17.44-10.04v10.66c-5.78 3.42-11.62 6.76-17.46 10.08-.01-3.57-.01-7.14.02-10.7z"/><path fill="#4c1111" d="M235.22 135.16c1.03-.6 2.21-.84 3.35-1.12-.95 2.72-2.08 5.37-3.05 8.07-.82 2.24-1.7 4.45-2.89 6.51-1.34.66-2.67 1.31-3.97 2.02-33.4 19.14-66.82 38.25-100.24 57.36l.01-1.31c12.01-9.43 23.29-19.75 35.29-29.18 6.28-3.16 12.12-7.1 18.22-10.57 17.76-10.6 35.53-21.18 53.28-31.78z"/><path d="M75.03 186.07c7.63-6.03 14.92-12.5 22.6-18.46.12 13.05-.16 26.1.14 39.15-7.58-4.4-15.08-8.96-22.75-13.22-.02-2.32-.02-4.65.01-6.98v-.49z"/></svg>